<svg id="Layer_1" data-name="Layer 1" xmlns="http://www.w3.org/2000/svg" viewBox="0 0 141.73 141.73"><circle cx="70.87" cy="70.87" r="65.96" fill="#65c5e1" stroke="#fff" stroke-miterlimit="10" stroke-width="5"/><path d="M32.12,66,64.23,46.43a5.66,5.66,0,0,1,8.6,4.83V90.47a5.65,5.65,0,0,1-8.6,4.83L32.12,75.69A5.65,5.65,0,0,1,32.12,66Z" fill="#1d1d1b" stroke="#1d1d1b" stroke-miterlimit="10"/><path d="M49.77,65.5q8.23-5,16.79-9.43A2.5,2.5,0,1,0,64,51.76q-8.55,4.43-16.79,9.42a2.5,2.5,0,1,0,2.52,4.32Z" fill="#65c5e1"/><path d="M71.83,66.1h37.64a2.84,2.84,0,0,1,2.84,2.84v2.9a2.86,2.86,0,0,1-2.86,2.86H71.83a0,0,0,0,1,0,0V66.1A0,0,0,0,1,71.83,66.1Z" fill="#1d1d1b" stroke="#1d1d1b" stroke-miterlimit="10"/></svg>