<svg xmlns="http://www.w3.org/2000/svg" viewBox="0 0 141.73 141.73"><defs><style>.cls-1{fill:#fbbb21;}.cls-2{fill:none;stroke:#fff;stroke-miterlimit:10;stroke-width:3.39px;}.cls-3{fill:#0b1213;}</style></defs><g id="ikon"><path class="cls-1" d="M19.58,68.88a52.37,52.37,0,1,1,52.36,52.36A52.36,52.36,0,0,1,19.58,68.88"/><path class="cls-2" d="M19.58,68.88a52.37,52.37,0,1,1,52.36,52.36A52.36,52.36,0,0,1,19.58,68.88Z"/><polygon class="cls-3" points="71.92 34.78 71.92 62.94 91.83 62.94 71.92 103.85 71.92 75.71 52.06 75.71 71.92 34.78"/><path class="cls-3" d="M67.49,34.78V63A4.51,4.51,0,0,0,72,67.41H91.83Q89.9,64.05,88,60.69q-1.38,2.84-2.75,5.67L79,79.17,72.35,92.85q-2,4.13-4,8.26l-.24.49,8.33,2.25V75.7A4.51,4.51,0,0,0,72,71.23H52.07c1.28,2.25,2.57,4.49,3.85,6.73.92-1.89,1.84-3.77,2.75-5.66q3.12-6.39,6.23-12.8l6.65-13.67q2-4.14,4-8.29l.24-.5a4.69,4.69,0,0,0,.45-3.44,4.48,4.48,0,0,0-5.49-3.13,4.38,4.38,0,0,0-2.68,2.06l-2.75,5.66L59.13,51,52.48,64.66l-4,8.28-.24.51a4.47,4.47,0,0,0,0,4.51,4.48,4.48,0,0,0,3.85,2.21H72L67.49,75.7v28.15a4.48,4.48,0,0,0,5.66,4.31,4.34,4.34,0,0,0,2.67-2q1.38-2.83,2.75-5.67Q81.69,94,84.8,87.62,88.12,80.79,91.44,74q2-4.14,4-8.26c.08-.17.16-.33.23-.49a4.47,4.47,0,0,0,0-4.51,4.48,4.48,0,0,0-3.85-2.21H72L76.43,63V34.78a4.47,4.47,0,0,0-8.94,0"/></g></svg>