<svg xmlns="http://www.w3.org/2000/svg" xmlns:xlink="http://www.w3.org/1999/xlink" viewBox="0 0 394.02 379.84"><defs><style>.cls-1{fill:none;}.cls-2{fill:#9c2023;}.cls-3{fill:#ce2f36;}.cls-4{fill:#bd282a;}.cls-5{clip-path:url(#clip-path);}.cls-6{fill:#010101;}.cls-10,.cls-7{fill:#f0d236;}.cls-11,.cls-7,.cls-9{stroke:#ba7a2a;stroke-miterlimit:10;}.cls-7,.cls-9{stroke-width:2px;}.cls-11,.cls-8{fill:#f3e579;}.cls-9{fill:#e5b822;}.cls-11{stroke-width:1.24px;}</style><clipPath id="clip-path"><rect class="cls-1" x="0.14" y="31.99" width="395.5" height="395.5" transform="translate(-36.47 422.13) rotate(-88.64)"/></clipPath></defs><title>el_medal</title><g id="bonds"><path class="cls-2" d="M285,7.2c57.7,14,98,44.3,92.7,49.1s-22.2,29.7-32.9,65.4-21.6,88.4-28,78.1-24.6-47.3-54.7-61.1-30.5-4.1-30.1-13.9,21.1-56.2,32.6-79.9S275.76,5,285,7.2Z"/><path class="cls-3" d="M331.56,24.3c-13.1-4.3-33-13-44.3-11.3-7.4,1.1-57,116.2-49.8,117.3,10.3,1.6,31.5,14.4,34.9,22.1,2.3,5.3,9.2-14.3,21.8-42.1s25-53,30.7-66.5S336.46,25.9,331.56,24.3Z"/><path class="cls-4" d="M239.06,124.7c8.5-16.6,15-34.1,23.4-50.7a333.16,333.16,0,0,0,15-36c1.4-3.9,2.9-7.9,4.7-11.7a77.25,77.25,0,0,1,7.2-12.1c-.9.4-1.9.8-2.8,1.1a431.4,431.4,0,0,1,67.8,25.2c6.2,2.9,12.3,6,18.3,9.2-.3-1.1-.6-2.3-.9-3.4-7.6,17.9-17.6,34.5-25.7,52.1-2,4.4-3.9,8.9-5.6,13.4-1.7,4.7-3.2,9.4-4.8,14.1-3.3,9.9-6.8,19.7-10.6,29.4-4.3,10.9-8.9,21.7-13.8,32.3a2.49,2.49,0,1,0,4.3,2.5A618.21,618.21,0,0,0,339,132c3.2-9.3,6-18.7,10-27.7,3.8-8.6,8.2-17,12.6-25.4,5.2-9.9,10.3-19.8,14.7-30.1a2.56,2.56,0,0,0-.9-3.4,441.82,441.82,0,0,0-67.5-28.8q-9.9-3.3-19.8-6a2.56,2.56,0,0,0-2.8,1.1,90.17,90.17,0,0,0-11.1,21.6c-2.4,6.4-4.6,12.8-7.2,19.1-2.4,5.9-5,11.8-7.8,17.5-3.8,7.8-7.5,15.5-11,23.5-4.2,9.7-8.3,19.4-13.1,28.7-1.8,2.9,2.5,5.5,4,2.6Z"/><path class="cls-2" d="M109.06,5.2c-57.7,14-98,44.3-92.7,49.1s22.2,29.7,32.9,65.4,21.6,88.4,28,78.1,24.6-47.3,54.7-61.1,30.5-4.1,30.1-13.9S141,66.6,129.46,42.9,118.16,3,109.06,5.2Z"/><path class="cls-3" d="M62.36,22.3c13.1-4.3,33-13,44.3-11.3,7.4,1.1,57,116.2,49.8,117.3-10.3,1.6-31.5,14.4-34.9,22.1-2.3,5.3-9.2-14.3-21.8-42.1s-25-53-30.7-66.5S57.46,23.9,62.36,22.3Z"/><path class="cls-4" d="M159.26,120.2c-8.5-16.6-15-34.1-23.4-50.7-5.8-11.4-10.4-23.5-14.7-35.5-3.1-8.6-6.7-16.8-12.1-24.3a2.48,2.48,0,0,0-2.8-1.1,444.32,444.32,0,0,0-68.8,25.6c-6.2,2.9-12.4,6-18.5,9.3a2.56,2.56,0,0,0-.9,3.4c7.6,17.8,17.6,34.4,25.8,52,2,4.3,3.8,8.6,5.4,13,1.7,4.7,3.2,9.5,4.7,14.2,3.3,9.9,6.9,19.7,10.7,29.4,4.3,11,9,21.9,14,32.6a2.56,2.56,0,0,0,3.4.9,2.47,2.47,0,0,0,.9-3.4,611.23,611.23,0,0,1-23.2-57.8c-3.2-9.4-6.1-18.9-10.2-28-3.8-8.6-8.2-17-12.6-25.4-5.2-9.9-10.3-19.8-14.7-30.1-.3,1.1-.6,2.3-.9,3.4A442.82,442.82,0,0,1,88,19.3c6.5-2.1,13-4.1,19.6-6-.9-.4-1.9-.8-2.8-1.1a86.79,86.79,0,0,1,10.9,21.2c2.3,6.4,4.5,12.7,7.2,19,2.6,6.1,5.2,12.2,8,18.2,3.8,7.8,7.5,15.5,11,23.5,4.2,9.7,8.3,19.4,13.1,28.7,1.4,2.8,5.7.2,4.3-2.6Z"/></g><g id="electricity"><rect class="cls-1" x="0.15" y="32.98" width="395.5" height="395.5" transform="translate(-37.46 423.1) rotate(-88.64)"/><g class="cls-5"><path class="cls-1" d="M197.72,360.07A130.56,130.56,0,1,1,331.44,232.74c-1.92,72.16-61.89,129.17-133.72,127.33"/></g><g class="cls-5"><path class="cls-6" d="M177.93,275.5a51.21,51.21,0,1,1,69.61-20c-13.47,24.59-44.69,33.57-69.61,20M144.1,198.26a67,67,0,1,1,26.2,91.06,67.07,67.07,0,0,1-26.2-91.06m12.65,116c3.95,2.38,14.95-10.94,19.06-9.22,4.53,1.48,4.46,18.57,8.73,19.64,4.69.82,10.76-15.13,15.61-15,4.52.08,9.87,16.43,14.56,15.85s5.82-17.75,9.93-18.83c4.52-1.31,14.31,12.65,18.66,10.59,3.95-1.81.07-18.49,3.85-21s17.68,7.55,21,4.18c3.21-3.05-5.76-17.51-3.05-21.37,2.63-3.54,19.15,1.63,21.2-2.4,2.38-4-10.94-15-9.22-19.06,1.48-4.52,18.58-4.45,19.64-8.73.82-4.68-15.13-10.75-15-15.6.08-4.53,16.43-9.88,15.86-14.56s-17.76-5.83-18.83-9.94c-1.32-4.52,12.64-14.31,10.59-18.66-1.81-4-18.5-.07-21.05-3.85s7.55-17.68,4.18-21c-3-3.21-17.5,5.76-21.37,3-3.53-2.62,1.63-19.15-2.4-21.2-3.94-2.38-14.95,10.94-19.06,9.22-4.52-1.48-4.45-18.57-8.73-19.64-4.68-.82-10.75,15.13-15.6,15-4.52-.08-9.88-16.43-14.56-15.85s-5.82,17.76-9.93,18.83C176.29,156,166.5,142,162.14,144.09c-3.94,1.81-.07,18.49-3.85,21s-17.67-7.55-21-4.18c-3.2,3.05,5.77,17.51,3.06,21.37-2.63,3.54-19.16-1.63-21.21,2.4-2.38,3.95,10.94,14.95,9.22,19.06-1.47,4.52-18.57,4.45-19.64,8.73-.82,4.68,15.13,10.76,15,15.61-.08,4.52-16.43,9.87-15.85,14.55s17.76,5.83,18.83,9.94c1.32,4.52-12.65,14.31-10.59,18.66,1.81,4,18.49.07,21,3.85s-7.55,17.68-4.17,21c3,3.21,17.5-5.76,21.36-3.05,3.54,2.62-1.54,18.82,2.4,21.2"/></g><path class="cls-7" d="M328.77,229.74c0,28.8-21.3,63.7-37.6,84.9-23,30-47.7,41.1-88.4,41.1-50.4,0-90.6-28.3-110.7-71.1-7.6-16.3-15.3-35.8-15.3-54.9a126,126,0,0,1,126-126c36.4,0,65.4,17.7,88.4,42.4C312.07,168.54,328.77,196.54,328.77,229.74Z"/><path class="cls-8" d="M231.87,348A118.39,118.39,0,0,0,304,288c2.2-4.5,4.2-9.1,6.2-13.7a153.46,153.46,0,0,0,5.9-16c.9-3.1-3.9-4.4-4.8-1.3-2.5,9-6.4,17.6-10.3,26.1A112,112,0,0,1,289,303a113.16,113.16,0,0,1-34.4,30.2,111.33,111.33,0,0,1-23.9,10.1c-3.2.8-1.9,5.6,1.2,4.7Z"/><path class="cls-8" d="M212.57,350.74a28,28,0,0,0,7.1-.3,16.45,16.45,0,0,0,3.2-.5c.8-.2,1.5-.5,2.3-.7a2.45,2.45,0,0,0,1.7-3.1,2.48,2.48,0,0,0-3.1-1.7c-.8.2-1.5.5-2.3.7a1.27,1.27,0,0,1-.6.1h.2c-.2-.1-.6.1-.9.1s-.6.1-.9.1a26.64,26.64,0,0,1-6.9.3,2.48,2.48,0,0,0-2.5,2.5,3,3,0,0,0,2.7,2.5Z"/><circle class="cls-9" cx="202.72" cy="230.58" r="96.7"/><path class="cls-10" d="M253.15,216.24a9.16,9.16,0,0,0-8.14-4.7l-23.08-.07-9.48-.06,0-9.78-.12-31.4,0-7.22a8.62,8.62,0,0,0-.1-4,12.18,12.18,0,0,0-1.47-2.9l-.16-.23-.14-.19a9.07,9.07,0,0,0-7.45-3.77,10.72,10.72,0,0,0-2.22.36l-.24,0a8.82,8.82,0,0,0-4.07,2.38,9.93,9.93,0,0,0-2.81,4.68c-1.49,3.06-3.09,6.13-4.59,9.43-4.34,8.94-8.68,17.87-13.13,27.1-4.56,9.51-9.22,19.32-14.07,28.72q-4.29,8.81-8.57,17.59l-.44,1.15a9.17,9.17,0,0,0-1.15,4.85,11.69,11.69,0,0,0,1.19,4.74,9.15,9.15,0,0,0,8.14,4.7l23.08.07,9.53.06.1,9.49.11,31.4,0,8.9a9.66,9.66,0,0,0,6.8,9.16c1.85.36,3.4.61,5-.11a9.2,9.2,0,0,0,5.64-4.49c1.81-3.94,4-8.07,5.82-12,4.34-8.94,8.79-18.16,13.13-27.1,4.56-9.51,9.22-19.32,14.07-28.72,2.86-5.86,5.72-11.72,8.46-17.3l.44-1.15a9.27,9.27,0,0,0,1.16-4.85A11.7,11.7,0,0,0,253.15,216.24Z"/><path class="cls-11" d="M239.17,217.17a6.89,6.89,0,0,0-6.11-3.54l-17.35,0-7.12,0,0-7.36-.09-23.6,0-5.42a6.49,6.49,0,0,0-.07-3,9.34,9.34,0,0,0-1.11-2.18l-.12-.17-.1-.14a6.86,6.86,0,0,0-5.61-2.84,8.34,8.34,0,0,0-1.66.27l-.19,0a6.6,6.6,0,0,0-3,1.79,7.45,7.45,0,0,0-2.11,3.52c-1.12,2.3-2.33,4.6-3.45,7.09-3.27,6.71-6.53,13.43-9.87,20.36-3.43,7.15-6.93,14.52-10.58,21.59q-3.21,6.62-6.44,13.22l-.32.87a6.8,6.8,0,0,0-.87,3.64,8.74,8.74,0,0,0,.89,3.56,6.9,6.9,0,0,0,6.12,3.54l17.35.05,7.16,0,.07,7.14.09,23.6,0,6.69a7.24,7.24,0,0,0,5.11,6.87,5.77,5.77,0,0,0,3.75-.08,6.9,6.9,0,0,0,4.24-3.37c1.36-3,3-6.06,4.38-9,3.26-6.71,6.61-13.65,9.87-20.36,3.42-7.15,6.93-14.52,10.57-21.59,2.15-4.41,4.3-8.81,6.36-13l.33-.87a6.82,6.82,0,0,0,.87-3.64A8.76,8.76,0,0,0,239.17,217.17Z"/></g></svg>