<?xml version="1.0" encoding="utf-8"?>
<!-- Generator: Adobe Illustrator 23.1.0, SVG Export Plug-In . SVG Version: 6.00 Build 0)  -->
<svg version="1.1" xmlns="http://www.w3.org/2000/svg" xmlns:xlink="http://www.w3.org/1999/xlink" x="0px" y="0px"
	 viewBox="0 0 841.9 595.3" enable-background="new 0 0 841.9 595.3" xml:space="preserve">
<g id="Layer_2">
	<rect x="-1" y="0.3" fill="#E3EAEC" width="841.4" height="595.2"/>
	<path fill="#9BADAF" d="M786,106.9c-7.1-19.4-101.4-7.2-81-19s21.2-18.5-36.2-21c-57.4-2.5-500.3-16-491.4,0
		c8.9,16,38.7,17.7,21.8,22.7c-16.8,5-148.8-1.5-129.5,17.3s68.5,23.9,46.9,33.2c-21.5,9.3-67.6,15.1-42.7,49.7
		s103.9,37.3,83.2,55.7s-93.3,42.5-56,64.7c37.3,22.2,112.7,38.7,85.9,49.2c-26.9,10.5-45.8,21.2-40.9,26
		c4.9,4.8,100.1,20.4,70.1,31.1s45.8,35.1,64.2,38.4c18.4,3.4-93.7,14.6-58.3,22.6c35.4,8,88.7,6.4,69.7,11.3
		c-19,4.8-4.3,7.4,2.1,11.6c6.4,4.2,55.7,4.2,41.4,9.3c-14.3,5-37.9,14.3-37.9,14.3s68.1-10.1,84.1-18.5
		c16.1-8.4-55.9-28.8-14.6-27.9c41.4,1,224.4-1.6,156.3-20.1c-68.2-18.5,3.1-22.7,36-28.6c32.9-5.9-46.7-19.4-13-23.6
		s105.7,7.4,68.9-6c-36.8-13.4-62.8-28.2-6.1-29.7c56.7-1.4,162.4,15.9,131.8-13.8c-30.6-29.7,67.4-22.1,39.8-40.6
		c-27.6-18.5-97.3-16.1-52.9-23.6s118,0.9,75.1-12.6s-99.6-22.3-45.2-32.6c54.4-10.3-26.8-36.4-6.1-42.3s112.6-26.1,49-43.8
		S791.6,122.2,786,106.9z"/>
</g>
<g id="Layer_3">
	<path fill="#6E4219" d="M286.8,198.4c1.8,2.5,0.7,14.7,0.6,17.5c0,1.5-8.1,0.6-8.7-1.2C278,212.9,285,195.9,286.8,198.4z"/>
	<path fill="#FBB786" d="M265.2,222.9c-2.3-1.9-29.5,0.4-25.8,3.4s15,12.5,19,13C262.5,240,267.9,225.2,265.2,222.9z"/>
	<path fill="#FFFFFF" d="M272.9,394.9c5.5-7.1,9.8-21.2,11.8-30.3c2-9-15.8-8.1-21.5,0.4c-5.7,8.5,0.7,16.1,2,19.8
		c1.5,4,2.4,9.1,3.1,11.4C268.9,398.4,271.2,397.2,272.9,394.9z"/>
	<path fill="#FFFFFF" d="M299.4,398.7c5.5-7.1,11.8-21.1,11.8-30.3c0-9.2-1-19.7-6.6-11.2c-5.7,8.5-6.4,9.7-7.2,17.3
		c-0.7,7.6-3.2,15.4-4.5,21.2C291.7,400.6,297.6,401,299.4,398.7z"/>
	<path fill="#FFFFFF" d="M259.8,235.7c-2.9-0.1-2.1,10.4-4.1,15.9c-0.4,1.1-3.9,5.9-3.3,6.9c0.6,1,6.4-1.8,5.6-0.2
		c-0.5,1.2-2.9,4.7-2.1,5.6c0.6,0.6,4.2-1.5,4.6-0.2c1.4,4.5,0,15.1,1.5,17.9c3.8,7.1-5.3,38.4,0.3,49.6
		c5.6,11.1,14.5,25.5,19.8,23.9c5.3-1.5,8.6-13.4,11.4-26.2c1.2-5.8,2.2-30.3,4.4-31c0.9-0.3,3.7,1.1,3.8-1.5
		c0.1-2,3.5-19.5,2.8-22.7c-1.9-8.2-11.1-7.8-10.4-14.8c0.7-7,12.8-18.3,6.9-20.3C295.1,236.7,267.8,236,259.8,235.7z"/>
	<path fill="#F47C4B" d="M270.2,290.2c0.9-2.2,5.4-7.9,5.4-7.9c-0.7,24.7-1.1,43.8-7.4,43.8c-3.5,0-7.1-3.8-5.9-11
		C263.6,308,267.5,297.4,270.2,290.2z"/>
	<path fill="#F47C4B" d="M248.5,312.9c-14-9.3-23.8-10.1-34-2.8c-10.2,7.2-14.3,14.1-17.1,22.8c-2.8,8.7-9.1,33.8-15.2,34.9
		c-6.1,1-15.6-6.3-15.6-6.3s4,12.9,14.5,19.1c10.5,6.2,8.8,7.6,17.9,4c5.6-2.2,10.6-18.4,23.2-16.9c14.3,1.6,12.3,7.4,23.8,8.9
		c11.5,1.5,13.3-2.8,13.3-2.8s-2-29.6-0.5-35.9c0.6-2.7-3.1-9.4-4.1-12.7c-0.2-0.6-0.6-1.5-1.1-3.8c-0.7-3.3-1.2-5.1-1.2-5.1
		S251.5,314.9,248.5,312.9z"/>
	<path fill="#F47C4B" d="M259.4,270.3c2.5-1.2,11.3-3,14.2-0.5c3.6,3.2,2.9,11.8,1.9,17.7c-1.4,8.7-5.7,13.3-7.4,22.7
		c-2.1,11.2,2.3,23.3,2.7,31.5c0.4,8.5-7.1,2-9.9-4.9s-5.7-11.4-7.2-19.9c-1.5-8.6,3.3-24.1,2.4-30.4
		C255.4,281.7,256.4,271.7,259.4,270.3z"/>
	<path fill="#F47C4B" d="M296.4,295.7c-3.2-2-8.6,2.2-8.3,4.8s4.8,6.9,1.7,9.5c-3.1,2.6-9.8-3.2-10.9-0.1c-1,3.1-1.1,10.9-2.7,16.2
		c-0.9,3,10.7,11.6,11.2,19.3c0.3,6.1-0.7,9.9-0.7,9.9s3.4,7.8,6.4,12.1c3.1,4.5,4,13.4,2.4,17.7c-1.6,4.4,7.2-4.6,9-9.9
		c1.8-5.3,0.1-8.2,2.7-9.9s2.6-1.7,2.6-1.7s2.4-2.3,1-6.5c-1.4-4.2-5.9-10.7-8.3-19.7c-2.4-9-3.8-7.4-5.2-17.1
		C295.8,310.6,301.3,298.8,296.4,295.7z"/>
	<path fill="#F47C4B" d="M292.6,218.9c-3.2-4.3-16.2-5.8-22-2.4s-12.6,11.2-12.5,16.9c0.1,5.7,2.5,12.6,13.2,14.8
		c10.7,2.2,19.4-0.1,26.7-2.8s11.5-9.2,14.3-11.4s6-9.8,5.6-11.1c-0.3-1.4-2-2.5-3.4-2.3c-1.4,0.2-5.5,4.3-11.3,5.4
		s-3.4,0.7-3.4,0.7S293.4,220.1,292.6,218.9z"/>
	<path fill="#F47C4B" d="M304.7,281.1c-0.3-0.9-3.4-3.8-3.7-6c-0.2-1.8,3.4-1.7,2.7-3.3c-0.9-2.4-5.2-5.2-3.7-5.2
		c2.5,0,9,1.7,13.6,3.4c8.4,3,6.3,3.5,14.3,4.3c7.7,0.8,16.1-6.6,24.3-7c8.5-0.3,6.2,7.4-0.8,10.1c-6.9,2.7-12,4.8-20.6,6.3
		c-8.6,1.4-9.3,0.5-15.5,0.2C310.6,283.6,305.5,283.3,304.7,281.1z"/>
	<path fill="#F47C4B" d="M264.5,330.5c4.7-4.8,12.9,3.1,15.6,7.3c3.1,4.8,10.5,11.5,4,29.4c-2.8,7.7-5.6,11.2-11.5,10.4
		s-9.9-3.8-13.2-9.8c-1.4-2.7-1.3-4.6-1.9-13.7C257,345.8,259.5,335.6,264.5,330.5z"/>
	<path fill="#6D6E71" d="M258,328.7c0-6.4,4.5-7.4,7.6-4.5c4,3.6,4.8,14.5,6,14.2c2.3-0.6,4.1-1.6,5.9,1.1c3.3,4.8-1.7,4.3-1.1,6.3
		c0.5,2,0.5,2.7,0.1,4.1s0.3,3.3-2.1,4.3c-2.8,1.2-4.8,0.2-6.1,0.6c-1.2,0.4-3.6,1.2-4.9-0.7c-1.3-1.8-2.5-5.4-1.7-8.3
		c0.8-2.9,1.5-3.2,0.8-5.2c-0.8-2-2-3.6-2.7-5.1C258.9,333.3,258,329.8,258,328.7z"/>
	<path fill="#6D6E71" d="M266.1,386.5c6-3.8,10.3-8,12.2-5.6c1.9,2.4-3.6,9.3-0.6,14.1c3.4,5.3,6.2,9.2,9.2,10
		c3.6,0.9,10.6,0.9,10.4,3.3c-0.4,4.7-2.7,3-9.4,5.1c-6.7,2.1-12.4,2-14.2,0.1c-7.6-8.1-7.7-12-6.7-18.4S263.2,388.3,266.1,386.5z"
		/>
	<path fill="#6D6E71" d="M301.9,389c6-3.8,3.6-8.4,5.6-6c1.9,2.4-4.4,5.9-1.4,10.6c3.4,5.3,14.5,3.8,21.7,3.7c3.5,0,7,5.2,6.8,7.6
		c-0.4,4.7-2.8,1.9-9.8,1.9c-7,0-16.4-2.5-18.8-3.3c-5.8-2-9.7-3-9.3-5.5C297.2,394.6,299.1,390.8,301.9,389z"/>
	<path fill="#6D6E71" d="M336.9,283.5c-0.5-3.4-0.4-7,5.9-11c4.8-3.1,11.9-6.1,11.8-7.4c-0.4-5.7,3.7-10.8,6.1-12.9
		c4.4-3.8-0.1,6.1,1.8,5.3s13.8-8.7,14.8-7.7c4,3.7-8.1,7.2-7.8,9.7c0.2,1.1,11.4-3.8,11.9-2.6c0.5,1.2,1.1,7.3-0.6,8.8
		c-1.7,1.5-8.9,5.6-12.3,6.4c-3,0.7-7.3,0.8-9.3,1.8c-1.9,1-4.4,2.4-5.8,3.2C351.7,278.1,337.1,284.6,336.9,283.5z"/>
	<path fill="#FCC7AC" d="M441.7,128.8c-1.3,1.6-0.8,22.2,3.8,30.7c1,1.9,8.2,0,8.9,3.2c0.8,3.2,7.8,7.8,13.5,2.6
		c4-3.6,10.3-5.2,10.3-8.3s0.7-13.5,0.7-13.5s7.3-5.3,3.4-8.8c-3.9-3.5-5.3,2.7-5.3,2.7s1.3-3.7,0.3-5.7c-1.5-2.8-5.6-4.3-19-3.4
		C446.7,129.1,442.4,127.9,441.7,128.8z"/>
	<path fill="#6E4219" d="M245.4,227.4c3-0.9,16.4,0.4,15.9,1.8c-0.5,1.4-2.1,3-4,3.1C255.4,232.3,242.4,228.2,245.4,227.4z"/>
	<path fill="#6E4219" d="M249.4,228.9c3-0.9,16.4,0.4,15.9,1.8c-0.5,1.4-2.1,3-4,3.1C259.4,233.8,246.4,229.7,249.4,228.9z"/>
	<circle fill="#FFFFFF" cx="279" cy="231.2" r="4.5"/>
	<circle fill="#FFFFFF" cx="293.6" cy="223.4" r="4.5"/>
	<path fill="#E36E45" d="M210.5,359.1c2.5-3.6,7.5-7.7,26.6,2.9c19.1,10.6,19-9.4,21.3-0.5c3.5,13.6-1.1,15.6-15.2,14.6
		c-4.5-0.3-12.3-14-28.2-8.3c-3.2,1.1-9.4,12.1-8.4,4.3C207.3,366.6,207.8,363,210.5,359.1z"/>
	<path fill="#C2C4C6" d="M301.1,244.1c0.4-0.7-16.4,4.7-17.3,7.5c-1.8,5.5,8.1,11.3,8.1,11.3S300.3,245.6,301.1,244.1z"/>
	<path fill="#C44D5B" d="M281.1,248.2c1.9,7.9,1.9,8.5,4.9,7.8s9-9,9-9L281.1,248.2z"/>
	<path fill="#111111" d="M433.3,127.8c10.2,1.9,33.7,1.3,37.6-0.4c3.8-1.7,4.3-3.5,6.1-3.6c1.8-0.1,10.9-0.3,11.1-1.4
		c0.3-1.1-1.6-18.3-9.1-19.8c-7.4-1.5-22.1-3.9-30.3,1c-8.2,4.9-4,14.9-6.4,15.5C437.8,120.3,430.2,127.2,433.3,127.8z"/>
	<path fill="#EF693A" d="M441.6,180.2c-3.5,11,8.9,60.7,10.9,67.4c2.5,8.6,2.6,13,10.5,1.6c3.3-4.7,12-19.9,19.7-36.6
		c5.1-11.1,9-22.8,13.5-32.4c2.3-5-2.5-6.7-13.8-11.3c-2.4-1-1.4-11.7-3.6-10.5c-1.5,0.9-16.3,12.2-21.8,7.4
		c-3.2-2.8-3.9-0.5-4.7,6.5C451.8,175.6,442.5,177.5,441.6,180.2z"/>
	<path fill="#EF693A" d="M495.7,266.8c2.5-2.1,1.5-24.4,1-23.7c-1.6,2.2-14.7,23.7-13.1,23.7C487.9,266.8,493.8,268.4,495.7,266.8z"
		/>
	<path fill="#222633" d="M458.7,299.4c8.2,0,14.2-20.6,18.3-20.4c4.1,0.2,17-1.4,17.8,3.4c0.8,4.9-1.8,51.9,0,55.4s4.1,2.7,2.1,5.3
		c-3,3.9-1.7,6.4-1.5,10.9c0.7,13.1,6.1,39.9,0.3,40.6c-9.4,1.1-16.1-3.3-27.7-1.1c-1.7,0.3-11.6,2.1-18.5,1.1c-6.9-1-10,5-9.4-18.2
		c0.4-15.3-1.6-39.1-3.1-69.9c-1.5-30.8,0.2-23,3.3-24C443.3,281.6,446.2,299.4,458.7,299.4z"/>
	<path fill="#423028" d="M420.9,401.1c0.5-4.8-0.2-7.1,10.5-7.9c10.7-0.8,32.3,1.9,33.4,1.5c11.6-4,21.3,1,27.9,0
		c5.4-0.8,3,11.3,3,11.3s-37,0-49.8,0.2c-16.7,0.3-25.4,0.5-25.4,0.5S420.5,405.2,420.9,401.1z"/>
	<path fill="#476337" d="M506.3,181.5c4.6,4.9,6.7,12.1,5.3,19.7c-1.4,7.7-3.3,18.7-10.8,35.9c-7.5,17.2-17.9,35.3-23,38.9
		c-5.1,3.6-3.7,12.8-9.5,11.5c-5.8-1.3-18.5-12.1-16.8-15.6c1.7-3.5,1.5-1.1,4.2-11.7c2.7-10.6,15.1-20.4,13.1-23.3
		c-1.5-2.2-0.9-3.7,2.5-3.7s8.4-11.4,12.1-21.9s10.1-34.4,13.9-34.4C501.1,177,504.4,179.5,506.3,181.5z"/>
	<path fill="#476337" d="M425.7,190.9c-3,4.2-2.5,18.3-2.3,21.7c0.2,3,0.5,8.1,1.1,15.4c0.2,2.1,0.7,9.5,1.1,15.2
		c0.1,1.9-0.6,1.8-0.3,3.7c0.5,2.6,2.7,0.5,3.4,2.9c2.4,7.8,3.9,18.9,4.3,20.9c0.5,2.4,5,13,6.3,13c5.4,0,12.9-6.8,11.8-10.6
		c-1.1-3.7,5.5-9.7,5.3-14.2c0-0.8-3.5-11.1-6-20.8c-3.5-13.7-6.8-31.3-7.8-37.8c-1.9-11-1.7-17.1-2.8-19.3
		C438.4,177.6,427.3,188.6,425.7,190.9z"/>
	<path fill="#FCC7AC" d="M452.1,276.6c-4.4,1.6-10.8,5.4-10.9,7.2c-0.1,2.7,6.8,11.7,10.3,13.3c8.4,3.7,10.1,1.6,12.8-1.5
		c2.7-3,4.1-5.1,3.1-7.3C466.4,286,452.1,276.6,452.1,276.6z"/>
	<polygon fill="#423028" points="475.7,278.3 482.9,267.5 496,267.5 494.8,278.5 	"/>
	<path fill="#D88248" d="M485.7,123.5c0,0-7-0.6-8.2,0.4c-1.2,1.1-4.8,3.8-4.8,3.8s4.9,1.3,4.4,8.5c-0.1,1.5,0.5-1.3,3.3-2
		c3.1-0.8,4.4,1.6,3.7,3.5s-5.7,5.5-5.7,5.5c-0.2,7.2-0.4,7.6,1.8,5.6c1.5-1.4,3.6-2.4,4.7-5.6C486.4,138.2,485.7,123.5,485.7,123.5
		z"/>
</g>
<g id="Layer_1">
	<g>
		<path d="M302.4,285.9c-0.6-1.1-1.1-2.2-1.7-3.4c-0.2-0.3-0.3-0.7-0.4-1c0.4-0.1,0.8-0.4,1.3-0.4c0.8,0,1.5,0.3,2.6,0
			c-0.7-1.1-1.5-2.1-2.2-3.2c-0.2-0.3-0.5-0.6-0.7-1c-2.2-3.1-2-3.5,1.8-4.7c-3.1-3.7-6.1-7.4-9.3-11.3c-0.2,0.5-0.4,1.3-0.8,1.8
			c-0.3,0.4-0.8,0.6-1.2,0.8c-0.2-0.4-0.5-0.8-0.5-1.2c0.2-1.2,0.4-2.4,0.9-3.5c1.3-2.7,2.6-5.3,4.1-7.8c1.2-2.1,2.5-4.1,3.8-6.1
			c0.4-0.6,0.8-1.2,1.4-1.6c2.6-2.1,5.2-4.2,7.8-6.3c0.1-0.1,0.3-0.2,0.4-0.3c2.7-3.7,5.7-7.1,7.5-11.4c0.2-0.4,0.2-0.9,0.3-1.5
			c-0.5-0.2-1.1-0.2-1.4-0.5c-1.8-2-3.2-0.7-5,0.1c-4.6,2.3-9.3,4.2-14.5,4.7c-1.3,0.1-2.7-0.1-4-0.3c-1.7-0.3-4-2.9-4.1-4.5
			c0-0.3,0.2-0.7,0.4-1.1c0.5-0.9,1.1-1.8,1.7-2.6c0.5-0.7,0.4-1.4-0.7-1.8c-0.8,0.7-1.6,2.1-3.2,1.3c0.1-0.3,0.1-0.6,0.2-0.8
			c1.4-2.4,1.4-2.4-0.7-4.1c1.8-0.9,1.6-2.3,1.4-3.9c-0.3-2.1-0.1-4.3-0.2-6.5c-0.1-1.5-0.5-3.1-0.7-4.6c-0.2-0.1-0.4-0.1-0.6-0.2
			c-0.5,0.5-1.2,1-1.5,1.6c-1.8,3.5-3.6,7-5.1,10.5c-0.4,0.9-0.1,2.1-0.1,3.3c-4.5,1.2-8.9,3.2-13.3,5.8c0.1,0.4,0.3,0.6,0.4,0.9
			c0.4,1.3,0.1,1.8-1.2,1.7c-0.8-0.1-1.6-0.2-2.4-0.3c-4.3-0.7-8.4,0.1-12.6,0.5c-2.4,0.2-4.8,0.6-7.1,0.9c-1,0.2-2,0.5-3,0.8
			c0.4,2.2,2,3.1,3.4,4c4,2.6,8.1,5.1,12.3,7.5c0.9,0.5,2.1,0.7,3.3,1.1c-1.3,1.1-1,2.5-1,4c-0.1,3.2,0.2,6.5-1.4,9.6
			c-1,2.1-1.6,4.4-2.5,6.7c1.3,0,2.3-0.3,3.2-0.9c0.4-0.3,1-0.3,1.5-0.4c0.1,0.6,0.3,1.2,0.1,1.8c-0.4,1.2-0.9,2.4-1.4,3.6
			c-0.1,0.4-0.3,0.7-0.6,1.5c1.5-0.3,2.7-0.5,4.1-0.7c0,0.7,0.1,1.3,0,1.9c-0.8,5.2-2.5,10.1-4.7,14.8c-0.5,1.1-1,2.3-1.5,3.5
			c2.1,0.6,1.1-1.8,2.5-1.8c1,1.5,0.8,3.1,0.4,4.7c-0.8,3.9-1.7,7.8-2.2,11.8c-0.9,6.9-1.8,16.8-1.3,20.8c0.2,1.3,4.1,12.1,5.4,15.3
			c0.6,1.6,1.4,3.2,2.4,4.7c0.9,1.5,1.2,3,0.5,4.5c-1.2,3-0.5,6-0.2,9c0.2,1.9,2,3,3.9,2.6c1.1-0.3,2.1-0.2,3.2,0.2
			c1,0.3,2.3-0.1,3.6-0.3c0,1.2-0.9,1.6-1.9,1.7c-1.7,0.2-3.3,0.3-5,0.4c-2.1,0.1-3.3-0.8-4.3-2.7c-1.6-2.7-2.1-5.5-1.5-8.5
			c0.1-0.6,0.2-1.4,0.5-1.8c1.4-1.7,0.4-2.9-0.8-4.6c-0.9,4-1.6,7.6-1.5,11.3c0.1,2.1,0.3,4.1,0.4,6.2c0,0.3,0.2,0.7,0.1,0.9
			c-0.2,0.4-0.5,0.7-0.8,1c-0.3-0.3-0.8-0.6-0.8-1c-0.3-4.6-0.9-9.2,0-13.9c0.4-2.1,0.9-4.2,1.2-6.4c0.1-0.8,0-1.7-0.3-2.5
			c-1.2-3.1-2.4-6.1-3.7-9.1c-0.1-0.3-2.1-5.2-2.5-7.9c-0.3-1.7-0.8-2.8-2.2-3.7c-3.6-2.4-7.3-4.6-11.6-5.4
			c-2.4-0.5-4.8-1.4-7.2-1.6c-5.5-0.4-10.8,0.7-15.6,3.6c-0.5,0.3-1.1,0.6-1.7,0.9c-1.6,0.8-3,1.8-4,3.3c-1.6,2.5-3.1,5-5,7.3
			c-2.1,2.7-3.7,5.6-5,8.7c-1.5,3.6-2.8,7.3-4,11c-1.1,3.5-1.8,7.1-3.2,10.5c-1.6,4-3.2,8.1-5.6,11.6c-3,4.3-7.2,7.4-13.1,5.7
			c-0.2-0.1-0.5,0-0.9,0c0.3,0.6,0.5,1.1,0.9,1.5c1.5,1.8,3,3.5,4.5,5.3c3.2,3.7,7.4,5.8,12,7.2c4.4,1.4,9.6-0.4,12.5-4
			c2.1-2.7,4.2-5.4,6.3-8.2c3.3-4.5,7.9-5.9,13.3-5.5c5.7,0.3,10.3,3.2,15,6c2.1,1.3,4.3,2.5,6.6,3.4c3,1.2,6.1,1,9.1-0.3
			c1.2-0.5,2.3-1,3.5-1.6c2.4-1.1,2.4-1.2,1.9-3.9c-0.2-0.9-0.2-1.7-0.2-2.6c0-0.5,0.4-1,0.6-1.4c0.2,0,0.3,0,0.5,0
			c0.3,0.9,0.6,1.9,0.8,2.8c0.6,2.5,1,5,1.7,7.4c1,3.2,2.3,6.3,3.3,9.5c0.7,2,1.3,3.9,1.8,5.9c0.1,0.5,0,1-0.2,1.6
			c-2.8-5.9-5.3-11.9-7.3-18.2c-1.5,0.6-2.8,0.9-4,1.5c-2.4,1.3-5,2-7.8,2.3c-2.5,0.3-4.7-0.4-6.8-1.7c-3.6-2.1-7-4.4-10.7-6.4
			c-4-2.2-8.4-2.6-12.8-2.1c-2.7,0.4-4.8,2.1-6.5,4.2c-2.1,2.5-4.1,5.1-6,7.7c-4.6,6.4-12.3,7.2-18.6,4.1
			c-5.7-2.8-10.4-6.8-13.8-12.2c-2.2-3.5-4.6-6.9-6.9-10.4c-0.2-0.3-0.4-0.7-0.6-1c-0.4-0.6-0.4-1.3,0.3-1.6
			c0.3-0.1,1.1,0.2,1.3,0.5c0.6,0.7,1,1.6,1.5,2.4c0.5,0.7,0.9,1.5,1.4,2.2c2.7,4,7.2,4.9,11.5,2.5c3.2-1.7,5.1-4.3,6.3-7.5
			c0.7-1.8,1.8-3.4,2.4-5.2c1-3,1.8-6.1,2.4-9.3c0.8-4.5,2.6-8.7,3.8-13.1c1.4-5,4.4-9,6.9-13.3c0.7-1.2,1.7-2.1,2.6-3.2
			c0.8-1,1.8-1.9,2.3-3c0.9-1.8,2.9-2,4.3-3.1c3.5-2.9,7.9-3.9,12.2-4.6c2.7-0.5,5.8-0.1,8.5,0.5c3.5,0.7,6.9,1.9,10.3,3.2
			c3,1.1,5.9,2.7,9,4.1c1.5-8.9,1.1-18.2,3.8-27.5c-1.2,0.3-1.9,0.6-2.6,0.7c-0.4,0.1-1,0-1.1-0.2c-0.2-0.3-0.1-0.9,0-1.3
			c1-2.2,2.2-4.2,3.1-6.5c1.3-3.1,2.4-6.3,3.4-9.5c0.3-1,0.3-2,0.5-3.3c-1.8,0-3.4,0-5.5,0c1.2-2.2,2.2-4,3.2-5.8
			c-0.1-0.2-0.2-0.3-0.3-0.5c-1.2,0.3-2.4,0.6-3.5,0.9c-0.7,0.2-1.4,0.7-1.9,0c-0.6-0.8-0.3-1.5,0.3-2.2c1.5-1.7,2.3-3.8,3-5.9
			c1.2-3.5,1.5-7,1.5-10.6c0-1.6-0.7-2.4-2.1-3.1c-4.4-2.5-8.8-5.2-13.1-7.9c-1.6-1-2.8-2.6-4.1-4c-0.7-0.8-0.2-2.2,0.9-2.4
			c3.4-0.6,6.7-1.2,10.1-1.6c4.5-0.6,9.1-0.8,13.6-1.5c1.7-0.3,3.2-1.4,4.7-2.2c2.5-1.2,5-2.5,7.5-3.7c1.2-0.5,2.2-1.1,2.8-2.4
			c1.2-2.6,2.5-5.2,3.8-7.7c1-1.8,2-3.6,3-5.4c0.5-0.9,1.2-1.4,2.3-1.4c1,0,1.7,0.3,2,1.3c0.4,1.8,1.1,3.5,1.3,5.3
			c0.4,2.8,0.5,5.6,0.8,8.7c1.5-1,2.6-0.4,3.7,0.5c0.8,0.7,1.7,1.1,2.5,1.8c0.3,0.2,0.4,0.7,0.6,1.1c-0.3,0.1-0.7,0.5-1,0.4
			c-0.9-0.1-1.9-0.4-2.8-0.5c-0.5-0.1-0.9,0-1.6,0.1c0.5,1.5,1.5,2.1,2.7,2.5c0.9,0.3,1.9,0.5,2.7,0.9c1.4,0.7,1.9,2,1.6,3.6
			c-0.1,0.5-0.2,0.9-0.3,1.4c-0.1,0.5-0.1,1.1-0.2,1.9c1.3-0.3,2.4-0.6,3.5-0.9c4.6-1.3,9-3.3,13-6c0.6-0.4,1.1-1.2,1.5-1.8
			c0.9-1.3,3.2-1.9,4.4-1c0.5,0.4,0.8,1.2,0.9,1.8c0.1,0.6-0.2,1.3-0.5,1.8c-1.8,4.1-3.6,8.1-5.4,12.2c-0.1,0.2-0.2,0.5-0.3,0.6
			c-3,1.6-4.1,5.1-6.8,7c-1.8,1.2-3.4,2.6-5.1,3.9c-0.3,0.2-0.5,0.4-0.7,0.6c-1.9,2.8-3.9,5.6-5.8,8.5c-0.7,1.1-1.1,2.3-1.7,3.4
			c-0.5,1-0.4,2,0.2,2.9c0.7,1.1,1.3,2.2,2,3.3c0.8,1.3,8.1,4.4,10.3,5.3c6.2,2.6,4.6,2,9.2,3.5c2,0.6,9,1.7,11.1,2
			c1.4,0.2,7.8-0.5,9.2-0.9c6.6-1.9,8.3-2.9,14.1-5.6c2.2-1,2.3-0.6,2.6-3c0.1-1.5,0.3-3,0.4-4.5c0.1-1.4,0.6-2.6,1.6-3.6
			c1.2-1.2,2.4-2.6,3.4-4c0.8-1.1,1.7-1.7,3-1.2c1.4,0.5,2.2,1.8,2.1,3.3c0,0.2,0,0.5,0,0.9c1.4,0.1,2.4-0.8,3.5-1.4
			c2.5-1.2,5-2.4,7.5-3.6c0.5-0.2,1.1-0.4,1.6-0.5c1.9-0.2,3,1.3,2.3,3.1c-0.6,1.5-1.7,2.7-3.1,3.5c-1.3,0.7-2.7,1.4-4.2,2.2
			c1.7,0.1,3.4-0.4,5.4-1.5c0.9-0.4,1.9-0.8,2.9-0.8c2.7-0.1,4.1,1.9,3.1,4.4c-0.5,1.3-1.1,2.4-0.9,3.8c0.1,1.4-1,2.4-2.1,3
			c-3.4,2-6.8,4.2-10.5,5.5c-1.4,0.5-3,0.7-4.4,0.8c-3.7,0.2-7,1-10.2,3.1c-3.4,2.2-7.3,3.5-11.1,5c-1,0.4-4.9,2.3-5.4,1.3
			c-0.1-0.3,0.2-1.1,0.5-1.3c1.1-0.6,2.2-1.3,3.5-1.6c4.2-1.1,8.1-3.1,11.9-5.1c1.9-1,3.9-1.8,5.9-2.7c0.3-0.1,0.6-0.2,0.9-0.2
			c2.5,0.8,4.9-0.2,7.2-0.8c4.2-1.2,8-3.5,11.6-6c0.2-0.2,0.4-0.5,0.6-0.8c0.1-0.2,0-0.4,0-0.9c-2.9,0.3-5.6,2.3-9,1.3
			c1.2-1.3,2.4-2,3.9-2.4c1.4-0.4,2.8-0.8,4.1-1.3c0.6-0.3,1.2-0.8,1.6-1.3c0.7-1.2-0.1-2.3-1.4-2.2c-0.8,0.1-1.6,0.5-2.4,0.9
			c-1.9,0.7-3.7,1.5-5.5,2.2c-0.4,0.2-1,0.3-1.4,0.2c-0.7-0.2-1.6-0.4-2-0.9c-0.2-0.3,0.2-1.4,0.6-1.8c0.9-0.9,2-1.6,3.1-2.2
			c1.5-0.8,3-1.4,4.5-2.3c0.8-0.5,1.9-1.1,1.3-2.2c-0.5-1-1.6-0.5-2.4-0.1c-2.3,1-4.8,1.7-6.9,3.3c-1.8,1.4-3.9,2.5-5.9,3.6
			c-0.3,0.2-0.8,0.2-1,0c-0.2-0.2-0.3-0.7-0.2-1c0.3-1,0.9-1.9,1.1-2.8c0.1-0.6-0.2-1.4-0.7-1.8c-0.2-0.2-1.3,0.1-1.6,0.5
			c-2.4,2.9-5.1,5.6-4.8,9.8c0,0.3-0.1,0.6-0.1,1c0.2,3-1.9,4.1-4.3,4.9c-5.6,2.6-11.8,5.5-18.2,6c-5.8,0.5-14.6-1.1-17.3-2
			c-3.9-1.3-7.3-3.3-11.2-4.5c-1-0.3-2-0.6-3.3-0.9c0.7,1.8,2.1,2.6,3.1,3.8c0.2,0.2,0.6,0.3,0.8,0.6c0.3,0.5,0.5,1,0.8,1.5
			c-0.5,0.2-0.9,0.5-1.4,0.6c-0.9,0.2-1.8,0.3-3,0.4c1.2,2.6,2.6,4.6,4.4,6.3c0.6,0.5,1.6,1.9,2.4,2c6.4,1.1,9.7,1.4,16.6,1.7
			c2.1,0.1,9.9-1.3,10.2-1.4c1.6-0.5,6.8-3,7.7-2.9c0.3,0.1,2.2,1,1.2,1.4c-1.9,0.8-7.3,3.3-13.7,4c-6.7,0.7-7.3,0.1-13.7-0.4
			c-3.7-0.3-7.4-1.1-11.1-1.7c-0.6-0.1-1.2-0.1-2.3-0.3c0.8,1.7,1.4,3.1,2.1,4.4c0.3,0.6,1,1.3,0.2,1.9c-0.4,0.3-1.3,0-1.9-0.1
			c-0.3,0-0.5-0.3-1.2-0.7c0.1,1.9,0.2,3.4,0.3,5c0.1,1.9,0.3,3.8,0.4,5.7c0.1,1.3-0.6,1.8-1.8,1.2c-0.8-0.4-1.6-1.1-2.6-1.8
			c-0.2,0.7-0.4,1.2-0.4,1.8c-0.5,6.4-0.2,12.8,0.5,19.2c0.4,4.1,1.4,8,2.8,11.8c0.7,1.7,0.9,3.5,1.4,5.3c1.2,5,3.6,9.5,5.9,14.1
			c0.2,0.5,0.5,1,0.6,1.6c0.1,0.2-0.1,0.7-0.3,0.8c-0.2,0.1-0.7,0-0.9-0.1c-0.4-0.4-0.8-0.8-1-1.3c-1.7-4-3.5-8-5-12.2
			c-1.2-3.3-2.3-6.7-3.1-10.1c-0.9-3.3-1.3-6.7-2.2-10c-1.4-5.4-0.6-10.8-0.5-16.2c0.1-2.6,0.1-5.3-0.1-7.9
			c-0.1-1.2,0.5-1.8,1.4-2.2c0.9-0.4,1.2,0.4,1.7,1c0.5,0.6,1,1.2,1.8,1.7c-0.2-1.5-0.4-3.1-0.5-4.6c-0.1-1.3-0.2-2.7-0.2-4.1
			C300.5,285.9,301.2,285.4,302.4,285.9c0.1,0.1,0.2,0.2,0.3,0.3C302.5,286,302.4,286,302.4,285.9z M296.4,224.1
			c-2.1-0.6-2.1-0.6-2.8-2.8c-0.2-0.7-0.6-1.2-1.3-0.9c-1,0.4-1.6,2.3-1.3,3.5c0.4,1.5,1.5,2.4,3.1,2.4
			C295.3,226.5,295.9,225.9,296.4,224.1z"/>
		<path d="M485,207.9c-0.1-0.9-0.2-1.8-0.2-2.7c-0.1-1.7-0.2-1.9-1.7-1.8c-2.2,0.2-4.4,0.4-6.6,0.6c-0.3,0-0.7-0.3-1.1-0.4
			c-1.9-0.5-2.9,0.2-3,2.2c-0.1,1.8,0,3.5-0.1,5.3c-0.1,2.5-0.3,4.9-0.5,7.4c-0.2,2.6-0.2,2.6,2.4,3.1c0.3,0.1,0.6,0.2,0.9,0.4
			c0.1,0,0.1,0.1,0.1,0.2c-1.1,1-3.9,1.4-4.7,0.5c-0.4-0.4-0.5-1.2-0.5-1.7c0.4-5.4,0.8-10.8,1.2-16.2c0.1-0.7,0-1.4,0-2.1
			c0.1-0.9,0.5-1.4,1.6-1.3c1.5,0.1,3,0.2,4.5-0.1c3.3-0.5,6.5-0.3,9.9,0c1-2.8,1.9-5.7,2.9-8.5c1.7-4.8,3.4-9.6,5.2-14.4
			c0.7-1.8,0.7-2.1-0.9-2.9c-3.5-1.7-7.1-3.2-10.7-4.8c-0.5-0.2-1.1-0.4-1.6-0.5c-2.4-0.4-2.4-0.4-2.6-2.7c-0.3-3.4-0.2-6.9-1.9-10
			c-0.2-0.4-0.1-0.9-0.1-1.4c0-2.1,0-4.2,0.1-6.2c0-0.6,0.3-1.1,0.6-2c1,1.3,0.7,2.3,0.8,3.3c0.1,2.3,0.2,4.5,1,6.7
			c0.8,2.3,0.8,5,1,7.6c0.1,1.6,0.7,2.5,2.3,3.1c4.6,1.8,9.1,4,13.6,6c0.7,0.3,1.4,0.6,1.6,1.6c0.1,0.4,0.7,0.8,1.1,1
			c3.1,1.5,6,3.1,8.6,5.5c2.3,2.1,3.2,4.9,4.8,7.4c0.2,0.2,0.2,0.6,0.1,0.9c-0.5,3.5-0.9,6.9-1.4,10.4c-0.6,4.7-1.3,9.3-1.8,14
			c-0.1,1.3-0.7,2.4-1.1,3.6c-2.4,7.7-6.4,14.6-9.6,22c-0.3,0.6-0.5,1.2-0.5,1.8c-0.3,6.3-0.6,12.6-0.8,18.9c0,0.9,0.2,1.8,0,2.6
			c-0.2,1.1,0.1,2.4-1.2,3.2c-0.3,0.2-0.5,1-0.5,1.5c-0.2,5.1-0.5,10.2-0.5,15.3c0,5.1,0.4,10.2,0.4,15.3c0,4.9-0.5,9.9-0.6,14.8
			c-0.1,7.3-0.1,14.5-0.2,21.8c0,1.6,0.4,2.8,1.5,3.9c1.4,1.4,1.5,1.7,0.4,3.2c-1.8,2.6-2,5.5-1.6,8.5c0.7,5.7,1.3,11.4,1,17.2
			c0,0.1-0.1,0.3-0.3,0.5c-0.9-0.3-0.8-1.1-0.8-1.7c-0.4-4-0.7-8-1-11.9c-0.2-2.8-0.6-5.5-0.6-8.3c0-1.4,0.7-2.8,1.3-4
			c0.8-1.8,1-2.2-0.4-3.3c-1.7-1.3-1.7-2.8-1.6-4.6c0.2-2.9,0-5.9,0.1-8.9c0.2-5.2,0.6-10.4,0.7-15.6c0.1-9.8,0.1-19.5,0-29.3
			c0-1.9-0.2-1.8-2.1-1.8c-3.7,0-7.3-0.1-11-0.1c-0.8,0-1.6,0-2.4,0c-1,0-1.7,0.5-2.2,1.5c-1.4,2.5-3,4.9-4.5,7.4
			c-0.2,0.3-0.5,0.8-0.8,0.8c-1.8,0-2.1,1.5-2.9,2.7c-1.4,2.2-3.1,4.2-4.8,6.3c-0.6,0.8-1.1,1.4-1,2.5c0.8,8.6,1.5,17.2,2.2,25.7
			c0.3,3.7,0.6,7.5,0.8,11.2c0.1,1-0.3,2-0.4,3.2c-1.4-0.4-1.2-1.4-1.3-2.1c-0.2-2.2-0.3-4.5-0.5-6.7c-0.5-6-0.9-11.9-1.4-17.9
			c-0.2-3-0.6-6-0.8-9.1c-0.2-2.5-1.1-3.7-3.4-4c-1.9-0.3-3.5-0.9-4.6-2.6c-0.6-0.8-1.4-1-2.4-0.8c-1.7,0.3-2.8-0.5-3.8-1.9
			c-2-2.9-4.2-5.6-5.5-9c-0.3-0.7-0.4-1.8-1.7-1.6c-1.2,0.2-1.6,1-1.6,2c-0.1,3.1-0.4,6.2-0.3,9.3c0.2,6.9,0.5,13.7,0.8,20.6
			c0,1-0.1,1.9-1.1,2.6c-0.7-0.7-0.6-1.6-0.7-2.4c-0.2-4.5-0.2-9-0.6-13.4c-0.8-8.1-0.6-16.1-0.5-24.2c0-0.5-0.1-1-0.2-1.4
			c-1.1-4.2-2.3-8.4-3.4-12.7c-1.1-4.6-2.2-9.2-3.2-13.8c-0.4-2.1-1-3.8-3.3-4.6c-1-0.4-0.7-1.3-0.7-2c0.2-1.8,0.6-3.6,0.5-5.4
			c-0.5-7.7-1.1-15.3-1.7-22.9c-0.5-6.5-1-13.1-0.2-19.6c0.4-3.3,1.5-6.3,4.2-8.5c2.3-1.9,4.4-4,6.7-5.8c1.1-0.9,2.4-1.5,3.6-2.3
			c0.4-0.2,1.1-0.4,1.2-0.7c0.3-2.1,2.3-2.2,3.6-3.1c1.4-0.9,2.9-1.6,4.3-2.5c1.4-0.8,2.8-1.5,4.1-2.5c0.6-0.5,0.9-1.5,1-2.3
			c0.2-1.2,0.1-2.4,0.3-3.6c0.1-0.4,0.5-0.7,0.8-1c0.3,0.3,0.7,0.6,1,1c0.1,0.2,0.1,0.5,0.1,0.7c-0.2,2-0.3,4-0.6,6
			c-0.1,0.8-0.4,1.4-1.4,1.2c-0.4,0-0.8,0-1.1,0.1c-2.7,1.5-5.4,3-8.1,4.6c-1,0.6-1.5,1.4-1.4,2.7c0.5,3.6,0.8,7.3,1.1,10.9
			c0,0.4,0.3,0.8,0.1,1.2c-0.2,0.4-0.6,0.8-0.9,1.2c-0.3-0.3-0.8-0.6-0.8-1c-0.4-2.6-0.6-5.2-1-7.8c-0.1-0.9-0.4-1.9-0.6-2.8
			c-0.3-1-0.9-1.3-1.8-0.8c-1.2,0.6-2.5,1.2-3.5,2.1c-2.6,2.4-5.1,4.8-7.4,7.5c-1.4,1.7-2.2,3.8-2.1,6.2c0.3,6.3,0.4,12.6,0.6,18.9
			c0,1-0.1,1.9-0.1,2.9c0,1,0.1,2.1,0.2,3.1c0.2,2.5,0.5,5.1,0.7,7.6c0.2,2.8-0.2,5.6,1.2,8.2c0.1,0.2,0.2,0.6,0.1,0.7
			c-1.3,1.6,0,3.6-0.9,5.2c-0.6,1.1,0.1,2,1.1,2.3c1.8,0.4,2.1,1.7,2.4,3.2c1.1,5.2,2.2,10.3,3.3,15.5c0.5,2.4,0.8,4.9,1.5,7.2
			c1,3.1,2.4,6.1,3.7,9.1c0.3,0.7,0.9,0.9,1.6,0.5c0.3-0.2,0.7-0.4,1-0.6c2.4-2,5-3.7,7.9-5c1.3-0.6,1.9-1.5,1.4-3
			c-0.2-0.5,0-1.3,0.2-1.8c1.1-2.5,2.3-4.9,3.5-7.4c0.2-0.3,0.7-0.4,1.1-0.6c0.1,0.5,0.5,1,0.4,1.4c-0.5,1.3-1.2,2.6-1.8,3.9
			c-0.3,0.6-0.6,1.3-0.9,2c-0.6,1.4-0.4,2.5,0.9,3.5c2.3,1.9,4.3,4.3,6.7,6.1c2.7,2.1,5.8,3.7,8.7,5.6c0.9,0.6,1.5,0.1,2-0.5
			c1.8-2.1,3-4.5,3.7-7.2c0.4-1.5,0.9-2.9,2.2-3.9c0.1-0.1,0.2-0.2,0.3-0.4c1.3-2.7,3.5-4.7,5-7.2c5.5-8.9,10.8-17.9,15.2-27.4
			c3.2-6.9,6.2-13.8,9-20.9c1.1-2.9,1.5-6.2,2-9.3c0.6-3.5,1-7.1,1.3-10.7c0.2-2.5,0.1-5.1,0.2-7.7c0.1-3.4-1.4-6.1-4-8
			c-2-1.5-4.2-2.8-6.5-4c-2.3-1.2-2.7-1-3.6,1.6c-1.8,5.2-3.4,10.5-5.3,15.7c-1.3,3.5-2.9,6.9-4.4,10.3c-0.2,0.4-0.4,0.9-0.6,1.3
			C485.5,208.1,485.3,208,485,207.9z M453.6,277.9c-5,4.4-6.2,9.9-5.1,16c0.4,2,0.5,2.1,2.5,1.9c1.3-0.2,2.2,0.2,3,1.3
			c1.7,2.5,3.6,2.9,6.1,1.3c3.3-2,5.4-5.1,6.9-8.7c0.4-0.9,0.1-1.5-0.6-2c-2.5-1.8-5-3.7-7.5-5.6
			C457.2,280.8,455.4,279.4,453.6,277.9z M477.8,277c0.1,0.2,0.2,0.4,0.3,0.6c5,0.2,10,0.5,15.1,0.7c0.9-3.6,0.7-7.1,1-10.6
			c-2.7,0-5.1,0.1-7.5,0c-2-0.1-3.1,0.9-3.8,2.6c-0.3,0.7-0.7,1.4-1.2,2C480.5,273.9,479.1,275.5,477.8,277z M497,246.2
			c-0.2,0-0.3,0-0.5-0.1c-1.1,2.2-2.3,4.4-3.4,6.6c-1.2,2.2-2.3,4.4-3.5,6.6c-1.2,2.1-3.1,3.8-3.7,6.4c3,0.7,5.8,0.2,8.6,0.1
			c0.9,0,1.3-0.7,1.4-1.6C496.2,258.1,496.6,252.2,497,246.2z M449.4,279.1c-2.5,1.1-4.5,2.3-6.2,3.9c-0.3,0.3-0.7,0.8-0.6,1.2
			c0.3,2.6,1.2,5,3.4,7.3C446.4,287,447.1,283.1,449.4,279.1z"/>
		<path d="M438.7,391.5c0.2-21.8-1.2-43.6-1.3-65.4c1.5,0.2,1.3,1.1,1.3,1.8c0.3,4.6,0.5,9.2,0.8,13.8c0.1,1.5,0.2,3,0.2,4.5
			c0,2.8-0.2,5.6-0.1,8.4c0.2,6.8,0.4,13.6,0.7,20.4c0.2,5.1,0.4,10.2,0.5,15.3c0.1,2.2,0.2,2.5,2.4,3.1c0.5,0.2,1,0.4,1.6,0.6
			c0.1,0,0.1,0.3,0.3,0.6c-0.5,0.1-0.9,0.2-1.3,0.2c-1.8,0.1-3.5,0.1-5.3,0.1c-1.5,0-3.1,0.2-4.5-0.1c-3-0.5-5.7,0.2-8.5,0.9
			c-1.2,0.3-2,1.2-2.3,2.3c-0.5,1.8-1,3.6-1.2,5.4c-0.2,1.8,0.1,2.1,1.9,2.1c3,0,6.1-0.1,9.1-0.1c6.7-0.1,13.4-0.2,20.1-0.2
			c1,0,2.1,0.2,3.1,0.2c1.9,0,1.9,0,2.4-1.8c0.7-2.1,1.5-4.2,2.3-6.2c0.8-2.1,2.6-3.1,4.5-3.6c1.9-0.6,2.5-1.8,2.4-3.5
			c-0.2-4-0.3-8-0.6-12c-0.1-2.3-0.5-4.6-0.7-6.9c-0.4-5.3-0.8-10.5-1.1-15.8c-0.1-2.5,0-5.1,0-7.7c1.3,1.1,1.3,1.1,1.4,2.4
			c0.6,6.9,1,13.9,1.9,20.8c0.7,5,0.4,10,0.8,15.1c0.1,1.7-0.1,3.3-0.1,5c0,1.5,0.2,1.6,1.7,1.5c5.1-0.3,10.2-0.4,15.2,1.3
			c0.7,0.3,1.7-0.1,2.5-0.1c2-0.1,4-0.1,6-0.1c1.8,0,1.8,0,1.8-1.9c-0.1-3.6-0.2-7.2-0.3-10.8c0-2.5,0.1-5.1,0.2-7.6
			c0.2,0,0.4,0,0.5,0c0.1,1.2,0.4,2.3,0.4,3.5c0.3,5.1,0.5,10.2,0.8,15.3c0.1,1,0.5,2,0.9,3.1c-0.8,0.2-1.6,0.3-2.5,0.5
			c0,2.8,0,5.6,0,8.3c0,1,0.5,1.5,1.5,1.5c1.2,0,2.4,0,3.6,0c8.1,0.1,16.1,0.1,24.2,0.2c3.5,0,7-0.2,10.5-0.2c3.3,0,6.5,0,9.8-0.1
			c4.3-0.1,8.6-0.2,12.9-0.4c3.5-0.1,7-0.4,10.5-0.5c2.1,0,4.3,0.2,6.4,0.3c2.9,0.2,5.9,0.4,8.8,0.5c3,0.1,6.1,0,9.1,0
			c1.8,0,3.7,0.3,5.5,0.4c1.6,0.1,3.3,0,5,0.5c-0.9,0.2-1.7,0.5-2.6,0.6c-3.6,0.3-7.2,0.8-10.7,0.6c-2.6-0.2-5.2-0.2-7.9-0.2
			c-3.2,0-6.3-0.2-9.5-0.3c-4.8-0.1-9.6-0.1-14.4-0.1c-9,0-18.1-0.1-27.1,0c-11.2,0.1-22.4,0.3-33.6,0.4c-5.7,0-11.3-0.3-17-0.3
			c-6.6,0-13.3,0.2-19.9,0.3c-1.4,0-2.7,0-4.1,0c-2.7,0-5.4,0-8.1,0c-6.1,0-12.3-0.1-18.4-0.1c-3.8,0-7.5,0-11.3,0
			c-3,0-6.1,0.1-9.1,0.1c-5.8,0-11.5,0-17.3,0.1c-8.4,0.1-16.7,0.3-25.1,0.4c-6.3,0.1-12.6,0.1-18.9,0.2c-3.9,0.1-7.8,0.2-11.7,0.3
			c-1.7,0-3.4-0.4-5-0.3c-5.1,0.4-10.2-0.5-15.3,0.6c-1.1,0.2-2.2,0.1-3.3,0c-2.2-0.2-4.4-0.5-6.6-0.7c-2.9-0.2-5.9-0.4-8.8-0.6
			c-0.5,0-0.9,0-1.5,0c-0.1,0.7-0.1,1.2-0.2,1.7c-0.5,2.5-2,4-4.6,4c-1.7,0-3,0.2-4.5,1.2c-0.8,0.6-2.2,0.4-3.4,0.4
			c-0.1,0-0.5-0.5-0.4-0.7c0-0.2,0.4-0.6,0.6-0.6c0.5-0.1,1,0.2,1.4,0c0.6-0.3,1.5-0.8,1.5-1.2c0-0.6-0.5-1.5-1-1.9
			c-0.4-0.4-1.2-0.3-1.8-0.4c-0.4-0.1-0.8,0-1.3-0.4c0.3-0.3,0.6-0.8,1-0.9c1.9-0.4,3.2,0.5,4.3,1.9c0.4,0.5,0.6,1.1,1.5,0.9
			c1.2-0.3,2.5-0.3,3.6-0.7c0.8-0.4,0.7-1.9-0.1-2.8c-1.2-1.3-2.8-2-4.5-1.3c-1.2,0.5-2,0-3-0.6c-3.7-2.3-6.5-5.6-9.3-8.9
			c-1.1-1.2-1.8-2.8-1.7-4.6c0.1-4.1,1-7.8,2.8-11.5c1.5-3,2.5-6.2,3.8-9.3c0.1-0.2,0.1-0.5,0.2-0.7c2.3-4.9,2.3-10.2,3.2-15.4
			c0.4-2.4,1.4-4.7,2.2-7.1c1.2-3.7,3.8-6.8,5.5-10.3c0.1-0.2,0.4-0.3,0.9-0.2c-0.8,1.6-1.6,3.1-2.3,4.7c-1.1,2.6-2.1,5.2-3,7.8
			c-0.7,2.1-0.6,4.2,0.3,6.3c2,5,4,10.1,6,15.2c1.3,3.3,1.6,6.7,1.5,10.1c-0.1,4.3-0.9,8.6-1.9,12.7c-0.1,0.4-0.7,0.7-1.2,1.1
			c-0.6-1.7-0.3-3,0-4.3c1.9-7.9,1.5-15.7-2-23.2c-1.1-2.4-2.1-4.8-3.2-7.3c-0.3-0.8-0.8-1.5-1.7-2.2c-0.2,1.1-0.4,2.2-0.4,3.4
			c0,3.1-1.4,5.9-2.5,8.7c-2,5.1-4.2,10.2-5.1,15.7c-0.4,2.3-0.1,4.8-0.1,7.2c0,0.5,0.4,1,0.8,1.4c2.5,2.6,5.1,5,7.6,7.6
			c1,1,1.9,1.5,3.3,1.5c1,0,2.1,0.1,3.1,0.4c4.7,1.6,9.4,1.2,14.1,1c0.1-0.2,0.1-0.3,0.2-0.5c-0.6-0.3-1.1-0.7-1.7-1
			c-4.1-1.5-8.2-2.9-12.3-4.5c-0.7-0.3-2.2-0.2-1.9-1.3c0.4-1.3,1.6-0.4,2.4-0.2c4.6,1.6,9.2,3.3,13.8,4.8c2.2,0.7,4.5,1,6.7,1.5
			c0.4,0.1,0.8,0,1.2,0.2c2.2,0.8,4.4,0.6,6.6,0.6c1.9-0.1,3.8,0.2,5.7,0.2c0.6,0,1.6-0.1,1.7-0.4c0.2-0.6,0.1-1.5-0.3-2
			c-1.5-1.9-3.5-2.7-6-2.2c-0.9,0.2-1.8,0.2-2.9,0.2c0.6-1.6,1.7-1.5,2.5-1.7c1.9-0.4,3.8-0.3,5.6,0.6c1.5,0.7,2.8,1.5,2.7,3.5
			c0,0.9,0.4,1.6,1.5,1.3c1-0.3,0.7-1.1,0.6-1.8c-0.4-2.3-2.4-4.2-4.9-4.6c-2.3-0.3-4.6-0.6-6.9,0.4c-0.3,0.1-0.6,0.2-0.9,0.2
			c-0.3-0.1-0.9-0.4-0.9-0.5c0-0.4,0.3-1.1,0.6-1.1c3.1-0.3,6.1-1,9.2,0c3.7,1.1,5.2,3.7,5.7,7.2c0.1,0.5,0.1,0.9,0.2,1.5
			c0.7,0.1,1.3,0.2,1.9,0.2c6.1,0,12.1-0.1,18.2-0.2c5.1-0.1,10.2-0.2,15.3-0.2c6.6-0.1,13.1-0.2,19.7-0.3c3.4,0,6.7,0.1,10.1,0.1
			c2,0,4-0.1,6-0.2c3-0.1,6.1-0.3,9.1-0.3c2.4-0.1,2.4,0,2.9-2.4c0.2-0.9,0.2-1.8,0.4-2.6c0.5-1.7,1.1-3.3,1.9-4.9
			c0.2-0.5,0.9-0.8,1.5-1.1c4.8-2.3,9.8-3.4,15.1-2.8C438,391.6,438.2,391.6,438.7,391.5z M481.6,405.8c2.6-0.2,6-0.6,9.3-0.9
			c0.6-0.1,1.3-0.1,1.9-0.1c1,0,1.5-0.4,1.6-1.4c0.1-2.2,0.2-4.5,0.3-6.7c0-1.1-0.6-1.5-1.7-1.5c-0.9,0.1-1.8,0.1-2.6,0.1
			c-1.5-0.1-3.1,0-4.5-0.4c-6.1-1.9-12.1-1.8-18,0.5c-3,1.2-5.4,4.9-5.1,8.2c0.1,0.9,0.5,1.3,1.3,1.3c1.4,0.1,2.8,0.3,4.3,0.3
			C472.5,405.5,476.6,405.6,481.6,405.8z"/>
		<path d="M486.7,123.5c-0.3-3.2-0.4-6.2-0.9-9.2c-0.8-5-3.7-8.4-8.2-10.8c-5.5-2.9-11.3-2.6-17.1-2.1c-2.8,0.2-5.5,1.1-8.2,1.7
			c-0.6,0.1-1.3,0.5-1.7,0.9c-2.9,2.9-5.7,6-6.7,10.2c-0.3,1.4-0.5,2.8-0.7,4.2c-0.2,1.5-1.4,1.8-2.4,2.4c-2.1,1.2-4.2,2.2-6.2,3.5
			c-0.6,0.4-1.3,1.5-1.1,1.8c0.3,0.6,1.2,1.3,2,1.4c2.7,0.3,5.4,0.3,8.1,0.4c0.6,0,1.3,0,1.9,0c0.7,0,1.4,0.2,1.2,1.1
			c-0.1,0.3-0.8,0.7-1.2,0.7c-1.9,0-3.8,0-5.8-0.1c-1.3,0-2.5,0-3.8,0c-0.7,0-1.5,0-2.1-0.2c-2.1-0.5-2.9-2.1-2.3-4.2
			c0.7-2.3,2.5-3.7,4.5-4.3c2.6-0.8,3.7-2.3,4.5-4.9c0.9-3.2,2.4-6.2,3.7-9.3c1.4-3.2,4.3-5.1,7.4-5.9c6.8-1.9,13.9-2.6,20.9-1.3
			c7.1,1.3,13.3,5.6,15.2,14.4c0.5,2.3,0.9,4.7,1.3,7.1C489.1,122.3,488.6,122.8,486.7,123.5z"/>
		<path d="M485.1,136.2c0-2,0-4,0-6c0-0.5-0.2-1-0.1-1.4c0.1-0.4,0.6-0.6,0.9-1c0.3,0.3,0.8,0.6,0.8,0.9c0.4,3.7,0.6,7.5-0.5,11.2
			c-0.7,2.1-1.6,4.2-2.4,6.2c-0.1,0.3-0.5,0.8-0.8,0.8c-0.5,0.1-1-0.1-1.6-0.1c0.1-0.4,0-1,0.2-1.3c1.4-2,2.1-4.2,2.6-6.5
			c-0.7,0.9-1.3,2-2.1,2.8c-0.6,0.6-1.6,1.6-2.4,0.7c-0.9-1,0.3-1.5,1-2.2c0.8-0.8,1.5-1.7,1.9-2.7c0.5-1.2-0.2-2.5-1.4-3
			c-1.2-0.5-1.9-0.2-2.8,1c-0.1,0.2-0.2,0.5-0.3,0.6c-0.3,0.2-0.6,0.4-0.9,0.6c-0.2-0.4-0.5-0.7-0.6-1.1c-0.1-0.5,0-0.9,0-1.4
			c0-0.9,0-1.8,0-3c-1,0.2-1.6,0.3-2.3,0.5c-0.3-1-0.4-2-0.7-2.8c-0.4-1-1.3-1.5-2.3-0.8c-1,0.6-1.9,0.6-3,0.4
			c-0.9-0.1-1.9,0-2.9,0.1c-4.4,0.2-8.8,0.4-13.2,0.5c-0.6,0-1.3,0-1.9-0.2c-0.4-0.1-0.6-0.6-0.9-0.9c0.4-0.2,0.7-0.7,1.1-0.7
			c1.1-0.2,2.2-0.2,3.3-0.3c1.8-0.2,3.6-0.5,5.5-0.6c2.8-0.1,5.6-0.1,8.3,0c2.9,0.2,5.3-0.8,7.4-2.8c1-0.9,2-1.5,3.4-1.5
			c1.4,0,2.9-0.2,4.3-0.2c0.6,0,1.1,0,1.6,0.1c0.3,0.1,0.6,0.5,0.6,0.9c0,0.2-0.3,0.7-0.5,0.7c-0.8,0.1-1.6,0.3-2.3,0.2
			c-2.3-0.6-4.2,0-6.1,1.3c-1.7,1.2-1.8,1.4-0.3,3.5c0.8-0.8,1.5-1.6,2.4-2.3c0.4-0.3,1-0.3,1.4-0.5c0,0.6,0.3,1.3,0,1.7
			c-0.6,0.8-1.5,1.4-2.2,2.2c0.7,1.6,1.5,2.6,3.4,2.5c1.6-0.1,2.7,0.9,3.3,2.3c0.2,0.5,0.5,1,0.7,1.5
			C484.9,136.3,485,136.2,485.1,136.2z"/>
		<path d="M205.7,405.8c20.3-0.9,40.6-1.3,61-1.4c-0.2-2.8-1.5-5.3-0.1-8.1c0.3,0.4,0.6,0.5,0.6,0.7c0.1,3.3,1.3,6.2,3.1,8.9
			c0.9,1.3,1.6,2.8,2.3,4.2c0.1,0.3-0.1,0.8-0.2,1.2c-0.4-0.1-0.8-0.1-1-0.4c-0.6-0.7-1.1-1.4-1.5-2.2c-0.6-1.1-1.4-1.6-2.7-1.6
			c-4.9,0.1-9.7,0.1-14.6,0.1c-0.2,0-0.5,0.1-0.7,0c-3.8-0.3-7.6,0-11.5,0.1c-6.2,0.1-12.4-0.3-18.7-0.4c-5-0.1-10.1-0.2-15.1-0.4
			c-0.3,0-0.6-0.1-0.9-0.1C205.7,406.3,205.7,406,205.7,405.8z"/>
		<path d="M456.4,255.5c2.2-3.2,4.1-5.9,6-8.6c1.6-2.3,3.3-4.5,4.7-6.8c0.5-0.8,0.7-1.9,0.7-2.9c0.1-3.6,0.1-3.5,3.4-4.6
			c0.9-0.3,1.8-1.1,2.3-1.9c2.6-4.3,5-8.8,6.5-13.6c0.1-0.5,0.3-0.9,0.6-1.3c0.9-1.3,1.9-2.5,2.9-3.8c1.1,0.7,0.9,1.5,0.5,2.3
			c-1,2-2.2,3.9-3.2,5.9c-1.2,2.4-2.2,5-3.4,7.4c-1,2-2.1,3.9-3.2,5.8c-0.5,1-1.4,1.5-2.5,1.6c-1.4,0.1-2,1-1.9,2.2
			c0.2,2.3-0.9,3.9-2.2,5.6c-1.9,2.6-3.6,5.5-5.4,8.2c-0.5,0.7-1,1.4-1.6,2.1c-1.7,2.1-3.1,4.5-3.5,7.2c-0.1,0.5-0.1,1-0.4,1.4
			c-0.2,0.3-0.7,0.5-1.1,0.7c-0.2-0.4-0.6-0.7-0.6-1.1c-0.1-0.4,0.1-0.9,0.3-1.4c0.4-1.1,0.3-2-0.5-2.9c-0.3-0.4-0.5-1-0.6-1.5
			c-1-3.4-2-6.9-3-10.4c-0.4-1.4-0.6-2.9-0.9-4.6c1.4,0.2,1.6,1.1,1.8,1.9c0.9,2.6,1.7,5.2,2.5,7.7
			C455,251.6,455.6,253.3,456.4,255.5z"/>
		<path d="M276.9,281.8c-0.4,0.8-0.6,1.7-1.1,2.5c-3.3,5.2-4.3,11.1-5.5,17c-0.6,3.1-1.2,6.3-1.8,9.4c-0.1,0.5-0.1,0.9-0.1,1.4
			c0.1,2.9,0.2,5.7,0.2,8.6c0,4.7,0.7,9.2,1.9,13.7c0.6,2.2,0.7,2.1,2.9,2.3c1.2,0.1,2.5,0.6,3.7,1c3,1,3.8,5.2,2.1,7.5
			c-0.6,0.9-1,1.8-0.9,2.9c0.1,2.2,0,2.2-2.2,4c0-0.5-0.1-0.9,0-1.2c0.6-1.6,0.6-3.1,0.1-4.7c-0.3-1-0.5-2,1.1-1.9
			c0.2,0,0.5-0.4,0.6-0.6c0.5-1.5,0.1-3.3-1-4.2c-1.6-1.2-3.2-1.3-4.8-0.4c-1.2,0.7-1.7,0.6-2.1-0.7c-1.8-5.1-2.9-10.4-3-15.9
			c-0.2-10.3,1.1-20.4,3.5-30.4c0.9-3.8,2.9-7.3,5.8-10.5C276.6,281.7,276.8,281.8,276.9,281.8z"/>
		<path d="M453.9,177.1c2.7,1.9,4.4,5.1,7.9,5.6c0.2-0.3,0.4-0.4,0.4-0.5c-0.1-3.3-0.2-6.5-0.2-9.8c0-2.1-0.5-3.8-3-4.2
			c-0.1,0-0.2,0-0.2-0.1c-0.7-0.4-1.8-0.6-1.3-1.6c0.5-1,1.3-0.4,2,0c1.9,0.9,3.5,0.9,5.3-0.6c1.4-1.2,3.1-1.9,4.8-2.7
			c0.4-0.2,1.1,0.1,1.6,0.2c-0.3,0.4-0.5,0.9-0.9,1.2c-1.8,1.2-3.7,2.2-5.4,3.5c-0.6,0.4-1.1,1.3-1.1,1.9c0.1,4.1,0.3,8.1,0.5,12.2
			c0,0.4,0.2,0.7,0.3,1.2c1.6-0.1,2.8-0.8,3.9-1.7c2.7-2.4,5.3-4.8,8-7.2c0.2-0.1,0.4-0.2,0.7-0.3c0,0.3,0.1,0.6,0,0.7
			c-2.5,2.8-5,5.6-7.6,8.2c-1.5,1.4-3.3,2.4-5.1,3.5c-0.4,0.2-1.1,0.1-1.6-0.1c-3.6-1.5-6.4-4.1-8.8-7.2
			C453.6,178.7,453.6,178.6,453.9,177.1z"/>
		<path d="M463,110.9c-0.1,4.4-2.1,6.8-6.5,7.5c-1.1,0.2-2.2,0.2-3.3,0.2c-2.4,0.1-3.8-1.2-4.6-3.4c-1.1-3.1-0.2-6.1,1.1-8.8
			c1.1-2.2,5.9-3.5,8.4-2.7c2.9,0.9,4.8,3.6,4.8,6.7C463,110.5,463,110.7,463,110.9z M460.7,110.9c0-3.5-2.9-5.5-6-4.1
			c-1,0.4-2,1-2.8,1.8c-1.6,1.6-1.8,3.7-0.6,5.7c1.2,2.1,2.5,2.7,5,2.2C459.2,116,460.7,114,460.7,110.9z"/>
		<path d="M317.1,399.3c-1.7,0.7-3.1,0.1-4.4-0.5c-2.2-1.1-4.5-2.1-6.6-3.4c-1.4-0.9-1.7-2.6-1.5-4.2c0.3-2.2,0.7-4.4,1.4-6.5
			c1.2-3.8,2.5-7.6,3.9-11.3c1.4-3.6,1.3-7.3,1-11.1c-0.1-1.7-0.2-3.3,0.1-5.1c0.1,0.4,0.4,0.7,0.4,1.1c0.5,2.4,0.9,4.8,1.3,7.3
			c0.1,0.9,0,1.9-0.2,2.8c-2,7.4-4,14.8-6,22.1c-0.4,1.4,0.5,3.4,1.8,4c2.1,1,4.2,1.9,6.3,2.8C315.5,397.6,316.6,397.8,317.1,399.3z
			"/>
		<path d="M475.2,332.5c1.2,0,2.4,0,3.6,0c0.9,0,1.3,0.4,1.4,1.3c0.4,6.3,0.8,12.5,1.3,18.8c0.2,2.2-0.1,2.4-2.4,2.4
			c-2.3,0-4.6,0.2-6.9,0.3c-0.5,0-1,0.2-1.4,0.1c-0.4-0.1-0.8-0.4-1.2-0.6c0.3-0.4,0.5-1.1,0.9-1.2c0.8-0.3,1.7-0.4,2.5-0.4
			c1.8-0.1,3.7-0.1,5.5-0.2c0.8,0,1.3-0.3,1.3-1.3c-0.4-5.2-0.7-10.4-1-15.5c-0.1-1.7-0.2-1.7-1.9-1.6c-3,0.1-6,0.3-9,0.3
			c-0.5,0-0.9-0.4-1.4-0.6c0.4-0.4,0.7-1,1.1-1c2-0.3,4.1-0.5,6.2-0.7c0.5-0.1,1.1,0.1,1.7,0.1C475.2,332.6,475.2,332.5,475.2,332.5
			z"/>
		<path d="M445,331.3c1.5,0.1,3,0.2,4.5,0.3c1.2,0.1,1.7,0.7,1.8,2.1c0,2.9,0.3,5.7,0.5,8.6c0.1,1.9,0,3.8,0.1,5.7
			c0,1,0.3,2.1,0.3,3.1c0.1,1.9-0.6,2.3-2.5,1.9c-1.5-0.4-3.1-0.4-4.7-0.5c-0.6-0.1-1.3,0.1-1.9-0.1c-0.4-0.1-0.8-0.6-1.2-0.9
			c0.4-0.3,0.7-0.7,1.1-0.7c1.7-0.1,3.4,0,5-0.1c2.4-0.1,2.4-0.1,2.2-2.5c-0.2-4.3-0.5-8.6-0.6-12.9c0-1.2-0.5-1.8-1.7-1.8
			c-1.8,0-3.5-0.1-5.3-0.1c-0.6,0-1.2,0.1-1.6-0.1c-0.4-0.2-0.7-0.8-0.8-1.2c0-0.2,0.6-0.7,1-0.8c1.3-0.1,2.6,0,3.8,0
			C445,331.3,445,331.3,445,331.3z"/>
		<path d="M462.8,192c1.6,0.4,1.7,1.1,1.7,2c-0.6,10.1-1.1,20.1-1.6,30.2c-0.1,2-0.1,4-0.1,6c0,0.8-0.1,1.6-1.6,1.7
			C461.2,218.6,461.8,205.4,462.8,192z"/>
		<path d="M291.8,249c-2.5,0.5-4.5,0.9-6.4,1.2c-1.1,0.2-1.8,0.8-1.6,1.9c0.1,1.1,0.3,2.1,0.5,3.2c1.3-0.1,2.4-0.2,3.8-0.3
			c-0.7,1.6-1.9,2-3,2.3c-0.6,0.1-1.7-0.6-2-1.2c-0.5-0.9-0.8-2.1-0.9-3.2c-0.1-1.4-0.4-2.6-2.1-2.9c0.9-2.4,0.9-2.3,3-2.3
			c1.4,0,2.9,0,4.3-0.3c2.8-0.5,5.6-1.2,8.4-1.7c0.4-0.1,0.8,0.3,1.2,0.4c-0.2,0.3-0.2,0.7-0.5,1c-1.5,1.6-3.1,3.2-4.6,4.8
			c-0.5,0.6-1,0.9-1.6,0.4c-0.7-0.5-0.4-1.1,0.1-1.6C290.7,250.3,291.1,249.8,291.8,249z"/>
		<path d="M443.6,201.8c0.3,0.9,0.6,1.7,0.7,2.6c1.8,9.6,3.5,19.1,5.2,28.7c0.1,0.7,0.2,1.4,0.1,2.1c0,0.2-0.4,0.6-0.6,0.6
			c-0.2,0-0.6-0.2-0.7-0.5c-0.2-0.3-0.2-0.8-0.3-1.1c-0.5-2.1-0.8-4.2-1.5-6.3c-1-3.1-1.2-6.4-1.6-9.6c-0.2-1.8-0.8-3.6-1-5.4
			c-0.4-3-0.6-6-0.9-9c-0.1-0.6-0.1-1.2-0.1-1.8C443.1,201.9,443.3,201.8,443.6,201.8z"/>
		<path d="M456.4,215.2c0,2.4,0,5.2,0,8c0,2.2-0.1,2.2-2.2,2.5c-0.9,0.1-1.9,0.2-2.8,0.1c-0.4-0.1-0.7-0.7-1-1.1
			c0.4-0.2,0.7-0.5,1.1-0.7c0.1-0.1,0.3,0,0.5,0c3.1-0.1,3-0.1,3.1-3c0.1-4.4,0.2-8.8,0.3-13.2c0-1.8-0.2-2.2-1.9-2.3
			c-1.5-0.1-3,0.2-4.5,0.2c-0.9,0-2.5,0.6-2.7-0.7c-0.2-1.4,1.4-1.1,2.4-1.2c1.9-0.2,3.8-0.2,5.7-0.3c1.8-0.1,2.6,0.4,2.6,2.2
			c0.1,2-0.1,4-0.2,6C456.6,212.7,456.5,213.7,456.4,215.2z"/>
		<path d="M278.1,237.1c-3-0.1-4.3-1.5-4.2-4.4c0.1-1.8,0.3-3.4,1.4-5c1.9-2.7,6.4-2.3,7.8,1c0.2,0.4,0.3,0.8,0.3,1.1
			c0.3,1.3,1.2,2.6-0.1,3.8C281.8,235.2,280.6,237.3,278.1,237.1z M278.3,227.9c-2.2,0.7-3.2,2.4-2.6,4.5c0.5,1.8,2,2.7,3.8,2.4
			c2.1-0.4,2.7-1.3,2.4-3.5C279,231.4,278.8,231.1,278.3,227.9z"/>
		<path d="M452.8,131.4c-0.3,1.9-1.5,2.1-2.7,2.3c-1.9,0.3-3.8,0.6-5.7,0.8c-1.8,0.2-1.9,0.3-1.8,2.1c0,2.1,0.3,4.1,0.4,6.2
			c0,1,0.3,2-0.3,2.9c-1.2,0-1.1-1-1.2-1.6c-0.7-4.4-0.4-8.8-0.4-13.5c1.2,0.9,1.2,0.9,1.6,1.9C445.9,132.2,449.2,131.8,452.8,131.4
			z"/>
		<path d="M268.3,228.5c0.7-1.1,1.3-2.3,2.1-3.4c0.9-1.2,2-2.3,3.1-3.3c1.2-1.2,2.6-1.7,4.3-1.1c0.5,0.2,1,0.4,1.6,0.6
			c0.8,0.3,2.1,0.3,1.7,1.5c-0.2,0.5-1.4,1.1-2.1,1.1c-3.4,0.3-6.3,1.6-8.4,4.4c-0.4,0.5-1.1,0.6-1.7,0.9
			C268.7,229,268.5,228.8,268.3,228.5z"/>
		<path d="M250.9,228.3c-0.6,2.2-0.6,2.1-2.4,1.4c-1.1-0.5-2.3-0.7-3.4-1.1c-0.4-0.2-0.7-0.7-1.1-1.1c0.4-0.3,0.8-0.8,1.2-0.9
			c2.4-0.1,4.8-0.1,7.2,0c2.4,0.1,4.8,0.4,7.1,0.6c1.3,0.1,2.1,0.7,2.7,1.7c0.1,0.2,0.2,0.8,0.1,0.8c-0.3,0.2-0.8,0.4-1,0.3
			c-2-1.2-4.3-1.1-6.5-1.4C253.5,228.4,252.2,228.4,250.9,228.3z"/>
		<path d="M173.3,406c2.8-1.3,19.9-1.5,22.5-0.4c-0.9,0.9-1.9,1.1-3,1c-2.9-0.1-5.9-0.1-8.8-0.2c-1.6,0-3.2,0.1-4.8,0.2
			C177.1,406.9,175.2,406.6,173.3,406z"/>
		<path d="M443.6,152.5c1.2,0.3,1.5,1.4,1.7,2.3c0.6,2.3,2,3.4,4.2,4c1.6,0.4,3.1,1.3,4.6,2c1.2,0.6,1.9,2.4,1.3,3.5
			c-0.1,0.2-0.4,0.4-0.5,0.4c-0.3,0-0.7-0.2-0.7-0.4c-0.5-2.3-2.4-2.7-4.2-3.3c-1.1-0.3-2.2-0.5-3.2-0.9
			C444.7,158.1,442.4,155.8,443.6,152.5z"/>
		<path d="M459.6,135.6c0.7-2.2,2.2-2.6,3.4-2.5c1.9,0,3.7,0.6,5.5,1c0.3,0.1,0.4,0.7,0.6,1.1c-0.3,0.2-0.7,0.5-1,0.4
			c-0.8,0-1.5-0.2-2.2-0.3c-0.4,1.5-0.6,2.9-1.1,4.2c-0.4,1.1-1.3,1.2-2,0.3c-0.5-0.6-0.8-1.4-0.9-2.1
			C461.7,136.4,461.5,135.3,459.6,135.6z"/>
		<path d="M449.7,141.4c0.9-1.1,1.8-2.2,2.8-3.2c0.3-0.3,1-0.7,1.4-0.6c0.8,0.3,0.5,1.1,0.2,1.6c-0.6,1-1.2,2-1.9,3
			c-0.8,1-1.7,1.9-2.5,2.9c-1.1,1.4-1.1,1.6,0.2,3c0.5,0.6,1.2,1.1,1.7,1.7c0.3,0.4,0.3,0.9,0.4,1.4c-0.5,0-1.2,0.1-1.5-0.1
			c-0.8-0.5-1.4-1.2-2.1-1.9c-2.3-2.4-2.3-2.8-0.2-5.4c0.4-0.6,0.8-1.2,1.1-1.8l0,0C449.4,141.7,449.6,141.5,449.7,141.4
			L449.7,141.4z"/>
		<path d="M470.8,121.8c-0.7,0.3-1,0.7-1.3,0.7c-5.8-0.3-11.6-0.6-17.4-1c-0.2,0-0.4-0.4-0.7-0.6
			C453.5,119.7,466.7,120.2,470.8,121.8z"/>
		<path d="M446.4,138c-0.7,0-1.7,0-1.6-0.9c0-0.6,0.6-1.3,1.1-1.6c2.1-1.1,4.8-0.2,6.2,2.2c-0.7,0.2-1.3,0.3-2.2,0.5
			c-0.1,1-0.1,2.1-0.2,3.2c0,0,0,0,0,0c-0.2,0.2-0.4,0.4-0.5,0.5l0,0c-1.3,0.6-2.1-0.1-2.5-1.3C446.5,139.7,446.5,138.9,446.4,138
			C446.3,138,446.4,138,446.4,138z"/>
		<path d="M468,115.5c0.2-2.7,0.2-5.4,0.6-8.1c0.2-1.3,0.8-2.5,1.3-3.8c0.1-0.2,0.6-0.5,0.8-0.4c0.3,0.2,0.6,0.5,0.7,0.8
			c0.1,0.4-0.1,0.8-0.2,1.2c-0.2,2-0.3,3.9-0.6,5.9c-0.3,2-0.8,4-1.3,6c0,0.2-0.4,0.4-0.7,0.4c-0.1,0-0.4-0.2-0.5-0.4
			c-0.1-0.5-0.1-1.1-0.2-1.6C467.9,115.5,468,115.5,468,115.5z"/>
		<path d="M282.1,412.8c0,1.5-0.7,2.2-2.2,2.7c-2,0.6-3.8,0.2-5.6-0.5c-0.7-0.3-1.1-0.7-0.7-1.5c0.5-0.8,0.9-0.4,1.5,0
			c1.4,1.1,3.1,0.7,4.6,0.4c1.1-0.3,1.1-1.9-0.1-2.6c-0.6-0.4-1.4-0.4-2-0.7c-0.3-0.1-0.5-0.5-0.7-0.8c0.3-0.3,0.6-0.8,1-0.8
			C280.5,408.8,281.9,410.2,282.1,412.8z"/>
		<path d="M634.3,406.6c-7,0.2-14,0.5-21,0.7c-0.5,0-1-0.2-1.6-0.4c0.4-1.1,1.1-1,1.8-1c4,0,8,0.1,12,0.1c2.2,0,4.3,0,6.5,0
			c0.8,0,1.6,0,2.3,0C634.4,406.2,634.3,406.4,634.3,406.6z"/>
		<path d="M462.4,267.1c0.6,0.3,1.2,0.4,1.7,0.8c2.4,1.9,4.7,4,7.6,5.3c1,0.4,1.7,1.4,2.4,2.2c0.3,0.3,0.2,1,0.2,1.5
			c-0.4,0-1,0.1-1.3-0.1c-3.4-2.5-6.7-5-10-7.6c-0.5-0.4-0.7-1-1.1-1.6C462.1,267.4,462.2,267.2,462.4,267.1z"/>
		<path d="M461.2,394c-0.9,1.2-1.7,1.3-2.6,1.3c-3.3,0.2-6.7,0.3-10,0.5c-0.7,0-1.4-0.1-2.1-0.2c-0.2,0-0.5-0.4-0.5-0.7
			c0-0.2,0.3-0.6,0.6-0.6c0.4-0.1,0.8-0.1,1.2-0.1c3.1-0.2,6.2-0.4,9.3-0.5C458.2,393.6,459.5,393.8,461.2,394z"/>
		<path d="M448,267.5c-0.9,0.6-1.4,1.2-2,1.3c-2.2,0.5-3.9,1.8-5.6,3.2c-0.7,0.6-1.4,1.1-2.2,1.5c-0.3,0.2-0.9-0.1-1.3-0.1
			c0.1-0.5,0.1-1,0.2-1.5c0-0.1,0.2-0.2,0.4-0.3c2.4-1.5,4.7-3,7.1-4.4C445.9,266.5,445.9,266.6,448,267.5z"/>
		<path d="M463.2,130.4c1.4,0,2.9,0,4.3,0c0.5,0,1,0,1.4,0.1c0.4,0.1,0.7,0.5,1.1,0.8c-0.4,0.2-0.7,0.6-1.1,0.7c-2,0.2-4,0.2-6,0.3
			c-1,0-1.9,0.1-2.9,0.1c-0.6,0-1.3,0-1.9-0.3c-0.4-0.2-0.7-0.7-1.1-1.1c0.4-0.2,0.9-0.7,1.3-0.7c1.6,0,3.2,0.1,4.8,0.2
			C463.2,130.5,463.2,130.4,463.2,130.4z"/>
		<path d="M451.2,154.3c2.7-0.1,5.4-0.2,8.1-0.4c0.5,0,1-0.2,1.4-0.1c0.5,0.1,1.5,0.5,1.5,0.7c0,0.9-0.8,0.7-1.4,0.8
			c-2.3,0.3-4.6,0.6-6.8,0.8c-1,0.1-2.1-0.1-3-0.3c-0.4-0.1-0.7-0.7-1-1.1c0.4-0.3,0.8-0.6,1.2-0.9
			C451.1,154.1,451.2,154.2,451.2,154.3z"/>
		<path d="M148.9,405.6c4.6-0.8,9.3-0.8,13.9,0.1c-2.2,1.2-4.7,0.2-7,0.5c-2.3,0.3-4.6,0.1-7,0.1C148.9,406,148.9,405.8,148.9,405.6
			z"/>
		<path d="M651.6,407.1c-0.9,0.2-1.5,0.4-2,0.4c-2.9-0.5-6,1.1-9.1-0.4C642.8,406.1,649.6,406,651.6,407.1z"/>
		<path d="M461.3,242.9c0-1.7,0-3.4,0-5.2c0-0.3,0.5-0.7,0.8-1c0.2,0.3,0.6,0.7,0.6,1c0,1.3,0,2.5-0.1,3.8c-0.1,0.5-0.4,1-0.6,1.5
			C461.8,243,461.6,242.9,461.3,242.9z"/>
		<path d="M463.9,154.5c0.3-1,0.4-1.6,0.6-1.8c1.3-0.6,2.6-1.2,3.9-1.7c0.2-0.1,0.8,0.3,0.9,0.5c0.1,0.3-0.2,0.9-0.4,1
			C467.4,153.2,465.9,153.8,463.9,154.5z"/>
		<path d="M443.7,151c-0.8,1.5-1.9-2.5-0.6-4.3C444.2,148,444.4,149.7,443.7,151z"/>
		<path d="M294.4,335.4c0,0.1,0.1,0.3,0.1,0.4c-0.1,0.1-0.2,0.1-0.4,0.2c0-0.1-0.2-0.3-0.1-0.4C294.1,335.5,294.3,335.4,294.4,335.4
			z"/>
		<path d="M21.2,50.1c0.1-0.1,0.1-0.2,0.2-0.4c0.1,0.1,0.2,0.2,0.2,0.3c0,0.1-0.1,0.2-0.2,0.3C21.3,50.3,21.2,50.2,21.2,50.1z"/>
		<path d="M478.8,179.3c0.1,0,0.1-0.1,0.2-0.1c0.1,0.1,0.1,0.2,0.2,0.3c-0.1,0-0.2,0.1-0.2,0.1C478.9,179.4,478.8,179.3,478.8,179.3
			z"/>
		<path d="M2.8,28c-0.1,0.1-0.1,0.2-0.2,0.3c0-0.1-0.1-0.1-0.1-0.1c0-0.1,0.1-0.2,0.2-0.3C2.7,27.9,2.7,27.9,2.8,28z"/>
		<polygon points="88.1,337.5 88,337.5 88,337.4 		"/>
		<path fill="#FFFFFF" d="M302.4,285.9c0.1,0.1,0.2,0.2,0.3,0.3C302.5,286,302.5,285.9,302.4,285.9
			C302.4,285.8,302.4,285.9,302.4,285.9z"/>
		<path fill="#FFFFFF" d="M449.2,141.9c0.2-0.2,0.4-0.4,0.5-0.5C449.6,141.5,449.4,141.7,449.2,141.9z"/>
		<path fill="#FFFFFF" d="M446.4,138C446.4,138,446.3,138,446.4,138C446.3,138,446.4,138,446.4,138z"/>
	</g>
</g>
<g id="Layer_4">
	<g>
		<defs>
			<polygon id="SVGID_1_" points="447.9,103 464.7,103 463.3,118.9 446.5,118.9 			"/>
		</defs>
		<clipPath id="SVGID_2_">
			<use xlink:href="#SVGID_1_"  overflow="visible"/>
		</clipPath>
		<path clip-path="url(#SVGID_2_)" fill="#4A4A49" d="M462,110.9c-0.3,3.5-3.4,6.4-7,6.4s-6.2-2.9-5.9-6.4s3.4-6.4,7-6.4
			S462.3,107.4,462,110.9"/>
		
			<ellipse transform="matrix(0.7223 -0.6915 0.6915 0.7223 49.803 345.8708)" clip-path="url(#SVGID_2_)" fill="none" stroke="#C6C6C5" stroke-width="0.1807" stroke-miterlimit="10" cx="455.6" cy="110.9" rx="6.7" ry="6.1"/>
		<path clip-path="url(#SVGID_2_)" fill="#C6C6C5" d="M452.5,114.9c0,0.1-0.1,0.2-0.2,0.3c0,0-0.1,0.1-0.2,0.1
			c-0.1,0.1-0.3,0.2-0.4,0.2c0,0-0.1,0-0.1,0c0,0,0,0,0,0c0,0-0.1,0-0.1,0c0,0,0,0,0,0c0,0,0,0-0.1-0.1c0,0,0,0-0.1,0
			c0,0-0.1,0-0.1,0c0,0-0.1-0.1-0.1,0c0,0,0,0,0,0c0,0,0,0,0,0l0,0c0-0.1,0-0.2,0-0.3c0,0,0,0,0,0c0,0,0,0,0,0c0,0,0.1,0,0.1,0
			c0,0,0,0,0,0c0,0,0,0,0,0l0,0c0.1,0,0.2,0.1,0.2,0.1c0,0,0.1,0.1,0.1,0.1c0,0,0.1,0,0.1,0c0,0,0,0,0,0c0,0,0.1,0,0.1,0
			c0,0,0,0,0,0c0,0,0.1-0.1,0.2-0.1c0,0,0,0,0,0l0,0c-0.1-0.1-0.2-0.1-0.4-0.2c0,0-0.1-0.1-0.1-0.1l0,0c0,0,0-0.1,0-0.1
			c0,0,0,0,0-0.1c0,0,0,0,0,0c0,0,0,0,0,0c0,0,0,0,0,0c0,0,0,0,0,0c0,0,0,0,0,0c0,0,0,0,0,0c0,0,0,0,0,0c0.2,0.2,0.4,0.2,0.6,0.3
			c0,0,0.1-0.1,0.1,0c0,0,0.1,0,0.1-0.1c0,0-0.1-0.1-0.1-0.1c-0.1-0.1-0.2-0.2-0.3-0.2c0,0,0,0,0,0c0,0,0,0,0,0c0,0,0,0,0,0
			c0,0,0,0,0,0c0,0,0,0,0-0.1c0,0,0,0,0,0c0,0,0,0,0,0c0,0,0,0,0,0c0,0,0,0,0,0c0,0,0,0,0-0.1c0,0,0,0,0,0c0,0,0,0,0,0c0,0,0,0,0,0
			c0,0,0,0,0,0c0,0,0,0,0,0c0,0,0,0,0,0c0,0,0,0,0,0c0,0,0,0,0,0c0,0,0,0,0,0c0,0,0,0,0,0c0,0,0,0,0,0c0,0,0,0,0,0
			c0,0,0.1,0.1,0.1,0.1c0.1,0.1,0.2,0.1,0.3,0.2c0,0,0,0,0,0c0,0,0.1,0.1,0.1,0.1c0,0,0,0,0,0c0,0,0.1,0,0.1,0.1c0,0,0,0,0,0
			c0,0,0,0,0,0c0,0,0,0,0,0c0,0,0,0.1,0,0.1c0,0,0,0,0,0.1c0,0,0,0,0,0c0,0.1,0,0.2,0,0.2C452.7,114.7,452.5,114.8,452.5,114.9"/>
		<path clip-path="url(#SVGID_2_)" fill="#C6C6C5" d="M450.5,112.7c0.1,0,0.2-0.1,0.3-0.1c0.1-0.1,0.4-0.2,0.5-0.2
			c0,0,0.1-0.1,0.1,0c0,0,0,0,0.1,0c0,0,0,0,0,0c0,0,0.1,0.1,0.1,0.1c0,0,0,0,0.1,0c0,0,0.1,0.2,0.1,0.2l0,0c0,0,0,0,0,0
			c0,0,0,0,0,0c-0.1,0.1-0.4,0.4-0.5,0.5c-0.2,0.1-0.4,0.3-0.5,0.4c0,0,0.1,0,0.1,0c0.1,0,0.2-0.1,0.2-0.1c0.1,0,0.2-0.1,0.3-0.1
			c0.1-0.1,0.4-0.2,0.5-0.2c0,0,0,0,0,0c0,0,0,0,0,0c0,0,0.1,0,0.1,0c0,0,0,0,0.1,0c0,0.1,0.1,0.1,0.1,0.1c0,0,0,0,0,0
			c0,0.1,0,0.1,0.1,0.1c0,0,0,0,0,0c0,0-0.1,0-0.1,0.1c0,0,0,0,0,0c-0.2,0.1-0.5,0.3-0.7,0.4c0,0,0,0,0,0c-0.1,0.1-0.2,0.1-0.3,0.1
			c0,0,0,0,0,0c0,0,0,0,0,0c0,0-0.1,0-0.1,0.1c0,0,0,0,0,0c-0.1,0-0.3,0.1-0.4,0c0,0,0,0-0.1,0c0,0-0.1,0-0.1,0
			c-0.1-0.1-0.1-0.2-0.2-0.3c0,0,0,0,0,0c0,0,0-0.1,0-0.1c0,0,0,0,0,0c0,0,0,0,0,0c0,0,0,0,0,0c0,0,0,0,0,0c0,0,0,0,0-0.1
			c0.1-0.1,0.2-0.2,0.2-0.3c0.1,0,0-0.1,0.1-0.1c0,0,0,0,0,0c0,0,0,0,0,0c-0.1,0-0.3,0.1-0.4,0.1c-0.1,0-0.1,0-0.1,0c0,0,0,0,0-0.1
			c0,0,0,0,0,0c0,0,0,0,0,0c0,0,0,0,0,0c0,0,0,0,0,0c0,0,0,0,0,0c0,0,0,0,0-0.1c0,0,0-0.1,0.1-0.1c0,0,0.1,0,0.1-0.1
			c0,0,0.1,0,0.1,0l0,0c0.1,0,0.2-0.1,0.2-0.1C450.4,112.8,450.5,112.8,450.5,112.7"/>
		<path clip-path="url(#SVGID_2_)" fill="#C6C6C5" d="M450.8,112.1c-0.1,0.1-0.2,0.1-0.3,0.1c0,0-0.2,0-0.2,0c-0.1,0-0.3,0-0.4-0.1
			c0-0.1,0-0.1-0.1-0.1c0,0,0,0,0,0c0,0,0-0.1-0.1-0.1c0,0,0,0,0,0c0,0,0-0.1,0-0.1c0,0,0,0,0-0.1c0,0,0-0.1,0-0.1c0,0,0-0.1,0-0.1
			c0,0,0,0,0,0c0,0,0,0,0,0l0,0c0-0.1,0.1-0.2,0.2-0.3c0,0,0,0,0,0c0,0,0,0,0,0c0,0,0.1,0,0.1,0c0,0,0,0,0,0c0,0,0,0,0,0l0,0
			c0,0.1,0.1,0.2,0.1,0.2c0,0.1,0,0.1,0.1,0.1c0,0,0,0.1,0,0.1c0,0,0,0,0,0c0,0,0,0,0.1,0.1c0,0,0,0,0,0c0,0,0.2,0,0.2,0
			c0,0,0,0,0,0l0,0c0-0.1-0.1-0.2-0.1-0.4c0,0,0-0.1,0-0.1l0,0c0-0.1,0-0.1,0.1-0.1c0,0,0,0,0,0c0,0,0,0,0,0c0,0,0,0,0,0
			c0,0,0,0,0,0c0,0,0,0,0,0c0,0,0,0,0,0c0,0,0,0,0,0c0,0,0,0,0,0c0,0.3,0.2,0.4,0.2,0.7c0,0,0.1,0,0.1,0c0,0,0.1,0,0.1,0
			c0,0,0-0.1,0-0.1c0-0.1,0-0.3-0.1-0.4c0,0,0,0,0,0c0,0,0,0,0,0c0,0,0,0,0,0c0,0,0,0,0,0c0,0,0,0,0-0.1c0,0,0,0,0,0c0,0,0,0,0,0
			c0,0,0,0,0,0c0,0,0,0,0,0c0,0,0-0.1,0-0.1c0,0,0,0,0,0c0,0,0,0,0,0c0,0,0,0,0,0c0,0,0,0,0,0c0,0,0,0,0,0c0,0,0,0,0-0.1
			c0,0,0,0,0.1,0c0,0,0,0,0,0c0,0,0,0,0,0c0,0,0,0,0,0c0,0,0,0,0,0c0,0,0,0,0,0c0,0,0,0.1,0,0.1c0,0.1,0.1,0.3,0.1,0.4c0,0,0,0,0,0
			c0,0,0,0.1,0,0.1c0,0,0,0,0,0c0,0,0,0.1,0,0.1c0,0,0,0,0,0c0,0,0,0,0,0c0,0,0,0,0,0c0,0,0,0.1,0,0.1c0,0,0,0.1,0,0.1c0,0,0,0,0,0
			c0,0.1-0.1,0.2-0.1,0.2C451.2,112.2,450.9,112.2,450.8,112.1"/>
		<path clip-path="url(#SVGID_2_)" fill="#C6C6C5" d="M451.7,109.7C451.7,109.7,451.8,109.7,451.7,109.7
			C451.8,109.7,451.7,109.8,451.7,109.7L451.7,109.7L451.7,109.7c0,0.1,0,0.1,0,0.2c0,0,0,0,0,0l0,0c-0.1,0-0.1,0.1-0.2,0.1
			c0,0.1-0.1,0.1-0.1,0.1l0,0c0,0,0,0,0,0c0,0,0,0,0,0c-0.1,0-0.1,0.1-0.1,0.1l0,0c0,0,0,0,0,0c0,0,0,0,0,0c0.1,0,0.2,0,0.3,0
			c0,0,0,0,0,0c0,0,0,0,0,0c0,0,0,0,0,0c0,0,0,0,0,0c0,0,0,0,0,0l0,0c0,0,0,0-0.1,0.1c0,0,0,0,0,0c0,0,0,0,0,0c0,0,0,0,0,0
			c0,0,0,0,0,0c0,0,0,0,0,0l0,0c0,0,0,0,0,0c0,0,0,0,0,0c-0.1,0,0,0.1-0.1,0.1c0,0,0,0-0.1,0c0,0,0,0,0,0c0,0,0,0,0,0
			c-0.2,0-0.4-0.1-0.6-0.1l0,0c-0.1-0.1-0.3-0.1-0.5-0.1c-0.1-0.1-0.2-0.1-0.4-0.1c0,0,0,0,0,0c0,0,0,0,0,0l-0.1,0c0,0,0-0.1,0-0.1
			c0-0.1,0-0.1,0-0.2l0-0.1c0-0.1,0-0.1,0.1-0.2c0,0,0-0.1,0.1-0.1l0,0c0,0,0.1-0.1,0.2-0.2c0,0,0,0,0,0c0.1,0,0.1,0,0.1,0
			c0-0.1,0.1,0,0.1-0.1c0,0,0.1,0,0.1,0c0.1,0,0.1,0.1,0.2,0.1l0,0l0,0l0,0c0.1,0,0,0,0.1,0l0,0c0,0,0.1,0,0.1,0.1
			c0,0.1,0.1,0.1,0.1,0.1l0,0.1c0,0,0.1-0.1,0.1-0.1c0,0,0.1,0,0.1-0.1c0.1,0,0.2-0.1,0.2-0.1c0.1-0.1,0.1-0.1,0.1-0.1
			c0,0,0-0.1,0.1,0l0,0c0,0,0,0,0.1,0c0,0,0,0,0,0.1c0,0,0,0,0,0c0,0,0,0,0,0C451.7,109.6,451.7,109.6,451.7,109.7
			C451.8,109.7,451.7,109.7,451.7,109.7 M450.7,110.2c0,0,0-0.1,0-0.1c0-0.1-0.1-0.1-0.1-0.1c0,0-0.1-0.1-0.1-0.1
			c-0.1,0-0.2,0-0.2,0.1l0,0c-0.1,0-0.1,0.2-0.1,0.2c0.1,0,0.2,0,0.3,0C450.5,110.2,450.6,110.2,450.7,110.2
			C450.7,110.2,450.7,110.2,450.7,110.2C450.7,110.2,450.7,110.2,450.7,110.2C450.7,110.2,450.7,110.2,450.7,110.2
			C450.7,110.2,450.7,110.2,450.7,110.2L450.7,110.2z M451,109.8L451,109.8L451,109.8L451,109.8z M451.5,110
			C451.5,110,451.5,110,451.5,110C451.5,110,451.5,110,451.5,110C451.5,110,451.5,110,451.5,110C451.5,110,451.5,110,451.5,110
			 M451.5,110.5C451.5,110.5,451.5,110.5,451.5,110.5C451.5,110.5,451.5,110.5,451.5,110.5C451.5,110.5,451.5,110.5,451.5,110.5
			L451.5,110.5z M451.6,110C451.6,110,451.6,110,451.6,110C451.6,109.9,451.6,109.9,451.6,110C451.6,110,451.6,110,451.6,110
			 M451.6,109.5C451.7,109.5,451.7,109.5,451.6,109.5L451.6,109.5z M451.7,109.8C451.7,109.8,451.7,109.8,451.7,109.8
			C451.7,109.8,451.7,109.8,451.7,109.8C451.7,109.8,451.7,109.8,451.7,109.8C451.8,109.8,451.8,109.8,451.7,109.8"/>
		<path clip-path="url(#SVGID_2_)" fill="#C6C6C5" d="M452.6,108.5C452.5,108.5,452.6,108.5,452.6,108.5
			C452.6,108.5,452.6,108.5,452.6,108.5C452.6,108.5,452.5,108.5,452.6,108.5c0,0.1,0,0.2,0,0.2c0,0,0,0.1-0.1,0.1c0,0,0,0,0,0
			c0,0-0.1,0-0.1,0.1c0,0,0,0,0,0c0,0,0,0,0,0c0,0,0,0,0,0l0,0c-0.1,0-0.1,0.1-0.2,0.1c0,0,0,0,0,0c0,0-0.1,0.1-0.2,0c0,0,0,0,0,0
			c0,0,0,0,0,0c0,0,0,0,0,0c0,0,0,0,0,0c0,0-0.1,0-0.1,0c0,0,0,0,0,0c0,0-0.1-0.1-0.1,0c0,0,0,0,0,0c0,0-0.1,0-0.1,0c0,0,0,0-0.1,0
			c0,0,0,0,0,0c-0.1-0.1-0.2-0.1-0.3-0.2c0,0-0.1-0.1-0.1-0.1c-0.1-0.1-0.2-0.2-0.2-0.3c0,0,0,0,0,0c0,0,0-0.1,0-0.2
			c0,0,0-0.1,0-0.1c0,0,0,0,0,0c0,0,0-0.1,0-0.1c0-0.1,0-0.1,0.1-0.2c0.1-0.1,0.1-0.2,0.2-0.2c0.1-0.1,0.2-0.1,0.3-0.2
			c0.1,0,0.1,0,0.2,0c0,0,0,0,0,0c0,0,0,0,0.1,0c0,0,0,0,0,0c0,0,0,0.1-0.1,0.1c-0.1,0-0.1,0.1-0.2,0.1c0,0-0.1,0.1,0,0.1
			c-0.1,0.1,0,0.2,0,0.2c0,0,0,0.1,0,0.1c0,0,0,0.1,0,0.1c0,0,0,0,0,0c0,0.1,0.1,0,0.1,0.1c0.1,0,0.1,0.1,0.2,0.1c0,0,0,0,0,0
			c0.1,0,0.1,0.1,0.2,0c0,0,0.1,0.1,0.1,0c0,0,0.1,0,0.1,0c0,0,0,0,0,0c0.1,0,0.1-0.1,0.1-0.2c0,0,0,0,0,0c0,0,0,0,0-0.1
			c0-0.1,0-0.2-0.1-0.3c0,0-0.1,0-0.1,0c0,0,0,0.1-0.1,0.2c0,0,0,0,0,0.1c-0.1,0-0.1,0.1-0.2,0.1c0,0,0,0,0,0c0,0,0,0,0,0
			c0,0,0,0,0,0c0,0,0,0,0,0c0,0,0-0.1,0-0.1c0-0.1,0.1-0.2,0.2-0.3c0,0,0.1-0.1,0.1,0c0,0,0.1,0,0.2-0.1l0,0c0.1,0,0.1,0,0.2,0.1
			c0,0,0,0,0,0c0,0,0,0,0,0c0,0,0,0,0,0c0,0,0.1,0,0.1,0.1c0.1,0,0.1,0.1,0.1,0.2c0,0,0,0,0,0c0.1,0,0,0.1,0.1,0.1
			C452.5,108.3,452.5,108.4,452.6,108.5C452.5,108.4,452.5,108.4,452.6,108.5C452.5,108.4,452.5,108.4,452.6,108.5
			C452.5,108.4,452.5,108.4,452.6,108.5"/>
		<path clip-path="url(#SVGID_2_)" fill="#C6C6C5" d="M451.9,106.8C452,106.8,452,106.8,451.9,106.8c0.1-0.1,0.1-0.1,0.2-0.1
			c0,0.1,0.1,0,0.1,0.1c0.1,0,0,0.1,0.1,0.2c0,0,0,0,0,0c0,0,0,0,0,0c-0.1,0.1-0.1,0.1-0.2,0.1c0,0-0.1,0-0.1,0
			c-0.1,0-0.1-0.1-0.2-0.1c0,0,0,0,0,0c0,0,0-0.1-0.1-0.1c0,0,0,0,0,0c0,0,0,0,0,0C451.8,106.9,451.8,106.8,451.9,106.8
			C451.9,106.8,451.9,106.8,451.9,106.8 M452.4,107.2C452.4,107.2,452.4,107.2,452.4,107.2C452.5,107.2,452.5,107.2,452.4,107.2
			c0.2,0,0.3,0.1,0.4,0.2c0,0,0,0,0,0c0,0,0.1,0.1,0.1,0.1c0,0.1,0.2,0.2,0.3,0.3c0,0,0,0-0.1,0.1c0,0,0,0,0,0c0,0-0.1,0-0.1,0
			c0,0,0,0,0,0c0,0-0.1,0.1-0.1,0.1c0,0-0.1,0-0.1,0c0,0,0,0,0,0c0,0,0,0,0,0c0,0,0,0,0,0c0,0,0,0,0,0c0,0,0,0,0,0
			c-0.1-0.1-0.2-0.3-0.3-0.4c0,0,0,0,0,0c0-0.1-0.1-0.1-0.1-0.2c-0.1,0,0-0.1-0.1-0.1c0,0,0,0,0,0c0,0,0,0,0,0
			C452.3,107.2,452.3,107.2,452.4,107.2"/>
		<path clip-path="url(#SVGID_2_)" fill="#C6C6C5" d="M455.2,106C455.2,106,455.3,106,455.2,106C455.3,105.9,455.3,105.9,455.2,106
			C455.3,105.9,455.3,105.9,455.2,106C455.3,105.9,455.3,105.9,455.2,106C455.3,105.9,455.3,105.9,455.2,106c0-0.1,0-0.1,0-0.1l0,0
			c0-0.1,0.1-0.2,0.1-0.3c0,0,0-0.1,0.1-0.1c0.1-0.1,0.2-0.2,0.3-0.3c0,0,0.1,0,0.1,0c0,0,0.1,0,0.1,0c0,0,0.1,0,0.1,0c0,0,0,0,0,0
			c0,0,0,0,0,0c0,0,0.1,0,0.1,0c0,0,0,0,0.1,0c0,0,0,0.1,0.1,0.1c0,0,0,0,0,0c0,0,0,0,0,0c0,0,0.1,0,0,0.1c0,0.1,0,0.1,0.1,0.2
			c0,0,0,0,0,0c0,0,0,0.1,0,0.1c0,0,0,0,0,0c0,0.1,0,0.1,0,0.2c0,0,0,0,0,0c0,0,0,0,0,0.1c0,0.1,0,0.2,0,0.2c0,0,0,0.1,0,0.1
			c0,0,0,0.2,0,0.2c0,0.1,0,0.1,0,0.2c0,0,0,0,0,0c0,0,0,0.1,0,0.1c0,0,0,0,0,0c0,0,0,0,0,0c0,0,0,0,0,0c0,0,0,0,0,0c0,0,0,0,0,0
			c0,0,0,0,0,0c0,0,0,0-0.1,0c0,0,0,0,0,0c0,0,0,0,0,0c0,0,0,0,0,0c0,0,0,0,0,0c0,0,0,0,0,0c0,0,0,0-0.1,0c0,0,0,0,0,0c0,0,0,0,0,0
			c0,0,0,0,0,0c0,0,0,0,0,0c0,0,0,0,0,0c0,0,0,0,0,0c0,0,0,0,0,0c0,0,0,0,0,0c0,0-0.1,0-0.1,0c0,0,0,0,0,0c-0.1,0,0-0.1-0.1-0.2
			c0,0,0,0,0,0c0,0,0,0,0,0c0-0.1,0-0.3,0-0.4c-0.1,0-0.1,0.1-0.2,0.1c0,0-0.1,0-0.1,0c0,0,0,0.1,0,0.2c0,0,0,0,0,0.1
			c0,0.1,0,0.2-0.1,0.2c0,0,0,0,0,0c0,0,0,0,0,0c0,0-0.1,0.1-0.1,0.1c0,0,0,0,0,0c0,0,0,0,0,0c0,0-0.1,0-0.1,0c0,0,0,0,0,0
			c0,0-0.1,0-0.1,0c0,0,0,0,0,0c0,0,0,0,0,0c0,0,0,0,0,0c0,0,0,0,0,0c0-0.1,0-0.2,0-0.3c0,0,0,0,0-0.1c0,0,0,0,0,0c0,0,0,0,0,0
			c0,0,0-0.1,0-0.1c0,0,0-0.1,0-0.1c0,0,0,0,0-0.1c0,0,0-0.1,0-0.1c0,0,0,0,0,0c0,0,0,0,0,0l0,0C455.2,106.1,455.2,106.1,455.2,106
			C455.2,106,455.2,106,455.2,106C455.3,106,455.3,106,455.2,106 M455.7,105.8c0,0.1,0,0.1-0.1,0.2c0,0,0,0,0,0
			c0.1,0,0.2-0.1,0.3-0.1c0,0,0,0,0,0c0-0.1,0-0.3-0.1-0.4c0,0-0.1,0,0,0.1C455.8,105.7,455.8,105.7,455.7,105.8"/>
		<path clip-path="url(#SVGID_2_)" fill="#C6C6C5" d="M457.7,107.3C457.6,107.3,457.6,107.3,457.7,107.3
			C457.6,107.3,457.6,107.3,457.7,107.3C457.6,107.3,457.6,107.3,457.7,107.3c-0.1,0-0.2,0-0.2,0c0,0-0.1,0-0.1-0.1c0,0,0,0,0,0
			c0,0-0.1-0.1-0.1-0.1c0,0,0,0,0,0c0,0,0,0,0,0c0,0,0,0,0,0l0,0c0,0-0.1-0.1-0.1-0.2c0,0,0,0,0,0c0,0-0.1-0.1-0.1-0.1c0,0,0,0,0,0
			c0,0,0,0,0,0c0,0,0,0,0,0c0,0,0,0,0,0c0,0,0,0,0-0.1c0,0,0,0,0,0c0,0,0-0.1,0-0.1c0,0,0,0,0,0c0,0,0-0.1,0-0.1c0,0,0,0,0-0.1
			c0,0,0,0,0,0c0-0.2,0.1-0.3,0.2-0.4c0,0,0-0.1,0.1-0.1c0.1-0.2,0.2-0.2,0.3-0.3c0,0,0,0,0,0c0,0,0.1,0,0.1-0.1c0.1,0,0.1,0,0.1,0
			c0,0,0,0,0,0c0,0,0.1,0,0.1,0c0.1,0,0.1,0,0.2,0c0.1,0,0.2,0.1,0.2,0.1c0.1,0.1,0.2,0.2,0.2,0.3c0,0.1,0.1,0.1,0,0.2c0,0,0,0,0,0
			c0,0,0,0,0,0.1c0,0,0,0,0,0.1c0,0-0.1,0-0.1,0c0,0-0.1-0.1-0.2-0.1c0,0-0.1,0-0.1,0c-0.1,0-0.2,0-0.2,0c0,0,0,0-0.1,0
			c0,0-0.1,0-0.1,0.1c0,0,0,0,0,0c-0.1,0,0,0.1-0.1,0.1c0,0.1-0.1,0.1-0.1,0.2c0,0,0,0,0,0c0,0.1-0.1,0.1,0,0.2c0,0,0,0.1,0,0.1
			c0,0,0,0.1,0,0.1c0,0,0,0,0,0c0.1,0,0.1,0,0.2,0c0,0,0,0,0,0c0,0,0,0,0.1,0c0.1,0,0.2-0.1,0.3-0.2c0,0,0-0.1,0-0.1
			c-0.1,0-0.1,0-0.2-0.1c0,0,0,0-0.1,0c0-0.1-0.1-0.1-0.1-0.2c0,0,0,0,0,0c0,0,0,0,0,0c0,0,0,0,0,0c0,0,0,0,0,0c0,0,0.1,0,0.1,0
			c0.1,0,0.2,0,0.3,0.1c0,0,0.1,0,0.1,0.1c0.1,0,0,0.1,0.1,0.1l0,0c0,0.1,0,0.1,0,0.2c0,0,0,0,0,0c0,0,0,0,0,0c0,0,0,0,0,0
			c0,0,0,0.1-0.1,0.1c0,0.1-0.1,0.1-0.1,0.2c0,0,0,0,0,0c0,0.1-0.1,0-0.1,0.1C457.8,107.2,457.7,107.2,457.7,107.3
			C457.7,107.2,457.7,107.2,457.7,107.3C457.7,107.3,457.7,107.2,457.7,107.3C457.7,107.3,457.7,107.3,457.7,107.3"/>
		<path clip-path="url(#SVGID_2_)" fill="#C6C6C5" d="M458.5,107c0-0.1,0.1-0.2,0.2-0.3c0,0,0.1-0.1,0.2-0.1
			c0.1-0.1,0.2-0.2,0.4-0.2c0,0,0.1,0,0.1,0c0,0,0,0,0,0c0,0,0.1,0,0.1,0c0,0,0,0,0,0c0,0,0,0,0.1,0c0,0,0,0,0.1,0c0,0,0.1,0,0.1,0
			c0,0,0.1,0,0.1,0c0,0,0,0,0,0c0,0,0,0,0,0l0,0c0,0.1,0,0.2,0,0.3c0,0,0,0,0,0c0,0,0,0,0,0c0,0-0.1,0-0.1,0c0,0,0,0,0,0
			c0,0,0,0,0,0l0,0c-0.1,0-0.2-0.1-0.2-0.1c0,0-0.1-0.1-0.1,0c0,0-0.1,0-0.1,0c0,0,0,0,0,0c0,0-0.1,0-0.1,0c0,0,0,0,0,0
			c0,0-0.1,0.1-0.2,0.2c0,0,0,0,0,0l0,0c0.1,0.1,0.2,0.1,0.4,0.2c0,0,0.1,0.1,0.1,0.1l0,0c0,0,0,0.1,0,0.1c0,0,0,0,0,0.1
			c0,0,0,0,0,0c0,0,0,0,0,0c0,0,0,0,0,0c0,0,0,0,0,0c0,0,0,0,0,0c0,0,0,0,0,0c0,0,0,0,0,0c-0.2-0.2-0.4-0.2-0.6-0.3
			c0,0-0.1,0.1-0.1,0c0,0-0.1,0-0.1,0.1c0,0,0.1,0.1,0.1,0.1c0.1,0.1,0.2,0.2,0.3,0.2c0,0,0,0,0,0c0,0,0,0,0,0c0,0,0,0,0,0
			c0,0,0,0,0,0c0,0,0,0,0,0.1c0,0,0,0,0,0c0,0,0,0,0,0c0,0,0,0,0,0c0,0,0,0,0,0c0,0,0,0,0,0.1c0,0,0,0,0,0c0,0,0,0,0,0c0,0,0,0,0,0
			c0,0,0,0,0,0c0,0,0,0,0,0c0,0,0,0,0,0c0,0,0,0,0,0c0,0,0,0,0,0c0,0,0,0,0,0c0,0,0,0,0,0c0,0,0,0,0,0c0,0,0,0,0,0
			c0,0-0.1-0.1-0.1-0.1c-0.1-0.1-0.2-0.1-0.3-0.2c0,0,0,0,0,0c0,0-0.1-0.1-0.1-0.1c0,0,0,0,0,0c0,0-0.1,0-0.1-0.1c0,0,0,0,0,0
			c0,0,0,0,0,0c0,0,0,0,0,0c0,0,0-0.1-0.1-0.1c0,0,0,0,0-0.1c0,0,0,0,0,0c0-0.1-0.1-0.2,0-0.2C458.2,107.2,458.4,107.1,458.5,107"/>
		<path clip-path="url(#SVGID_2_)" fill="#C6C6C5" d="M460.5,109c-0.1,0-0.2,0.1-0.3,0.1c-0.1,0.1-0.3,0.2-0.5,0.3
			c0,0-0.1,0.1-0.1,0.1c0,0,0,0-0.1,0c0,0,0,0,0,0c0,0-0.1-0.1-0.1-0.1c0,0,0,0-0.1,0c0,0-0.1-0.1-0.1-0.2l0,0c0,0,0,0,0,0
			c0,0,0,0,0,0c0.1-0.1,0.4-0.4,0.5-0.5c0.2-0.1,0.3-0.3,0.4-0.4c0,0-0.1,0-0.1,0c-0.1,0-0.2,0.1-0.2,0.1c-0.1,0-0.2,0.1-0.3,0.1
			c-0.1,0.1-0.3,0.2-0.4,0.2c0,0,0,0,0,0c0,0,0,0,0,0c0,0-0.1,0-0.1,0c0,0,0,0-0.1,0c0-0.1-0.1-0.1-0.1-0.1c0,0,0,0,0,0
			c0-0.1,0-0.1-0.1-0.1c0,0,0,0,0,0c0,0,0.1,0,0.1-0.1c0,0,0,0,0,0c0.2-0.1,0.5-0.3,0.6-0.4c0,0,0,0,0,0c0.1-0.1,0.2-0.1,0.3-0.2
			c0,0,0,0,0,0c0,0,0,0,0,0c0,0,0.1-0.1,0.1-0.1c0,0,0,0,0,0c0.1,0,0.3-0.1,0.4,0c0,0,0,0,0.1,0c0,0,0.1,0,0.1,0
			c0.1,0.1,0.1,0.2,0.2,0.3c0,0,0,0,0,0c0,0,0,0.1,0,0.1c0,0,0,0,0,0c0,0,0,0,0,0c0,0,0,0,0,0c0,0,0,0,0,0c0,0,0,0,0,0.1
			c-0.1,0.1-0.2,0.2-0.2,0.3c-0.1,0,0,0.1-0.1,0.1c0,0,0,0,0,0c0,0,0,0,0,0c0.1,0,0.3-0.1,0.3-0.2c0.1,0,0.1,0,0.1,0c0,0,0,0,0,0.1
			c0,0,0,0,0,0c0,0,0,0,0,0c0,0,0,0,0,0c0,0,0,0,0,0c0,0,0,0,0,0c0,0,0,0,0,0.1c0,0,0,0.1-0.1,0.1c0,0-0.1,0-0.1,0.1
			c0,0-0.1,0-0.1,0.1l0,0c-0.1,0-0.2,0.1-0.2,0.1C460.6,109,460.6,109,460.5,109"/>
		<path clip-path="url(#SVGID_2_)" fill="#C6C6C5" d="M461.4,110.7C461.4,110.7,461.4,110.8,461.4,110.7c-0.1,0.1-0.1,0.1-0.1,0.1
			c0,0-0.1,0-0.1,0c0,0,0,0,0,0c0-0.1,0-0.2,0-0.3c0,0,0,0,0-0.1c0-0.1,0-0.2-0.1-0.2c-0.1,0-0.2,0-0.3,0.1c0,0-0.1,0-0.1,0
			c0,0,0,0,0,0c0,0,0,0,0,0c0,0,0,0,0,0c-0.1,0-0.1,0.1-0.2,0c0,0-0.1,0-0.1,0.1c0,0,0,0,0,0c-0.1,0-0.2,0.1-0.3,0.1
			c0,0-0.1,0-0.1,0c0,0-0.1,0-0.1,0c0,0,0,0-0.1,0c0,0,0,0,0,0c0,0,0,0,0-0.1c0,0,0,0,0,0c0,0,0,0,0-0.1c0,0,0,0,0,0
			c0,0,0-0.1,0-0.1c0,0,0,0,0,0c0,0,0,0,0,0c0,0,0-0.1,0-0.1c0,0,0,0,0,0c0.1,0,0.3-0.1,0.3-0.1c0.1,0,0.3,0,0.4-0.1
			c0.1,0,0.3,0,0.4-0.1c0,0,0,0,0.1,0c0,0,0.1,0,0.1,0c0,0,0,0,0,0c0,0,0,0,0,0c0,0,0,0,0,0c0,0,0,0,0,0c0-0.1,0-0.1,0-0.2
			c0,0,0,0,0,0c0,0,0,0,0,0c0,0,0,0,0,0c0,0,0,0,0,0c0,0,0,0,0.1,0c0,0,0-0.1,0.1-0.1c0,0,0,0,0,0c0,0,0.1,0,0.1,0c0,0,0,0,0,0
			c0,0,0,0,0,0c0,0,0,0.1,0,0.1c0,0,0,0.1,0,0.1c0,0,0,0.1,0,0.1l0,0.1c0,0,0,0,0,0c0,0.2,0.1,0.4,0.2,0.6c0,0,0.1,0.1,0,0.1
			c0,0,0,0,0,0.1c0,0,0,0,0,0.1C461.5,110.6,461.5,110.7,461.4,110.7C461.4,110.7,461.4,110.7,461.4,110.7"/>
		<path clip-path="url(#SVGID_2_)" fill="#FFFFFF" d="M453.3,108.2l-0.1,1.3l-0.7,1.3l0.2,0.3l-0.5,0.8l0.4,0.3l0,0.7
			c0,0,0.2,0.7,0.3,0.8c0,0,0.9,0.6,0.9,0.6l1.2-0.1l0.4-0.2l0.5-0.1l0.3-0.1c0,0-0.1-0.4-0.1-0.4c0.1,0,0.6,0,0.6,0
			s0.3-0.8,0.3-0.8c0,0,1.2,0.1,1.2,0.1l0.4-0.6l-0.8-0.7c0,0-0.3-0.8-0.3-0.9c0,0,0.1-1.2,0.1-1.2s0.3-1.1,0.3-1.1
			c0.2-0.4,0.5-1.1,0.5-1.2c0.1-0.2-0.2-0.4-0.2-0.4l-1.5,0.9c0,0-0.7,0.5-0.8,0.6C456,108,455,108,455,108l-0.4-0.5
			c-0.1-0.3-0.4-0.7-0.4-0.7l-0.5-0.6c0,0-0.3,0.5-0.3,0.5C453.4,106.7,453.4,107.7,453.3,108.2L453.3,108.2z"/>
		<path clip-path="url(#SVGID_2_)" fill="#EF7E31" d="M457.3,110.4c0-0.4,0-0.9-0.2-1.3c-0.2-0.4-0.5-0.8-0.9-0.9
			c-0.1,0-0.2,0-0.3,0c-0.6,0-1.5,0-1.8,0.6c-0.1,0.2-0.1,0.3-0.1,0.5c0,0.2-0.1,0.3-0.1,0.4c0,0.2,0,0.3,0.1,0.5
			c0.1,0.3,0.4,0.5,0.7,0.7c0.2,0.2,0.3,0.4,0.5,0.5c0.2,0.1,0.5,0.3,0.8,0.3c0.3,0.1,0.7,0.2,1.1,0.2c0.5,0.1,1.3,0.3,0.9-0.5
			c-0.1-0.3-0.2-0.5-0.3-0.8C457.5,110.6,457.4,110.5,457.3,110.4c0-0.3,0-0.5-0.1-0.7c-0.3-0.7-0.7-1.4-1.5-1.5c-0.2,0-0.4,0-0.7,0
			c0,0,0,0-0.1,0"/>
		<path clip-path="url(#SVGID_2_)" fill="#EF7E31" d="M454.1,112.5c0.1,0.1,0.3,0.1,0.5,0.1c0.2,0,0.4,0,0.6,0c0.1,0,0.3,0,0.4,0.1
			c0.2,0.1,0.2,0.5,0.1,0.7c-0.1,0.2-0.4,0.4-0.7,0.5c-0.4,0.1-0.9,0.1-1.3-0.1c-0.4-0.2-0.6-0.6-0.7-1c0-0.1,0-0.2,0-0.4
			c0-0.1,0.1-0.2,0.1-0.3c0-0.1,0-0.2-0.1-0.2c-0.1,0-0.1,0-0.2,0c-0.1,0-0.1-0.3,0-0.4l0.3-0.6c0,0,0-0.1,0-0.1c0,0,0-0.1,0-0.1
			c0-0.1,0.2-0.3,0.3-0.3c0.2,0,0.2,0.1,0.2,0.2C454,111.1,453.5,112.2,454.1,112.5"/>
		<path clip-path="url(#SVGID_2_)" fill="#F9C189" d="M457.4,109.2c0.1-0.1,0.1-0.3,0.2-0.5c0.1-0.2,0.1-0.4,0.2-0.6
			c0.1-0.2,0.1-0.4,0.1-0.5c0-0.1,0-0.3,0-0.4c-0.2,0.2-0.3,0.4-0.4,0.6c-0.2,0.3-0.4,0.5-0.6,0.8c0,0.1-0.1,0.1-0.1,0.2
			c0,0.1,0.1,0.2,0.1,0.3c0.1,0.1,0.2,0.1,0.3,0.2c0,0,0,0,0,0C457.3,109.2,457.4,109.2,457.4,109.2
			C457.4,109.2,457.4,109.2,457.4,109.2"/>
		<path clip-path="url(#SVGID_2_)" fill="#6A471E" d="M456.7,108.9C456.7,108.9,456.7,108.9,456.7,108.9c0.1,0,0.2,0,0.2,0
			c0,0,0.1-0.1,0.1-0.2c0.1-0.1,0.1-0.3,0.2-0.4c0.3-0.4,0.6-0.7,0.8-1.1c0,0,0-0.1,0-0.1c0,0-0.1,0-0.1,0c-0.2,0.1-0.3,0.2-0.5,0.3
			c-0.2,0.1-0.4,0.2-0.6,0.3c-0.2,0.1-0.4,0.3-0.6,0.4c-0.2,0.1-0.5,0-0.8,0.1c-0.1,0-0.3,0-0.4,0.1c-0.1,0-0.1,0.1-0.1,0.1
			c0.1,0,0.3,0,0.4,0c0.2,0,0.4,0,0.5,0c0.1,0,0.1,0,0.2,0c0,0,0.1,0.1,0.1,0.1C456.3,108.6,456.4,108.8,456.7,108.9"/>
		<path clip-path="url(#SVGID_2_)" fill="#F9C189" d="M453.8,106.8c-0.1,0.1-0.1,0.2-0.2,0.3c-0.1,0.7,0.1,1.4,0,2
			c0,0.1,0,0.3,0,0.4c0,0.1,0.1,0.3,0.2,0.4c0.1,0,0.2-0.2,0.2-0.3c0-0.3,0.1-0.7,0.3-0.9c0.2-0.2,0.5-0.3,0.5-0.6
			c0-0.3-0.2-0.6-0.4-0.8C454.3,107.3,453.9,106.8,453.8,106.8"/>
		<path clip-path="url(#SVGID_2_)" fill="#6A471E" d="M454.3,107.9c0.1,0.3,0.4,0.6,0.7,0.6c0-0.1,0-0.1-0.1-0.2l-0.2-0.4
			c-0.1-0.1-0.2-0.2-0.3-0.3c0,0-0.1-0.1-0.1-0.1c-0.1-0.2-0.1-0.4-0.2-0.5c0-0.1-0.2-0.2-0.3-0.1c-0.1,0.1,0.1,0.1,0.1,0.2
			C454,107.3,454.1,107.7,454.3,107.9"/>
		<path clip-path="url(#SVGID_2_)" fill="#CBCBCB" d="M455.9,112C455.9,112,455.9,112,455.9,112c0.3,0,0.5,0,0.7,0.1
			c0.1,0,0.1,0.1,0.2,0.1c0.1,0.5-1.1,0.1-1.2,0.1c-0.1,0-0.3-0.1-0.3-0.2C455.3,112,455.7,112.1,455.9,112"/>
		<path clip-path="url(#SVGID_2_)" fill="#1D1D1B" d="M453.3,112.3c0-0.2,0-0.4,0-0.6c0,0,0-0.1-0.1,0c-0.1,0-0.3,0.1-0.4,0.1
			c0,0,0,0,0.1,0.1c0.1-0.4,0.3-0.7,0.5-1c0,0,0-0.1,0-0.1c-0.1,0-0.2-0.1-0.3-0.1c0,0,0,0.1,0,0.1c0.1,0,0.1-0.1,0.1-0.1
			c0.1-0.1,0.1-0.2,0.1-0.3c0.1-0.3,0.3-0.5,0.4-0.8c0-0.1-0.1-0.1-0.1,0c-0.1,0.2-0.2,0.5-0.3,0.7c0,0.1-0.1,0.2-0.1,0.2
			c0,0-0.1,0.2-0.1,0.2c0,0-0.1,0.1,0,0.1c0.1,0,0.2,0,0.3,0c0,0,0,0,0-0.1c-0.2,0.3-0.4,0.7-0.5,1.1c0,0,0,0.1,0.1,0.1
			c0.1,0,0.3-0.1,0.4-0.1c0,0,0,0-0.1,0C453.2,111.9,453.2,112.1,453.3,112.3C453.2,112.3,453.3,112.4,453.3,112.3"/>
		<path clip-path="url(#SVGID_2_)" fill="#1D1D1B" d="M455,108.3c0.3-0.1,0.6-0.1,0.9-0.1c0.3,0.1,0.5,0.2,0.8,0.4
			c0,0,0.1,0,0.1-0.1c-0.3-0.2-0.5-0.3-0.8-0.4C455.6,108.1,455.3,108.1,455,108.3C454.9,108.3,454.9,108.4,455,108.3"/>
		<path clip-path="url(#SVGID_2_)" fill="#1D1D1B" d="M456.1,108.2c0.7-0.4,1.3-0.8,2-1.2c0,0,0,0-0.1,0c0,0.5-0.2,1-0.4,1.4
			c-0.2,0.5-0.3,0.9-0.2,1.4c0,0.1,0.1,0,0.1,0c-0.1-1,0.5-1.8,0.6-2.8c0,0,0-0.1-0.1,0C457.4,107.4,456.7,107.8,456.1,108.2
			C456,108.2,456.1,108.3,456.1,108.2"/>
		<path clip-path="url(#SVGID_2_)" fill="#1D1D1B" d="M456.3,109.6c0.1,0.5,0.5,1,0.8,1.3c0.4,0.4,0.8,0.8,1.2,1.1
			c0,0,0.1,0,0.1-0.1c-0.4-0.3-0.8-0.6-1.2-1C456.9,110.5,456.5,110.1,456.3,109.6C456.4,109.5,456.3,109.5,456.3,109.6"/>
		<path clip-path="url(#SVGID_2_)" fill="#FFFFFF" d="M455.6,110.4c0.1-0.1,0-0.3,0-0.4c-0.1-0.1-0.2-0.2-0.3-0.2
			c-0.2,0-0.4,0.1-0.4,0.3c0,0.1,0,0.1,0,0.2c0,0.1,0.2,0.2,0.3,0.3C455.3,110.6,455.5,110.6,455.6,110.4
			C455.6,110.4,455.6,110.4,455.6,110.4"/>
		<path clip-path="url(#SVGID_2_)" fill="#1D1D1B" d="M455.7,110.4c0.1-0.2,0-0.4-0.1-0.5c-0.1-0.1-0.3-0.1-0.5-0.1
			c-0.2,0.1-0.3,0.2-0.3,0.4c0,0.2,0.1,0.4,0.3,0.4C455.3,110.7,455.6,110.6,455.7,110.4C455.7,110.4,455.6,110.3,455.7,110.4
			c-0.2,0.1-0.3,0.2-0.5,0.2c-0.1,0-0.3-0.1-0.3-0.3c0-0.1,0-0.3,0.2-0.4c0.1-0.1,0.3-0.1,0.4,0c0.1,0,0.1,0.1,0.1,0.1
			C455.6,110.2,455.6,110.3,455.7,110.4C455.6,110.4,455.6,110.5,455.7,110.4"/>
		<path clip-path="url(#SVGID_2_)" fill="#1D1D1B" d="M455.4,110.2c-0.1,0-0.1,0.1-0.1,0.1c0,0,0,0.1,0,0.1c0,0,0,0,0.1,0
			C455.5,110.4,455.5,110.2,455.4,110.2C455.4,110.1,455.3,110.1,455.4,110.2c-0.1-0.1-0.1,0-0.1,0c0,0,0,0.1,0,0.1
			c0,0,0.1,0.1,0.1,0.1C455.4,110.3,455.4,110.3,455.4,110.2C455.5,110.2,455.4,110.2,455.4,110.2
			C455.4,110.2,455.4,110.2,455.4,110.2C455.4,110.2,455.4,110.2,455.4,110.2c-0.1,0.1-0.1,0.1-0.1,0.2c0,0,0,0,0.1,0c0,0,0,0,0-0.1
			c0,0,0,0,0,0c0,0,0,0,0,0C455.4,110.3,455.4,110.3,455.4,110.2c0,0.1,0,0.1,0,0.1C455.4,110.3,455.4,110.3,455.4,110.2
			C455.4,110.3,455.4,110.3,455.4,110.2C455.4,110.2,455.4,110.3,455.4,110.2C455.4,110.3,455.4,110.2,455.4,110.2
			C455.4,110.3,455.4,110.3,455.4,110.2C455.4,110.2,455.4,110.2,455.4,110.2C455.4,110.2,455.4,110.2,455.4,110.2
			C455.4,110.2,455.4,110.2,455.4,110.2L455.4,110.2C455.4,110.2,455.4,110.2,455.4,110.2C455.4,110.2,455.4,110.2,455.4,110.2
			C455.4,110.2,455.4,110.2,455.4,110.2C455.4,110.2,455.4,110.2,455.4,110.2C455.4,110.2,455.4,110.2,455.4,110.2
			C455.4,110.2,455.4,110.2,455.4,110.2C455.4,110.2,455.4,110.2,455.4,110.2C455.4,110.2,455.4,110.2,455.4,110.2
			C455.4,110.2,455.4,110.2,455.4,110.2C455.4,110.2,455.4,110.2,455.4,110.2C455.3,110.3,455.4,110.2,455.4,110.2
			C455.3,110.2,455.4,110.2,455.4,110.2C455.3,110.2,455.4,110.2,455.4,110.2C455.4,110.2,455.4,110.2,455.4,110.2
			C455.4,110.2,455.4,110.2,455.4,110.2C455.4,110.2,455.4,110.2,455.4,110.2C455.3,110.2,455.3,110.2,455.4,110.2
			C455.4,110.2,455.3,110.2,455.4,110.2C455.3,110.2,455.3,110.2,455.4,110.2C455.3,110.2,455.3,110.2,455.4,110.2
			C455.3,110.2,455.3,110.2,455.4,110.2C455.3,110.2,455.3,110.2,455.4,110.2C455.3,110.2,455.3,110.2,455.4,110.2
			C455.3,110.2,455.3,110.2,455.4,110.2C455.3,110.2,455.3,110.2,455.4,110.2C455.3,110.2,455.3,110.2,455.4,110.2
			C455.3,110.2,455.3,110.2,455.4,110.2C455.3,110.2,455.3,110.2,455.4,110.2C455.3,110.2,455.3,110.2,455.4,110.2
			C455.3,110.2,455.3,110.2,455.4,110.2C455.4,110.2,455.3,110.2,455.4,110.2C455.4,110.2,455.4,110.2,455.4,110.2
			C455.4,110.2,455.4,110.2,455.4,110.2C455.4,110.2,455.4,110.2,455.4,110.2C455.4,110.2,455.4,110.2,455.4,110.2L455.4,110.2
			C455.3,110.2,455.4,110.2,455.4,110.2C455.4,110.2,455.3,110.2,455.4,110.2C455.4,110.2,455.4,110.2,455.4,110.2
			C455.4,110.2,455.4,110.2,455.4,110.2C455.4,110.2,455.4,110.2,455.4,110.2C455.4,110.2,455.4,110.2,455.4,110.2
			C455.4,110.2,455.4,110.2,455.4,110.2C455.4,110.2,455.4,110.2,455.4,110.2C455.4,110.2,455.4,110.2,455.4,110.2
			C455.4,110.2,455.4,110.2,455.4,110.2C455.4,110.2,455.4,110.2,455.4,110.2C455.4,110.2,455.4,110.2,455.4,110.2
			C455.4,110.2,455.4,110.2,455.4,110.2C455.4,110.3,455.4,110.3,455.4,110.2C455.4,110.3,455.4,110.2,455.4,110.2
			c0,0.1,0,0.1,0,0.1c0,0,0,0,0,0c0,0,0,0,0,0c0,0,0,0,0,0c0,0,0,0,0,0c0,0,0,0,0,0c0,0,0,0,0,0c0,0,0,0,0,0c0,0,0,0,0,0
			c0,0,0,0,0,0c0,0,0,0,0,0c0,0,0,0,0,0c0,0,0,0,0.1,0c0,0,0,0,0,0c0,0,0,0,0,0c0,0,0,0,0,0c0,0,0,0,0,0c0,0,0,0,0,0c0,0,0,0,0,0
			c0,0,0,0,0,0c0,0,0,0,0,0c0,0,0,0,0,0c0,0,0,0,0,0c0,0,0,0,0,0c0,0,0,0,0,0c0,0,0,0,0,0c0,0,0,0,0,0c0,0,0,0,0,0
			C455.4,110.3,455.4,110.3,455.4,110.2C455.4,110.3,455.4,110.3,455.4,110.2C455.4,110.3,455.4,110.3,455.4,110.2
			C455.4,110.3,455.4,110.3,455.4,110.2C455.4,110.3,455.4,110.3,455.4,110.2C455.4,110.3,455.4,110.3,455.4,110.2
			C455.4,110.2,455.5,110.2,455.4,110.2C455.4,110.2,455.4,110.2,455.4,110.2"/>
		<path clip-path="url(#SVGID_2_)" fill="#FFFFFF" d="M456.8,109.9c-0.1,0.2,0,0.4,0.2,0.4c0.1,0,0.2,0,0.3-0.1
			c0.1-0.1,0.1-0.2,0.1-0.3c0-0.1-0.1-0.1-0.1-0.1c0,0-0.1,0-0.1,0c0,0-0.1,0-0.1,0C457,109.8,456.9,109.9,456.8,109.9"/>
		<path clip-path="url(#SVGID_2_)" fill="#1D1D1B" d="M456.8,109.9c-0.1,0.1,0,0.3,0,0.4c0.1,0.1,0.2,0.2,0.3,0.1
			c0.1,0,0.3-0.1,0.3-0.3c0-0.2-0.1-0.3-0.2-0.4c-0.1,0-0.2-0.1-0.3,0C456.9,109.8,456.8,109.9,456.8,109.9
			C456.8,109.9,456.8,110,456.8,109.9C456.8,110,456.9,110,456.8,109.9c0.1,0,0.2-0.1,0.2-0.1c0.1,0,0.1,0,0.2,0
			c0.1,0,0.2,0.1,0.2,0.3c0,0.1-0.1,0.2-0.2,0.2c-0.1,0-0.2,0-0.2-0.1C456.8,110.2,456.8,110.1,456.8,109.9
			C456.9,109.9,456.9,109.9,456.8,109.9C456.8,109.9,456.8,109.9,456.8,109.9"/>
		<path clip-path="url(#SVGID_2_)" fill="#1D1D1B" d="M458.2,112.1c-0.2,0.1-0.5,0.1-0.8,0.1c-0.3,0-0.6-0.1-0.8-0.2
			c-0.3-0.1-0.6-0.1-0.8-0.3c-0.3-0.1-0.6-0.3-0.8-0.6c0,0-0.1,0-0.1,0.1c0.3,0.2,0.6,0.5,0.9,0.6c0.3,0.1,0.5,0.2,0.8,0.3
			c0.3,0.1,0.6,0.1,0.9,0.2C457.7,112.3,457.9,112.3,458.2,112.1C458.3,112.2,458.2,112.1,458.2,112.1"/>
		<path clip-path="url(#SVGID_2_)" fill="#1D1D1B" d="M454.6,111.2c0.1,0.2,0.1,0.4,0.2,0.5c0.1,0.1,0.2,0.3,0.4,0.3
			c0.1,0,0.2,0,0.3,0c0.1,0,0.2,0,0.3,0c0.2,0,0.4,0,0.6,0c0.1,0,0.1-0.1,0-0.1c-0.2,0-0.3-0.1-0.5,0c-0.2,0-0.4,0-0.6,0
			C454.9,112,454.8,111.5,454.6,111.2C454.7,111.1,454.6,111.2,454.6,111.2"/>
		<path clip-path="url(#SVGID_2_)" fill="#1D1D1B" d="M453.7,109.7c-0.1-0.5-0.1-1-0.1-1.5c0-0.3,0-0.5,0-0.8c0-0.2,0-0.5,0.1-0.7
			c0,0-0.1,0-0.1,0c0.3,0.3,0.6,0.7,0.8,1.1c0.2,0.3,0.4,0.7,0.8,0.8c0.1,0,0.1-0.1,0-0.1c-0.4-0.1-0.6-0.6-0.8-0.9
			c-0.2-0.4-0.4-0.7-0.7-1c0,0-0.1,0-0.1,0c-0.1,0.2-0.1,0.5-0.1,0.7c0,0.3,0,0.5,0,0.8C453.5,108.7,453.5,109.3,453.7,109.7
			C453.7,109.8,453.7,109.8,453.7,109.7"/>
		<path clip-path="url(#SVGID_2_)" fill="#1D1D1B" d="M454.8,109.6c0.2-0.1,0.3-0.1,0.5-0.1c0.2,0.1,0.3,0.2,0.4,0.3
			c0,0,0.1,0,0.1-0.1c-0.1-0.1-0.3-0.3-0.5-0.3C455.1,109.4,454.9,109.5,454.8,109.6C454.7,109.6,454.7,109.7,454.8,109.6"/>
		<path clip-path="url(#SVGID_2_)" fill="#1D1D1B" d="M455.8,109.8c-0.1-0.1-0.2-0.3-0.3-0.4c-0.1-0.1-0.2-0.2-0.3-0.3c0,0,0,0,0,0
			c-0.2,0.1-0.5,0.3-0.6,0.6c0,0.1,0.1,0.1,0.1,0c0-0.3,0.3-0.4,0.5-0.5h0C455.4,109.3,455.6,109.6,455.8,109.8
			C455.7,109.9,455.8,109.9,455.8,109.8"/>
		<path clip-path="url(#SVGID_2_)" fill="#1D1D1B" d="M454.7,109.4c0,0.1-0.1,0.2-0.1,0.2c0,0,0,0,0,0c0,0,0,0,0.1,0
			c0,0,0.1-0.1,0.1-0.1C454.8,109.5,454.8,109.5,454.7,109.4C454.7,109.5,454.7,109.5,454.7,109.4c0,0.1,0,0.1,0,0.1c0,0,0,0,0,0
			c0,0,0,0,0,0c0,0,0,0,0,0c0,0,0,0,0,0c0,0,0,0,0,0c0,0,0,0,0,0c0,0,0,0,0,0l0.1,0c0,0,0,0,0-0.1c0,0,0,0,0,0c0,0,0,0,0,0
			c0,0,0,0,0,0C454.7,109.5,454.7,109.5,454.7,109.4C454.8,109.5,454.8,109.5,454.7,109.4C454.8,109.5,454.8,109.5,454.7,109.4
			C454.8,109.5,454.8,109.5,454.7,109.4C454.8,109.5,454.8,109.5,454.7,109.4C454.8,109.4,454.8,109.4,454.7,109.4
			C454.7,109.4,454.7,109.4,454.7,109.4"/>
		<path clip-path="url(#SVGID_2_)" fill="#1D1D1B" d="M454.9,109.2c-0.1,0.1-0.1,0.2-0.2,0.3c0,0,0,0.1,0.1,0
			c0.1-0.1,0.1-0.1,0.1-0.2c0-0.1-0.1-0.1-0.1,0c0,0.1-0.1,0.1-0.1,0.1c0,0,0,0,0.1,0C454.9,109.5,454.9,109.4,454.9,109.2
			C455,109.2,455,109.2,454.9,109.2C454.9,109.2,454.9,109.2,454.9,109.2"/>
		<path clip-path="url(#SVGID_2_)" fill="#1D1D1B" d="M454.9,109.3c0,0,0,0.1-0.1,0.1c0,0,0,0,0,0c0,0,0,0,0,0c0,0,0,0,0.1,0
			C455,109.4,455,109.4,454.9,109.3C455,109.3,455,109.3,454.9,109.3C455,109.3,454.9,109.3,454.9,109.3l-0.1,0.1c0,0,0.1,0,0.1,0
			C455,109.4,455,109.3,454.9,109.3C455,109.3,455,109.3,454.9,109.3C455,109.3,455,109.3,454.9,109.3
			C455,109.2,455,109.2,454.9,109.3C454.9,109.3,454.9,109.3,454.9,109.3"/>
		<path clip-path="url(#SVGID_2_)" fill="#1D1D1B" d="M455,109.2c-0.1,0.1-0.1,0.2-0.2,0.2c0,0,0,0,0,0.1c0,0,0,0,0.1,0
			c0,0,0,0,0.1-0.1c0,0,0,0,0-0.1c0,0,0,0-0.1,0c0,0,0,0-0.1,0.1c0,0,0,0,0.1,0.1c0,0,0-0.1,0.1-0.1c0,0,0,0,0-0.1
			C455,109.3,455,109.3,455,109.2C455,109.3,455,109.3,455,109.2C455,109.3,455,109.3,455,109.2C455,109.3,455,109.3,455,109.2
			C455,109.3,455,109.3,455,109.2C455,109.3,455,109.2,455,109.2C455,109.2,455,109.2,455,109.2"/>
		<path clip-path="url(#SVGID_2_)" fill="#1D1D1B" d="M455.1,109.2c-0.1,0-0.1,0.1-0.1,0.2c0,0,0,0,0,0.1c0,0,0,0,0,0c0,0,0,0,0,0
			c0,0,0.1-0.1,0.1-0.1C455.1,109.3,455.1,109.3,455.1,109.2C455.1,109.3,455.1,109.3,455.1,109.2c-0.1,0.1-0.1,0.1-0.1,0.1
			c0,0,0,0,0,0c0,0,0,0,0,0c0,0,0,0,0,0c0,0,0,0,0,0c0,0,0,0,0,0c0,0,0,0,0,0c0,0,0,0,0,0c0,0,0,0,0,0l0.1,0.1c0,0,0-0.1,0.1-0.1
			c0,0,0,0,0,0c0,0,0,0,0,0c0,0,0,0,0,0C455.1,109.3,455.1,109.3,455.1,109.2C455.1,109.3,455.2,109.3,455.1,109.2
			C455.2,109.3,455.2,109.2,455.1,109.2C455.2,109.2,455.1,109.2,455.1,109.2"/>
		<path clip-path="url(#SVGID_2_)" fill="#1D1D1B" d="M455.2,109.2c0,0-0.1,0.1-0.1,0.1c0,0,0,0,0,0c0,0,0,0,0,0c0,0,0,0,0,0
			c0,0,0,0,0.1,0c0,0,0,0,0,0C455.2,109.3,455.2,109.3,455.2,109.2C455.2,109.3,455.2,109.3,455.2,109.2
			C455.2,109.3,455.1,109.3,455.2,109.2C455.1,109.3,455.1,109.3,455.2,109.2C455.1,109.3,455.1,109.3,455.2,109.2
			C455.1,109.3,455.1,109.3,455.2,109.2C455.1,109.3,455.1,109.3,455.2,109.2C455.1,109.3,455.1,109.3,455.2,109.2
			C455.1,109.3,455.1,109.3,455.2,109.2C455.1,109.3,455.1,109.3,455.2,109.2C455.1,109.3,455.1,109.3,455.2,109.2
			C455.1,109.3,455.1,109.3,455.2,109.2C455.1,109.3,455.1,109.3,455.2,109.2c0,0.1,0,0.1,0,0.2
			C455.2,109.3,455.2,109.3,455.2,109.2C455.2,109.3,455.2,109.2,455.2,109.2C455.2,109.2,455.2,109.2,455.2,109.2
			C455.2,109.2,455.2,109.2,455.2,109.2"/>
		<path clip-path="url(#SVGID_2_)" fill="#1D1D1B" d="M455.2,109.2c0,0.1-0.1,0.1-0.1,0.2c0,0,0,0,0,0.1c0,0,0,0,0.1,0
			c0,0,0,0,0.1,0c0,0,0,0,0,0c0,0,0,0,0,0c0,0,0,0,0,0c0,0,0,0,0,0c0,0,0,0,0,0C455.3,109.3,455.3,109.3,455.2,109.2
			C455.2,109.3,455.2,109.3,455.2,109.2c0,0.1-0.1,0.1-0.1,0.2c0,0,0,0,0.1,0.1C455.2,109.4,455.2,109.3,455.2,109.2
			C455.3,109.2,455.3,109.2,455.2,109.2C455.2,109.2,455.2,109.2,455.2,109.2"/>
		<path clip-path="url(#SVGID_2_)" fill="#1D1D1B" d="M455.2,109.3c0,0,0,0.1,0,0.1c0,0,0,0,0,0.1c0,0,0,0,0,0c0,0,0,0,0,0l0.1-0.1
			c0,0,0,0,0,0c0,0,0,0,0,0c0,0,0,0,0,0c0,0,0,0,0,0C455.3,109.3,455.3,109.3,455.2,109.3l0,0.1c0,0,0,0,0.1,0
			C455.2,109.4,455.2,109.4,455.2,109.3C455.3,109.3,455.3,109.3,455.2,109.3C455.2,109.3,455.2,109.3,455.2,109.3"/>
		<path clip-path="url(#SVGID_2_)" fill="#1D1D1B" d="M455.3,109.3C455.3,109.4,455.3,109.4,455.3,109.3c-0.1,0.1-0.1,0.1,0,0.2
			c0,0,0,0,0.1,0c0,0,0.1,0,0.1-0.1C455.4,109.4,455.3,109.4,455.3,109.3C455.3,109.4,455.3,109.4,455.3,109.3
			C455.3,109.4,455.3,109.4,455.3,109.3C455.3,109.4,455.3,109.4,455.3,109.3C455.3,109.4,455.3,109.4,455.3,109.3
			c0,0.1,0,0.1,0,0.1c0,0,0,0.1,0,0.1c0,0,0.1,0,0.1,0c0,0,0,0,0,0c0,0,0,0,0,0c0,0,0,0,0,0c0,0,0,0,0,0c0,0,0,0,0,0c0,0,0,0,0,0
			c0,0,0,0,0,0c0,0,0,0,0,0c0,0,0,0,0,0c0,0,0,0,0,0c0,0,0,0,0,0c0,0.1,0.1,0.1,0.1,0.1c0,0,0.1,0,0.1,0c0,0,0,0,0-0.1c0,0,0,0,0,0
			c0,0,0,0,0,0c0,0,0,0,0,0c0,0,0,0,0,0c0,0,0,0,0,0c0,0,0,0,0,0c0,0,0,0,0,0c0,0,0,0,0,0c0,0,0,0,0,0c0,0,0,0,0,0c0,0,0,0,0,0
			c0,0,0,0,0,0C455.4,109.4,455.4,109.4,455.3,109.3c0,0.1,0,0.1,0,0.1c0,0,0,0,0,0c0,0,0,0,0,0c0,0,0,0,0,0c0,0,0,0,0,0
			c0,0,0,0,0,0.1c0,0,0-0.1,0.1-0.1C455.4,109.4,455.4,109.3,455.3,109.3C455.3,109.4,455.3,109.4,455.3,109.3c0,0.1,0,0.1,0,0.1
			C455.3,109.5,455.3,109.4,455.3,109.3C455.4,109.4,455.4,109.3,455.3,109.3C455.3,109.3,455.3,109.3,455.3,109.3"/>
		<path clip-path="url(#SVGID_2_)" fill="#1D1D1B" d="M456.9,109.6c0-0.1,0.1-0.1,0.2-0.1c0.1,0,0.1,0,0.1,0.1c0,0,0,0,0.1,0
			c0,0,0,0,0-0.1c0-0.1-0.1-0.2-0.2-0.2C457,109.4,456.9,109.5,456.9,109.6C456.8,109.6,456.8,109.6,456.9,109.6
			C456.9,109.7,456.9,109.6,456.9,109.6"/>
		<path clip-path="url(#SVGID_2_)" fill="#1D1D1B" d="M456.9,109.7c0.1-0.1,0.2-0.2,0.3-0.2c0,0,0,0,0,0c0,0,0,0,0,0
			C457.1,109.5,456.9,109.6,456.9,109.7C456.8,109.7,456.9,109.8,456.9,109.7"/>
		<path clip-path="url(#SVGID_2_)" fill="#1D1D1B" d="M453.6,113.3c0.4,0.2,0.6,0.6,1.1,0.6c0.2,0,0.4-0.1,0.5-0.2
			c0.2-0.1,0.5-0.2,0.7-0.2c0,0,0.1,0,0-0.1c0-0.1,0-0.2,0-0.3c0,0,0,0,0,0c0.3-0.1,0.5-0.1,0.8-0.2c0,0,0,0,0,0
			c0-0.3,0.1-0.5,0.2-0.8c0-0.1-0.1-0.1-0.1,0c-0.1,0.3-0.1,0.6-0.2,0.8c0,0,0,0,0,0c-0.3,0-0.5,0.1-0.8,0.2c0,0,0,0,0,0
			c0,0.1,0,0.2,0,0.4c0,0,0,0,0-0.1c-0.2,0-0.4,0.1-0.6,0.1c-0.2,0.1-0.4,0.2-0.6,0.2C454.3,113.9,454,113.4,453.6,113.3
			C453.6,113.2,453.5,113.3,453.6,113.3"/>
		<path clip-path="url(#SVGID_2_)" fill="#1D1D1B" d="M457.7,107.5c-0.2,0.3-0.4,0.6-0.6,1c-0.1,0.1-0.2,0.3-0.1,0.4
			c0,0.1,0.2,0.1,0.2,0.2c0,0.1,0.1,0,0.1,0c0-0.1-0.1-0.1-0.2-0.2c-0.1-0.1-0.1-0.1,0-0.2c0-0.1,0.1-0.2,0.1-0.2
			C457.3,108.1,457.5,107.8,457.7,107.5C457.8,107.5,457.7,107.5,457.7,107.5"/>
		<path clip-path="url(#SVGID_2_)" fill="#1D1D1B" d="M458.3,111.9c-0.1,0.1-0.1,0.1-0.1,0.2c0,0,0,0,0,0c0,0,0,0,0,0c0,0,0,0,0,0
			c0,0,0.1-0.1,0.1-0.1C458.3,112,458.3,112,458.3,111.9C458.3,112,458.3,112,458.3,111.9C458.2,112,458.2,112,458.3,111.9
			C458.2,112,458.2,112,458.3,111.9c0,0.1,0,0.1,0,0.1c0,0,0,0,0,0c0,0,0,0,0,0c0,0,0,0,0,0c0,0,0,0,0,0c0,0,0,0,0,0
			c0,0,0,0,0.1,0.1c0,0,0,0,0,0l0,0c0,0,0,0,0,0c0,0,0,0,0,0c0,0,0,0,0,0c0,0,0,0,0,0c0,0,0,0,0,0c0,0,0,0,0,0c0,0,0,0,0,0
			C458.3,112,458.3,112,458.3,111.9C458.3,112,458.3,111.9,458.3,111.9C458.3,111.9,458.3,111.9,458.3,111.9"/>
		<path clip-path="url(#SVGID_2_)" fill="#1D1D1B" d="M458.3,112C458.3,112,458.3,112,458.3,112c-0.1,0.1-0.1,0.1-0.1,0.1
			c0,0,0,0,0,0c0,0,0,0,0,0c0,0,0,0-0.1,0c0,0,0,0,0,0c0,0,0,0,0,0c0,0,0,0,0,0c0,0,0,0,0,0C458.4,112,458.3,112,458.3,112
			C458.3,112,458.3,112,458.3,112c0,0.1,0,0.1,0,0.1C458.3,112.1,458.4,112,458.3,112C458.4,112,458.4,111.9,458.3,112
			C458.3,111.9,458.3,111.9,458.3,112"/>
		<path clip-path="url(#SVGID_2_)" fill="#1D1D1B" d="M458.2,111.9c0.1,0.1,0.1,0.1,0.2,0.2c0,0,0.1,0,0.1,0c0,0,0,0,0-0.1
			c0,0,0,0,0,0c0,0,0,0,0,0c0,0,0,0,0,0c0,0,0,0,0,0c0,0,0,0-0.1,0c0,0,0,0,0,0c0,0,0,0,0,0c0,0,0,0,0,0c0,0,0,0,0,0
			C458.3,111.9,458.3,111.9,458.2,111.9C458.3,111.9,458.3,111.9,458.2,111.9C458.3,111.9,458.3,111.9,458.2,111.9
			C458.3,111.9,458.3,111.9,458.2,111.9C458.3,111.8,458.3,111.8,458.2,111.9C458.2,111.9,458.2,111.9,458.2,111.9"/>
		<path clip-path="url(#SVGID_2_)" fill="#1D1D1B" d="M458.3,112C458.3,112,458.3,112,458.3,112L458.3,112
			C458.4,112,458.4,112,458.3,112C458.4,112.1,458.4,112.1,458.3,112C458.4,112.1,458.4,112.1,458.3,112c0.1,0.1,0.1,0.1,0.1,0.1
			c0,0,0,0,0,0c0,0,0,0,0-0.1C458.5,112,458.4,111.9,458.3,112C458.4,111.9,458.3,111.9,458.3,112
			C458.3,111.9,458.3,111.9,458.3,112C458.3,111.9,458.3,112,458.3,112C458.3,112,458.3,112,458.3,112"/>
		<path clip-path="url(#SVGID_2_)" fill="#6A471E" d="M454,109c0,0.1,0,0.2,0.1,0.2c0,0,0,0,0,0c0,0,0,0,0,0c0.1-0.2,0.1-0.4,0-0.6
			c-0.1-0.3-0.2-0.5-0.3-0.8c0,0,0-0.1-0.1-0.1c-0.1,0.1,0,0.5,0,0.7C453.9,108.6,453.9,108.8,454,109"/>
		<path clip-path="url(#SVGID_2_)" fill="#1D1D1B" d="M454.1,109.2C454.1,109.2,454.1,109.2,454.1,109.2
			C454,109.2,454,109.1,454.1,109.2c-0.1-0.1-0.1-0.2-0.1-0.3c0-0.1,0-0.3-0.1-0.4c0-0.3-0.1-0.6-0.1-0.8c0-0.1-0.1,0-0.1,0
			c0,0.4,0.1,0.8,0.1,1.2c0,0.1,0,0.2,0,0.3c0,0.1,0,0.1,0.1,0.2c0,0,0.1,0,0.1,0C454.2,109.2,454.2,109.2,454.1,109.2
			C454.2,109.1,454.1,109.1,454.1,109.2"/>
		<path clip-path="url(#SVGID_2_)" fill="#1D1D1B" d="M457.2,110.1C457.1,110.1,457.1,110.1,457.2,110.1c-0.1,0.1-0.1,0.1-0.1,0.1
			c0,0,0,0,0,0c0,0,0,0,0,0c0,0,0,0,0,0C457.2,110.2,457.2,110.2,457.2,110.1C457.2,110.1,457.2,110.1,457.2,110.1
			C457.2,110.1,457.2,110.1,457.2,110.1C457.2,110,457.2,110,457.2,110.1C457.2,110,457.2,110,457.2,110.1
			C457.2,110,457.1,110,457.2,110.1C457.1,110.1,457.1,110.1,457.2,110.1C457.1,110.1,457.1,110.2,457.2,110.1c0,0.1,0,0.1,0,0.1
			C457.2,110.2,457.2,110.2,457.2,110.1C457.2,110.1,457.2,110.1,457.2,110.1C457.2,110.1,457.2,110.1,457.2,110.1
			C457.2,110.1,457.2,110.1,457.2,110.1C457.2,110.1,457.2,110.1,457.2,110.1C457.2,110.1,457.2,110.1,457.2,110.1
			C457.2,110.1,457.2,110.1,457.2,110.1C457.2,110.1,457.2,110.1,457.2,110.1C457.2,110.1,457.2,110.1,457.2,110.1
			C457.2,110.1,457.2,110.1,457.2,110.1C457.2,110.1,457.2,110.1,457.2,110.1C457.2,110.1,457.2,110.1,457.2,110.1
			C457.2,110.1,457.2,110.1,457.2,110.1C457.2,110.1,457.2,110.1,457.2,110.1C457.2,110.1,457.2,110.1,457.2,110.1L457.2,110.1
			C457.2,110.1,457.2,110.1,457.2,110.1C457.2,110.1,457.2,110.1,457.2,110.1C457.2,110.1,457.2,110.1,457.2,110.1
			C457.2,110.1,457.2,110.1,457.2,110.1C457.2,110.1,457.2,110.1,457.2,110.1L457.2,110.1C457.2,110.1,457.2,110.1,457.2,110.1
			C457.2,110.1,457.2,110.1,457.2,110.1C457.2,110.1,457.2,110.1,457.2,110.1C457.2,110.1,457.2,110.1,457.2,110.1
			C457.2,110.1,457.2,110.1,457.2,110.1C457.2,110.1,457.2,110.1,457.2,110.1C457.2,110.1,457.2,110.1,457.2,110.1
			C457.2,110.1,457.2,110.1,457.2,110.1C457.2,110.1,457.2,110.1,457.2,110.1L457.2,110.1C457.2,110.1,457.2,110.1,457.2,110.1
			C457.2,110.1,457.2,110.1,457.2,110.1C457.2,110.1,457.2,110.1,457.2,110.1C457.2,110.1,457.1,110.1,457.2,110.1
			C457.1,110.1,457.1,110.1,457.2,110.1C457.1,110.1,457.1,110.1,457.2,110.1C457.1,110.1,457.1,110.1,457.2,110.1
			C457.1,110.1,457.1,110.1,457.2,110.1C457.1,110.1,457.1,110.1,457.2,110.1C457.1,110.1,457.1,110.1,457.2,110.1
			C457.1,110.1,457.1,110.1,457.2,110.1C457.1,110.1,457.1,110.1,457.2,110.1C457.1,110.1,457.1,110.1,457.2,110.1
			C457.1,110.1,457.1,110.1,457.2,110.1C457.1,110.1,457.1,110.1,457.2,110.1C457.1,110.1,457.1,110.1,457.2,110.1
			C457.1,110.1,457.1,110.1,457.2,110.1C457.1,110.1,457.1,110.1,457.2,110.1C457.1,110.1,457.1,110.1,457.2,110.1L457.2,110.1
			C457.1,110.1,457.1,110.1,457.2,110.1c0,0.1,0,0.1,0,0.1c0,0,0,0,0,0c0,0,0,0,0,0C457.2,110.2,457.2,110.2,457.2,110.1
			c0,0.1,0,0.1,0,0.1C457.2,110.2,457.2,110.2,457.2,110.1C457.2,110.2,457.2,110.2,457.2,110.1
			C457.2,110.2,457.2,110.2,457.2,110.1C457.2,110.1,457.2,110.1,457.2,110.1C457.2,110.1,457.2,110.1,457.2,110.1
			C457.2,110.1,457.2,110.1,457.2,110.1C457.2,110.1,457.2,110.1,457.2,110.1"/>
		<path clip-path="url(#SVGID_2_)" fill="#1D1D1B" d="M457.2,110C457.2,110,457.2,110,457.2,110C457.2,110,457.2,110,457.2,110
			C457.2,110,457.2,110,457.2,110C457.2,110,457.2,110,457.2,110C457.2,110,457.1,110,457.2,110C457.1,110,457.1,110,457.2,110
			c-0.1,0-0.1,0-0.1,0c0,0,0,0,0,0c0,0,0,0,0,0c0,0,0,0,0,0c0,0,0,0,0,0c0,0,0,0,0,0C457.1,110.1,457.1,110.1,457.2,110
			C457.1,110.1,457.1,110.1,457.2,110C457.2,110.1,457.2,110.1,457.2,110C457.2,110.1,457.2,110.1,457.2,110
			C457.2,110.1,457.2,110.1,457.2,110C457.2,110.1,457.2,110.1,457.2,110C457.2,110,457.2,110,457.2,110L457.2,110
			C457.1,110,457.1,110,457.2,110C457.1,110,457.1,110,457.2,110C457.1,110,457.1,110,457.2,110C457.1,110,457.1,110,457.2,110
			C457.1,110,457.1,110,457.2,110C457.1,110,457.1,110,457.2,110C457.1,110,457.2,110,457.2,110C457.2,110,457.2,110,457.2,110
			C457.2,110,457.2,110,457.2,110C457.2,110,457.2,110,457.2,110C457.2,110,457.2,110,457.2,110C457.2,110,457.2,110,457.2,110
			C457.2,110,457.2,110,457.2,110C457.2,110,457.2,110,457.2,110C457.2,110,457.2,110,457.2,110C457.2,110.1,457.2,110,457.2,110
			C457.2,110.1,457.2,110.1,457.2,110C457.2,110.1,457.2,110.1,457.2,110C457.2,110.1,457.2,110.1,457.2,110
			C457.2,110.1,457.2,110.1,457.2,110C457.2,110.1,457.2,110.1,457.2,110C457.2,110.1,457.2,110.1,457.2,110
			C457.1,110.1,457.1,110.1,457.2,110C457.1,110.1,457.1,110.1,457.2,110C457.1,110.1,457.1,110.1,457.2,110
			C457.1,110.1,457.1,110.1,457.2,110C457.1,110.1,457.1,110.1,457.2,110C457.1,110.1,457.1,110.1,457.2,110
			C457.1,110.1,457.1,110.1,457.2,110C457.1,110.1,457.1,110.1,457.2,110C457.1,110.1,457.1,110.1,457.2,110
			C457.1,110.1,457.1,110.1,457.2,110C457.1,110.1,457.1,110.1,457.2,110C457.1,110.1,457.1,110.1,457.2,110
			C457.1,110.1,457.1,110.1,457.2,110C457.1,110.1,457.1,110.1,457.2,110C457.1,110.1,457.1,110.1,457.2,110
			C457.2,110.1,457.2,110.1,457.2,110C457.2,110.1,457.2,110.1,457.2,110C457.2,110.1,457.2,110.1,457.2,110
			C457.2,110.1,457.2,110.1,457.2,110C457.2,110.1,457.2,110.1,457.2,110C457.2,110,457.2,110,457.2,110"/>
		<path clip-path="url(#SVGID_2_)" fill="#1D1D1B" d="M457.1,110.2C457.1,110.2,457.1,110.2,457.1,110.2
			C457.1,110.2,457.1,110.1,457.1,110.2L457.1,110.2C457.1,110.1,457.1,110.1,457.1,110.2C457.1,110.1,457.1,110.1,457.1,110.2
			C457.1,110.1,457.1,110.1,457.1,110.2L457.1,110.2C457.1,110.1,457.1,110.1,457.1,110.2C457.1,110.1,457.1,110.1,457.1,110.2
			C457.1,110.1,457.1,110.1,457.1,110.2C457.1,110.1,457.1,110.1,457.1,110.2C457.1,110.1,457.1,110.1,457.1,110.2
			C457.1,110.1,457.1,110.1,457.1,110.2C457.1,110.1,457.1,110.1,457.1,110.2C457.1,110.1,457.1,110.1,457.1,110.2
			C457.1,110.1,457.1,110.1,457.1,110.2C457.1,110.1,457.1,110.1,457.1,110.2C457.1,110.1,457.1,110.1,457.1,110.2
			C457.1,110.1,457.1,110.1,457.1,110.2C457.1,110.1,457.1,110.1,457.1,110.2C457.1,110.1,457.1,110.1,457.1,110.2
			C457.1,110.1,457.1,110.1,457.1,110.2C457.1,110.1,457.1,110.1,457.1,110.2C457.1,110.1,457.1,110.1,457.1,110.2
			C457.1,110.1,457.1,110.1,457.1,110.2L457.1,110.2C457.2,110.1,457.2,110.1,457.1,110.2C457.2,110.1,457.2,110.1,457.1,110.2
			C457.2,110.1,457.2,110.1,457.1,110.2C457.2,110.1,457.2,110.1,457.1,110.2C457.2,110.1,457.2,110.1,457.1,110.2
			C457.2,110.1,457.2,110.1,457.1,110.2C457.2,110.1,457.2,110.1,457.1,110.2C457.2,110.1,457.2,110.1,457.1,110.2
			c0.1-0.1,0.1-0.1,0.1-0.1c0,0,0,0,0,0c0,0,0,0,0,0c0,0,0,0,0,0c0,0,0,0,0,0c0,0,0,0,0,0c0,0,0,0,0,0c0,0,0,0,0,0
			C457.1,110.1,457.1,110.1,457.1,110.2C457.1,110.1,457.1,110.1,457.1,110.2C457.1,110.1,457.1,110.1,457.1,110.2
			C457.1,110.1,457.1,110.1,457.1,110.2C457.1,110.1,457.1,110.1,457.1,110.2C457.1,110.1,457.1,110.1,457.1,110.2
			C457.1,110.1,457.1,110.1,457.1,110.2C457.1,110.1,457.1,110.1,457.1,110.2C457.1,110.1,457.1,110.1,457.1,110.2
			C457.1,110.1,457.1,110.1,457.1,110.2C457.1,110.1,457.1,110.1,457.1,110.2C457.1,110.1,457.1,110.1,457.1,110.2
			C457.1,110.1,457.1,110.2,457.1,110.2C457.1,110.2,457.1,110.2,457.1,110.2C457.2,110.2,457.2,110.2,457.1,110.2
			C457.2,110.2,457.2,110.2,457.1,110.2C457.2,110.2,457.2,110.1,457.1,110.2C457.2,110.1,457.2,110.1,457.1,110.2L457.1,110.2
			C457.2,110.1,457.2,110.1,457.1,110.2C457.1,110.1,457.1,110.1,457.1,110.2C457.1,110.1,457.1,110.1,457.1,110.2
			C457.1,110.1,457.1,110.1,457.1,110.2C457.1,110.1,457.1,110.1,457.1,110.2C457.1,110.1,457.1,110.1,457.1,110.2
			C457.1,110.1,457.1,110.1,457.1,110.2C457.1,110.1,457.1,110.2,457.1,110.2C457.1,110.2,457.1,110.2,457.1,110.2"/>
		<path clip-path="url(#SVGID_2_)" fill="#1D1D1B" d="M457.1,110.1C457.1,110.1,457.1,110.1,457.1,110.1
			C457.1,110.1,457.1,110.1,457.1,110.1C457.1,110.1,457.1,110.1,457.1,110.1C457.1,110.1,457.1,110.1,457.1,110.1
			C457.1,110.1,457.1,110.1,457.1,110.1C457.1,110.1,457.1,110.1,457.1,110.1C457.1,110.1,457.1,110.1,457.1,110.1
			C457.1,110.1,457.1,110.1,457.1,110.1C457.1,110.1,457.1,110.1,457.1,110.1C457.1,110.1,457.1,110.1,457.1,110.1
			C457.1,110.1,457.1,110.1,457.1,110.1C457.1,110.1,457.1,110.1,457.1,110.1C457.1,110.1,457.1,110.1,457.1,110.1
			C457.1,110.1,457.1,110.1,457.1,110.1C457.2,110.1,457.2,110.1,457.1,110.1L457.1,110.1C457.2,110.1,457.2,110.1,457.1,110.1
			L457.1,110.1C457.2,110.1,457.2,110.1,457.1,110.1C457.2,110.1,457.2,110.1,457.1,110.1C457.2,110.1,457.2,110.1,457.1,110.1
			C457.2,110.1,457.2,110.1,457.1,110.1C457.2,110.1,457.2,110.1,457.1,110.1C457.2,110.1,457.2,110.1,457.1,110.1
			C457.2,110.1,457.2,110.1,457.1,110.1C457.2,110.1,457.2,110.1,457.1,110.1C457.2,110.1,457.2,110,457.1,110.1
			C457.2,110,457.2,110,457.1,110.1C457.2,110,457.2,110,457.1,110.1C457.2,110,457.2,110,457.1,110.1
			C457.2,110,457.2,110,457.1,110.1C457.2,110,457.2,110,457.1,110.1C457.2,110,457.2,110,457.1,110.1
			C457.2,110,457.1,110,457.1,110.1C457.1,110.1,457.1,110.1,457.1,110.1C457.1,110.1,457.1,110.1,457.1,110.1
			C457.1,110.1,457.1,110.1,457.1,110.1"/>
		<path clip-path="url(#SVGID_2_)" fill="#1D1D1B" d="M458.1,112C458.1,112,458.1,112,458.1,112C458.1,112,458.1,112,458.1,112
			C458.1,112,458.1,112,458.1,112C458.1,112,458.1,112,458.1,112c-0.1,0.1-0.1,0.1-0.2,0.2c0,0,0,0,0,0c0,0,0,0,0,0c0,0,0.1,0,0.1,0
			c0,0,0,0,0.1,0L458.1,112c-0.1,0.1-0.1,0.1-0.1,0.1c0,0,0,0,0,0.1c0,0,0,0,0,0c0,0,0,0,0,0c0,0,0,0-0.1-0.1c0,0,0,0,0,0
			c0,0,0,0.1,0,0.1c0,0,0.1,0,0.1,0c0,0,0,0,0,0c0,0,0,0,0,0c0,0,0,0,0,0c0,0,0,0,0,0c0,0,0,0,0,0c0,0,0,0,0,0c0,0,0,0,0,0
			c0,0,0,0,0,0c0,0,0,0,0,0c0,0,0,0,0,0c0,0,0,0,0,0c0,0,0,0,0,0c0,0,0.1-0.1,0.1-0.1c0,0,0,0,0-0.1c0,0,0,0,0,0
			C458.2,111.9,458.2,111.9,458.1,112C458.2,111.9,458.1,111.9,458.1,112C458.2,112,458.2,112,458.1,112c0.1,0,0.1,0,0.1,0
			C458.3,112,458.2,111.9,458.1,112C458.2,111.9,458.1,112,458.1,112c-0.1,0.1-0.1,0.1-0.1,0.2c0,0,0,0,0,0c0,0,0,0,0,0c0,0,0,0,0,0
			c0,0,0,0,0,0c0,0,0,0,0-0.1c0,0,0,0,0,0c0,0,0,0,0,0c0,0,0,0,0,0c0,0,0,0,0,0c0,0,0,0,0,0.1c0,0,0,0,0,0c0,0,0,0,0,0c0,0,0,0,0,0
			c0,0,0,0,0,0c0,0,0,0.1,0,0.1c0,0,0,0,0.1-0.1C458.2,112.1,458.2,112.1,458.1,112C458.2,112,458.1,112,458.1,112
			c0,0.1-0.1,0.1-0.1,0.1c0,0,0,0,0,0c0,0,0,0,0,0c0,0,0,0,0,0c0,0,0,0,0,0c0,0,0,0.1,0,0.1C458.1,112.1,458.2,112.1,458.1,112
			C458.2,112,458.2,111.9,458.1,112C458.2,111.9,458.2,111.9,458.1,112"/>
		<path clip-path="url(#SVGID_2_)" fill="#1D1D1B" d="M458.2,112.2c0.1,0,0.2-0.1,0.3-0.1c0,0,0,0,0-0.1c0,0,0,0-0.1,0c0,0,0,0,0,0
			c0,0,0,0,0,0c0,0,0,0,0,0c0,0,0,0,0,0c0,0,0,0-0.1,0c0,0,0,0,0,0c0,0,0,0,0,0c0,0,0,0,0,0C458.2,112.1,458.2,112.1,458.2,112.2
			C458.1,112.1,458.1,112.2,458.2,112.2C458.1,112.2,458.2,112.2,458.2,112.2"/>
		<path clip-path="url(#SVGID_2_)" fill="#1D1D1B" d="M454.9,109.4C455,109.4,455,109.4,454.9,109.4
			C454.9,109.4,455,109.5,454.9,109.4c0.1,0,0.2,0,0.2-0.1c0,0,0-0.1-0.1-0.1C455.1,109.3,455,109.3,454.9,109.4
			c0.1-0.1,0.1-0.1,0.1,0c0.1-0.1,0.1-0.1,0.1-0.2c0,0,0-0.1-0.1,0c-0.1,0-0.2,0.1-0.2,0.1c0,0-0.1,0.1-0.2,0.1c0,0,0,0,0,0.1
			c0,0.1,0.1,0,0.1,0C454.9,109.4,455,109.4,454.9,109.4c0.1-0.1,0.2-0.1,0.2-0.1c0.1,0,0.1,0.1,0.1,0.1c0,0,0.1,0,0.1-0.1
			c0-0.1-0.1-0.2-0.2-0.2c0,0,0,0,0,0c0,0,0,0,0,0.1c0,0,0,0,0,0c0,0,0.1,0,0.1-0.1c0,0,0,0,0,0c0,0,0,0.1,0,0.1
			c0.1,0,0.1,0.1,0.1,0.1l0.1-0.1c0,0-0.1-0.1-0.1-0.1c0,0-0.1,0-0.2,0C455,109.2,454.9,109.3,454.9,109.4c-0.1-0.1-0.1,0-0.1,0
			c0,0,0,0,0,0c0,0,0,0,0,0c0,0,0,0,0,0.1C454.8,109.5,454.9,109.4,454.9,109.4c0-0.1,0.1-0.2,0.2-0.2c0,0,0,0-0.1,0
			C455.1,109.2,455,109.3,454.9,109.4c0-0.1,0.1,0,0.1,0c0,0,0,0,0.1,0c0,0,0,0-0.1-0.1C455,109.3,455,109.4,454.9,109.4
			C455,109.4,455,109.4,454.9,109.4C455,109.4,455,109.4,454.9,109.4C455,109.4,455,109.4,454.9,109.4
			C455,109.4,454.9,109.4,454.9,109.4"/>
		<path clip-path="url(#SVGID_2_)" fill="#1D1D1B" d="M455.2,109.2C455.2,109.2,455.2,109.2,455.2,109.2
			C455.2,109.2,455.2,109.2,455.2,109.2C455.2,109.2,455.2,109.2,455.2,109.2C455.2,109.2,455.1,109.2,455.2,109.2
			c0,0.1,0.1,0.2,0.1,0.3c0.1,0.1,0.1,0.1,0.2,0.2c0.1,0,0.1-0.1,0-0.1c-0.1,0-0.1-0.1-0.2-0.1C455.3,109.3,455.3,109.2,455.2,109.2
			C455.2,109.1,455.1,109.1,455.2,109.2C455.1,109.2,455.1,109.2,455.2,109.2C455.2,109.3,455.2,109.3,455.2,109.2
			C455.2,109.2,455.2,109.2,455.2,109.2"/>
		<path clip-path="url(#SVGID_2_)" fill="#1D1D1B" d="M454.9,109.5l0.3-0.1c0,0,0,0,0-0.1c0,0,0,0-0.1,0L454.9,109.5
			C454.8,109.4,454.8,109.5,454.9,109.5C454.8,109.5,454.8,109.5,454.9,109.5"/>
		<path clip-path="url(#SVGID_2_)" fill="#1D1D1B" d="M456.9,109.7C456.9,109.7,456.9,109.7,456.9,109.7
			C456.9,109.7,456.9,109.7,456.9,109.7C456.9,109.7,456.9,109.7,456.9,109.7L456.9,109.7c0.1-0.1,0.1-0.1,0.1-0.1c0,0,0,0,0,0
			c0,0,0,0,0,0c0,0,0,0,0,0c0,0,0,0,0,0C456.8,109.6,456.8,109.7,456.9,109.7C456.8,109.7,456.8,109.7,456.9,109.7
			C456.8,109.8,456.8,109.8,456.9,109.7C456.8,109.8,456.9,109.8,456.9,109.7"/>
		<path clip-path="url(#SVGID_2_)" fill="#FFFFFF" d="M455.2,114.8C455.2,114.8,455.3,114.8,455.2,114.8
			C455.3,114.8,455.3,114.7,455.2,114.8c0,0,0.2-0.1,0.3-0.1c0.1,0,0.1,0,0.2,0.1c0,0,0,0,0.1,0c0,0,0,0,0,0c0,0,0,0,0,0
			c0,0,0,0,0,0c0,0,0.1,0,0.1,0l0,0c0,0-0.1,0.2-0.1,0.2c0,0,0,0,0,0c0,0,0,0,0,0c0,0,0,0-0.1,0c-0.1,0-0.1,0-0.2,0
			c0,0.1-0.1,0.1-0.1,0.1c-0.1,0-0.1,0.1-0.1,0.2c0.1,0,0.2,0.1,0.3,0.1c0,0,0.1,0,0.1,0.1c0,0,0,0,0,0c0,0,0,0,0,0c0,0,0,0,0,0
			c0,0,0,0,0,0c0,0,0,0,0,0c0,0,0,0,0,0c0,0,0.1,0,0.1,0c0,0,0,0.1,0,0.1c0,0,0,0,0,0c0,0,0,0.1,0,0c0,0,0,0.1,0,0.1
			c0,0,0,0.1,0,0.2c0,0,0,0.1-0.1,0.1c0,0,0,0,0,0c-0.1,0-0.1,0.1-0.1,0.1c0,0-0.1,0.1-0.1,0.1c-0.1,0.1-0.2,0-0.2,0.1
			c0,0-0.1,0-0.1,0c0,0-0.1,0-0.1,0c0,0,0,0,0,0c0,0,0,0,0,0c-0.1,0-0.1,0-0.2,0c0,0,0,0,0,0c0,0-0.1,0-0.1,0c0,0,0,0,0,0
			c0,0,0,0-0.1,0c0,0,0,0,0,0c0,0,0,0,0,0c0-0.1-0.1-0.1-0.2-0.2c0,0,0,0,0,0c0,0,0,0,0,0c0,0,0-0.1,0-0.1c0,0,0,0,0,0
			c0-0.1,0.1-0.1,0-0.1c0.1,0,0.1-0.1,0.1-0.1l0,0c0,0,0,0,0,0c0,0,0,0,0.1,0c0,0,0,0,0,0c0,0,0,0,0.1,0c0,0,0,0,0,0c0,0,0,0,0-0.1
			c0,0,0,0,0,0c0,0,0.1,0.1,0.1,0.1c0,0.1,0.1,0.1,0.1,0.1c0.1,0,0.1,0,0.2,0c0,0,0,0,0.1-0.1c0,0,0.1,0,0.1-0.1c0,0,0-0.1,0-0.1
			c0-0.1-0.1-0.1-0.2-0.1c0,0-0.1,0-0.1,0c0,0-0.1,0-0.1,0c0,0,0,0,0,0c0,0,0,0,0,0c0,0,0,0-0.1-0.1c0,0-0.1-0.1-0.1-0.1
			c0,0,0,0,0,0c0,0,0,0,0-0.1c0,0,0-0.1,0-0.2c0,0,0,0,0,0c0,0,0-0.1,0-0.1c0,0,0,0,0,0c0-0.1,0.1-0.2,0.2-0.3
			C455.1,114.8,455.2,114.8,455.2,114.8C455.2,114.8,455.2,114.8,455.2,114.8C455.3,114.7,455.2,114.8,455.2,114.8 M454.8,116.1
			C454.8,116.1,454.8,116.2,454.8,116.1C454.8,116.1,454.8,116.1,454.8,116.1C454.8,116.1,454.8,116.1,454.8,116.1L454.8,116.1z"/>
		<path clip-path="url(#SVGID_2_)" fill="#FFFFFF" d="M458,114.6c0,0.1,0.1,0.2,0.1,0.3c0.1,0.1,0.1,0.4,0.2,0.6c0,0.1,0,0.1,0,0.1
			c0,0,0,0,0,0.1c0,0,0,0,0,0c0,0-0.1,0.1-0.1,0.1c0,0,0,0-0.1,0.1c-0.1,0.1-0.2,0.1-0.3,0.1l0,0c0,0,0,0,0,0c0,0,0,0,0,0
			c-0.2-0.1-0.4-0.4-0.5-0.6c-0.1-0.2-0.3-0.4-0.4-0.5c0,0,0,0.1,0,0.1c0,0.1,0.1,0.2,0.1,0.3c0,0.1,0.1,0.2,0.1,0.3
			c0.1,0.1,0.1,0.4,0.2,0.5c0,0,0,0,0,0c0,0,0,0,0,0c0,0,0,0.1,0,0.1c0,0,0,0,0,0.1c-0.1,0.1-0.1,0.1-0.2,0.2c0,0,0,0,0,0
			c-0.1,0-0.1,0-0.1,0.1c0,0,0,0-0.1,0c0,0,0-0.1-0.1-0.1c0,0,0,0,0,0c-0.1-0.2-0.2-0.5-0.3-0.7c0,0,0,0,0,0
			c-0.1-0.1-0.1-0.2-0.1-0.3c0,0,0,0,0,0c0,0,0,0,0,0c0,0,0-0.1-0.1-0.1c0,0,0,0,0,0c0-0.1,0-0.3,0-0.4c0,0,0-0.1,0.1-0.1
			c0,0,0-0.1,0-0.1c0.1-0.1,0.2-0.1,0.3-0.2c0,0,0,0,0,0c0,0,0.1,0,0.1,0c0,0,0,0,0,0c0,0,0,0,0,0c0,0,0,0,0,0c0,0,0,0,0,0
			c0,0,0,0,0.1,0c0.1,0.1,0.2,0.2,0.3,0.2c0,0.1,0.1,0,0.1,0.1c0,0,0,0,0,0c0,0,0,0,0,0c0-0.1-0.1-0.3-0.1-0.4c0-0.1,0-0.1,0-0.2
			c0,0,0,0,0.1-0.1c0,0,0,0,0,0c0,0,0,0,0,0c0,0,0,0,0,0c0,0,0,0,0,0c0,0,0,0,0,0c0,0,0.1,0,0.1,0c0,0,0.1,0,0.1,0.1
			c0,0,0,0.1,0.1,0.1c0,0,0,0.1,0,0.1l0,0c0,0.1,0.1,0.2,0.1,0.3C458,114.5,458,114.6,458,114.6"/>
		<path clip-path="url(#SVGID_2_)" fill="#FFFFFF" d="M458,113.6C458,113.6,458,113.6,458,113.6c0.1-0.1,0.2-0.1,0.2-0.1
			c0,0.1,0.1,0,0.1,0.1c0.1,0,0.1,0.1,0.1,0.2c0,0,0,0,0,0c0,0,0,0,0,0c-0.1,0.1-0.1,0.1-0.2,0.1c0,0-0.1,0-0.1,0.1
			c-0.1,0-0.2-0.1-0.2-0.1c0,0,0,0,0,0c0,0-0.1-0.1-0.1-0.1c0,0,0,0,0,0c0,0,0,0,0,0C457.9,113.7,457.9,113.7,458,113.6
			C457.9,113.6,458,113.6,458,113.6 M458.5,114.1c0,0,0.1,0,0.1,0c0,0,0,0,0,0c0.1,0,0.2,0.1,0.4,0.2c0,0,0,0,0,0
			c0,0,0.1,0.1,0.1,0.1c0,0.1,0.3,0.3,0.3,0.4c0,0,0,0.1-0.1,0.1c0,0,0,0,0,0c0,0-0.1,0.1-0.1,0c0,0,0,0,0,0c0,0-0.1,0.1-0.1,0.1
			c0,0-0.1,0-0.1,0c0,0,0,0,0,0c0,0,0,0-0.1,0c0,0,0,0-0.1,0c0,0,0,0,0,0c0,0,0,0,0,0c-0.1-0.1-0.3-0.4-0.4-0.5c0,0,0,0,0,0
			c0-0.1-0.1-0.1-0.2-0.2c-0.1,0-0.1-0.1-0.1-0.1c0,0,0,0,0,0c0,0,0,0,0,0C458.4,114.1,458.4,114.1,458.5,114.1"/>
		<path clip-path="url(#SVGID_2_)" fill="#FFFFFF" d="M459,112.3C459,112.3,459,112.3,459,112.3c0.1,0,0.1,0,0.1,0c0,0,0,0,0,0
			c0,0,0,0,0,0c0,0,0,0,0,0c0,0,0.1,0,0.1,0c0,0,0,0,0.1,0c0,0,0,0.1,0,0.1c-0.1,0.1-0.2,0.2-0.2,0.3c0,0.1,0,0.1-0.1,0.2
			c0,0,0,0.1,0,0.1c0.1,0,0.1,0,0.2,0.1c0,0,0.1,0.1,0.2,0.1c0-0.1,0.1-0.3,0.1-0.4c0,0,0-0.1,0-0.1c0,0,0,0,0.1,0c0,0,0,0,0.1-0.1
			c0,0,0,0,0,0c0,0,0,0,0-0.1c0,0,0,0,0,0.1c0,0,0,0,0-0.1c0,0,0.1,0,0.1,0c0,0,0,0,0,0c0,0,0,0,0,0c0,0,0,0,0,0c0,0,0,0,0,0
			c0,0,0,0,0,0c0,0,0,0,0,0c0,0,0,0,0,0c0,0,0,0.1,0,0.1c0,0,0,0,0,0c0,0,0,0,0,0c0,0.1,0,0.1-0.1,0.2c0,0,0,0.1,0,0.1
			c0,0.1-0.1,0.2-0.1,0.2c0,0,0,0,0,0c0,0.1,0,0.1-0.1,0.2c0,0,0.1,0,0.1,0c0,0,0,0,0,0c0.1,0,0.1,0,0.2,0.1c0,0,0,0,0,0
			c0,0,0,0,0,0c0,0,0,0,0,0c0,0,0,0,0,0s0,0,0,0c0.1,0,0.1,0,0.1,0c0,0.1,0.1,0,0.1,0.1c0,0,0,0.1-0.1,0c0,0,0,0,0,0l0,0
			c0,0,0,0,0,0c0,0,0,0,0,0c0,0,0,0-0.1,0c0,0,0,0,0,0c0,0,0,0,0.1,0.1c0,0,0,0,0,0c0,0,0,0,0,0c0,0,0,0,0,0c0,0,0,0-0.1-0.1
			c0,0,0,0,0,0.1c0,0,0.1,0.1,0.1,0c0,0,0,0.1-0.1,0.1c0,0,0,0,0,0c0,0.1-0.1,0-0.1,0.1c0,0,0,0,0,0c0,0-0.1,0-0.1,0
			c-0.1,0-0.1-0.1-0.2-0.1c-0.1,0,0.1,0,0,0c0,0-0.1,0-0.1-0.1c0,0,0,0,0,0c0,0-0.1,0-0.1-0.1c0,0,0,0,0,0c-0.3-0.1-0.5-0.3-0.8-0.4
			c0,0,0,0-0.1,0c0,0-0.1,0-0.1,0c0,0,0,0,0,0c0,0,0,0,0,0c0,0,0,0,0,0c0,0,0,0-0.1,0c0,0,0,0,0,0c0,0,0,0,0,0c0,0,0,0,0,0
			c0-0.1,0.1-0.2,0.1-0.2c0-0.1,0-0.2,0.1-0.3c0,0,0,0,0-0.1c0.1-0.1,0-0.1,0.1-0.2c0-0.1,0-0.1,0.1-0.1
			C458.9,112.3,458.9,112.3,459,112.3C458.9,112.3,458.9,112.3,459,112.3C459,112.3,458.9,112.3,459,112.3 M459.8,112.5
			C459.7,112.5,459.7,112.5,459.8,112.5C459.7,112.5,459.7,112.5,459.8,112.5C459.7,112.6,459.7,112.6,459.8,112.5"/>
	</g>
</g>
</svg>
