<?xml version="1.0" encoding="utf-8"?>
<!-- Generator: Adobe Illustrator 23.1.0, SVG Export Plug-In . SVG Version: 6.00 Build 0)  -->
<svg version="1.1" id="Layer_1" xmlns="http://www.w3.org/2000/svg" xmlns:xlink="http://www.w3.org/1999/xlink" x="0px" y="0px"
	 viewBox="0 0 369.6 372.3" enable-background="new 0 0 369.6 372.3" xml:space="preserve">
<path fill="#333333" d="M273.2,6.1c57.7,14,98,44.3,92.7,49.1s-22.2,29.7-32.9,65.4c-10.7,35.7-21.6,88.4-28,78.1
	c-6.4-10.3-24.6-47.3-54.7-61.1s-30.5-4.1-30.1-13.9c0.4-9.8,21.1-56.2,32.6-79.9C264.3,20.2,264.1,3.9,273.2,6.1z"/>
<path fill="#454545" d="M319.9,23.2c-13.1-4.3-33-13-44.3-11.3c-7.4,1.1-57,116.2-49.8,117.3c10.3,1.6,31.5,14.4,34.9,22.1
	c2.3,5.3,9.2-14.3,21.8-42.1s25-53,30.7-66.5S324.8,24.8,319.9,23.2z"/>
<g>
	<g>
		<path fill="#515251" d="M227.3,123.6c8.5-16.6,15-34.1,23.4-50.7c5.8-11.6,10.6-23.8,15-36c1.4-3.9,2.9-7.9,4.7-11.7
			c2-4.3,4.5-8.3,7.2-12.1c-0.9,0.4-1.9,0.8-2.8,1.1c23.2,6.5,46,14.9,67.8,25.2c6.2,2.9,12.3,6,18.3,9.2c-0.3-1.1-0.6-2.3-0.9-3.4
			c-7.6,17.9-17.6,34.5-25.7,52.1c-2,4.4-3.9,8.9-5.6,13.4c-1.7,4.7-3.2,9.4-4.8,14.1c-3.3,9.9-6.8,19.7-10.6,29.4
			c-4.3,10.9-8.9,21.7-13.8,32.3c-0.6,1.2-0.3,2.7,0.9,3.4c1.1,0.6,2.8,0.3,3.4-0.9c8.8-19,16.6-38.4,23.4-58.1
			c3.2-9.3,6-18.7,10-27.7c3.8-8.6,8.2-17,12.6-25.4c5.2-9.9,10.3-19.8,14.7-30.1c0.5-1.2,0.4-2.7-0.9-3.4
			c-21.6-11.4-44.2-21.1-67.5-28.8c-6.6-2.2-13.2-4.2-19.8-6c-1.1-0.3-2.2,0.2-2.8,1.1c-4.8,6.7-8.3,14-11.1,21.6
			c-2.4,6.4-4.6,12.8-7.2,19.1c-2.4,5.9-5,11.8-7.8,17.5c-3.8,7.8-7.5,15.5-11,23.5c-4.2,9.7-8.3,19.4-13.1,28.7
			C221.5,123.9,225.9,126.4,227.3,123.6L227.3,123.6z"/>
	</g>
</g>
<path fill="#333333" d="M97.3,4.1c-57.7,14-98,44.3-92.7,49.1s22.2,29.7,32.9,65.4s21.6,88.4,28,78.1c6.4-10.3,24.6-47.3,54.7-61.1
	s30.5-4.1,30.1-13.9c-0.4-9.8-21.1-56.2-32.6-79.9S106.5,1.9,97.3,4.1z"/>
<path fill="#454545" d="M50.6,21.2c13.1-4.3,33-13,44.3-11.3c7.4,1.1,57,116.2,49.8,117.3c-10.3,1.6-31.5,14.4-34.9,22.1
	c-2.3,5.3-9.2-14.3-21.8-42.1s-25-53-30.7-66.5S45.7,22.8,50.6,21.2z"/>
<g>
	<g>
		<path fill="#515251" d="M147.5,119.1c-8.5-16.6-15-34.1-23.4-50.7c-5.8-11.4-10.4-23.5-14.7-35.5c-3.1-8.6-6.7-16.8-12.1-24.3
			c-0.7-0.9-1.7-1.5-2.8-1.1C71,14,48,22.6,25.8,33c-6.2,2.9-12.4,6-18.5,9.3c-1.3,0.7-1.4,2.2-0.9,3.4C13.9,63.5,24,80.2,32.1,97.8
			c2,4.3,3.8,8.6,5.4,13c1.7,4.7,3.2,9.5,4.7,14.2c3.3,9.9,6.9,19.7,10.7,29.4c4.3,11,9,21.9,14,32.6c0.6,1.2,2.3,1.5,3.4,0.9
			c1.3-0.7,1.5-2.2,0.9-3.4c-8.7-18.9-16.5-38.2-23.2-57.8c-3.2-9.4-6.1-18.9-10.2-28c-3.8-8.6-8.2-17-12.6-25.4
			C20.2,63.3,15,53.4,10.7,43.1c-0.3,1.1-0.6,2.3-0.9,3.4c21.3-11.3,43.6-20.8,66.5-28.4c6.5-2.1,13-4.1,19.6-6
			c-0.9-0.4-1.9-0.8-2.8-1.1c4.7,6.5,8.1,13.6,10.9,21.2c2.3,6.4,4.5,12.7,7.2,19c2.6,6.1,5.2,12.2,8,18.2c3.8,7.8,7.5,15.5,11,23.5
			c4.2,9.7,8.3,19.4,13.1,28.7C144.7,124.4,149,121.9,147.5,119.1L147.5,119.1z"/>
	</g>
</g>
<path fill="#CDCDCD" stroke="#6C6C6C" stroke-width="2" stroke-miterlimit="10" d="M312.6,242.4c0,28.8-21.3,63.7-37.6,84.9
	c-23,30-47.7,41.1-88.4,41.1c-50.4,0-90.6-28.3-110.7-71.1c-7.6-16.3-15.3-35.8-15.3-54.9c0-34.6,14-66,36.6-88.8
	c22.8-23,54.4-37.2,89.4-37.2c36.4,0,65.4,17.7,88.4,42.4C296,181.3,312.6,209.3,312.6,242.4z"/>
<g>
	<defs>
		<rect id="SVGID_3_" x="56.9" y="124.2" width="255.4" height="242.5"/>
	</defs>
	<clipPath id="SVGID_2_">
		<use xlink:href="#SVGID_3_"  overflow="visible"/>
	</clipPath>
	<path clip-path="url(#SVGID_2_)" fill="#B3B3B3" d="M282.8,244.7c0,54-43.8,97.8-97.8,97.8s-97.8-43.8-97.8-97.8
		s43.8-97.8,97.8-97.8S282.8,190.7,282.8,244.7"/>
	
		<ellipse transform="matrix(1.285326e-03 -1 1 1.285326e-03 -60.0238 429.353)" clip-path="url(#SVGID_2_)" fill="none" stroke="#6C6C6C" stroke-width="2.7561" stroke-miterlimit="10" cx="184.9" cy="244.7" rx="97.8" ry="97.8"/>
	<path clip-path="url(#SVGID_2_)" fill="#CDCDCD" d="M141.9,304.9c0.4,1.6-0.7,2.9-2.2,4.2c-0.6,0.5-2,1.7-2.7,2.1
		c-1.8,1.3-3.7,2.9-5.3,3.5c-0.5-0.6-1-0.2-1.5-0.4c-0.1,0-0.2,0.1-0.3,0.2c-0.6-0.1-1.1-0.4-1.7-0.6c-0.3-0.1-0.6,0-0.7-0.1
		c-0.4-0.2-0.6-0.6-1-0.8c-0.3-0.1-0.5-0.1-0.9-0.3c-0.1-0.1-1-0.3-1-0.6c-0.5-0.1-1-0.8-1.5-0.7c-0.1-0.2-0.2-0.6-0.5-0.3
		c0-0.2-0.1-0.4-0.3-0.6l0.1-0.1c-0.6-1.6-0.6-3-0.8-4.5c-0.2-0.1,0-0.2-0.2-0.3c0.3-0.3,0.2-0.5,0.3-0.7c0.4-0.6,0.9-0.5,1.4-0.5
		c0.1,0,0.1-0.1,0-0.2c0.2,0,0.3,0.1,0.5,0.1l0.2-0.2c1.1,0.1,2.4,1.2,3.6,1.2c0.7,0.6,1.3,0.9,1.9,0.8c0.4,0.5,0.8,0.3,1.3,0.6
		c0.2,0,0.2-0.1,0.4-0.1c0.4,0.5,0.9,0.2,1.4,0.3c0.1-0.1-0.2-0.3,0.1-0.4c0.6-0.3,2-1.7,2.5-2.3c0.1,0.1,0.2-0.2,0.3,0.1l0.4-0.4
		c-1.9-1.1-3.7-1.2-5.7-2.7c-0.7,0.1-1.2-1-1.5-1.4l0.2-0.2c-0.5-0.6-0.4-1.2-0.7-1.9c0.4-0.3-0.1-0.6,0-0.9c0.3,0,0.2-0.1,0.5-0.2
		c0.1-0.1-0.1-0.2,0-0.3c-0.1,0.1-0.3-0.1-0.5-0.2c0.1-0.1,0.1-0.3,0.2-0.5c0-0.2,0.1,0,0.3,0c0.1-0.1,0-0.3-0.1-0.5
		c0.2-0.2,0.2-0.5,0.5-0.6c3.1,2.9,6.7,2.8,9.6,4.9c0.2,0.1,1-0.9,1.2-0.7c0.1-0.7,0.9-0.6,1.1-1.2c-0.1-0.5-0.8-0.9-1.2-1.1
		c-1.5-1.2-3.2-2.6-4.9-3.1c-0.1-0.3-0.4-0.3-0.4-0.5c-0.1,0.1-0.2,0-0.4,0c-0.2-0.2-0.2-0.4-0.1-0.5c-0.1-0.1-0.1,0-0.2,0
		c0-0.4-0.1-0.6-0.3-0.9c-0.1-0.1,0,0.1-0.2,0.2c-0.1-0.1,0-0.1-0.1-0.2c0-0.2,0.2,0.1,0.3-0.1c0-0.2-0.3-0.3,0-0.4
		c-0.5-0.2-0.7-0.5-0.7-1c0.2,0-0.1,0.2,0.1,0.2c0.2-0.4,0.1-0.3,0.3-0.5c-0.1-0.2-0.2,0.2-0.3-0.1c0.1,0,0.1-0.1,0-0.2
		c0.1-0.2,0.2,0.3,0.3,0c-0.3-0.2,0-0.5-0.5-0.7c0.2-0.2,0.4-0.6,0.7-0.5c0.1-0.1-0.1-0.3-0.1-0.5c0.2,0,0.4,0.2,0.6-0.1
		c0.1-0.1,0.1-0.2-0.1-0.3c0.4,0,0.3-0.2,0.4-0.5c0.2,0.2,0.5,0.3,0.8,0.2c0.5,0.5,1.1,0.9,1.6,1c1.6,1.4,3.4,2.1,4.9,3.5
		c0.1-0.1,0.1-0.1,0-0.2c0.5,0.3,1.1,1.1,1.8,1c0.1,0.1,0.1,0.1,0,0.2c0.7-0.2,1.1,0.6,1.6,0.8c0.1,0.1,0.1-0.1,0.2,0
		c0.2,0.1-0.1,0.1,0,0.2c0,0,0.6,0.4,0.6,0.3c0.3,0.4,0.8,0.9,0.8,1.3c0.4,0.3,0.6,0.7,0.6,1.1c0.1,0.2,0.2,0,0.2,0.2
		c0.4,1.2,0.9,2.5,0.6,3.8C146.2,301.9,143.2,304,141.9,304.9"/>
	<path clip-path="url(#SVGID_2_)" fill="#CDCDCD" d="M109.7,272.7c1.3-0.6,2.9-1.1,3.8-1.8c1.8-0.9,5.1-2.5,7.4-3.5
		c0.7-0.3,1.4-0.8,1.9-0.7c0.3,0,0.4,0.3,0.8,0.1c0.1,0.3,0.4,0,0.2,0.3c0.5,0.3,0.9,0.9,1.3,1.4c0.7,0.3,0.7-0.2,0.8,0.6
		c0.7,0.7,1,2.3,1.3,3.5l-0.3,0.1c0.2,0.2,0.2,0.1,0.2,0.4c-0.1,0.1-0.2,0-0.2-0.1c-1.4,2.2-5.6,6-7.6,7.9c-2.5,1.9-5.1,4.3-6.5,6.4
		c0.5,0.2,1-0.5,1.4-0.1c1.1-0.6,2.8-1.3,3.3-2c1.4-0.3,2.3-1.4,3.9-1.9c1.2-1.2,5.2-2.3,6.7-3.4c0.1,0.3,0.3-0.1,0.4,0.2
		c0.1-0.2,0.1-0.3,0.2-0.3c0.5-0.4,1-0.3,1.5-0.4c0.3,0.2,0.7,0.5,1.1,0.4c0.8,1,1.4,1.4,2.1,2.2c0,0,0,0.1-0.1,0.2
		c0.4,0.8,0.3,1.3,1,1.7c-0.1,0.2-0.3,0.4,0,0.7c-0.4,0.4-0.9,0.3-1,0.8c-0.1-0.3-0.3-0.1-0.3-0.4c-2.5,1.2-7.1,3.8-9.5,5.5
		c-0.2,0.2-0.2,0.1-0.4,0.2c-1.2,0.9-2.9,1.2-3.9,2.1c-0.2,0.2-0.1-0.2-0.3-0.1c-0.3,0-0.1,0.2-0.3,0.3c-0.4-0.2-1.5,0.7-2,0.9
		c-0.1-0.1-0.2-0.1-0.2-0.2c-1.8,0.6-4,0.9-5.4,0c-0.5,0.1-0.7-0.3-1.3-0.6c-0.4-0.2-0.8-0.3-1.1-0.5c-1.2-0.9-1.9-2.5-2.7-4.2
		c0.5,0.1-0.2-0.2,0.3-0.4c-0.3-0.5-0.3-0.8-0.1-1.1c-0.1,0-0.3-0.1-0.3-0.3c0-0.1,0-0.2,0-0.3c-0.1-0.3,0.1-0.1,0.1,0.1
		c0.2-0.1,0.1-0.3-0.1-0.3c-0.1-0.4,0-0.6,0-1c0.9-1.1,2.6-2.7,3.1-3.9c0.8-0.3,0.6-1,1.4-1.4c0-0.1,0.1-0.1,0.1-0.2
		c-0.1,0.1-0.3,0.1-0.5,0.2c-0.8-0.2-4.4,2-5.2,2.2c-0.8,0.1-1.4-0.4-2.2-0.4c-0.2-0.2-0.4-0.5-0.7-0.8c-0.1-0.1-0.3-0.1-0.4-0.2
		c-0.2-0.1-0.2-0.4-0.3-0.5c0,0,0,0-0.1,0c0,0-0.1,0-0.1,0c0-0.1,0.3-0.6-0.1-0.3c0-0.3-0.1-0.7-0.2-1.1c0.2-0.4,0.6-1.2,0.7-1.3
		c0.1,0,0.8-0.4,1.5-0.8c0.4-0.3,0.9-0.5,1.4-0.8l-0.1-0.1c1.1-0.4,3.1-1.3,3.5-1.7C108.3,273.4,109.1,273.1,109.7,272.7"/>
	<path clip-path="url(#SVGID_2_)" fill="#CDCDCD" d="M113.8,263.6c-0.7,1.4-2.4,1.8-4.4,1.8c-0.8,0-2.6,0-3.4-0.1
		c-2.2-0.2-4.7-0.1-6.3-0.8c0-0.8-0.7-0.8-0.9-1.3c-0.1-0.1-0.2-0.1-0.4-0.1c-0.4-0.5-0.6-1-0.9-1.6c-0.2-0.3-0.4-0.4-0.5-0.6
		c-0.2-0.4-0.1-0.8-0.3-1.3c-0.2-0.3-0.3-0.5-0.5-0.8c-0.1-0.1-0.6-0.9-0.4-1.1c-0.4-0.4-0.2-1.2-0.7-1.5c0.1-0.2,0.3-0.6-0.2-0.6
		c0.1-0.1,0.2-0.4,0.1-0.7l0.2,0c0.6-1.6,1.5-2.7,2.3-3.9c-0.1-0.2,0.1-0.2,0-0.4c0.4,0,0.5-0.2,0.7-0.4c0.7-0.1,1,0.2,1.4,0.5
		c0.1,0,0.1,0,0.1-0.1c0.2,0.1,0.2,0.3,0.3,0.4l0.3,0c0.8,0.8,1.1,2.5,1.9,3.3c0.1,0.9,0.4,1.6,1,1.9c0,0.6,0.4,0.8,0.5,1.3
		c0.1,0.1,0.2,0.1,0.4,0.2c0,0.6,0.6,0.7,0.9,1.1c0.2,0,0-0.3,0.4-0.2c0.7,0.1,2.6,0,3.4-0.1c0,0.1,0.3,0,0.2,0.2l0.6-0.1
		c-0.7-2.1-2-3.4-2.6-5.7c-0.6-0.4-0.3-1.5-0.2-2l0.3,0c0-0.8,0.5-1.2,0.6-1.9c0.5,0.1,0.3-0.5,0.5-0.7c0.2,0.2,0.2,0.1,0.5,0.1
		c0.2,0,0.1-0.3,0.2-0.2c-0.1,0-0.2-0.3-0.2-0.5c0.1-0.1,0.3-0.2,0.4-0.2c0.2-0.2,0.1,0.1,0.2,0.2c0.1-0.1,0.2-0.2,0.2-0.4
		c0.3-0.1,0.4-0.2,0.7-0.1c0.4,4.2,3.3,6.5,4.1,10c0.1,0.2,1.3,0,1.3,0.2c0.5-0.4,1,0.1,1.6-0.2c0.2-0.4,0-1.3-0.3-1.6
		c-0.4-1.9-0.7-4.1-1.7-5.5c0.1-0.3-0.1-0.5,0-0.6c-0.1,0-0.2-0.1-0.3-0.3c0-0.3,0.1-0.4,0.2-0.5c-0.1-0.1-0.1-0.1-0.2-0.2
		c0.3-0.3,0.3-0.5,0.3-0.9c-0.1-0.1-0.1,0.1-0.3,0c0-0.1,0.1-0.1,0.1-0.2c0.2-0.2,0.1,0.2,0.3,0.1c0.1-0.1-0.1-0.4,0.3-0.3
		c-0.2-0.4-0.2-0.8,0.1-1.2c0.2,0.1-0.2,0.1-0.1,0.3c0.4-0.2,0.3-0.2,0.6-0.2c0-0.2-0.3,0-0.2-0.3c0.1,0,0.1,0,0.1-0.1
		c0.2-0.1,0,0.3,0.2,0.2c-0.1-0.4,0.3-0.4,0.1-0.9c0.3,0,0.7-0.3,0.9,0.1c0.1-0.1,0.1-0.3,0.2-0.4c0.2,0.1,0.2,0.4,0.6,0.4
		c0.2,0,0.2-0.1,0.1-0.3c0.3,0.3,0.4,0.1,0.6-0.1c0,0.3,0.2,0.5,0.4,0.7c0.1,0.7,0.3,1.4,0.6,1.8c0.3,2.2,1.2,3.8,1.5,5.8
		c0.1,0,0.1-0.1,0.1-0.1c0.2,0.5,0.1,1.5,0.7,1.9c0,0.1,0,0.1-0.1,0.1c0.7,0.3,0.5,1.2,0.6,1.6c0,0.1,0.2,0,0.2,0.1
		c0.1,0.2-0.1,0.1-0.1,0.2c0,0,0.2,0.6,0.2,0.6c0,0.5,0,1.1-0.2,1.6c0.1,0.5,0,0.9-0.3,1.2c0,0.2,0.2,0.2,0,0.3
		c-0.5,1.2-0.9,2.5-2,3.3C119,264,115.3,263.7,113.8,263.6"/>
	<path clip-path="url(#SVGID_2_)" fill="#CDCDCD" d="M123.8,226.6c0.5,0.1,0.8-0.3,1.2-0.2c-0.5,0.4-0.7,1.1-0.2,1.2l-0.5,0.3
		l-0.3-0.1c0.2,0.5,0.6,1,0.1,1.3c-0.4,0.4,0.1-0.3-0.3-0.1l0.2,0.5c-0.9,0.3-1.8,0.8-2.8,1.5c-0.2,0.8-1.4,0.9-2,1.7l-0.5,0.3
		c0,0-0.1,0-0.2,0c-0.1,0.1-0.2,0.1-0.3,0.2c-0.9,0.3-1,1.1-1.9,1.3l-0.1,0.4c0.3,0,0.5,0,0.7,0c0.3,0,0.6,0.1,0.6,0.3
		c1.7-0.1,3.2,0.2,4.9,0.6c-0.5-0.1-0.1,0.5,0,0c-0.1,0.5-0.1,0.4,0.2,0.5c0,0.2,0,0.3,0.1,0.4c0.1,0.1,0.2,0.1,0.2,0.1
		c-0.1,0.5-0.5,0.3-0.6,0.7l0.1-0.4c-0.4,0.3-0.4,0.7-1,1c0.5-0.3,0.4,0.1,0.7,0.1c0.1,0,0.2,0,0.2,0.1c0.1,0.1,0.2,0.2,0.1,0.4
		c-0.1-0.2-0.2-0.3-0.3-0.2c-0.1,0-0.1,0.1-0.1,0.2l0.3,0.4c0,0.2,0,0.3,0.1,0.4c0.1,0.1,0.2,0.1,0.2,0.1c-1.2,0.2-0.7,1.1-0.8,1.9
		c-0.4-0.5-0.5,0.7-0.9,0.6c-0.2,0-0.3,0-0.4,0.1c-0.1,0.1-0.1,0.2-0.1,0.2c-2.8-0.6-6.5-0.9-8.9-1.4l-0.4-0.1
		c-2.3-0.9-5.1-1-7.6-1.5c-1.9-0.9-3.9-1.6-5.6-1.2c-0.1,0-0.2-0.1-0.2-0.3c0-0.1,0-0.1,0-0.2l-0.8-0.2c0.1-0.5-0.2-1.2,0.3-1.6
		c0.2-0.8-0.4-2.2-1-3.5l0.3-1.6c0.2-1.2,0-2.1,0.7-3.2c0.6-0.7,0.3-1.5,0.8-1.9l0.1-0.5c0.6-0.7,0.8-1.8,2.2-2.4
		c-0.5-0.1,0.1-0.4,0.1-0.7c0.8,0.2,0.9-0.7,1.8-0.5c0.2-0.8,1.3-0.5,1.9-1.2c0.4,0.5,1.2,0.2,1.7-0.1c1.1,0.7,2.2,1.8,3.4,2
		l-0.1,0.3l0.4,0.1l-0.1,0.4c0.9-0.3,0.7,0.6,1.5,0.7l-0.1,0.5c0.3,0.4,1.1,0.6,0.9,1.4c0.3,0.9,1,1,1.8,1.6l-0.2,1.2
		c0.7,0.2,1.1-1,1.8-0.8c0.6-0.7,1.4-0.5,1.5-1.4c1.2-0.2,2.3-1.2,3.2-1.5c0.7-1.1,1.6-1.3,2.1-2c0.4,0.1,0.2-0.8,1-0.7l-0.1,0.4
		c0.5-0.3,0.7,0.2,1.2,0.2c-0.1,0.5-0.6,0.7-0.2,1.1c-0.1,0.1-0.2,0.1-0.2,0.3c-0.1,0.2-0.1,0.4,0,0.6c0.1-0.5,0.4,0,0.7,0.6
		C124.4,225.8,124,225.8,123.8,226.6 M108.7,233.5c-0.4-0.5-0.1-1.7-0.9-1.8c-0.3-0.9-1-1.4-1.7-2c-0.7-0.6-1.4-1.4-2.1-2.1
		c-1.2-0.2-2.2,0.7-3.1,1l-0.1,0.5c-1,0.6-1,2.7-0.7,3.6c2,0.4,3.7,0.3,5.3,0.6c1.2,0.2,2.3,0.9,3.6,0.7c0,0-0.1,0-0.2-0.1
		C108.7,233.8,108.7,233.7,108.7,233.5c0.1,0,0.1,0,0.2,0c0.1,0,0.1-0.2-0.1-0.4L108.7,233.5z M113.5,228.2l-0.3-0.5l-0.1,0.4
		L113.5,228.2z M121.1,230.6c-0.1,0.1-0.2,0.2-0.3,0.3c0.2,0,0.3,0,0.4-0.1c0.1,0,0.1-0.1,0.1-0.2
		C121.3,230.6,121.2,230.6,121.1,230.6 M121.8,238.7c0,0-0.1,0-0.2,0c-0.1,0.1-0.2,0.1-0.3,0.2c0.5-0.2,0,0,0.4,0.1L121.8,238.7z
		 M122.1,230.2c0,0,0.1-0.1,0.1-0.2c-0.3-0.1-0.3-0.1-0.4,0.3C122,230.3,122.1,230.3,122.1,230.2 M122.5,223
		c0.5,0.1,0.5-0.3,0.1-0.4L122.5,223z M124.3,227.2c0,0-0.1-0.1-0.2-0.1c0,0,0,0.1,0,0.2c0,0.1,0.1,0.2,0.3,0.2
		C124.4,227.4,124.4,227.3,124.3,227.2"/>
	<path clip-path="url(#SVGID_2_)" fill="#CDCDCD" d="M135,207.2c-0.2,0.3,0,0.4-0.1,0.7c0,0,0.1,0,0.1-0.1c0.2,0.1-0.1,0.2-0.1,0.3
		c0.4,0.8-0.3,2.1-0.3,2.6c-0.5,0.3-0.6,1-1.3,1.3c0,0,0,0.1,0.1,0.1c-0.6,0.6-1.5,0.7-2,1.6c-0.1,0-0.2,0.3-0.4,0
		c0,0.1,0.1,0.1,0.1,0.2c-0.2,0.1-0.3,0.3-0.6,0.2l-0.3,0.5c-0.9,0.5-1.7,1.5-2.8,1.8c-0.1,0.1,0,0.2-0.1,0.3
		c-0.8,0-1.3,1.1-2.2,0.7c-0.3,0.2,0,0.3-0.1,0.4c-0.1-0.2-0.2,0-0.3-0.2c0,0.4-0.4,0.2-0.6,0.5c-0.1,0.1,0.3,0.1,0.1,0.3
		c-0.5-0.2-0.8,0.1-1.3,0c0,0.1-0.1,0.2,0.1,0.3c-0.6-0.1-1-0.9-1.6-0.3c-0.3-0.3-0.5-0.2-0.7,0.1c-0.2-0.4-0.9-0.1-1-0.6
		c-0.4,0-0.4,0-0.8-0.2c-0.2,0-0.3,0.2-0.5,0.2c-2.1-1-3.9-1.7-5.4-3.2c-0.5-0.1-1.4-0.8-1.6-1.2c-2.2-1.7-2.6-2.9-3.6-5
		c0.3-0.2,0-0.3,0.1-0.4c-0.6-0.7-0.4-1.6-0.9-2.4c0.3-0.7-0.2-1.2,0-1.9c0-0.1-0.1-0.1-0.2-0.2c0.3-0.7,0.2-0.9,0.1-1.4
		c0.2-0.9,0.4-1.6,0.6-2.5c0.7-1.5,1.6-2.5,2.4-3.4c1.4-1.5,3.2-2,4.8-2.9c1.1,0.7,1.7-0.6,2.9,0.2c-0.1,0.2,0,0.3,0,0.5
		c0.3-0.3,0.6-0.1,0.9-0.3c0.1,0.4,0.4,0.4,0.8,0.5c-0.5,0.5-0.5,1.4-1.1,1.8c-0.9,0.5-1.9,1.7-2.8,2.3c-0.3,0.3-0.8,0.8-0.5,1.5
		c-0.7,1.5,0.2,2.4-0.1,3.7c0.4,0.4,0.3,0.8,0.4,1.2c0.6,0.3,0.5,0.9,0.9,1.3c0.2,0.3,0.2-0.2,0.4,0.1c0.5,1.3,1.2,0.5,1.8,1.7
		c1.1,0.3,1.8,1.2,2.9,1.6c0.1,0.1,0.1,0.3,0.2,0.4c1-0.1,1.5,1,2.4,0.7c0.5,0.4,0.9,0.8,1.4,0.5c0.5,0.4,1,0.6,1.4,0.4
		c0.3,0-0.1,0.3,0.2,0.3c0.8-0.7,0.9-1.8,1.1-2.7c0.1-0.1-0.1-0.1-0.1-0.2c-0.1-0.2,0.1-0.6,0-0.8c-0.4-1.3-0.7-3.6-2.3-4.2
		c-0.5-0.2-1.1-0.3-1.7-0.4c-0.7,0.7-0.4,1.6-1.4,2.3c0.2,0.2,0.1,0.5-0.1,0.8c-1.1-0.4-1.9,0.8-2.8,0.9c0-0.2,0.1-0.3,0-0.4
		c-0.2,0-0.3-0.1-0.4,0.2c-0.1-0.2,0.2-0.4,0.2-0.5c-0.2-0.3,0.1-0.3,0.1-0.6c0.1-0.4,0-0.8,0-1.2c0.2-1.6,1.5-3.1,2.7-4.3
		c0.6,0.1,0.9-0.9,1.5-0.7c0.6-0.7,1.5-0.5,2.2-1l0.3,0.2c1.1-0.4,2,0.7,3.3,0.9c-0.1,0.2,0.4,0.1,0.6,0.4c-0.1,0.1-0.1,0.2-0.1,0.2
		c0.2,0.3,0.3,0.1,0.4,0c0.1,0.5,1,0.6,1,1c1.1,0.3,1.2,1.7,2,2.5c-0.1,0.1,0,0.2-0.1,0.4c0.8,0.2,0.2,1.4,0.9,1.2
		c0,0.2-0.1,0.3,0.3,0.3c-0.3,0.2,0,1,0.4,1.1c0.1-0.2-0.1-0.3,0-0.4C134.8,206.4,134.7,207,135,207.2"/>
	<path clip-path="url(#SVGID_2_)" fill="#CDCDCD" d="M123.4,181.8c0.1-0.1,0-0.3,0.1-0.4c0.9-1,2-1.2,3-1.2c0.6,0.9,1.8,0.5,2,1.4
		c1.2,0.3,0.8,1.9,1.5,2.5c-0.2,0.1-0.3,0.4-0.5,0.4c-0.2,0.2,0,0.4-0.1,0.6c-0.8,0.8-1.4,1.3-2.3,1.5c-0.5,0.2-1,0.3-1.5,0.6
		c-1.1-0.3-2.1-0.8-3.1-1.9c-0.1-0.2-0.2,0.2-0.3-0.1c0.1-0.6-0.7-0.9-0.9-1c-0.1-0.1,0.1-0.1,0.2-0.2c-0.1-0.2-0.3-0.4-0.3-0.5
		c0.5-0.5,0.5-1.1,1.2-1.5C122.8,182.2,123.1,181.6,123.4,181.8 M130.6,188c0.5-0.4,1-0.4,1.3-0.3c0.1,0,0.2-0.1,0.2-0.1
		c1.7,0.3,3.3,1.3,4.8,2.8c-0.1,0.1,0.5,0.5,0.7,0.5c0.6,0.6,1.1,1.4,1.7,1.7c0.6,1.5,3.8,3.6,4.4,5.2c-0.5,0.3-0.3,0.7-0.8,0.8
		c0.3,0.3,0.2,0,0.3,0.4c-0.5,0-1.1,0.6-1.6,0.4c0,0.2-0.2,0.4,0,0.6c-0.2,0.6-0.8,0.8-1.5,1c-0.6,0.1-0.8,0.4-1.1,0.1
		c-0.1,0.2-0.5,0.2-0.3,0.5c-0.2,0.1-0.4,0-0.7,0.2c-0.2-0.4-0.4-0.2-0.7-0.2c0-0.2-0.4-0.3-0.1-0.4c0-0.2-0.1,0-0.3,0
		c-1.3-1.6-3.7-5.2-5.3-6.8c-0.1-0.1-0.1-0.1-0.2,0c-0.5-1-1.9-1.9-2.4-3.1c-0.8,0-0.7-1-1.2-1.3c0.2-0.3,0.3-0.2,0.5-0.5
		c-0.1-0.3-0.2,0-0.4-0.2C128.8,188.8,129.6,188,130.6,188"/>
	<path clip-path="url(#SVGID_2_)" fill="#CDCDCD" d="M172.7,169.4c0-0.1,0.1-0.1,0.2-0.3c-0.2-0.2,0-0.3-0.1-0.6
		c0.2-0.1,0,0.3,0.3,0.1c0.1,0,0-0.2,0.1-0.3c-0.4,0.2-0.1,0,0-0.2c-0.1-0.1-0.2-0.2-0.2-0.5l0.2,0c0.1-1.6,0.8-3.1,1.2-4.7
		c0.5,0,0.2-0.9,0.7-0.9c0.8-2.2,2.6-3.3,4.4-4.6c0.5-0.1,1,0,1.3-0.2c0.1,0.3,1-0.1,1.1,0.3c0.5-0.1,0.8-0.1,1.1,0.2
		c0.1,0,0-0.2,0.2-0.1c0,0.2,0.3,0,0.2,0.3c0.5,0,0.9,0,0.9-0.2c0.3,0.1,0.6,0.2,0.9,0.2c0.3,0.7,0.8,1.2,1.4,1.5
		c0,0.3,0.2,0.5,0.4,0.7c0,0.4,0.1,0.6,0.5,0.6c0,0.5,0.9,0.6,0.5,0.9c0.5,0.8,0.7,2.2,1.1,3c0,0.1-0.1,0-0.1,0.2
		c0.4,0.4,0.3,1.7,0.8,2.2c0,0.1,0,0.1-0.1,0.1c0.3,0.8,0.5,1.5,0.7,2.6c-0.1,0-0.2-0.1-0.2-0.1c0.3,0.3,0.5,0.7,0.5,1.3
		c0.8,0.9,0.2,2.4,0.9,3.4c-0.2,0.4,0.3,1.5-0.1,1.8c0.3,0.3,0.5,2.7,0.8,3.1c-0.3,0.8,0.5,1.6,0.4,2.3c-0.1,0-0.1,0-0.3,0
		c0.4,0.4,0,1.2-0.3,1.5c-0.3,0.1,0-0.3-0.3-0.2c-0.2,0.2,0.2,0.2,0.1,0.5c-0.1-0.2-0.3-0.2-0.5-0.2c0-0.2,0.1-0.2,0.1-0.3
		c0-0.2-0.3,0-0.4-0.1c-0.1,0.3,0.2,0.1,0.1,0.3c-0.5,0.2-0.1,0.4-0.7,0.5c-0.1-0.1-0.1-0.3-0.2-0.4c-0.2,0.3-0.2,0.1-0.5,0
		c0,0.2-0.1,0.4-0.2,0.6c0.1,0,0.3-0.3,0.4-0.1c0,0.3-0.5,0-0.5,0.2c-0.4,0-0.5-0.3-0.9-0.4c0.2-0.2,0.2-0.6-0.1-0.8
		c-0.2,0.2-0.2,0.2-0.6,0.2c0.1,0.3,0.5,0.2,0.6,0.5c0,0.1-0.7,0.4-0.2,0.5c-0.2,0.1-0.4,0.1-0.6,0.2c0-0.2,0.3,0,0.1-0.3
		c-0.2,0.2-0.4,0.2-0.5,0c0,0,0,0.1,0,0.2c-0.7,0.2-1.2-0.7-1.5-0.5c-0.1,0,0-0.1,0-0.3c-0.8-0.4-0.8-2.2-1.1-2.7
		c0.1-0.1,0.1-0.3,0-0.5c0.1,0,0.1,0,0.1-0.2c-0.4-2-0.8-5-1-6.9c-1.1,0.4-1.9,1-3.1,1.3c-0.5,0.2-1.1,0.6-1.7,0.6
		c-0.7,0.7,0.1,2.2-0.4,3.1c0.4,0.3,0.1,0.5,0,0.8c-0.1,1.1-0.2,2.7-0.8,3.3c0,0.1,0.1,0.1,0.1,0.2c-0.2-0.1,0,0.3-0.3,0.1
		c0.1,0.8-0.7,0.8-0.8,1.4c-0.1-0.3-0.3,0.1-0.3-0.1c-0.2,0.1-0.5,0.1-0.6,0.4c-0.6-0.3-1.1,0.2-1.5-0.1c-0.2,0.3-0.5-0.1-0.7,0.1
		c0-0.5-1,0.2-1.2-0.4c0,0.4-0.2-0.1-0.3,0.2c-0.1,0-0.1-0.4,0.1-0.4c0-0.2-0.3,0.1-0.3-0.1c0.1-0.3,0.3-0.3,0.6-0.5
		c-0.2-1.5,0.2-3.2,0-4.6c0,0-0.1-0.7,0-1c0-0.1-0.1-0.1-0.1-0.1c0-0.1,0.1-0.3,0.1-0.4c-0.1-0.5-0.4-1,0-1.4c-0.2-0.3-0.3-0.8,0-1
		c-0.3-0.3,0.1-0.7-0.2-1.2c0.3-0.3-0.1-0.9,0.3-1.1c-0.3-0.1,0.2-0.4-0.1-0.4c0.2-0.1,0-0.1,0-0.3l0.2,0c0-0.5,0.1-0.8,0-1.4
		c-0.1-0.2-0.1-0.2,0.1-0.1C172.9,169.8,172.8,169.5,172.7,169.4 M179.6,166.3c0,1.2-0.2,1.9-0.7,3c0.2,0,0.1,0.5,0.2,0.6
		c1.2-0.5,2.3-1.2,3.7-1.5c0-0.2,0.2-0.1,0.2-0.3c-0.7-1.8-0.9-3.8-1.6-5.6c-0.2,0.5-0.8,0.7-0.6,1.4
		C180.3,164.5,180.3,165.8,179.6,166.3"/>
	<path clip-path="url(#SVGID_2_)" fill="#CDCDCD" d="M211.2,189.5c-0.3-0.1-0.4,0.1-0.7,0c0,0,0,0.1,0.1,0.1c0,0.2-0.2,0-0.3,0
		c-0.6,0.6-2.2,0.2-2.6,0.3c-0.4-0.4-1.1-0.3-1.6-1c0,0-0.1,0-0.1,0.1c-0.7-0.5-1-1.3-2-1.6c0-0.1-0.3-0.1-0.1-0.3
		c-0.1,0-0.1,0.2-0.2,0.1c-0.1-0.2-0.4-0.2-0.3-0.5l-0.5-0.2c-0.7-0.8-1.8-1.3-2.4-2.4c-0.1-0.1-0.2,0.1-0.3,0
		c-0.2-0.7-1.4-1.1-1.2-2c-0.2-0.2-0.3,0.1-0.4,0c0.2-0.2,0-0.2,0.1-0.4c-0.4,0.1-0.3-0.4-0.6-0.5c-0.1-0.1,0,0.3-0.3,0.1
		c0.1-0.6-0.3-0.7-0.3-1.3c-0.1,0-0.2-0.1-0.3,0.2c0-0.6,0.6-1.2-0.1-1.6c0.2-0.4,0.1-0.6-0.3-0.7c0.4-0.3-0.1-0.9,0.4-1.1
		c-0.1-0.3-0.1-0.4,0.1-0.8c-0.1-0.2-0.2-0.3-0.3-0.4c0.6-2.3,0.8-4.1,2-6c0-0.5,0.5-1.5,0.8-1.8c1.2-2.5,2.3-3.2,4-4.6
		c0.2,0.2,0.3-0.1,0.4,0c0.6-0.7,1.5-0.7,2.1-1.4c0.8,0.1,1.1-0.5,1.8-0.4c0.1,0,0.1-0.1,0.2-0.2c0.7,0.1,0.9,0,1.4-0.2
		c0.9,0,1.7,0,2.6,0c1.6,0.4,2.8,1,3.9,1.6c1.8,1.1,2.6,2.7,3.9,4.1c-0.4,1.2,0.9,1.6,0.5,2.9c-0.2-0.1-0.3,0-0.5,0.1
		c0.3,0.2,0.2,0.6,0.5,0.8c-0.4,0.2-0.3,0.5-0.3,0.8c-0.6-0.4-1.5-0.2-2-0.7c-0.7-0.7-2.1-1.5-2.8-2.2c-0.3-0.2-1-0.6-1.6-0.1
		c-1.6-0.3-2.3,0.7-3.7,0.7c-0.3,0.5-0.7,0.5-1.1,0.7c-0.2,0.7-0.7,0.6-1,1.1c-0.2,0.2,0.2,0.2,0,0.4c-1.2,0.7-0.2,1.2-1.2,2.1
		c0,1.1-0.7,2.1-0.9,3.2c-0.1,0.1-0.3,0.2-0.3,0.3c0.4,0.9-0.7,1.7-0.1,2.4c-0.2,0.6-0.6,1-0.2,1.5c-0.3,0.6-0.3,1.1,0,1.4
		c0,0.3-0.3,0-0.2,0.2c0.8,0.6,1.9,0.5,2.9,0.5c0.1,0,0.1-0.1,0.1-0.2c0.2-0.1,0.6-0.1,0.8-0.2c1.2-0.7,3.4-1.5,3.6-3.2
		c0-0.5,0.1-1.1,0-1.7c-0.8-0.5-1.7-0.1-2.5-0.9c-0.1,0.3-0.5,0.2-0.8,0c0.2-1.1-1.2-1.6-1.5-2.6c0.2-0.1,0.3,0,0.3-0.1
		c-0.1-0.2,0-0.3-0.3-0.4c0.2-0.1,0.4,0.1,0.6,0.1c0.2-0.2,0.3,0,0.6,0c0.4,0,0.8-0.2,1.2-0.3c1.6-0.1,3.4,0.7,4.8,1.6
		c0,0.6,1,0.7,1.1,1.3c0.9,0.5,0.9,1.4,1.4,1.9l-0.1,0.3c0.7,0.9-0.2,2.1-0.2,3.4c-0.2-0.1,0,0.4-0.2,0.7c-0.1,0-0.2-0.1-0.2,0
		c-0.2,0.2,0,0.3,0.1,0.4c-0.4,0.2-0.3,1.1-0.7,1.2c0,1.1-1.4,1.6-2,2.5c-0.2-0.1-0.2,0.1-0.4-0.1c-0.1,0.8-1.4,0.5-1,1.1
		c-0.2,0.1-0.3,0-0.2,0.3c-0.3-0.2-1,0.2-1,0.6c0.2,0.1,0.3-0.1,0.4-0.1C211.9,189.1,211.3,189.2,211.2,189.5"/>
	<path clip-path="url(#SVGID_2_)" fill="#CDCDCD" d="M223.5,185.2c-0.5-1.5,0.6-2.9,2-4.3c0.6-0.5,1.9-1.8,2.6-2.2
		c1.7-1.4,3.5-3.1,5.2-3.7c0.5,0.6,1,0.1,1.6,0.4c0.1,0,0.2-0.1,0.3-0.2c0.6,0.1,1.1,0.3,1.7,0.5c0.3,0.1,0.6,0,0.8,0.1
		c0.4,0.1,0.6,0.6,1.1,0.8c0.3,0.1,0.5,0.1,0.9,0.3c0.1,0,1,0.3,1,0.5c0.5,0.1,1,0.7,1.5,0.6c0.1,0.2,0.2,0.6,0.5,0.3
		c0,0.2,0.1,0.4,0.4,0.6l-0.1,0.1c0.6,1.5,0.8,3,1,4.5c0.2,0.1,0,0.2,0.2,0.3c-0.3,0.3-0.2,0.5-0.2,0.7c-0.4,0.6-0.9,0.6-1.4,0.6
		c-0.1,0-0.1,0.1,0,0.2c-0.2,0.1-0.3-0.1-0.5-0.1l-0.2,0.3c-1.1-0.1-2.5-1.1-3.6-1c-0.7-0.6-1.3-0.9-2-0.7c-0.5-0.4-0.9-0.3-1.3-0.6
		c-0.2,0-0.2,0.1-0.4,0.1c-0.4-0.5-0.9-0.1-1.4-0.2c-0.1,0.1,0.2,0.3-0.1,0.4c-0.6,0.4-1.9,1.8-2.4,2.4c-0.1-0.1-0.2,0.2-0.3-0.1
		l-0.4,0.5c1.9,1,3.8,1.1,5.8,2.4c0.7-0.2,1.2,0.9,1.6,1.3l-0.2,0.2c0.5,0.6,0.4,1.2,0.8,1.8c-0.4,0.3,0.1,0.6,0.1,0.9
		c-0.3,0-0.2,0.1-0.5,0.3c-0.1,0.1,0.1,0.2,0,0.3c0.1-0.1,0.3,0.1,0.5,0.2c0,0.1-0.1,0.3-0.2,0.5c0,0.2-0.2,0-0.3,0
		c0,0.1,0,0.3,0.2,0.5c-0.2,0.3-0.2,0.5-0.4,0.6c-3.2-2.8-6.9-2.5-9.8-4.5c-0.2,0-1,0.9-1.1,0.7c-0.1,0.7-0.8,0.6-1,1.2
		c0.1,0.5,0.9,0.9,1.3,1c1.6,1.2,3.3,2.5,5,2.9c0.1,0.3,0.4,0.3,0.4,0.5c0.1-0.1,0.2,0,0.4,0c0.2,0.2,0.2,0.4,0.2,0.5
		c0.1,0,0.1,0,0.2,0c0,0.4,0.1,0.6,0.4,0.9c0.1,0,0-0.1,0.2-0.2c0.1,0.1,0,0.1,0.1,0.2c0,0.2-0.2-0.1-0.3,0.1c0,0.2,0.4,0.2,0,0.4
		c0.5,0.2,0.7,0.5,0.7,0.9c-0.2,0,0.1-0.2-0.1-0.2c-0.2,0.4-0.1,0.3-0.2,0.6c0.1,0.2,0.2-0.2,0.3,0.1c-0.1,0-0.1,0.1,0,0.2
		c-0.1,0.2-0.2-0.3-0.3,0c0.3,0.2,0.1,0.5,0.5,0.7c-0.2,0.2-0.3,0.7-0.7,0.5c0,0.1,0.1,0.3,0.2,0.5c-0.2,0.1-0.4-0.2-0.6,0.1
		c-0.1,0.1-0.1,0.2,0.1,0.3c-0.4,0-0.3,0.2-0.3,0.5c-0.2-0.2-0.5-0.2-0.8-0.2c-0.6-0.5-1.1-0.8-1.7-0.9c-1.7-1.4-3.5-2-5.1-3.2
		c-0.1,0.1,0,0.1,0,0.2c-0.5-0.2-1.1-1-1.8-0.9c-0.1-0.1-0.1-0.1,0-0.2c-0.7,0.2-1.2-0.6-1.6-0.8c-0.1-0.1-0.1,0.1-0.2,0.1
		c-0.2-0.1,0-0.1,0-0.2c0,0-0.6-0.3-0.6-0.3c-0.4-0.4-0.8-0.8-0.9-1.3c-0.4-0.3-0.6-0.7-0.6-1.1c-0.1-0.2-0.2,0-0.3-0.2
		c-0.5-1.2-1-2.4-0.8-3.7C219.5,188.4,222.3,186.1,223.5,185.2"/>
	<path clip-path="url(#SVGID_2_)" fill="#CDCDCD" d="M257.3,215.9c-1.3,0.7-2.9,1.2-3.7,2c-1.7,1-5,2.7-7.2,3.8
		c-0.7,0.4-1.4,0.9-1.9,0.8c-0.3,0-0.4-0.3-0.8-0.1c-0.1-0.3-0.4,0-0.2-0.3c-0.5-0.3-0.9-0.9-1.4-1.3c-0.7-0.2-0.6,0.2-0.9-0.6
		c-0.7-0.7-1.1-2.2-1.4-3.4l0.3-0.1c-0.2-0.2-0.2,0-0.2-0.4c0.1-0.1,0.2,0,0.2,0.1c1.3-2.2,5.4-6.2,7.2-8.2c2.4-2,4.9-4.5,6.2-6.7
		c-0.5-0.2-1,0.6-1.4,0.1c-1,0.6-2.8,1.4-3.2,2.2c-1.4,0.4-2.2,1.5-3.8,2.1c-1.1,1.2-5.1,2.6-6.5,3.7c-0.1-0.3-0.3,0.1-0.4-0.2
		c0,0.2-0.1,0.3-0.1,0.3c-0.5,0.4-1,0.3-1.5,0.5c-0.4-0.2-0.7-0.4-1.1-0.3c-0.8-0.9-1.4-1.3-2.2-2.1c0,0,0-0.1,0.1-0.2
		c-0.5-0.8-0.4-1.3-1.1-1.7c0.1-0.2,0.2-0.4-0.1-0.7c0.4-0.4,0.8-0.3,0.9-0.9c0.1,0.3,0.3,0.1,0.4,0.4c2.4-1.3,6.9-4.2,9.2-5.9
		c0.2-0.2,0.2-0.1,0.4-0.2c1.1-0.9,2.8-1.4,3.8-2.3c0.2-0.3,0.1,0.2,0.3,0.1c0.3,0,0.1-0.2,0.3-0.3c0.4,0.2,1.5-0.8,1.9-1
		c0.1,0.1,0.2,0.1,0.2,0.2c1.8-0.7,3.9-1.1,5.4-0.3c0.5-0.1,0.7,0.3,1.4,0.5c0.4,0.1,0.8,0.2,1.1,0.4c1.2,0.9,2,2.4,2.9,4.1
		c-0.5-0.1,0.2,0.2-0.2,0.4c0.3,0.4,0.4,0.8,0.1,1.1c0.1,0,0.3,0.1,0.3,0.3c0,0.1,0,0.2,0,0.3c0.1,0.3-0.1,0.1-0.1-0.1
		c-0.2,0.1-0.1,0.3,0.1,0.3c0.1,0.4,0,0.6,0.1,1c-0.8,1.1-2.4,2.8-3,4.1c-0.8,0.3-0.6,1-1.3,1.5c0,0.1-0.1,0.1-0.1,0.2
		c0.1-0.1,0.3-0.1,0.5-0.2c0.8,0.2,4.3-2.2,5.1-2.4c0.8-0.1,1.4,0.3,2.2,0.3c0.3,0.2,0.4,0.5,0.8,0.8c0.1,0.1,0.3,0.1,0.4,0.2
		c0.2,0.1,0.2,0.4,0.3,0.4c0,0,0,0,0.1,0c0,0,0.1,0,0.1,0c0,0.1-0.3,0.7,0.1,0.3c0,0.3,0.1,0.7,0.2,1.1c-0.2,0.4-0.6,1.3-0.7,1.3
		c-0.1,0-0.8,0.5-1.5,0.9c-0.4,0.3-0.8,0.5-1.3,0.8l0.1,0.1c-1,0.5-3,1.4-3.4,1.9C258.6,215.1,257.8,215.4,257.3,215.9"/>
	<path clip-path="url(#SVGID_2_)" fill="#CDCDCD" d="M273.4,241.3c-0.6,0.1-0.6,0.9-1.1,1.2c-0.3,0.1-0.2-0.2-0.4-0.1
		c-0.3,0.3-0.8,0.6-0.9,0.1c-0.3,0-0.2,0.4-0.6,0.3c0.2-1.3,0.2-3-0.6-4.3c0-0.6-0.3-0.8-0.6-1.2c-0.4-1.4-0.6-2.7-1.4-3.6
		c-1.6,0.7-2.6,0.7-4.2,1.4c-0.4-0.2-0.8,0.3-1.3,0.2c0,0.3-0.4,0.2-0.3,0.6c-0.1-0.1-0.6-0.3-0.7,0c-0.2-0.1-0.4-0.1-0.5-0.3
		c-0.8,0.3-1.9,0.9-2.4,0.6c-0.4,0.4-1.4,0.2-2.1,0.8c-0.2,0.1-0.3-0.1-0.4-0.1c-0.9,0.6-3,0.9-4.2,0.9c-0.2,0.4-1.3,0.3-2.2,0.5
		c-0.7,0.1-1.3,0.3-1.7,0.1c-0.4,0.2-0.7,0.1-1.3,0.2c0.1-0.4-0.3-0.2-0.4-0.4c0-0.3,0-0.6-0.1-0.9c-0.3,0.1-0.3-0.3-0.6-0.3
		c-0.1-0.4,0.1-0.6,0.2-0.9c0.3-0.2,0.2,0.2,0.4,0.1c0.3-0.3-0.8-0.8-0.4-1c0.1-0.3-0.3,0-0.3-0.1c0-0.3,0.1-0.4,0.2-0.6
		c-0.3-0.4-0.3-1.5,0.3-1.7c-0.2-0.4,0.2-0.4,0.1-0.7c1-0.7,3.8-0.8,4.8-1c2.3,0,4.5-0.5,6.6-1.1c1.7-0.5,4.3-0.6,6.1-1.2
		c0.3-0.1,0.5-0.4,0.8-0.1c0.5-0.3,1.2-0.3,1.9-0.4c0.1-0.1,0-0.3,0.2-0.3c-0.2-0.1-0.3-0.2-0.4-0.3c0-0.3,0.3-0.5,0-0.6
		c-0.1-0.2,0.2-0.2,0.1-0.4c-0.5-1.1-0.2-2-0.2-3c0.2-0.2,0.3-0.2,0.5-0.3c0-0.2,0.1-0.4,0-0.6c0.2,0,0.1-0.2,0.4-0.1
		c-0.2-0.2,0-0.3,0-0.4c0.3,0,0.5-0.6,0.9-0.4c0.4-0.2,0.4-0.8,1.1-0.9c0.1-0.2-0.1-0.2,0-0.4c0.7,0.1,0.9-0.4,1.6-0.3
		c0,0.2-0.4,0.2,0,0.3c0.4,0.1-0.1-0.4,0.2-0.4c0.3,0.3,0.5,0.8,0.6,1.3c-0.1,0.4-0.3,0.9-0.1,1.5c-0.3,0.4-0.1,1.1-0.4,1.5l0.2,1.2
		c0,0.1,0.1,0.1,0.2,0.2c1,3.4,2.3,6.2,3.4,9.5c0.4,0.6,0.9,1.3,0.8,2.1c-0.1,0.3-0.5,0.6-0.3,1.2c-0.3,0.2-0.3,0.5-0.3,0.9
		c-0.6,0.5-0.7,1.4-1.3,1.9C273.2,241.4,273.4,241.5,273.4,241.3"/>
	<path clip-path="url(#SVGID_2_)" fill="#CDCDCD" d="M146.7,203.5l0.8,19.4l-8.8,19.3l4.1,4.8l-5.9,12.7l6.2,4.5l1.1,10.1
		c0,0,4.4,11.4,5,11.9c0.6,0.5,13.8,9.4,13.8,9.4l18.3-1.3l6.2-2.7l7.2-2.3l5-1.8c0,0-2.7-6-1.9-5.9c0.8,0.2,8.6,0,8.6,0
		s3.2-12.9,3.7-12.8c0.5,0.1,19,1,19,1l5.2-9.8l-13.2-10c0,0-5.1-12.8-5.2-13.2c-0.1-0.4,0-18.2,0-18.2s3.1-17.4,3-17.5
		c1.9-6,5.4-16.7,5.9-18.4c0.7-2.4-3.7-5.7-3.7-5.7l-22,13.8c0,0-10.5,8-11.5,8.9c-1,0.8-16.1,1.5-16.1,1.5l-6.4-8.1
		c-2.6-4-6.8-10.8-6.8-10.8l-8.9-9.8c0,0-3.6,7.9-3.8,8.4C145.4,181,146.2,196.1,146.7,203.5L146.7,203.5z"/>
	<path clip-path="url(#SVGID_2_)" fill="#B3B3B3" d="M209.7,237.2c-0.6-6.8-1.3-13.8-4.2-20.1c-2.8-6.3-8.2-11.8-15-13
		c-1.7-0.3-3.4-0.4-5-0.4c-8.5-0.1-23.2-0.5-27.1,9.4c-0.9,2.4-0.9,5.1-0.8,7.7c0.1,2.3-0.9,4.4-1,6.8c-0.1,2.6,0.5,5.2,1.8,7.5
		c2.5,4.5,7.2,7.2,10.9,10.7c3,2.8,4.9,5.4,8.5,7.5c3.8,2.2,7.8,3.8,12,5.1c5.4,1.6,10.9,2.7,16.4,3.4c7.1,1,19.6,3.9,12.7-7.6
		c-2.4-4-4.2-8.2-5.9-12.4c-0.7-1.8-1.4-3.6-2.1-5.4c-1.3-3.3-2.6-6.6-4.1-9.8c-4.9-10.4-13-20.6-24.3-22.5
		c-3.3-0.5-6.8-0.3-10.1,0.2c-0.3,0.1-0.7,0.1-1,0.2"/>
	<path clip-path="url(#SVGID_2_)" fill="#B3B3B3" d="M163.7,269.1c2.1,1.1,4.7,1.3,7.1,1.4c2.8,0.2,5.7,0.3,8.5,0.5
		c2.2,0.1,4.6,0.3,6.5,1.5c3.4,2.1,4.2,7.2,2.4,10.8c-1.8,3.6-5.5,5.9-9.4,7.1c-6.6,2-14,1.2-20-2.2c-6-3.4-10.5-9.3-12.2-16
		c-0.5-1.8-0.7-3.8-0.2-5.6c0.4-1.4,1.2-2.6,1.5-4c0.3-1.4-0.2-3.2-1.6-3.5c-0.9-0.2-1.9,0.2-2.9,0c-2.3-0.5-1.9-3.8-1-6l3.6-8.7
		c0.3-0.7,0.6-1.4,0.5-2.2c-0.1-0.7-0.5-1.3-0.6-2c-0.3-2,2.1-3.9,4-4c2.6-0.1,2.5,1.2,4,3.2C160.1,248,153.5,263.7,163.7,269.1"/>
	<path clip-path="url(#SVGID_2_)" fill="#E3E3E3" d="M210.1,218c1.2-1.9,1.4-4.9,1.9-7c0.8-3.3,1.6-6.6,2.3-9.9
		c0.6-2.7,1.3-5.4,1.5-8.1c0.2-2.1,0.1-4.2-0.1-6.4c-2.5,2.8-4.1,6.2-6,9.3c-2.4,4.1-5.8,7.5-8.1,11.6c-0.5,0.8-0.9,1.7-1,2.7
		c-0.1,1.8,1.1,3.4,2.6,4.6c1.4,1.1,3.1,2,4.2,3.4c0.2,0.3,0.4,0.5,0.7,0.7c0.5,0.3,1.2,0,1.5-0.4
		C209.8,218.4,209.9,218.2,210.1,218"/>
	<path clip-path="url(#SVGID_2_)" fill="#B3B3B3" d="M198.3,213.9C198.3,214,198.3,214,198.3,213.9c1.3,0.2,2.6,0.1,3.5-0.7
		c0.6-0.6,0.9-1.5,1.2-2.3c0.8-2.2,1.7-4.4,2.8-6.4c3.3-6,8.1-11.1,10.9-17.4c0.3-0.6,0.5-1.4,0-1.8c-0.5-0.5-1.4-0.1-2,0.2
		c-2.5,1.6-4.7,3.7-7.3,5.2c-2.7,1.6-5.6,3.2-8.2,4.9c-3.2,2-5.7,5.1-9.2,6.4c-3.6,1.4-7.6,0.7-11.5,1c-2,0.1-4,0.5-6,1.2
		c-0.8,0.3-1.7,0.8-1.6,1.6c2.1,0.4,4.2-0.3,6.3-0.7c2.6-0.5,5.3-0.6,8-0.3c0.9,0.1,1.8,0.3,2.6,0.7c0.7,0.4,1.3,0.9,1.9,1.5
		C192.5,209.6,194.2,213.2,198.3,213.9"/>
	<path clip-path="url(#SVGID_2_)" fill="#E3E3E3" d="M151.6,182.7c-1.6,1-2,3.2-2.1,5c-0.6,10.4,3,20.8,2.7,31.2
		c-0.1,2.2-0.3,4.5,0,6.7c0.3,2.2,1.3,4.5,3.2,5.7c1.8-0.6,2.1-2.9,2.2-4.8c0.1-4.7,0.4-9.9,3.4-13.8c2.2-2.9,7.1-4.5,6.2-8.9
		c-0.8-4-4.5-9-6.7-12.5C159.7,190.2,153.6,181.4,151.6,182.7"/>
	<path clip-path="url(#SVGID_2_)" fill="#B3B3B3" d="M160.1,199.3c2.6,4.4,6.4,8.6,11.4,9.8c0.2-1.1-0.5-2.1-1.2-3l-3.9-5.4
		c-1.4-1.9-2.7-3.7-4.4-5.3c-0.8-0.7-1.6-1.4-2.3-2.2c-2-2.4-2.4-5.8-4.3-8.4c-0.8-1.1-3.4-3.2-4.7-1.6c-0.9,1.1,1.4,2.1,2.2,2.9
		C156.1,189.8,157.6,195.1,160.1,199.3"/>
	<path clip-path="url(#SVGID_2_)" fill="#E3E3E3" d="M190.1,261.9c0.3,0,0.7-0.1,1-0.1c3.5-0.5,6.7,0.1,10.1,1.3
		c1.1,0.4,2.2,0.9,2.6,2c2.5,7.3-16.5,1.6-18.6,0.9c-1.9-0.6-4.5-1.4-5.6-3.3C182.1,261,187.3,262.1,190.1,261.9"/>
	<path clip-path="url(#SVGID_2_)" fill="#6B6B6B" d="M151,265.7c-0.4-2.8-0.7-5.6-1.1-8.4c-0.1-0.5-0.4-0.8-0.9-0.7
		c-2.1,0.4-4.1,0.9-6.2,1.3c0.3,0.3,0.6,0.6,0.8,0.8c1.6-5.5,3.9-10.8,6.7-15.8c0.2-0.4,0-0.8-0.4-1c-1.7-0.7-3.4-0.9-5.2-0.8
		c0.1,0.4,0.1,0.9,0.2,1.4c0.9-0.3,1.2-1.4,1.6-2.2c0.6-1.4,1.2-2.9,1.7-4.4c1.5-4.1,3.4-8,4.5-12.2c0.2-0.9-1.1-1.2-1.3-0.4
		c-1,3.8-2.7,7.2-4,10.9c-0.5,1.3-0.9,2.5-1.4,3.8c-0.2,0.5-0.9,2.9-1.4,3.1c-0.7,0.2-0.6,1.4,0.2,1.4c1.7-0.1,3.2,0.1,4.8,0.7
		c-0.1-0.3-0.3-0.7-0.4-1c-2.9,5.1-5.2,10.5-6.8,16.2c-0.2,0.5,0.4,1,0.8,0.8c2.1-0.4,4.1-0.9,6.2-1.3c-0.3-0.2-0.6-0.4-0.9-0.7
		c0.4,2.8,0.7,5.6,1.1,8.4C149.7,266.6,151.1,266.6,151,265.7"/>
	<path clip-path="url(#SVGID_2_)" fill="#6B6B6B" d="M171.8,205.4c4.3-1.6,8.9-2.1,13.4-1.2c4.5,0.9,8.5,3.1,12.3,5.5
		c0.8,0.5,1.4-0.7,0.7-1.2c-4-2.5-8.4-4.8-13.1-5.7c-4.6-0.8-9.3-0.4-13.6,1.3C170.6,204.4,171,205.7,171.8,205.4"/>
	<path clip-path="url(#SVGID_2_)" fill="#6B6B6B" d="M189.2,203.9c9.4-6.2,18.8-12.3,28.1-18.5c-0.3-0.2-0.7-0.4-1-0.6
		c0.3,7.5-1.8,14.5-3.6,21.7c-1.8,7-2.9,14-1.7,21.2c0.1,0.9,1.5,0.5,1.3-0.4c-2.4-14.7,5.9-28,5.4-42.5c0-0.5-0.6-0.9-1-0.6
		c-9.4,6.2-18.8,12.3-28.1,18.5C187.7,203.2,188.4,204.4,189.2,203.9"/>
	<path clip-path="url(#SVGID_2_)" fill="#6B6B6B" d="M194.1,224.7c1.9,8,8.4,14.7,14,20.4c6,6.1,12.6,11.5,19.7,16.2
		c0.7,0.5,1.4-0.7,0.7-1.2c-6.8-4.5-13.2-9.7-19-15.6c-5.6-5.6-12.2-12.3-14-20.2C195.2,223.5,193.9,223.9,194.1,224.7"/>
	<path clip-path="url(#SVGID_2_)" fill="#E3E3E3" d="M184.4,236.7c0.9-1.9,0.2-4.1-0.9-5.8c-1-1.6-3.7-2.5-5.4-2.6
		c-2.9-0.2-5.8,2.2-6.3,5.1c-0.1,0.9,0.1,1.8,0.4,2.6c0.9,2.1,2.9,3.6,5.1,4c2.2,0.4,4.6-0.4,6.2-2
		C183.8,237.6,184.1,237.2,184.4,236.7"/>
	<path clip-path="url(#SVGID_2_)" fill="#6B6B6B" d="M185,237c1.2-2.7,0.1-6.3-2.3-8c-2.1-1.4-5-2-7.3-1c-2.5,1-4.5,3.6-4.2,6.4
		c0.3,2.9,2.7,5.4,5.5,6.1C179.7,241.4,183.5,240,185,237c0.4-0.8-0.8-1.5-1.2-0.7c-1.1,2.1-3.6,3.3-5.9,3.1
		c-2.2-0.2-4.2-1.8-5.1-3.8c-0.9-2.3,0.3-4.6,2.3-5.9c1.8-1.1,3.9-0.9,5.8-0.1c1.1,0.5,1.9,1.2,2.4,2.3c0.7,1.3,1.1,3,0.5,4.4
		C183.4,237.2,184.6,237.9,185,237"/>
	<path clip-path="url(#SVGID_2_)" fill="#6B6B6B" d="M180.6,233.3c-0.8,0.2-1.3,0.8-1.6,1.5c-0.3,0.8-0.1,1.6,0.4,2.2
		c0.2,0.2,0.6,0.2,0.8,0.1c1.9-0.9,2-4,0.3-5.1c-0.4-0.3-0.9,0-1.2,0.3c-0.3,0.2-0.5,0.5-0.7,0.8c-0.3,0.6-0.4,1.4,0,2
		c0.4,0.6,1.1,1,1.8,0.8c0.6-0.2,1-0.8,1.1-1.4c0-0.3-0.1-0.7-0.3-1c-0.2-0.2-0.5-0.4-0.9-0.2c-0.2,0.1-0.3,0.2-0.5,0.3
		c-0.5,0.5-0.7,1.4-0.3,2.1c0.2,0.3,0.6,0.5,0.9,0.2c0.3-0.2,0.4-0.6,0.2-0.9c0,0,0-0.1,0-0.1c0,0.1,0,0.1,0,0c0,0,0,0,0-0.1
		c0-0.1,0,0,0,0.1c0,0,0-0.2,0-0.1c0,0.1,0-0.1,0-0.1c0-0.1-0.1,0.1,0,0c0,0,0-0.1,0.1-0.1c-0.1,0.1-0.1,0.1,0,0c0,0,0,0,0,0
		c0.1,0,0,0,0,0c0,0,0.1-0.1,0.2-0.1h-0.7c-0.1-0.1-0.1-0.1-0.1,0c0,0,0,0,0-0.1c0,0,0.1,0.2,0,0c0,0,0,0.1,0,0c0-0.1,0,0,0,0
		c0,0.1,0-0.1,0,0c0,0,0,0.1,0,0.1c0,0,0.1-0.1,0,0c0,0-0.1,0.1-0.1,0.1c0,0,0.1-0.1,0,0c-0.1,0.1,0.1-0.1,0,0c-0.1,0.1,0.1,0,0,0
		c-0.1,0.1,0,0,0,0c0,0-0.1,0-0.1,0c0,0,0.1,0,0.1,0c0,0,0,0-0.1,0c-0.1,0,0,0,0,0c0,0-0.1,0-0.1-0.1c0,0,0,0,0,0c0,0,0,0-0.1-0.1
		c0,0-0.1-0.1-0.1-0.1c0.1,0.1,0,0,0,0c0,0-0.1-0.2,0-0.1c0,0.1,0-0.1,0-0.1c0-0.1,0,0,0,0c0,0,0-0.1,0-0.2c0-0.1,0,0.1,0,0
		c0,0,0-0.1,0-0.1c0-0.1-0.1,0.1,0,0c0-0.1,0.1-0.1,0.1-0.1c0.1-0.1-0.1,0.1,0,0c0,0,0.1-0.1,0.1-0.1c0,0,0.1-0.1,0.1-0.1
		c0.1-0.1-0.1,0.1,0,0c0.1-0.1,0.2-0.1,0.3-0.2h-0.7c0,0,0.1,0,0.1,0.1c0.1,0.1-0.1-0.1,0,0c0.1,0.1,0.1,0.1,0.2,0.2
		c0.1,0.1-0.1-0.1,0,0c0,0,0,0.1,0.1,0.1c0,0,0.1,0.2,0.1,0.2c0-0.1,0-0.1,0,0c0,0,0,0,0,0c0,0,0,0.1,0,0.1c0,0.1,0,0.2,0.1,0.3
		c0,0.2,0-0.1,0,0c0,0.1,0,0.1,0,0.2c0,0.1,0,0.2,0,0.3c0,0,0,0.1,0,0.1c0,0.2,0-0.2,0,0c0,0.1,0,0.2-0.1,0.3c0,0,0,0.1,0,0.1
		c0,0-0.1,0.1,0,0.1c0.1-0.1,0,0,0,0.1c0,0,0,0.1-0.1,0.1c0,0-0.1,0.2-0.1,0.2c0.1-0.1,0.1-0.1,0-0.1c0,0,0,0,0,0
		c0,0-0.1,0.1-0.1,0.1c0,0-0.1,0.1-0.1,0.1c-0.1,0.1,0.1-0.1,0,0c-0.1,0.1-0.2,0.1-0.3,0.2c0.3,0,0.6,0.1,0.8,0.1c0.1,0.1,0,0,0,0
		c0,0,0-0.1,0-0.1c0-0.1,0-0.1,0,0c0,0,0-0.2-0.1-0.2c0-0.2,0,0.1,0,0c0,0,0-0.3,0-0.3c0,0.1,0,0.1,0,0c0,0,0-0.1,0-0.1
		c0-0.1,0-0.1,0-0.2c0,0,0-0.1,0-0.1c0,0.1,0,0.1,0,0c0-0.1,0.1-0.1,0.1-0.2c0,0,0.1-0.1,0.1-0.1c-0.1,0.1-0.1,0.1,0,0
		c0,0,0,0,0.1-0.1c0,0,0.1-0.1,0.1-0.1c-0.1,0.1-0.1,0.1,0,0c0,0,0.1,0,0.1,0c0,0,0.1,0,0.1,0c0.1,0,0.1,0,0,0c0,0,0.2-0.1,0.2-0.1
		c0.3-0.1,0.6-0.5,0.5-0.8C181.3,233.4,180.9,233.2,180.6,233.3"/>
	<path clip-path="url(#SVGID_2_)" fill="#E3E3E3" d="M202.1,229.9c-1.1,2.6,0.6,6,3.3,6.6c1.6,0.4,3.5-0.2,4.6-1.5
		c1.1-1.3,1.3-3.3,0.4-4.8c-0.5-0.8-1.2-1.6-2.1-2c-0.6-0.3-1.4-0.5-2.1-0.6c-0.4-0.1-0.8-0.2-1.3-0.1
		C203.9,227.8,202.6,228.9,202.1,229.9"/>
	<path clip-path="url(#SVGID_2_)" fill="#6B6B6B" d="M201.5,229.7c-0.7,1.7-0.3,3.8,0.7,5.4c1.2,1.7,3.2,2.5,5.2,2.2
		c2.2-0.4,3.9-2.1,4.2-4.3c0.3-2.3-1.2-4.6-3.4-5.5c-1.3-0.5-2.8-0.9-4.1-0.4c-1.1,0.5-2.1,1.3-2.6,2.4c-0.2,0.3-0.1,0.7,0.2,0.9
		c0.3,0.2,0.8,0.1,0.9-0.2c0.4-0.8,1-1.4,1.8-1.8c0.9-0.4,1.7-0.2,2.6,0.1c1.7,0.5,3.2,2,3.2,3.9c0,1.7-1.3,3-2.9,3.4
		c-1.5,0.3-2.9-0.2-3.9-1.4c-1-1.2-1.3-2.9-0.7-4.4c0.1-0.3-0.2-0.8-0.5-0.8C201.9,229.1,201.6,229.4,201.5,229.7"/>
	<path clip-path="url(#SVGID_2_)" fill="#6B6B6B" d="M225.3,263.3c-3.6,1.6-7.9,1.4-11.7,1.1c-4.4-0.4-8.8-1.3-13.1-2.3
		c-4.4-1-8.7-2.1-12.9-3.9c-4.9-2.2-9.3-5.2-13.4-8.7c-0.7-0.6-1.7,0.4-1,1c4.3,3.7,9,6.9,14.2,9.2c4.2,1.8,8.6,2.9,13.1,3.9
		c4.5,1,9,1.9,13.5,2.3c3.9,0.3,8.2,0.4,11.9-1.3C226.8,264.1,226.1,262.9,225.3,263.3"/>
	<path clip-path="url(#SVGID_2_)" fill="#6B6B6B" d="M170.5,249.5c1.2,2.7,2.1,5.5,3.6,8c1.3,2.2,3.2,4.7,5.8,5.3
		c1.4,0.3,2.9,0.2,4.3,0.2c1.7,0,3.3-0.1,5-0.3c3.4-0.3,6.4-0.4,9.7,0.4c0.9,0.2,1.2-1.1,0.4-1.3c-2.7-0.6-5.2-0.9-8-0.6
		c-3.1,0.3-6.2,0.6-9.4,0.5c-6.2-0.1-8.2-8.2-10.2-12.8C171.4,248,170.2,248.7,170.5,249.5"/>
	<path clip-path="url(#SVGID_2_)" fill="#6B6B6B" d="M154.5,226.8c-2.4-7.6-3.5-15.4-4-23.3c-0.3-3.8-0.4-7.6-0.6-11.5
		c-0.2-3.8-0.3-7.6,1.1-11.2c-0.4,0.1-0.8,0.2-1.2,0.3c5.7,4.9,9.8,11,13.7,17.3c3.2,5.1,6.7,11.1,13.1,12.5
		c0.9,0.2,1.2-1.1,0.4-1.3c-6.8-1.5-10.2-8.6-13.6-14c-3.6-5.7-7.5-11.1-12.6-15.5c-0.4-0.4-1-0.2-1.2,0.3c-1.3,3.4-1.3,7-1.2,10.6
		c0.2,4.1,0.3,8.3,0.6,12.4c0.6,8,1.6,16,4.1,23.7C153.5,228,154.8,227.7,154.5,226.8"/>
	<path clip-path="url(#SVGID_2_)" fill="#6B6B6B" d="M170.4,225.4c2.2-1.8,5.1-2.3,7.7-1.4c2.6,0.9,4.7,2.9,6.6,4.7
		c0.6,0.6,1.6-0.4,1-1c-2.2-2.1-4.7-4.4-7.7-5.2c-3-0.9-6.2-0.1-8.6,1.9C168.7,224.9,169.7,225.9,170.4,225.4"/>
	<path clip-path="url(#SVGID_2_)" fill="#6B6B6B" d="M186.3,228.2c-1.6-2.2-3.1-4.5-4.8-6.7c-1.6-2-3.5-3.6-5.5-5
		c-0.2-0.1-0.5-0.1-0.7,0c-3.6,1.9-7.5,4.3-7.9,8.8c-0.1,0.9,1.3,0.9,1.4,0c0.4-3.9,4.2-6,7.2-7.6h-0.7c4.3,2.8,7,7.1,9.9,11.2
		C185.6,229.6,186.8,228.9,186.3,228.2"/>
	<path clip-path="url(#SVGID_2_)" fill="#6B6B6B" d="M168.9,222c-0.5,1.1-0.7,2.3-0.6,3.5c0,0.3,0.2,0.5,0.4,0.6
		c0.2,0.1,0.6,0.1,0.8-0.1c0.5-0.6,0.9-1.4,1-2.2c0.1-0.4-0.1-0.8-0.5-0.8c-0.3-0.1-0.8,0.1-0.8,0.5c0,0.2-0.1,0.3-0.1,0.5
		c0,0.1,0,0.1-0.1,0.2c0,0-0.1,0.2,0,0.1c0-0.1,0,0.1,0,0.1c-0.1,0.1-0.1,0.3-0.2,0.4c0,0.1-0.1,0.1-0.1,0.2c-0.1,0.1,0,0,0,0
		c0,0-0.1,0.1-0.1,0.1l1.2,0.5c0-0.3,0-0.5,0-0.8c0-0.1,0-0.2,0-0.3c0,0,0-0.3,0-0.1c0-0.1,0-0.1,0-0.2c0-0.2,0.1-0.5,0.2-0.7
		c0-0.1,0.1-0.3,0.1-0.4c0-0.1,0-0.1,0.1-0.2c0,0,0.1-0.3,0-0.1c0.1-0.2,0.1-0.3,0.1-0.5c0-0.2-0.2-0.3-0.3-0.4
		C169.5,221.6,169,221.7,168.9,222"/>
	<path clip-path="url(#SVGID_2_)" fill="#6B6B6B" d="M171.4,219.3c-0.6,1.6-1.3,3.3-1.9,4.9c-0.2,0.7,0.7,1.2,1.2,0.7
		c0.8-0.8,1.3-1.8,1.6-2.9c0.2-0.9-1.1-1.2-1.3-0.4c-0.2,0.8-0.7,1.6-1.3,2.3c0.4,0.2,0.8,0.4,1.2,0.7c0.6-1.6,1.3-3.3,1.9-4.9
		c0.1-0.3-0.1-0.8-0.5-0.8C171.9,218.7,171.5,218.9,171.4,219.3"/>
	<path clip-path="url(#SVGID_2_)" d="M172.1,219.8c-0.3,0.7-0.6,1.4-0.8,2.1c-0.1,0.1,0,0.4,0.1,0.5c0.1,0.1,0.2,0.2,0.3,0.3
		c0.3,0.1,0.7,0,0.9-0.3c0.3-0.5,0.6-1,0.9-1.5c0.2-0.3,0.1-0.8-0.2-0.9c-0.3-0.2-0.7-0.1-0.9,0.2l-0.9,1.5c0.4,0.2,0.8,0.4,1.3,0.5
		c0.3-0.7,0.6-1.4,0.8-2.1c0.1-0.2,0-0.4-0.1-0.5c-0.1-0.1-0.2-0.3-0.4-0.3c-0.2,0-0.4,0-0.5,0.1
		C172.2,219.5,172.2,219.6,172.1,219.8"/>
	<path clip-path="url(#SVGID_2_)" fill="#6B6B6B" d="M172.8,219.1c-0.9,1.1-1.6,2.3-2.2,3.6c-0.1,0.3-0.1,0.7,0.2,0.9
		c0.3,0.2,0.7,0.2,0.9-0.1c0.3-0.4,0.7-0.7,1-1.1c0.2-0.3,0.3-0.7,0-1c-0.3-0.2-0.7-0.3-1,0c-0.3,0.4-0.7,0.7-1,1.1
		c0.4,0.3,0.7,0.6,1.1,0.8c0.3-0.6,0.6-1.2,0.9-1.8c0.2-0.3,0.4-0.6,0.5-0.8c0.1-0.1,0.2-0.3,0.3-0.4c0-0.1,0.1-0.1,0.1-0.2
		c0,0,0.1-0.1,0.1-0.1c0,0.1,0,0.1,0,0c0.1-0.1,0.2-0.3,0.2-0.5c0-0.2-0.1-0.4-0.2-0.5C173.5,218.9,173,218.8,172.8,219.1"/>
	<path clip-path="url(#SVGID_2_)" d="M174.8,219c-0.7,0.7-1.3,1.5-1.8,2.5c-0.1,0.3-0.1,0.6,0.1,0.8c0.1,0.1,0.2,0.1,0.3,0.2
		c0.1,0,0.4,0,0.5-0.1c0.5-0.4,1-0.9,1.4-1.5c0.2-0.3,0.1-0.8-0.2-0.9c-0.3-0.2-0.7-0.1-0.9,0.2c-0.1,0.1-0.1,0.2-0.2,0.3
		c0,0,0,0.1-0.1,0.1c0,0,0.1-0.1,0,0c0,0.1-0.1,0.1-0.1,0.2c-0.1,0.1-0.2,0.2-0.3,0.3c0,0-0.1,0.1-0.1,0.1c0,0,0,0-0.1,0.1
		c0,0,0.1,0,0.1-0.1c0,0,0,0-0.1,0l0.9,0.9c0.2-0.4,0.4-0.8,0.7-1.2c0,0,0.1-0.1,0.1-0.1c0,0,0-0.1,0.1-0.1c0,0-0.1,0.1,0,0
		c0.1-0.1,0.1-0.2,0.2-0.3c0.2-0.2,0.3-0.4,0.5-0.5c0.3-0.3,0.3-0.7,0-1C175.5,218.7,175.1,218.7,174.8,219"/>
	<path clip-path="url(#SVGID_2_)" d="M175.6,218.9c-0.4,0.6-0.8,1.2-1.2,1.8c-0.1,0.1-0.1,0.2-0.1,0.3c0,0.2,0.1,0.3,0.1,0.4
		c0.2,0.2,0.5,0.3,0.7,0.2c0.3-0.1,0.5-0.2,0.7-0.4c0.2-0.2,0.3-0.4,0.4-0.7c0.1-0.2,0-0.4-0.1-0.5c-0.1-0.1-0.2-0.3-0.4-0.3
		c-0.2,0-0.4,0-0.5,0.1c-0.2,0.1-0.2,0.2-0.3,0.4c0,0,0,0,0,0c0-0.1,0-0.1,0.1-0.2c0,0.1-0.1,0.2-0.1,0.2c0,0,0.1-0.1,0.1-0.1
		c-0.1,0.1-0.1,0.1-0.2,0.2c0,0,0.1-0.1,0.1-0.1c-0.1,0.1-0.2,0.1-0.2,0.1c0.1,0,0.1,0,0.2-0.1c0,0,0,0-0.1,0c0.3,0.3,0.5,0.7,0.8,1
		c0.4-0.6,0.8-1.2,1.2-1.8c0.1-0.1,0.1-0.4,0.1-0.5c0-0.2-0.2-0.3-0.3-0.4C176.2,218.5,175.9,218.6,175.6,218.9"/>
	<path clip-path="url(#SVGID_2_)" fill="#6B6B6B" d="M176,218.9c-0.5,0.9-1.1,1.8-1.6,2.7c-0.2,0.3-0.1,0.7,0.2,0.9
		c0.3,0.2,0.7,0.2,0.9-0.1c0.2-0.3,0.5-0.5,0.8-0.7c0.1-0.1,0.3-0.2,0.4-0.3c0,0,0.1-0.1,0.1-0.1c0.1-0.1-0.1,0.1,0,0
		c0.1-0.1,0.2-0.1,0.2-0.2c0.1-0.1,0.3-0.2,0.3-0.4c0-0.2,0-0.4-0.1-0.5c-0.2-0.3-0.6-0.5-0.9-0.2c-0.6,0.5-1.2,1-1.8,1.5
		c0.4,0.3,0.7,0.6,1.1,0.8c0.5-0.9,1.1-1.8,1.6-2.7c0.2-0.3,0.1-0.8-0.2-0.9C176.6,218.5,176.2,218.6,176,218.9"/>
	<path clip-path="url(#SVGID_2_)" fill="#6B6B6B" d="M176,220.2c-0.2,0.6-0.3,1.3-0.5,1.9c-0.1,0.3,0,0.6,0.3,0.8
		c0.1,0.1,0.2,0.1,0.3,0.1c0.2,0,0.3-0.1,0.5-0.2l1.8-1.4c0.1-0.1,0.2-0.3,0.2-0.5c0-0.2-0.1-0.4-0.2-0.5c-0.1-0.1-0.3-0.2-0.5-0.2
		c-0.1,0-0.1,0-0.2,0c-0.1,0-0.2,0.1-0.3,0.2l-1.8,1.4c0.4,0.2,0.8,0.4,1.2,0.7c0.2-0.6,0.3-1.3,0.5-1.9c0.1-0.3-0.1-0.8-0.5-0.8
		C176.4,219.6,176.1,219.8,176,220.2"/>
	<path clip-path="url(#SVGID_2_)" fill="#6B6B6B" d="M177.8,220.7c-0.2,0.5-0.4,1-0.7,1.5c-0.1,0.3-0.1,0.7,0.2,0.9
		c0.3,0.2,0.6,0.2,0.9-0.1c0.4-0.4,0.8-0.7,1.2-1.1c-0.4-0.2-0.8-0.4-1.2-0.7c0,0.1-0.1,0.3-0.1,0.4c0,0.1,0,0.1-0.1,0.2
		c0,0.1,0,0.1,0,0c0,0,0,0.1,0,0.1c-0.1,0.3-0.3,0.5-0.4,0.7c-0.3,0.4,0.1,1,0.6,1c0.5,0,0.9-0.3,1.2-0.6c0.1-0.1-0.1,0.1,0,0
		c0,0,0.1,0,0.1-0.1c0.1-0.1-0.1,0,0,0c0,0-0.1,0-0.1,0c0.1,0,0,0,0,0c-0.1,0-0.1,0-0.1,0c-0.1-0.1-0.1-0.1,0,0c0,0,0,0,0,0
		c0,0.1,0,0.1,0,0c0-0.1,0,0.1,0,0.1c0,0.1,0,0.1,0.1,0.2c0.4,1,1.2,1.8,2.3,2.1c0.3,0.1,0.8-0.1,0.8-0.5c0.1-0.4-0.1-0.8-0.5-0.8
		c-0.1,0-0.2-0.1-0.3-0.1c0.1,0.1,0,0,0,0c-0.1,0-0.1-0.1-0.2-0.1c0,0-0.1-0.1-0.1-0.1c0,0-0.1-0.1,0,0c-0.1-0.1-0.2-0.2-0.3-0.2
		c0,0-0.1-0.1-0.1-0.1c-0.1-0.1,0,0.1,0,0c-0.1-0.1-0.1-0.2-0.2-0.3c0-0.1-0.1-0.2,0,0c0-0.1,0-0.1-0.1-0.2c0-0.1-0.1-0.3-0.2-0.4
		c-0.3-0.6-1-0.7-1.6-0.4c-0.2,0.1-0.3,0.3-0.5,0.4c-0.1,0.1,0.1,0,0,0c0,0-0.1,0-0.1,0.1c-0.1,0.1,0.1,0,0,0c-0.2,0.1,0.1,0,0,0
		c0.2,0.3,0.4,0.7,0.6,1c0.4-0.5,0.7-1.1,0.8-1.8c0.2-0.7-0.6-1.1-1.2-0.7c-0.4,0.4-0.8,0.7-1.2,1.1c0.4,0.3,0.7,0.6,1.1,0.8
		c0.2-0.5,0.4-1,0.7-1.5c0.1-0.3,0.1-0.8-0.2-0.9C178.5,220.3,178,220.4,177.8,220.7"/>
	<path clip-path="url(#SVGID_2_)" fill="#6B6B6B" d="M203,225c0.3-1,1.3-1.7,2.4-1.7c1,0,2,0.7,2.4,1.7c0.1,0.4,0.5,0.6,0.8,0.5
		c0.3-0.1,0.6-0.5,0.5-0.8c-0.5-1.6-2-2.7-3.7-2.7c-1.7,0-3.2,1.2-3.7,2.7c-0.1,0.4,0.1,0.8,0.5,0.8
		C202.5,225.5,202.9,225.3,203,225"/>
	<path clip-path="url(#SVGID_2_)" fill="#6B6B6B" d="M202.8,226.8c0.9-1.6,2.8-2.6,4.6-2.5c0.4,0,0.7-0.3,0.7-0.7
		c0-0.4-0.3-0.7-0.7-0.7c-2.3-0.2-4.7,1.1-5.8,3.2C201.2,226.9,202.4,227.6,202.8,226.8"/>
	<path clip-path="url(#SVGID_2_)" fill="#6B6B6B" d="M157.1,281.8c5.9,2.7,10.3,8.6,17.1,9.3c3.1,0.4,5.4-0.9,8-2.4
		c3.4-1.9,7.2-3.1,11-3.5c0.4,0,0.8-0.4,0.7-0.9c-0.7-1.7-1-3.4-1-5.3c-0.2,0.2-0.3,0.4-0.5,0.7c3.8-1.2,7.6-2.2,11.5-2.8
		c0.3,0,0.5-0.4,0.5-0.7c0.1-4.2,0.6-8.3,1.4-12.4c0.2-0.9-1.1-1.2-1.3-0.4c-0.9,4.2-1.3,8.5-1.5,12.8c0.2-0.2,0.3-0.4,0.5-0.7
		c-3.9,0.7-7.7,1.6-11.5,2.8c-0.3,0.1-0.5,0.4-0.5,0.7c0,2,0.4,3.8,1.1,5.6c0.2-0.3,0.4-0.6,0.7-0.9c-3.1,0.3-6.1,1.1-8.9,2.3
		c-3,1.3-5.6,3.7-9,3.7c-6.9,0-11.7-6.5-17.6-9.2C157,280.3,156.3,281.4,157.1,281.8"/>
	<path clip-path="url(#SVGID_2_)" fill="#6B6B6B" d="M211.4,192.7c-3,4.8-5.7,9.7-8.1,14.7c-0.9,1.8-2.6,4.3-1.4,6.3
		c0.8,1.4,3.1,1.7,3.6,3.3c0.2,0.8,1.6,0.5,1.3-0.4c-0.4-1.5-1.7-2-2.9-2.8c-1.2-0.8-1.1-1.9-0.6-3.2c0.5-1.3,1.2-2.5,1.8-3.7
		c2.3-4.6,4.8-9.1,7.5-13.5C213.1,192.7,211.9,192,211.4,192.7"/>
	<path clip-path="url(#SVGID_2_)" fill="#6B6B6B" d="M226.6,259.9c-0.8,0.8-1.4,1.8-1.8,2.8c0,0.1,0,0.3,0,0.4
		c0,0.1,0.1,0.3,0.2,0.4c0.2,0.2,0.5,0.2,0.8,0.1c0.7-0.3,1.2-0.8,1.7-1.5c0.2-0.3,0.1-0.8-0.2-0.9c-0.4-0.2-0.7-0.1-0.9,0.2
		c0,0,0,0.1-0.1,0.1c-0.1,0.1,0.1-0.1,0,0c0,0.1-0.1,0.1-0.1,0.2c-0.1,0.1-0.2,0.2-0.3,0.3c0,0-0.1,0-0.1,0.1c-0.1,0.1,0.1-0.1,0,0
		c-0.1,0-0.1,0.1-0.2,0.1c-0.1,0.1-0.3,0.2-0.4,0.2c0.3,0.3,0.7,0.5,1,0.8c0,0-0.1,0.1,0,0l0-0.1c0-0.1,0-0.1,0.1-0.2
		c0.1-0.1,0.1-0.2,0.2-0.3c0.1-0.2,0.2-0.4,0.4-0.6c0.1-0.1,0.1-0.2,0.2-0.3c0,0,0.1-0.1,0.1-0.1c0,0-0.1,0.1,0,0c0,0,0-0.1,0.1-0.1
		c0.2-0.2,0.3-0.4,0.5-0.6c0.3-0.3,0.3-0.7,0-1C227.3,259.6,226.9,259.6,226.6,259.9"/>
	<path clip-path="url(#SVGID_2_)" fill="#6B6B6B" d="M227.3,260.5c-0.3,0.5-0.7,1-1,1.5c-0.2,0.2-0.1,0.6,0.1,0.8
		c0.2,0.2,0.4,0.3,0.7,0.2c0.2-0.1,0.5-0.1,0.7-0.2c-0.3-0.2-0.6-0.4-0.9-0.7c0,0.2,0,0.5,0,0.7c0,0.4,0.3,0.7,0.7,0.7
		c0.4,0,0.7-0.3,0.7-0.7c0-0.2,0-0.5,0-0.7c0-0.5-0.4-0.8-0.9-0.7c-0.2,0.1-0.5,0.1-0.7,0.2c0.3,0.3,0.5,0.7,0.8,1
		c0.3-0.5,0.7-1,1-1.5c0.2-0.3,0.1-0.8-0.2-0.9C227.9,260.1,227.5,260.2,227.3,260.5"/>
	<path clip-path="url(#SVGID_2_)" fill="#6B6B6B" d="M225.8,259.9c0.9,1.3,2.2,2.3,3.8,2.7c0.3,0.1,0.8-0.1,0.8-0.5
		c0.1-0.4-0.1-0.7-0.5-0.8c-0.2,0-0.3-0.1-0.5-0.2c0,0-0.1,0-0.1,0c0.1,0,0.1,0,0,0c-0.1,0-0.1-0.1-0.2-0.1
		c-0.3-0.2-0.6-0.3-0.9-0.5c0,0-0.1,0-0.1-0.1c-0.1,0-0.1-0.1,0,0c-0.1,0-0.1-0.1-0.2-0.2c-0.1-0.1-0.2-0.2-0.4-0.3
		c-0.1-0.1-0.2-0.2-0.3-0.4c-0.1-0.1-0.1-0.1-0.2-0.2c0,0,0.1,0.1,0,0c0,0-0.1-0.1-0.1-0.1c-0.2-0.3-0.6-0.5-0.9-0.2
		C225.8,259.1,225.6,259.6,225.8,259.9"/>
	<path clip-path="url(#SVGID_2_)" fill="#6B6B6B" d="M227.4,261.2c0.3,0.1,0.6,0.3,0.8,0.5l-0.1-0.1c0.3,0.2,0.5,0.4,0.7,0.7
		c0,0-0.1-0.1-0.1-0.1c0.1,0.1,0.2,0.2,0.2,0.3c0.1,0.1,0.2,0.3,0.4,0.3c0.2,0,0.4,0,0.5-0.1c0.3-0.2,0.5-0.6,0.2-0.9
		c-0.5-0.8-1.2-1.4-2-1.8c-0.2-0.1-0.3-0.1-0.5-0.1c-0.2,0-0.3,0.2-0.4,0.3c-0.1,0.2-0.1,0.4-0.1,0.5
		C227.2,260.9,227.3,261.1,227.4,261.2"/>
	<path clip-path="url(#SVGID_2_)" fill="#B3B3B3" d="M157.3,215.7c0.3,1.2,0.9,2.6,2.1,2.7c0.2,0,0.5,0,0.7-0.1
		c0.2-0.1,0.3-0.3,0.4-0.5c1.3-2.6,0.5-5.7-0.5-8.5c-1.4-4.2-3.1-8.3-5-12.3c-0.3-0.7-0.7-1.3-1.4-1.7c-1.2,2.1,0.7,7.7,1.2,10.1
		C155.5,209,156.3,212.4,157.3,215.7"/>
	<path clip-path="url(#SVGID_2_)" fill="#6B6B6B" d="M159.2,218c0.1,0.6,0,1.1-0.5,0.4c-0.2-0.3-0.3-1-0.4-1.3
		c-0.3-1.1-0.6-2.1-0.8-3.2c-0.5-2-1-4.1-1.4-6.1c-0.9-4.2-1.6-8.4-2.2-12.7c-0.1-0.9-1.5-0.5-1.3,0.4c0.8,5.9,2,11.8,3.4,17.7
		c0.3,1.4,0.7,2.9,1.1,4.3c0.2,0.9,0.5,2,1.3,2.6c0.6,0.4,1.4,0.4,1.9-0.1c0.6-0.6,0.5-1.5,0.4-2.3
		C160.4,216.7,159.1,217.1,159.2,218"/>
	<path clip-path="url(#SVGID_2_)" fill="#6B6B6B" d="M207.4,231.8c-0.6,0.3-1,0.9-1.2,1.5c-0.1,0.2,0,0.5,0.2,0.7
		c0.2,0.2,0.4,0.3,0.7,0.2c0.1,0,0.3-0.1,0.4-0.2c0.2-0.1,0.3-0.2,0.4-0.4c0.1-0.2,0.2-0.4,0.3-0.6c0-0.3,0.1-0.6,0-0.8
		c-0.1-0.3-0.2-0.5-0.4-0.7c0,0-0.1-0.1-0.1-0.1c-0.1-0.1-0.2-0.1-0.3-0.1c-0.1,0-0.3,0-0.4,0.1c-0.4,0.2-0.6,0.6-0.6,1
		c0,0.3,0.1,0.7,0.4,1c0.3,0.3,0.7,0.4,1.1,0.3c0.3-0.1,0.7-0.3,0.8-0.6c0.1-0.1,0.1-0.2,0.1-0.3c0-0.1,0-0.2,0-0.3
		c0-0.2-0.2-0.3-0.3-0.4c-0.2-0.1-0.4-0.1-0.5-0.1c-0.2,0.1-0.3,0.2-0.4,0.3c0,0,0,0.1-0.1,0.1c0,0,0.1-0.1,0.1-0.1
		c0,0-0.1,0.1-0.1,0.1c0,0,0.1-0.1,0.1-0.1c0,0-0.1,0.1-0.1,0.1c0.1,0,0.1,0,0.2-0.1c-0.1,0-0.1,0-0.2,0c0.1,0,0.1,0,0.2,0
		c0,0-0.1,0-0.1,0l0.2,0c-0.1,0-0.1,0-0.1,0c0.1,0,0.1,0,0.2,0.1c0,0-0.1,0-0.1-0.1c0,0,0.1,0.1,0.1,0.1c0,0-0.1,0-0.1-0.1l0.1,0.1
		c0,0,0-0.1-0.1-0.1c0,0.1,0,0.1,0.1,0.2c0,0,0-0.1,0-0.1c0,0.1,0,0.1,0,0.2c0-0.1,0-0.1,0-0.2c0,0.1,0,0.1,0,0.2c0-0.1,0-0.1,0-0.2
		c0,0.1,0,0.1-0.1,0.2c0,0,0-0.1,0.1-0.1l-0.1,0.1c0,0,0-0.1,0.1-0.1c0,0-0.1,0.1-0.1,0.1c0,0,0,0,0,0c-0.3,0-0.6-0.1-0.8-0.1
		c0,0,0.1,0.1,0.1,0.1c0,0-0.1-0.1-0.1-0.1c0,0.1,0.1,0.1,0.1,0.2c0-0.1,0-0.1-0.1-0.2c0,0.1,0.1,0.1,0.1,0.2c0-0.1,0-0.1,0-0.2
		c0,0.1,0,0.2,0,0.3c0-0.1,0-0.1,0-0.2c0,0.1,0,0.2-0.1,0.3c0-0.1,0-0.1,0.1-0.2c0,0.1-0.1,0.1-0.1,0.2c0,0,0.1-0.1,0.1-0.1
		c0,0.1-0.1,0.1-0.1,0.1c0,0,0.1-0.1,0.1-0.1c-0.1,0-0.1,0.1-0.2,0.1l0.2-0.1c0,0,0,0-0.1,0c0.3,0.3,0.6,0.6,0.8,0.8
		c0-0.1,0-0.2,0.1-0.3c0,0.1,0,0.1-0.1,0.2c0.1-0.1,0.1-0.2,0.2-0.4c0,0-0.1,0.1-0.1,0.1c0.1-0.1,0.2-0.2,0.3-0.3
		c0,0-0.1,0.1-0.1,0.1c0.1-0.1,0.2-0.1,0.3-0.2c0.1-0.1,0.3-0.3,0.3-0.4c0-0.2,0-0.4-0.1-0.5c-0.1-0.1-0.2-0.3-0.4-0.3
		C207.7,231.7,207.6,231.8,207.4,231.8"/>
	<path clip-path="url(#SVGID_2_)" fill="#6B6B6B" d="M208.2,231.3c0-0.1-0.1-0.2-0.2-0.3c-0.1-0.1-0.2-0.2-0.3-0.2
		c-0.1-0.1-0.2-0.1-0.3-0.1c-0.1,0-0.2,0-0.3,0c0,0-0.1,0-0.1,0c-0.1,0-0.2,0-0.3,0c-0.1,0-0.2,0.1-0.3,0.1c0,0-0.1,0-0.1,0
		c-0.1,0.1-0.2,0.2-0.3,0.3c-0.1,0.1-0.1,0.3-0.1,0.5c0,0.2,0,0.3,0.2,0.5c0.1,0.1,0.2,0.3,0.4,0.4c0.2,0.1,0.3,0.1,0.4,0.1
		c0.1,0,0.2,0,0.3,0c0.1,0,0.2-0.1,0.2-0.1c0.1,0,0.1-0.1,0.2-0.2c0.1-0.1,0.1-0.2,0.1-0.3c0-0.1,0-0.2,0-0.3
		c-0.1-0.2-0.2-0.3-0.3-0.4l-0.2-0.1c-0.1,0-0.2,0-0.4,0c0,0,0,0-0.1,0c0.1,0,0.1,0,0.2,0c0,0,0,0,0,0c0.1,0,0.1,0,0.2,0
		c0,0,0,0-0.1,0c0.1,0,0.1,0,0.2,0.1c0,0,0,0-0.1,0c0,0,0.1,0.1,0.1,0.1c0,0,0,0-0.1-0.1c0,0,0.1,0.1,0.1,0.1c0,0,0-0.1-0.1-0.1
		c0,0.1,0,0.1,0.1,0.2c0,0,0,0,0-0.1c0,0.1,0,0.1,0,0.2c0,0,0,0,0-0.1c0,0.1,0,0.1,0,0.2c0,0,0,0,0-0.1c0,0.1,0,0.1-0.1,0.2
		c0,0,0,0,0,0c0,0-0.1,0.1-0.1,0.1c0,0,0,0,0,0c0,0-0.1,0.1-0.1,0.1c0,0,0.1,0,0.1-0.1c-0.1,0-0.1,0-0.2,0.1c0,0,0.1,0,0.1,0
		c-0.1,0-0.1,0-0.2,0c0.1,0,0.1,0,0.2,0c-0.1,0-0.1,0-0.2,0c0.1,0,0.1,0,0.2,0c-0.1,0-0.1,0-0.2-0.1c0.1,0,0.1,0.1,0.1,0.1
		c0,0-0.1-0.1-0.1-0.1c0,0,0.1,0.1,0.1,0.1c0,0-0.1-0.1-0.1-0.1c0,0,0,0.1,0.1,0.1c0,0.1,0.1,0.1,0.2,0.2c0.1,0.1,0.1,0.1,0.2,0.1
		c0.1,0,0.2,0,0.3,0c0.1,0,0.2,0,0.3-0.1c0.1-0.1,0.3-0.2,0.3-0.4c0-0.1,0-0.1,0-0.2C208.3,231.5,208.3,231.4,208.2,231.3"/>
	<path clip-path="url(#SVGID_2_)" fill="#6B6B6B" d="M206.6,233.4c0.2-0.1,0.3-0.1,0.5-0.2c-0.3-0.1-0.5-0.2-0.8-0.3l0,0
		c0-0.1,0-0.1-0.1-0.2c0,0,0,0,0,0c0-0.1,0-0.1,0-0.2v0c0-0.1,0-0.1,0-0.2c0,0,0,0,0,0c0-0.1,0-0.1,0.1-0.2c0,0,0,0,0,0
		c0,0,0.1-0.1,0.1-0.1c0,0,0,0,0,0c0,0,0.1-0.1,0.1-0.1c0,0,0,0,0,0c0.1,0,0.1,0,0.2-0.1c0,0,0,0-0.1,0c0.1,0,0.1,0,0.2,0
		c0,0,0,0,0,0c0.1,0,0.1,0,0.2,0c0,0,0,0,0,0c0.1,0,0.1,0,0.2,0.1c0,0,0,0,0,0c0,0,0.1,0.1,0.1,0.1c0,0,0,0,0,0l0.1,0.1
		c0,0,0,0,0-0.1c0,0.1,0,0.1,0.1,0.2c0,0,0,0,0-0.1c0,0.1,0,0.1,0,0.2c0,0,0-0.1,0-0.1c0,0.1,0,0.1,0,0.2c0-0.1,0.1-0.2,0.1-0.3
		c0-0.1,0-0.2,0-0.2c0-0.1,0-0.2,0-0.2c0,0,0,0,0-0.1c0-0.1-0.1-0.2-0.1-0.2c0-0.1-0.1-0.1-0.2-0.2c-0.1-0.1-0.1-0.1-0.2-0.1
		c-0.1,0-0.2,0-0.3,0c-0.1,0-0.2,0-0.3,0.1c-0.1,0.1-0.3,0.2-0.3,0.4c0,0.1,0,0.1,0,0.2c0,0.1,0,0.2,0.1,0.3c0,0,0,0,0,0.1
		c0-0.1,0-0.1-0.1-0.2c0,0,0,0,0,0.1c0-0.1,0-0.1,0-0.2c0,0,0,0.1,0,0.1c0-0.1,0-0.1,0-0.2c0,0.1,0,0.1,0,0.2c0,0.1,0,0.2-0.1,0.3
		c0,0,0,0.1,0,0.1c0,0.1,0,0.2,0,0.3c0.1,0.2,0.2,0.4,0.4,0.5c0.3,0.2,0.6,0.2,0.9,0c0.1,0,0.1-0.1,0.2-0.1c0,0,0,0,0,0
		c0.1-0.1,0.2-0.2,0.2-0.3c0.1-0.2,0-0.4-0.1-0.6l-0.1-0.1c-0.1-0.1-0.1-0.1-0.2-0.1c-0.1,0-0.1,0-0.2,0c-0.1,0-0.2,0-0.3,0
		c-0.2,0.1-0.3,0.1-0.5,0.2c-0.2,0.1-0.3,0.2-0.4,0.3c-0.1,0.1-0.1,0.2-0.1,0.3c0,0.1,0,0.2,0,0.3c0.1,0.2,0.2,0.3,0.3,0.4
		C206.3,233.4,206.5,233.4,206.6,233.4"/>
	<path clip-path="url(#SVGID_2_)" fill="#6B6B6B" d="M207.1,232.3C207.2,232.3,207.2,232.3,207.1,232.3
		C207.1,232.3,207.1,232.2,207.1,232.3C207.1,232.2,207.1,232.2,207.1,232.3c0-0.1-0.1-0.1-0.1-0.2
		C207.1,232.1,207.1,232.2,207.1,232.3c-0.1-0.1-0.1-0.2-0.1-0.3c0,0,0,0.1,0,0.1c0-0.1,0-0.1,0-0.2c0,0,0,0.1,0,0.1
		c0-0.1,0-0.1,0.1-0.2c0,0,0,0,0,0c-0.1,0.1-0.1,0.2-0.1,0.3c0,0.1,0,0.2,0,0.3c0,0.1,0.1,0.2,0.1,0.2c0,0.1,0.1,0.1,0.2,0.2
		l0.2,0.1c0.1,0,0.2,0,0.4,0l0.2-0.1c0.1-0.1,0.2-0.1,0.2-0.2c0-0.1,0.1-0.1,0.1-0.2c0,0,0,0,0,0c0-0.1,0-0.2,0-0.2c0,0,0,0,0-0.1
		c0-0.1,0-0.2,0-0.2c0,0,0,0,0-0.1c0-0.1-0.1-0.1-0.1-0.2c0,0,0,0,0,0c0-0.1-0.1-0.1-0.1-0.2c0,0,0,0,0,0c-0.1-0.1-0.1-0.1-0.2-0.1
		c-0.1,0-0.2-0.1-0.3-0.1c-0.1,0-0.2,0-0.3,0.1c-0.1,0-0.2,0.1-0.2,0.1c0,0-0.1,0.1-0.1,0.1c-0.1,0.1-0.1,0.2-0.1,0.3
		c0,0.1,0,0.1,0,0.2C207,232.1,207,232.2,207.1,232.3"/>
	<path clip-path="url(#SVGID_2_)" fill="#6B6B6B" d="M224.9,260.5c-0.1,0.1-0.2,0.2-0.2,0.3c0.1-0.1-0.1,0.1-0.1,0.1
		c0,0-0.1,0.1-0.1,0.1c-0.2,0.2-0.4,0.4-0.6,0.6c-0.4,0.4-0.8,0.8-1.2,1.1c-0.2,0.1-0.2,0.5-0.2,0.7c0.1,0.2,0.2,0.4,0.5,0.5
		c0.5,0.1,0.9-0.1,1.4-0.4c0.3-0.2,0.7-0.5,1-0.7l-0.8-1.1c-0.3,0.3-0.6,0.6-0.9,0.9c-0.2,0.2-0.3,0.6-0.1,0.8
		c0.2,0.3,0.5,0.4,0.8,0.3c0.2,0,0.4-0.1,0.5-0.1c-0.3-0.3-0.6-0.6-0.8-0.8c0,0.1-0.1,0.2-0.1,0.3c-0.1,0.4,0.2,0.9,0.7,0.9
		c0.4,0,0.8-0.2,1-0.5c0.1-0.2,0.2-0.3,0.2-0.6c0-0.2-0.1-0.4-0.3-0.5c-0.2-0.1-0.5-0.1-0.8-0.1c0,0-0.1,0-0.1,0
		c0-0.1,0.3,0,0.3,0.1c0.1,0.1,0.2,0.2,0.2,0.3c0,0,0,0.1,0,0.1c0-0.1,0-0.1,0,0c-0.1,0.1,0,0,0,0c0-0.1-0.1,0.1,0,0
		c0,0,0.1-0.1,0.1-0.1c0.1-0.1,0.2-0.3,0.4-0.4c0.5-0.6,1-1.1,1.5-1.6c0.2-0.2,0.3-0.6,0.1-0.8c-0.2-0.2-0.5-0.4-0.8-0.3
		c-0.3,0.1-0.6,0.2-0.9,0.3c-0.3,0.1-0.6,0.5-0.5,0.8c0.1,0.3,0.5,0.6,0.8,0.5c0.3-0.1,0.6-0.2,0.9-0.3c-0.2-0.4-0.4-0.8-0.7-1.2
		c-0.6,0.6-1.2,1.3-1.8,1.9c-0.3,0.4-0.7,0.8-0.5,1.4c0.1,0.3,0.3,0.6,0.6,0.7c0.2,0.1,0.4,0,0.5,0c0,0,0.1,0,0.1,0
		c0.2-0.1,0,0.1-0.3-0.1c0-0.4-0.1-0.7-0.1-1.1c0,0-0.1,0.1-0.1,0.1c0,0,0.1-0.1,0,0c-0.1,0.1,0.1,0,0,0c-0.1,0,0.2,0,0,0
		c0.2,0.3,0.4,0.6,0.7,0.9c0-0.1,0.1-0.2,0.1-0.3c0.1-0.2,0-0.5-0.2-0.7c-0.2-0.2-0.4-0.2-0.7-0.2c-0.2,0-0.4,0.1-0.5,0.1
		c0.2,0.4,0.4,0.8,0.7,1.2c0.3-0.3,0.6-0.6,0.9-0.9c0.2-0.2,0.3-0.6,0.1-0.9c-0.2-0.3-0.6-0.4-0.9-0.2c-0.3,0.2-0.6,0.4-0.9,0.6
		c-0.1,0.1-0.3,0.2-0.4,0.3c-0.1,0-0.1,0.1-0.2,0.1c0.1,0,0.1,0,0,0c0.1,0,0.1,0,0.2,0c0.1,0.4,0.2,0.8,0.3,1.2
		c0.9-0.7,1.8-1.6,2.4-2.6c0.2-0.3,0.1-0.8-0.2-0.9C225.5,260.1,225.1,260.2,224.9,260.5"/>
	<path clip-path="url(#SVGID_2_)" fill="#6B6B6B" d="M225.7,264.5c1.5-0.4,3-1.1,4.2-2.1c0.3-0.2,0.3-0.7,0-1c-0.3-0.3-0.7-0.2-1,0
		c-0.1,0-0.1,0.1,0,0c0,0-0.1,0.1-0.1,0.1c-0.1,0.1-0.1,0.1-0.2,0.2c-0.1,0.1-0.3,0.2-0.4,0.3c-0.3,0.2-0.6,0.4-0.9,0.5
		c-0.1,0-0.1,0.1-0.2,0.1c0,0-0.3,0.1-0.1,0.1c-0.2,0.1-0.3,0.1-0.5,0.2c-0.3,0.1-0.7,0.2-1,0.3c-0.4,0.1-0.6,0.5-0.5,0.8
		C225,264.4,225.3,264.6,225.7,264.5"/>
	<path clip-path="url(#SVGID_2_)" fill="#6B6B6B" d="M172.7,221.7c0,0,0-0.1,0.1-0.1c-0.6,0.5,0.2,1.5,0.8,1.1
		c0.8-0.5,1.4-1.2,1.8-2c0.3-0.6-0.3-1.3-0.9-0.9c-0.3,0.2-0.6,0.4-0.9,0.5c0.3,0.4,0.6,0.7,0.8,1.1c0.8-0.9,1.2-1.9,1.3-3
		c0-0.6-0.6-0.8-1-0.6c-1.1,0.5-2.3,1-3.2,1.9c-0.7,0.7-1.3,1.7-2.3,1.9c-0.4,0.1-0.6,0.6-0.4,1c0.5,0.8,1.5,0.6,2.2,0.2
		c0.9-0.6,1.8-1.4,2.7-2.1c0.7-0.5,1.6-0.9,2.5-0.4c0.8,0.4,1.3,1.2,2.2,1.5c0.5,0.1,1-0.3,0.8-0.8c-0.4-1.5-1.7-2.4-3.2-2.6
		c-0.3,0-0.6,0.2-0.7,0.5c-0.1,0.3,0.1,0.6,0.3,0.8c0.1,0,0.1,0.1,0.2,0.1c0.7,0.5,1.4-0.7,0.7-1.2c-0.1,0-0.1-0.1-0.2-0.1
		c-0.1,0.4-0.2,0.9-0.3,1.3c0.9,0.1,1.6,0.8,1.9,1.6l0.8-0.8c-0.8-0.2-1.2-1-1.9-1.3c-0.8-0.4-1.8-0.5-2.6-0.3
		c-0.9,0.3-1.6,0.9-2.4,1.5c-0.4,0.3-0.9,0.7-1.3,1c-0.2,0.1-0.3,0.3-0.5,0.3c-0.2,0.1-0.1,0,0,0.2c-0.1,0.3-0.3,0.7-0.4,1
		c1.1-0.3,1.9-1.2,2.6-2c0.9-1,2-1.5,3.2-2c-0.3-0.2-0.7-0.4-1-0.6c-0.1,0.8-0.4,1.5-0.9,2.1c-0.5,0.6,0.1,1.5,0.8,1.1
		c0.3-0.2,0.6-0.4,0.9-0.5c-0.3-0.3-0.6-0.6-0.9-0.9c-0.3,0.6-0.7,1.2-1.3,1.5c0.3,0.4,0.6,0.7,0.8,1.1c0.2-0.2,0.4-0.5,0.3-0.8
		c0-0.4-0.3-0.7-0.7-0.7C173,221.1,172.6,221.4,172.7,221.7"/>
	<path clip-path="url(#SVGID_2_)" fill="#6B6B6B" d="M176.1,218.1c-0.1-0.1,0.1,0.1,0.1,0.2c0,0.1,0,0.1,0,0.2c0,0.1,0,0.1,0,0
		c-0.4,0-0.7,0.1-1.1,0.1c1,1.2,2.1,2.4,3.1,3.6c0.9,1,1.8,2,3.1,2.4c0.8,0.3,1.2-1.1,0.4-1.3c-1.1-0.4-1.9-1.3-2.6-2.2
		c-1-1.1-2-2.3-2.9-3.4c-0.3-0.4-0.8-0.2-1.1,0.1c-0.3,0.5-0.1,1.3,0.4,1.6c0.3,0.2,0.7,0.1,0.9-0.2
		C176.5,218.7,176.4,218.2,176.1,218.1"/>
	<path clip-path="url(#SVGID_2_)" fill="#6B6B6B" d="M171.6,223.4l4.5-1.1c0.4-0.1,0.6-0.5,0.5-0.8c-0.1-0.4-0.5-0.6-0.8-0.5
		l-4.5,1.1c-0.3,0.1-0.6,0.5-0.5,0.8C170.8,223.3,171.2,223.5,171.6,223.4"/>
	<path clip-path="url(#SVGID_2_)" fill="#6B6B6B" d="M202.2,226.9c0-0.3,0.1-0.5,0.2-0.8c0,0.1,0,0.1-0.1,0.2
		c0.1-0.3,0.3-0.5,0.5-0.8l-0.1,0.1c0.2-0.2,0.3-0.4,0.5-0.6c0.1-0.1,0.2-0.3,0.2-0.5c0-0.2-0.1-0.4-0.2-0.5
		c-0.1-0.1-0.3-0.2-0.5-0.2c-0.2,0-0.3,0.1-0.5,0.2c-0.7,0.6-1.2,1.5-1.4,2.4c0,0.2,0,0.4,0.1,0.5c0.1,0.1,0.2,0.3,0.4,0.3
		C201.7,227.5,202.2,227.3,202.2,226.9"/>
	<path clip-path="url(#SVGID_2_)" fill="#CDCDCD" d="M184.4,303.4c0,0.1,0.2,0,0.2,0.2c0-0.1,0.4-0.4,0-0.3c0.4-0.2,3.2-2.1,3.5-1.5
		c1.4-0.2,2.3,0.4,3.3,0.8c0.2,0.1,0.6,0,0.8,0.1c0.1,0,0.3,0.3,0.4,0.4c0.1,0.1,0.3-0.1,0.5,0c0.3,0.1,0.5,0.4,0.7,0.6
		c0.4,0.2,0.9,0.3,1.2,0.6l0,0.4c0.6,0.4-1.2,2.5-0.9,3c-0.3-0.1-0.2,0.3-0.5,0.2c0,0.3,0,0.5-0.1,0.6c-0.4,0-0.7,0-0.8,0.3
		c-1.5-0.5-2.1,0.3-3.4,0.5c-0.2,0.8-1,0.9-1,1.8c-1.1,0.5-1.2,2-1.2,3.5c1.4,0.6,3.8,0.8,5.3,1.5c0.5,0.2,1,0.7,1.4,0.9
		c0.2,0.1,0.3-0.1,0.5,0.1c0.1,0.1,0.3,0.3,0.4,0.5c0.2,0.1,0.3-0.1,0.4,0.1c0.2,0.1,0.3,0.5,0.6,0.7c0.1,0,0.3,0,0.3,0
		c0.1,0,0,0.2,0,0.3c0.4,0.3,0.8,0.4,1.1,0.7c0.3,0.4,0.2,0.9,0.7,1.1c0.1,0.1,0,0.2,0,0.4c0.4,0.1,0.2,0.8,0.6,0.7
		c0.1,0.3-0.3,1.1,0.1,1.6c-0.3,0.7-0.2,1.8-0.4,2.6c-0.2,0.6-0.4,1.3-1,1.5c0,0.1-0.1,0.2-0.1,0.4c-0.8,0.3-1,1.3-1.9,1.5
		c-0.6,0.4-0.7,1.1-1.6,1.1c-0.7,0.8-2.6,0.6-3.4,1.4c-0.4,0.1-1-0.1-1,0.3c-0.6,0-1.2,0-1.4,0.4c-0.3,0.1-0.3-0.3-0.5,0
		c-0.2,0.2-0.1-0.3-0.3-0.1c-0.9,0.5-2.2,0.2-2.9,0c-0.1,0-0.1-0.2-0.1-0.3c-0.7,0.4-1.1-0.7-1.8-0.3c-0.1-0.1,0-0.1,0-0.3
		c-0.2,0.6-0.7-0.6-0.8-0.1c-0.1-0.2-0.6-0.3-0.4-0.5c-0.1,0.1-0.5-0.1-0.5,0.1c-0.8-1.1-2-1.7-2.6-3c-0.2,0.1-0.2-0.1-0.4-0.1
		c-0.3-0.1,0,0.4-0.4,0.3c-0.1-0.5-0.5-0.8-0.2-1.2c-0.1-0.1-0.2-0.2-0.4-0.2c0-0.9,1-1.5,0.5-2.2c0.9-0.2,1.2-1.2,1.9-1.5l0,0.2
		c0.3,0,0.3-0.3,0.4-0.3c0.1,0.3,0.5,0.3,0.8,0.4c0,0.1,0.3,0.3,0,0.4c0.3-0.1,0.6,0.4,1,0.5c0.2,0,0.1-0.1,0.2-0.3
		c-0.1-0.3-0.4-0.5-0.4-0.8c-0.1-0.1,0.5,0.2,0.6-0.1c0.6,0.7,1.4,0.9,2.2,1.2c0,0.9,1,0.8,1.1,1.5c1.1,0.1,1.5-0.6,2.5-0.6
		c0.4-0.2,0.5-0.6,0.9-0.8c0.6-0.4,1.7-0.3,1.8-1.3c-0.3-0.3-0.1-0.9-0.2-1.4c-0.7-0.9-1.6-1.6-2.6-2.2c-0.7,0.1-1.2-0.3-1.7-0.5
		c-0.7-0.2-1.6-0.3-2.2-0.6c-0.2-0.1-0.4-0.5-0.7-0.6c-0.2-0.1-0.3,0.1-0.5-0.1c-0.5-0.2-0.8-0.7-1.1-1c-0.4-0.3-1.3-1.3-1.5-1.9
		c0-0.1,0.2-0.1,0.2-0.2c0-0.3-0.3-0.5-0.5-0.8c-0.2-0.5-0.4-2.2-0.1-2.9c0,0,0.2-0.1,0.2-0.1c0.1-0.5-0.1-1.1,0.2-1.8
		c0.1,0,0.1-0.1,0.3-0.1c0.3-1.9,1.7-3,2.6-4.4c0.3-0.2,0.7-0.2,0.7-0.6c0.6-0.1,0.9-0.4,1.4-0.6
		C184.7,302.9,184.3,303.3,184.4,303.4 M179,324.3c0.4-0.1,0.2,0.5,0.6,0.5c0.1-0.3-0.1-0.6,0-1c-0.1-0.1-0.4-0.1-0.6-0.1L179,324.3
		z"/>
	<path clip-path="url(#SVGID_2_)" fill="#CDCDCD" d="M226.1,301.5c0.7,1.5,1.1,3.4,2,4.4c1,2.1,2.7,6,3.9,8.5
		c0.4,0.8,0.9,1.7,0.8,2.2c0,0.4-0.4,0.5-0.1,0.9c-0.4,0.1,0,0.5-0.4,0.2c-0.3,0.6-1.1,1-1.6,1.5c-0.3,0.8,0.2,0.8-0.7,1
		c-0.8,0.8-2.7,1.1-4.1,1.4l-0.2-0.3c-0.3,0.2-0.1,0.2-0.4,0.2c-0.1-0.1,0-0.2,0.2-0.2c-2.5-1.7-6.7-6.6-8.9-8.9
		c-2.1-2.9-4.8-5.9-7.2-7.6c-0.3,0.5,0.6,1.2,0,1.6c0.6,1.3,1.4,3.3,2.2,3.8c0.4,1.6,1.6,2.7,2.1,4.5c1.3,1.4,2.6,6,3.7,7.7
		c-0.3,0.1,0.1,0.4-0.3,0.4c0.2,0.1,0.3,0.1,0.4,0.2c0.5,0.6,0.3,1.1,0.5,1.8c-0.2,0.4-0.5,0.8-0.4,1.3c-1.1,0.8-1.7,1.5-2.5,2.4
		c0,0-0.1,0-0.2-0.2c-0.9,0.5-1.6,0.3-2,1.1c-0.2-0.1-0.5-0.3-0.8,0c-0.4-0.5-0.3-1-1-1.1c0.3-0.1,0.1-0.4,0.5-0.4
		c-1.3-2.9-4.3-8.3-6.1-11c-0.2-0.3-0.1-0.2-0.2-0.4c-1-1.4-1.3-3.3-2.4-4.5c-0.3-0.2,0.3-0.1,0.1-0.3c0-0.4-0.2-0.1-0.3-0.4
		c0.3-0.5-0.8-1.8-1-2.3c0.1-0.1,0.2-0.2,0.3-0.2c-0.7-2.1-1-4.6,0.1-6.3c-0.1-0.5,0.4-0.8,0.7-1.5c0.2-0.5,0.3-0.9,0.6-1.2
		c1.1-1.4,3-2.1,4.9-3c-0.1,0.6,0.2-0.2,0.5,0.3c0.5-0.3,0.9-0.4,1.3-0.1c0-0.2,0.2-0.3,0.4-0.4c0.2,0,0.3,0,0.4,0
		c0.3-0.1,0.1,0.1-0.1,0.2c0.2,0.2,0.3,0.2,0.4-0.1c0.5-0.1,0.7,0.1,1.2,0c1.2,1.1,3.1,3,4.4,3.7c0.3,1,1.1,0.7,1.6,1.6
		c0.1,0,0.1,0.1,0.2,0.1c-0.1-0.2-0.1-0.4-0.2-0.5c0.3-0.9-2.2-5.1-2.4-6c-0.1-1,0.5-1.6,0.5-2.5c0.2-0.3,0.6-0.4,1-0.8
		c0.1-0.1,0.1-0.4,0.2-0.5c0.1-0.2,0.4-0.2,0.5-0.3c0,0,0,0,0-0.1c0,0,0-0.1,0-0.1c0.1,0,0.7,0.4,0.3-0.1c0.4,0,0.8-0.1,1.3-0.2
		c0.5,0.2,1.4,0.8,1.5,0.9c0,0.2,0.5,0.9,0.9,1.7c0.3,0.5,0.6,1,0.8,1.6l0.1-0.1c0.5,1.2,1.4,3.6,1.9,4
		C225.3,299.9,225.6,300.9,226.1,301.5"/>
	<path clip-path="url(#SVGID_2_)" fill="#CDCDCD" d="M224.8,285.8c0.1-0.2,0-0.3,0.1-0.4c1-1.2,2.2-1.5,3.4-1.6
		c0.7,1,2.1,0.5,2.4,1.5c1.4,0.3,1,2.1,1.9,2.8c-0.2,0.1-0.3,0.5-0.6,0.5c-0.2,0.3,0,0.5,0,0.7c-0.9,1-1.5,1.6-2.6,1.9
		c-0.6,0.2-1.1,0.4-1.7,0.8c-1.3-0.3-2.5-0.9-3.7-2c-0.1-0.3-0.2,0.2-0.3-0.1c0.1-0.7-0.9-0.9-1.1-1.1c-0.1-0.1,0.1-0.1,0.2-0.2
		c-0.2-0.2-0.3-0.4-0.4-0.6c0.6-0.6,0.5-1.2,1.3-1.8C224,286.3,224.3,285.6,224.8,285.8 M233.3,292.6c0.6-0.5,1.1-0.6,1.5-0.4
		c0.1,0,0.2-0.1,0.2-0.2c1.9,0.3,3.8,1.4,5.7,3c-0.1,0.1,0.6,0.6,0.8,0.6c0.7,0.7,1.4,1.5,2.1,1.9c0.8,1.7,4.5,4,5.3,5.8
		c-0.5,0.4-0.4,0.8-0.9,1c0.4,0.4,0.2,0,0.4,0.5c-0.6,0-1.3,0.8-1.9,0.5c0,0.2-0.2,0.4,0.1,0.7c-0.2,0.7-0.9,0.9-1.7,1.2
		c-0.6,0.2-0.8,0.5-1.3,0.1c-0.1,0.2-0.5,0.2-0.3,0.6c-0.3,0.1-0.5,0-0.7,0.3c-0.2-0.5-0.5-0.2-0.8-0.2c0-0.2-0.5-0.3-0.1-0.5
		c0-0.2-0.2,0-0.4,0c-1.6-1.8-4.5-5.8-6.5-7.5c-0.1-0.1-0.1-0.1-0.2,0c-0.6-1.1-2.3-2.1-3-3.5c-0.9,0-0.9-1.1-1.5-1.4
		c0.2-0.3,0.3-0.2,0.5-0.6c-0.1-0.4-0.2,0-0.5-0.2C231.3,293.6,232.2,292.6,233.3,292.6"/>
	<path clip-path="url(#SVGID_2_)" fill="#CDCDCD" d="M237.5,265.4c0.5-0.1,0.9,0,1.3-0.4c0.2,0,0.5,0.4,0.5,0
		c0.3,0.2,0.3,0.1,0.6,0.3c0.3-0.2-0.3-0.2-0.1-0.5c0.2,0.3,0.3-0.1,0.4-0.2c0.6,0.1,1-0.1,1.5-0.3c0.4,0.2,0.5,0.4,0.9,0.5
		c0,0.6,0.1,1,0.3,1.5c-0.6,2-2.1,3.4-1.9,5.1c-0.5,1-0.3,2-0.5,2.8c0.2,0.7-0.1,1.5,0,2.1c0.8,0,1.7,0.8,2.5,0.8
		c0.6,0.4,2.1,1.2,3.3,1.7c0.2-2,1.3-4.5,0.5-6.3c0.3-0.6,0.3-1,0.2-1.3c0.3-0.3,0.5-0.7,0.9-0.6c0.3-0.7,0.4-0.6,1-1
		c0.1,0.2,0.2,0.3,0.5,0.5c-0.1-0.6,0.2-0.8,0.6-1.2c0.6,0.2,0.1,0.7,0.6,0.8c-0.1-0.3,0.1-0.6-0.1-0.9c0.7,0.2,0.9-0.4,1.2-0.7
		c0.2-0.1,0.2,0.3,0,0.5c0.5,0.2,0.4-0.2,0.7-0.5c0.2,0.1,0.3,0.3,0.5,0.2c0-0.3,0.2-0.6,0.4-0.7c0.1,0.1,0.6,0.1,0.3,0.3
		c0.2,0.1,0.2-0.5,0.5-0.2c-0.1,0.3-0.3,0.6,0.3,0.7c-0.2,0.5-0.1,0.9-0.2,1.5c0,0.2-0.2,0-0.3,0.1c-0.1,0.2,0.1,0.3,0.1,0.4
		c-0.7,1,0.1,1.9-0.8,3.1c0.2,0.5-0.1,1.2-0.3,1.6c0.3,1-0.6,2.3-0.8,3.5c0.1,0.2,0.2,0.2,0.3,0.3c-0.5,1-0.6,1.7-0.9,2.5
		c0.7,0,0.9,0.7,1.4,0.5c0.2,0.1,0,0.3,0.4,0.3c0.8,0,1.5,0.7,2.6,1c-0.1,0.1-0.1,0.2,0,0.3c0.2,0.2,0.3,0.2,0.4-0.1
		c0.3,0.2,0.2,0.4,0.4,0.5c0.2-0.1,0.2-0.2,0.2-0.2s0,0.1,0.2,0.4c1.3,0,1,0.1,2.2,0.3c0.4,0.9,1.6,0.4,2.1,1.2
		c-0.3,0.5-0.7,1.2-1.2,0.7c-0.4,0.4,0.3,0.4,0.5,0.7l-0.2,0.4c0.3,0.2,0.3-0.1,0.5-0.1c0,0.5,0.3,0.1,0.5,0.5
		c-0.3,0.1-0.6,0.2-0.9,0.5c-0.1-0.5-0.4,0.1-0.7-0.1c0.1,0.7,0.6,0.6,1,1c-0.2,0.1-0.5,0.3-0.7,0.4c-0.4,0,0-0.3-0.1-0.4
		c-0.3,0.2-0.2,0.4-0.3,0.7c-0.2-0.4-0.4-0.6-1-1c-0.2,0.1-0.2,0.5-0.5,0.8c0.1,0.2,1,0.9,1.2,0.4c0,0.4-0.3,0.9-0.7,0.8
		c-0.2,0.3,0,0.3,0.1,0.5c-0.4,0.8-1.1,0.8-1.5,1.2c-0.2-0.1-0.3-0.6-0.5-0.1c-0.4-0.5-0.8-0.2-1.3-0.3c-0.8-0.2-1.7-0.9-2.6-1.3
		c-1.2-0.6,0.8-0.2-0.4-0.4c-0.3-0.3-1.6-0.6-2-1.3c-0.1,0-0.3,0.1-0.4,0.2c-0.7-0.5-1.3-0.6-1.7-1.1c-0.1-0.1-0.1,0.1-0.1,0.1
		c-4.7-2.1-8.2-4.3-12.3-6.6c-0.2,0.2-0.5,0.2-0.9,0.2c-0.4-0.6-1.5-0.2-2.1,0c-0.1-0.1,0.1-0.3-0.2-0.3c-0.3,0.1-0.3,0.3-0.7,0.3
		c-0.1-0.2,0-0.1,0.2-0.3c-0.3,0.2-0.5-0.3-0.8-0.5c0.2-0.3-0.1-0.5-0.1-0.7c0-0.4,0.3,0,0.3-0.3c0-0.4-0.3,0.1-0.5-0.1
		c-0.3-0.9,1-2.9,1.7-3.2c0.5-1.5,0.2-2.9,0.6-4.6c0-0.4,0.5-0.7,0.3-1.2c0.7-1.1,0.5-2,0.8-3c-0.4-1,0.6-1.3,1.1-1.7
		c0.6-0.4,1-1.1,1.4-1.1c-0.1-0.5,0,0.1,0.2,0.2C237.7,265.7,237.5,265.5,237.5,265.4 M250.1,269.5c-0.2,0.1-0.2-0.3-0.3-0.1
		c0.1,0,0,0.1-0.1,0.2C249.9,269.7,250.1,269.7,250.1,269.5"/>
</g>
<g>
	<g>
		<path fill="#E2E2E2" d="M215.8,360.8c15.5-4.5,29.9-12.3,42.3-22.6c12.3-10.2,22.6-23.1,29.8-37.4c2.2-4.5,4.2-9.1,6.2-13.7
			c2.2-5.2,4.3-10.6,5.9-16c0.9-3.1-3.9-4.4-4.8-1.3c-2.5,9-6.4,17.6-10.3,26.1c-3.3,7-7.3,13.7-12,19.9
			c-9.2,12.3-21.1,22.6-34.4,30.2c-7.6,4.3-15.6,7.7-23.9,10.1C211.4,356.9,212.7,361.7,215.8,360.8L215.8,360.8z"/>
	</g>
</g>
<g>
	<g>
		<path fill="#E2E2E2" d="M196.5,363.4c2.4,0.3,4.8,0,7.1-0.3c1.1-0.1,2.2-0.2,3.2-0.5c0.8-0.2,1.5-0.5,2.3-0.7
			c1.3-0.4,2.2-1.8,1.7-3.1c-0.4-1.3-1.7-2.1-3.1-1.7c-0.8,0.2-1.5,0.5-2.3,0.7c-0.2,0.1-0.4,0.1-0.6,0.1c0,0-0.1,0-0.1,0
			c-0.3,0-0.2,0,0.3,0c-0.2-0.1-0.6,0.1-0.9,0.1c-0.3,0-0.6,0.1-0.9,0.1c-2.3,0.3-4.6,0.6-6.9,0.3c-1.3-0.2-2.6,1.3-2.5,2.5
			C194.1,362.4,195.1,363.2,196.5,363.4L196.5,363.4z"/>
	</g>
</g>
<g>
	<g>
		<path fill="#E2E2E2" d="M151,126.4c-15.5,4.5-29.9,12.3-42.3,22.6c-12.3,10.2-22.6,23.1-29.8,37.4c-2.2,4.5-4.2,9.1-6.2,13.7
			c-2.2,5.2-4.3,10.6-5.9,16c-0.9,3.1,3.9,4.4,4.8,1.3c2.5-9,6.4-17.6,10.3-26.1c3.3-7,7.3-13.7,12-19.9
			c9.2-12.3,21.1-22.6,34.4-30.2c7.6-4.3,15.6-7.7,23.9-10.1C155.4,130.4,154.1,125.6,151,126.4L151,126.4z"/>
	</g>
</g>
<g>
	<g>
		<path fill="#E2E2E2" d="M170.3,123.8c-2.4-0.3-4.8,0-7.1,0.3c-1.1,0.1-2.2,0.2-3.2,0.5c-0.8,0.2-1.5,0.5-2.3,0.7
			c-1.3,0.4-2.2,1.8-1.7,3.1c0.4,1.3,1.7,2.1,3.1,1.7c0.8-0.2,1.5-0.5,2.3-0.7c0.2-0.1,0.4-0.1,0.6-0.1c0,0,0.1,0,0.1,0
			c0.3,0,0.2,0-0.3,0c0.2,0.1,0.6-0.1,0.9-0.1c0.3,0,0.6-0.1,0.9-0.1c2.3-0.3,4.6-0.6,6.9-0.3c1.3,0.2,2.6-1.3,2.5-2.5
			C172.7,124.8,171.7,124,170.3,123.8L170.3,123.8z"/>
	</g>
</g>
</svg>
