<?xml version="1.0" encoding="utf-8"?>
<!-- Generator: Adobe Illustrator 23.1.0, SVG Export Plug-In . SVG Version: 6.00 Build 0)  -->
<svg version="1.1" id="Layer_1" xmlns="http://www.w3.org/2000/svg" xmlns:xlink="http://www.w3.org/1999/xlink" x="0px" y="0px"
	 viewBox="0 0 369.6 372.3" enable-background="new 0 0 369.6 372.3" xml:space="preserve">
<path fill="#9B1D21" d="M272.8,5.3c57.7,14,98,44.3,92.7,49.1c-5.4,4.9-22.2,29.7-32.9,65.4c-10.7,35.7-21.6,88.4-28,78.1
	c-6.4-10.3-24.6-47.3-54.7-61.1s-30.5-4.1-30.1-13.9c0.4-9.8,21.1-56.2,32.6-79.9C263.8,19.4,263.6,3.1,272.8,5.3z"/>
<path fill="#CE2E36" d="M319.4,22.4c-13.1-4.3-33-13-44.3-11.3c-7.4,1.1-57,116.2-49.8,117.3c10.3,1.6,31.5,14.4,34.9,22.1
	c2.3,5.3,9.2-14.3,21.8-42.1s25-53,30.7-66.5S324.3,24,319.4,22.4z"/>
<g>
	<g>
		<path fill="#BC262A" d="M226.9,122.8c8.5-16.6,15-34.1,23.4-50.7c5.8-11.6,10.6-23.8,15-36c1.4-3.9,2.9-7.9,4.7-11.7
			c2-4.3,4.5-8.3,7.2-12.1c-0.9,0.4-1.9,0.8-2.8,1.1c23.2,6.5,46,14.9,67.8,25.2c6.2,2.9,12.3,6,18.3,9.2c-0.3-1.1-0.6-2.3-0.9-3.4
			c-7.6,17.9-17.6,34.5-25.7,52.1c-2,4.4-3.9,8.9-5.6,13.4c-1.7,4.7-3.2,9.4-4.8,14.1c-3.3,9.9-6.8,19.7-10.6,29.4
			c-4.3,10.9-8.9,21.7-13.8,32.3c-0.6,1.2-0.3,2.7,0.9,3.4c1.1,0.6,2.8,0.3,3.4-0.9c8.8-19,16.6-38.4,23.4-58.1
			c3.2-9.3,6-18.7,10-27.7c3.8-8.6,8.2-17,12.6-25.4c5.2-9.9,10.3-19.8,14.7-30.1c0.5-1.2,0.4-2.7-0.9-3.4
			c-21.6-11.4-44.2-21.1-67.5-28.8c-6.6-2.2-13.2-4.2-19.8-6c-1.1-0.3-2.2,0.2-2.8,1.1c-4.8,6.7-8.3,14-11.1,21.6
			c-2.4,6.4-4.6,12.8-7.2,19.1c-2.4,5.9-5,11.8-7.8,17.5c-3.8,7.8-7.5,15.5-11,23.5c-4.2,9.7-8.3,19.4-13.1,28.7
			C221.1,123.1,225.4,125.7,226.9,122.8L226.9,122.8z"/>
	</g>
</g>
<path fill="#9B1D21" d="M96.9,3.3c-57.7,14-98,44.3-92.7,49.1s22.2,29.7,32.9,65.4s21.6,88.4,28,78.1c6.4-10.3,24.6-47.3,54.7-61.1
	s30.5-4.1,30.1-13.9c-0.4-9.8-21.1-56.2-32.6-79.9S106,1.1,96.9,3.3z"/>
<path fill="#CE2E36" d="M50.2,20.4c13.1-4.3,33-13,44.3-11.3c7.4,1.1,57,116.2,49.8,117.3c-10.3,1.6-31.5,14.4-34.9,22.1
	c-2.3,5.3-9.2-14.3-21.8-42.1s-25-53-30.7-66.5S45.3,22,50.2,20.4z"/>
<g>
	<g>
		<path fill="#BC262A" d="M147.1,118.3c-8.5-16.6-15-34.1-23.4-50.7c-5.8-11.4-10.4-23.5-14.7-35.5c-3.1-8.6-6.7-16.8-12.1-24.3
			c-0.7-0.9-1.7-1.5-2.8-1.1c-23.6,6.6-46.6,15.2-68.8,25.6c-6.2,2.9-12.4,6-18.5,9.3c-1.3,0.7-1.4,2.2-0.9,3.4
			C13.5,62.8,23.5,79.4,31.7,97c2,4.3,3.8,8.6,5.4,13c1.7,4.7,3.2,9.5,4.7,14.2c3.3,9.9,6.9,19.7,10.7,29.4c4.3,11,9,21.9,14,32.6
			c0.6,1.2,2.3,1.5,3.4,0.9c1.3-0.7,1.5-2.2,0.9-3.4c-8.7-18.9-16.5-38.2-23.2-57.8c-3.2-9.4-6.1-18.9-10.2-28
			c-3.8-8.6-8.2-17-12.6-25.4c-5.2-9.9-10.3-19.8-14.7-30.1c-0.3,1.1-0.6,2.3-0.9,3.4C30.7,34.5,52.9,25,75.8,17.4
			c6.5-2.1,13-4.1,19.6-6c-0.9-0.4-1.9-0.8-2.8-1.1c4.7,6.5,8.1,13.6,10.9,21.2c2.3,6.4,4.5,12.7,7.2,19c2.6,6.1,5.2,12.2,8,18.2
			c3.8,7.8,7.5,15.5,11,23.5c4.2,9.7,8.3,19.4,13.1,28.7C144.2,123.7,148.5,121.1,147.1,118.3L147.1,118.3z"/>
	</g>
</g>
<path fill="#F0D235" stroke="#BA792A" stroke-width="2" stroke-miterlimit="10" d="M312.2,241.7c0,28.8-21.3,63.7-37.6,84.9
	c-23,30-47.7,41.1-88.4,41.1c-50.4,0-90.6-28.3-110.7-71.1c-7.6-16.3-15.3-35.8-15.3-54.9c0-34.6,14-66,36.6-88.8
	c22.8-23,54.4-37.2,89.4-37.2c36.4,0,65.4,17.7,88.4,42.4C295.5,180.5,312.2,208.5,312.2,241.7z"/>
<g>
	<defs>
		<rect id="SVGID_1_" x="56.4" y="123.4" width="255.4" height="242.5"/>
	</defs>
	<clipPath id="SVGID_2_">
		<use xlink:href="#SVGID_1_"  overflow="visible"/>
	</clipPath>
	<path clip-path="url(#SVGID_2_)" fill="#E6B821" d="M282.3,244c0,54-43.8,97.8-97.8,97.8S86.6,298,86.6,244s43.8-97.8,97.8-97.8
		S282.3,189.9,282.3,244"/>
	
		<ellipse transform="matrix(1.285326e-03 -1 1 1.285326e-03 -59.7323 428.1194)" clip-path="url(#SVGID_2_)" fill="none" stroke="#BA792A" stroke-width="2.7561" stroke-miterlimit="10" cx="184.5" cy="244" rx="97.8" ry="97.8"/>
	<path clip-path="url(#SVGID_2_)" fill="#F0D235" d="M141.5,304.2c0.4,1.6-0.7,2.9-2.2,4.2c-0.6,0.5-2,1.7-2.7,2.1
		c-1.8,1.3-3.7,2.9-5.3,3.5c-0.5-0.6-1-0.2-1.5-0.4c-0.1,0-0.2,0.1-0.3,0.2c-0.6-0.1-1.1-0.4-1.7-0.6c-0.3-0.1-0.6,0-0.7-0.1
		c-0.4-0.2-0.6-0.6-1-0.8c-0.3-0.1-0.5-0.1-0.9-0.3c-0.1-0.1-1-0.3-1-0.6c-0.5-0.1-1-0.8-1.5-0.7c-0.1-0.2-0.2-0.6-0.5-0.3
		c0-0.2-0.1-0.4-0.3-0.6l0.1-0.1c-0.6-1.6-0.6-3-0.8-4.5c-0.2-0.1,0-0.2-0.2-0.3c0.3-0.3,0.2-0.5,0.3-0.7c0.4-0.6,0.9-0.5,1.4-0.5
		c0.1,0,0.1-0.1,0-0.2c0.2,0,0.3,0.1,0.5,0.1l0.2-0.2c1.1,0.1,2.4,1.2,3.6,1.2c0.7,0.6,1.3,0.9,1.9,0.8c0.4,0.5,0.8,0.3,1.3,0.6
		c0.2,0,0.2-0.1,0.4-0.1c0.4,0.5,0.9,0.2,1.4,0.3c0.1-0.1-0.2-0.3,0.1-0.4c0.6-0.3,2-1.7,2.5-2.3c0.1,0.1,0.2-0.2,0.3,0.1l0.4-0.4
		c-1.9-1.1-3.7-1.2-5.7-2.7c-0.7,0.1-1.2-1-1.5-1.4l0.2-0.2c-0.5-0.6-0.4-1.2-0.7-1.9c0.4-0.3-0.1-0.6,0-0.9c0.3,0,0.2-0.1,0.5-0.2
		c0.1-0.1-0.1-0.2,0-0.3c-0.1,0.1-0.3-0.1-0.5-0.2c0.1-0.1,0.1-0.3,0.2-0.5c0-0.2,0.1,0,0.3,0c0.1-0.1,0-0.3-0.1-0.5
		c0.2-0.2,0.2-0.5,0.5-0.6c3.1,2.9,6.7,2.8,9.6,4.9c0.2,0.1,1-0.9,1.2-0.7c0.1-0.7,0.9-0.6,1.1-1.2c-0.1-0.5-0.8-0.9-1.2-1.1
		c-1.5-1.2-3.2-2.6-4.9-3.1c-0.1-0.3-0.4-0.3-0.4-0.5c-0.1,0.1-0.2,0-0.4,0c-0.2-0.2-0.2-0.4-0.1-0.5c-0.1-0.1-0.1,0-0.2,0
		c0-0.4-0.1-0.6-0.3-0.9c-0.1-0.1,0,0.1-0.2,0.2c-0.1-0.1,0-0.1-0.1-0.2c0-0.2,0.2,0.1,0.3-0.1c0-0.2-0.3-0.3,0-0.4
		c-0.5-0.2-0.7-0.5-0.7-1c0.2,0-0.1,0.2,0.1,0.2c0.2-0.4,0.1-0.3,0.3-0.5c-0.1-0.2-0.2,0.2-0.3-0.1c0.1,0,0.1-0.1,0-0.2
		c0.1-0.2,0.2,0.3,0.3,0c-0.3-0.2,0-0.5-0.5-0.7c0.2-0.2,0.4-0.6,0.7-0.5c0.1-0.1-0.1-0.3-0.1-0.5c0.2,0,0.4,0.2,0.6-0.1
		c0.1-0.1,0.1-0.2-0.1-0.3c0.4,0,0.3-0.2,0.4-0.5c0.2,0.2,0.5,0.3,0.8,0.2c0.5,0.5,1.1,0.9,1.6,1c1.6,1.4,3.4,2.1,4.9,3.5
		c0.1-0.1,0.1-0.1,0-0.2c0.5,0.3,1.1,1.1,1.8,1c0.1,0.1,0.1,0.1,0,0.2c0.7-0.2,1.1,0.6,1.6,0.8c0.1,0.1,0.1-0.1,0.2,0
		c0.2,0.1-0.1,0.1,0,0.2c0,0,0.6,0.4,0.6,0.3c0.3,0.4,0.8,0.9,0.8,1.3c0.4,0.3,0.6,0.7,0.6,1.1c0.1,0.2,0.2,0,0.2,0.2
		c0.4,1.2,0.9,2.5,0.6,3.8C145.7,301.1,142.7,303.3,141.5,304.2"/>
	<path clip-path="url(#SVGID_2_)" fill="#F0D235" d="M109.2,271.9c1.3-0.6,2.9-1.1,3.8-1.8c1.8-0.9,5.1-2.5,7.4-3.5
		c0.7-0.3,1.4-0.8,1.9-0.7c0.3,0,0.4,0.3,0.8,0.1c0.1,0.3,0.4,0,0.2,0.3c0.5,0.3,0.9,0.9,1.3,1.4c0.7,0.3,0.7-0.2,0.8,0.6
		c0.7,0.7,1,2.3,1.3,3.5l-0.3,0.1c0.2,0.2,0.2,0.1,0.2,0.4c-0.1,0.1-0.2,0-0.2-0.1c-1.4,2.2-5.6,6-7.6,7.9c-2.5,1.9-5.1,4.3-6.5,6.4
		c0.5,0.2,1-0.5,1.4-0.1c1.1-0.6,2.8-1.3,3.3-2c1.4-0.3,2.3-1.4,3.9-1.9c1.2-1.2,5.2-2.3,6.7-3.4c0.1,0.3,0.3-0.1,0.4,0.2
		c0.1-0.2,0.1-0.3,0.2-0.3c0.5-0.4,1-0.3,1.5-0.4c0.3,0.2,0.7,0.5,1.1,0.4c0.8,1,1.4,1.4,2.1,2.2c0,0,0,0.1-0.1,0.2
		c0.4,0.8,0.3,1.3,1,1.7c-0.1,0.2-0.3,0.4,0,0.7c-0.4,0.4-0.9,0.3-1,0.8c-0.1-0.3-0.3-0.1-0.3-0.4c-2.5,1.2-7.1,3.8-9.5,5.5
		c-0.2,0.2-0.2,0.1-0.4,0.2c-1.2,0.9-2.9,1.2-3.9,2.1c-0.2,0.2-0.1-0.2-0.3-0.1c-0.3,0-0.1,0.2-0.3,0.3c-0.4-0.2-1.5,0.7-2,0.9
		c-0.1-0.1-0.2-0.1-0.2-0.2c-1.8,0.6-4,0.9-5.4,0c-0.5,0.1-0.7-0.3-1.3-0.6c-0.4-0.2-0.8-0.3-1.1-0.5c-1.2-0.9-1.9-2.5-2.7-4.2
		c0.5,0.1-0.2-0.2,0.3-0.4c-0.3-0.5-0.3-0.8-0.1-1.1c-0.1,0-0.3-0.1-0.3-0.3c0-0.1,0-0.2,0-0.3c-0.1-0.3,0.1-0.1,0.1,0.1
		c0.2-0.1,0.1-0.3-0.1-0.3c-0.1-0.4,0-0.6,0-1c0.9-1.1,2.6-2.7,3.1-3.9c0.8-0.3,0.6-1,1.4-1.4c0-0.1,0.1-0.1,0.1-0.2
		c-0.1,0.1-0.3,0.1-0.5,0.2c-0.8-0.2-4.4,2-5.2,2.2c-0.8,0.1-1.4-0.4-2.2-0.4c-0.2-0.2-0.4-0.5-0.7-0.8c-0.1-0.1-0.3-0.1-0.4-0.2
		c-0.2-0.1-0.2-0.4-0.3-0.5c0,0,0,0-0.1,0c0,0-0.1,0-0.1,0c0-0.1,0.3-0.6-0.1-0.3c0-0.3-0.1-0.7-0.2-1.1c0.2-0.4,0.6-1.2,0.7-1.3
		c0.1,0,0.8-0.4,1.5-0.8c0.4-0.3,0.9-0.5,1.4-0.8l-0.1-0.1c1.1-0.4,3.1-1.3,3.5-1.7C107.8,272.7,108.7,272.4,109.2,271.9"/>
	<path clip-path="url(#SVGID_2_)" fill="#F0D235" d="M113.3,262.8c-0.7,1.4-2.4,1.8-4.4,1.8c-0.8,0-2.6,0-3.4-0.1
		c-2.2-0.2-4.7-0.1-6.3-0.8c0-0.8-0.7-0.8-0.9-1.3c-0.1-0.1-0.2-0.1-0.4-0.1c-0.4-0.5-0.6-1-0.9-1.6c-0.2-0.3-0.4-0.4-0.5-0.6
		c-0.2-0.4-0.1-0.8-0.3-1.3c-0.2-0.3-0.3-0.5-0.5-0.8c-0.1-0.1-0.6-0.9-0.4-1.1c-0.4-0.4-0.2-1.2-0.7-1.5c0.1-0.2,0.3-0.6-0.2-0.6
		c0.1-0.1,0.2-0.4,0.1-0.7l0.2,0c0.6-1.6,1.5-2.7,2.3-3.9c-0.1-0.2,0.1-0.2,0-0.4c0.4,0,0.5-0.2,0.7-0.4c0.7-0.1,1,0.2,1.4,0.5
		c0.1,0,0.1,0,0.1-0.1c0.2,0.1,0.2,0.3,0.3,0.4l0.3,0c0.8,0.8,1.1,2.5,1.9,3.3c0.1,0.9,0.4,1.6,1,1.9c0,0.6,0.4,0.8,0.5,1.3
		c0.1,0.1,0.2,0.1,0.4,0.2c0,0.6,0.6,0.7,0.9,1.1c0.2,0,0-0.3,0.4-0.2c0.7,0.1,2.6,0,3.4-0.1c0,0.1,0.3,0,0.2,0.2l0.6-0.1
		c-0.7-2.1-2-3.4-2.6-5.7c-0.6-0.4-0.3-1.5-0.2-2l0.3,0c0-0.8,0.5-1.2,0.6-1.9c0.5,0.1,0.3-0.5,0.5-0.7c0.2,0.2,0.2,0.1,0.5,0.1
		c0.2,0,0.1-0.3,0.2-0.2c-0.1,0-0.2-0.3-0.2-0.5c0.1-0.1,0.3-0.2,0.4-0.2c0.2-0.2,0.1,0.1,0.2,0.2c0.1-0.1,0.2-0.2,0.2-0.4
		c0.3-0.1,0.4-0.2,0.7-0.1c0.4,4.2,3.3,6.5,4.1,10c0.1,0.2,1.3,0,1.3,0.2c0.5-0.4,1,0.1,1.6-0.2c0.2-0.4,0-1.3-0.3-1.6
		c-0.4-1.9-0.7-4.1-1.7-5.5c0.1-0.3-0.1-0.5,0-0.6c-0.1,0-0.2-0.1-0.3-0.3c0-0.3,0.1-0.4,0.2-0.5c-0.1-0.1-0.1-0.1-0.2-0.2
		c0.3-0.3,0.3-0.5,0.3-0.9c-0.1-0.1-0.1,0.1-0.3,0c0-0.1,0.1-0.1,0.1-0.2c0.2-0.2,0.1,0.2,0.3,0.1c0.1-0.1-0.1-0.4,0.3-0.3
		c-0.2-0.4-0.2-0.8,0.1-1.2c0.2,0.1-0.2,0.1-0.1,0.3c0.4-0.2,0.3-0.2,0.6-0.2c0-0.2-0.3,0-0.2-0.3c0.1,0,0.1,0,0.1-0.1
		c0.2-0.1,0,0.3,0.2,0.2c-0.1-0.4,0.3-0.4,0.1-0.9c0.3,0,0.7-0.3,0.9,0.1c0.1-0.1,0.1-0.3,0.2-0.4c0.2,0.1,0.2,0.4,0.6,0.4
		c0.2,0,0.2-0.1,0.1-0.3c0.3,0.3,0.4,0.1,0.6-0.1c0,0.3,0.2,0.5,0.4,0.7c0.1,0.7,0.3,1.4,0.6,1.8c0.3,2.2,1.2,3.8,1.5,5.8
		c0.1,0,0.1-0.1,0.1-0.1c0.2,0.5,0.1,1.5,0.7,1.9c0,0.1,0,0.1-0.1,0.1c0.7,0.3,0.5,1.2,0.6,1.6c0,0.1,0.2,0,0.2,0.1
		c0.1,0.2-0.1,0.1-0.1,0.2c0,0,0.2,0.6,0.2,0.6c0,0.5,0,1.1-0.2,1.6c0.1,0.5,0,0.9-0.3,1.2c0,0.2,0.2,0.2,0,0.3
		c-0.5,1.2-0.9,2.5-2,3.3C118.5,263.2,114.9,262.9,113.3,262.8"/>
	<path clip-path="url(#SVGID_2_)" fill="#F0D235" d="M123.4,225.8c0.5,0.1,0.8-0.3,1.2-0.2c-0.5,0.4-0.7,1.1-0.2,1.2l-0.5,0.3
		l-0.3-0.1c0.2,0.5,0.6,1,0.1,1.3c-0.4,0.4,0.1-0.3-0.3-0.1l0.2,0.5c-0.9,0.3-1.8,0.8-2.8,1.5c-0.2,0.8-1.4,0.9-2,1.7l-0.5,0.3
		c0,0-0.1,0-0.2,0c-0.1,0.1-0.2,0.1-0.3,0.2c-0.9,0.3-1,1.1-1.9,1.3l-0.1,0.4c0.3,0,0.5,0,0.7,0c0.3,0,0.6,0.1,0.6,0.3
		c1.7-0.1,3.2,0.2,4.9,0.6c-0.5-0.1-0.1,0.5,0,0c-0.1,0.5-0.1,0.4,0.2,0.5c0,0.2,0,0.3,0.1,0.4c0.1,0.1,0.2,0.1,0.2,0.1
		c-0.1,0.5-0.5,0.3-0.6,0.7l0.1-0.4c-0.4,0.3-0.4,0.7-1,1c0.5-0.3,0.4,0.1,0.7,0.1c0.1,0,0.2,0,0.2,0.1c0.1,0.1,0.2,0.2,0.1,0.4
		c-0.1-0.2-0.2-0.3-0.3-0.2c-0.1,0-0.1,0.1-0.1,0.2l0.3,0.4c0,0.2,0,0.3,0.1,0.4c0.1,0.1,0.2,0.1,0.2,0.1c-1.2,0.2-0.7,1.1-0.8,1.9
		c-0.4-0.5-0.5,0.7-0.9,0.6c-0.2,0-0.3,0-0.4,0.1c-0.1,0.1-0.1,0.2-0.1,0.2c-2.8-0.6-6.5-0.9-8.9-1.4l-0.4-0.1
		c-2.3-0.9-5.1-1-7.6-1.5c-1.9-0.9-3.9-1.6-5.6-1.2c-0.1,0-0.2-0.1-0.2-0.3c0-0.1,0-0.1,0-0.2l-0.8-0.2c0.1-0.5-0.2-1.2,0.3-1.6
		c0.2-0.8-0.4-2.2-1-3.5l0.3-1.6c0.2-1.2,0-2.1,0.7-3.2c0.6-0.7,0.3-1.5,0.8-1.9l0.1-0.5c0.6-0.7,0.8-1.8,2.2-2.4
		c-0.5-0.1,0.1-0.4,0.1-0.7c0.8,0.2,0.9-0.7,1.8-0.5c0.2-0.8,1.3-0.5,1.9-1.2c0.4,0.5,1.2,0.2,1.7-0.1c1.1,0.7,2.2,1.8,3.4,2
		l-0.1,0.3l0.4,0.1l-0.1,0.4c0.9-0.3,0.7,0.6,1.5,0.7l-0.1,0.5c0.3,0.4,1.1,0.6,0.9,1.4c0.3,0.9,1,1,1.8,1.6l-0.2,1.2
		c0.7,0.2,1.1-1,1.8-0.8c0.6-0.7,1.4-0.5,1.5-1.4c1.2-0.2,2.3-1.2,3.2-1.5c0.7-1.1,1.6-1.3,2.1-2c0.4,0.1,0.2-0.8,1-0.7l-0.1,0.4
		c0.5-0.3,0.7,0.2,1.2,0.2c-0.1,0.5-0.6,0.7-0.2,1.1c-0.1,0.1-0.2,0.1-0.2,0.3c-0.1,0.2-0.1,0.4,0,0.6c0.1-0.5,0.4,0,0.7,0.6
		C123.9,225.1,123.5,225,123.4,225.8 M108.2,232.7c-0.4-0.5-0.1-1.7-0.9-1.8c-0.3-0.9-1-1.4-1.7-2c-0.7-0.6-1.4-1.4-2.1-2.1
		c-1.2-0.2-2.2,0.7-3.1,1l-0.1,0.5c-1,0.6-1,2.7-0.7,3.6c2,0.4,3.7,0.3,5.3,0.6c1.2,0.2,2.3,0.9,3.6,0.7c0,0-0.1,0-0.2-0.1
		C108.3,233,108.2,232.9,108.2,232.7c0.1,0,0.1,0,0.2,0c0.1,0,0.1-0.2-0.1-0.4L108.2,232.7z M113,227.5l-0.3-0.5l-0.1,0.4L113,227.5
		z M120.6,229.9c-0.1,0.1-0.2,0.2-0.3,0.3c0.2,0,0.3,0,0.4-0.1c0.1,0,0.1-0.1,0.1-0.2C120.8,229.9,120.7,229.9,120.6,229.9
		 M121.3,237.9c0,0-0.1,0-0.2,0c-0.1,0.1-0.2,0.1-0.3,0.2c0.5-0.2,0,0,0.4,0.1L121.3,237.9z M121.7,229.4c0,0,0.1-0.1,0.1-0.2
		c-0.3-0.1-0.3-0.1-0.4,0.3C121.5,229.5,121.6,229.5,121.7,229.4 M122,222.2c0.5,0.1,0.5-0.3,0.1-0.4L122,222.2z M123.8,226.4
		c0,0-0.1-0.1-0.2-0.1c0,0,0,0.1,0,0.2c0,0.1,0.1,0.2,0.3,0.2C124,226.6,123.9,226.5,123.8,226.4"/>
	<path clip-path="url(#SVGID_2_)" fill="#F0D235" d="M134.5,206.5c-0.2,0.3,0,0.4-0.1,0.7c0,0,0.1,0,0.1-0.1
		c0.2,0.1-0.1,0.2-0.1,0.3c0.4,0.8-0.3,2.1-0.3,2.6c-0.5,0.3-0.6,1-1.3,1.3c0,0,0,0.1,0.1,0.1c-0.6,0.6-1.5,0.7-2,1.6
		c-0.1,0-0.2,0.3-0.4,0c0,0.1,0.1,0.1,0.1,0.2c-0.2,0.1-0.3,0.3-0.6,0.2l-0.3,0.5c-0.9,0.5-1.7,1.5-2.8,1.8c-0.1,0.1,0,0.2-0.1,0.3
		c-0.8,0-1.3,1.1-2.2,0.7c-0.3,0.2,0,0.3-0.1,0.4c-0.1-0.2-0.2,0-0.3-0.2c0,0.4-0.4,0.2-0.6,0.5c-0.1,0.1,0.3,0.1,0.1,0.3
		c-0.5-0.2-0.8,0.1-1.3,0c0,0.1-0.1,0.2,0.1,0.3c-0.6-0.1-1-0.9-1.6-0.3c-0.3-0.3-0.5-0.2-0.7,0.1c-0.2-0.4-0.9-0.1-1-0.6
		c-0.4,0-0.4,0-0.8-0.2c-0.2,0-0.3,0.2-0.5,0.2c-2.1-1-3.9-1.7-5.4-3.2c-0.5-0.1-1.4-0.8-1.6-1.2c-2.2-1.7-2.6-2.9-3.6-5
		c0.3-0.2,0-0.3,0.1-0.4c-0.6-0.7-0.4-1.6-0.9-2.4c0.3-0.7-0.2-1.2,0-1.9c0-0.1-0.1-0.1-0.2-0.2c0.3-0.7,0.2-0.9,0.1-1.4
		c0.2-0.9,0.4-1.6,0.6-2.5c0.7-1.5,1.6-2.5,2.4-3.4c1.4-1.5,3.2-2,4.8-2.9c1.1,0.7,1.7-0.6,2.9,0.2c-0.1,0.2,0,0.3,0,0.5
		c0.3-0.3,0.6-0.1,0.9-0.3c0.1,0.4,0.4,0.4,0.8,0.5c-0.5,0.5-0.5,1.4-1.1,1.8c-0.9,0.5-1.9,1.7-2.8,2.3c-0.3,0.3-0.8,0.8-0.5,1.5
		c-0.7,1.5,0.2,2.4-0.1,3.7c0.4,0.4,0.3,0.8,0.4,1.2c0.6,0.3,0.5,0.9,0.9,1.3c0.2,0.3,0.2-0.2,0.4,0.1c0.5,1.3,1.2,0.5,1.8,1.7
		c1.1,0.3,1.8,1.2,2.9,1.6c0.1,0.1,0.1,0.3,0.2,0.4c1-0.1,1.5,1,2.4,0.7c0.5,0.4,0.9,0.8,1.4,0.5c0.5,0.4,1,0.6,1.4,0.4
		c0.3,0-0.1,0.3,0.2,0.3c0.8-0.7,0.9-1.8,1.1-2.7c0.1-0.1-0.1-0.1-0.1-0.2c-0.1-0.2,0.1-0.6,0-0.8c-0.4-1.3-0.7-3.6-2.3-4.2
		c-0.5-0.2-1.1-0.3-1.7-0.4c-0.7,0.7-0.4,1.6-1.4,2.3c0.2,0.2,0.1,0.5-0.1,0.8c-1.1-0.4-1.9,0.8-2.8,0.9c0-0.2,0.1-0.3,0-0.4
		c-0.2,0-0.3-0.1-0.4,0.2c-0.1-0.2,0.2-0.4,0.2-0.5c-0.2-0.3,0.1-0.3,0.1-0.6c0.1-0.4,0-0.8,0-1.2c0.2-1.6,1.5-3.1,2.7-4.3
		c0.6,0.1,0.9-0.9,1.5-0.7c0.6-0.7,1.5-0.5,2.2-1l0.3,0.2c1.1-0.4,2,0.7,3.3,0.9c-0.1,0.2,0.4,0.1,0.6,0.4c-0.1,0.1-0.1,0.2-0.1,0.2
		c0.2,0.3,0.3,0.1,0.4,0c0.1,0.5,1,0.6,1,1c1.1,0.3,1.2,1.7,2,2.5c-0.1,0.1,0,0.2-0.1,0.4c0.8,0.2,0.2,1.4,0.9,1.2
		c0,0.2-0.1,0.3,0.3,0.3c-0.3,0.2,0,1,0.4,1.1c0.1-0.2-0.1-0.3,0-0.4C134.3,205.7,134.2,206.3,134.5,206.5"/>
	<path clip-path="url(#SVGID_2_)" fill="#F0D235" d="M123,181c0.1-0.1,0-0.3,0.1-0.4c0.9-1,2-1.2,3-1.2c0.6,0.9,1.8,0.5,2,1.4
		c1.2,0.3,0.8,1.9,1.5,2.5c-0.2,0.1-0.3,0.4-0.5,0.4c-0.2,0.2,0,0.4-0.1,0.6c-0.8,0.8-1.4,1.3-2.3,1.5c-0.5,0.2-1,0.3-1.5,0.6
		c-1.1-0.3-2.1-0.8-3.1-1.9c-0.1-0.2-0.2,0.2-0.3-0.1c0.1-0.6-0.7-0.9-0.9-1c-0.1-0.1,0.1-0.1,0.2-0.2c-0.1-0.2-0.3-0.4-0.3-0.5
		c0.5-0.5,0.5-1.1,1.2-1.5C122.3,181.4,122.6,180.8,123,181 M130.1,187.3c0.5-0.4,1-0.4,1.3-0.3c0.1,0,0.2-0.1,0.2-0.1
		c1.7,0.3,3.3,1.3,4.8,2.8c-0.1,0.1,0.5,0.5,0.7,0.5c0.6,0.6,1.1,1.4,1.7,1.7c0.6,1.5,3.8,3.6,4.4,5.2c-0.5,0.3-0.3,0.7-0.8,0.8
		c0.3,0.3,0.2,0,0.3,0.4c-0.5,0-1.1,0.6-1.6,0.4c0,0.2-0.2,0.4,0,0.6c-0.2,0.6-0.8,0.8-1.5,1c-0.6,0.1-0.8,0.4-1.1,0.1
		c-0.1,0.2-0.5,0.2-0.3,0.5c-0.2,0.1-0.4,0-0.7,0.2c-0.2-0.4-0.4-0.2-0.7-0.2c0-0.2-0.4-0.3-0.1-0.4c0-0.2-0.1,0-0.3,0
		c-1.3-1.6-3.7-5.2-5.3-6.8c-0.1-0.1-0.1-0.1-0.2,0c-0.5-1-1.9-1.9-2.4-3.1c-0.8,0-0.7-1-1.2-1.3c0.2-0.3,0.3-0.2,0.5-0.5
		c-0.1-0.3-0.2,0-0.4-0.2C128.3,188.1,129.2,187.2,130.1,187.3"/>
	<path clip-path="url(#SVGID_2_)" fill="#F0D235" d="M172.2,168.6c0-0.1,0.1-0.1,0.2-0.3c-0.2-0.2,0-0.3-0.1-0.6
		c0.2-0.1,0,0.3,0.3,0.1c0.1,0,0-0.2,0.1-0.3c-0.4,0.2-0.1,0,0-0.2c-0.1-0.1-0.2-0.2-0.2-0.5l0.2,0c0.1-1.6,0.8-3.1,1.2-4.7
		c0.5,0,0.2-0.9,0.7-0.9c0.8-2.2,2.6-3.3,4.4-4.6c0.5-0.1,1,0,1.3-0.2c0.1,0.3,1-0.1,1.1,0.3c0.5-0.1,0.8-0.1,1.1,0.2
		c0.1,0,0-0.2,0.2-0.1c0,0.2,0.3,0,0.2,0.3c0.5,0,0.9,0,0.9-0.2c0.3,0.1,0.6,0.2,0.9,0.2c0.3,0.7,0.8,1.2,1.4,1.5
		c0,0.3,0.2,0.5,0.4,0.7c0,0.4,0.1,0.6,0.5,0.6c0,0.5,0.9,0.6,0.5,0.9c0.5,0.8,0.7,2.2,1.1,3c0,0.1-0.1,0-0.1,0.2
		c0.4,0.4,0.3,1.7,0.8,2.2c0,0.1,0,0.1-0.1,0.1c0.3,0.8,0.5,1.5,0.7,2.6c-0.1,0-0.2-0.1-0.2-0.1c0.3,0.3,0.5,0.7,0.5,1.3
		c0.8,0.9,0.2,2.4,0.9,3.4c-0.2,0.4,0.3,1.5-0.1,1.8c0.3,0.3,0.5,2.7,0.8,3.1c-0.3,0.8,0.5,1.6,0.4,2.3c-0.1,0-0.1,0-0.3,0
		c0.4,0.4,0,1.2-0.3,1.5c-0.3,0.1,0-0.3-0.3-0.2c-0.2,0.2,0.2,0.2,0.1,0.5c-0.1-0.2-0.3-0.2-0.5-0.2c0-0.2,0.1-0.2,0.1-0.3
		c0-0.2-0.3,0-0.4-0.1c-0.1,0.3,0.2,0.1,0.1,0.3c-0.5,0.2-0.1,0.4-0.7,0.5c-0.1-0.1-0.1-0.3-0.2-0.4c-0.2,0.3-0.2,0.1-0.5,0
		c0,0.2-0.1,0.4-0.2,0.6c0.1,0,0.3-0.3,0.4-0.1c0,0.3-0.5,0-0.5,0.2c-0.4,0-0.5-0.3-0.9-0.4c0.2-0.2,0.2-0.6-0.1-0.8
		c-0.2,0.2-0.2,0.2-0.6,0.2c0.1,0.3,0.5,0.2,0.6,0.5c0,0.1-0.7,0.4-0.2,0.5c-0.2,0.1-0.4,0.1-0.6,0.2c0-0.2,0.3,0,0.1-0.3
		c-0.2,0.2-0.4,0.2-0.5,0c0,0,0,0.1,0,0.2c-0.7,0.2-1.2-0.7-1.5-0.5c-0.1,0,0-0.1,0-0.3c-0.8-0.4-0.8-2.2-1.1-2.7
		c0.1-0.1,0.1-0.3,0-0.5c0.1,0,0.1,0,0.1-0.2c-0.4-2-0.8-5-1-6.9c-1.1,0.4-1.9,1-3.1,1.3c-0.5,0.2-1.1,0.6-1.7,0.6
		c-0.7,0.7,0.1,2.2-0.4,3.1c0.4,0.3,0.1,0.5,0,0.8c-0.1,1.1-0.2,2.7-0.8,3.3c0,0.1,0.1,0.1,0.1,0.2c-0.2-0.1,0,0.3-0.3,0.1
		c0.1,0.8-0.7,0.8-0.8,1.4c-0.1-0.3-0.3,0.1-0.3-0.1c-0.2,0.1-0.5,0.1-0.6,0.4c-0.6-0.3-1.1,0.2-1.5-0.1c-0.2,0.3-0.5-0.1-0.7,0.1
		c0-0.5-1,0.2-1.2-0.4c0,0.4-0.2-0.1-0.3,0.2c-0.1,0-0.1-0.4,0.1-0.4c0-0.2-0.3,0.1-0.3-0.1c0.1-0.3,0.3-0.3,0.6-0.5
		c-0.2-1.5,0.2-3.2,0-4.6c0,0-0.1-0.7,0-1c0-0.1-0.1-0.1-0.1-0.1c0-0.1,0.1-0.3,0.1-0.4c-0.1-0.5-0.4-1,0-1.4c-0.2-0.3-0.3-0.8,0-1
		c-0.3-0.3,0.1-0.7-0.2-1.2c0.3-0.3-0.1-0.9,0.3-1.1c-0.3-0.1,0.2-0.4-0.1-0.4c0.2-0.1,0-0.1,0-0.3l0.2,0c0-0.5,0.1-0.8,0-1.4
		c-0.1-0.2-0.1-0.2,0.1-0.1C172.4,169,172.3,168.8,172.2,168.6 M179.1,165.5c0,1.2-0.2,1.9-0.7,3c0.2,0,0.1,0.5,0.2,0.6
		c1.2-0.5,2.3-1.2,3.7-1.5c0-0.2,0.2-0.1,0.2-0.3c-0.7-1.8-0.9-3.8-1.6-5.6c-0.2,0.5-0.8,0.7-0.6,1.4
		C179.8,163.7,179.8,165.1,179.1,165.5"/>
	<path clip-path="url(#SVGID_2_)" fill="#F0D235" d="M210.7,188.8c-0.3-0.1-0.4,0.1-0.7,0c0,0,0,0.1,0.1,0.1c0,0.2-0.2,0-0.3,0
		c-0.6,0.6-2.2,0.2-2.6,0.3c-0.4-0.4-1.1-0.3-1.6-1c0,0-0.1,0-0.1,0.1c-0.7-0.5-1-1.3-2-1.6c0-0.1-0.3-0.1-0.1-0.3
		c-0.1,0-0.1,0.2-0.2,0.1c-0.1-0.2-0.4-0.2-0.3-0.5l-0.5-0.2c-0.7-0.8-1.8-1.3-2.4-2.4c-0.1-0.1-0.2,0.1-0.3,0
		c-0.2-0.7-1.4-1.1-1.2-2c-0.2-0.2-0.3,0.1-0.4,0c0.2-0.2,0-0.2,0.1-0.4c-0.4,0.1-0.3-0.4-0.6-0.5c-0.1-0.1,0,0.3-0.3,0.1
		c0.1-0.6-0.3-0.7-0.3-1.3c-0.1,0-0.2-0.1-0.3,0.2c0-0.6,0.6-1.2-0.1-1.6c0.2-0.4,0.1-0.6-0.3-0.7c0.4-0.3-0.1-0.9,0.4-1.1
		c-0.1-0.3-0.1-0.4,0.1-0.8c-0.1-0.2-0.2-0.3-0.3-0.4c0.6-2.3,0.8-4.1,2-6c0-0.5,0.5-1.5,0.8-1.8c1.2-2.5,2.3-3.2,4-4.6
		c0.2,0.2,0.3-0.1,0.4,0c0.6-0.7,1.5-0.7,2.1-1.4c0.8,0.1,1.1-0.5,1.8-0.4c0.1,0,0.1-0.1,0.2-0.2c0.7,0.1,0.9,0,1.4-0.2
		c0.9,0,1.7,0,2.6,0c1.6,0.4,2.8,1,3.9,1.6c1.8,1.1,2.6,2.7,3.9,4.1c-0.4,1.2,0.9,1.6,0.5,2.9c-0.2-0.1-0.3,0-0.5,0.1
		c0.3,0.2,0.2,0.6,0.5,0.8c-0.4,0.2-0.3,0.5-0.3,0.8c-0.6-0.4-1.5-0.2-2-0.7c-0.7-0.7-2.1-1.5-2.8-2.2c-0.3-0.2-1-0.6-1.6-0.1
		c-1.6-0.3-2.3,0.7-3.7,0.7c-0.3,0.5-0.7,0.5-1.1,0.7c-0.2,0.7-0.7,0.6-1,1.1c-0.2,0.2,0.2,0.2,0,0.4c-1.2,0.7-0.2,1.2-1.2,2.1
		c0,1.1-0.7,2.1-0.9,3.2c-0.1,0.1-0.3,0.2-0.3,0.3c0.4,0.9-0.7,1.7-0.1,2.4c-0.2,0.6-0.6,1-0.2,1.5c-0.3,0.6-0.3,1.1,0,1.4
		c0,0.3-0.3,0-0.2,0.2c0.8,0.6,1.9,0.5,2.9,0.5c0.1,0,0.1-0.1,0.1-0.2c0.2-0.1,0.6-0.1,0.8-0.2c1.2-0.7,3.4-1.5,3.6-3.2
		c0-0.5,0.1-1.1,0-1.7c-0.8-0.5-1.7-0.1-2.5-0.9c-0.1,0.3-0.5,0.2-0.8,0c0.2-1.1-1.2-1.6-1.5-2.6c0.2-0.1,0.3,0,0.3-0.1
		c-0.1-0.2,0-0.3-0.3-0.4c0.2-0.1,0.4,0.1,0.6,0.1c0.2-0.2,0.3,0,0.6,0c0.4,0,0.8-0.2,1.2-0.3c1.6-0.1,3.4,0.7,4.8,1.6
		c0,0.6,1,0.7,1.1,1.3c0.9,0.5,0.9,1.4,1.4,1.9l-0.1,0.3c0.7,0.9-0.2,2.1-0.2,3.4c-0.2-0.1,0,0.4-0.2,0.7c-0.1,0-0.2-0.1-0.2,0
		c-0.2,0.2,0,0.3,0.1,0.4c-0.4,0.2-0.3,1.1-0.7,1.2c0,1.1-1.4,1.6-2,2.5c-0.2-0.1-0.2,0.1-0.4-0.1c-0.1,0.8-1.4,0.5-1,1.1
		c-0.2,0.1-0.3,0-0.2,0.3c-0.3-0.2-1,0.2-1,0.6c0.2,0.1,0.3-0.1,0.4-0.1C211.4,188.4,210.9,188.4,210.7,188.8"/>
	<path clip-path="url(#SVGID_2_)" fill="#F0D235" d="M223.1,184.4c-0.5-1.5,0.6-2.9,2-4.3c0.6-0.5,1.9-1.8,2.6-2.2
		c1.7-1.4,3.5-3.1,5.2-3.7c0.5,0.6,1,0.1,1.6,0.4c0.1,0,0.2-0.1,0.3-0.2c0.6,0.1,1.1,0.3,1.7,0.5c0.3,0.1,0.6,0,0.8,0.1
		c0.4,0.1,0.6,0.6,1.1,0.8c0.3,0.1,0.5,0.1,0.9,0.3c0.1,0,1,0.3,1,0.5c0.5,0.1,1,0.7,1.5,0.6c0.1,0.2,0.2,0.6,0.5,0.3
		c0,0.2,0.1,0.4,0.4,0.6l-0.1,0.1c0.6,1.5,0.8,3,1,4.5c0.2,0.1,0,0.2,0.2,0.3c-0.3,0.3-0.2,0.5-0.2,0.7c-0.4,0.6-0.9,0.6-1.4,0.6
		c-0.1,0-0.1,0.1,0,0.2c-0.2,0.1-0.3-0.1-0.5-0.1l-0.2,0.3c-1.1-0.1-2.5-1.1-3.6-1c-0.7-0.6-1.3-0.9-2-0.7c-0.5-0.4-0.9-0.3-1.3-0.6
		c-0.2,0-0.2,0.1-0.4,0.1c-0.4-0.5-0.9-0.1-1.4-0.2c-0.1,0.1,0.2,0.3-0.1,0.4c-0.6,0.4-1.9,1.8-2.4,2.4c-0.1-0.1-0.2,0.2-0.3-0.1
		l-0.4,0.5c1.9,1,3.8,1.1,5.8,2.4c0.7-0.2,1.2,0.9,1.6,1.3l-0.2,0.2c0.5,0.6,0.4,1.2,0.8,1.8c-0.4,0.3,0.1,0.6,0.1,0.9
		c-0.3,0-0.2,0.1-0.5,0.3c-0.1,0.1,0.1,0.2,0,0.3c0.1-0.1,0.3,0.1,0.5,0.2c0,0.1-0.1,0.3-0.2,0.5c0,0.2-0.2,0-0.3,0
		c0,0.1,0,0.3,0.2,0.5c-0.2,0.3-0.2,0.5-0.4,0.6c-3.2-2.8-6.9-2.5-9.8-4.5c-0.2,0-1,0.9-1.1,0.7c-0.1,0.7-0.8,0.6-1,1.2
		c0.1,0.5,0.9,0.9,1.3,1c1.6,1.2,3.3,2.5,5,2.9c0.1,0.3,0.4,0.3,0.4,0.5c0.1-0.1,0.2,0,0.4,0c0.2,0.2,0.2,0.4,0.2,0.5
		c0.1,0,0.1,0,0.2,0c0,0.4,0.1,0.6,0.4,0.9c0.1,0,0-0.1,0.2-0.2c0.1,0.1,0,0.1,0.1,0.2c0,0.2-0.2-0.1-0.3,0.1c0,0.2,0.4,0.2,0,0.4
		c0.5,0.2,0.7,0.5,0.7,0.9c-0.2,0,0.1-0.2-0.1-0.2c-0.2,0.4-0.1,0.3-0.2,0.6c0.1,0.2,0.2-0.2,0.3,0.1c-0.1,0-0.1,0.1,0,0.2
		c-0.1,0.2-0.2-0.3-0.3,0c0.3,0.2,0.1,0.5,0.5,0.7c-0.2,0.2-0.3,0.7-0.7,0.5c0,0.1,0.1,0.3,0.2,0.5c-0.2,0.1-0.4-0.2-0.6,0.1
		c-0.1,0.1-0.1,0.2,0.1,0.3c-0.4,0-0.3,0.2-0.3,0.5c-0.2-0.2-0.5-0.2-0.8-0.2c-0.6-0.5-1.1-0.8-1.7-0.9c-1.7-1.4-3.5-2-5.1-3.2
		c-0.1,0.1,0,0.1,0,0.2c-0.5-0.2-1.1-1-1.8-0.9c-0.1-0.1-0.1-0.1,0-0.2c-0.7,0.2-1.2-0.6-1.6-0.8c-0.1-0.1-0.1,0.1-0.2,0.1
		c-0.2-0.1,0-0.1,0-0.2c0,0-0.6-0.3-0.6-0.3c-0.4-0.4-0.8-0.8-0.9-1.3c-0.4-0.3-0.6-0.7-0.6-1.1c-0.1-0.2-0.2,0-0.3-0.2
		c-0.5-1.2-1-2.4-0.8-3.7C219,187.6,221.8,185.3,223.1,184.4"/>
	<path clip-path="url(#SVGID_2_)" fill="#F0D235" d="M256.8,215.1c-1.3,0.7-2.9,1.2-3.7,2c-1.7,1-5,2.7-7.2,3.8
		c-0.7,0.4-1.4,0.9-1.9,0.8c-0.3,0-0.4-0.3-0.8-0.1c-0.1-0.3-0.4,0-0.2-0.3c-0.5-0.3-0.9-0.9-1.4-1.3c-0.7-0.2-0.6,0.2-0.9-0.6
		c-0.7-0.7-1.1-2.2-1.4-3.4l0.3-0.1c-0.2-0.2-0.2,0-0.2-0.4c0.1-0.1,0.2,0,0.2,0.1c1.3-2.2,5.4-6.2,7.2-8.2c2.4-2,4.9-4.5,6.2-6.7
		c-0.5-0.2-1,0.6-1.4,0.1c-1,0.6-2.8,1.4-3.2,2.2c-1.4,0.4-2.2,1.5-3.8,2.1c-1.1,1.2-5.1,2.6-6.5,3.7c-0.1-0.3-0.3,0.1-0.4-0.2
		c0,0.2-0.1,0.3-0.1,0.3c-0.5,0.4-1,0.3-1.5,0.5c-0.4-0.2-0.7-0.4-1.1-0.3c-0.8-0.9-1.4-1.3-2.2-2.1c0,0,0-0.1,0.1-0.2
		c-0.5-0.8-0.4-1.3-1.1-1.7c0.1-0.2,0.2-0.4-0.1-0.7c0.4-0.4,0.8-0.3,0.9-0.9c0.1,0.3,0.3,0.1,0.4,0.4c2.4-1.3,6.9-4.2,9.2-5.9
		c0.2-0.2,0.2-0.1,0.4-0.2c1.1-0.9,2.8-1.4,3.8-2.3c0.2-0.3,0.1,0.2,0.3,0.1c0.3,0,0.1-0.2,0.3-0.3c0.4,0.2,1.5-0.8,1.9-1
		c0.1,0.1,0.2,0.1,0.2,0.2c1.8-0.7,3.9-1.1,5.4-0.3c0.5-0.1,0.7,0.3,1.4,0.5c0.4,0.1,0.8,0.2,1.1,0.4c1.2,0.9,2,2.4,2.9,4.1
		c-0.5-0.1,0.2,0.2-0.2,0.4c0.3,0.4,0.4,0.8,0.1,1.1c0.1,0,0.3,0.1,0.3,0.3c0,0.1,0,0.2,0,0.3c0.1,0.3-0.1,0.1-0.1-0.1
		c-0.2,0.1-0.1,0.3,0.1,0.3c0.1,0.4,0,0.6,0.1,1c-0.8,1.1-2.4,2.8-3,4.1c-0.8,0.3-0.6,1-1.3,1.5c0,0.1-0.1,0.1-0.1,0.2
		c0.1-0.1,0.3-0.1,0.5-0.2c0.8,0.2,4.3-2.2,5.1-2.4c0.8-0.1,1.4,0.3,2.2,0.3c0.3,0.2,0.4,0.5,0.8,0.8c0.1,0.1,0.3,0.1,0.4,0.2
		c0.2,0.1,0.2,0.4,0.3,0.4c0,0,0,0,0.1,0c0,0,0.1,0,0.1,0c0,0.1-0.3,0.7,0.1,0.3c0,0.3,0.1,0.7,0.2,1.1c-0.2,0.4-0.6,1.3-0.7,1.3
		c-0.1,0-0.8,0.5-1.5,0.9c-0.4,0.3-0.8,0.5-1.3,0.8l0.1,0.1c-1,0.5-3,1.4-3.4,1.9C258.2,214.3,257.3,214.6,256.8,215.1"/>
	<path clip-path="url(#SVGID_2_)" fill="#F0D235" d="M272.9,240.6c-0.6,0.1-0.6,0.9-1.1,1.2c-0.3,0.1-0.2-0.2-0.4-0.1
		c-0.3,0.3-0.8,0.6-0.9,0.1c-0.3,0-0.2,0.4-0.6,0.3c0.2-1.3,0.2-3-0.6-4.3c0-0.6-0.3-0.8-0.6-1.2c-0.4-1.4-0.6-2.7-1.4-3.6
		c-1.6,0.7-2.6,0.7-4.2,1.4c-0.4-0.2-0.8,0.3-1.3,0.2c0,0.3-0.4,0.2-0.3,0.6c-0.1-0.1-0.6-0.3-0.7,0c-0.2-0.1-0.4-0.1-0.5-0.3
		c-0.8,0.3-1.9,0.9-2.4,0.6c-0.4,0.4-1.4,0.2-2.1,0.8c-0.2,0.1-0.3-0.1-0.4-0.1c-0.9,0.6-3,0.9-4.2,0.9c-0.2,0.4-1.3,0.3-2.2,0.5
		c-0.7,0.1-1.3,0.3-1.7,0.1c-0.4,0.2-0.7,0.1-1.3,0.2c0.1-0.4-0.3-0.2-0.4-0.4c0-0.3,0-0.6-0.1-0.9c-0.3,0.1-0.3-0.3-0.6-0.3
		c-0.1-0.4,0.1-0.6,0.2-0.9c0.3-0.2,0.2,0.2,0.4,0.1c0.3-0.3-0.8-0.8-0.4-1c0.1-0.3-0.3,0-0.3-0.1c0-0.3,0.1-0.4,0.2-0.6
		c-0.3-0.4-0.3-1.5,0.3-1.7c-0.2-0.4,0.2-0.4,0.1-0.7c1-0.7,3.8-0.8,4.8-1c2.3,0,4.5-0.5,6.6-1.1c1.7-0.5,4.3-0.6,6.1-1.2
		c0.3-0.1,0.5-0.4,0.8-0.1c0.5-0.3,1.2-0.3,1.9-0.4c0.1-0.1,0-0.3,0.2-0.3c-0.2-0.1-0.3-0.2-0.4-0.3c0-0.3,0.3-0.5,0-0.6
		c-0.1-0.2,0.2-0.2,0.1-0.4c-0.5-1.1-0.2-2-0.2-3c0.2-0.2,0.3-0.2,0.5-0.3c0-0.2,0.1-0.4,0-0.6c0.2,0,0.1-0.2,0.4-0.1
		c-0.2-0.2,0-0.3,0-0.4c0.3,0,0.5-0.6,0.9-0.4c0.4-0.2,0.4-0.8,1.1-0.9c0.1-0.2-0.1-0.2,0-0.4c0.7,0.1,0.9-0.4,1.6-0.3
		c0,0.2-0.4,0.2,0,0.3c0.4,0.1-0.1-0.4,0.2-0.4c0.3,0.3,0.5,0.8,0.6,1.3c-0.1,0.4-0.3,0.9-0.1,1.5c-0.3,0.4-0.1,1.1-0.4,1.5l0.2,1.2
		c0,0.1,0.1,0.1,0.2,0.2c1,3.4,2.3,6.2,3.4,9.5c0.4,0.6,0.9,1.3,0.8,2.1c-0.1,0.3-0.5,0.6-0.3,1.2c-0.3,0.2-0.3,0.5-0.3,0.9
		c-0.6,0.5-0.7,1.4-1.3,1.9C272.8,240.7,272.9,240.7,272.9,240.6"/>
	<path clip-path="url(#SVGID_2_)" fill="#F0D235" d="M146.2,202.7l0.8,19.4l-8.8,19.3l4.1,4.8l-5.9,12.7l6.2,4.5l1.1,10.1
		c0,0,4.4,11.4,5,11.9c0.6,0.5,13.8,9.4,13.8,9.4l18.3-1.3l6.2-2.7l7.2-2.3l5-1.8c0,0-2.7-6-1.9-5.9c0.8,0.2,8.6,0,8.6,0
		s3.2-12.9,3.7-12.8c0.5,0.1,19,1,19,1l5.2-9.8l-13.2-10c0,0-5.1-12.8-5.2-13.2c-0.1-0.4,0-18.2,0-18.2s3.1-17.4,3-17.5
		c1.9-6,5.4-16.7,5.9-18.4c0.7-2.4-3.7-5.7-3.7-5.7l-22,13.8c0,0-10.5,8-11.5,8.9s-16.1,1.5-16.1,1.5l-6.4-8.1
		c-2.6-4-6.8-10.8-6.8-10.8l-8.9-9.8c0,0-3.6,7.9-3.8,8.4C144.9,180.3,145.8,195.4,146.2,202.7L146.2,202.7z"/>
	<path clip-path="url(#SVGID_2_)" fill="#E6B821" d="M209.3,236.5c-0.6-6.8-1.3-13.8-4.2-20.1c-2.8-6.3-8.2-11.8-15-13
		c-1.7-0.3-3.4-0.4-5-0.4c-8.5-0.1-23.2-0.5-27.1,9.4c-0.9,2.4-0.9,5.1-0.8,7.7c0.1,2.3-0.9,4.4-1,6.8c-0.1,2.6,0.5,5.2,1.8,7.5
		c2.5,4.5,7.2,7.2,10.9,10.7c3,2.8,4.9,5.4,8.5,7.5c3.8,2.2,7.8,3.8,12,5.1c5.4,1.6,10.9,2.7,16.4,3.4c7.1,1,19.6,3.9,12.7-7.6
		c-2.4-4-4.2-8.2-5.9-12.4c-0.7-1.8-1.4-3.6-2.1-5.4c-1.3-3.3-2.6-6.6-4.1-9.8c-4.9-10.4-13-20.6-24.3-22.5
		c-3.3-0.5-6.8-0.3-10.1,0.2c-0.3,0.1-0.7,0.1-1,0.2"/>
	<path clip-path="url(#SVGID_2_)" fill="#E6B821" d="M163.2,268.3c2.1,1.1,4.7,1.3,7.1,1.4c2.8,0.2,5.7,0.3,8.5,0.5
		c2.2,0.1,4.6,0.3,6.5,1.5c3.4,2.1,4.2,7.2,2.4,10.8c-1.8,3.6-5.5,5.9-9.4,7.1c-6.6,2-14,1.2-20-2.2c-6-3.4-10.5-9.3-12.2-16
		c-0.5-1.8-0.7-3.8-0.2-5.6c0.4-1.4,1.2-2.6,1.5-4c0.3-1.4-0.2-3.2-1.6-3.5c-0.9-0.2-1.9,0.2-2.9,0c-2.3-0.5-1.9-3.8-1-6l3.6-8.7
		c0.3-0.7,0.6-1.4,0.5-2.2c-0.1-0.7-0.5-1.3-0.6-2c-0.3-2,2.1-3.9,4-4c2.6-0.1,2.5,1.2,4,3.2C159.6,247.3,153.1,262.9,163.2,268.3"
		/>
	<path clip-path="url(#SVGID_2_)" fill="#F4E678" d="M209.6,217.2c1.2-1.9,1.4-4.9,1.9-7c0.8-3.3,1.6-6.6,2.3-9.9
		c0.6-2.7,1.3-5.4,1.5-8.1c0.2-2.1,0.1-4.2-0.1-6.4c-2.5,2.8-4.1,6.2-6,9.3c-2.4,4.1-5.8,7.5-8.1,11.6c-0.5,0.8-0.9,1.7-1,2.7
		c-0.1,1.8,1.1,3.4,2.6,4.6c1.4,1.1,3.1,2,4.2,3.4c0.2,0.3,0.4,0.5,0.7,0.7c0.5,0.3,1.2,0,1.5-0.4
		C209.3,217.6,209.5,217.4,209.6,217.2"/>
	<path clip-path="url(#SVGID_2_)" fill="#E6B821" d="M197.8,213.2C197.8,213.2,197.9,213.2,197.8,213.2c1.3,0.2,2.6,0.1,3.5-0.7
		c0.6-0.6,0.9-1.5,1.2-2.3c0.8-2.2,1.7-4.4,2.8-6.4c3.3-6,8.1-11.1,10.9-17.4c0.3-0.6,0.5-1.4,0-1.8c-0.5-0.5-1.4-0.1-2,0.2
		c-2.5,1.6-4.7,3.7-7.3,5.2c-2.7,1.6-5.6,3.2-8.2,4.9c-3.2,2-5.7,5.1-9.2,6.4c-3.6,1.4-7.6,0.7-11.5,1c-2,0.1-4,0.5-6,1.2
		c-0.8,0.3-1.7,0.8-1.6,1.6c2.1,0.4,4.2-0.3,6.3-0.7c2.6-0.5,5.3-0.6,8-0.3c0.9,0.1,1.8,0.3,2.6,0.7c0.7,0.4,1.3,0.9,1.9,1.5
		C192,208.8,193.7,212.4,197.8,213.2"/>
	<path clip-path="url(#SVGID_2_)" fill="#F4E678" d="M151.1,181.9c-1.6,1-2,3.2-2.1,5c-0.6,10.4,3,20.8,2.7,31.2
		c-0.1,2.2-0.3,4.5,0,6.7c0.3,2.2,1.3,4.5,3.2,5.7c1.8-0.6,2.1-2.9,2.2-4.8c0.1-4.7,0.4-9.9,3.4-13.8c2.2-2.9,7.1-4.5,6.2-8.9
		c-0.8-4-4.5-9-6.7-12.5C159.2,189.5,153.1,180.7,151.1,181.9"/>
	<path clip-path="url(#SVGID_2_)" fill="#E6B821" d="M159.7,198.5c2.6,4.4,6.4,8.6,11.4,9.8c0.2-1.1-0.5-2.1-1.2-3l-3.9-5.4
		c-1.4-1.9-2.7-3.7-4.4-5.3c-0.8-0.7-1.6-1.4-2.3-2.2c-2-2.4-2.4-5.8-4.3-8.4c-0.8-1.1-3.4-3.2-4.7-1.6c-0.9,1.1,1.4,2.1,2.2,2.9
		C155.7,189,157.2,194.4,159.7,198.5"/>
	<path clip-path="url(#SVGID_2_)" fill="#F4E678" d="M189.7,261.1c0.3,0,0.7-0.1,1-0.1c3.5-0.5,6.7,0.1,10.1,1.3
		c1.1,0.4,2.2,0.9,2.6,2c2.5,7.3-16.5,1.6-18.6,0.9c-1.9-0.6-4.5-1.4-5.6-3.3C181.6,260.2,186.8,261.3,189.7,261.1"/>
	<path clip-path="url(#SVGID_2_)" fill="#BA792A" d="M150.5,265c-0.4-2.8-0.7-5.6-1.1-8.4c-0.1-0.5-0.4-0.8-0.9-0.7
		c-2.1,0.4-4.1,0.9-6.2,1.3c0.3,0.3,0.6,0.6,0.8,0.8c1.6-5.5,3.9-10.8,6.7-15.8c0.2-0.4,0-0.8-0.4-1c-1.7-0.7-3.4-0.9-5.2-0.8
		c0.1,0.4,0.1,0.9,0.2,1.4c0.9-0.3,1.2-1.4,1.6-2.2c0.6-1.4,1.2-2.9,1.7-4.4c1.5-4.1,3.4-8,4.5-12.2c0.2-0.9-1.1-1.2-1.3-0.4
		c-1,3.8-2.7,7.2-4,10.9c-0.5,1.3-0.9,2.5-1.4,3.8c-0.2,0.5-0.9,2.9-1.4,3.1c-0.7,0.2-0.6,1.4,0.2,1.4c1.7-0.1,3.2,0.1,4.8,0.7
		c-0.1-0.3-0.3-0.7-0.4-1c-2.9,5.1-5.2,10.5-6.8,16.2c-0.2,0.5,0.4,1,0.8,0.8c2.1-0.4,4.1-0.9,6.2-1.3c-0.3-0.2-0.6-0.4-0.9-0.7
		c0.4,2.8,0.7,5.6,1.1,8.4C149.3,265.8,150.6,265.9,150.5,265"/>
	<path clip-path="url(#SVGID_2_)" fill="#BA792A" d="M171.3,204.6c4.3-1.6,8.9-2.1,13.4-1.2c4.5,0.9,8.5,3.1,12.3,5.5
		c0.8,0.5,1.4-0.7,0.7-1.2c-4-2.5-8.4-4.8-13.1-5.7c-4.6-0.8-9.3-0.4-13.6,1.3C170.1,203.6,170.5,204.9,171.3,204.6"/>
	<path clip-path="url(#SVGID_2_)" fill="#BA792A" d="M188.7,203.1c9.4-6.2,18.8-12.3,28.1-18.5c-0.3-0.2-0.7-0.4-1-0.6
		c0.3,7.5-1.8,14.5-3.6,21.7c-1.8,7-2.9,14-1.7,21.2c0.1,0.9,1.5,0.5,1.3-0.4c-2.4-14.7,5.9-28,5.4-42.5c0-0.5-0.6-0.9-1-0.6
		c-9.4,6.2-18.8,12.3-28.1,18.5C187.3,202.4,187.9,203.6,188.7,203.1"/>
	<path clip-path="url(#SVGID_2_)" fill="#BA792A" d="M193.6,224c1.9,8,8.4,14.7,14,20.4c6,6.1,12.6,11.5,19.7,16.2
		c0.7,0.5,1.4-0.7,0.7-1.2c-6.8-4.5-13.2-9.7-19-15.6c-5.6-5.6-12.2-12.3-14-20.2C194.7,222.7,193.4,223.1,193.6,224"/>
	<path clip-path="url(#SVGID_2_)" fill="#F4E678" d="M183.9,235.9c0.9-1.9,0.2-4.1-0.9-5.8c-1-1.6-3.7-2.5-5.4-2.6
		c-2.9-0.2-5.8,2.2-6.3,5.1c-0.1,0.9,0.1,1.8,0.4,2.6c0.9,2.1,2.9,3.6,5.1,4c2.2,0.4,4.6-0.4,6.2-2
		C183.3,236.9,183.7,236.4,183.9,235.9"/>
	<path clip-path="url(#SVGID_2_)" fill="#BA792A" d="M184.5,236.3c1.2-2.7,0.1-6.3-2.3-8c-2.1-1.4-5-2-7.3-1c-2.5,1-4.5,3.6-4.2,6.4
		c0.3,2.9,2.7,5.4,5.5,6.1C179.3,240.7,183,239.3,184.5,236.3c0.4-0.8-0.8-1.5-1.2-0.7c-1.1,2.1-3.6,3.3-5.9,3.1
		c-2.2-0.2-4.2-1.8-5.1-3.8c-0.9-2.3,0.3-4.6,2.3-5.9c1.8-1.1,3.9-0.9,5.8-0.1c1.1,0.5,1.9,1.2,2.4,2.3c0.7,1.3,1.1,3,0.5,4.4
		C182.9,236.4,184.1,237.1,184.5,236.3"/>
	<path clip-path="url(#SVGID_2_)" fill="#BA792A" d="M180.1,232.5c-0.8,0.2-1.3,0.8-1.6,1.5c-0.3,0.8-0.1,1.6,0.4,2.2
		c0.2,0.2,0.6,0.2,0.8,0.1c1.9-0.9,2-4,0.3-5.1c-0.4-0.3-0.9,0-1.2,0.3c-0.3,0.2-0.5,0.5-0.7,0.8c-0.3,0.6-0.4,1.4,0,2
		c0.4,0.6,1.1,1,1.8,0.8c0.6-0.2,1-0.8,1.1-1.4c0-0.3-0.1-0.7-0.3-1c-0.2-0.2-0.5-0.4-0.9-0.2c-0.2,0.1-0.3,0.2-0.5,0.3
		c-0.5,0.5-0.7,1.4-0.3,2.1c0.2,0.3,0.6,0.5,0.9,0.2c0.3-0.2,0.4-0.6,0.2-0.9c0,0,0-0.1,0-0.1c0,0.1,0,0.1,0,0c0,0,0,0,0-0.1
		c0-0.1,0,0,0,0.1c0,0,0-0.2,0-0.1c0,0.1,0-0.1,0-0.1c0-0.1-0.1,0.1,0,0c0,0,0-0.1,0.1-0.1c-0.1,0.1-0.1,0.1,0,0c0,0,0,0,0,0
		c0.1,0,0,0,0,0c0,0,0.1-0.1,0.2-0.1h-0.7c-0.1-0.1-0.1-0.1-0.1,0c0,0,0,0,0-0.1c0,0,0.1,0.2,0,0c0,0,0,0.1,0,0c0-0.1,0,0,0,0
		c0,0.1,0-0.1,0,0c0,0,0,0.1,0,0.1c0,0,0.1-0.1,0,0c0,0-0.1,0.1-0.1,0.1c0,0,0.1-0.1,0,0c-0.1,0.1,0.1-0.1,0,0c-0.1,0.1,0.1,0,0,0
		c-0.1,0.1,0,0,0,0c0,0-0.1,0-0.1,0c0,0,0.1,0,0.1,0c0,0,0,0-0.1,0c-0.1,0,0,0,0,0c0,0-0.1,0-0.1-0.1c0,0,0,0,0,0c0,0,0,0-0.1-0.1
		c0,0-0.1-0.1-0.1-0.1c0.1,0.1,0,0,0,0c0,0-0.1-0.2,0-0.1c0,0.1,0-0.1,0-0.1c0-0.1,0,0,0,0c0,0,0-0.1,0-0.2c0-0.1,0,0.1,0,0
		c0,0,0-0.1,0-0.1c0-0.1-0.1,0.1,0,0c0-0.1,0.1-0.1,0.1-0.1c0.1-0.1-0.1,0.1,0,0c0,0,0.1-0.1,0.1-0.1c0,0,0.1-0.1,0.1-0.1
		c0.1-0.1-0.1,0.1,0,0c0.1-0.1,0.2-0.1,0.3-0.2h-0.7c0,0,0.1,0,0.1,0.1c0.1,0.1-0.1-0.1,0,0c0.1,0.1,0.1,0.1,0.2,0.2
		c0.1,0.1-0.1-0.1,0,0c0,0,0,0.1,0.1,0.1c0,0,0.1,0.2,0.1,0.2c0-0.1,0-0.1,0,0c0,0,0,0,0,0c0,0,0,0.1,0,0.1c0,0.1,0,0.2,0.1,0.3
		c0,0.2,0-0.1,0,0c0,0.1,0,0.1,0,0.2c0,0.1,0,0.2,0,0.3c0,0,0,0.1,0,0.1c0,0.2,0-0.2,0,0c0,0.1,0,0.2-0.1,0.3c0,0,0,0.1,0,0.1
		c0,0-0.1,0.1,0,0.1c0.1-0.1,0,0,0,0.1c0,0,0,0.1-0.1,0.1c0,0-0.1,0.2-0.1,0.2c0.1-0.1,0.1-0.1,0-0.1c0,0,0,0,0,0
		c0,0-0.1,0.1-0.1,0.1c0,0-0.1,0.1-0.1,0.1c-0.1,0.1,0.1-0.1,0,0c-0.1,0.1-0.2,0.1-0.3,0.2c0.3,0,0.6,0.1,0.8,0.1c0.1,0.1,0,0,0,0
		c0,0,0-0.1,0-0.1c0-0.1,0-0.1,0,0c0,0,0-0.2-0.1-0.2c0-0.2,0,0.1,0,0c0,0,0-0.3,0-0.3c0,0.1,0,0.1,0,0c0,0,0-0.1,0-0.1
		c0-0.1,0-0.1,0-0.2c0,0,0-0.1,0-0.1c0,0.1,0,0.1,0,0c0-0.1,0.1-0.1,0.1-0.2c0,0,0.1-0.1,0.1-0.1c-0.1,0.1-0.1,0.1,0,0
		c0,0,0,0,0.1-0.1c0,0,0.1-0.1,0.1-0.1c-0.1,0.1-0.1,0.1,0,0c0,0,0.1,0,0.1,0c0,0,0.1,0,0.1,0c0.1,0,0.1,0,0,0c0,0,0.2-0.1,0.2-0.1
		c0.3-0.1,0.6-0.5,0.5-0.8C180.8,232.6,180.5,232.4,180.1,232.5"/>
	<path clip-path="url(#SVGID_2_)" fill="#F4E678" d="M201.7,229.2c-1.1,2.6,0.6,6,3.3,6.6c1.6,0.4,3.5-0.2,4.6-1.5
		c1.1-1.3,1.3-3.3,0.4-4.8c-0.5-0.8-1.2-1.6-2.1-2c-0.6-0.3-1.4-0.5-2.1-0.6c-0.4-0.1-0.8-0.2-1.3-0.1
		C203.5,227,202.1,228.1,201.7,229.2"/>
	<path clip-path="url(#SVGID_2_)" fill="#BA792A" d="M201,229c-0.7,1.7-0.3,3.8,0.7,5.4c1.2,1.7,3.2,2.5,5.2,2.2
		c2.2-0.4,3.9-2.1,4.2-4.3c0.3-2.3-1.2-4.6-3.4-5.5c-1.3-0.5-2.8-0.9-4.1-0.4c-1.1,0.5-2.1,1.3-2.6,2.4c-0.2,0.3-0.1,0.7,0.2,0.9
		c0.3,0.2,0.8,0.1,0.9-0.2c0.4-0.8,1-1.4,1.8-1.8c0.9-0.4,1.7-0.2,2.6,0.1c1.7,0.5,3.2,2,3.2,3.9c0,1.7-1.3,3-2.9,3.4
		c-1.5,0.3-2.9-0.2-3.9-1.4c-1-1.2-1.3-2.9-0.7-4.4c0.1-0.3-0.2-0.8-0.5-0.8C201.4,228.4,201.1,228.6,201,229"/>
	<path clip-path="url(#SVGID_2_)" fill="#BA792A" d="M224.8,262.5c-3.6,1.6-7.9,1.4-11.7,1.1c-4.4-0.4-8.8-1.3-13.1-2.3
		c-4.4-1-8.7-2.1-12.9-3.9c-4.9-2.2-9.3-5.2-13.4-8.7c-0.7-0.6-1.7,0.4-1,1c4.3,3.7,9,6.9,14.2,9.2c4.2,1.8,8.6,2.9,13.1,3.9
		c4.5,1,9,1.9,13.5,2.3c3.9,0.3,8.2,0.4,11.9-1.3C226.3,263.3,225.6,262.1,224.8,262.5"/>
	<path clip-path="url(#SVGID_2_)" fill="#BA792A" d="M170.1,248.8c1.2,2.7,2.1,5.5,3.6,8c1.3,2.2,3.2,4.7,5.8,5.3
		c1.4,0.3,2.9,0.2,4.3,0.2c1.7,0,3.3-0.1,5-0.3c3.4-0.3,6.4-0.4,9.7,0.4c0.9,0.2,1.2-1.1,0.4-1.3c-2.7-0.6-5.2-0.9-8-0.6
		c-3.1,0.3-6.2,0.6-9.4,0.5c-6.2-0.1-8.2-8.2-10.2-12.8C170.9,247.3,169.7,248,170.1,248.8"/>
	<path clip-path="url(#SVGID_2_)" fill="#BA792A" d="M154.1,226.1c-2.4-7.6-3.5-15.4-4-23.3c-0.3-3.8-0.4-7.6-0.6-11.5
		c-0.2-3.8-0.3-7.6,1.1-11.2c-0.4,0.1-0.8,0.2-1.2,0.3c5.7,4.9,9.8,11,13.7,17.3c3.2,5.1,6.7,11.1,13.1,12.5
		c0.9,0.2,1.2-1.1,0.4-1.3c-6.8-1.5-10.2-8.6-13.6-14c-3.6-5.7-7.5-11.1-12.6-15.5c-0.4-0.4-1-0.2-1.2,0.3c-1.3,3.4-1.3,7-1.2,10.6
		c0.2,4.1,0.3,8.3,0.6,12.4c0.6,8,1.6,16,4.1,23.7C153,227.3,154.3,226.9,154.1,226.1"/>
	<path clip-path="url(#SVGID_2_)" fill="#BA792A" d="M169.9,224.6c2.2-1.8,5.1-2.3,7.7-1.4c2.6,0.9,4.7,2.9,6.6,4.7
		c0.6,0.6,1.6-0.4,1-1c-2.2-2.1-4.7-4.4-7.7-5.2c-3-0.9-6.2-0.1-8.6,1.9C168.3,224.2,169.3,225.2,169.9,224.6"/>
	<path clip-path="url(#SVGID_2_)" fill="#BA792A" d="M185.8,227.5c-1.6-2.2-3.1-4.5-4.8-6.7c-1.6-2-3.5-3.6-5.5-5
		c-0.2-0.1-0.5-0.1-0.7,0c-3.6,1.9-7.5,4.3-7.9,8.8c-0.1,0.9,1.3,0.9,1.4,0c0.4-3.9,4.2-6,7.2-7.6h-0.7c4.3,2.8,7,7.1,9.9,11.2
		C185.1,228.9,186.3,228.2,185.8,227.5"/>
	<path clip-path="url(#SVGID_2_)" fill="#BA792A" d="M168.4,221.3c-0.5,1.1-0.7,2.3-0.6,3.5c0,0.3,0.2,0.5,0.4,0.6
		c0.2,0.1,0.6,0.1,0.8-0.1c0.5-0.6,0.9-1.4,1-2.2c0.1-0.4-0.1-0.8-0.5-0.8c-0.3-0.1-0.8,0.1-0.8,0.5c0,0.2-0.1,0.3-0.1,0.5
		c0,0.1,0,0.1-0.1,0.2c0,0-0.1,0.2,0,0.1c0-0.1,0,0.1,0,0.1c-0.1,0.1-0.1,0.3-0.2,0.4c0,0.1-0.1,0.1-0.1,0.2c-0.1,0.1,0,0,0,0
		c0,0-0.1,0.1-0.1,0.1l1.2,0.5c0-0.3,0-0.5,0-0.8c0-0.1,0-0.2,0-0.3c0,0,0-0.3,0-0.1c0-0.1,0-0.1,0-0.2c0-0.2,0.1-0.5,0.2-0.7
		c0-0.1,0.1-0.3,0.1-0.4c0-0.1,0-0.1,0.1-0.2c0,0,0.1-0.3,0-0.1c0.1-0.2,0.1-0.3,0.1-0.5c0-0.2-0.2-0.3-0.3-0.4
		C169,220.9,168.5,220.9,168.4,221.3"/>
	<path clip-path="url(#SVGID_2_)" fill="#BA792A" d="M170.9,218.5c-0.6,1.6-1.3,3.3-1.9,4.9c-0.2,0.7,0.7,1.2,1.2,0.7
		c0.8-0.8,1.3-1.8,1.6-2.9c0.2-0.9-1.1-1.2-1.3-0.4c-0.2,0.8-0.7,1.6-1.3,2.3c0.4,0.2,0.8,0.4,1.2,0.7c0.6-1.6,1.3-3.3,1.9-4.9
		c0.1-0.3-0.1-0.8-0.5-0.8C171.4,217.9,171.1,218.2,170.9,218.5"/>
	<path clip-path="url(#SVGID_2_)" d="M171.6,219c-0.3,0.7-0.6,1.4-0.8,2.1c-0.1,0.1,0,0.4,0.1,0.5c0.1,0.1,0.2,0.2,0.3,0.3
		c0.3,0.1,0.7,0,0.9-0.3c0.3-0.5,0.6-1,0.9-1.5c0.2-0.3,0.1-0.8-0.2-0.9c-0.3-0.2-0.7-0.1-0.9,0.2l-0.9,1.5c0.4,0.2,0.8,0.4,1.3,0.5
		c0.3-0.7,0.6-1.4,0.8-2.1c0.1-0.2,0-0.4-0.1-0.5c-0.1-0.1-0.2-0.3-0.4-0.3c-0.2,0-0.4,0-0.5,0.1C171.8,218.7,171.7,218.9,171.6,219
		"/>
	<path clip-path="url(#SVGID_2_)" fill="#BA792A" d="M172.3,218.4c-0.9,1.1-1.6,2.3-2.2,3.6c-0.1,0.3-0.1,0.7,0.2,0.9
		c0.3,0.2,0.7,0.2,0.9-0.1c0.3-0.4,0.7-0.7,1-1.1c0.2-0.3,0.3-0.7,0-1c-0.3-0.2-0.7-0.3-1,0c-0.3,0.4-0.7,0.7-1,1.1
		c0.4,0.3,0.7,0.6,1.1,0.8c0.3-0.6,0.6-1.2,0.9-1.8c0.2-0.3,0.4-0.6,0.5-0.8c0.1-0.1,0.2-0.3,0.3-0.4c0-0.1,0.1-0.1,0.1-0.2
		c0,0,0.1-0.1,0.1-0.1c0,0.1,0,0.1,0,0c0.1-0.1,0.2-0.3,0.2-0.5c0-0.2-0.1-0.4-0.2-0.5C173.1,218.1,172.6,218.1,172.3,218.4"/>
	<path clip-path="url(#SVGID_2_)" d="M174.4,218.2c-0.7,0.7-1.3,1.5-1.8,2.5c-0.1,0.3-0.1,0.6,0.1,0.8c0.1,0.1,0.2,0.1,0.3,0.2
		c0.1,0,0.4,0,0.5-0.1c0.5-0.4,1-0.9,1.4-1.5c0.2-0.3,0.1-0.8-0.2-0.9c-0.3-0.2-0.7-0.1-0.9,0.2c-0.1,0.1-0.1,0.2-0.2,0.3
		c0,0,0,0.1-0.1,0.1c0,0,0.1-0.1,0,0c0,0.1-0.1,0.1-0.1,0.2c-0.1,0.1-0.2,0.2-0.3,0.3c0,0-0.1,0.1-0.1,0.1c0,0,0,0-0.1,0.1
		c0,0,0.1,0,0.1-0.1c0,0,0,0-0.1,0l0.9,0.9c0.2-0.4,0.4-0.8,0.7-1.2c0,0,0.1-0.1,0.1-0.1c0,0,0-0.1,0.1-0.1c0,0-0.1,0.1,0,0
		c0.1-0.1,0.1-0.2,0.2-0.3c0.2-0.2,0.3-0.4,0.5-0.5c0.3-0.3,0.3-0.7,0-1C175.1,217.9,174.6,217.9,174.4,218.2"/>
	<path clip-path="url(#SVGID_2_)" d="M175.2,218.1c-0.4,0.6-0.8,1.2-1.2,1.8c-0.1,0.1-0.1,0.2-0.1,0.3c0,0.2,0.1,0.3,0.1,0.4
		c0.2,0.2,0.5,0.3,0.7,0.2c0.3-0.1,0.5-0.2,0.7-0.4c0.2-0.2,0.3-0.4,0.4-0.7c0.1-0.2,0-0.4-0.1-0.5c-0.1-0.1-0.2-0.3-0.4-0.3
		c-0.2,0-0.4,0-0.5,0.1c-0.2,0.1-0.2,0.2-0.3,0.4c0,0,0,0,0,0c0-0.1,0-0.1,0.1-0.2c0,0.1-0.1,0.2-0.1,0.2c0,0,0.1-0.1,0.1-0.1
		c-0.1,0.1-0.1,0.1-0.2,0.2c0,0,0.1-0.1,0.1-0.1c-0.1,0.1-0.2,0.1-0.2,0.1c0.1,0,0.1,0,0.2-0.1c0,0,0,0-0.1,0c0.3,0.3,0.5,0.7,0.8,1
		c0.4-0.6,0.8-1.2,1.2-1.8c0.1-0.1,0.1-0.4,0.1-0.5c0-0.2-0.2-0.3-0.3-0.4C175.8,217.7,175.4,217.8,175.2,218.1"/>
	<path clip-path="url(#SVGID_2_)" fill="#BA792A" d="M175.5,218.1c-0.5,0.9-1.1,1.8-1.6,2.7c-0.2,0.3-0.1,0.7,0.2,0.9
		c0.3,0.2,0.7,0.2,0.9-0.1c0.2-0.3,0.5-0.5,0.8-0.7c0.1-0.1,0.3-0.2,0.4-0.3c0,0,0.1-0.1,0.1-0.1c0.1-0.1-0.1,0.1,0,0
		c0.1-0.1,0.2-0.1,0.2-0.2c0.1-0.1,0.3-0.2,0.3-0.4c0-0.2,0-0.4-0.1-0.5c-0.2-0.3-0.6-0.5-0.9-0.2c-0.6,0.5-1.2,1-1.8,1.5
		c0.4,0.3,0.7,0.6,1.1,0.8c0.5-0.9,1.1-1.8,1.6-2.7c0.2-0.3,0.1-0.8-0.2-0.9C176.1,217.7,175.7,217.8,175.5,218.1"/>
	<path clip-path="url(#SVGID_2_)" fill="#BA792A" d="M175.5,219.4c-0.2,0.6-0.3,1.3-0.5,1.9c-0.1,0.3,0,0.6,0.3,0.8
		c0.1,0.1,0.2,0.1,0.3,0.1c0.2,0,0.3-0.1,0.5-0.2l1.8-1.4c0.1-0.1,0.2-0.3,0.2-0.5c0-0.2-0.1-0.4-0.2-0.5c-0.1-0.1-0.3-0.2-0.5-0.2
		c-0.1,0-0.1,0-0.2,0c-0.1,0-0.2,0.1-0.3,0.2l-1.8,1.4c0.4,0.2,0.8,0.4,1.2,0.7c0.2-0.6,0.3-1.3,0.5-1.9c0.1-0.3-0.1-0.8-0.5-0.8
		C176,218.8,175.6,219,175.5,219.4"/>
	<path clip-path="url(#SVGID_2_)" fill="#BA792A" d="M177.4,220c-0.2,0.5-0.4,1-0.7,1.5c-0.1,0.3-0.1,0.7,0.2,0.9
		c0.3,0.2,0.6,0.2,0.9-0.1c0.4-0.4,0.8-0.7,1.2-1.1c-0.4-0.2-0.8-0.4-1.2-0.7c0,0.1-0.1,0.3-0.1,0.4c0,0.1,0,0.1-0.1,0.2
		c0,0.1,0,0.1,0,0c0,0,0,0.1,0,0.1c-0.1,0.3-0.3,0.5-0.4,0.7c-0.3,0.4,0.1,1,0.6,1c0.5,0,0.9-0.3,1.2-0.6c0.1-0.1-0.1,0.1,0,0
		c0,0,0.1,0,0.1-0.1c0.1-0.1-0.1,0,0,0c0,0-0.1,0-0.1,0c0.1,0,0,0,0,0c-0.1,0-0.1,0-0.1,0c-0.1-0.1-0.1-0.1,0,0c0,0,0,0,0,0
		c0,0.1,0,0.1,0,0c0-0.1,0,0.1,0,0.1c0,0.1,0,0.1,0.1,0.2c0.4,1,1.2,1.8,2.3,2.1c0.3,0.1,0.8-0.1,0.8-0.5c0.1-0.4-0.1-0.8-0.5-0.8
		c-0.1,0-0.2-0.1-0.3-0.1c0.1,0.1,0,0,0,0c-0.1,0-0.1-0.1-0.2-0.1c0,0-0.1-0.1-0.1-0.1c0,0-0.1-0.1,0,0c-0.1-0.1-0.2-0.2-0.3-0.2
		c0,0-0.1-0.1-0.1-0.1c-0.1-0.1,0,0.1,0,0c-0.1-0.1-0.1-0.2-0.2-0.3c0-0.1-0.1-0.2,0,0c0-0.1,0-0.1-0.1-0.2c0-0.1-0.1-0.3-0.2-0.4
		c-0.3-0.6-1-0.7-1.6-0.4c-0.2,0.1-0.3,0.3-0.5,0.4c-0.1,0.1,0.1,0,0,0c0,0-0.1,0-0.1,0.1c-0.1,0.1,0.1,0,0,0c-0.2,0.1,0.1,0,0,0
		c0.2,0.3,0.4,0.7,0.6,1c0.4-0.5,0.7-1.1,0.8-1.8c0.2-0.7-0.6-1.1-1.2-0.7c-0.4,0.4-0.8,0.7-1.2,1.1c0.4,0.3,0.7,0.6,1.1,0.8
		c0.2-0.5,0.4-1,0.7-1.5c0.1-0.3,0.1-0.8-0.2-0.9C178,219.6,177.5,219.6,177.4,220"/>
	<path clip-path="url(#SVGID_2_)" fill="#BA792A" d="M202.5,224.2c0.3-1,1.3-1.7,2.4-1.7c1,0,2,0.7,2.4,1.7c0.1,0.4,0.5,0.6,0.8,0.5
		c0.3-0.1,0.6-0.5,0.5-0.8c-0.5-1.6-2-2.7-3.7-2.7c-1.7,0-3.2,1.2-3.7,2.7c-0.1,0.4,0.1,0.8,0.5,0.8
		C202.1,224.8,202.4,224.6,202.5,224.2"/>
	<path clip-path="url(#SVGID_2_)" fill="#BA792A" d="M202.3,226c0.9-1.6,2.8-2.6,4.6-2.5c0.4,0,0.7-0.3,0.7-0.7
		c0-0.4-0.3-0.7-0.7-0.7c-2.3-0.2-4.7,1.1-5.8,3.2C200.7,226.1,201.9,226.8,202.3,226"/>
	<path clip-path="url(#SVGID_2_)" fill="#BA792A" d="M156.7,281.1c5.9,2.7,10.3,8.6,17.1,9.3c3.1,0.4,5.4-0.9,8-2.4
		c3.4-1.9,7.2-3.1,11-3.5c0.4,0,0.8-0.4,0.7-0.9c-0.7-1.7-1-3.4-1-5.3c-0.2,0.2-0.3,0.4-0.5,0.7c3.8-1.2,7.6-2.2,11.5-2.8
		c0.3,0,0.5-0.4,0.5-0.7c0.1-4.2,0.6-8.3,1.4-12.4c0.2-0.9-1.1-1.2-1.3-0.4c-0.9,4.2-1.3,8.5-1.5,12.8c0.2-0.2,0.3-0.4,0.5-0.7
		c-3.9,0.7-7.7,1.6-11.5,2.8c-0.3,0.1-0.5,0.4-0.5,0.7c0,2,0.4,3.8,1.1,5.6c0.2-0.3,0.4-0.6,0.7-0.9c-3.1,0.3-6.1,1.1-8.9,2.3
		c-3,1.3-5.6,3.7-9,3.7c-6.9,0-11.7-6.5-17.6-9.2C156.6,279.5,155.9,280.7,156.7,281.1"/>
	<path clip-path="url(#SVGID_2_)" fill="#BA792A" d="M210.9,192c-3,4.8-5.7,9.7-8.1,14.7c-0.9,1.8-2.6,4.3-1.4,6.3
		c0.8,1.4,3.1,1.7,3.6,3.3c0.2,0.8,1.6,0.5,1.3-0.4c-0.4-1.5-1.7-2-2.9-2.8c-1.2-0.8-1.1-1.9-0.6-3.2c0.5-1.3,1.2-2.5,1.8-3.7
		c2.3-4.6,4.8-9.1,7.5-13.5C212.6,191.9,211.4,191.2,210.9,192"/>
	<path clip-path="url(#SVGID_2_)" fill="#BA792A" d="M226.1,259.1c-0.8,0.8-1.4,1.8-1.8,2.8c0,0.1,0,0.3,0,0.4
		c0,0.1,0.1,0.3,0.2,0.4c0.2,0.2,0.5,0.2,0.8,0.1c0.7-0.3,1.2-0.8,1.7-1.5c0.2-0.3,0.1-0.8-0.2-0.9c-0.4-0.2-0.7-0.1-0.9,0.2
		c0,0,0,0.1-0.1,0.1c-0.1,0.1,0.1-0.1,0,0c0,0.1-0.1,0.1-0.1,0.2c-0.1,0.1-0.2,0.2-0.3,0.3c0,0-0.1,0-0.1,0.1c-0.1,0.1,0.1-0.1,0,0
		c-0.1,0-0.1,0.1-0.2,0.1c-0.1,0.1-0.3,0.2-0.4,0.2c0.3,0.3,0.7,0.5,1,0.8c0,0-0.1,0.1,0,0l0-0.1c0-0.1,0-0.1,0.1-0.2
		c0.1-0.1,0.1-0.2,0.2-0.3c0.1-0.2,0.2-0.4,0.4-0.6c0.1-0.1,0.1-0.2,0.2-0.3c0,0,0.1-0.1,0.1-0.1c0,0-0.1,0.1,0,0c0,0,0-0.1,0.1-0.1
		c0.2-0.2,0.3-0.4,0.5-0.6c0.3-0.3,0.3-0.7,0-1C226.8,258.9,226.4,258.8,226.1,259.1"/>
	<path clip-path="url(#SVGID_2_)" fill="#BA792A" d="M226.8,259.8c-0.3,0.5-0.7,1-1,1.5c-0.2,0.2-0.1,0.6,0.1,0.8
		c0.2,0.2,0.4,0.3,0.7,0.2c0.2-0.1,0.5-0.1,0.7-0.2c-0.3-0.2-0.6-0.4-0.9-0.7c0,0.2,0,0.5,0,0.7c0,0.4,0.3,0.7,0.7,0.7
		c0.4,0,0.7-0.3,0.7-0.7c0-0.2,0-0.5,0-0.7c0-0.5-0.4-0.8-0.9-0.7c-0.2,0.1-0.5,0.1-0.7,0.2c0.3,0.3,0.5,0.7,0.8,1
		c0.3-0.5,0.7-1,1-1.5c0.2-0.3,0.1-0.8-0.2-0.9C227.4,259.3,227,259.5,226.8,259.8"/>
	<path clip-path="url(#SVGID_2_)" fill="#BA792A" d="M225.3,259.1c0.9,1.3,2.2,2.3,3.8,2.7c0.3,0.1,0.8-0.1,0.8-0.5
		c0.1-0.4-0.1-0.7-0.5-0.8c-0.2,0-0.3-0.1-0.5-0.2c0,0-0.1,0-0.1,0c0.1,0,0.1,0,0,0c-0.1,0-0.1-0.1-0.2-0.1
		c-0.3-0.2-0.6-0.3-0.9-0.5c0,0-0.1,0-0.1-0.1c-0.1,0-0.1-0.1,0,0c-0.1,0-0.1-0.1-0.2-0.2c-0.1-0.1-0.2-0.2-0.4-0.3
		c-0.1-0.1-0.2-0.2-0.3-0.4c-0.1-0.1-0.1-0.1-0.2-0.2c0,0,0.1,0.1,0,0c0,0-0.1-0.1-0.1-0.1c-0.2-0.3-0.6-0.5-0.9-0.2
		C225.3,258.4,225.1,258.8,225.3,259.1"/>
	<path clip-path="url(#SVGID_2_)" fill="#BA792A" d="M227,260.4c0.3,0.1,0.6,0.3,0.8,0.5l-0.1-0.1c0.3,0.2,0.5,0.4,0.7,0.7
		c0,0-0.1-0.1-0.1-0.1c0.1,0.1,0.2,0.2,0.2,0.3c0.1,0.1,0.2,0.3,0.4,0.3c0.2,0,0.4,0,0.5-0.1c0.3-0.2,0.5-0.6,0.2-0.9
		c-0.5-0.8-1.2-1.4-2-1.8c-0.2-0.1-0.3-0.1-0.5-0.1c-0.2,0-0.3,0.2-0.4,0.3c-0.1,0.2-0.1,0.4-0.1,0.5
		C226.7,260.1,226.8,260.3,227,260.4"/>
	<path clip-path="url(#SVGID_2_)" fill="#E6B821" d="M156.8,215c0.3,1.2,0.9,2.6,2.1,2.7c0.2,0,0.5,0,0.7-0.1
		c0.2-0.1,0.3-0.3,0.4-0.5c1.3-2.6,0.5-5.7-0.5-8.5c-1.4-4.2-3.1-8.3-5-12.3c-0.3-0.7-0.7-1.3-1.4-1.7c-1.2,2.1,0.7,7.7,1.2,10.1
		C155.1,208.2,155.9,211.6,156.8,215"/>
	<path clip-path="url(#SVGID_2_)" fill="#BA792A" d="M158.8,217.2c0.1,0.6,0,1.1-0.5,0.4c-0.2-0.3-0.3-1-0.4-1.3
		c-0.3-1.1-0.6-2.1-0.8-3.2c-0.5-2-1-4.1-1.4-6.1c-0.9-4.2-1.6-8.4-2.2-12.7c-0.1-0.9-1.5-0.5-1.3,0.4c0.8,5.9,2,11.8,3.4,17.7
		c0.3,1.4,0.7,2.9,1.1,4.3c0.2,0.9,0.5,2,1.3,2.6c0.6,0.4,1.4,0.4,1.9-0.1c0.6-0.6,0.5-1.5,0.4-2.3
		C159.9,216,158.6,216.3,158.8,217.2"/>
	<path clip-path="url(#SVGID_2_)" fill="#BA792A" d="M206.9,231.1c-0.6,0.3-1,0.9-1.2,1.5c-0.1,0.2,0,0.5,0.2,0.7
		c0.2,0.2,0.4,0.3,0.7,0.2c0.1,0,0.3-0.1,0.4-0.2c0.2-0.1,0.3-0.2,0.4-0.4c0.1-0.2,0.2-0.4,0.3-0.6c0-0.3,0.1-0.6,0-0.8
		c-0.1-0.3-0.2-0.5-0.4-0.7c0,0-0.1-0.1-0.1-0.1c-0.1-0.1-0.2-0.1-0.3-0.1c-0.1,0-0.3,0-0.4,0.1c-0.4,0.2-0.6,0.6-0.6,1
		c0,0.3,0.1,0.7,0.4,1c0.3,0.3,0.7,0.4,1.1,0.3c0.3-0.1,0.7-0.3,0.8-0.6c0.1-0.1,0.1-0.2,0.1-0.3c0-0.1,0-0.2,0-0.3
		c0-0.2-0.2-0.3-0.3-0.4c-0.2-0.1-0.4-0.1-0.5-0.1c-0.2,0.1-0.3,0.2-0.4,0.3c0,0,0,0.1-0.1,0.1c0,0,0.1-0.1,0.1-0.1
		c0,0-0.1,0.1-0.1,0.1c0,0,0.1-0.1,0.1-0.1c0,0-0.1,0.1-0.1,0.1c0.1,0,0.1,0,0.2-0.1c-0.1,0-0.1,0-0.2,0c0.1,0,0.1,0,0.2,0
		c0,0-0.1,0-0.1,0l0.2,0c-0.1,0-0.1,0-0.1,0c0.1,0,0.1,0,0.2,0.1c0,0-0.1,0-0.1-0.1c0,0,0.1,0.1,0.1,0.1c0,0-0.1,0-0.1-0.1l0.1,0.1
		c0,0,0-0.1-0.1-0.1c0,0.1,0,0.1,0.1,0.2c0,0,0-0.1,0-0.1c0,0.1,0,0.1,0,0.2c0-0.1,0-0.1,0-0.2c0,0.1,0,0.1,0,0.2c0-0.1,0-0.1,0-0.2
		c0,0.1,0,0.1-0.1,0.2c0,0,0-0.1,0.1-0.1l-0.1,0.1c0,0,0-0.1,0.1-0.1c0,0-0.1,0.1-0.1,0.1c0,0,0,0,0,0c-0.3,0-0.6-0.1-0.8-0.1
		c0,0,0.1,0.1,0.1,0.1c0,0-0.1-0.1-0.1-0.1c0,0.1,0.1,0.1,0.1,0.2c0-0.1,0-0.1-0.1-0.2c0,0.1,0.1,0.1,0.1,0.2c0-0.1,0-0.1,0-0.2
		c0,0.1,0,0.2,0,0.3c0-0.1,0-0.1,0-0.2c0,0.1,0,0.2-0.1,0.3c0-0.1,0-0.1,0.1-0.2c0,0.1-0.1,0.1-0.1,0.2c0,0,0.1-0.1,0.1-0.1
		c0,0.1-0.1,0.1-0.1,0.1c0,0,0.1-0.1,0.1-0.1c-0.1,0-0.1,0.1-0.2,0.1l0.2-0.1c0,0,0,0-0.1,0c0.3,0.3,0.6,0.6,0.8,0.8
		c0-0.1,0-0.2,0.1-0.3c0,0.1,0,0.1-0.1,0.2c0.1-0.1,0.1-0.2,0.2-0.4c0,0-0.1,0.1-0.1,0.1c0.1-0.1,0.2-0.2,0.3-0.3
		c0,0-0.1,0.1-0.1,0.1c0.1-0.1,0.2-0.1,0.3-0.2c0.1-0.1,0.3-0.3,0.3-0.4c0-0.2,0-0.4-0.1-0.5c-0.1-0.1-0.2-0.3-0.4-0.3
		C207.3,231,207.1,231,206.9,231.1"/>
	<path clip-path="url(#SVGID_2_)" fill="#BA792A" d="M207.7,230.5c0-0.1-0.1-0.2-0.2-0.3c-0.1-0.1-0.2-0.2-0.3-0.2
		c-0.1-0.1-0.2-0.1-0.3-0.1c-0.1,0-0.2,0-0.3,0c0,0-0.1,0-0.1,0c-0.1,0-0.2,0-0.3,0c-0.1,0-0.2,0.1-0.3,0.1c0,0-0.1,0-0.1,0
		c-0.1,0.1-0.2,0.2-0.3,0.3c-0.1,0.1-0.1,0.3-0.1,0.5c0,0.2,0,0.3,0.2,0.5c0.1,0.1,0.2,0.3,0.4,0.4c0.2,0.1,0.3,0.1,0.4,0.1
		c0.1,0,0.2,0,0.3,0c0.1,0,0.2-0.1,0.2-0.1c0.1,0,0.1-0.1,0.2-0.2c0.1-0.1,0.1-0.2,0.1-0.3c0-0.1,0-0.2,0-0.3
		c-0.1-0.2-0.2-0.3-0.3-0.4l-0.2-0.1c-0.1,0-0.2,0-0.4,0c0,0,0,0-0.1,0c0.1,0,0.1,0,0.2,0c0,0,0,0,0,0c0.1,0,0.1,0,0.2,0
		c0,0,0,0-0.1,0c0.1,0,0.1,0,0.2,0.1c0,0,0,0-0.1,0c0,0,0.1,0.1,0.1,0.1c0,0,0,0-0.1-0.1c0,0,0.1,0.1,0.1,0.1c0,0,0-0.1-0.1-0.1
		c0,0.1,0,0.1,0.1,0.2c0,0,0,0,0-0.1c0,0.1,0,0.1,0,0.2c0,0,0,0,0-0.1c0,0.1,0,0.1,0,0.2c0,0,0,0,0-0.1c0,0.1,0,0.1-0.1,0.2
		c0,0,0,0,0,0c0,0-0.1,0.1-0.1,0.1c0,0,0,0,0,0c0,0-0.1,0.1-0.1,0.1c0,0,0.1,0,0.1-0.1c-0.1,0-0.1,0-0.2,0.1c0,0,0.1,0,0.1,0
		c-0.1,0-0.1,0-0.2,0c0.1,0,0.1,0,0.2,0c-0.1,0-0.1,0-0.2,0c0.1,0,0.1,0,0.2,0c-0.1,0-0.1,0-0.2-0.1c0.1,0,0.1,0.1,0.1,0.1
		c0,0-0.1-0.1-0.1-0.1c0,0,0.1,0.1,0.1,0.1c0,0-0.1-0.1-0.1-0.1c0,0,0,0.1,0.1,0.1c0,0.1,0.1,0.1,0.2,0.2c0.1,0.1,0.1,0.1,0.2,0.1
		c0.1,0,0.2,0,0.3,0c0.1,0,0.2,0,0.3-0.1c0.1-0.1,0.3-0.2,0.3-0.4c0-0.1,0-0.1,0-0.2C207.8,230.7,207.8,230.6,207.7,230.5"/>
	<path clip-path="url(#SVGID_2_)" fill="#BA792A" d="M206.2,232.6c0.2-0.1,0.3-0.1,0.5-0.2c-0.3-0.1-0.5-0.2-0.8-0.3l0,0
		c0-0.1,0-0.1-0.1-0.2c0,0,0,0,0,0c0-0.1,0-0.1,0-0.2v0c0-0.1,0-0.1,0-0.2c0,0,0,0,0,0c0-0.1,0-0.1,0.1-0.2c0,0,0,0,0,0
		c0,0,0.1-0.1,0.1-0.1c0,0,0,0,0,0c0,0,0.1-0.1,0.1-0.1c0,0,0,0,0,0c0.1,0,0.1,0,0.2-0.1c0,0,0,0-0.1,0c0.1,0,0.1,0,0.2,0
		c0,0,0,0,0,0c0.1,0,0.1,0,0.2,0c0,0,0,0,0,0c0.1,0,0.1,0,0.2,0.1c0,0,0,0,0,0c0,0,0.1,0.1,0.1,0.1c0,0,0,0,0,0l0.1,0.1
		c0,0,0,0,0-0.1c0,0.1,0,0.1,0.1,0.2c0,0,0,0,0-0.1c0,0.1,0,0.1,0,0.2c0,0,0-0.1,0-0.1c0,0.1,0,0.1,0,0.2c0-0.1,0.1-0.2,0.1-0.3
		c0-0.1,0-0.2,0-0.2c0-0.1,0-0.2,0-0.2c0,0,0,0,0-0.1c0-0.1-0.1-0.2-0.1-0.2c0-0.1-0.1-0.1-0.2-0.2c-0.1-0.1-0.1-0.1-0.2-0.1
		c-0.1,0-0.2,0-0.3,0c-0.1,0-0.2,0-0.3,0.1c-0.1,0.1-0.3,0.2-0.3,0.4c0,0.1,0,0.1,0,0.2c0,0.1,0,0.2,0.1,0.3c0,0,0,0,0,0.1
		c0-0.1,0-0.1-0.1-0.2c0,0,0,0,0,0.1c0-0.1,0-0.1,0-0.2c0,0,0,0.1,0,0.1c0-0.1,0-0.1,0-0.2c0,0.1,0,0.1,0,0.2c0,0.1,0,0.2-0.1,0.3
		c0,0,0,0.1,0,0.1c0,0.1,0,0.2,0,0.3c0.1,0.2,0.2,0.4,0.4,0.5c0.3,0.2,0.6,0.2,0.9,0c0.1,0,0.1-0.1,0.2-0.1c0,0,0,0,0,0
		c0.1-0.1,0.2-0.2,0.2-0.3c0.1-0.2,0-0.4-0.1-0.6l-0.1-0.1c-0.1-0.1-0.1-0.1-0.2-0.1c-0.1,0-0.1,0-0.2,0c-0.1,0-0.2,0-0.3,0
		c-0.2,0.1-0.3,0.1-0.5,0.2c-0.2,0.1-0.3,0.2-0.4,0.3c-0.1,0.1-0.1,0.2-0.1,0.3c0,0.1,0,0.2,0,0.3c0.1,0.2,0.2,0.3,0.3,0.4
		C205.8,232.6,206,232.7,206.2,232.6"/>
	<path clip-path="url(#SVGID_2_)" fill="#BA792A" d="M206.7,231.5C206.7,231.5,206.7,231.5,206.7,231.5
		C206.7,231.5,206.6,231.5,206.7,231.5C206.6,231.4,206.6,231.5,206.7,231.5c0-0.1-0.1-0.1-0.1-0.2
		C206.6,231.4,206.6,231.4,206.7,231.5c-0.1-0.1-0.1-0.2-0.1-0.3c0,0,0,0.1,0,0.1c0-0.1,0-0.1,0-0.2c0,0,0,0.1,0,0.1
		c0-0.1,0-0.1,0.1-0.2c0,0,0,0,0,0c-0.1,0.1-0.1,0.2-0.1,0.3c0,0.1,0,0.2,0,0.3c0,0.1,0.1,0.2,0.1,0.2c0,0.1,0.1,0.1,0.2,0.2
		l0.2,0.1c0.1,0,0.2,0,0.4,0l0.2-0.1c0.1-0.1,0.2-0.1,0.2-0.2c0-0.1,0.1-0.1,0.1-0.2c0,0,0,0,0,0c0-0.1,0-0.2,0-0.2c0,0,0,0,0-0.1
		c0-0.1,0-0.2,0-0.2c0,0,0,0,0-0.1c0-0.1-0.1-0.1-0.1-0.2c0,0,0,0,0,0c0-0.1-0.1-0.1-0.1-0.2c0,0,0,0,0,0c-0.1-0.1-0.1-0.1-0.2-0.1
		c-0.1,0-0.2-0.1-0.3-0.1c-0.1,0-0.2,0-0.3,0.1c-0.1,0-0.2,0.1-0.2,0.1c0,0-0.1,0.1-0.1,0.1c-0.1,0.1-0.1,0.2-0.1,0.3
		c0,0.1,0,0.1,0,0.2C206.5,231.3,206.6,231.4,206.7,231.5"/>
	<path clip-path="url(#SVGID_2_)" fill="#BA792A" d="M224.4,259.8c-0.1,0.1-0.2,0.2-0.2,0.3c0.1-0.1-0.1,0.1-0.1,0.1
		c0,0-0.1,0.1-0.1,0.1c-0.2,0.2-0.4,0.4-0.6,0.6c-0.4,0.4-0.8,0.8-1.2,1.1c-0.2,0.1-0.2,0.5-0.2,0.7c0.1,0.2,0.2,0.4,0.5,0.5
		c0.5,0.1,0.9-0.1,1.4-0.4c0.3-0.2,0.7-0.5,1-0.7L224,261c-0.3,0.3-0.6,0.6-0.9,0.9c-0.2,0.2-0.3,0.6-0.1,0.8
		c0.2,0.3,0.5,0.4,0.8,0.3c0.2,0,0.4-0.1,0.5-0.1c-0.3-0.3-0.6-0.6-0.8-0.8c0,0.1-0.1,0.2-0.1,0.3c-0.1,0.4,0.2,0.9,0.7,0.9
		c0.4,0,0.8-0.2,1-0.5c0.1-0.2,0.2-0.3,0.2-0.6c0-0.2-0.1-0.4-0.3-0.5c-0.2-0.1-0.5-0.1-0.8-0.1c0,0-0.1,0-0.1,0
		c0-0.1,0.3,0,0.3,0.1c0.1,0.1,0.2,0.2,0.2,0.3c0,0,0,0.1,0,0.1c0-0.1,0-0.1,0,0c-0.1,0.1,0,0,0,0c0-0.1-0.1,0.1,0,0
		c0,0,0.1-0.1,0.1-0.1c0.1-0.1,0.2-0.3,0.4-0.4c0.5-0.6,1-1.1,1.5-1.6c0.2-0.2,0.3-0.6,0.1-0.8c-0.2-0.2-0.5-0.4-0.8-0.3
		c-0.3,0.1-0.6,0.2-0.9,0.3c-0.3,0.1-0.6,0.5-0.5,0.8c0.1,0.3,0.5,0.6,0.8,0.5c0.3-0.1,0.6-0.2,0.9-0.3c-0.2-0.4-0.4-0.8-0.7-1.2
		c-0.6,0.6-1.2,1.3-1.8,1.9c-0.3,0.4-0.7,0.8-0.5,1.4c0.1,0.3,0.3,0.6,0.6,0.7c0.2,0.1,0.4,0,0.5,0c0,0,0.1,0,0.1,0
		c0.2-0.1,0,0.1-0.3-0.1c0-0.4-0.1-0.7-0.1-1.1c0,0-0.1,0.1-0.1,0.1c0,0,0.1-0.1,0,0c-0.1,0.1,0.1,0,0,0c-0.1,0,0.2,0,0,0
		c0.2,0.3,0.4,0.6,0.7,0.9c0-0.1,0.1-0.2,0.1-0.3c0.1-0.2,0-0.5-0.2-0.7c-0.2-0.2-0.4-0.2-0.7-0.2c-0.2,0-0.4,0.1-0.5,0.1
		c0.2,0.4,0.4,0.8,0.7,1.2c0.3-0.3,0.6-0.6,0.9-0.9c0.2-0.2,0.3-0.6,0.1-0.9c-0.2-0.3-0.6-0.4-0.9-0.2c-0.3,0.2-0.6,0.4-0.9,0.6
		c-0.1,0.1-0.3,0.2-0.4,0.3c-0.1,0-0.1,0.1-0.2,0.1c0.1,0,0.1,0,0,0c0.1,0,0.1,0,0.2,0c0.1,0.4,0.2,0.8,0.3,1.2
		c0.9-0.7,1.8-1.6,2.4-2.6c0.2-0.3,0.1-0.8-0.2-0.9C225,259.3,224.6,259.4,224.4,259.8"/>
	<path clip-path="url(#SVGID_2_)" fill="#BA792A" d="M225.3,263.8c1.5-0.4,3-1.1,4.2-2.1c0.3-0.2,0.3-0.7,0-1c-0.3-0.3-0.7-0.2-1,0
		c-0.1,0-0.1,0.1,0,0c0,0-0.1,0.1-0.1,0.1c-0.1,0.1-0.1,0.1-0.2,0.2c-0.1,0.1-0.3,0.2-0.4,0.3c-0.3,0.2-0.6,0.4-0.9,0.5
		c-0.1,0-0.1,0.1-0.2,0.1c0,0-0.3,0.1-0.1,0.1c-0.2,0.1-0.3,0.1-0.5,0.2c-0.3,0.1-0.7,0.2-1,0.3c-0.4,0.1-0.6,0.5-0.5,0.8
		C224.5,263.7,224.9,263.9,225.3,263.8"/>
	<path clip-path="url(#SVGID_2_)" fill="#BA792A" d="M172.2,221c0,0,0-0.1,0.1-0.1c-0.6,0.5,0.2,1.5,0.8,1.1c0.8-0.5,1.4-1.2,1.8-2
		c0.3-0.6-0.3-1.3-0.9-0.9c-0.3,0.2-0.6,0.4-0.9,0.5c0.3,0.4,0.6,0.7,0.8,1.1c0.8-0.9,1.2-1.9,1.3-3c0-0.6-0.6-0.8-1-0.6
		c-1.1,0.5-2.3,1-3.2,1.9c-0.7,0.7-1.3,1.7-2.3,1.9c-0.4,0.1-0.6,0.6-0.4,1c0.5,0.8,1.5,0.6,2.2,0.2c0.9-0.6,1.8-1.4,2.7-2.1
		c0.7-0.5,1.6-0.9,2.5-0.4c0.8,0.4,1.3,1.2,2.2,1.5c0.5,0.1,1-0.3,0.8-0.8c-0.4-1.5-1.7-2.4-3.2-2.6c-0.3,0-0.6,0.2-0.7,0.5
		c-0.1,0.3,0.1,0.6,0.3,0.8c0.1,0,0.1,0.1,0.2,0.1c0.7,0.5,1.4-0.7,0.7-1.2c-0.1,0-0.1-0.1-0.2-0.1c-0.1,0.4-0.2,0.9-0.3,1.3
		c0.9,0.1,1.6,0.8,1.9,1.6l0.8-0.8c-0.8-0.2-1.2-1-1.9-1.3c-0.8-0.4-1.8-0.5-2.6-0.3c-0.9,0.3-1.6,0.9-2.4,1.5
		c-0.4,0.3-0.9,0.7-1.3,1c-0.2,0.1-0.3,0.3-0.5,0.3c-0.2,0.1-0.1,0,0,0.2c-0.1,0.3-0.3,0.7-0.4,1c1.1-0.3,1.9-1.2,2.6-2
		c0.9-1,2-1.5,3.2-2c-0.3-0.2-0.7-0.4-1-0.6c-0.1,0.8-0.4,1.5-0.9,2.1c-0.5,0.6,0.1,1.5,0.8,1.1c0.3-0.2,0.6-0.4,0.9-0.5
		c-0.3-0.3-0.6-0.6-0.9-0.9c-0.3,0.6-0.7,1.2-1.3,1.5c0.3,0.4,0.6,0.7,0.8,1.1c0.2-0.2,0.4-0.5,0.3-0.8c0-0.4-0.3-0.7-0.7-0.7
		C172.6,220.3,172.2,220.6,172.2,221"/>
	<path clip-path="url(#SVGID_2_)" fill="#BA792A" d="M175.6,217.3c-0.1-0.1,0.1,0.1,0.1,0.2c0,0.1,0,0.1,0,0.2c0,0.1,0,0.1,0,0
		c-0.4,0-0.7,0.1-1.1,0.1c1,1.2,2.1,2.4,3.1,3.6c0.9,1,1.8,2,3.1,2.4c0.8,0.3,1.2-1.1,0.4-1.3c-1.1-0.4-1.9-1.3-2.6-2.2
		c-1-1.1-2-2.3-2.9-3.4c-0.3-0.4-0.8-0.2-1.1,0.1c-0.3,0.5-0.1,1.3,0.4,1.6c0.3,0.2,0.7,0.1,0.9-0.2
		C176.1,218,176,217.5,175.6,217.3"/>
	<path clip-path="url(#SVGID_2_)" fill="#BA792A" d="M171.1,222.7l4.5-1.1c0.4-0.1,0.6-0.5,0.5-0.8c-0.1-0.4-0.5-0.6-0.8-0.5
		l-4.5,1.1c-0.3,0.1-0.6,0.5-0.5,0.8C170.4,222.5,170.7,222.8,171.1,222.7"/>
	<path clip-path="url(#SVGID_2_)" fill="#BA792A" d="M201.8,226.1c0-0.3,0.1-0.5,0.2-0.8c0,0.1,0,0.1-0.1,0.2
		c0.1-0.3,0.3-0.5,0.5-0.8l-0.1,0.1c0.2-0.2,0.3-0.4,0.5-0.6c0.1-0.1,0.2-0.3,0.2-0.5c0-0.2-0.1-0.4-0.2-0.5
		c-0.1-0.1-0.3-0.2-0.5-0.2c-0.2,0-0.3,0.1-0.5,0.2c-0.7,0.6-1.2,1.5-1.4,2.4c0,0.2,0,0.4,0.1,0.5c0.1,0.1,0.2,0.3,0.4,0.3
		C201.2,226.7,201.7,226.5,201.8,226.1"/>
	<path clip-path="url(#SVGID_2_)" fill="#F0D235" d="M183.9,302.6c0,0.1,0.2,0,0.2,0.2c0-0.1,0.4-0.4,0-0.3c0.4-0.2,3.2-2.1,3.5-1.5
		c1.4-0.2,2.3,0.4,3.3,0.8c0.2,0.1,0.6,0,0.8,0.1c0.1,0,0.3,0.3,0.4,0.4c0.1,0.1,0.3-0.1,0.5,0c0.3,0.1,0.5,0.4,0.7,0.6
		c0.4,0.2,0.9,0.3,1.2,0.6l0,0.4c0.6,0.4-1.2,2.5-0.9,3c-0.3-0.1-0.2,0.3-0.5,0.2c0,0.3,0,0.5-0.1,0.6c-0.4,0-0.7,0-0.8,0.3
		c-1.5-0.5-2.1,0.3-3.4,0.5c-0.2,0.8-1,0.9-1,1.8c-1.1,0.5-1.2,2-1.2,3.5c1.4,0.6,3.8,0.8,5.3,1.5c0.5,0.2,1,0.7,1.4,0.9
		c0.2,0.1,0.3-0.1,0.5,0.1c0.1,0.1,0.3,0.3,0.4,0.5c0.2,0.1,0.3-0.1,0.4,0.1c0.2,0.1,0.3,0.5,0.6,0.7c0.1,0,0.3,0,0.3,0
		c0.1,0,0,0.2,0,0.3c0.4,0.3,0.8,0.4,1.1,0.7c0.3,0.4,0.2,0.9,0.7,1.1c0.1,0.1,0,0.2,0,0.4c0.4,0.1,0.2,0.8,0.6,0.7
		c0.1,0.3-0.3,1.1,0.1,1.6c-0.3,0.7-0.2,1.8-0.4,2.6c-0.2,0.6-0.4,1.3-1,1.5c0,0.1-0.1,0.2-0.1,0.4c-0.8,0.3-1,1.3-1.9,1.5
		c-0.6,0.4-0.7,1.1-1.6,1.1c-0.7,0.8-2.6,0.6-3.4,1.4c-0.4,0.1-1-0.1-1,0.3c-0.6,0-1.2,0-1.4,0.4c-0.3,0.1-0.3-0.3-0.5,0
		c-0.2,0.2-0.1-0.3-0.3-0.1c-0.9,0.5-2.2,0.2-2.9,0c-0.1,0-0.1-0.2-0.1-0.3c-0.7,0.4-1.1-0.7-1.8-0.3c-0.1-0.1,0-0.1,0-0.3
		c-0.2,0.6-0.7-0.6-0.8-0.1c-0.1-0.2-0.6-0.3-0.4-0.5c-0.1,0.1-0.5-0.1-0.5,0.1c-0.8-1.1-2-1.7-2.6-3c-0.2,0.1-0.2-0.1-0.4-0.1
		c-0.3-0.1,0,0.4-0.4,0.3c-0.1-0.5-0.5-0.8-0.2-1.2c-0.1-0.1-0.2-0.2-0.4-0.2c0-0.9,1-1.5,0.5-2.2c0.9-0.2,1.2-1.2,1.9-1.5l0,0.2
		c0.3,0,0.3-0.3,0.4-0.3c0.1,0.3,0.5,0.3,0.8,0.4c0,0.1,0.3,0.3,0,0.4c0.3-0.1,0.6,0.4,1,0.5c0.2,0,0.1-0.1,0.2-0.3
		c-0.1-0.3-0.4-0.5-0.4-0.8c-0.1-0.1,0.5,0.2,0.6-0.1c0.6,0.7,1.4,0.9,2.2,1.2c0,0.9,1,0.8,1.1,1.5c1.1,0.1,1.5-0.6,2.5-0.6
		c0.4-0.2,0.5-0.6,0.9-0.8c0.6-0.4,1.7-0.3,1.8-1.3c-0.3-0.3-0.1-0.9-0.2-1.4c-0.7-0.9-1.6-1.6-2.6-2.2c-0.7,0.1-1.2-0.3-1.7-0.5
		c-0.7-0.2-1.6-0.3-2.2-0.6c-0.2-0.1-0.4-0.5-0.7-0.6c-0.2-0.1-0.3,0.1-0.5-0.1c-0.5-0.2-0.8-0.7-1.1-1c-0.4-0.3-1.3-1.3-1.5-1.9
		c0-0.1,0.2-0.1,0.2-0.2c0-0.3-0.3-0.5-0.5-0.8c-0.2-0.5-0.4-2.2-0.1-2.9c0,0,0.2-0.1,0.2-0.1c0.1-0.5-0.1-1.1,0.2-1.8
		c0.1,0,0.1-0.1,0.3-0.1c0.3-1.9,1.7-3,2.6-4.4c0.3-0.2,0.7-0.2,0.7-0.6c0.6-0.1,0.9-0.4,1.4-0.6
		C184.3,302.1,183.8,302.5,183.9,302.6 M178.6,323.5c0.4-0.1,0.2,0.5,0.6,0.5c0.1-0.3-0.1-0.6,0-1c-0.1-0.1-0.4-0.1-0.6-0.1
		L178.6,323.5z"/>
	<path clip-path="url(#SVGID_2_)" fill="#F0D235" d="M225.6,300.8c0.7,1.5,1.1,3.4,2,4.4c1,2.1,2.7,6,3.9,8.5
		c0.4,0.8,0.9,1.7,0.8,2.2c0,0.4-0.4,0.5-0.1,0.9c-0.4,0.1,0,0.5-0.4,0.2c-0.3,0.6-1.1,1-1.6,1.5c-0.3,0.8,0.2,0.8-0.7,1
		c-0.8,0.8-2.7,1.1-4.1,1.4l-0.2-0.3c-0.3,0.2-0.1,0.2-0.4,0.2c-0.1-0.1,0-0.2,0.2-0.2c-2.5-1.7-6.7-6.6-8.9-8.9
		c-2.1-2.9-4.8-5.9-7.2-7.6c-0.3,0.5,0.6,1.2,0,1.6c0.6,1.3,1.4,3.3,2.2,3.8c0.4,1.6,1.6,2.7,2.1,4.5c1.3,1.4,2.6,6,3.7,7.7
		c-0.3,0.1,0.1,0.4-0.3,0.4c0.2,0.1,0.3,0.1,0.4,0.2c0.5,0.6,0.3,1.1,0.5,1.8c-0.2,0.4-0.5,0.8-0.4,1.3c-1.1,0.8-1.7,1.5-2.5,2.4
		c0,0-0.1,0-0.2-0.2c-0.9,0.5-1.6,0.3-2,1.1c-0.2-0.1-0.5-0.3-0.8,0c-0.4-0.5-0.3-1-1-1.1c0.3-0.1,0.1-0.4,0.5-0.4
		c-1.3-2.9-4.3-8.3-6.1-11c-0.2-0.3-0.1-0.2-0.2-0.4c-1-1.4-1.3-3.3-2.4-4.5c-0.3-0.2,0.3-0.1,0.1-0.3c0-0.4-0.2-0.1-0.3-0.4
		c0.3-0.5-0.8-1.8-1-2.3c0.1-0.1,0.2-0.2,0.3-0.2c-0.7-2.1-1-4.6,0.1-6.3c-0.1-0.5,0.4-0.8,0.7-1.5c0.2-0.5,0.3-0.9,0.6-1.2
		c1.1-1.4,3-2.1,4.9-3c-0.1,0.6,0.2-0.2,0.5,0.3c0.5-0.3,0.9-0.4,1.3-0.1c0-0.2,0.2-0.3,0.4-0.4c0.2,0,0.3,0,0.4,0
		c0.3-0.1,0.1,0.1-0.1,0.2c0.2,0.2,0.3,0.2,0.4-0.1c0.5-0.1,0.7,0.1,1.2,0c1.2,1.1,3.1,3,4.4,3.7c0.3,1,1.1,0.7,1.6,1.6
		c0.1,0,0.1,0.1,0.2,0.1c-0.1-0.2-0.1-0.4-0.2-0.5c0.3-0.9-2.2-5.1-2.4-6c-0.1-1,0.5-1.6,0.5-2.5c0.2-0.3,0.6-0.4,1-0.8
		c0.1-0.1,0.1-0.4,0.2-0.5c0.1-0.2,0.4-0.2,0.5-0.3c0,0,0,0,0-0.1c0,0,0-0.1,0-0.1c0.1,0,0.7,0.4,0.3-0.1c0.4,0,0.8-0.1,1.3-0.2
		c0.5,0.2,1.4,0.8,1.5,0.9c0,0.2,0.5,0.9,0.9,1.7c0.3,0.5,0.6,1,0.8,1.6l0.1-0.1c0.5,1.2,1.4,3.6,1.9,4
		C224.8,299.1,225.1,300.2,225.6,300.8"/>
	<path clip-path="url(#SVGID_2_)" fill="#F0D235" d="M224.3,285.1c0.1-0.2,0-0.3,0.1-0.4c1-1.2,2.2-1.5,3.4-1.6
		c0.7,1,2.1,0.5,2.4,1.5c1.4,0.3,1,2.1,1.9,2.8c-0.2,0.1-0.3,0.5-0.6,0.5c-0.2,0.3,0,0.5,0,0.7c-0.9,1-1.5,1.6-2.6,1.9
		c-0.6,0.2-1.1,0.4-1.7,0.8c-1.3-0.3-2.5-0.9-3.7-2c-0.1-0.3-0.2,0.2-0.3-0.1c0.1-0.7-0.9-0.9-1.1-1.1c-0.1-0.1,0.1-0.1,0.2-0.2
		c-0.2-0.2-0.3-0.4-0.4-0.6c0.6-0.6,0.5-1.2,1.3-1.8C223.6,285.6,223.9,284.8,224.3,285.1 M232.8,291.8c0.6-0.5,1.1-0.6,1.5-0.4
		c0.1,0,0.2-0.1,0.2-0.2c1.9,0.3,3.8,1.4,5.7,3c-0.1,0.1,0.6,0.6,0.8,0.6c0.7,0.7,1.4,1.5,2.1,1.9c0.8,1.7,4.5,4,5.3,5.8
		c-0.5,0.4-0.4,0.8-0.9,1c0.4,0.4,0.2,0,0.4,0.5c-0.6,0-1.3,0.8-1.9,0.5c0,0.2-0.2,0.4,0.1,0.7c-0.2,0.7-0.9,0.9-1.7,1.2
		c-0.6,0.2-0.8,0.5-1.3,0.1c-0.1,0.2-0.5,0.2-0.3,0.6c-0.3,0.1-0.5,0-0.7,0.3c-0.2-0.5-0.5-0.2-0.8-0.2c0-0.2-0.5-0.3-0.1-0.5
		c0-0.2-0.2,0-0.4,0c-1.6-1.8-4.5-5.8-6.5-7.5c-0.1-0.1-0.1-0.1-0.2,0c-0.6-1.1-2.3-2.1-3-3.5c-0.9,0-0.9-1.1-1.5-1.4
		c0.2-0.3,0.3-0.2,0.5-0.6c-0.1-0.4-0.2,0-0.5-0.2C230.8,292.9,231.7,291.8,232.8,291.8"/>
	<path clip-path="url(#SVGID_2_)" fill="#F0D235" d="M237.1,264.6c0.5-0.1,0.9,0,1.3-0.4c0.2,0,0.5,0.4,0.5,0
		c0.3,0.2,0.3,0.1,0.6,0.3c0.3-0.2-0.3-0.2-0.1-0.5c0.2,0.3,0.3-0.1,0.4-0.2c0.6,0.1,1-0.1,1.5-0.3c0.4,0.2,0.5,0.4,0.9,0.5
		c0,0.6,0.1,1,0.3,1.5c-0.6,2-2.1,3.4-1.9,5.1c-0.5,1-0.3,2-0.5,2.8c0.2,0.7-0.1,1.5,0,2.1c0.8,0,1.7,0.8,2.5,0.8
		c0.6,0.4,2.1,1.2,3.3,1.7c0.2-2,1.3-4.5,0.5-6.3c0.3-0.6,0.3-1,0.2-1.3c0.3-0.3,0.5-0.7,0.9-0.6c0.3-0.7,0.4-0.6,1-1
		c0.1,0.2,0.2,0.3,0.5,0.5c-0.1-0.6,0.2-0.8,0.6-1.2c0.6,0.2,0.1,0.7,0.6,0.8c-0.1-0.3,0.1-0.6-0.1-0.9c0.7,0.2,0.9-0.4,1.2-0.7
		c0.2-0.1,0.2,0.3,0,0.5c0.5,0.2,0.4-0.2,0.7-0.5c0.2,0.1,0.3,0.3,0.5,0.2c0-0.3,0.2-0.6,0.4-0.7c0.1,0.1,0.6,0.1,0.3,0.3
		c0.2,0.1,0.2-0.5,0.5-0.2c-0.1,0.3-0.3,0.6,0.3,0.7c-0.2,0.5-0.1,0.9-0.2,1.5c0,0.2-0.2,0-0.3,0.1c-0.1,0.2,0.1,0.3,0.1,0.4
		c-0.7,1,0.1,1.9-0.8,3.1c0.2,0.5-0.1,1.2-0.3,1.6c0.3,1-0.6,2.3-0.8,3.5c0.1,0.2,0.2,0.2,0.3,0.3c-0.5,1-0.6,1.7-0.9,2.5
		c0.7,0,0.9,0.7,1.4,0.5c0.2,0.1,0,0.3,0.4,0.3c0.8,0,1.5,0.7,2.6,1c-0.1,0.1-0.1,0.2,0,0.3c0.2,0.2,0.3,0.2,0.4-0.1
		c0.3,0.2,0.2,0.4,0.4,0.5c0.2-0.1,0.2-0.2,0.2-0.2s0,0.1,0.2,0.4c1.3,0,1,0.1,2.2,0.3c0.4,0.9,1.6,0.4,2.1,1.2
		c-0.3,0.5-0.7,1.2-1.2,0.7c-0.4,0.4,0.3,0.4,0.5,0.7l-0.2,0.4c0.3,0.2,0.3-0.1,0.5-0.1c0,0.5,0.3,0.1,0.5,0.5
		c-0.3,0.1-0.6,0.2-0.9,0.5c-0.1-0.5-0.4,0.1-0.7-0.1c0.1,0.7,0.6,0.6,1,1c-0.2,0.1-0.5,0.3-0.7,0.4c-0.4,0,0-0.3-0.1-0.4
		c-0.3,0.2-0.2,0.4-0.3,0.7c-0.2-0.4-0.4-0.6-1-1c-0.2,0.1-0.2,0.5-0.5,0.8c0.1,0.2,1,0.9,1.2,0.4c0,0.4-0.3,0.9-0.7,0.8
		c-0.2,0.3,0,0.3,0.1,0.5c-0.4,0.8-1.1,0.8-1.5,1.2c-0.2-0.1-0.3-0.6-0.5-0.1c-0.4-0.5-0.8-0.2-1.3-0.3c-0.8-0.2-1.7-0.9-2.6-1.3
		c-1.2-0.6,0.8-0.2-0.4-0.4c-0.3-0.3-1.6-0.6-2-1.3c-0.1,0-0.3,0.1-0.4,0.2c-0.7-0.5-1.3-0.6-1.7-1.1c-0.1-0.1-0.1,0.1-0.1,0.1
		c-4.7-2.1-8.2-4.3-12.3-6.6c-0.2,0.2-0.5,0.2-0.9,0.2c-0.4-0.6-1.5-0.2-2.1,0c-0.1-0.1,0.1-0.3-0.2-0.3c-0.3,0.1-0.3,0.3-0.7,0.3
		c-0.1-0.2,0-0.1,0.2-0.3c-0.3,0.2-0.5-0.3-0.8-0.5c0.2-0.3-0.1-0.5-0.1-0.7c0-0.4,0.3,0,0.3-0.3c0-0.4-0.3,0.1-0.5-0.1
		c-0.3-0.9,1-2.9,1.7-3.2c0.5-1.5,0.2-2.9,0.6-4.6c0-0.4,0.5-0.7,0.3-1.2c0.7-1.1,0.5-2,0.8-3c-0.4-1,0.6-1.3,1.1-1.7
		c0.6-0.4,1-1.1,1.4-1.1c-0.1-0.5,0,0.1,0.2,0.2C237.2,264.9,237,264.8,237.1,264.6 M249.6,268.8c-0.2,0.1-0.1-0.3-0.3-0.1
		c0.1,0,0,0.1-0.1,0.2C249.5,269,249.6,268.9,249.6,268.8"/>
</g>
<g>
	<g>
		<path fill="#F3E578" d="M215.3,360c15.5-4.5,29.9-12.3,42.3-22.6c12.3-10.2,22.6-23.1,29.8-37.4c2.2-4.5,4.2-9.1,6.2-13.7
			c2.2-5.2,4.3-10.6,5.9-16c0.9-3.1-3.9-4.4-4.8-1.3c-2.5,9-6.4,17.6-10.3,26.1c-3.3,7-7.3,13.7-12,19.9
			c-9.2,12.3-21.1,22.6-34.4,30.2c-7.6,4.3-15.6,7.7-23.9,10.1C210.9,356.1,212.2,360.9,215.3,360L215.3,360z"/>
	</g>
</g>
<g>
	<g>
		<path fill="#F3E578" d="M196,362.7c2.4,0.3,4.8,0,7.1-0.3c1.1-0.1,2.2-0.2,3.2-0.5c0.8-0.2,1.5-0.5,2.3-0.7
			c1.3-0.4,2.2-1.8,1.7-3.1c-0.4-1.3-1.7-2.1-3.1-1.7c-0.8,0.2-1.5,0.5-2.3,0.7c-0.2,0.1-0.4,0.1-0.6,0.1c0,0-0.1,0-0.1,0
			c-0.3,0-0.2,0,0.3,0c-0.2-0.1-0.6,0.1-0.9,0.1c-0.3,0-0.6,0.1-0.9,0.1c-2.3,0.3-4.6,0.6-6.9,0.3c-1.3-0.2-2.6,1.3-2.5,2.5
			C193.6,361.7,194.6,362.5,196,362.7L196,362.7z"/>
	</g>
</g>
<g>
	<g>
		<path fill="#F3E578" d="M150.5,125.7c-15.5,4.5-29.9,12.3-42.3,22.6c-12.3,10.2-22.6,23.1-29.8,37.4c-2.2,4.5-4.2,9.1-6.2,13.7
			c-2.2,5.2-4.3,10.6-5.9,16c-0.9,3.1,3.9,4.4,4.8,1.3c2.5-9,6.4-17.6,10.3-26.1c3.3-7,7.3-13.7,12-19.9
			c9.2-12.3,21.1-22.6,34.4-30.2c7.6-4.3,15.6-7.7,23.9-10.1C155,129.6,153.7,124.8,150.5,125.7L150.5,125.7z"/>
	</g>
</g>
<g>
	<g>
		<path fill="#F3E578" d="M169.8,123.1c-2.4-0.3-4.8,0-7.1,0.3c-1.1,0.1-2.2,0.2-3.2,0.5c-0.8,0.2-1.5,0.5-2.3,0.7
			c-1.3,0.4-2.2,1.8-1.7,3.1c0.4,1.3,1.7,2.1,3.1,1.7c0.8-0.2,1.5-0.5,2.3-0.7c0.2-0.1,0.4-0.1,0.6-0.1c0,0,0.1,0,0.1,0
			c0.3,0,0.2,0-0.3,0c0.2,0.1,0.6-0.1,0.9-0.1c0.3,0,0.6-0.1,0.9-0.1c2.3-0.3,4.6-0.6,6.9-0.3c1.3,0.2,2.6-1.3,2.5-2.5
			C172.2,124.1,171.2,123.3,169.8,123.1L169.8,123.1z"/>
	</g>
</g>
</svg>
