<?xml version="1.0" encoding="utf-8"?>
<!-- Generator: Adobe Illustrator 25.1.0, SVG Export Plug-In . SVG Version: 6.00 Build 0)  -->
<svg version="1.1" id="Lag_1" xmlns="http://www.w3.org/2000/svg" xmlns:xlink="http://www.w3.org/1999/xlink" x="0px" y="0px"
	 viewBox="0 0 148 146" enable-background="new 0 0 148 146" xml:space="preserve">
<g id="heat-placeholder">
	<circle fill="#BABABA" cx="71.5" cy="74" r="65"/>
	<g>
		<path fill="#9B9B9B" d="M105.9,108.4L105.9,108.4c6.9-6.9,6.9-18.1,0-25L61.6,39.1c-6.9-6.9-18.1-6.9-25,0l0,0
			c-6.9,6.9-6.9,18.1,0,25l44.3,44.3C87.8,115.3,99,115.3,105.9,108.4z"/>
		<path fill="#9B9B9B" d="M36.6,108.4L36.6,108.4c-6.9-6.9-6.9-18.1,0-25l44.3-44.3c6.9-6.9,18.1-6.9,25,0l0,0
			c6.9,6.9,6.9,18.1,0,25l-44.3,44.3C54.7,115.3,43.5,115.3,36.6,108.4z"/>
	</g>
</g>
</svg>
