<svg xmlns="http://www.w3.org/2000/svg" viewBox="0 0 141.73 141.73"><defs><style>.cls-1{fill:#fff042;}.cls-2{fill:none;stroke:#fff;stroke-miterlimit:10;stroke-width:3.39px;}.cls-3{fill:#0b1213;}</style></defs><g id="ikon"><path class="cls-1" d="M123.23,69.71A52.37,52.37,0,1,1,70.87,17.35a52.37,52.37,0,0,1,52.36,52.36"/><circle class="cls-2" cx="70.87" cy="69.71" r="52.36"/><path class="cls-3" d="M89.45,78.37a20.55,20.55,0,1,1-8.74-27.72,20.55,20.55,0,0,1,8.74,27.72M58.81,92.72A26.88,26.88,0,1,1,95.06,81.29,26.88,26.88,0,0,1,58.81,92.72m46.37-6.16c.86-1.65-4.51-5.93-3.93-7.64S108.69,77,109,75.2s-6.12-4.22-6.11-6,6.48-4.13,6.21-5.94-7.13-2.11-7.68-3.86,4.9-5.92,4.08-7.56S98.07,52,97,50.49s2.83-7.14,1.54-8.45-7,2.49-8.48,1.39.49-7.65-1.16-8.51-5.92,4.5-7.63,3.93-1.94-7.44-3.72-7.74-4.23,6.12-6,6.1-4.14-6.47-6-6.2-2.11,7.12-3.86,7.68-5.91-4.9-7.56-4.08.19,7.42-1.31,8.49-7.13-2.83-8.45-1.54,2.49,7,1.39,8.48-7.65-.49-8.51,1.16,4.51,5.92,3.93,7.63-7.44,1.94-7.74,3.73,6.12,4.22,6.11,6-6.48,4.13-6.21,5.94S40.48,76.65,41,78.4,36.14,84.31,37,86s7.42-.19,8.49,1.31-2.83,7.13-1.54,8.45,7-2.49,8.48-1.39-.49,7.65,1.16,8.51,5.92-4.51,7.64-3.93,1.93,7.44,3.71,7.74,4.23-6.12,6-6.11,4.13,6.48,5.94,6.21,2.11-7.13,3.86-7.67,5.92,4.88,7.56,4.07-.19-7.43,1.31-8.49,7.13,2.83,8.45,1.54-2.49-7-1.39-8.48,7.65.49,8.51-1.16"/></g></svg>