<?xml version="1.0" encoding="utf-8"?>
<!-- Generator: Adobe Illustrator 23.1.0, SVG Export Plug-In . SVG Version: 6.00 Build 0)  -->
<svg version="1.1" xmlns="http://www.w3.org/2000/svg" xmlns:xlink="http://www.w3.org/1999/xlink" x="0px" y="0px"
	 viewBox="0 0 300 147.8" enable-background="new 0 0 300 147.8" xml:space="preserve">
<g id="Layer_3">
</g>
<g id="Layer_2">
	<path opacity="0.6" fill="#6D6E71" d="M54.7,127.9c-0.9,1.2-1.5,1.4-2.1,2.8c2.9-0.5,15.9-0.4,20.1-2.2
		C74.3,127.8,61.1,128.2,54.7,127.9z"/>
	<path fill="#6D6E71" d="M159.2,106.5c-0.6-3.9-1.1-8.7-6.4-9.1c-5.1-0.4-6.7,2-11.9,1.4c-3.1-0.3-13.5,0.9-16.6,0.6
		c-3.1-0.3-5.2-1.9-7.9-3.3c-3.4-1.7-9.6-8.7-11.7-13.2c-1.4-3-2-5.2-4.2-7.7c-0.6-0.6-1-1.7-2.4-3c-1.8-1.8-0.5-4.7-0.3-7.4
		c0.1-1.4,0.2-6.8,0.1-8.1c-0.1-1.6,0.1-5.6,0.1-7.1c0.1-3.3,0.3-7.2-2.2-9.7c-2.4-2.4-5.1-3.5-8.1-4.8c-5-2.3-15.2-3.5-17.6-8.5
		c-1.3-2.7-0.4-6-0.2-9c0.3-3.4,0-4.1-0.4-5.4c-0.2-0.5-0.6-1.6-0.8-2c-0.2-0.2-0.7-1.2-0.7-1.2S66.6,5.7,64,6S63.6,4.2,60.5,4
		c-3.1-0.2-4.1,1.1-4.1,1.1s-7.9-1.3-12-0.4s-0.3,5.4-4.9,6.6c-4.6,1.2-0.8,2.4,3.1,2.4c3,0,5.1,5.1,3,6.7c-2,1.6-2.8,2-0.1,4
		c4.5,3.3,3.1,6.1,4.2,6.2c3.7,0.3,8.9-0.7,9.5,2.7c1,5.2-20.4,17.2-23.6,17.8c-3.1,0.6-2.8,0.2-4.2,3.1C29.8,57,2.9,61.4,1.8,62.2
		c-1.2,0.8-0.1,2.6,1.9,9.1C5,76,5.8,73.5,11.1,74c2.9,0.2,8.3-2.1,7.7-3c-0.6-0.9,11.4-2.9,19.4-6.4c8-3.5,21.9-12.3,21.9-12.3
		s3.3,9.1,5.1,14.9c1.8,5.8,6.9,11.4,7.7,13.4c0.7,2.1-9.9,15.1-15.8,22.7c-4.6,6-7.2,8.9-12.3,16.2c-4.8,6.9-10,13.1-10,13.1
		s-6.2-3.8-8.6-4c-2.4-0.2-7.1,5.7-5.2,6.9c7,4.6,10.2,5.9,15.9,9.4c5.1,3.1,4.2-0.7,7.1-3.2c1.6-2.2,3.4-4.3,5.2-6.5
		c2.9-3.5,4.7-7.7,8.5-10.3c2.4-2.9,12.2-10.3,15.4-14.8c3.9-5.5,14.6-16.9,14.6-16.9s16.7,15.1,22.6,18.5
		c6.5,3.8,36.3-2.1,36.3-2.1s1.8,10,6.3,12.9c0.8,0.5,4.3,0.9,9.6,1.1C160.7,118.1,160,112.2,159.2,106.5z"/>
	<path opacity="0.6" fill="#6D6E71" d="M51.2,132.8c-1.6,2.1-1.5,2-3.1,4c-0.2,0.2-1.5,1.9-1.7,2.1c6.5-0.5,18.8,0.1,15.1-1.2
		c-5.8-2,10.3-1,15.9-1.4C87.1,135.7,71.2,134.4,51.2,132.8z"/>
	<path opacity="0.6" fill="#6D6E71" d="M296.6,64.8c0.6-2.5-20.3-4.3-28.5-5c-6.3-0.6,2.8-2,7.1-5.2c4.2-3-38.3,1.6-43-1.8
		c-4.6-3.3,11.3-0.8,17.5-5.4c5.4-4-59.6-2.8-60.8-5.9c-0.9-2.4,28.8-3,36.4-4.2c7.6-1.3-1.3-3-13.5-4.4
		c-12.2-1.5,61.5-6.5,60.5-10.3c-1-3.8-49.1-2.7-66.4-3.3c-17.3-0.6,16.6-2.3,24.6-4.9c5.2-1.7-37.1-1.2-43.6-1.4
		c-4.3-0.2,15.2-2.9,20.8-4.7c2.7-0.9-49.1-1.4-72.7-2.3c-17.9-0.7-51.5,1.3-66.7,3.5c2.5,4.1-0.7,16.1,3.1,19.3
		c3.9,3.4,16.2,5.7,21.5,8.8c2.9,1.6,2.9,1.7,4.2,4.8c1.1,2.7,0.9,4.8,0.9,7.6c0,1.8-0.1,3.4,0,5.2c0,0.3-0.2,3-0.2,3.6
		c0.3,0,0,4.2,0,4.4c0,2.8-2.1,6.6-0.7,8.4c4,5.1,8,13.3,10.9,17.1c1.8,2.3,4.9,7.1,7.5,7.5c2.9,0.5,4.5,2.5,7.4,3.4
		c3,0.9,18.1-0.1,21.3-0.8c2.3-0.6,3.5-0.9,6-0.9c2.8-0.1,6.3-0.3,7,1.7c1.4,4.3,1.4,4.3,2.3,8.5c1.3,5.8,1,10.1,3.2,15.7
		c27,0.6,86.8-0.6,91-1.3c5.6-1-4.9-2.6-14.7-4.7c-9.8-2.1,49.8-2.4,55.7-5.4c5.9-3-9.5-1.8-16.3-2.2c-8.5-0.5,4.4-1.4,7.7-3.4
		c2.5-1.6-13-0.2-23-3.2c-10-3,18.1-3,21.4-4.3c3.3-1.3-27.6-3.8-33.8-5.3c-5.6-1.3,13.1-0.4,20.4-3.2c3.6-1.4-15.1-0.7-17.1-2.7
		c-3.1-3.1,21.4-2.5,22.5-5.5c1.2-3-31.2-0.1-36.9-3.5c-5-3,35-2.5,36.2-5.1c1.2-2.6-2.9-2.3-5.7-4.1C267.4,68,296,67.3,296.6,64.8z
		"/>
</g>
<g id="Layer_1">
	<g>
		<path d="M272,53.9c0.4,0,0.8,0,1.2,0.1c1.2,0.1,1.9,0.6,2.7,2.1c-0.3,0.2-0.6,0.5-1,0.5c-1.3,0.2-2.6,0.3-3.9,0.5
			c-1.2,0.1-2.5,0.3-3.7,0.5c-0.8,0.1-0.8,0.2-1.7,1c0.2,0.2,0.4,0.5,0.6,0.7c0.8,0.6,1.8,0.9,2.7,0.9c4,0.3,7.9,0.6,11.9,1
			c3.5,0.4,7,0.3,10.5,0.7c1.7,0.2,3.4,0.4,4.9,1.2c0,0.5,0,1,0,1.6c-0.4-0.7-1-1.1-1.9-1.2c-2.7-0.3-5.4-0.8-8.1-1.1
			c-2-0.2-4-0.2-6.1-0.3c-3.1-0.2-6.1-0.6-9.1-0.8c-0.5,0-1,0-1.6,0c-0.6-0.1-1.1-0.2-1.7-0.4c-0.6-0.1-1.1-0.3-1.7-0.4
			c-0.9-0.2-1.6-0.6-2.2-1.1c-0.1-0.6,0.3-0.9,0.7-1.2c1.4-0.9,2.9-1.2,4.5-1.3c0.8,0,1.6,0,2.3,0c1.1,0,2.2-0.3,3.1-0.8
			c0-0.7-0.5-0.8-0.8-1.1C273.1,54.5,272.6,54.2,272,53.9L272,53.9z"/>
		<path d="M294.4,66.5c0.6-0.5,1.3-1.1,1.9-1.6c0,0.4,0,0.8,0,1.2C295.6,66.2,295,66.4,294.4,66.5L294.4,66.5z"/>
		<path d="M39.4,128.2c-0.3,0.4-0.5,0.8-0.8,1.1c-0.5,0.5-1,1-1.5,1.6c-0.4,0.6-0.7,1.2-1.1,2c-0.4-0.1-0.8-0.1-1.2-0.3
			c-1.9-0.8-3.7-1.6-5.6-2.4c-1.7-0.7-3.4-0.4-4.8,0.6c-1.3,0.9-2.3,2.1-3.1,3.5c0.3,0.7,1,0.9,1.5,1.2c3.8,2.2,7.6,4.3,11.4,6.5
			c1.5,0.8,2.9,1.7,4.4,2.7c0.7,0.4,1.3,0.5,2,0.1c0.7-0.4,1.5-0.8,2.1-1.4c1.6-1.6,3.1-3.3,4.7-5c0.3-0.3,0.6-0.7,0.8-1.1
			c1.5-3,3.8-5.5,5.5-8.3c0.1-0.2,0.3-0.4,0.5-0.6c2-1.8,3.5-4,5.5-5.8c1.1-1,1.9-2.1,2.7-3.4c0.4-0.7,0.9-1.2,1.4-1.8
			c0.7-0.1,1.4-0.2,2-0.3c0.1-0.4,0.2-0.7,0.3-1c0.1-0.2,0.1-0.5,0.2-0.9c0.7-0.4,1.4-0.8,2.1-1.2c0.3-0.2,0.6-0.4,0.9-0.7
			c2.5-2.7,5-5.4,7.1-8.3c0.9-1.2,1.7-2.5,2.7-3.6c1.4-1.5,2.7-3.2,4.4-4.5c0.4-0.3,0.8-0.7,1.1-1.1c0.9-1.3,2.2-2.2,3.2-3.4
			c0.1-0.1,0.2-0.1,0.2-0.1c1.4,1.2,2.8,2.4,4.2,3.6c1.4,1.1,2.8,2.2,4.1,3.3c3.3,2.7,6.5,5.5,9.9,8c1.8,1.3,3.5,2.7,5.2,4.1
			c0.9,0.7,1.8,1,2.9,0.7c1.7-0.5,3.5-0.4,5.3-0.4c2.6,0,5.2,0,7.8-0.6c0.4-0.1,0.8,0,1.2-0.1c0.7,0,1.3,0,2-0.1
			c2.7-0.4,5.3-0.3,8-0.4c2.2-0.1,4.3-0.3,6.4-0.5c0.8-0.1,1.7-0.2,2.6,0c0.8,1.5,1.3,3.2,1.9,4.9c0.5,1.3,0.9,2.6,1.4,3.9
			c0.9,2.3,3.5,4.2,6.4,4c2.8-0.2,5.6-0.5,8.4-0.6c1.9-0.1,3.8,0,5.7,0.1c2.5,0.1,5.1,0.2,7.6,0.3c2.3,0.1,4.5,0.2,6.8,0.3
			c0.7,0,1.4,0,2.2,0c2.9-0.1,5.7-0.2,8.6-0.3c1.2,0,2.4,0,3.5,0.1c2.5,0.1,5,0.3,7.5,0.3c1.6,0,3.1-0.1,4.7-0.1
			c3.7-0.2,7.4-0.3,11.2-0.5c1.9-0.1,3.8,0.1,5.7,0c2.2-0.1,4.3,0.2,6.4,0.2c2.2,0,4.3,0,6.5,0.1c1.2,0,2.5,0.1,3.7,0.2
			c1.5,0.1,3,0,4.5-0.5c0.2-0.1,0.5-0.2,0.7-0.4c0.3-0.2,0.2-0.7-0.1-0.8c-0.7-0.2-1.5-0.5-2.3-0.5c-3.4-0.1-6.7-0.9-10.1-1.4
			c-0.4-0.1-0.9-0.2-1.3-0.4c-0.1-0.4-0.2-0.7-0.2-1c-0.1-0.9,0.1-1.2,1-1.4c1.2-0.3,2.4-0.5,3.7-0.6c3.2-0.4,6.4-0.5,9.6-0.4
			c6.2,0.2,12.3-0.5,18.4-0.4c2.2-0.4,4.6-0.2,6.8-0.7c2.4-0.5,4.8-0.6,7.2-0.5c2.2,0.1,4.3,0,6.4-0.5c0.4-0.1,0.9-0.3,1.6-0.5
			c-0.5-0.2-0.8-0.4-1.1-0.5c-2.8-0.6-5.6-1.3-8.5-1.3c-0.7,0-1.3,0-2,0c-1,0-2.1,0-3.1-0.3c-0.7-0.2-1.6-0.1-2.3-0.2
			c-0.9-0.1-1.3-0.4-1.3-0.9c0-0.7,0.5-0.9,0.9-1.1c1.2-0.7,2.6-0.9,4-1c1.6-0.1,3.3-0.1,4.9-0.2c0.4,0,0.9-0.1,1.3-0.2
			c0.1-0.6-0.4-0.5-0.6-0.6c-2.5-0.7-5-0.6-7.6-0.7c-0.6,0-1.2,0-1.8,0c-4.2-0.3-8.3-0.7-12.5-1.5c-0.1,0-0.3,0-0.4,0
			c-0.5-0.2-1-0.5-1.1-1c-0.1-0.5,0.1-1,0.6-1.3c1-0.6,1.9-1.1,3.1-1.2c2-0.1,4-0.2,6.1-0.3c2.6-0.2,5.2-0.2,7.8-0.9
			c0.6-0.2,1.3,0,1.8-0.6c-0.1-0.2-0.3-0.4-0.4-0.4c-0.6-0.1-1.2-0.3-1.7-0.2c-2.4,0.1-4.8,0.1-7.2-0.1c-1.9-0.2-3.9-0.1-5.9-0.2
			c-1.9-0.1-3.8-0.4-5.7-0.5c-2.8-0.1-5.4-1.1-8-1.8c-0.8-0.2-1.5-0.8-2.1-1.1c-0.2-0.7,0.2-1,0.6-1.3c1.6-1,3.3-1.6,5.2-1.7
			c1.8-0.1,3.5-0.1,5.3-0.1c0.6,0,1.2-0.1,1.8-0.1c1.6-0.1,3.1-0.2,4.7-0.3c0.6,0,1.2-0.1,1.8-0.2c0.3,0,0.6-0.2,1.2-0.3
			c-0.5-0.3-0.7-0.5-1-0.5c-2.6-0.2-5.2-0.3-7.8-0.4c-3-0.1-6-0.1-9-0.6c-0.2,0-0.5-0.2-0.8-0.3c-0.1-0.3-0.1-0.7-0.1-1
			c0-1.1,0.2-1.4,1.2-1.7c2.4-0.8,4.9-1.3,7.4-1.7c3.2-0.4,6.5-0.8,9.8-0.9c1.2,0,2.5-0.1,3.6-0.5c0.1-0.5-0.2-0.5-0.4-0.5
			c-2.2-0.3-4.4-0.6-6.6-0.8c-1.6-0.1-3.1-0.1-4.7,0c-2.5,0.2-5,0-7.5,0c-2.4,0-4.8,0.1-7.3,0.1c-2.9,0-5.7-0.1-8.4-1.5
			c-0.3-0.9,0.1-1.4,0.7-1.9c0.7-0.7,1.6-1.2,2.6-1.4c2.4-0.4,4.8-0.9,7.2-1.2c3.5-0.4,7-0.5,10.6-0.5c3.3-0.1,6.7-0.3,10-0.6
			c1.4-0.1,2.9-0.4,4.3-0.6c0.4-0.1,0.7-0.3,1.1-0.4c-0.2-0.8-0.8-1-1.5-1.2c-0.9-0.2-1.8-0.4-2.7-0.7c-0.9-0.3-1-0.9-0.5-1.7
			c0.7-0.9,1.6-1.3,2.7-1.3c0.7,0,1.4,0,2.2,0c3.9-0.1,7.9,0,11.8-0.4c1.2-0.1,2.3-0.3,3.5-0.5c0.8-0.1,1.5-0.3,2.3-0.4c0,0,0,0,0,0
			c-1.2,0.9-2.7,1-4.1,1.2c-1.9,0.2-3.9,0.3-5.9,0.4c-2,0.1-3.9,0.2-5.9,0.3c-1.2,0-2.4,0-3.5,0c-0.6,0-1.3,0.3-1.9,0.5
			c-0.2,0.1-0.4,0.4-0.7,0.8c0.4,0.2,0.7,0.4,1,0.5c0.9,0.3,1.8,0.5,2.7,0.7c0.7,0.1,1.2,0.5,1.6,1c0.4,0.5,0.4,1-0.1,1.4
			c-0.4,0.3-0.8,0.5-1.2,0.6c-1.8,0.5-3.7,0.8-5.6,0.9c-1,0-2,0.1-2.9,0.1c-3.2,0.1-6.4,0.2-9.6,0.4c-3.7,0.2-7.4,0.3-11.1,0.9
			c-1.6,0.3-3.2,0.5-4.7,1.3c-0.4,0.2-0.6,0.6-1,0.9c0.6,0.8,1.4,0.9,2.2,1c1.7,0.2,3.4,0.4,5.1,0.5c3.7,0.1,7.3,0.1,11,0.1
			c2.2,0,4.3-0.2,6.5-0.3c0.7,0,1.4-0.1,2.2-0.1c1.4,0.1,2.9,0.3,4.3,0.2c2,0,3.9,0.6,5.7,1.1c0.2,0,0.3,0.2,0.5,0.4
			c-0.2,0.2-0.3,0.5-0.5,0.6c-1.8,1-3.7,1.6-5.8,1.4c-0.2,0-0.4-0.1-0.6,0c-3.5,0.6-7,0.4-10.5,1.1c-1.7,0.3-3.5,0.7-5.2,1.1
			c-0.7,0.2-1.5,0.3-2.1,1.1c0.3,0.7,1,0.8,1.6,0.8c1.9,0.2,3.8,0.3,5.7,0.5c2.9,0.2,5.8,0.3,8.6,0.5c1,0.1,1.9,0.4,2.9,0.6
			c0.2,0,0.4,0.4,0.4,0.6c0,0.2-0.3,0.5-0.5,0.5c-0.8,0.2-1.7,0.4-2.5,0.5c-3.3,0.3-6.7,0.5-10,0.7c-1.1,0.1-2.2,0-3.3,0.1
			c-2.1,0.1-3,0.4-4.6,1.7c0.3,0.3,0.5,0.6,0.8,0.7c1.2,0.7,2.6,1,3.9,1.2c2.6,0.5,5.3,0.9,8,1.1c2.4,0.2,4.8,0.2,7.2,0.3
			c3,0.1,6,0.2,9,0.4c0.7,0,1.4,0.3,2.1,0.5c0.2,0.1,0.4,0.4,0.4,0.6c0,0.2-0.2,0.4-0.4,0.6c-0.1,0.1-0.2,0.2-0.3,0.2
			c-1.9,0.3-3.7,0.7-5.6,1c-1.5,0.2-3,0.1-4.5,0.2c-2.2,0.1-4.3,0.3-6.5,0.6c-0.7,0.1-1.4,0.4-2,0.7c-0.2,0.1-0.3,0.4-0.5,0.7
			c0.4,0.3,0.7,0.7,1.1,0.8c0.6,0.2,1.3,0.4,1.9,0.5c2.5,0.4,4.9,0.7,7.4,0.9c1.9,0.1,3.8,0.4,5.7,0.3c1.9-0.1,3.8,0,5.7,0.3
			c0.7,0.1,1.4,0.2,2.1,0.4c0.6,0.1,1.1,0.4,1.3,1.1c-0.2,0.2-0.5,0.5-0.7,0.5c-1,0.2-2.1,0.3-3.1,0.4c-2.2,0-4.3,0.1-6.5,0.4
			c-0.6,0.1-1.3,0.2-1.8,0.7c0.7,0.7,0.7,0.7,1.2,0.7c1.1,0,2.2,0.1,3.3,0.1c3.1-0.1,6.1,0.4,9.2,0.9c2.3,0.4,4.6,0.8,6.9,1.1
			c0.2,0.9,0.2,1-0.3,1.1c-1.9,0.4-3.7,1.2-5.7,1.3c-2,0.1-4,0.5-6.1,0.4c-2.2-0.1-4.4,0.1-6.6,0.4c-1.1,0.1-2.2,0.2-3.3,0.3
			c-1.6,0.1-3.1,0.3-4.7,0.3c-1.4,0.1-2.9,0.1-4.3,0.1c-5.8,0-11.5,0.5-17.3,0.4c-1.2,0-2.5,0.2-3.7,0.3c-1.3,0.1-2.6,0.2-3.9,0.3
			c-0.4,0-0.8,0.2-1.1,0.3c-0.1,0.1-0.3,0.3-0.3,0.4c0,0.1,0.2,0.4,0.3,0.4c0.8,0.2,1.5,0.4,2.3,0.5c1.3,0.3,2.7,0.6,4,0.8
			c1.2,0.2,2.3,0.3,3.5,0.4c1.8,0.1,3.6,0.4,5.4,0.9c0.4,0.1,0.7,0.4,1.3,0.7c-1.1,1.3-2.3,1.8-3.7,2c-2.5,0.3-5.1,0.3-7.6,0.2
			c-3.4-0.1-6.8-0.3-10.2-0.3c-3.5,0-6.9,0-10.4,0.1c-1.9,0-3.8,0.1-5.7,0.2c-1.5,0.1-3,0.3-4.5,0.4c-2.5,0.2-5,0.2-7.5,0.1
			c-3-0.1-6-0.2-9-0.3c-3.5,0-7.1,0.2-10.6,0.1c-3.3,0-6.7-0.2-10-0.3c-3.3-0.1-6.5-0.2-9.8-0.1c-2.4,0-4.8,0.3-7.2,0.5
			c-1.4,0.1-2.7,0-4.1-0.4c-1.6-0.5-2.8-1.6-3.7-3c-0.7-1.1-1.1-2.3-1.6-3.6c-0.6-1.8-1-3.8-2.2-5.5c-0.8-0.3-1.7-0.1-2.5,0
			c-1.2,0.1-2.3,0.3-3.5,0.4c-0.7,0.1-1.4,0.1-2.1,0.1c-2-0.1-4-0.3-6.1,0.1c-1.3,0.3-2.6,0.2-3.9,0.3c-3.1,0.2-6.1,0.5-9.2,0.7
			c-0.5,0-1.1,0.1-1.6,0c-1.3-0.2-2.6-0.1-3.9,0.4c-0.8,0.3-1.5,0.2-2.2-0.3c-2.8-2.2-5.6-4.3-8.4-6.5c-0.3-0.2-0.6-0.5-0.9-0.7
			c-3.1-2.4-6.2-4.8-9.1-7.4c-1.5-1.3-3.2-2.5-4.9-3.7c-0.7-0.5-1.1-0.5-1.8,0c-0.6,0.5-1.3,1.1-1.8,1.8c-0.8,1-1.7,1.8-2.6,2.6
			c-1.3,1.2-2.5,2.4-3.6,3.8c-2.2,2.9-4.4,5.8-6.8,8.6c-1.3,1.5-2.7,3.1-4.4,4.1c-1,0.6-0.9,0.6-1.5,2.5c-0.4,0.1-0.8,0.3-1.2,0.3
			c-1.1,0.2-1.9,0.8-2.6,1.7c-1.4,2-3,3.8-4.8,5.4c-0.8,0.7-1.5,1.5-2.2,2.2c-0.2,0.2-0.3,0.5-0.5,0.8c0.2,0.2,0.3,0.3,0.4,0.3
			c3-0.2,6-0.1,8.9-0.1c0.1-0.4,0.1-0.6,0.1-0.9c0.5-0.1,1.2-0.3,1.5-0.1c0.6,0.4,1.3,0.3,1.8,0.7c-0.2,0.6-0.6,0.6-1,0.6
			c-1.3,0.1-2.6,0.2-3.9,0.2c-1.7,0-3.4,0-5.1,0.1c-1,0-2.1,0.2-3.1,0.3c-1.2,0.1-1.5,1.1-2,2.1c1.8,0.6,3.5,0.8,5.2,0.8
			c1.4,0,2.8,0,4.1,0.1c2.3,0.2,4.5,0.4,6.8,0.8c-0.6,0-1.2,0.1-1.9,0.1c-1.6,0-3.3-0.1-4.9-0.2c-3.4-0.1-6.8-0.3-10-0.4
			c-1.4,1.1-1.4,1.1-2,2.5c8,0.6,16,0.6,24.4,1.2c-0.5,0.3-0.6,0.6-0.8,0.6c-1.6,0-3.1-0.1-4.7-0.2c-2.6-0.1-5.1-0.1-7.7-0.1
			c-0.6,0-1.1,0.1-1.7,0.2c-0.2,0.5,0.2,0.7,0.4,0.8c0.6,0.3,1.2,0.6,1.9,0.9c-0.3,0.3-0.4,0.8-0.7,0.9c-0.6,0.2-1.3,0.4-1.9,0.4
			c-1.1,0-2.2-0.1-3.3-0.1c-1.6-0.1-3.3-0.1-4.9-0.1c-0.7,0-1.4,0.2-2.1,0.3c-0.3,0-0.6,0-0.9,0c0-0.7,0.5-0.7,0.8-0.7
			c1.6-0.1,3.1-0.2,4.7-0.2c1.8,0,3.7,0.1,5.5,0.1c0.4,0,0.7-0.1,1.2-0.1c-0.2-0.3-0.3-0.5-0.4-0.6c-0.8-0.4-1.5-0.7-2.2-1.3
			c-0.3-0.3-0.8-0.5-1.2-0.5c-2-0.1-4-0.4-6.1-0.1c-0.8,0.1-1.5,0.4-1.9,1.2c-0.5,0.9-1.1,1.8-1.9,2.5c-0.3,0.2-0.5,0.5-0.6,0.8
			c-0.7,1.4-1.9,2.5-3.1,3.5c-0.5,0.4-1,0.8-1.6,1.1c-1.1,0.6-2.1,0.7-3.3-0.1c-3.6-2.3-7.3-4.4-10.9-6.6c-2.2-1.3-4.5-2.4-6.9-3.6
			c-0.2-0.5-0.2-1,0.2-1.6c0.5-0.7,0.8-1.6,1.8-2c0.2-0.1,0.3-0.3,0.4-0.4c1.1-1.7,2.8-2,4.6-2.3c0.8-0.1,1.5,0,2.3,0.4
			c0.7,0.4,1.6,0.7,2.3,1c1.2,0.5,2.4,1.1,3.6,1.6C36.3,130.3,37.5,129.2,39.4,128.2C39.4,128.3,39.4,128.2,39.4,128.2z"/>
		<path d="M133.4,67c0.2-0.1,0.3-0.2,0.5-0.3c0.3-0.1,0.6-0.3,0.6-0.7c-0.1-0.4-0.4-0.4-0.7-0.4c-3.8,0.1-7.6,0.2-11.4,0.3
			c-4.2,0.1-8.4,0.2-12.5,0.3c-2.2,0.1-4.4,0.3-6.7,0.4c-1,0.1-2,0-2.9,0.1c-1,0-1.9,0.1-3,0.2c-0.1-1.2-0.1-2.3,0.1-3.3
			c0.2-0.9,0.1-1.7,0-2.5c-0.1-1.2,0-2.3,0-3.5c0-0.5,0.1-0.9,0.1-1.4c0-2.7,0-5.5,0-8.2c0-1.6-0.2-2.3-1-3.7c0.2-0.5,0.6-0.4,1-0.4
			c4.4,0,8.9,0,13.3,0c2.6,0,5.2-0.2,7.8,0.1c0.6,0.1,1.1,0.2,1.7,0.2c0.1,0.5-0.1,0.6-0.4,0.6c-2.3-0.3-4.7-0.3-7-0.2
			c-2.3,0.1-4.6,0-6.9,0c-2.4,0-4.8,0.1-7.3,0.1c-0.2,0-0.4,0.1-0.7,0.2c0,1.6,0,3.2,0,4.8c-0.1,1.6-0.1,3.1,0,4.8
			c1.7,0.2,3.3-0.4,4.9-0.4c1.6,0,3.3,0,4.9-0.1c1.6,0,3.3-0.1,4.9,0c1.6,0.1,3.2-0.2,4.8,0.4c-0.3,0-0.6,0.1-0.9,0.1
			c-3.3,0-6.5,0-9.8,0.1c-2,0.1-4,0.2-6.1,0.3c-0.9,0.1-1.8,0.3-2.7,0.7c-0.1,0.4-0.2,0.8-0.2,1.2c0,2.9-0.1,5.9,0,8.7
			c0.5,0.6,1.1,0.5,1.6,0.5c3.7-0.1,7.3,0,11-0.4c1.8-0.2,3.7-0.2,5.5-0.2c4.8-0.1,9.7-0.5,14.5-0.4c1,0,2.1,0,3.1-0.1
			c0.9-0.1,1.2-0.3,1.2-1.2c0-3.1,0.1-6.1,0-9.2c0-0.9-0.3-1.8-0.3-2.7c0-3.9-0.2-7.8-0.7-11.7c-0.1-0.6-0.2-1.3-0.3-1.9
			c-0.9-0.5-1.9-0.3-2.7-0.1c-1.3,0.3-2.6,0.3-3.9,0.4c-2,0-4,0.3-6.1,0.4c-2.5,0.1-5.1,0.3-7.6,0.4c-3.7,0-7.4,0.1-11.1,0.6
			c-1.6,0.2-3.2,0.4-4.9,0.5c-0.3,0-0.6-0.2-0.9-0.4l0,0c0.4-0.1,0.7-0.4,1.1-0.4c1.2-0.1,2.5-0.2,3.7-0.3c0.5,0,0.9,0,1.4,0
			c2.7-0.4,5.3-0.3,8-0.4c2,0,3.9-0.2,5.9-0.3c3-0.3,6-0.4,9-0.5c2.5-0.1,5.1-0.5,7.6-0.8c0.1,0,0.2-0.1,0.4-0.3
			c0-0.3,0.1-0.7,0.1-1c-0.5-5.3-2-10.4-4.4-15.2c-1.1-2.2-2.1-4.5-3.1-6.7c-0.2-0.5-0.5-0.9-0.8-1.4c-0.4-0.6-0.8-1.1-1.7-0.8
			c0.2-0.6,0.4-1.1,0.6-1.7c0.5,0.4,0.9,1,1.4,1.1c0.8,0.2,1.7,0.2,2.5,0.2c1.3,0,2.6,0,3.9,0c0.2,0,0.5-0.1,0.7,0.3
			c-2.2,0.1-4.4-0.2-6.8,0.1c0.1,0.5,0.2,0.9,0.3,1.3c1.2,3.2,2.8,6.3,4.3,9.5c1.7,3.6,2.8,7.5,3.1,11.5c0.1,0.9,0.3,1.8,0.4,2.8
			c0.7,0,1.5,0,2.2,0c0.7,0,1.4,0,2.3-0.1c-0.2-2.2-0.8-4.2-1.4-6.1c-0.7-2-1.3-4.1-2.1-6.1c-0.8-1.9-1.7-3.8-2.6-5.7
			c0.4-0.3,0.6,0,0.7,0.3c0.7,1.4,1.4,2.8,1.9,4.3c0.8,2.1,1.6,4.3,2.3,6.5c0.6,1.9,1,3.8,1.6,5.7c0.1,0.4,0.2,0.7,0.4,1.2
			c0.5,0.1,0.9,0.2,1.3,0.2c1.4-0.1,2.7-0.2,4.1-0.3c1.3-0.1,2.6-0.2,3.9-0.3c0.1,0,0.2,0.1,0.5,0.2c-0.3,0.1-0.5,0.3-0.7,0.3
			c-2.4,0.2-4.8,0.3-7.2,0.4c-0.6,0-1.1,0.2-1.8,0.3c0.4,4.9,1.5,9.6,1.9,14.5c1.6,0.4,3.1,0.2,4.6-0.1c0.2,0,0.5-0.4,0.6-0.7
			c0.1-0.4,0.1-0.8,0.1-1.2c-0.3-2.3-0.3-4.7-1.4-6.9c0-0.1,0.1-0.2,0.1-0.5c0.2,0.3,0.5,0.5,0.6,0.7c0.7,1.7,1,3.4,1.1,5.2
			c0.1,1-0.1,2,0.2,2.9c0.6,0.6,1.3,0.3,1.9,0.3c2.5-0.2,5.1-0.6,7.6-0.8c0.9-0.1,1.8-0.2,2.7-0.2c5.3-0.2,10.6-0.6,15.9-0.6
			c3.5,0,6.9-0.1,10.4,0c2.2,0,4.4-0.2,6.7-0.3c2.4-0.1,4.7,0,7.1-0.1c0.3,0,0.5,0.1,0.9,0.1c-0.3,0.6-0.8,0.7-1.3,0.7
			c-2.2,0-4.3,0-6.5,0c-2.4,0-4.7,0-7.1,0.1c-2,0.1-4,0.1-6.1,0c-2.6-0.2-5.2-0.1-7.8-0.1c-3.7,0-7.3,0.4-11,0.6
			c-3.5,0.2-7,0.6-10.5,1c-1,0.1-1.9,0.2-2.9,0.6c-0.4,1-0.2,2.1-0.8,3.2c-0.3-1.1,0.2-2.1-0.3-3.1c-1.6-0.2-3.1,0-4.7,0.3
			c-0.5,1.3-0.2,2.6-0.3,3.9c-0.1,1.2,0,2.5-0.1,3.7c-0.1,1.3-0.4,2.6-0.3,3.9c0.6,0.5,1.3,0.3,1.9,0.3c1.4,0,2.7,0,4.1,0
			c0.3,0,0.6,0.1,0.9,0.6c-1.3,0-2.4,0.1-3.6,0.1c-1.2,0-2.3,0.1-3.5,0.4c-0.5,1.7-0.6,3.5-0.9,5.3c0.5,0.1,0.8,0.2,1.2,0.2
			c6.2-0.8,12.5-1,18.8-1.2c4.3-0.1,8.6-0.4,12.9-0.6c0.4,0,0.8,0,1.2,0.2c-0.5,0.1-1,0.3-1.4,0.4c-2.3,0.2-4.7,0.3-7,0.4
			c-4.8,0.2-9.5,0.4-14.3,0.7c-2.7,0.1-5.5,0.3-8.2,0.6c-1,0.1-2.1,0.3-2.9,0.4c-0.7,0.6-0.7,1.3-0.9,1.9c-0.3,1.3-0.6,2.7-1,4
			c-0.1,0.4-0.1,0.9-0.7,1.1l0,0c0.1-1.7,0.8-3.2,1.1-4.8c0.1-0.6,0.3-1.2,0.4-2c-0.5-0.1-0.8-0.1-1.1-0.1c-0.9,0-1.8,0.1-2.7,0.2
			c-1,0.2-2,0.4-3,0.3c-1.1,0-2.2,0.2-3.3,0.3c-1,0.1-2.1,0.2-3.1,0.3c-1,0.1-2.1,0.4-3.1,0.5c-3,0.2-5.9,0.8-9,1
			c-3.9,0.2-7.7,0.9-11.5,1.5c-0.2,0-0.3,0.1-0.5,0.2c0,0.2-0.1,0.3,0,0.4c1.2,2.6,2.4,5.2,4.5,7.2c0.7,0.7,1.3,1.6,1.9,2.5
			c0.7,1,1.6,1.6,3,1.5c1.5-0.2,3-0.2,4.5-0.2c2.9-0.2,5.7-0.4,8.6-0.5c0.3,0,0.6,0,1.1,0c-1,0.6-1.1,0.6-2.3,0.7
			c-3.9,0.3-7.8,0.6-11.7,0.9c-0.2,0-0.5,0.1-0.7,0.1c0,0.2,0,0.4,0,0.5c0.3,0.4,0.5,0.8,0.8,1.1c1.5,1.9,3,3.7,4.5,5.5
			c1.8,0.1,3.5,0.2,5.2,0.4c3.5,0.4,6.9,0.3,10.4,0c1.8-0.2,3.5-0.3,5.3-0.5c0.4,0,0.8,0,1.2,0c-0.1,0.5-0.4,0.6-0.7,0.7
			c-4.1,0.4-8.2,1-12.3,0.8c-2-0.1-4-0.3-6.1-0.4c-1,0-2,0-3,0c-1.2-0.9-1.9-2.1-2.8-3.2c-1.4-1.7-2.7-3.3-4.2-4.9
			c-0.4-0.5-0.8-1-1.2-1.5c-1-1.2-1.9-2.5-2.9-3.7c-1-1.3-1.8-2.7-2.5-4.2c-1.2-2.4-2.5-4.8-4.3-6.7c-0.5-0.6-1.1-1.1-1.7-1.6
			c-1.5-1.3-2.5-2.9-3.2-4.6c-0.1-0.2,0-0.4,0-0.9c0.3,0.4,0.4,0.5,0.5,0.7c1,2,2.5,3.5,4,5c0.9,0.9,1.8,1.8,2.5,2.7
			c0.6,0.8,1.4,1.1,2.4,1c1.6-0.2,3.1-0.3,4.7-0.5c2.6-0.4,5.3-0.8,8-0.8c1.3,0,2.6-0.3,3.9-0.5c3.1-0.4,6.2-0.8,9.3-1.1
			c1.8-0.1,3.6-0.3,5.5-0.8c0.2-0.4,0.4-0.8,0.4-1.3c0.1-0.8,0.2-1.6,0.3-2.3C134.4,67.2,134.3,67.1,133.4,67
			C133.3,66.9,133.4,67,133.4,67z M134.5,38c0,0.6-0.1,1-0.1,1.5c0.1,2.3,0.3,4.6,0.5,6.8c0.1,1.6,0.2,3.3,0.3,4.9
			c0,0.4,0.2,0.7,0.3,1.2c1.8-0.1,3.6,0.2,5.3-0.3c0.1-0.3,0.2-0.5,0.2-0.6c-0.1-1.6-0.3-3.1-0.5-4.7c-0.1-0.9-0.4-1.8-0.4-2.7
			c0-2-0.7-3.9-0.9-5.8c0-0.2-0.2-0.5-0.3-0.7C137.3,37.3,136,37.6,134.5,38z M135.4,64.4c1.7,0.7,3.3,0.1,4.9,0.2
			c0.1-0.7,0.3-1.2,0.3-1.8c0.2-1.9,0.3-3.8,0.4-5.7c0.1-1,0-2.1,0-3.1c0-0.4-0.2-0.7-0.3-1.1c-1.8-0.2-3.6-0.1-5.3,0.6
			c0,3.1,0,6.1,0,9.2C135.3,63.3,135.3,63.8,135.4,64.4z M134.5,71.5c1.7,0.3,3.2-0.1,4.6-0.4c0.8-1.8,1.1-3.9,0.8-5.6
			c-1.5-0.2-3-0.4-4.6,0.1C135,67.5,134.3,69.4,134.5,71.5z"/>
		<path d="M224.9,15.5c0.6-0.5,1.3-0.4,2.1-0.5c1.1-0.1,2.2-0.2,3.2-0.5c-0.4-0.6-0.8-0.6-1.3-0.6c-3.5-0.5-7-0.8-10.6-0.8
			c-3.9,0-7.9,0-11.8,0c-0.3,0-0.7,0-1,0c-4.6,0.6-9.3,0.2-13.9,0.3c-1.7,0-3.4-0.2-5.1-0.3c-0.4,0-0.9-0.1-1.1-0.7
			c-0.1-0.5,0.2-0.9,0.9-1c1-0.2,1.9-0.3,2.9-0.4c3-0.5,6.1-0.9,9.2-1.1c1.8-0.1,3.5-0.5,5.2-0.8c0.2,0,0.3-0.1,0.7-0.3
			c-1.1-0.4-2.1-0.4-3.1-0.4c-2.5,0-5.1,0.1-7.6,0.1c-0.2,0-0.4,0-0.6-0.1c-2.4-0.5-4.9-0.5-7.4-0.4c-1.4,0-2.9-0.2-4.3,0.3
			c-0.2,0.1-0.4,0-0.6,0C178.6,7.8,176.3,8,174,8c-2.2-0.1-4.4-0.1-6.7-0.3c-3.4-0.3-6.8-0.3-10.2-0.5c-1.5-0.1-3-0.2-4.5-0.3
			c-3.7-0.2-7.4-0.3-11.2-0.1c-3.8,0.2-7.6,0.1-11.4,0.1c-0.3,0-0.5,0-0.8,0c-1.3,0.1-2.6,0.3-4-0.1c-1.1-0.3-2.3-0.1-3.5-0.1
			c-2.9,0-5.8,0.2-8.6,0.1c-4.1-0.1-8.1-0.1-12.2,0.2c-1.1,0.1-2.2,0.1-3.3,0.2c-0.7,0-1.3,0-2,0.1C93,7.7,90.3,8,87.5,8.1
			c-1.4,0-2.7,0.2-4.1,0.2c-3.9,0-7.8,0.3-11.7,0.9c-1.3,0.2-2.6,0.5-3.9,0.8c-0.4-0.7-0.5-1.6-1.2-1.9c-0.9-0.4-1.8-0.7-2.8-1
			C63.5,7,63.3,7,63,7c-0.8,0-1.5-0.4-2-1.1c-0.9-1.1-1.5-1.4-2.6-0.6c-1.3,0.9-2.5,1-3.8,0.4c-0.7-0.3-1.4-0.3-2.1-0.5
			c-1.9-0.7-3.9-0.4-5.8-0.3c-1.1,0.1-2.1,0.7-3,1.4c-0.8,0.8-1.1,1.7-1,2.8c0.1,0.7,0.2,1.4,0.2,2.2c-0.8,0.3-1.5,0.5-2.2,0.8
			c0,0.5,0.3,0.4,0.6,0.4c1.1-0.1,2.2-0.2,3.3-0.3c0.7,0,1.3,0.3,1.2,1c-0.2,2.2,0.4,4.3,1,6.4c-0.6,1-1.3,1.9-1.9,2.8
			c0.3,0.9,0.9,1.1,1.5,1.3c1.6,0.5,2.3,1.6,2.5,3.2c0.1,0.5,0.2,0.9,0.3,1.3c0.2,1,0.6,1.2,1.5,1c1.6-0.4,3.2-0.5,4.9-0.5
			c1.1,0,1.9,0.4,2.4,1.4c0.4,1,0.8,1.9,1.1,2.9c0.2,0.5,0.1,1.2,0,1.7c-0.2,1.2-0.6,2.3-0.7,3.4c-0.1,0.6-0.3,1.1-0.8,1.5
			c-0.7,0.5-1.5,1-2.3,1.5c-0.9,0.5-1.7,0.9-2.6,1.3c-2,0.9-3.9,2.1-5.7,3.5c-0.3,0.2-0.5,0.4-0.8,0.5c-2.5,1.2-4.8,2.7-7.1,4.2
			c-1.3,0.8-2.7,1.4-4.1,2c-0.4,0.2-1,0-1.3,0c-0.7,0.4-0.3,1.5-1.3,1.5c-0.3-1.1,0.4-1.9,0.5-2.9c0.4,0,0.6-0.1,0.9,0
			c1,0.2,1.8,0,2.6-0.5c1.5-0.9,3.1-1.8,4.6-2.6c1-0.6,2.1-1.1,3.1-1.7c1.1-0.7,2.2-1.3,3.3-2.1c1.3-0.9,2.6-1.7,4-2.4
			c2-1.1,4-2.2,6-3.4c0-0.7-0.1-1.5,0.1-2.1c0.6-1.9-0.2-3.6-0.6-5.4c-0.1-0.5-0.5-0.7-1.1-0.7c-0.9,0.1-1.8,0.2-2.7,0.3
			c-0.5,0.1-0.9,0.2-1.3,0.3c-1.9,0.4-2.8-0.1-3.5-1.9c-0.3-0.7-0.4-1.4-0.7-2.1c-0.2-0.5-0.4-1-0.6-1.4c-0.3-0.7-0.9-1.2-1.7-1.5
			c-2-0.8-2.1-1-0.9-2.8c0.1-0.2,0.3-0.4,0.5-0.6c0.6-0.7,0.7-1.5,0.4-2.4c-0.3-1-0.5-2-0.7-3c-0.3-1.1-0.5-1.2-1.6-1.3
			c-1-0.1-2.1-0.1-3.1-0.1c-0.9-0.1-1.7-0.3-2.4-0.9c-0.5-0.4-0.4-1,0.2-1.2c0.4-0.1,0.8-0.2,1.1-0.3c0.9-0.2,1.9-0.5,2.9-0.8
			c-0.1-0.9-0.1-1.7-0.2-2.5C41.6,7,42,6.2,42.9,5.6C44,4.7,45.2,4.1,46.6,4c3-0.3,6-0.2,8.9,0.7c0.5,0.2,1,0.1,1.5-0.1
			c0.5-0.2,1-0.4,1.5-0.6c1.2-0.5,2.4-0.3,3.1,0.9c0.5,0.7,1,0.9,1.8,1c2,0.2,3.6,1,5,2.6c1.4-0.2,2.8-0.3,4.2-0.5
			c2.5-0.2,5.1-0.4,7.6-0.6c4.2-0.3,8.5-0.4,12.7-0.8c4-0.4,8.1-0.6,12.1-0.7c2.7-0.1,5.5,0,8.2,0c8.8,0,17.7,0,26.5,0
			c1.5,0,3-0.3,4.5-0.2c3.9,0.1,7.8,0.3,11.8,0.5c2.2,0.1,4.4,0.2,6.7,0.2c2,0,4.1,0.1,6.1,0.5c0.6,0.1,1.2,0.1,1.8,0.1
			c5,0,9.9,0,14.9,0c2.2,0,4.4,0,6.7,0.1c0.5,0,0.9,0,1.4,0.1c3.2,0.8,6.4,0.6,9.6,0.6c1.7,0,3.4,0.2,5.1,0.3
			c0.1,0.7-0.4,0.8-0.8,0.9c-1.6,0.3-3.2,0.7-4.8,0.9c-2.7,0.4-5.5,0.6-8.2,0.9c-2.1,0.3-4.1,0.7-6.6,1.1c1,0.5,1.7,0.5,2.3,0.5
			c4.5,0,9,0.1,13.5,0.1c2.1,0,4.2-0.3,6.3-0.3c2.8,0,5.6,0.1,8.4,0.2c1.2,0,2.4,0.1,3.5,0.1c1.4,0.1,2.9,0.2,4.3,0.3
			c1.8,0.1,3.6,0.2,5.6,0.4c0,0.5,0.1,0.9,0.1,1.5C229.6,15.5,227.2,15.4,224.9,15.5C224.9,15.5,224.9,15.5,224.9,15.5z"/>
		<path d="M74.1,81c-0.7-1.5-1.5-2.9-2.2-4.3c-0.2-0.3-0.3-0.8-0.6-1c-1.2-0.7-1.3-2-1.8-3c0.2-0.5,0.3-0.8,0.5-1.2
			c-0.4-0.3-0.7-0.7-1.1-0.8c-1-0.4-1.4-1.1-1.7-2c-0.4-1-0.7-2.1-1.1-3.1c-0.8-2.2-1.5-4.5-2.7-6.5c-0.3-0.4-0.4-1-0.6-1.5
			c-0.5-1.6-1-3.2-1.5-4.9c-0.2-0.6-0.6-0.8-1.2-0.5c-0.7,0.4-1.4,0.8-2,1.1c-1.1,0.6-2.4,1.1-3.4,1.9c-1.4,1-2.9,1.5-4.4,2.2
			c-0.6,0.3-1.2,0.5-1.8,0.8c-3,1.6-6,3.2-9,4.8c-0.5,0.3-1.1,0.5-1.6,0.6c-1.7,0.5-3.4,0.9-5.1,1.4c-3.3,1-6.5,2-9.8,3
			c-1.5,0.4-3,0.8-4.6,1.2c-0.1-0.2-0.3-0.4-0.4-0.6c-0.2-0.7-0.5-1.4-0.6-2.1c-0.3-1.5-0.5-3.1-0.7-4.7c-0.2-1.3,0-1.6,1.3-2
			c0.9-0.3,1.9-0.6,2.8-0.9c2.4-0.8,4.7-1.5,7.1-2.3c1.2-0.4,2.2-1,3.3-1.6c0.3-0.2,0.6-0.5,0.4-0.9c-0.6-0.3-1,0.2-1.4,0.4
			c-1.6,0.8-3.1,1.7-4.9,1.9c-0.6,0.1-1.3,0.4-1.8,0.7c-1.5,0.8-3.2,1.1-4.8,1.6c-1.4,0.4-2.9,0.7-4.4,1.2c-1,0.3-1.9,0.5-2.9,0.4
			c-1.1-0.1-2.1,0.1-2.6,0.8c-0.9,0-1.5-0.1-2.1,0c-0.9,0.2-1.7,0.6-2.6,0.9c-0.9,0.3-1.7,0.5-2.5,0.8c0.1,0.9,0.1,1.8,0.3,2.7
			c0,0.1,0.1,0.2,0.1,0.4c0.2,0.8,0.3,1.6,0.5,2.5c0.6,2.4,1.6,4.7,2.7,7c1.6,0.2,3-0.3,4.4-0.9c0.7-0.3,1.3-0.7,2-0.6
			c0.2,0.1,0.3,0.2,0.4,0.4c0.6,0.9,1.3,0.9,2.2,0.6c1.3-0.5,2.5-1.1,3.7-1.7c1.2-0.6,1.2-0.6,0.9-2c0-0.2-0.1-0.5-0.1-0.9
			c0.9-0.3,1.8-0.7,2.6-0.9c3.3-1,6.5-1.9,9.8-2.8c1.1-0.3,2.2-0.8,3.4-0.7c0.3,0,0.6-0.1,0.9-0.2c1-0.3,2-0.6,3-1
			c0.7-0.2,1.4-0.5,2-0.9c1.7-1.1,3.5-2.1,5.3-2.9c0.7-0.3,1.4-0.7,2.1-1.1c0.3-0.2,0.7-0.4,1-0.5c2.5-0.9,4.9-2.2,7.2-3.6
			c1-0.6,1.9-1.1,2.9-1.7c0.4-0.3,0.9-0.5,1.5-0.3c0.1,0.2,0.2,0.3,0.3,0.5c0.8,2.4,1.6,4.8,2.9,7.1c0.3,0.6,0.6,1.3,0.8,2
			c0.5,2,1.2,3.9,1.9,5.8c0.4,1.1,0.8,2.2,2.1,2.5c0,0.6-0.2,1.1,0,1.5c0.5,1.1,1,2.3,1.8,3.3c0.4,0.4,0.8,0.9,1,1.4
			c0.7,1.3,1.4,2.6,2.1,4c-0.3,0.7-0.6,1.4-1,2c-2.4,3.9-4.9,7.7-7.7,11.3c-1.1,1.3-2.1,2.7-3.1,4c-1.2,1.4-2.3,2.8-3.6,4.2
			c-0.7,0.7-1.4,1.4-2.3,1.7c-0.6,0.2-1,0.6-1.3,1.1c-0.7,1.3-1.6,2.6-2.2,3.9c-0.4,0.8-0.8,1.5-1.3,2.2c-0.3,0.4-0.8,0.7-0.7,1.3
			c1.3-1,2.3-2.3,3.1-3.7c1-1.9,2.2-3.5,4-4.8c0.8-0.6,1.6-1.4,2.2-2.2c3-3.8,6.1-7.7,9.1-11.6c0.8-1,1.4-2.1,2-3.1
			c1.2-1.9,2.4-3.9,4-5.6C74.3,81.8,74.3,81.3,74.1,81z M6.5,74.2c-1.8-1.3-2.6-3-2.9-5.1c-0.1-0.9-0.4-1.8-0.6-2.7
			c-0.4-2.6,0-3.3,2.8-3.8c0.7-0.1,1.6,0,2.3,0c0.5,0,0.8,0.4,0.9,0.9c0.2,2.8,1.6,5.4,1.8,8.5C9.6,73.2,8.1,73.7,6.5,74.2z
			 M16.7,72.6c-0.4,0.5-1.1,0.9-1.9,1c-0.1,0-0.2,0.1-0.3,0.1c-1.1,0.3-1.3,0.3-1.7-0.2c-0.1-0.1-0.4-0.5-0.4-0.6
			c-0.2-0.6-0.5-0.8-0.6-1.5c0-0.1-0.1-0.5-0.2-0.6c0,0,0,0,0,0c0-0.1,0-0.1,0-0.2c0-0.2-0.1-0.3-0.1-0.5c-0.6-2.5-2-4.9-1.6-7.6
			c1.7-0.8,3.4-1.2,5.4-1.5c0.7,2.3,0.7,4.5,1.2,6.6c0.3,0.4,0.4,0.8,0.5,1.2c0.3,0.5,0.3,0.6,0.5,1.2c0.1,0.4,0.1,0.4,0.2,0.5
			c0.2,0.4,0.2,0.7,0.4,1.1C17.6,72,17.2,72.3,16.7,72.6z"/>
		<path d="M272,53.9c-1.7-0.1-3.4-0.2-5.1-0.2c-0.2,0-0.4-0.1-0.6-0.1c-3,0-6-0.5-9-0.2c-1,0.1-2.1,0.1-3.1,0.1c-3-0.1-6,0.1-9,0.2
			c-2.2,0-4.3,0.3-6.4,0.4c-1,0.1-1.9,0.1-2.9-0.2c-0.7-0.2-1.6-0.1-2.3-0.3c-0.8-0.2-1.5-0.4-2.2-0.7c-0.7-0.4-0.8-1.2-0.1-1.8
			c0.8-0.6,1.6-1.2,2.6-1.3c2.2-0.3,4.4-0.6,6.6-0.7c2.9-0.1,5.7-0.6,8.6-1c0.2,0,0.3-0.2,0.5-0.4c-0.1-0.2-0.2-0.4-0.3-0.5
			c-1.5-0.8-3-1.3-4.6-1.4c-2.4-0.2-4.8-0.4-7.2-0.6c-1.6-0.1-3.1-0.2-4.7-0.2c-2,0-4.1,0.1-6.1,0.1c-3,0.1-6,0.1-9,0.1
			c-2,0-3.9-0.1-5.9-0.2c-1.4-0.1-2.7-0.2-4,0.1c-0.5,0.5-0.4,1-0.4,1.5c0.5,4.8,0.2,9.7,0.3,14.5c0,2.9,0.2,5.8-0.3,8.6
			c0,0.3,0,0.5,0,0.8c-0.1,1.3-0.2,2.6-0.3,3.9c0,0.4,0,0.9,0,1.4c0.5,0.1,1,0.3,1.4,0.3c2,0,3.9,0.2,5.8-0.5c0.5-0.2,1-0.2,1.4,0.4
			c-0.3,0.5-0.8,0.4-1.2,0.4c-1.9,0-3.8,0.1-5.7,0c-1.2-0.1-2,0.3-2.3,1.7c-0.2-0.6-0.3-1.2-0.6-1.5c-0.3-0.3-0.8-0.3-1.3-0.3
			c-2.2,0-4.4,0-6.6,0l0,0c0.5-0.5,1.2-0.5,1.9-0.5c1.4,0,2.9,0,4.3,0c2.3,0,2.2,0,2.6-2.2c0.3-1.7,0.3-3.4,0.3-5.1
			c0-1.1,0.2-2.2,0.3-3.3c0.1-2.2,0.1-4.4,0.1-6.7c0-2.4-0.3-4.7-0.3-7.1c-0.1-1.7-0.1-3.4-0.1-5.1c0-0.4-0.1-0.9-0.2-1.3
			c-1-0.4-1.9,0-2.8,0c-0.4,0.7-0.4,1.4-0.4,2.1c-0.1,3.6-0.1,7.2-0.2,10.8c0,0.6,0,1.3-0.2,1.9c-0.2-4.9-0.1-9.9-0.2-14.9
			c-1.2-0.1-2.2-0.2-3.2-0.4c-1-0.2-2-0.6-3.1-0.6c-1.7-0.1-3.3-0.6-5-1c-1.3-0.3-2.5-0.6-3.8-1c-0.3-0.1-0.6-0.2-0.9-0.3
			c-0.2-0.1-0.4-0.3-0.7-0.4c0.4-1,1.2-1.4,2.1-1.7c1.6-0.5,3.2-0.7,4.8-0.8c2.4-0.1,4.7-0.2,7.1-0.4c0.6,0,1.2-0.1,1.7-0.2
			c0.6-0.1,0.9-0.4,0.9-1.1c0-0.3,0-0.7-0.1-1c-0.8-3.6-1.5-7.3-2.3-10.9c0-0.1-0.1-0.2-0.3-0.4c-1.5-0.2-3.2,0.3-4.9-0.2
			c0.5-0.3,0.9-0.2,1.3-0.2c0.5-0.1,1-0.1,1.6-0.2c0.4-0.1,0.9-0.2,1.2-0.3c0.5-0.8-0.8-1.3-0.2-2.1c0.7,0.1,1.1,0.7,1.3,1.3
			c0.2,0.6,0.8,0.6,1.2,0.9c0.3,0.6-0.8,0.9-0.4,1.6c0.2,0.4,0.2,1,0.3,1.5c0.8,3.3,1.6,6.6,1.8,10c0,0.3,0.1,0.5,0.2,0.7
			c0.7,0.4,1.4,0.3,2.2,0.1c0.2-1.5-0.3-2.8-0.4-4.2c-0.1-1.3-0.8-2.6-0.7-4c1,1.1,1.1,2.5,1.4,3.9c0.3,1.3,0.3,2.7,0.6,4.1
			c1.6,0.4,3.1,0,4.6,0.1c1.5,0,3,0,4.5,0.2c-2.9,0.2-5.7,0.5-8.7,0.7c-0.5,1.8,0.3,3.4,0.2,5.2c0.4,0.1,0.8,0.2,1.2,0.2
			c3,0,6,0,9,0.1c5.4,0.2,10.8-0.1,16.3-0.1c1.9,0,3.8,0.3,5.7,0.4c1.5,0.1,3,0.3,4.5,0.4c1.8,0.1,3.5,0.5,5.1,1.2
			c0.5,0.2,1,0.6,1.5,0.9c0.4,0.3,0.2,0.9-0.2,1.2c-0.2,0.1-0.5,0.2-0.7,0.3c-3.1,0.3-6.2,0.8-9.4,1c-2,0.1-3.9,0.4-5.8,0.7
			c-0.9,0.2-1.9,0.4-2.5,1.4c0.5,0.8,1.3,1.1,2.2,1.2c1.6,0.2,3.3,0.3,4.9,0.4c0.5,0,0.9,0.1,1.4,0c2.7-0.5,5.5-0.3,8.2-0.3
			c0.7,0,1.3-0.1,2-0.1c0.7,0,1.3-0.1,2-0.1c3.3,0.1,6.5,0.1,9.8,0.2c1.8,0,3.7,0.1,5.5,0.1C269.1,53,270.6,53.1,272,53.9
			C272,53.9,272,53.9,272,53.9z M202.7,39.4c-0.4-0.1-0.6-0.2-0.9-0.1c-3.3,0.2-6.5,0.4-9.8,0.6c-0.9,0.1-1.8,0.2-2.7,0.4
			c-0.6,0.1-1.1,0.3-1.5,0.9c0.3,0.2,0.5,0.4,0.8,0.5c3.6,1.1,7.4,1.7,11.1,2.4c0.9,0.2,1.9,0.1,3-0.1
			C202.8,42.4,202.8,41,202.7,39.4z M203.5,39.2c-0.3,1.7-0.2,3.7,0.3,5.1c0.9,0,1.8,0.1,2.8-0.4c-0.1-1.7-0.1-3.3-0.7-5
			C205,38.8,204.2,38.8,203.5,39.2z"/>
		<path d="M270,21.7c-2.2-0.3-4.4-0.7-6.6-0.9c-3-0.4-6-0.6-9-0.9c-0.3,0-0.7,0-1,0c-0.3,0-0.7,0.1-1,0.1c-3.3,0-6.7,0-10,0
			c-0.7,0-1.3,0.1-2,0.1c-4.4,0-8.8-0.1-13.1,0.1c-4.4,0.1-8.8-0.2-13.1-0.3c-4.2-0.1-8.3-0.5-12.5-0.7c-0.2,0-0.5-0.1-0.7-0.1
			c-0.2-0.7,0.3-0.9,0.7-1.1c2.2-0.9,4.5-1.8,6.9-1.9c1.4,0,2.9-0.1,4.3-0.2c0.1,0,0.1,0,0.2,0c3.1,0.7,6.1-0.2,9.2-0.2
			c0.8,0,1.7,0,2.5,0.1c0,0,0,0,0,0c-2.3,0.2-4.7,0.5-7,0.6c-2,0.1-4.1-0.1-6.1,0.1c-2.7,0.2-5.5,0.4-8.1,1.5
			c-0.2,0.1-0.5,0.2-0.7,0.3c-0.1,0-0.1,0.1-0.1,0.2c0,0.4,0.3,0.4,0.5,0.4c1.8,0.1,3.7,0.1,5.5,0.2c2.2,0.1,4.3,0.2,6.5,0.3
			c1.6,0.1,3.3,0.2,4.9,0.2c4.3,0,8.6-0.1,12.9-0.1c4,0,8,0.1,12,0.1c3.5,0,6.9,0,10.4,0.1c2.6,0.1,5.2,0.5,7.8,0.8
			c1.1,0.1,2.2,0.2,3.3,0.3C267.9,20.7,269,20.8,270,21.7L270,21.7z"/>
		<path d="M96.4,39.8c-0.2,0-0.5,0.1-0.6,0C95,39,94,38.8,93,38.4c-3.4-1.5-6.7-2.8-9.9-4.6c-1.9-1.1-4-1.9-6.1-2.8
			c-0.1-0.3,0.1-0.6,0.4-0.6c1-0.1,2.1-0.1,3.1-0.1c3.1,0.1,6.3,0.3,9.4,0.4c3.3,0.1,6.7,0,10,0c2.8,0,5.6,0,8.4,0.1
			c0.8,0,1.5,0.2,2.3,0.3c0.5,0.1,1,0.1,1.6,0.1c1.8,0,3.7,0,5.5,0c0.4,0,0.8,0,1,0.4c-0.1,0.5-0.4,0.4-0.6,0.4c-2.5,0-5.1,0-7.6,0
			c-0.3,0-0.7-0.1-1,0c-2.4,0.2-4.8-0.1-7.2-0.1c-3.2,0-6.4-0.2-9.6-0.3c-2.2-0.1-4.4-0.1-6.7-0.1c-0.7,0-1.4,0.1-2.1,0.2
			c-0.6,0.1-1.1,0.2-2,0.4c0.4,0.3,0.7,0.5,1,0.7c3.3,2.1,7,3.4,10.6,5.1c0.7,0.3,1.5,0.6,2.2,0.9C96,39,96.4,39.2,96.4,39.8
			C96.3,39.8,96.4,39.8,96.4,39.8z"/>
		<path d="M163,80.7c0.2-0.1,0.3-0.4,0.5-0.4c1-0.1,2.1-0.3,3.1-0.3c2.2,0,4.4,0,6.7,0.1c2,0.1,3.9,0.1,5.8,0
			c3.5-0.3,7-0.5,10.6-0.6c2.4-0.1,4.8,0.1,7.2,0.1c1.2,0,2.5,0.2,3.7-0.2c0.1,0,0.3-0.1,0.4,0c1.5,0.6,3.1,0.2,4.6,0.1
			c0.9-0.1,1.8,0.1,2.7,0.1c1.4,0,2.9-0.2,4.3-0.3c3.5-0.2,6.9-0.3,10.4-0.5c2.5-0.1,5.1-0.4,7.6-0.5c0.4,0,0.8,0,1.1-0.1
			c0.1,0.5-0.1,0.6-0.3,0.6c-1.6,0.1-3.1,0.2-4.7,0.4c-1.2,0.1-2.3,0.3-3.5,0.3c-3.4,0.2-6.8,0.3-10.2,0.5c-0.9,0-1.8,0.2-2.7,0.3
			c-0.4,0-0.8,0.1-1.2,0.1c-1.9-0.1-3.8,0.2-5.7-0.1c-1-0.1-1.9,0-2.9,0.2c-0.9,0.2-1.8-0.1-2.7-0.1c-2.9-0.1-5.7-0.2-8.6-0.2
			c-0.9,0-1.8,0.1-2.7,0.1c-5.5,0.2-11,0.8-16.5,0.5c-2-0.1-4.1-0.1-6.1,0.4c-0.2,0.1-0.5,0-0.8,0C163.2,80.9,163.2,80.8,163,80.7z"
			/>
		<path d="M161.1,98.1c-1.4,0.1-2.6,0.1-3.9,0.2c0.9,3.7,1.7,7.3,2.6,11.1c0.3,0,0.8,0.1,1.2,0.1c2.8,0,5.6-0.1,8.4-0.1
			c0.5,0,1-0.2,1.5-0.2c0.1,0,0.3,0.2,0.4,0.3c0,0,0,0.1,0,0.3c-1.9,0.1-3.7,0.2-5.6,0.3c-1.9,0.1-3.8,0-5.7,0.7
			c0.2,1.9,0.5,3.8,0.9,5.5c0.7,0.5,1.3,0.5,2,0.4c2.2-0.2,4.4-0.4,6.6-0.5c0.2,0,0.3,0.1,0.6,0.2c-0.3,0.1-0.4,0.3-0.5,0.3
			c-0.5,0.1-1,0.1-1.6,0.1c-2.4,0-4.8,0.3-7.2,0.6c-0.6,0.1-1.1,0.1-1.7,0.1c-0.2-0.7,0.6-0.7,0.7-1.5c-0.4-1.8-0.8-3.9-1.2-6
			c-0.4-2.4-0.8-4.8-1.4-7.1c-0.2-0.9-0.5-1.8-0.7-2.7c-0.3-1.2-1.1-1.7-2.2-1.9c-1.6-0.2-3.1-0.2-4.7,0.2c-0.7,0.2-1.1,0.1-1.6-0.6
			c0.2-0.2,0.3-0.5,0.5-0.5c1.6-0.1,3.1-0.4,4.7-0.2c1.9,0.2,3.8,0.3,5.7,0.3c0.5,0,0.9,0,1.4,0.1C160.5,97.7,160.7,97.9,161.1,98.1
			z"/>
		<path d="M222,30.7c-0.3,0.4-0.8,0.4-1.2,0.4c-1.7,0.1-3.4,0.2-5.1,0.3c-0.7,0-1.3,0.1-1.9,0.2c-0.6,0.1-1.2,0.4-1.8,0.7
			c-0.2,0.1-0.4,0.4-0.4,0.6c0,0.2,0.2,0.5,0.4,0.5c0.3,0.2,0.7,0.3,1.1,0.3c2.3,0.4,4.5,0.8,6.8,1.1c0.7,0.1,1.4,0.3,2.1,0.4
			c1.2,0.2,2.4,0.4,3.7,0.6c0.7,0.1,1.4,0,2.1,0.5c-0.1,0.2-0.1,0.4-0.2,0.4c-1.9,0.3-3.8,0.9-5.8,0.5l0,0c0.7-0.2,1.3-0.4,2.1-0.7
			c-1.1-0.5-2.2-0.7-3.2-0.9c-2.6-0.4-5.3-0.8-7.9-1.2c-0.6-0.1-1.3-0.3-1.9-0.5c-0.6-0.2-0.8-0.9-0.4-1.4c0.3-0.4,0.6-0.7,1-0.9
			c1-0.6,2-0.9,3.2-0.9C217.1,30.8,219.5,30.8,222,30.7C222,30.7,222,30.7,222,30.7z"/>
		<path d="M116.1,12.6c-2.5,0.1-5.1,0.3-7.6,0.4c-2.6,0.2-5.2,0.2-7.8,0.5c-2.7,0.3-5.3,0.2-8,0.3c-1.7,0-3.4,0-5.1,0
			c0.1-0.5,0.5-0.6,0.9-0.6c1.2-0.1,2.3-0.1,3.5-0.1c4.3,0.1,8.6-0.2,12.9-0.7c0.3,0,0.5,0,0.8-0.1c2.1-0.1,4.3-0.3,6.4-0.4
			c1,0,2.1,0,3.1,0c0.3,0,0.6,0.2,0.9,0.3C116.1,12.3,116.1,12.5,116.1,12.6z"/>
		<path d="M269.9,21.7c1.2-0.1,2.3,0.3,3.4,1c-0.2,0.3-0.4,0.6-0.6,0.8c-1.3,0.8-2.8,1.1-4.3,1.4c-3.8,0.8-7.7,1.1-11.6,1.4
			c-2.9,0.2-5.8,0.5-8.8,0.8c-0.4,0-0.9,0-1.3-0.2c1-0.2,1.9-0.3,2.9-0.4c1.9-0.2,3.9-0.5,5.8-0.7c0.6-0.1,1.3-0.1,2-0.1
			c4.2-0.1,8.3-0.7,12.4-1.7c0.7-0.2,1.5-0.3,2-0.9C271.4,22.3,270.2,22.6,269.9,21.7C270,21.7,269.9,21.7,269.9,21.7z"/>
		<path d="M89.9,61.3c-0.8-0.2-0.8-0.7-0.9-1c-1.2-2.7-2.4-5.4-3.6-8c-0.5-1.1-1.1-2.2-1.7-3.3c-0.5-0.9-0.8-1.8-0.9-2.8
			c-0.2-1-0.5-1.9-0.8-2.8c-0.1-0.4-0.2-0.9-0.4-1.7c0.5,0.4,0.7,0.5,0.8,0.7c0.6,0.8,1,1.7,1.1,2.7c0.2,1.8,0.9,3.4,1.7,5
			c0.6,1.2,1,2.4,1.5,3.6c0.7,1.6,1.5,3.2,2.3,4.8C89.3,59.3,89.7,60.2,89.9,61.3z"/>
		<path d="M124.3,99.4c0.2-0.3,0.2-0.5,0.4-0.5c0.2-0.1,0.5-0.1,0.8-0.1c3.3-0.2,6.5-0.5,9.8-0.7c1.2-0.1,2.5,0,3.7,0
			c0.2,0.6-0.3,0.7-0.7,0.7c-1.3,0.1-2.6,0.2-3.9,0.3c-2.9,0.2-5.7,0.3-8.6,0.5C125.3,99.5,124.8,99.5,124.3,99.4z"/>
		<path d="M184.4,108c0.2,0,0.5-0.1,0.7-0.1c2.1,0.3,4.1,0.2,6.2,0.1c3.5,0,7-0.4,10.5-0.7c1.3-0.1,2.6-0.1,3.8-0.1
			c0,0.4-0.3,0.4-0.6,0.4c-2.9,0.3-5.8,0.6-8.7,0.8c-1.7,0.1-3.4,0.1-5.1,0.1c-1.3,0-2.6,0.1-3.9,0.2c-1,0.1-2,0-3-0.3
			C184.3,108.3,184.4,108.2,184.4,108z"/>
		<path d="M144.2,86.6c-0.5,0.3-0.8,0.6-1.1,0.6c-2.1,0.1-4.2,0.8-6.4,0.6c-0.8-0.1-1.6,0.1-2.3,0.2c-0.5,0-0.9,0.1-1.4,0.2
			c-0.8,0.1-1.4-0.2-1.3-0.5c0.3-0.5,0.8-0.4,1.2-0.4c1.7-0.1,3.4-0.2,5.1-0.3c1.4-0.1,2.7-0.4,4.1-0.6
			C142.6,86.2,143.2,86,144.2,86.6z"/>
		<path d="M199.4,71.5c-0.2-0.3-0.5-0.5-0.5-0.6c0.5-2.3,0.4-4.6,0.9-7c0.4-1.7,0.2-3.6,0.2-5.4c0-0.8,0-1.6,0.1-2.5
			c0.1,0.2,0.2,0.2,0.2,0.3c0,2.9-0.1,5.7-0.1,8.6c0,1.3-0.1,2.6-0.2,3.9C200.1,69.6,199.9,70.5,199.4,71.5z"/>
		<path d="M70.2,22.4c-0.2-0.1-0.5-0.2-0.5-0.3c-0.5-0.7-0.6-1.5-0.4-2.2c0.6-2.3,0.4-4.5,0.2-6.8c0-0.4,0-0.9,0-1.5
			c0.3,0.3,0.5,0.4,0.5,0.5c0.4,2.6,0.8,5.2,0.2,7.8C70.1,20.6,70.2,21.5,70.2,22.4z"/>
		<path d="M133.3,66.9c-0.9,0.2-1.7,0.5-2.6,0.7c-0.7,0.1-1.4,0.1-2.1,0.1c-2.3,0-4.7,0.1-7,0.4c-0.3,0-0.6,0-0.9-0.1
			c0-0.6,0.4-0.7,0.8-0.8c1.7-0.1,3.4-0.2,5.1-0.2c1.7-0.1,3.4-0.1,5.1-0.1C132.2,66.9,132.8,67,133.3,66.9
			C133.4,67,133.3,66.9,133.3,66.9z"/>
		<path d="M186.9,116c-0.2,0.1-0.3,0.2-0.5,0.2c-0.3,0.1-0.6,0.2-1,0.2c-3.6,0-7.2,0-10.8,0c-1,0-1.9,0-2.9-0.1
			c2.4-0.1,4.8-0.3,7.2-0.4c1.4,0,2.9-0.3,4.3,0.1c0.4,0.1,0.9-0.1,1.4-0.1c0.7-0.1,1.4-0.1,2.1-0.2
			C186.8,115.8,186.9,115.9,186.9,116z"/>
		<path d="M70.1,23.9c0.4,1.3,0.6,2.1,0.9,2.9c0.3,0.9,0.9,1.5,1.9,1.9c1,0.3,1.9,0.9,2.8,1.3c0.1,0,0.1,0.2,0.1,0.5
			c-0.5-0.1-0.9-0.2-1.3-0.3c-0.8-0.4-1.6-0.8-2.6-0.9c-0.6-0.1-1.1-0.5-1.4-1c-0.4-1.1-0.7-2.2-1.1-3.3
			C69.5,24.6,69.8,24.4,70.1,23.9z"/>
		<path d="M260,65.2c-0.1,0.2-0.2,0.4-0.3,0.4c-2.7-0.1-5.5,0.4-8.2-0.2c0,0,0-0.1,0-0.2c0,0,0.1-0.1,0.1-0.1c2.7-0.1,5.3-0.1,8-0.2
			C259.7,64.9,259.8,65.1,260,65.2z"/>
		<path d="M72.8,133.7c3.2,0.1,6.4,0.6,9.5,1.3c0.2,0.5-0.1,0.7-0.4,0.8c-1,0.4-1.9,0.6-3.4,0.1c1.1-0.2,1.7-0.3,2.3-0.4
			c-1.3-0.7-2.8-0.8-4.1-1.1c-1.1-0.2-2.2-0.3-3.3-0.5C73.3,133.9,73.1,133.8,72.8,133.7L72.8,133.7z"/>
		<path d="M236.5,28.7c-0.4,0.1-0.8,0.3-1.3,0.4c-3.2,0.5-6.4,0.9-9.6,1.4c-1.2,0.2-2.4,0.4-3.7,0.2c0,0,0,0,0,0
			c0.2-0.1,0.5-0.2,0.7-0.3c3.4-0.5,6.9-1,10.3-1.5C234.2,28.8,235.4,28.8,236.5,28.7C236.6,28.8,236.5,28.7,236.5,28.7z"/>
		<path d="M71.7,24.1c0.7-0.1,1.2-0.2,1.7-0.1c3.2,0.2,6.4-0.6,9.7-0.2c-3.5,0.5-7.1,0.6-10.6,0.9c-0.2,0-0.4-0.1-0.5-0.2
			C71.9,24.5,71.9,24.4,71.7,24.1z"/>
		<path d="M154.8,27c1.5-0.7,4.2-1,6-0.5c-0.1,0.1-0.1,0.3-0.2,0.3c-1.7,0.3-3.5,0.5-5.2,0.8C155.1,27.5,154.8,27.4,154.8,27z"/>
		<path d="M175,97.7c-0.7,0.4-1.3,0.5-1.9,0.4c-1.9-0.2-3.8-0.2-5.6,0c-0.4,0.1-0.9-0.1-1.3-0.2c0.1-0.2,0.2-0.4,0.2-0.4
			C169.2,97.4,172,97.1,175,97.7z"/>
		<path d="M230,106.6c0.2-0.1,0.5-0.2,0.7-0.3c2.4-0.2,4.8-0.4,7.2-0.5c0.2,0.8,0.1,0.9-0.3,0.9C235,106.3,232.5,106.5,230,106.6
			L230,106.6z"/>
		<path d="M210,110.2c0.2-0.1,0.3-0.3,0.5-0.3c3.3-0.3,6.6-0.8,9.9-0.4c0,0,0.1,0.1,0.2,0.2C216.9,109.4,213.4,110,210,110.2
			L210,110.2z"/>
		<path d="M209.9,110.2c-0.4,0.1-0.9,0.2-1.3,0.2c-2.1,0.2-4.1,0.3-6.2,0.5c-0.2,0-0.5,0-1.1,0c0.4-0.3,0.6-0.6,0.9-0.7
			c0.4-0.1,0.9-0.1,1.4-0.1C205.7,110.1,207.8,110.1,209.9,110.2C210,110.2,209.9,110.2,209.9,110.2z"/>
		<path d="M236.6,28.8c1.6-0.7,3.4-0.7,5.1-1.1c1.1-0.2,2.1-0.6,3.6-0.3c-0.4,0.2-0.6,0.3-0.8,0.3c-2.1,0.4-4.1,0.7-6.2,1
			C237.7,28.8,237.1,28.7,236.6,28.8C236.5,28.7,236.6,28.8,236.6,28.8z"/>
		<path d="M132.2,79.6c-0.2,0.8-0.3,1.5-0.6,2.3c-0.4,1.5-0.9,2.9-1.4,4.4c-0.1-0.7-0.1-1.4,0.1-2c0.4-1.3,0.9-2.6,1.3-3.9
			C131.8,80.1,132,79.8,132.2,79.6L132.2,79.6z"/>
		<path d="M176.4,22.7c-2,0.1-4,0.3-6.1,0.4c-0.2-0.2-0.1-0.5,0.2-0.6c0.4-0.1,0.9-0.2,1.3-0.2c1.5,0.1,3,0.2,4.6,0.3
			C176.4,22.6,176.4,22.7,176.4,22.7z"/>
		<path d="M142.9,11.8c-2.5,0-5.1,0-7.9,0C136.6,11.4,140,11.4,142.9,11.8z"/>
		<path d="M49.2,114.4c-0.1,0.3-0.1,0.7-0.2,0.9c-0.7,1.1-1.5,2.3-2.3,3.4c-0.1,0.2-0.4,0.3-0.7,0.5
			C46.7,117.3,47.9,115.6,49.2,114.4C49.2,114.5,49.2,114.4,49.2,114.4z"/>
		<path d="M231.5,63c1.7-1.5,3.7-0.9,5.7-0.6c-0.4,0-0.9,0.1-1.3,0.1c-0.5,0-1,0-1.6,0c-0.5,0-0.9,0-1.4,0.1
			C232.5,62.7,232,62.9,231.5,63z"/>
		<path d="M191.7,25.1c-2.6,0-4.7,0-6.8,0C187,25,189.1,24.6,191.7,25.1z"/>
		<path d="M89.8,135.2c-1.1,0.2-2.3,0.4-3.4,0.5c-0.1,0-0.3-0.2-0.3-0.3c0-0.1,0.2-0.4,0.3-0.4C87.5,134.8,88.6,134.5,89.8,135.2z"
			/>
		<path d="M86.6,23.1c0.6-0.2,0.8-0.3,1-0.3c1.2,0,2.3,0,3.5,0c0,0,0,0.1,0.1,0.2C89.9,23.3,88.8,23.4,86.6,23.1z"/>
		<path d="M197.8,76.4c-1.3,0.2-2.7,0.5-4,0.6c-0.2,0-0.4-0.1-0.6-0.2c0.1-0.6,0.5-0.5,0.8-0.5C195.2,76.4,196.5,75.9,197.8,76.4
			C197.8,76.4,197.8,76.4,197.8,76.4z"/>
		<path d="M39.4,128.3c0.5-1.4,1.1-2.7,2.3-3.6C41.3,126,40.5,127.2,39.4,128.3C39.4,128.2,39.4,128.3,39.4,128.3z"/>
		<path d="M223.5,107.2c1,0,2-0.7,3.2-0.5c-0.1,0.2-0.1,0.3-0.2,0.3C225.5,107.1,224.5,107.2,223.5,107.2z"/>
		<path d="M224.3,65.9c-1.4,0.2-2.7,0.4-4.1,0.1c0,0,0-0.1,0-0.2c0,0,0.1-0.1,0.1-0.1C221.7,65.7,223,65.8,224.3,65.9z"/>
		<path d="M43.5,123c0.1-1.2,0.6-2.2,1.7-3.1c-0.1,0.5,0,0.7-0.1,0.9C44.5,121.5,44,122.3,43.5,123z"/>
		<path d="M221.7,37.5c-1.3,0.6-2.6,0.2-3.9,0.2C219.1,37.5,220.4,37.3,221.7,37.5C221.7,37.5,221.7,37.5,221.7,37.5z"/>
		<path d="M62.5,127.6c-0.8-0.1-1.4-0.1-1.9-0.2c-0.5,0-1,0.2-1.6-0.1C60,126.8,60.6,126.9,62.5,127.6z"/>
		<path d="M204,87.4c-0.2,0.9-0.2,1.9-0.7,2.7C203.3,89.2,203.4,88.2,204,87.4L204,87.4z"/>
		<path d="M290.1,18.7c0.2,0.1,0.3,0.1,0.3,0.1c0.3,0.3,0.7,0.6,0.6,1.1c0,0-0.1,0.1-0.2,0.1C290.4,20.1,290.2,19.8,290.1,18.7z"/>
		<path d="M211.1,107.3c-0.5,0-1,0-1.6,0c0-0.1,0-0.1,0-0.2c0.5,0,1,0,1.6,0C211.1,107.2,211.1,107.2,211.1,107.3z"/>
		<path d="M73,128.9c-0.4,0-0.8-0.1-1.2-0.1c-0.1,0-0.2-0.2-0.1-0.3c0-0.1,0.2-0.2,0.2-0.2c0.4,0.1,0.8,0.2,1.2,0.3
			C73,128.7,73,128.8,73,128.9z"/>
		<path d="M203,62.2c0,0.4,0,0.7,0,1.1c0,0-0.1,0-0.1,0c0-0.4,0-0.7,0-1.1C202.9,62.2,203,62.2,203,62.2z"/>
		<path d="M137.5,79c0.1,0.6,0,1.2-0.2,1.8c-0.2-0.1-0.3-0.2-0.3-0.2C137.2,80.1,137.4,79.6,137.5,79C137.6,79,137.5,79,137.5,79z"
			/>
		<path d="M205.1,83.6c-0.1,0.4-0.2,0.8-0.3,1.2c-0.1,0-0.2,0-0.2-0.1c0.1-0.4,0.2-0.8,0.3-1.2C204.9,83.6,205,83.6,205.1,83.6z"/>
		<path d="M77.5,135.9c-0.7,0.1-1.1,0.2-1.6,0.3C76.1,135.7,76.1,135.7,77.5,135.9z"/>
		<path d="M294.3,66.5c-0.5,0.8-1.2,0.9-2,0.7c0,0,0,0,0,0C292.9,66.8,293.6,66.5,294.3,66.5C294.4,66.5,294.3,66.5,294.3,66.5z"/>
		<path d="M230,106.6c-0.6,0.1-1.1,0.2-1.7,0.4c0-0.1,0-0.2,0-0.3C228.8,106.7,229.4,106.7,230,106.6C230,106.6,230,106.6,230,106.6
			z"/>
		<path d="M202.3,70.4c0,0.3,0,0.6-0.1,1.3c0-0.8,0-1.1,0-1.3C202.3,70.4,202.3,70.4,202.3,70.4z"/>
		<path d="M163.9,97.7c-0.2,0.5-0.6,0.4-1,0.1C163.2,97.4,163.5,97.5,163.9,97.7z"/>
		<path d="M195.1,102.7c-0.1,0.1-0.2,0.2-0.3,0.4c0-0.1-0.2-0.2-0.1-0.3c0.1-0.1,0.2-0.3,0.3-0.4C195,102.5,195.1,102.5,195.1,102.7
			z"/>
		<path d="M201.8,74.1c0-0.1,0-0.1,0-0.2C201.8,74,201.9,74.1,201.8,74.1c0.1,0.1,0.1,0.1,0.1,0.2C201.8,74.2,201.8,74.2,201.8,74.1
			z"/>
		<path d="M244.4,65.1c0.1,0,0.3,0,0.4,0c0,0,0.1,0.1,0.1,0.1C244.8,65.2,244.6,65.2,244.4,65.1C244.4,65.1,244.4,65.1,244.4,65.1z"
			/>
		<path d="M72.8,133.6c-0.4,0-0.9,0-1.7,0C72.2,133.4,72.2,133.4,72.8,133.6C72.8,133.7,72.8,133.6,72.8,133.6z"/>
		<polygon points="230.8,65.6 230.6,65.6 230.6,65.5 		"/>
		<path d="M218.3,107.2C218.3,107.2,218.2,107.2,218.3,107.2c-0.1,0-0.1,0-0.2,0C218.2,107.1,218.2,107.1,218.3,107.2z"/>
		<path d="M50,113.3c0,0.6-0.2,1-0.8,1.2c0,0,0,0,0,0C49.2,113.9,49.5,113.5,50,113.3C50,113.3,50,113.3,50,113.3z"/>
		<path d="M132.9,76.4c-0.1,0.5,0,1.1-0.5,1.5c0,0,0,0,0,0C132.6,77.4,132.8,76.9,132.9,76.4L132.9,76.4z"/>
		<path d="M204.1,87.4c0-0.3,0-0.7,0-1.1C204.5,86.8,204.2,87.1,204.1,87.4C204,87.4,204.1,87.4,204.1,87.4z"/>
		<path d="M205.4,82c0,0-0.1,0-0.1,0c0-0.1,0-0.2,0-0.4c0.1,0,0.1,0,0.2,0C205.5,81.8,205.4,81.9,205.4,82z"/>
		<path d="M132.2,79.6c-0.2-0.6-0.1-1.2,0.2-1.7c0,0,0,0,0,0C132.3,78.4,132.3,79,132.2,79.6C132.2,79.6,132.2,79.6,132.2,79.6z"/>
		<path d="M133.3,75.1c0-0.3,0.1-0.6,0.1-1C133.7,74.6,133.5,74.8,133.3,75.1C133.2,75.1,133.3,75.1,133.3,75.1z"/>
		<polygon points="202.6,67.8 202.6,67.8 202.6,68 		"/>
		<polygon points="207.7,107.1 207.8,107.2 207.7,107.2 		"/>
		<path d="M132.9,76.4c0.1-0.4,0.2-0.9,0.3-1.3c0,0,0,0,0,0C133.1,75.5,133,75.9,132.9,76.4C132.9,76.4,132.9,76.4,132.9,76.4z"/>
		<polygon points="215.6,107.1 215.7,107.2 215.6,107.2 		"/>
		<path fill="#FFFFFF" d="M136.8,66.4c-0.1-0.1-0.2-0.1-0.3-0.1c0,0,0,0.1,0,0.1C136.6,66.4,136.6,66.4,136.8,66.4z"/>
		<path d="M136.8,66.4c-0.1,0-0.2,0-0.2,0c0,0,0-0.1,0-0.1C136.6,66.3,136.6,66.3,136.8,66.4z"/>
	</g>
</g>
</svg>
