<?xml version="1.0" encoding="utf-8"?>
<!-- Generator: Adobe Illustrator 23.1.0, SVG Export Plug-In . SVG Version: 6.00 Build 0)  -->
<svg version="1.1" xmlns="http://www.w3.org/2000/svg" xmlns:xlink="http://www.w3.org/1999/xlink" x="0px" y="0px"
	 viewBox="0 0 616.6 326.2" enable-background="new 0 0 616.6 326.2" xml:space="preserve">
<g id="Layer_3">
</g>
<g id="Layer_2">
	<path opacity="0.6" fill="#6D6E71" d="M119.5,281.2c-1.9,2.7-3.1,3-4.2,6.3c5.9-1,32.2-0.9,40.6-4.8
		C159.1,281.1,132.4,282,119.5,281.2z"/>
	<path fill="#6D6E71" d="M330.8,233.7c-1.1-8.5-2.3-19.4-13-20.2c-10.3-0.8-13.5,4.4-24.1,3.1c-6.3-0.7-27.2,2-33.6,1.4
		c-6.2-0.6-10.5-4.3-16-7.3c-6.9-3.7-19.4-19.3-23.7-29.3c-2.8-6.6-4-11.6-8.4-17.1c-1.1-1.4-2.1-3.8-4.8-6.7
		c-3.7-4-0.9-10.4-0.7-16.4c0.1-3.1,0.4-15.1,0.3-18c-0.1-3.5,0.2-12.3,0.2-15.9c0.1-7.4,0.7-16-4.5-21.6
		c-4.8-5.2-10.4-7.7-16.3-10.7c-10-5.1-30.7-7.7-35.5-18.9c-2.5-5.9-0.9-13.4-0.3-19.8c0.7-7.5,0-9-0.9-11.9
		c-0.3-1.1-1.3-3.7-1.7-4.5c-0.3-0.3-1.4-2.7-1.4-2.7s-2.9-6.9-8.1-6.3c-5.3,0.7-0.8-4.1-7.2-4.5c-6.3-0.5-8.3,2.5-8.3,2.5
		S106.9,6,98.6,8s-0.6,12-10,14.6c-9.3,2.6-1.5,5.3,6.2,5.3c6.1,0,10.3,11.3,6.2,14.9c-4.1,3.6-5.6,4.5-0.2,8.8
		c9.1,7.2,6.2,13.6,8.4,13.8c7.6,0.7,18-1.4,19.3,6c2,11.6-41.3,38.1-47.7,39.4c-6.3,1.3-5.6,0.4-8.6,6.8c-3,6.4-57.4,16.2-59.8,18
		c-2.4,1.8-0.3,5.8,3.7,20.1c2.9,10.4,4.4,5,15.2,5.9c5.9,0.5,16.8-4.6,15.6-6.7c-1.2-2.1,23.1-6.3,39.3-14.2
		c16.2-7.8,44.3-27.2,44.3-27.2s6.6,20.3,10.4,33.1c3.7,12.8,14,25.2,15.5,29.8c1.5,4.6-20.1,33.4-31.9,50.3
		c-9.4,13.4-14.6,19.7-24.9,35.9c-9.8,15.4-20.2,28.9-20.2,28.9s-12.6-8.4-17.4-8.9c-4.8-0.5-14.3,12.6-10.6,15.3
		c14.1,10.2,20.7,13.1,32.2,20.8c10.4,6.9,8.6-1.5,14.4-7c3.2-4.9,6.8-9.6,10.5-14.4c5.8-7.7,9.5-17.1,17.2-22.9
		c4.9-6.4,24.7-22.8,31.2-32.7c7.9-12.3,29.6-37.5,29.6-37.5s33.8,33.5,45.7,41c13.1,8.3,73.3-4.8,73.3-4.8s3.7,22.1,12.7,28.7
		c1.6,1.2,8.7,2,19.4,2.5C333.9,259.6,332.5,246.5,330.8,233.7z"/>
	<path opacity="0.6" fill="#6D6E71" d="M112.4,292.1c-3.3,4.6-3.1,4.5-6.3,8.9c-0.4,0.5-3.1,4.1-3.5,4.6c13.1-1.1,38,0.3,30.4-2.6
		c-11.8-4.4,20.8-2.2,32.1-3C185.1,298.6,153,295.6,112.4,292.1z"/>
	<path opacity="0.6" fill="#6D6E71" d="M608.6,141.3c1.2-5.5-41-9.5-57.6-11.2c-12.8-1.3,5.6-4.5,14.4-11.5c8.5-6.7-77.3,3.6-87-3.9
		c-9.3-7.3,22.8-1.7,35.4-12c10.9-8.9-120.4-6.3-122.9-13.1c-1.9-5.4,58.2-6.6,73.5-9.4c15.3-2.8-2.7-6.6-27.4-9.8
		C412.5,67.2,561.6,56,559.5,47.7c-2.1-8.4-99.3-6-134.2-7.3c-34.9-1.3,33.6-5.1,49.7-10.8c10.6-3.8-75-2.6-88.2-3.2
		C378,26,417.6,19.9,428.9,16c5.5-1.9-99.3-3.1-147-5.1c-36.2-1.5-104.1,3-134.9,7.7c5.1,9-1.5,35.6,6.3,42.9
		c8,7.4,32.6,12.7,43.4,19.5c5.8,3.7,5.9,3.7,8.5,10.7c2.2,5.9,1.9,10.6,1.8,16.9c-0.1,3.9-0.2,7.6,0,11.5c0,0.6-0.3,6.7-0.5,8
		c0.5,0.1,0.1,9.4,0.1,9.7c0,6.2-4.3,14.5-1.4,18.7c8,11.4,16.1,29.5,22,37.9c3.6,5.1,10,15.7,15.2,16.7c5.9,1.1,9,5.6,14.9,7.5
		c6,1.9,36.5-0.1,43-1.9c4.7-1.2,7.2-2,12.1-2.1c5.7-0.1,12.8-0.7,14.1,3.8c2.8,9.6,2.8,9.6,4.7,18.8c2.7,12.9,2,22.4,6.4,34.8
		c54.6,1.3,175.4-1.2,184-2.9c11.4-2.2-10-5.8-29.7-10.5c-19.7-4.7,100.7-5.3,112.7-11.9c12-6.6-19.2-3.9-32.9-4.8
		c-17.1-1.2,9-3,15.6-7.6c5.1-3.5-26.2-0.5-46.4-7.2c-20.2-6.6,36.6-6.6,43.3-9.6c6.6-2.9-55.7-8.5-68.4-11.7
		c-11.3-2.9,26.6-0.9,41.2-7.1c7.3-3.1-30.5-1.5-34.5-6c-6.2-6.8,43.2-5.5,45.6-12.2c2.4-6.7-63.1-0.3-74.5-7.7
		c-10.1-6.6,70.8-5.4,73.2-11.3c2.4-5.9-6-5.2-11.5-9.1C549.4,148.4,607.4,146.8,608.6,141.3z"/>
</g>
<g id="Layer_1">
	<g>
		<path d="M558.8,117.1c0.8,0,1.6,0.1,2.4,0.1c2.5,0.3,3.8,1.4,5.4,4.6c-0.6,0.4-1.3,1-1.9,1.1c-2.6,0.4-5.2,0.7-7.8,1.1
			c-2.5,0.3-5,0.6-7.4,1c-1.6,0.3-1.6,0.5-3.5,2.2c0.4,0.5,0.8,1.1,1.3,1.5c1.7,1.2,3.6,1.9,5.6,2.1c8,0.7,16,1.3,24,2.2
			c7.1,0.9,14.2,0.6,21.3,1.4c3.4,0.4,6.8,0.9,9.9,2.7c0,1.2,0,2.3,0,3.5c-0.8-1.6-2-2.4-3.8-2.6c-5.5-0.7-10.9-1.8-16.4-2.5
			c-4.1-0.5-8.2-0.4-12.2-0.7c-6.2-0.5-12.3-1.2-18.5-1.8c-1-0.1-2.1,0-3.2-0.1c-1.2-0.2-2.3-0.5-3.4-0.8c-1.2-0.3-2.3-0.8-3.4-1
			c-1.7-0.4-3.2-1.2-4.4-2.4c-0.2-1.4,0.6-2.1,1.4-2.6c2.7-1.9,5.8-2.8,9-2.8c1.6,0,3.2,0,4.7,0c2.2-0.1,4.4-0.7,6.2-1.8
			c0-1.5-0.9-1.9-1.7-2.4C561.1,118.5,560,117.8,558.8,117.1L558.8,117.1z"/>
		<path d="M604,145.2c1.3-1.2,2.6-2.4,3.9-3.5c0,0.9,0,1.7,0,2.6C606.6,144.5,605.3,144.8,604,145.2L604,145.2z"/>
		<path d="M88.6,282c-0.5,0.8-1,1.7-1.6,2.4c-1,1.2-2.1,2.2-3,3.5c-0.8,1.3-1.4,2.7-2.3,4.4c-0.8-0.2-1.7-0.3-2.4-0.6
			c-3.8-1.7-7.5-3.5-11.3-5.3c-3.5-1.7-6.8-1-9.7,1.4c-2.6,2-4.7,4.6-6.2,7.8c0.7,1.5,2,2,3.1,2.7c7.7,4.8,15.4,9.6,23.1,14.4
			c3,1.9,5.9,3.9,8.8,5.9c1.4,1,2.7,1.1,4.1,0.1c1.5-1,3.1-1.9,4.2-3.2c3.3-3.6,6.3-7.3,9.4-11.1c0.6-0.7,1.2-1.5,1.6-2.4
			c3-6.7,7.6-12.2,11.1-18.5c0.3-0.5,0.6-1,1-1.4c4-4,7.2-8.9,11.2-12.8c2.2-2.1,3.9-4.7,5.4-7.4c0.8-1.5,1.9-2.8,2.8-4
			c1.4-0.2,2.7-0.4,4.1-0.7c0.2-0.8,0.4-1.4,0.6-2.1c0.1-0.6,0.2-1.1,0.4-2c1.3-0.8,2.8-1.7,4.3-2.7c0.7-0.5,1.3-1,1.8-1.6
			c5.1-5.9,10-12,14.5-18.5c1.8-2.7,3.4-5.5,5.4-8c2.8-3.4,5.5-7,8.8-9.9c0.8-0.7,1.7-1.4,2.3-2.4c1.8-2.9,4.5-4.9,6.5-7.5
			c0.2-0.2,0.5-0.3,0.5-0.3c2.9,2.7,5.7,5.3,8.5,7.9c2.7,2.5,5.6,4.9,8.3,7.4c6.6,6,13.1,12.2,20.1,17.7c3.7,2.9,7.2,6,10.6,9.1
			c1.8,1.6,3.7,2.3,5.9,1.6c3.5-1,7.1-0.8,10.6-0.8c5.3,0,10.6,0,15.8-1.3c0.8-0.2,1.6-0.1,2.4-0.1c1.3-0.1,2.7,0,4-0.2
			c5.4-1,10.8-0.6,16.2-0.9c4.4-0.2,8.7-0.7,13-1.2c1.7-0.2,3.4-0.5,5.3,0c1.6,3.4,2.6,7.1,3.9,10.8c1,2.8,1.9,5.7,2.9,8.5
			c1.8,5.1,7,9.3,12.9,8.8c5.7-0.5,11.3-1.1,17-1.4c3.8-0.2,7.7,0,11.5,0.1c5.2,0.2,10.3,0.4,15.5,0.7c4.6,0.2,9.2,0.5,13.8,0.7
			c1.5,0.1,2.9,0.1,4.4,0c5.8-0.2,11.6-0.4,17.4-0.6c2.4-0.1,4.8,0,7.1,0.1c5,0.2,10,0.6,15.1,0.7c3.2,0.1,6.3-0.1,9.5-0.3
			c7.5-0.3,15.1-0.8,22.6-1c3.8-0.1,7.7,0.2,11.5-0.1c4.4-0.3,8.7,0.4,13,0.3c4.4-0.1,8.7,0,13.1,0.2c2.5,0.1,5,0.3,7.5,0.5
			c3.1,0.3,6.1,0,9-1.1c0.5-0.2,0.9-0.5,1.4-0.8c0.6-0.4,0.5-1.6-0.2-1.8c-1.5-0.5-3.1-1-4.6-1.1c-6.9-0.1-13.6-2-20.4-3
			c-0.9-0.1-1.8-0.5-2.7-0.8c-0.2-0.8-0.4-1.5-0.5-2.2c-0.3-1.9,0.2-2.6,1.9-3.1c2.4-0.6,4.9-1.1,7.4-1.4c6.4-0.9,12.9-1.2,19.4-0.9
			c12.4,0.5,24.8-1.1,37.2-0.9c4.5-1,9.2-0.6,13.8-1.5c4.8-1,9.7-1.4,14.6-1.1c4.4,0.2,8.7,0,13-1.1c0.9-0.2,1.7-0.6,3.1-1
			c-1.1-0.5-1.6-1-2.2-1.1c-5.7-1.2-11.4-2.8-17.2-3c-1.3,0-2.6,0-4,0c-2.1,0-4.2-0.1-6.3-0.7c-1.5-0.4-3.2-0.2-4.7-0.5
			c-1.8-0.2-2.6-0.9-2.7-2c-0.1-1.5,1-2,1.9-2.5c2.5-1.5,5.2-2,8-2.1c3.3-0.2,6.6-0.2,9.9-0.4c0.9,0,1.8-0.2,2.7-0.3
			c0.1-1.3-0.8-1.1-1.3-1.3c-5-1.6-10.2-1.4-15.3-1.6c-1.2,0-2.4,0-3.6-0.1c-8.4-0.7-16.9-1.6-25.2-3.3c-0.3-0.1-0.5,0-0.8-0.1
			c-1.1-0.3-2-1-2.1-2.3c-0.2-1.2,0.2-2.3,1.2-3c1.9-1.3,3.9-2.5,6.2-2.6c4.1-0.3,8.2-0.4,12.3-0.7c5.3-0.4,10.6-0.5,15.7-2.1
			c1.2-0.4,2.7,0.1,3.7-1.4c-0.3-0.3-0.5-0.8-0.8-0.8c-1.2-0.2-2.3-0.6-3.5-0.5c-4.9,0.3-9.7,0.3-14.6-0.3
			c-3.9-0.5-7.9-0.1-11.9-0.4c-3.8-0.2-7.6-1-11.4-1.1c-5.6-0.3-10.9-2.4-16.2-3.9c-1.6-0.5-3-1.7-4.2-2.5c-0.3-1.7,0.5-2.3,1.3-2.8
			c3.2-2.2,6.6-3.6,10.4-3.7c3.6-0.1,7.1-0.2,10.7-0.3c1.2,0,2.4-0.2,3.6-0.2c3.2-0.2,6.3-0.5,9.5-0.7c1.2-0.1,2.4-0.2,3.5-0.4
			c0.6-0.1,1.2-0.4,2.4-0.8c-1-0.6-1.4-1.2-1.9-1.2c-5.3-0.3-10.6-0.7-15.8-0.9c-6.1-0.2-12.2-0.3-18.2-1.3c-0.5-0.1-1-0.4-1.6-0.6
			c-0.1-0.7-0.3-1.4-0.3-2.1c0.1-2.5,0.4-3.1,2.5-3.8c4.9-1.7,9.9-2.9,15.1-3.7c6.6-0.9,13.1-1.7,19.7-1.9c2.5-0.1,5-0.2,7.3-1.1
			c0.2-1-0.4-1.1-0.9-1.2c-4.5-0.6-8.9-1.4-13.4-1.8c-3.2-0.3-6.4-0.2-9.5,0.1c-5,0.5-10,0-15.1,0c-4.9,0-9.8,0.1-14.7,0.2
			c-5.8,0.1-11.6-0.3-16.9-3.3c-0.6-1.9,0.3-3.2,1.3-4.3c1.5-1.5,3.2-2.6,5.2-3c4.8-0.9,9.6-1.9,14.5-2.6c7.1-1,14.2-1,21.4-1.2
			c6.7-0.2,13.5-0.7,20.2-1.3c2.9-0.2,5.8-0.8,8.6-1.4c0.8-0.1,1.5-0.6,2.2-1c-0.5-1.8-1.7-2.2-3-2.6c-1.8-0.5-3.6-0.9-5.4-1.5
			c-1.7-0.6-2.1-2.1-1-3.7c1.4-2,3.3-2.8,5.5-3c1.4-0.1,2.9,0.1,4.4,0c7.9-0.2,15.9,0,23.8-1c2.4-0.3,4.7-0.7,7.1-1.1
			c1.6-0.3,3.1-0.6,4.7-0.9c0,0-0.1-0.1-0.1-0.1c-2.4,2-5.4,2.3-8.2,2.7c-3.9,0.6-7.9,0.7-11.9,0.9c-3.9,0.3-7.9,0.5-11.8,0.6
			c-2.4,0.1-4.8-0.1-7.1,0.1c-1.3,0.1-2.6,0.6-3.8,1.1c-0.5,0.2-0.8,1-1.4,1.7c0.9,0.5,1.4,0.9,2,1.1c1.8,0.6,3.6,1.1,5.4,1.5
			c1.4,0.3,2.4,1.1,3.3,2.3c0.8,1.1,0.8,2.2-0.2,3c-0.7,0.6-1.6,1.1-2.4,1.4c-3.7,1.1-7.5,1.8-11.3,1.9c-2,0.1-4,0.2-5.9,0.2
			c-6.5,0.3-13,0.4-19.4,0.9c-7.5,0.6-15.1,0.7-22.5,2.1c-3.3,0.6-6.5,1.1-9.5,2.8c-0.7,0.4-1.3,1.3-2,2c1.2,1.8,2.8,2.1,4.4,2.3
			c3.4,0.5,6.8,1,10.3,1.1c7.4,0.2,14.8,0.2,22.2,0.1c4.4-0.1,8.7-0.5,13.1-0.7c1.5-0.1,2.9-0.2,4.4-0.1c2.9,0.1,5.8,0.6,8.7,0.6
			c4.1-0.1,7.8,1.2,11.6,2.4c0.3,0.1,0.6,0.5,1,0.9c-0.4,0.5-0.7,1-1.1,1.3c-3.7,2.2-7.5,3.5-11.8,3.1c-0.4,0-0.8-0.2-1.2-0.1
			c-7,1.4-14.2,0.9-21.3,2.3c-3.5,0.7-7,1.5-10.5,2.5c-1.5,0.4-3.1,0.7-4.2,2.5c0.7,1.5,2,1.7,3.3,1.9c3.8,0.4,7.6,0.8,11.5,1
			c5.8,0.4,11.6,0.6,17.4,1.1c1.9,0.2,3.9,0.8,5.8,1.4c0.4,0.1,0.8,0.9,0.8,1.3c0,0.4-0.5,1.1-0.9,1.2c-1.7,0.5-3.4,0.9-5.1,1
			c-6.7,0.6-13.4,1.1-20.2,1.6c-2.2,0.2-4.5,0.1-6.7,0.2c-4.2,0.2-6,1-9.3,3.8c0.6,0.6,1,1.3,1.6,1.6c2.4,1.6,5.2,2.2,7.9,2.7
			c5.3,1,10.7,2,16.1,2.5c4.9,0.5,9.8,0.4,14.6,0.6c6.1,0.2,12.2,0.4,18.2,0.8c1.4,0.1,2.8,0.6,4.2,1.1c0.4,0.1,0.8,0.9,0.7,1.3
			c0,0.5-0.4,1-0.8,1.4c-0.1,0.2-0.4,0.3-0.7,0.4c-3.8,0.7-7.5,1.6-11.3,2.1c-3,0.4-6.1,0.2-9.1,0.4c-4.4,0.3-8.7,0.7-13,1.3
			c-1.4,0.2-2.7,0.9-4.1,1.6c-0.4,0.2-0.6,0.8-1.1,1.5c0.8,0.7,1.4,1.5,2.2,1.9c1.2,0.5,2.5,0.8,3.8,1c5,0.8,9.9,1.5,15,1.9
			c3.8,0.3,7.6,0.9,11.4,0.8c3.9-0.2,7.7,0.1,11.5,0.6c1.4,0.2,2.9,0.5,4.3,0.9c1.2,0.3,2.2,0.9,2.7,2.5c-0.5,0.4-0.9,1-1.5,1.1
			c-2.1,0.4-4.2,0.8-6.3,0.8c-4.4,0.1-8.7,0.2-13,1c-1.3,0.2-2.6,0.4-3.6,1.5c1.3,1.5,1.3,1.6,2.4,1.6c2.2,0.1,4.5,0.3,6.7,0.2
			c6.3-0.2,12.4,0.8,18.5,1.9c4.7,0.8,9.4,1.7,14,2.5c0.4,1.9,0.3,2.2-0.6,2.4c-3.9,0.9-7.5,2.6-11.5,2.9c-4.1,0.3-8.2,1.1-12.2,0.8
			c-4.5-0.2-9,0.3-13.4,0.9c-2.2,0.3-4.5,0.4-6.7,0.6c-3.2,0.3-6.3,0.6-9.5,0.8c-2.9,0.2-5.8,0.2-8.7,0.2
			c-11.6,0.1-23.2,1.2-34.9,0.9c-2.5-0.1-5,0.5-7.5,0.7c-2.6,0.2-5.3,0.4-7.9,0.7c-0.8,0.1-1.5,0.4-2.3,0.7c-0.3,0.1-0.6,0.7-0.6,1
			c0,0.3,0.4,0.8,0.7,0.9c1.5,0.4,3.1,0.8,4.6,1.1c2.7,0.6,5.4,1.2,8.2,1.7c2.3,0.4,4.7,0.7,7.1,0.8c3.7,0.1,7.4,0.8,10.9,2
			c0.8,0.3,1.5,0.9,2.5,1.6c-2.1,2.8-4.6,4.1-7.6,4.5c-5.1,0.7-10.3,0.6-15.4,0.4c-6.9-0.2-13.7-0.7-20.6-0.7c-7,0-14,0-21,0.1
			c-3.8,0-7.7,0.1-11.5,0.4c-3,0.2-6,0.6-9.1,1c-5,0.5-10,0.4-15.1,0.1c-6.1-0.3-12.2-0.6-18.2-0.6c-7.1,0-14.3,0.3-21.4,0.3
			c-6.7,0-13.5-0.4-20.2-0.6c-6.6-0.2-13.2-0.4-19.8-0.3c-4.9,0.1-9.7,0.6-14.6,1c-2.8,0.2-5.5-0.1-8.2-1c-3.3-1.2-5.7-3.5-7.5-6.7
			c-1.3-2.5-2.3-5.2-3.1-7.9c-1.3-4.1-2-8.4-4.4-12.1c-1.7-0.6-3.4-0.3-5.1-0.1c-2.4,0.2-4.7,0.7-7.1,0.9c-1.4,0.2-2.9,0.2-4.3,0.1
			c-4.1-0.2-8.1-0.7-12.2,0.2c-2.6,0.6-5.3,0.5-7.9,0.7c-6.2,0.5-12.4,1-18.6,1.5c-1.1,0.1-2.1,0.1-3.2,0c-2.7-0.4-5.3-0.2-7.8,1
			c-1.6,0.8-3.1,0.5-4.4-0.7c-5.6-4.8-11.3-9.6-17-14.3c-0.6-0.5-1.2-1.1-1.8-1.6c-6.2-5.4-12.5-10.7-18.4-16.5
			c-3-3-6.5-5.5-9.8-8.1c-1.4-1.1-2.3-1.2-3.6,0c-1.3,1.2-2.6,2.5-3.6,4c-1.6,2.2-3.4,4-5.3,5.8c-2.7,2.6-5.1,5.4-7.3,8.5
			c-4.5,6.4-9,12.9-13.8,19.1c-2.6,3.4-5.4,6.8-9,9.1c-1.9,1.2-1.8,1.4-3,5.5c-0.8,0.2-1.6,0.6-2.5,0.8c-2.2,0.5-3.9,1.7-5.2,3.7
			c-2.8,4.4-6.1,8.4-9.7,12c-1.6,1.6-3,3.3-4.5,4.9c-0.4,0.5-0.6,1.2-0.9,1.7c0.4,0.3,0.6,0.7,0.8,0.7c6-0.5,12.1-0.2,18.1-0.1
			c0.1-0.8,0.2-1.3,0.3-2c1.1-0.1,2.4-0.7,3.1-0.2c1.2,0.8,2.7,0.7,3.7,1.6c-0.4,1.3-1.3,1.2-2.1,1.3c-2.6,0.2-5.3,0.4-7.9,0.5
			c-3.4,0.1-6.9,0-10.3,0.2c-2.1,0.1-4.2,0.4-6.3,0.6c-2.3,0.3-3.1,2.4-4,4.6c3.5,1.3,7,1.8,10.6,1.9c2.8,0.1,5.6,0.1,8.3,0.3
			c4.6,0.3,9.1,0.8,13.7,1.7c-1.3,0.1-2.5,0.3-3.8,0.3c-3.3-0.1-6.6-0.3-9.9-0.5c-6.9-0.3-13.7-0.6-20.3-0.9c-2.9,2.4-2.9,2.4-4,5.5
			c16.2,1.4,32.4,1.3,49.3,2.8c-0.9,0.7-1.3,1.3-1.7,1.3c-3.2-0.1-6.3-0.3-9.5-0.4c-5.2-0.1-10.3-0.3-15.5-0.3
			c-1.2,0-2.3,0.2-3.4,0.4c-0.3,1.2,0.3,1.5,0.9,1.8c1.2,0.7,2.3,1.2,3.8,2c-0.5,0.8-0.9,1.7-1.5,1.9c-1.2,0.5-2.6,0.8-3.9,0.8
			c-2.2,0-4.5-0.2-6.7-0.3c-3.3-0.1-6.6-0.3-9.9-0.2c-1.4,0-2.9,0.5-4.3,0.7c-0.6,0.1-1.3,0-1.9,0c0-1.5,0.9-1.5,1.6-1.6
			c3.2-0.2,6.3-0.4,9.5-0.4c3.7,0,7.4,0.2,11.1,0.2c0.7,0,1.5-0.2,2.5-0.3c-0.4-0.7-0.6-1.1-0.9-1.3c-1.6-0.8-3.1-1.6-4.4-3
			c-0.6-0.6-1.6-1.1-2.5-1.2c-4.1-0.3-8.2-0.9-12.3-0.3c-1.7,0.2-2.9,0.9-3.8,2.6c-1,2-2.2,4-3.9,5.4c-0.5,0.4-1,1-1.3,1.7
			c-1.5,3.2-3.8,5.5-6.2,7.8c-1,1-2.1,1.8-3.2,2.5c-2.2,1.4-4.3,1.5-6.7-0.2c-7.3-5-14.7-9.8-22.1-14.5c-4.5-2.8-9.1-5.3-14-8.1
			c-0.4-1.1-0.4-2.3,0.5-3.7c1.1-1.6,1.7-3.6,3.6-4.5c0.3-0.2,0.6-0.6,0.8-0.9c2.1-3.8,5.7-4.4,9.3-5c1.6-0.3,3.1,0.1,4.6,0.9
			c1.5,0.9,3.2,1.4,4.7,2.2c2.4,1.2,4.8,2.4,7.2,3.6C82.4,286.7,84.8,284.1,88.6,282C88.7,282.1,88.6,282,88.6,282z"/>
		<path d="M278.5,146.2c0.3-0.2,0.6-0.5,1-0.7c0.6-0.3,1.3-0.6,1.1-1.5c-0.1-0.9-0.8-1-1.5-0.9c-7.7,0.2-15.3,0.4-23,0.6
			c-8.5,0.2-16.9,0.4-25.4,0.8c-4.5,0.2-9,0.6-13.5,0.9c-2,0.1-4,0.1-5.9,0.2c-2,0.1-3.9,0.3-6,0.4c-0.2-2.6-0.2-5.1,0.2-7.4
			c0.3-1.9,0.2-3.7,0.1-5.6c-0.1-2.6,0-5.2,0-7.8c0-1,0.3-2,0.3-3c0-6.1,0-12.2,0-18.2c0-3.5-0.4-5-2-8.2c0.4-1.2,1.3-0.8,2-0.8
			c9,0,18,0.1,27,0c5.3,0,10.6-0.4,15.8,0.3c1.2,0.1,2.3,0.4,3.4,0.5c0.1,1-0.1,1.3-0.8,1.2c-4.7-0.7-9.5-0.7-14.2-0.5
			c-4.6,0.2-9.2,0-13.9,0c-4.9,0-9.8,0.1-14.7,0.2c-0.4,0-0.8,0.2-1.4,0.4c0,3.5,0,7.1-0.1,10.6c-0.1,3.5-0.2,6.9,0.1,10.7
			c3.5,0.6,6.7-0.9,9.9-0.9c3.3,0,6.6-0.1,9.9-0.1c3.3,0,6.6-0.2,9.9-0.1c3.2,0.1,6.5-0.5,9.7,0.9c-0.6,0.1-1.3,0.2-1.9,0.2
			c-6.6,0.1-13.2,0.1-19.8,0.3c-4.1,0.1-8.2,0.4-12.3,0.8c-1.8,0.1-3.6,0.7-5.4,1.6c-0.1,0.9-0.4,1.8-0.3,2.6c0,6.5-0.2,13,0,19.2
			c1,1.3,2.1,1.2,3.2,1.2c7.4-0.3,14.8,0,22.2-0.8c3.7-0.4,7.4-0.3,11.1-0.5c9.8-0.3,19.5-1,29.3-0.9c2.1,0,4.2,0,6.3-0.1
			c1.9-0.1,2.5-0.7,2.5-2.6c0.1-6.8,0.1-13.6-0.1-20.4c0-2-0.6-3.9-0.5-6c0.1-8.7-0.5-17.4-1.3-26c-0.1-1.4-0.4-2.8-0.6-4.3
			c-1.9-1-3.7-0.6-5.5-0.2c-2.6,0.6-5.2,0.8-7.9,0.8c-4.1,0.1-8.2,0.6-12.3,0.9c-5.1,0.3-10.3,0.8-15.4,0.8c-7.5,0-15,0.3-22.5,1.4
			c-3.3,0.5-6.6,0.8-9.9,1c-0.6,0-1.1-0.5-1.7-0.8l-0.1,0.1c0.7-0.3,1.4-0.8,2.2-0.9c2.5-0.3,5-0.5,7.5-0.7c0.9-0.1,1.9,0,2.8-0.1
			c5.4-0.9,10.8-0.7,16.2-0.8c4,0,7.9-0.3,11.9-0.8c6.1-0.7,12.1-0.9,18.2-1.2c5.1-0.2,10.2-1.1,15.4-1.8c0.2,0,0.4-0.3,0.9-0.6
			c0-0.6,0.2-1.5,0.1-2.3c-1-11.8-4.1-23-8.9-33.6c-2.3-4.9-4.3-9.9-6.3-15c-0.4-1.1-1-2-1.6-3c-0.7-1.3-1.6-2.3-3.4-1.8
			c0.5-1.4,0.8-2.5,1.3-3.9c1.1,1,1.9,2.2,2.9,2.5c1.6,0.5,3.4,0.4,5.1,0.5c2.6,0.1,5.3,0,7.9,0c0.5,0,1.1-0.2,1.5,0.7
			c-4.5,0.2-9-0.5-13.7,0.3c0.3,1.1,0.4,2,0.7,2.9c2.5,7.2,5.7,14,8.6,21c3.4,8.1,5.6,16.5,6.3,25.4c0.2,2,0.6,4,0.9,6.2
			c1.5,0,2.9,0,4.4,0c1.4,0,2.9-0.1,4.6-0.2c-0.4-4.8-1.5-9.2-2.9-13.6c-1.4-4.5-2.6-9.1-4.2-13.6c-1.5-4.3-3.4-8.4-5.2-12.7
			c0.8-0.7,1.2,0,1.5,0.6c1.4,3.1,2.8,6.3,3.9,9.5c1.7,4.7,3.2,9.5,4.6,14.3c1.2,4.1,2.1,8.4,3.2,12.6c0.2,0.8,0.5,1.6,0.7,2.6
			c0.9,0.1,1.8,0.4,2.7,0.4c2.8-0.1,5.5-0.4,8.3-0.6c2.6-0.2,5.3-0.5,7.9-0.7c0.2,0,0.5,0.2,1,0.5c-0.6,0.3-1,0.7-1.3,0.7
			c-4.9,0.4-9.8,0.6-14.6,1c-1.1,0.1-2.3,0.4-3.5,0.7c0.8,10.9,3,21.4,3.9,32.2c3.2,0.8,6.3,0.5,9.4-0.2c0.5-0.1,1-0.9,1.2-1.5
			c0.2-0.8,0.3-1.7,0.2-2.6c-0.7-5.1-0.6-10.4-2.8-15.3c-0.1-0.2,0.1-0.5,0.2-1.1c0.5,0.6,1,1,1.2,1.5c1.4,3.7,2,7.5,2.2,11.4
			c0.1,2.1-0.2,4.3,0.3,6.3c1.3,1.3,2.7,0.8,3.9,0.6c5.1-0.6,10.2-1.2,15.4-1.8c1.8-0.2,3.7-0.4,5.5-0.5c10.7-0.5,21.4-1.3,32.1-1.3
			c7,0,14-0.2,21,0c4.5,0.1,9-0.4,13.5-0.6c4.8-0.1,9.5-0.1,14.3-0.1c0.5,0,1,0.2,1.8,0.3c-0.6,1.4-1.6,1.5-2.6,1.5
			c-4.4,0-8.7,0-13.1,0c-4.8,0.1-9.5,0-14.3,0.3c-4.1,0.2-8.2,0.2-12.3-0.1c-5.3-0.4-10.6-0.3-15.9-0.2c-7.4,0-14.8,0.8-22.1,1.2
			c-7.1,0.4-14.2,1.3-21.3,2.1c-2,0.2-3.9,0.5-5.8,1.3c-0.8,2.2-0.4,4.7-1.6,7c-0.6-2.4,0.3-4.6-0.7-6.8c-3.1-0.4-6.2,0-9.4,0.6
			c-1,2.9-0.4,5.8-0.5,8.7c-0.2,2.8-0.1,5.5-0.3,8.3c-0.2,2.9-0.8,5.7-0.5,8.6c1.2,1.1,2.6,0.6,3.9,0.6c2.8-0.1,5.5-0.1,8.3-0.1
			c0.7,0,1.3,0.3,1.7,1.3c-2.6,0.1-4.9,0.3-7.3,0.2c-2.4-0.1-4.7,0.2-7.2,0.8c-1,3.8-1.3,7.7-1.8,11.8c0.9,0.2,1.7,0.5,2.4,0.4
			c12.6-1.7,25.3-2.2,38-2.6c8.7-0.3,17.4-0.9,26.1-1.4c0.8,0,1.5,0,2.4,0.5c-1,0.3-1.9,0.7-2.9,0.8c-4.7,0.4-9.5,0.7-14.2,1
			c-9.6,0.5-19.3,0.9-28.9,1.5c-5.5,0.3-11.1,0.8-16.6,1.2c-2.1,0.2-4.2,0.6-5.9,0.8c-1.3,1.4-1.5,2.9-1.8,4.3
			c-0.7,2.9-1.3,5.9-2.1,8.8c-0.2,0.9-0.3,2.1-1.4,2.5l0.1,0.1c0.1-3.7,1.6-7,2.1-10.6c0.2-1.4,0.6-2.8,0.9-4.4
			c-0.9-0.1-1.6-0.3-2.2-0.2c-1.8,0.1-3.7,0.1-5.5,0.5c-2,0.4-4,0.8-6,0.8c-2.2,0-4.5,0.4-6.7,0.7c-2.1,0.2-4.2,0.4-6.3,0.7
			c-2.1,0.3-4.2,0.9-6.3,1.1c-6.1,0.5-12,1.9-18.1,2.2c-7.8,0.4-15.5,2-23.2,3.4c-0.4,0.1-0.7,0.3-1,0.5c0,0.3-0.2,0.7-0.1,0.9
			c2.5,5.7,4.9,11.5,9.2,16.1c1.5,1.6,2.6,3.6,3.9,5.5c1.5,2.3,3.3,3.6,6,3.3c3-0.4,6.1-0.3,9.1-0.5c5.8-0.4,11.6-0.8,17.4-1.2
			c0.7,0,1.3,0,2.2,0c-2,1.2-2.1,1.3-4.6,1.5c-7.9,0.6-15.8,1.3-23.7,1.9c-0.5,0-1,0.2-1.4,0.3c0,0.5-0.1,0.8,0.1,1
			c0.5,0.8,1,1.7,1.6,2.5c3.1,4.2,6.1,8.3,9.1,12.2c3.7,0.3,7.1,0.3,10.5,0.8c7,0.9,14,0.7,21,0c3.6-0.4,7.1-0.8,10.7-1.1
			c0.8-0.1,1.5,0,2.3,0c-0.2,1.2-0.8,1.4-1.5,1.5c-8.3,0.9-16.5,2.3-24.9,1.8c-4.1-0.2-8.2-0.6-12.3-0.8c-2-0.1-4,0-6,0
			c-2.3-1.9-3.9-4.6-5.7-7.1c-2.7-3.7-5.5-7.4-8.5-10.9c-0.9-1-1.6-2.3-2.4-3.4c-2-2.7-3.9-5.4-5.9-8.1c-2.1-2.8-3.7-6-5.1-9.3
			c-2.4-5.3-5-10.6-8.8-14.9c-1.1-1.3-2.2-2.5-3.4-3.6c-3-2.8-5-6.4-6.5-10.2c-0.1-0.3,0-0.8,0-2c0.5,0.9,0.8,1.2,0.9,1.6
			c2,4.3,5,7.8,8.1,11.2c1.8,1.9,3.6,3.9,5.1,6.1c1.3,1.8,2.8,2.5,4.8,2.3c3.2-0.4,6.3-0.6,9.4-1.2c5.4-1,10.7-1.8,16.1-1.8
			c2.6,0,5.2-0.7,7.9-1.1c6.3-1,12.6-1.8,18.9-2.4c3.7-0.3,7.4-0.6,11.1-1.9c0.3-0.9,0.7-1.9,0.9-2.8c0.3-1.7,0.4-3.4,0.6-5.2
			C280.7,146.6,280.5,146.4,278.5,146.2C278.5,146.1,278.5,146.2,278.5,146.2z M280.8,81.9c-0.1,1.3-0.2,2.3-0.1,3.3
			c0.3,5.1,0.6,10.1,0.9,15.2c0.2,3.6,0.4,7.2,0.6,10.9c0.1,0.8,0.3,1.6,0.5,2.6c3.7-0.3,7.2,0.3,10.6-0.6c0.2-0.6,0.4-1,0.4-1.4
			c-0.3-3.5-0.6-6.9-1-10.4c-0.2-2-0.9-4-0.9-6c0-4.4-1.4-8.5-1.9-12.9c-0.1-0.5-0.4-1-0.7-1.7C286.6,80.5,283.9,80.9,280.8,81.9z
			 M282.6,140.5c3.4,1.6,6.6,0.3,10,0.4c0.3-1.5,0.6-2.7,0.7-4c0.3-4.2,0.6-8.4,0.8-12.6c0.1-2.3,0.1-4.6,0-6.9
			c0-0.8-0.4-1.6-0.7-2.4c-3.7-0.4-7.2-0.1-10.8,1.3c0,6.9,0,13.6,0,20.4C282.5,137.9,282.6,139.2,282.6,140.5z M280.8,156.2
			c3.5,0.6,6.5-0.2,9.3-0.8c1.7-3.9,2.3-8.6,1.7-12.5c-3-0.4-6.1-0.8-9.3,0.3C281.8,147.4,280.4,151.5,280.8,156.2z"/>
		<path d="M463.6,32.1c1.2-1.1,2.7-1,4.2-1c2.2-0.1,4.3-0.5,6.6-1.1c-0.7-1.3-1.7-1.2-2.6-1.4c-7.1-1-14.2-1.8-21.3-1.8
			c-7.9-0.1-15.9-0.1-23.8-0.1c-0.7,0-1.3,0-2,0.1c-9.4,1.4-18.8,0.4-28.1,0.6c-3.4,0.1-6.9-0.3-10.3-0.6c-0.9-0.1-1.9-0.2-2.1-1.5
			c-0.2-1.1,0.4-2,1.9-2.3c1.9-0.4,3.9-0.6,5.9-0.9c6.1-1.2,12.3-1.9,18.5-2.4c3.5-0.3,7.1-1.1,10.6-1.7c0.3-0.1,0.6-0.3,1.3-0.7
			c-2.3-0.9-4.2-0.9-6.2-0.8c-5.1,0.1-10.3,0.1-15.4,0.2c-0.4,0-0.8-0.1-1.2-0.2c-4.9-1.2-10-1.1-15-1c-2.9,0.1-5.8-0.4-8.7,0.6
			c-0.4,0.1-0.8,0-1.2-0.1c-4.6-1.1-9.2-0.5-13.8-0.7c-4.5-0.2-9-0.3-13.4-0.8c-6.8-0.7-13.7-0.7-20.6-1c-3-0.1-6.1-0.5-9.1-0.6
			c-7.5-0.3-15-0.7-22.6-0.2c-7.6,0.5-15.3,0.2-23,0.3c-0.5,0-1.1,0-1.6,0c-2.7,0.1-5.4,0.7-8.2-0.2c-2.2-0.7-4.7-0.2-7.1-0.2
			c-5.8,0.1-11.6,0.4-17.4,0.3c-8.2-0.2-16.4-0.2-24.6,0.4c-2.2,0.2-4.5,0.2-6.7,0.3c-1.3,0.1-2.7,0-4,0.2c-5.5,0.9-11,1.6-16.5,1.8
			c-2.8,0.1-5.5,0.5-8.3,0.4c-8-0.1-15.8,0.7-23.7,1.9c-2.6,0.4-5.2,1.1-8,1.7c-0.7-1.5-0.9-3.5-2.5-4.2c-1.8-0.8-3.7-1.5-5.6-2.1
			c-0.5-0.2-1-0.2-1.6-0.2c-1.7-0.1-3-0.9-4-2.4c-1.7-2.5-3.1-3.1-5.3-1.4c-2.6,2.1-5,2.1-7.8,0.9c-1.3-0.6-2.9-0.7-4.2-1.2
			c-3.9-1.5-7.9-0.9-11.8-0.6c-2.3,0.2-4.3,1.5-6,3.2c-1.7,1.7-2.2,3.9-2,6.3c0.2,1.6,0.3,3.1,0.5,4.8c-1.7,0.6-3.1,1.2-4.5,1.7
			c0,1.1,0.7,0.8,1.1,0.8c2.2-0.2,4.5-0.4,6.7-0.6c1.5-0.1,2.5,0.7,2.4,2.2c-0.5,4.9,0.9,9.5,2,14.2c-1.3,2.1-2.6,4.3-3.8,6.3
			c0.5,2,1.9,2.5,3.1,2.9c3.2,1.1,4.6,3.6,5.1,7c0.1,1,0.3,2,0.5,3c0.5,2.1,1.2,2.8,3.1,2.2c3.2-1,6.5-1,9.8-1.2
			c2.2-0.1,3.9,0.8,4.8,3.1c0.8,2.1,1.7,4.3,2.3,6.5c0.3,1.2,0.3,2.6,0.1,3.8c-0.4,2.6-1.2,5.1-1.5,7.6c-0.2,1.4-0.7,2.5-1.6,3.3
			c-1.5,1.2-3.1,2.3-4.7,3.3c-1.7,1.1-3.5,2-5.3,2.9c-4.1,2.1-7.9,4.7-11.4,7.8c-0.5,0.4-1.1,0.8-1.7,1.1c-5,2.8-9.6,6.1-14.4,9.2
			c-2.6,1.7-5.4,3.1-8.2,4.4c-0.9,0.4-2,0.1-2.7,0.1c-1.4,0.9-0.6,3.2-2.6,3.4c-0.6-2.4,0.8-4.2,1-6.4c0.8,0,1.3-0.2,1.8-0.1
			c1.9,0.4,3.7-0.1,5.3-1.1c3.1-1.9,6.2-3.9,9.3-5.8c2.1-1.3,4.2-2.5,6.3-3.8c2.3-1.5,4.5-3,6.7-4.6c2.6-2,5.3-3.8,8.1-5.4
			c4.1-2.3,8.1-5,12.1-7.5c0.1-1.7-0.1-3.3,0.3-4.8c1.3-4.2-0.4-8-1.3-11.9c-0.2-1-1.1-1.6-2.2-1.5c-1.8,0.2-3.7,0.4-5.5,0.6
			c-0.9,0.1-1.8,0.5-2.7,0.7c-3.9,0.9-5.6-0.1-7-4.2c-0.5-1.5-0.9-3-1.4-4.5c-0.3-1.1-0.7-2.2-1.2-3.2c-0.7-1.6-1.8-2.7-3.4-3.4
			c-4.1-1.7-4.2-2.3-1.8-6.1c0.3-0.5,0.6-1,0.9-1.4c1.2-1.6,1.4-3.3,0.9-5.3c-0.6-2.2-0.9-4.5-1.5-6.8c-0.6-2.5-0.9-2.8-3.3-2.9
			c-2.1-0.1-4.2-0.1-6.3-0.3c-1.7-0.1-3.4-0.6-4.8-1.9c-1-1-0.8-2.3,0.4-2.7c0.7-0.3,1.5-0.4,2.3-0.6c1.9-0.5,3.8-1.1,5.9-1.7
			c-0.1-2-0.2-3.8-0.3-5.6c-0.2-2.4,0.7-4.2,2.4-5.6c2.3-1.9,4.7-3.1,7.5-3.5c6.1-0.7,12.1-0.4,18,1.6c1.1,0.4,2,0.3,3.1-0.3
			c0.9-0.5,2-0.8,3-1.2c2.5-1,4.8-0.6,6.3,1.9c0.9,1.5,2.1,2.1,3.6,2.3c4,0.4,7.4,2.2,10.1,5.9c2.8-0.3,5.6-0.8,8.5-1
			c5.1-0.5,10.3-1,15.4-1.3c8.6-0.6,17.2-0.9,25.7-1.8c8.2-0.9,16.4-1.3,24.5-1.6c5.6-0.2,11.1,0,16.7,0c17.9,0,35.7,0.1,53.6,0
			c3,0,6.1-0.6,9.1-0.5c7.9,0.3,15.9,0.7,23.8,1.1c4.5,0.2,9,0.4,13.5,0.5c4.1,0.1,8.2,0.3,12.3,1c1.2,0.2,2.4,0.3,3.5,0.3
			c10.1,0,20.1,0,30.2,0c4.5,0,9,0.1,13.5,0.1c0.9,0,1.9-0.1,2.8,0.1c6.4,1.7,12.8,1.4,19.3,1.2c3.4-0.1,6.8,0.4,10.2,0.7
			c0.3,1.5-0.7,1.8-1.6,2c-3.2,0.7-6.5,1.5-9.7,2c-5.5,0.8-11,1.3-16.5,2.1c-4.2,0.6-8.3,1.5-13.3,2.5c2,1.1,3.3,1.2,4.7,1.2
			c9.1,0.1,18.2,0.3,27.3,0.2c4.2,0,8.4-0.6,12.7-0.6c5.7,0,11.4,0.2,17.1,0.4c2.4,0.1,4.8,0.1,7.1,0.3c2.9,0.2,5.8,0.5,8.7,0.8
			c3.7,0.3,7.4,0.5,11.3,0.8c0.1,1,0.2,2.1,0.3,3.4C473,32.1,468.3,31.9,463.6,32.1C463.6,32,463.6,32.1,463.6,32.1z"/>
		<path d="M158.8,177.2c-1.4-3.2-2.9-6.4-4.4-9.6c-0.4-0.8-0.6-1.8-1.2-2.2c-2.4-1.6-2.6-4.5-3.7-6.7c0.4-1,0.7-1.8,1.1-2.8
			c-0.8-0.7-1.4-1.5-2.2-1.9c-2-0.8-2.8-2.5-3.5-4.4c-0.8-2.3-1.5-4.6-2.3-7c-1.6-4.9-3-9.9-5.4-14.5c-0.5-1-0.8-2.1-1.2-3.2
			c-1.1-3.6-2-7.2-3.1-10.8c-0.4-1.4-1.3-1.8-2.4-1.1c-1.4,0.8-2.7,1.7-4.1,2.5c-2.3,1.4-4.8,2.5-6.9,4.2c-2.7,2.1-5.8,3.4-8.8,4.9
			c-1.2,0.6-2.4,1.1-3.6,1.8c-6.1,3.5-12.1,7.1-18.2,10.6c-1,0.6-2.1,1.1-3.3,1.4c-3.4,1.1-6.8,2.1-10.2,3.2
			c-6.6,2.2-13.1,4.5-19.7,6.6c-3,1-6.1,1.7-9.3,2.6c-0.3-0.5-0.7-0.9-0.8-1.4c-0.4-1.5-0.9-3-1.2-4.6c-0.5-3.4-0.9-6.9-1.4-10.3
			c-0.4-2.8,0-3.5,2.6-4.4c1.9-0.7,3.8-1.3,5.7-2c4.8-1.7,9.6-3.2,14.3-5.1c2.3-0.9,4.5-2.3,6.7-3.6c0.6-0.4,1.3-1,0.9-2.1
			c-1.2-0.7-2,0.4-2.9,0.9c-3.2,1.8-6.2,3.8-9.9,4.3c-1.3,0.2-2.5,0.8-3.7,1.5c-3.1,1.8-6.5,2.4-9.8,3.5c-2.9,1-5.9,1.6-8.8,2.6
			c-1.9,0.7-3.8,1.1-5.8,0.9c-2.2-0.2-4.2,0.2-5.3,1.8c-1.8,0-3.1-0.3-4.3,0.1c-1.8,0.5-3.5,1.3-5.2,2c-1.7,0.6-3.5,1.2-5.1,1.7
			c0.1,2,0.3,4,0.6,6c0.1,0.2,0.2,0.5,0.2,0.8c0.4,1.8,0.6,3.6,1,5.4c1.3,5.4,3.2,10.5,5.5,15.5c3.2,0.5,6.1-0.6,8.9-1.9
			c1.3-0.6,2.6-1.5,4.1-1.4c0.3,0.3,0.7,0.5,0.9,0.9c1.1,2,2.7,2,4.5,1.3c2.6-1,5-2.5,7.5-3.9c2.3-1.4,2.4-1.3,1.9-4.4
			c-0.1-0.5-0.2-1.1-0.3-1.9c1.9-0.7,3.6-1.5,5.3-2.1c6.6-2.1,13.2-4.2,19.8-6.3c2.3-0.7,4.4-1.9,6.9-1.5c0.6,0.1,1.3-0.3,1.9-0.5
			c2-0.7,4-1.4,6-2.2c1.4-0.5,2.8-1.1,3.9-2c3.4-2.5,7-4.6,10.8-6.4c1.4-0.7,2.8-1.7,4.2-2.5c0.7-0.4,1.4-0.9,2.1-1.1
			c5.1-2,9.8-5,14.5-7.9c1.9-1.2,3.9-2.5,5.8-3.7c0.9-0.6,1.8-1.2,3-0.6c0.2,0.4,0.4,0.7,0.6,1.1c1.7,5.3,3.3,10.7,5.8,15.7
			c0.7,1.4,1.3,2.9,1.6,4.4c0.9,4.4,2.5,8.5,3.9,12.8c0.8,2.5,1.7,4.9,4.2,5.6c-0.1,1.3-0.4,2.4-0.1,3.2c1,2.5,1.9,5.1,3.6,7.2
			c0.8,1,1.5,2,2.1,3.1c1.5,2.9,2.8,5.9,4.3,8.9c-0.7,1.5-1.3,3-2,4.3c-4.9,8.6-9.8,17.2-15.6,25.1c-2.1,2.9-4.2,6-6.3,8.9
			c-2.3,3.1-4.7,6.2-7.2,9.3c-1.3,1.6-2.8,3.1-4.7,3.8c-1.2,0.5-2,1.3-2.6,2.5c-1.5,2.9-3.1,5.7-4.4,8.7c-0.7,1.7-1.6,3.3-2.7,4.8
			c-0.6,0.9-1.5,1.6-1.4,2.9c2.6-2.3,4.7-5,6.2-8.2c2-4.1,4.5-7.8,8-10.6c1.7-1.4,3.2-3.1,4.5-4.9c6.2-8.5,12.3-17.1,18.3-25.7
			c1.5-2.2,2.8-4.6,4.1-6.9c2.4-4.3,4.8-8.6,8.1-12.4C159.1,179.1,159.1,178,158.8,177.2z M22.2,162.2c-3.6-2.8-5.2-6.7-5.9-11.3
			c-0.3-2-0.9-3.9-1.2-5.9c-0.9-5.9-0.1-7.4,5.6-8.5c1.5-0.3,3.1-0.1,4.7,0.1c1,0.1,1.7,0.9,1.8,2.1c0.4,6.3,3.2,11.9,3.6,18.8
			C28.4,159.9,25.4,161.2,22.2,162.2z M42.8,158.6c-0.9,1.2-2.2,2-3.9,2.1c-0.2,0.1-0.4,0.2-0.6,0.2c-2.1,0.8-2.7,0.6-3.4-0.5
			c-0.1-0.2-0.7-1.1-0.8-1.3c-0.5-1.3-1-1.7-1.2-3.2c-0.1-0.2-0.2-1.1-0.3-1.4c0,0,0,0,0,0c0-0.1,0-0.2-0.1-0.4
			c-0.1-0.3-0.2-0.7-0.2-1c-1.3-5.6-3.9-10.8-3.2-17c3.4-1.8,6.9-2.7,10.9-3.3c1.4,5,1.5,10,2.4,14.7c0.5,0.8,0.8,1.8,1,2.8
			c0.5,1.1,0.6,1.4,1,2.6c0.3,0.8,0.3,1,0.4,1.2c0.4,1,0.4,1.6,0.8,2.5C44.6,157.3,43.7,158,42.8,158.6z"/>
		<path d="M558.9,117.1c-3.4-0.2-6.8-0.3-10.2-0.5c-0.4,0-0.8-0.2-1.2-0.2c-6.1,0-12.1-1.1-18.2-0.5c-2.1,0.2-4.2,0.2-6.3,0.1
			c-6.1-0.3-12.1,0.2-18.2,0.4c-4.4,0.1-8.7,0.6-13,0.9c-2,0.1-3.9,0.2-5.9-0.5c-1.5-0.5-3.2-0.3-4.7-0.7c-1.5-0.3-3.1-0.8-4.5-1.5
			c-1.5-0.8-1.6-2.8-0.3-4c1.5-1.4,3.2-2.7,5.2-3c4.5-0.6,8.9-1.4,13.4-1.6c5.8-0.2,11.6-1.2,17.3-2.1c0.3,0,0.6-0.5,0.9-0.8
			c-0.2-0.4-0.4-0.9-0.7-1.1c-2.9-1.7-6-2.9-9.4-3.2c-4.9-0.4-9.7-0.9-14.6-1.2c-3.2-0.2-6.3-0.4-9.5-0.4c-4.1,0-8.2,0.2-12.3,0.3
			c-6.1,0.1-12.1,0.3-18.2,0.3c-4,0-7.9-0.3-11.9-0.5c-2.8-0.2-5.5-0.4-8.1,0.3c-1.1,1-0.9,2.2-0.8,3.4c0.9,10.7,0.4,21.4,0.5,32.2
			c0.1,6.4,0.4,12.8-0.7,19.1c-0.1,0.6,0,1.2,0,1.7c-0.2,2.9-0.4,5.8-0.6,8.6c-0.1,1,0,2,0,3.2c1.1,0.2,1.9,0.6,2.8,0.6
			c3.9-0.1,7.9,0.4,11.8-1.1c1-0.4,2-0.4,2.8,0.8c-0.6,1.1-1.6,0.9-2.5,0.9c-3.8,0.1-7.7,0.3-11.5,0.1c-2.5-0.1-4.1,0.6-4.6,3.8
			c-0.5-1.4-0.6-2.6-1.2-3.2c-0.6-0.6-1.7-0.6-2.6-0.6c-4.5,0-8.9,0-13.4,0.1l0,0.1c1.1-1.1,2.4-1,3.7-1c2.9,0,5.8,0.1,8.7,0.1
			c4.5,0.1,4.5,0,5.2-4.9c0.5-3.7,0.7-7.5,0.7-11.3c0-2.5,0.4-4.9,0.5-7.4c0.1-4.9,0.3-9.9,0.2-14.8c-0.1-5.2-0.5-10.4-0.7-15.6
			c-0.1-3.8-0.1-7.5-0.2-11.3c0-1-0.3-2-0.4-2.9c-2-0.8-3.8,0.1-5.6,0.1c-0.9,1.6-0.8,3.2-0.8,4.7c-0.1,8-0.3,16-0.4,23.9
			c0,1.4-0.1,2.8-0.3,4.3c-0.5-11-0.2-22-0.4-33.1c-2.3-0.3-4.4-0.5-6.5-0.9c-2.1-0.4-4.1-1.3-6.2-1.4c-3.5-0.2-6.8-1.2-10.1-2.2
			c-2.6-0.7-5.1-1.4-7.7-2.1c-0.6-0.2-1.3-0.4-1.9-0.7c-0.5-0.2-0.9-0.6-1.4-1c0.8-2.2,2.5-3.1,4.2-3.7c3.2-1.2,6.4-1.6,9.7-1.8
			c4.8-0.3,9.5-0.5,14.3-0.8c1.2-0.1,2.4-0.3,3.5-0.6c1.3-0.3,1.8-1,1.8-2.4c0-0.7,0-1.5-0.2-2.2c-1.5-8.1-3.1-16.2-4.7-24.2
			c-0.1-0.3-0.3-0.5-0.5-1c-3.1-0.5-6.4,0.7-9.9-0.5c1-0.7,1.9-0.4,2.7-0.5c1-0.1,2.1-0.3,3.1-0.5c0.9-0.2,1.8-0.4,2.5-0.6
			c0.9-1.9-1.5-2.9-0.5-4.7c1.5,0.2,2.2,1.5,2.6,2.8c0.4,1.4,1.6,1.4,2.4,1.9c0.7,1.4-1.6,1.9-0.8,3.5c0.5,1,0.4,2.3,0.6,3.4
			c1.7,7.3,3.2,14.7,3.7,22.2c0,0.6,0.2,1.1,0.3,1.6c1.5,1,2.8,0.7,4.5,0.2c0.3-3.2-0.5-6.3-0.8-9.4c-0.2-3-1.5-5.7-1.5-8.8
			c2.1,2.5,2.3,5.7,2.8,8.6c0.5,3,0.6,6,1.3,9c3.2,0.8,6.2,0.1,9.2,0.1c3,0.1,6,0,9.1,0.4c-5.8,0.5-11.6,1-17.5,1.5
			c-0.9,4,0.6,7.6,0.5,11.5c0.9,0.2,1.6,0.4,2.4,0.4c6.1,0.1,12.2-0.1,18.3,0.2c11,0.5,21.9-0.3,32.9-0.1c3.8,0,7.6,0.6,11.5,1
			c3,0.3,6.1,0.6,9.1,0.8c3.6,0.2,7.1,1,10.4,2.6c1.1,0.5,2.1,1.3,2.9,2.1c0.7,0.7,0.4,2.1-0.4,2.6c-0.5,0.3-1,0.5-1.5,0.6
			c-6.3,0.8-12.6,1.9-18.9,2.1c-3.9,0.2-7.9,0.8-11.8,1.6c-1.9,0.3-3.9,0.8-5.1,3.1c1,1.8,2.7,2.4,4.4,2.6c3.3,0.4,6.6,0.7,9.9,0.9
			c0.9,0.1,1.9,0.2,2.8,0c5.5-1.2,11.1-0.6,16.6-0.7c1.3,0,2.6-0.2,4-0.3c1.3-0.1,2.6-0.2,4-0.2c6.6,0.1,13.2,0.3,19.8,0.5
			c3.7,0.1,7.4,0.2,11.1,0.3C553,115.2,556.1,115.4,558.9,117.1C558.8,117.1,558.9,117.1,558.9,117.1z M418.6,85
			c-0.8-0.1-1.3-0.4-1.8-0.3c-6.6,0.4-13.1,0.8-19.7,1.3c-1.8,0.1-3.7,0.5-5.5,0.9c-1.1,0.3-2.3,0.6-3,2.1c0.6,0.3,1.1,0.8,1.7,1
			c7.3,2.5,14.9,3.8,22.4,5.3c1.9,0.4,3.9,0.3,6-0.2C419,91.7,419,88.6,418.6,85z M420.4,84.7c-0.6,3.8-0.4,8.2,0.6,11.2
			c1.8,0,3.6,0.1,5.6-0.9c-0.3-3.7-0.3-7.4-1.5-11C423.3,83.8,421.7,83.8,420.4,84.7z"/>
		<path d="M554.7,45.8c-4.4-0.7-8.9-1.5-13.3-2.1c-6-0.8-12.1-1.4-18.1-2.1c-0.7-0.1-1.3,0-2,0c-0.7,0-1.3,0.2-2,0.2
			c-6.7,0-13.5-0.1-20.2-0.1c-1.3,0-2.6,0.2-3.9,0.2c-8.9,0-17.7-0.1-26.6,0.2c-8.9,0.3-17.7-0.4-26.6-0.7
			c-8.4-0.3-16.9-1.1-25.3-1.6c-0.5,0-1-0.2-1.4-0.3c-0.3-1.6,0.7-2,1.5-2.3c4.5-2,9-4.1,14-4.3c2.9-0.1,5.8-0.3,8.7-0.4
			c0.1,0,0.3-0.1,0.4,0c6.2,1.5,12.4-0.4,18.6-0.5c1.7,0,3.4,0.1,5.1,0.2c0,0-0.1-0.1-0.1,0c-4.7,0.5-9.5,1.1-14.2,1.3
			c-4.1,0.2-8.2-0.2-12.3,0.2c-5.5,0.5-11.1,0.8-16.3,3.3c-0.5,0.2-1,0.4-1.4,0.7c-0.1,0.1-0.2,0.2-0.2,0.4c0,0.8,0.6,0.9,1.1,0.9
			c3.7,0.2,7.4,0.3,11.1,0.5c4.4,0.2,8.7,0.5,13.1,0.8c3.3,0.2,6.6,0.4,9.9,0.4c8.7,0,17.5-0.2,26.2-0.2c8.1,0,16.1,0.2,24.2,0.2
			c7,0.1,14-0.1,21,0.3c5.3,0.3,10.5,1.2,15.7,1.8c2.2,0.3,4.5,0.5,6.7,0.7C550.5,43.7,552.8,43.9,554.7,45.8L554.7,45.8z"/>
		<path d="M203.8,85.8c-0.4,0-0.9,0.2-1.1,0c-1.6-1.6-3.7-2.2-5.6-3.1c-6.8-3.2-13.6-6.2-20.1-10.2c-3.9-2.4-8.1-4.1-12.4-6.2
			c-0.3-0.7,0.1-1.3,0.9-1.3c2.1-0.1,4.2-0.3,6.3-0.2c6.3,0.2,12.7,0.7,19,0.8c6.7,0.1,13.5,0,20.2,0c5.7,0,11.4,0,17,0.1
			c1.6,0,3.1,0.5,4.7,0.7c1,0.1,2.1,0.1,3.1,0.2c3.7,0,7.4,0.1,11.1,0.1c0.8,0,1.6,0.1,2,0.8c-0.1,1-0.8,0.9-1.2,0.9
			c-5.2,0-10.3,0-15.5,0c-0.7,0-1.3-0.2-2-0.1c-4.9,0.6-9.8-0.2-14.6-0.2c-6.5,0-12.9-0.4-19.4-0.6c-4.5-0.1-9-0.2-13.5-0.2
			c-1.4,0-2.9,0.2-4.3,0.4c-1.2,0.2-2.3,0.5-4,0.9c0.9,0.7,1.4,1.2,2,1.6c6.8,4.6,14.2,7.6,21.4,11.2c1.4,0.7,2.9,1.3,4.4,2.1
			C203.1,84,203.8,84.7,203.8,85.8C203.7,85.9,203.8,85.8,203.8,85.8z"/>
		<path d="M338.5,176.6c0.4-0.3,0.7-0.8,1-0.9c2.1-0.3,4.2-0.7,6.3-0.8c4.5-0.1,9,0,13.5,0.2c3.9,0.2,7.9,0.2,11.8-0.1
			c7.1-0.6,14.2-1.2,21.3-1.4c4.9-0.2,9.8,0.2,14.6,0.3c2.5,0.1,5,0.4,7.5-0.4c0.2-0.1,0.5-0.2,0.8-0.1c3.1,1.2,6.2,0.5,9.4,0.2
			c1.8-0.2,3.7,0.3,5.5,0.2c2.9-0.1,5.8-0.4,8.7-0.6c7-0.4,14-0.7,21-1.2c5.1-0.3,10.3-0.8,15.4-1.2c0.8-0.1,1.5-0.1,2.2-0.2
			c0.3,1-0.1,1.3-0.7,1.4c-3.2,0.3-6.3,0.5-9.5,0.8c-2.4,0.2-4.7,0.6-7.1,0.7c-6.9,0.4-13.7,0.7-20.6,1.1c-1.8,0.1-3.7,0.4-5.5,0.7
			c-0.8,0.1-1.6,0.3-2.4,0.2c-3.8-0.2-7.6,0.3-11.4-0.1c-1.9-0.2-3.9,0-5.9,0.4c-1.8,0.4-3.7-0.2-5.5-0.2
			c-5.8-0.2-11.6-0.4-17.4-0.5c-1.8,0-3.7,0.1-5.5,0.2c-11.1,0.4-22.1,1.8-33.3,1.1c-4.1-0.3-8.2-0.2-12.2,0.8c-0.5,0.1-1,0-1.5,0
			C339,177.1,338.9,176.9,338.5,176.6z"/>
		<path d="M334.7,215.2c-2.9,0.2-5.3,0.3-7.9,0.5c1.8,8.3,3.5,16.2,5.2,24.5c0.7,0,1.6,0.2,2.4,0.1c5.7-0.1,11.4-0.2,17-0.3
			c1,0,2.1-0.4,3.1-0.4c0.3,0,0.6,0.4,0.8,0.7c0.1,0.1,0,0.3-0.1,0.6c-3.8,0.3-7.6,0.5-11.3,0.8c-3.8,0.3-7.6,0-11.6,1.5
			c0.3,4.3,1,8.4,1.8,12.2c1.4,1,2.7,1,4,0.9c4.5-0.4,8.9-0.8,13.4-1.1c0.3,0,0.7,0.3,1.3,0.5c-0.5,0.3-0.8,0.6-1.1,0.7
			c-1,0.1-2.1,0.2-3.2,0.2c-4.9-0.1-9.7,0.6-14.6,1.4c-1.1,0.2-2.3,0.2-3.4,0.3c-0.4-1.7,1.2-1.6,1.5-3.3c-0.7-4-1.7-8.7-2.4-13.4
			c-0.8-5.3-1.6-10.6-2.9-15.7c-0.5-2-1-3.9-1.4-5.9c-0.5-2.7-2.2-3.8-4.5-4.1c-3.2-0.4-6.3-0.4-9.4,0.4c-1.3,0.4-2.3,0.2-3.3-1.2
			c0.3-0.4,0.6-1,1-1.1c3.1-0.3,6.3-0.9,9.5-0.5c3.8,0.4,7.6,0.6,11.5,0.6c0.9,0,1.9,0,2.8,0.1C333.4,214.2,333.8,214.6,334.7,215.2
			z"/>
		<path d="M457.7,65.7c-0.6,1-1.6,0.9-2.5,1c-3.4,0.3-6.8,0.5-10.3,0.7c-1.3,0.1-2.7,0.1-3.9,0.5c-1.3,0.3-2.5,0.9-3.7,1.5
			c-0.4,0.2-0.8,0.9-0.7,1.4c0,0.4,0.5,1,0.9,1.2c0.7,0.4,1.5,0.6,2.3,0.7c4.6,0.9,9.1,1.7,13.7,2.5c1.4,0.3,2.9,0.6,4.3,0.9
			c2.5,0.5,4.9,0.9,7.4,1.4c1.4,0.3,2.9,0.1,4.3,1.2c-0.1,0.3-0.2,1-0.4,1c-3.9,0.7-7.7,1.9-11.7,1.1l0.1,0.1c1.3-0.5,2.7-1,4.3-1.6
			c-2.2-1.2-4.4-1.6-6.6-2c-5.3-1-10.7-1.7-16-2.7c-1.3-0.2-2.6-0.6-3.8-1.1c-1.2-0.5-1.7-2-0.9-3.2c0.5-0.8,1.2-1.5,2-2
			c2-1.3,4.1-1.9,6.4-2C447.7,66,452.7,65.9,457.7,65.7C457.8,65.8,457.7,65.7,457.7,65.7z"/>
		<path d="M243.6,25.5c-5.1,0.3-10.2,0.6-15.4,1c-5.3,0.4-10.5,0.5-15.8,1.2c-5.4,0.7-10.8,0.5-16.2,0.6c-3.4,0.1-6.8,0-10.2,0
			c0.3-1.2,1.1-1.3,1.8-1.3c2.4-0.1,4.7-0.3,7.1-0.3c8.7,0.1,17.4-0.3,26.1-1.6c0.5-0.1,1.1-0.1,1.6-0.1c4.3-0.3,8.7-0.6,13-0.8
			c2.1-0.1,4.2-0.1,6.3,0c0.6,0,1.2,0.4,1.7,0.6C243.7,25,243.7,25.3,243.6,25.5z"/>
		<path d="M554.7,45.9c2.4-0.1,4.6,0.7,6.9,2.2c-0.5,0.7-0.8,1.4-1.2,1.7c-2.7,1.7-5.7,2.3-8.6,3c-7.8,1.8-15.7,2.4-23.5,3.2
			c-5.9,0.6-11.8,1.2-17.7,1.8c-0.9,0.1-1.8,0-2.7-0.4c1.9-0.3,3.8-0.7,5.8-1c3.9-0.5,7.9-1,11.8-1.5c1.3-0.1,2.6-0.2,4-0.2
			c8.5-0.2,16.8-1.6,25-3.7c1.5-0.4,3.1-0.6,4.1-2C557.7,47,555.2,47.8,554.7,45.9C554.7,45.8,554.7,45.9,554.7,45.9z"/>
		<path d="M190.7,133.6c-1.5-0.5-1.6-1.5-1.9-2.2c-2.5-5.9-4.8-11.9-7.3-17.8c-1-2.5-2.2-4.9-3.4-7.3c-0.9-1.9-1.6-3.9-1.9-6.1
			c-0.3-2.1-1.1-4.2-1.6-6.3c-0.2-0.9-0.5-1.9-0.9-3.8c1,0.9,1.4,1.2,1.7,1.6c1.2,1.8,2,3.7,2.2,6c0.4,3.9,1.8,7.5,3.4,11
			c1.2,2.6,2,5.3,3.1,8c1.5,3.6,3,7.1,4.6,10.6C189.6,129.1,190.3,131.1,190.7,133.6z"/>
		<path d="M260.2,218.1c0.4-0.6,0.5-1.1,0.7-1.2c0.5-0.2,1-0.2,1.5-0.2c6.6-0.5,13.2-1.1,19.7-1.5c2.5-0.2,5,0,7.5,0
			c0.3,1.4-0.7,1.5-1.3,1.5c-2.6,0.3-5.3,0.5-7.9,0.7c-5.8,0.4-11.6,0.7-17.4,1C262.2,218.4,261.3,218.2,260.2,218.1z"/>
		<path d="M381.6,237.2c0.5-0.1,1-0.3,1.4-0.2c4.2,0.6,8.4,0.3,12.6,0.3c7.1,0,14.2-1,21.2-1.6c2.6-0.2,5.2-0.2,7.8-0.2
			c-0.1,0.9-0.7,0.8-1.1,0.8c-5.9,0.6-11.8,1.3-17.7,1.8c-3.4,0.3-6.8,0.2-10.3,0.3c-2.6,0.1-5.3,0.2-7.9,0.3
			c-2.1,0.1-4.1,0-6.1-0.6C381.6,237.8,381.6,237.5,381.6,237.2z"/>
		<path d="M300.4,189.7c-1,0.6-1.6,1.3-2.3,1.3c-4.3,0.3-8.6,1.7-13,1.4c-1.6-0.1-3.2,0.2-4.7,0.4c-0.9,0.1-1.8,0.3-2.7,0.4
			c-1.7,0.1-2.9-0.4-2.6-1.1c0.5-1.2,1.5-0.8,2.4-0.9c3.4-0.2,6.9-0.3,10.3-0.7c2.7-0.3,5.5-0.8,8.2-1.3
			C297.3,188.8,298.5,188.3,300.4,189.7z"/>
		<path d="M412.1,156.1c-0.5-0.7-1-1.1-1-1.4c1.1-5.1,0.8-10.3,1.8-15.4c0.8-3.9,0.4-8,0.5-12.1c0-1.8-0.1-3.6,0.3-5.6
			c0.2,0.4,0.3,0.5,0.3,0.6c-0.1,6.3-0.2,12.7-0.3,19c-0.1,2.9-0.3,5.8-0.4,8.6C413.4,152,413.1,153.9,412.1,156.1z"/>
		<path d="M150.9,47.3c-0.5-0.3-0.9-0.3-1.1-0.6c-1.1-1.5-1.2-3.3-0.8-5c1.2-5,0.9-10,0.4-15.1c-0.1-1,0-1.9,0.1-3.4
			c0.6,0.6,1,0.8,1,1.1c0.8,5.7,1.6,11.4,0.4,17.2C150.6,43.4,150.9,45.3,150.9,47.3z"/>
		<path d="M278.5,146.1c-1.8,0.5-3.5,1.1-5.3,1.5c-1.4,0.3-2.9,0.2-4.3,0.2c-4.7,0-9.5,0.1-14.2,0.8c-0.6,0.1-1.2-0.1-1.8-0.1
			c0.1-1.4,0.8-1.6,1.6-1.7c3.4-0.2,6.8-0.4,10.2-0.5c3.4-0.1,6.8-0.2,10.2-0.3C276.2,146,277.4,146.1,278.5,146.1
			C278.5,146.2,278.5,146.1,278.5,146.1z"/>
		<path d="M386.8,254.8c-0.3,0.2-0.6,0.4-1,0.5c-0.6,0.2-1.3,0.4-1.9,0.4c-7.3,0-14.5,0-21.8-0.1c-2,0-3.9,0-5.9-0.2
			c4.8-0.3,9.7-0.7,14.5-0.8c2.9-0.1,5.8-0.7,8.7,0.2c0.8,0.3,1.8-0.1,2.7-0.2c1.4-0.1,2.8-0.3,4.3-0.4
			C386.6,254.3,386.7,254.6,386.8,254.8z"/>
		<path d="M150.7,50.7c0.8,2.8,1.3,4.6,1.8,6.3c0.6,2,1.8,3.4,3.7,4.1c2,0.7,3.8,1.9,5.7,2.9c0.1,0.1,0.1,0.5,0.3,1.1
			c-1-0.3-1.9-0.4-2.7-0.8c-1.7-0.8-3.3-1.9-5.2-2.1c-1.2-0.1-2.3-1-2.7-2.3c-0.8-2.4-1.5-4.9-2.1-7.4
			C149.4,52.3,150,51.8,150.7,50.7z"/>
		<path d="M534.5,142.2c-0.2,0.3-0.4,1-0.6,1c-5.5-0.2-11,0.8-16.5-0.4c0,0-0.1-0.3,0-0.4c0-0.1,0.2-0.2,0.3-0.2
			c5.4-0.2,10.8-0.3,16.2-0.4C534,141.7,534.2,142,534.5,142.2z"/>
		<path d="M156.1,294.1c6.6,0.3,13,1.4,19.3,3c0.4,1.1-0.1,1.6-0.7,1.8c-2,0.8-3.9,1.4-6.9,0.2c2.1-0.4,3.4-0.6,4.7-0.8
			c-2.7-1.5-5.6-1.8-8.4-2.4c-2.2-0.5-4.4-0.6-6.6-1C157.1,294.7,156.6,294.3,156.1,294.1L156.1,294.1z"/>
		<path d="M487.1,61.4c-0.9,0.3-1.7,0.7-2.6,0.9c-6.5,1.1-12.9,2.1-19.4,3.1c-2.5,0.4-4.9,1-7.4,0.3c0,0,0,0.1,0,0.1
			c0.5-0.2,1-0.5,1.5-0.6c7-1.1,13.9-2.3,20.9-3.3C482.5,61.5,484.8,61.6,487.1,61.4C487.2,61.4,487.1,61.4,487.1,61.4z"/>
		<path d="M154,51c1.4-0.1,2.4-0.4,3.4-0.3c6.5,0.5,13-1.2,19.5-0.4c-7.1,1.2-14.3,1.4-21.4,2c-0.4,0-0.7-0.2-1.1-0.4
			C154.3,51.9,154.3,51.8,154,51z"/>
		<path d="M321.9,57.6c3.1-1.6,8.6-2.2,12.2-1.2c-0.1,0.2-0.2,0.6-0.3,0.6c-3.5,0.6-7,1.1-10.5,1.7
			C322.4,58.7,321.9,58.5,321.9,57.6z"/>
		<path d="M362.8,214.3c-1.4,1-2.7,1.1-3.9,0.9c-3.8-0.5-7.6-0.4-11.4,0.1c-0.8,0.1-1.7-0.2-2.7-0.3c0.3-0.5,0.4-0.8,0.5-0.8
			C351,213.6,356.8,213,362.8,214.3z"/>
		<path d="M473.9,234.1c0.5-0.2,1-0.6,1.5-0.6c4.8-0.4,9.7-0.8,14.5-1.2c0.3,1.7,0.2,2.1-0.7,1.9C484.1,233.4,479,233.9,473.9,234.1
			L473.9,234.1z"/>
		<path d="M433.4,242c0.3-0.2,0.6-0.6,1-0.7c6.7-0.7,13.3-1.8,20-0.9c0.1,0,0.1,0.1,0.3,0.4C447.5,240.3,440.4,241.6,433.4,242
			L433.4,242z"/>
		<path d="M433.4,241.9c-0.9,0.2-1.8,0.5-2.7,0.5c-4.2,0.4-8.4,0.7-12.6,1.1c-0.5,0-1,0-2.1-0.1c0.9-0.8,1.3-1.3,1.7-1.5
			c0.9-0.2,1.8-0.3,2.7-0.3C424.7,241.8,429.1,241.9,433.4,241.9C433.4,242,433.4,241.9,433.4,241.9z"/>
		<path d="M487.2,61.4c3.3-1.5,6.9-1.6,10.3-2.5c2.2-0.5,4.3-1.3,7.2-0.7c-0.9,0.4-1.2,0.6-1.6,0.7c-4.1,0.8-8.3,1.6-12.5,2.3
			C489.5,61.5,488.3,61.4,487.2,61.4C487.1,61.4,487.2,61.4,487.2,61.4z"/>
		<path d="M276.2,174.1c-0.4,1.7-0.7,3.4-1.1,5c-0.9,3.3-1.8,6.5-2.9,9.7c-0.3-1.5-0.1-3,0.3-4.4c0.8-2.9,1.7-5.7,2.7-8.6
			C275.3,175.2,275.8,174.7,276.2,174.1L276.2,174.1z"/>
		<path d="M365.6,48.1c-4,0.3-8.1,0.6-12.4,0.9c-0.4-0.4-0.3-1,0.5-1.3c0.9-0.3,1.8-0.5,2.7-0.5c3.1,0.1,6.2,0.4,9.2,0.6
			C365.6,47.8,365.6,47.9,365.6,48.1z"/>
		<path d="M297.9,23.8c-5.1,0-10.3,0-16,0C285.1,23,292,23,297.9,23.8z"/>
		<path d="M108.4,251.4c-0.2,0.7-0.2,1.5-0.5,2c-1.5,2.5-3,5-4.6,7.5c-0.3,0.4-0.8,0.7-1.4,1.2C103.4,257.7,105.7,254,108.4,251.4
			C108.5,251.4,108.4,251.4,108.4,251.4z"/>
		<path d="M477,137.3c3.5-3.3,7.5-2,11.4-1.3c-0.9,0.1-1.7,0.1-2.6,0.2c-1,0-2.1,0-3.1,0.1c-0.9,0-1.8,0.1-2.7,0.3
			C479,136.7,478,137,477,137.3z"/>
		<path d="M396.4,53.3c-5.2,0-9.4,0-13.7,0C387,53.1,391.2,52.3,396.4,53.3z"/>
		<path d="M190.5,297.4c-2.3,0.4-4.6,0.9-6.9,1.2c-0.2,0-0.7-0.5-0.7-0.8c0-0.3,0.3-0.9,0.6-0.9
			C185.8,296.6,188.1,295.9,190.5,297.4z"/>
		<path d="M184,48.9c1.3-0.5,1.6-0.7,2-0.7c2.3,0,4.7,0,7,0c0,0,0.1,0.2,0.1,0.3C190.7,49.4,188.4,49.6,184,48.9z"/>
		<path d="M408.7,167.1c-2.7,0.5-5.4,1-8.1,1.4c-0.4,0.1-0.8-0.3-1.2-0.5c0.3-1.2,1.1-1.2,1.6-1.2
			C403.6,167,406.2,165.9,408.7,167.1C408.8,167.2,408.7,167.1,408.7,167.1z"/>
		<path d="M88.7,282.1c0.9-3.2,2.3-6,4.8-8.1C92.4,277,90.9,279.8,88.7,282.1C88.6,282,88.7,282.1,88.7,282.1z"/>
		<path d="M460.7,235.5c2.1-0.1,4.1-1.5,6.4-1c-0.2,0.4-0.3,0.6-0.3,0.7C464.8,235.2,462.7,235.3,460.7,235.5z"/>
		<path d="M462.5,143.7c-2.8,0.5-5.5,1-8.3,0.2c-0.1,0-0.1-0.3-0.1-0.4c0.1-0.1,0.2-0.3,0.3-0.3
			C457.1,143.3,459.8,143.5,462.5,143.7z"/>
		<path d="M96.8,270.4c0.1-2.7,1.3-4.8,3.4-6.9c-0.1,1.1-0.1,1.6-0.3,2C99,267.2,97.9,268.8,96.8,270.4z"/>
		<path d="M457.2,80.8c-2.6,1.2-5.3,0.4-8,0.5C451.9,80.8,454.5,80.4,457.2,80.8C457.2,80.8,457.2,80.8,457.2,80.8z"/>
		<path d="M135.3,280.5c-1.7-0.2-2.8-0.3-3.9-0.4c-1-0.1-2.1,0.5-3.1-0.2C130.2,278.9,131.5,279,135.3,280.5z"/>
		<path d="M421.4,191.5c-0.4,2-0.3,4.2-1.4,6.1C420,195.4,420.2,193.3,421.4,191.5L421.4,191.5z"/>
		<path d="M595.4,39.2c0.5,0.2,0.6,0.2,0.7,0.3c0.7,0.7,1.4,1.3,1.2,2.5c0,0.1-0.2,0.2-0.3,0.2C596,42.3,595.6,41.5,595.4,39.2z"/>
		<path d="M435.6,235.6c-1.1,0-2.1,0-3.2,0c0-0.1,0-0.2,0-0.4c1.1,0,2.1,0,3.2,0C435.6,235.3,435.6,235.4,435.6,235.6z"/>
		<path d="M156.5,283.6c-0.8-0.1-1.7-0.1-2.5-0.3c-0.1,0-0.3-0.5-0.3-0.7c0-0.2,0.3-0.5,0.5-0.5c0.8,0.2,1.6,0.5,2.4,0.7
			C156.6,283.1,156.5,283.3,156.5,283.6z"/>
		<path d="M419.4,135.6c0,0.8,0,1.7,0,2.5c-0.1,0-0.2,0-0.3,0c0-0.8,0-1.7,0-2.5C419.2,135.6,419.3,135.6,419.4,135.6z"/>
		<path d="M287,172.8c0.2,1.4,0.1,2.7-0.3,4c-0.4-0.3-0.6-0.4-0.5-0.4C286.4,175.2,286.7,174.1,287,172.8
			C287,172.9,287,172.8,287,172.8z"/>
		<path d="M423.5,183.1c-0.2,0.9-0.4,1.7-0.7,2.6c-0.2,0-0.3-0.1-0.5-0.1c0.2-0.9,0.4-1.7,0.7-2.6
			C423.2,183,423.4,183.1,423.5,183.1z"/>
		<path d="M165.5,299c-1.4,0.3-2.2,0.4-3.1,0.6C162.9,298.5,162.9,298.5,165.5,299z"/>
		<path d="M604,145.1c-1,1.7-2.4,2-4.1,1.7c0,0,0.1,0.1,0,0.1C601.1,145.7,602.5,145.2,604,145.1C604,145.2,604,145.1,604,145.1z"/>
		<path d="M473.9,234.1c-1.1,0.3-2.2,0.5-3.4,0.8c0-0.2,0-0.4-0.1-0.6C471.6,234.2,472.7,234.2,473.9,234.1
			C473.9,234.1,473.9,234.1,473.9,234.1z"/>
		<path d="M418,153.7c0,0.6-0.1,1.3-0.2,3c0-1.7,0-2.3,0-3C417.8,153.7,417.9,153.7,418,153.7z"/>
		<path d="M340.3,214.3c-0.5,1.1-1.2,0.9-2,0.3C338.9,213.7,339.5,214,340.3,214.3z"/>
		<path d="M403.4,225.3c-0.2,0.3-0.5,0.5-0.7,0.8c-0.1-0.2-0.3-0.5-0.3-0.6c0.2-0.3,0.4-0.6,0.7-0.8
			C403.2,224.9,403.3,225,403.4,225.3z"/>
		<path d="M416.9,162c0-0.1,0-0.3,0-0.4c0.1,0.1,0.1,0.3,0.2,0.4c0,0.1,0,0.3,0,0.4C417,162.3,416.9,162.1,416.9,162z"/>
		<path d="M503.1,142c0.3,0,0.6-0.1,0.9-0.1c0.1,0,0.1,0.1,0.2,0.2c-0.3,0-0.7,0-1,0C503.1,142.1,503.1,142.1,503.1,142z"/>
		<path d="M156.2,294c-0.9,0-1.7,0-3.4,0C154.9,293.5,154.9,293.5,156.2,294C156.1,294.1,156.2,294,156.2,294z"/>
		<polygon points="475.5,143 475.2,143 475.2,142.9 		"/>
		<path d="M450.2,235.3c-0.1,0-0.1,0.1-0.2,0.1c-0.1,0-0.1-0.1-0.2-0.2C450,235.2,450.1,235.2,450.2,235.3z"/>
		<path d="M110,248.8c0,1.3-0.3,2.3-1.6,2.6c0,0,0.1,0.1,0.1,0.1C108.5,250.2,109,249.3,110,248.8C110,248.8,110,248.8,110,248.8z"
			/>
		<path d="M277.6,167c-0.2,1.1,0,2.4-1,3.2c0,0,0.1,0.1,0.1,0.1C277.1,169.2,277.4,168.1,277.6,167L277.6,167z"/>
		<path d="M421.5,191.5c0-0.7,0-1.5,0-2.4C422.3,190.1,421.7,190.8,421.5,191.5C421.4,191.5,421.5,191.5,421.5,191.5z"/>
		<path d="M424.2,179.6c-0.1,0-0.3,0-0.3,0c0-0.3,0-0.5,0-0.8c0.1,0,0.3,0,0.4,0.1C424.3,179.1,424.2,179.3,424.2,179.6z"/>
		<path d="M276.2,174.2c-0.4-1.4-0.2-2.7,0.5-3.9c0,0-0.1-0.1-0.1-0.1C276.5,171.5,276.3,172.8,276.2,174.2
			C276.2,174.1,276.2,174.2,276.2,174.2z"/>
		<path d="M278.3,164.2c0.1-0.7,0.1-1.3,0.2-2.2C279.3,163,278.9,163.6,278.3,164.2C278.3,164.1,278.3,164.2,278.3,164.2z"/>
		<polygon points="418.4,148 418.6,148.1 418.5,148.3 		"/>
		<polygon points="428.9,235.2 429.1,235.4 428.8,235.4 		"/>
		<path d="M277.7,167.1c0.2-1,0.4-1.9,0.7-2.9c0,0-0.1-0.1-0.1-0.1C278.1,165.1,277.8,166,277.7,167.1
			C277.6,167,277.7,167.1,277.7,167.1z"/>
		<polygon points="444.7,235.2 445,235.3 444.8,235.4 		"/>
		<path fill="#FFFFFF" d="M285.4,144.8c-0.3-0.1-0.4-0.2-0.5-0.2c0,0.1,0,0.2,0,0.2C285,144.8,285.2,144.8,285.4,144.8z"/>
		<path d="M285.4,144.8c-0.3,0-0.4,0-0.5,0c0,0,0-0.2,0-0.2C285,144.6,285.2,144.7,285.4,144.8z"/>
	</g>
</g>
</svg>
