<svg xmlns="http://www.w3.org/2000/svg" viewBox="0 0 141.73 141.73"><defs><style>.cls-1{fill:#76b82a;}.cls-2{fill:none;stroke:#fff;stroke-miterlimit:10;stroke-width:3.39px;}.cls-3{fill:#0b1213;}</style></defs><g id="ikon"><path class="cls-1" d="M123.23,69.71A52.37,52.37,0,1,1,70.87,17.35a52.37,52.37,0,0,1,52.36,52.36"/><path class="cls-2" d="M123.23,69.71A52.37,52.37,0,1,1,70.87,17.35,52.37,52.37,0,0,1,123.23,69.71Z"/><path class="cls-3" d="M66,103.48a3.85,3.85,0,1,0,7.69,0ZM59.3,97.71a3.86,3.86,0,0,0,3.85,3.85H76.61a3.85,3.85,0,0,0,3.84-3.85Zm0-3.84H80.45V90H59.3ZM66,39.75a2,2,0,0,1-1.22,2.14,14.45,14.45,0,0,0-9.11,11,1.92,1.92,0,0,1-3.78-.7A18.21,18.21,0,0,1,63.42,38.31,2.08,2.08,0,0,1,66,39.75m3.86-7.42c-11.73,0-23.08,9.1-23.08,22C46.8,71,59.3,74.49,59.3,86.18H80.45C80.45,74.49,93,71,93,54.3c0-12.87-11.35-22-23.07-22"/></g></svg>