<svg id="Layer_1" data-name="Layer 1" xmlns="http://www.w3.org/2000/svg" viewBox="0 0 141.73 141.73"><circle cx="70.87" cy="70.87" r="65.96" fill="#70b749" stroke="#fff" stroke-miterlimit="10" stroke-width="5"/><ellipse cx="48.92" cy="94.98" rx="14.32" ry="10.57" transform="translate(-31.14 24.24) rotate(-21.28)" fill="#1d1d1b" stroke="#1d1d1b" stroke-miterlimit="10"/><path d="M27,63H79.56a1.84,1.84,0,0,1,1.84,1.84v5.48a1.85,1.85,0,0,1-1.85,1.85H27a0,0,0,0,1,0,0V63A0,0,0,0,1,27,63Z" transform="translate(-13.42 121.8) rotate(-90)" fill="#1d1d1b" stroke="#1d1d1b" stroke-miterlimit="10"/><path d="M52.44,40.39h49.42a1.84,1.84,0,0,1,1.84,1.84v5.34a1.85,1.85,0,0,1-1.85,1.85H52.44a0,0,0,0,1,0,0v-9A0,0,0,0,1,52.44,40.39Z" fill="#1d1d1b" stroke="#1d1d1b" stroke-miterlimit="10"/><path d="M76,58.93H120.4a1.84,1.84,0,0,1,1.84,1.84v5.48a1.85,1.85,0,0,1-1.85,1.85H76a0,0,0,0,1,0,0V58.93a0,0,0,0,1,0,0Z" transform="translate(35.59 162.63) rotate(-90)" fill="#1d1d1b" stroke="#1d1d1b" stroke-miterlimit="10"/><ellipse cx="92.97" cy="92" rx="14.16" ry="10.45" transform="translate(-27.06 40.02) rotate(-21.28)" fill="#1d1d1b" stroke="#1d1d1b" stroke-miterlimit="10"/><path d="M41.89,93.62c3.21,0,3.22-5,0-5s-3.23,5,0,5Z" fill="#70b749"/><path d="M87.16,89.88c3.22,0,3.23-5,0-5s-3.22,5,0,5Z" fill="#70b749"/></svg>