<?xml version="1.0" encoding="utf-8"?>
<!-- Generator: Adobe Illustrator 23.1.0, SVG Export Plug-In . SVG Version: 6.00 Build 0)  -->
<svg version="1.1" id="Layer_1" xmlns="http://www.w3.org/2000/svg" xmlns:xlink="http://www.w3.org/1999/xlink" x="0px" y="0px"
	 viewBox="0 0 147.3 147.9" enable-background="new 0 0 147.3 147.9" xml:space="preserve">
<g id="play_button">
	<g>
		<g>
			<g>
				<g>
					<g>
						<defs>
							<rect id="SVGID_1_" x="-43.8" y="-25.7" width="257.1" height="228.2"/>
						</defs>
						<clipPath id="SVGID_2_">
							<use xlink:href="#SVGID_1_"  overflow="visible"/>
						</clipPath>
						<g clip-path="url(#SVGID_2_)">
							<g>
								<g>
									<g>
										<defs>
											<rect id="SVGID_3_" x="-43.8" y="-25.7" width="257.1" height="228.2"/>
										</defs>
										<clipPath id="SVGID_4_">
											<use xlink:href="#SVGID_3_"  overflow="visible"/>
										</clipPath>
										<path clip-path="url(#SVGID_4_)" fill="#76B943" d="M141.3,74.6c0,36.4-29.5,66-66,66c-36.4,0-66-29.5-66-66
											c0-36.4,29.5-66,66-66S141.3,38.2,141.3,74.6"/>
									</g>
								</g>
							</g>
							<g>
								<g>
									<g>
										<defs>
											
												<rect id="SVGID_5_" x="-43.7" y="-25.7" transform="matrix(1 -3.703539e-03 3.703539e-03 1 -0.3267 0.3149)" width="257.1" height="228.2"/>
										</defs>
										<clipPath id="SVGID_6_">
											<use xlink:href="#SVGID_5_"  overflow="visible"/>
										</clipPath>
										
											<ellipse clip-path="url(#SVGID_6_)" fill="none" stroke="#FFFFFF" stroke-width="5" stroke-miterlimit="10.0001" cx="75.3" cy="74.6" rx="66" ry="66"/>
									</g>
								</g>
							</g>
							<g>
								<g>
									<g>
										<defs>
											<rect id="SVGID_7_" x="-43.8" y="-25.7" width="257.1" height="228.2"/>
										</defs>
										<clipPath id="SVGID_8_">
											<use xlink:href="#SVGID_7_"  overflow="visible"/>
										</clipPath>
										<path clip-path="url(#SVGID_8_)" fill="#010101" d="M110.8,79.4l-46.2,28.2c-3.8,2.3-8.6-0.4-8.6-4.8V46.4
											c0-4.4,4.8-7.1,8.6-4.8l46.2,28.2C114.5,72,114.5,77.2,110.8,79.4"/>
									</g>
								</g>
							</g>
							<g>
								<g>
									<g>
										<defs>
											<rect id="SVGID_9_" x="-43.8" y="-25.7" width="257.1" height="228.2"/>
										</defs>
										<clipPath id="SVGID_10_">
											<use xlink:href="#SVGID_9_"  overflow="visible"/>
										</clipPath>
										<path clip-path="url(#SVGID_10_)" fill="none" stroke="#010101" stroke-miterlimit="10" d="M110.8,79.4l-46.2,28.2
											c-3.8,2.3-8.6-0.4-8.6-4.8V46.4c0-4.4,4.8-7.1,8.6-4.8l46.2,28.2C114.5,72,114.5,77.2,110.8,79.4z"/>
									</g>
								</g>
							</g>
							<g>
								<g>
									<g>
										<defs>
											<rect id="SVGID_11_" x="-43.8" y="-25.7" width="257.1" height="228.2"/>
										</defs>
										<clipPath id="SVGID_12_">
											<use xlink:href="#SVGID_11_"  overflow="visible"/>
										</clipPath>
										<path clip-path="url(#SVGID_12_)" fill="#76B943" d="M86.2,82.1c-7.1,4.3-14.3,8.4-21.7,12.2c-2.9,1.5-0.3,5.8,2.5,4.3
											c7.4-3.8,14.6-7.9,21.7-12.2C91.4,84.8,88.9,80.5,86.2,82.1"/>
									</g>
								</g>
							</g>
						</g>
					</g>
				</g>
			</g>
		</g>
	</g>
</g>
</svg>
