<svg id="Layer_1" data-name="Layer 1" xmlns="http://www.w3.org/2000/svg" viewBox="0 0 1118.3 1961.95"><rect width="1118.3" height="1961.95" fill="#a3cacc"/><rect x="234.6" y="696.45" width="348.9" height="493" rx="14.56"/><rect x="256.47" y="727.32" width="304.84" height="430.74" fill="#fff"/><g id="power_tv_on" data-name="power tv on"><path d="M303.41,771.93c-2.39,3.76-2.51,8.4-2.39,12.92.26,7.9,1.38,15.68,2.39,23.46,2.26,15.81,4.39,31.74,6.65,47.55.25,1.75.5,3.63,1.88,4.76a6.07,6.07,0,0,0,3.89,1.38c9.66,1.51,19.44,1.63,29.23,1.88,35.75.76,71.51,1.64,107.26,2.39,7,.12,14.68.12,20.2-4.27,7-5.52,7.78-15.68,7.9-24.71.38-21.33.88-42.53,1.26-63.86a13.4,13.4,0,0,0-.38-3.89,7.83,7.83,0,0,0-3.64-3.89c-5-2.88-11.16-2.76-16.93-2.63l-130.6,4.52a132.31,132.31,0,0,1-15.68-.13C310.06,767.21,306.17,767.54,303.41,771.93Z" transform="translate(9.77 21.24)" fill="#c7f8ff"/><path d="M408.79,792.63a11.17,11.17,0,0,0-8.53-.38,4.65,4.65,0,0,0-2,6.27c.07.13.14.26.22.38a7.54,7.54,0,0,0,6.78,3.76,6.62,6.62,0,0,0,5.64-4.51,5.47,5.47,0,0,0-.37-4.64,4.41,4.41,0,0,0-3.77-2.26,1.26,1.26,0,0,0,0,2.51,3,3,0,0,1,.88.25,1.93,1.93,0,0,1,.75.75,3.72,3.72,0,0,1-3,5.27,5.23,5.23,0,0,1-4.39-2,2.48,2.48,0,0,1-.63-2,1.51,1.51,0,0,1,.88-1.5,6.09,6.09,0,0,1,3-.5,7.22,7.22,0,0,1,3.26.75,1.39,1.39,0,0,0,1.76-.5,1.23,1.23,0,0,0-.5-1.63Z" transform="translate(9.77 21.24)" fill="#00afbc"/><path d="M394.86,787a4.84,4.84,0,0,0-5.14-2,4.74,4.74,0,0,0-3.39,4.23,5.57,5.57,0,0,0,.76,3.14,8.13,8.13,0,0,0,1.5,2.13,4.34,4.34,0,0,0,5.4.12,6.8,6.8,0,0,0,2.38-6,1.26,1.26,0,0,0-2.51,0v1.51a.74.74,0,0,1-.13.5c0,.13-.12.38-.12.5s0,.13-.13.25h0c-.12.13-.12.25-.25.5s-.12.13-.12.25c.12-.12,0,0,0,.13l-.25.25-.13.13h0c-.12.12-.25.12-.38.25s-.12,0,0,0c-.12,0-.12.12-.25.12h-.25c-.12.13.13,0,0,0h-.75c-.13,0-.13,0-.25-.12.25.12-.13,0-.13-.13a.13.13,0,0,1-.12-.12s-.25-.13-.13-.13l-.12-.12-.13-.13-.12-.13s-.13-.25-.13-.12v-.13a.26.26,0,0,0-.25-.25c-.13,0-.13-.25-.25-.37s-.13-.13-.13-.25h0c-.12-.38-.25-.76-.37-1.13v-.76a.49.49,0,0,1,.12-.37c0-.13,0-.13.13-.25s-.13.12,0-.13a1,1,0,0,1,.25-.38l.12-.12s.38-.25.13-.13c.13-.12.25-.25.38-.25a.12.12,0,0,0,.12-.12c-.25.12.13,0,.13,0h.25c.25-.13-.13,0,.12,0h.51c.12,0,.25,0,.25.12s.12,0,.25.13.25.12.12,0c.13.12.25.12.5.25s-.12-.13,0,0,.13.12.26.25l.12.13c.13.25-.12-.13.13.12a1.55,1.55,0,0,0,1.75.5,1.69,1.69,0,0,0,.25-1.88Z" transform="translate(9.77 21.24)" fill="#00afbc"/><path d="M403.14,795.51a1.43,1.43,0,0,0-1,0,2,2,0,0,0-.88.5l-.12.13c-.13.13-.25.25-.25.38a2.32,2.32,0,0,0-.26,1,2,2,0,0,0,1,1.63,2.38,2.38,0,0,0,1.63.25,2,2,0,0,0,.88-.5l.12-.13c.13-.12.13-.25.25-.25s.13-.25.25-.5v-.5a.74.74,0,0,0-.12-.5c-.13-.13-.13-.25-.38-.38s-.25-.12-.37-.25h-.38a1.07,1.07,0,0,0-.63.13l-.25.25c-.12.12-.25.37-.37.5h0a.45.45,0,0,1,.12-.25.12.12,0,0,1-.12.12l.25-.25-.13.13.25-.25-.12.12a.45.45,0,0,0,.25-.12c-.13,0-.13,0-.25.12h.25a.38.38,0,0,1,.25.13.13.13,0,0,1-.13-.13h0l.25.25L403,797l.25.25a.13.13,0,0,0-.13-.13h0a.5.5,0,0,0,.13.25v.26a.44.44,0,0,1-.13.25c0-.13.13-.13.13-.25l-.25.25a.12.12,0,0,1,.11-.13h0l-.25.25.13-.12a.42.42,0,0,0-.25.12H403a.79.79,0,0,0,.5-.12c.13-.13.25-.13.38-.38a1,1,0,0,1,.25-.38v-.37a1.06,1.06,0,0,0-.13-.63l-.25-.25c-.25-.13-.38-.25-.63-.38Z" transform="translate(9.77 21.24)" fill="#00afbc"/><path d="M391.1,789.21h-.75a.89.89,0,0,0-.5.13c-.13,0-.26.12-.38.12a.13.13,0,0,0-.13.13h0c-.12.12-.37.25-.5.37a1.64,1.64,0,0,0-.5.76c-.13.12-.13.37-.13.62V792c.13.13.13.38.26.5s.12.25.25.38.25.25.37.25.25.12.38.25h.63a.73.73,0,0,0,.5-.13c.12-.12.25-.12.37-.37a.92.92,0,0,1,.26-.38,1.39,1.39,0,0,0-.13-1l-.25-.25c-.13-.13-.38-.25-.5-.38h-.13a.38.38,0,0,1,.25.13c-.12,0-.12-.13-.12-.13l.25.25-.13-.12.25.25c0-.13-.12-.13-.12-.25a.58.58,0,0,0,.12.25v.25a.42.42,0,0,1-.12.25s0-.13.12-.13l-.25.25.13-.12-.25.25a.44.44,0,0,1,.25-.13.44.44,0,0,0-.25.13h.37a.77.77,0,0,0,.51-.13c.12-.12.25-.12.37-.37a1,1,0,0,1,.25-.38,1.34,1.34,0,0,0-.12-1l-.25-.25c.12-.5-.13-.63-.38-.63Z" transform="translate(9.77 21.24)" fill="#00afbc"/><path d="M407.66,791.37a2,2,0,0,1,.88.13h.25a.47.47,0,0,1,.38.12,2.36,2.36,0,0,1,.87.25c.13,0,.25.13.38.13s.25.13.13,0,0,0,.12,0,.25.13.38.25a.12.12,0,0,1,.12.12h0s.13,0,.13.12,0,0-.13-.12c.13.12.25.25.38.25l.12.12h0c.13.13.13.25.26.38s.12.12.12.25h0a2.08,2.08,0,0,1,.25.88,1.25,1.25,0,0,0,1.59.75,1.22,1.22,0,0,0,.8-1.38,5,5,0,0,0-2.64-3.64,12.51,12.51,0,0,0-4.26-1,1.36,1.36,0,0,0-1.26,1.22c-.12.63.38,1.13,1.13,1.13Z" transform="translate(9.77 21.24)" fill="#00afbc"/><path d="M406.78,791.37l2.64-.37c.5-.13.87-.13,1.38-.25a4.26,4.26,0,0,0,.62-.13.45.45,0,0,0,.38-.13h-.13c-.12,0-.25-.12-.37-.25s-.25-.37-.13-.12h0v.5c0,.5.13.88.13,1.38a5.77,5.77,0,0,0,1,2.38,1.39,1.39,0,0,0,1.76.5,1.37,1.37,0,0,0,.5-1.75c-.13-.25-.25-.38-.38-.63s-.12-.25-.12-.37c.12.12,0,0,0-.13a1.14,1.14,0,0,1-.13-.63.42.42,0,0,0-.12-.37c-.13-.38,0,.25,0-.13v-1.13a1.61,1.61,0,0,0-1.13-1.63,4.58,4.58,0,0,0-1.88,0c-.51.13-1,.13-1.51.25-1,.13-2,.38-3.14.5a1.25,1.25,0,0,0-.87,1.51,1.23,1.23,0,0,0,1.39,1Z" transform="translate(9.77 21.24)" fill="#00afbc"/><path d="M411.3,788.36h-.13c-.12,0-.25.13-.37.13h-.25c-.13.12-.26.12-.26.25l-.12.12c-.13.13-.25.25-.25.38s-.13.25-.13.5a.74.74,0,0,0,.13.5c0,.13.12.25.25.38l.25.25a1.16,1.16,0,0,0,.63.13h.37c.25,0,.38-.13.51-.38l.12-.13-.25.26c.13,0,.13-.13.25-.13a.44.44,0,0,0-.25.13h.25c.13,0,.25-.13.38-.26l.37-.37c.13-.13.13-.25.13-.5v-.51a.41.41,0,0,0-.13-.25,1,1,0,0,0-.5-.5.49.49,0,0,1-.25-.12A1.62,1.62,0,0,0,411.3,788.36Z" transform="translate(9.77 21.24)" fill="#00afbc"/><path d="M391.73,784.1a9.1,9.1,0,0,1,1.88-.13h.75c.13,0,.38.13.5.13h.25s.26.12.13,0h0c.13,0,.13.12.25.12s.25.13.38.25h0l.12.13.25.25c.13.12-.12-.25,0,0l.13.12s0,.13.12.13c.13.25,0-.13,0,0s.13.25.13.38v.12a1.36,1.36,0,0,0,1.25,1.26,1.27,1.27,0,0,0,1.26-1.26,4.33,4.33,0,0,0-2.38-3.64,8.92,8.92,0,0,0-4.77-.5c-.63.13-1.26.5-1.26,1.26a1,1,0,0,0,.54,1.31,1.06,1.06,0,0,0,.46.07Z" transform="translate(9.77 21.24)" fill="#00afbc"/><path d="M391.85,783.34a37.13,37.13,0,0,0,5.27-.25l-1.25-1.25a12.93,12.93,0,0,0,.75,3,1.35,1.35,0,0,0,1.76.5,1.39,1.39,0,0,0,.5-1.76s-.13-.37,0-.12c0-.13,0-.13-.13-.25a.88.88,0,0,1-.12-.5c0-.13-.13-.38-.13-.51h0v-.37c0-.63-.5-1.38-1.25-1.26a37.13,37.13,0,0,1-5.27.25,1.35,1.35,0,0,0-1.26,1.26,1.09,1.09,0,0,0,.92,1.24h.21Z" transform="translate(9.77 21.24)" fill="#00afbc"/><path d="M397.75,783h0c-.13-1.76-2.64-1.76-2.51-.13V783c.13,1.63,2.76,1.63,2.51,0h0c-.13-1.76-2.64-1.76-2.51-.13V783C395.37,784.6,398,784.6,397.75,783Z" transform="translate(9.77 21.24)" fill="#00afbc"/><path d="M412.3,791.5h.13a.73.73,0,0,0,.5-.13c.12,0,.25-.12.38-.25s.25-.25.25-.37.12-.26.12-.51v-.37c0-.25-.12-.38-.37-.5l-.26-.26a1.1,1.1,0,0,0-.62-.12h-.13a.75.75,0,0,0-.5.12c-.13,0-.25.13-.38.26s-.25.25-.25.37-.12.25-.12.5v.38c0,.25.12.38.37.5l.25.25c.21,0,.42.1.63.13Z" transform="translate(9.77 21.24)" fill="#00afbc"/><path d="M420.08,798.52a163.27,163.27,0,0,1,24.71-1.13l-1.12-1.88c-2.14,3.26-5.9,5.52-9.16,7.65-3.52,2.26-7.15,4.4-10.92,6.4-1.38.76-.12,2.89,1.26,2.14a110.92,110.92,0,0,0,11.66-6.9c3.39-2.26,7-4.52,9.29-8a1.25,1.25,0,0,0-.44-1.71,1.29,1.29,0,0,0-.69-.17A162.35,162.35,0,0,0,419.93,796c-1.38.13-1.38,2.64.13,2.51Z" transform="translate(9.77 21.24)" fill="#00afbc"/><path d="M436.64,798.65c-5.52.88-10,4.77-15.68,5.14-1.63.13-1.63,2.64,0,2.51,5.89-.38,10.54-4.39,16.31-5.27a1.29,1.29,0,0,0,.88-1.5,1.2,1.2,0,0,0-1.42-.91Z" transform="translate(9.77 21.24)" fill="#00afbc"/><path d="M425.85,795.64a39.32,39.32,0,0,0-3.51-4.52,28.09,28.09,0,0,0-4.14-3.39c-2.89-1.88-6.78-3.76-10.41-2.76-1.51.51-.88,2.89.62,2.39,3-.88,6.28,1,8.66,2.63a19.12,19.12,0,0,1,3.39,2.89,44.8,44.8,0,0,1,3.13,4,1.56,1.56,0,0,0,1.76.5c.5-.37.88-1.25.5-1.75Z" transform="translate(9.77 21.24)" fill="#00afbc"/><path d="M416.07,786.48c.25-4.77-3-8.66-3.77-13.3a1.23,1.23,0,0,0-1.5-.88,4.73,4.73,0,0,0-2.39,2.51,30.79,30.79,0,0,1-2.13,3.52,46.36,46.36,0,0,1-4.77,6.39c-1,1.26.76,3,1.76,1.76a72.68,72.68,0,0,0,4.77-6.15,26.61,26.61,0,0,0,2-3.26,17.07,17.07,0,0,0,.88-1.63c.13-.25.38-.88.63-1-.5-.25-1-.63-1.51-.88.76,4.26,3.89,8.15,3.64,12.54a1.22,1.22,0,0,0,2.34.69A1.12,1.12,0,0,0,416.07,786.48Z" transform="translate(9.77 21.24)" fill="#00afbc"/><path d="M395.11,795.89,385.33,791c-1.38-.76-2.89-1.51-4.27-2.39A18.8,18.8,0,0,1,377.8,785c-1-1.25-3.13,0-2.13,1.26a24.72,24.72,0,0,0,3.26,3.89,27.88,27.88,0,0,0,4.52,2.76c3.38,1.75,6.9,3.51,10.41,5.27C395.37,798.77,396.62,796.64,395.11,795.89Z" transform="translate(9.77 21.24)" fill="#00afbc"/><path d="M374.93,784.21a18.23,18.23,0,0,1-1,3.77,16.45,16.45,0,0,0,2.39.62,3.63,3.63,0,0,1,.25-1.13v-.12c-.13.12-.13.25,0,.12s.12-.12.12-.25a.83.83,0,0,0,.25-.5c-.75-.25-1.5-.38-2.38-.63v-.25c0,.25-.13.5-.13.76s-.12.25-.12.37.12-.25,0-.12,0,.12-.13.25a2.47,2.47,0,0,0-.37.62v.13c0,.13,0,0,.12-.13l-.12.13c-.13.13-.13.25-.25.25.62.5,1.25,1,2,1.51.13-.25.38-.51.51-.76l.12-.12h0c.13-.13.25-.25.25-.38a6,6,0,0,1,1.26-1.25,21.82,21.82,0,0,1-2.14-1.26,24.69,24.69,0,0,0-1,2.64c-.13.12,0,.5,0,.62a1.24,1.24,0,0,0,.5.63,1.37,1.37,0,0,0,1.38.13,10.27,10.27,0,0,0,2.49-2.25c-.75-.38-1.5-.63-2.26-1,0,.12-.12.37-.12.5s.12-.25,0-.13v.13c0,.12-.13.12-.13.25l.13-.13-.13.13a.12.12,0,0,1-.12.12.13.13,0,0,0-.13.13h0c-.12.12.25-.13.13,0s-.13.12-.25.12A1.29,1.29,0,0,0,377.3,790a3.42,3.42,0,0,0,1.88-2.63,1.26,1.26,0,0,0-.75-1.51,1.89,1.89,0,0,0-.88-.12,1.22,1.22,0,0,0-.75.62.13.13,0,0,1-.13.13h0c0,.13-.12.13-.25.25a1.7,1.7,0,0,1-.5.5l-.25.25c-.13,0-.25.13,0,0a.13.13,0,0,0-.13.13h0c-.12.12-.37.25-.5.38a21.09,21.09,0,0,0,1.88,1.38,21,21,0,0,0,1-2.64,1.09,1.09,0,0,0-.13-.88,1.17,1.17,0,0,0-2-.37,14.72,14.72,0,0,0-2.5,3,1.23,1.23,0,0,0,.37,1.63,1.18,1.18,0,0,0,1.63-.13,4.6,4.6,0,0,0,1.13-1.63,6.63,6.63,0,0,0,.63-2.13,1.8,1.8,0,0,0-.25-.75,1.32,1.32,0,0,0-.63-.51,1.27,1.27,0,0,0-1.38.63,6,6,0,0,0-1,2.64,2.83,2.83,0,0,0,.12,1,2,2,0,0,0,.76.63,1.28,1.28,0,0,0,1.5-.88,20.45,20.45,0,0,0,1-3.76,2.81,2.81,0,0,0-.12-1,1.91,1.91,0,0,0-.75-.63,1.45,1.45,0,0,0-1,.13c0-.13-.25.13-.37.5Z" transform="translate(9.77 21.24)" fill="#00afbc"/><path d="M373.93,788.49c-.25,3.64,1.38,7,3,10.16a37.79,37.79,0,0,0,6,8,49.87,49.87,0,0,0,7.52,6c2.76,1.88,5.77,3.76,7.66,6.65.87,1.38,3,.12,2.13-1.26-3.39-5.27-9.54-7.65-14.05-11.79a35,35,0,0,1-6.15-7.4c-1.88-3-3.76-6.65-3.64-10.29a1.26,1.26,0,0,0-1.09-1.41,1.28,1.28,0,0,0-1.41,1.1,1.21,1.21,0,0,0,0,.19Z" transform="translate(9.77 21.24)" fill="#00afbc"/><path d="M389.72,812.21c-.5,1.75,1.51,2.63,2.63,3.64a24.81,24.81,0,0,1,3.14,3.26,22.46,22.46,0,0,1,3.64,8.1c.25,1.63,2.76.88,2.38-.63a22.39,22.39,0,0,0-3.26-8,17.28,17.28,0,0,0-2.76-3.39,16.65,16.65,0,0,0-1.63-1.51c-.38-.25-.63-.5-1-.75-.13-.13-.25-.13-.38-.25-.38-.25-.13-.25-.25.12.25-1.5-2.13-2.13-2.51-.62Z" transform="translate(9.77 21.24)" fill="#00afbc"/><path d="M389.72,812.7c-.63,1.88-3,2.76-4.52,3.51-2.13,1.13-4.26,2-6.39,3a1.23,1.23,0,0,0-.48,1.67,1.19,1.19,0,0,0,.73.59,9.3,9.3,0,0,1,2,.63c.38.12.76.37,1.13.5a4.76,4.76,0,0,1,.88.5v-.5s-.63.63-.75.63a12.37,12.37,0,0,0-1.38,1.13,5.68,5.68,0,0,0-2,3.13c-.12.63.13,1.51.88,1.51a3.17,3.17,0,0,0,1.5,0c.38,0,.88-.25,1.13-.13.51.13.25-.12.25.25a2.56,2.56,0,0,1-.5,1.26,14.83,14.83,0,0,1-2.88,3.89,1.24,1.24,0,0,0,1.75,1.75,14.39,14.39,0,0,0,4.14-6.39,2.56,2.56,0,0,0-1-2.89c-1.25-.75-2.38,0-3.64-.13.25.51.63,1,.88,1.51.5-2.26,5.52-3.76,3.89-6.4a6.38,6.38,0,0,0-2.64-1.88,9.88,9.88,0,0,0-2.76-.88,13.15,13.15,0,0,1,.26,2.26c2.5-1.13,5-2.26,7.52-3.51,2-1,3.89-2.26,4.64-4.52.26-1.38-2.13-2-2.63-.5Z" transform="translate(9.77 21.24)" fill="#00afbc"/><path d="M380.31,835.41c-2.38,4.76-1.76,9.53.25,14.3,1.88,4.51,4.77,9,4,14-.25,1.63,2.13,2.26,2.38.63.75-5-1.25-9.41-3.26-13.8s-3.64-9.16-1.26-13.93c.76-1.38-1.38-2.63-2.13-1.25Z" transform="translate(9.77 21.24)" fill="#00afbc"/><path d="M427.11,807.56a62.52,62.52,0,0,1-4.14,6.77,28.91,28.91,0,0,1-2.64,3,19.45,19.45,0,0,0-2.88,2.64,4.36,4.36,0,0,0-.26,5.52,22.54,22.54,0,0,0,2.14,2.63,1.61,1.61,0,0,0,2.76-.5,1.23,1.23,0,0,0-.75-1.58,1.25,1.25,0,0,0-1.59.75,1.46,1.46,0,0,0-.05.2v.13l.88-.88c.63.25.75.25.5,0l-.25-.25c-.12-.25-.37-.38-.5-.63s-.63-.63-.88-1a2.11,2.11,0,0,1-.62-1.63,2.31,2.31,0,0,1,1-1.64c.75-.75,1.63-1.38,2.38-2.13,3-2.88,5-6.52,7-10.16.75-1.38-1.38-2.63-2.13-1.25Z" transform="translate(9.77 21.24)" fill="#00afbc"/><path d="M416.07,844.82a4.94,4.94,0,0,1-1.38-.13,1.38,1.38,0,0,0-1.26.88A20.69,20.69,0,0,1,409,855.1a1.34,1.34,0,0,0,0,1.76,1.23,1.23,0,0,0,1.73,0l0,0a23.18,23.18,0,0,0,5-10.66,10,10,0,0,1-1.25.87,4.91,4.91,0,0,1,1.38.14,1.35,1.35,0,0,0,1.25-1.26c.13-.5-.5-1.12-1.12-1.12Z" transform="translate(9.77 21.24)" fill="#00afbc"/><path d="M409.42,854.6a36.4,36.4,0,0,0-2.39,5,8.06,8.06,0,0,0,.25,5.64,1.36,1.36,0,0,0,1.76.51,1.38,1.38,0,0,0,.5-1.76c-1.25-2.76.75-5.65,2-8.15a1.39,1.39,0,0,0-.5-1.76,1.31,1.31,0,0,0-1.63.5Z" transform="translate(9.77 21.24)" fill="#00afbc"/><path d="M413.56,851.09c4.76-2.89,9.91-4.27,15.3-5.4,4.39-.87,8.66-1.75,13.05-.12,8,2.88,12,11.29,11.29,19.44-.13,1.63,2.38,1.63,2.51,0a21,21,0,0,0-7.53-18.8,19.43,19.43,0,0,0-8.91-3.89c-4-.63-8.15.37-12,1.25-5.14,1.13-10.29,2.64-14.8,5.4a1.21,1.21,0,1,0,.95,2.23,1,1,0,0,0,.18-.1Z" transform="translate(9.77 21.24)" fill="#00afbc"/><path d="M382.44,817.09a48.72,48.72,0,0,1-24.71-5.88c-1.38-.75-2.64,1.38-1.26,2.14a52.33,52.33,0,0,0,26,6.14c1.63.13,1.63-2.38,0-2.38Z" transform="translate(9.77 21.24)" fill="#00afbc"/><path d="M379.93,825.75A97.08,97.08,0,0,1,368,821.48c-1.89-.88-3.89-1.76-5.77-2.63a21.65,21.65,0,0,1-2.26-1.13c-.76-.38-1.26-1.26-2.14-1.38a1.13,1.13,0,0,0-1.38.62,1.61,1.61,0,0,0,0,1.51,1.34,1.34,0,0,0,1.13.63h.13c1.63-.13,1.63-2.76,0-2.51h-.13c.38.25.76.37,1.13.63,0,0,0-.13-.12-.13v1.25a.12.12,0,0,1,.12-.12c-.5.25-1,.38-1.38.63-.12-.13,0-.13.25.12s.38.25.51.38l1.12.75c.76.38,1.51.75,2.39,1.13l6,2.63a84.19,84.19,0,0,0,11.92,4.27c1.25.5,2-1.88.37-2.38Z" transform="translate(9.77 21.24)" fill="#00afbc"/><path d="M357.73,810.94c-.5-1.63-1.26-3.51-2.89-4.26-1.88-.76-3.51.25-5,1.38a9.14,9.14,0,0,0-3.27,4.26,7.14,7.14,0,0,0-.25,2.76,2.26,2.26,0,0,0,2,1.63,4.56,4.56,0,0,0,4.77-2.13,1.29,1.29,0,1,0-2.26-1.25h0c0,.12-.13.12-.13.25.13-.13,0-.13,0,0l-.37.37c.12-.12-.25.13-.25.13a.46.46,0,0,1-.25.12h0c-.13,0-.38.13-.51.13h-.5s-.5-.13-.25-.13h0c.13.26.13.38.13.13h0v-.25a2.19,2.19,0,0,1,.12-.88,5,5,0,0,1,1-1.76,16.46,16.46,0,0,1,1.63-1.5,4.11,4.11,0,0,1,1.63-.88.89.89,0,0,1,.62.13c.13.12.26.12.26.25l.25.25c.12.12.12.12,0,.12a6.16,6.16,0,0,1,.87,2.14,1.38,1.38,0,0,0,1.51.87c.88-.62,1.25-1.25,1.13-1.88Z" transform="translate(9.77 21.24)" fill="#00afbc"/><path d="M349.2,807.56c-5.9-1.64-11.79-4.52-18.07-4.52a1.82,1.82,0,0,0-2,2.26,5.11,5.11,0,0,0,1.38,2.51,12.37,12.37,0,0,0,5.64,3,13.94,13.94,0,0,0,6.78.5c1.5-.38.87-2.89-.63-2.38a10.1,10.1,0,0,1-5.77-.63,18,18,0,0,1-2.76-1.26,4,4,0,0,1-1.13-.87c-.25-.26-.38-.63-.63-.88a.58.58,0,0,1-.12-.25c-.13-.38-.25-.13-.63.5,0,.12.88,0,1,0a9.41,9.41,0,0,1,2.64.37,30.36,30.36,0,0,1,4.51,1.13c3.14.88,6.28,2.14,9.41,2.89,1.26.38,1.88-2,.38-2.38Z" transform="translate(9.77 21.24)" fill="#00afbc"/><path d="M345.44,814.46a21.45,21.45,0,0,0-3,0,3.41,3.41,0,0,0-2.5,1.63,2.61,2.61,0,0,0,.37,3.13,2.8,2.8,0,0,0,2,.63h1.62a5.44,5.44,0,0,0,2-.63,2.86,2.86,0,0,0,1.25-1.75,1.23,1.23,0,0,0-.87-1.51,1.24,1.24,0,0,0-1.51.88h0l-.13.25.13-.13-.13.13-.12.13c-.13.12,0,0,.12,0a1.8,1.8,0,0,1-.5.25s.25-.13.13-.13h-.13a.45.45,0,0,0-.38.13H342c-.13,0,.25.12,0,0h0c-.13-.13.12.25,0,.12s.12.25,0,.13v-.25c0-.13-.13.37,0,.12v-.38c-.13.25-.13.25,0,.12s.12-.12.12-.25h0s.25-.25,0-.13.13,0,.13-.12h.12s-.25.12-.12,0,.12,0,.25-.13h1.63a4.1,4.1,0,0,1,1.26.13,1.35,1.35,0,0,0,1.25-1.26,1.15,1.15,0,0,0-1.17-1.13h-.07Z" transform="translate(9.77 21.24)" fill="#00afbc"/><path d="M354.84,816.84h0v.37c-.12.37,0-.13,0,.12s-.12.13-.12.25l-.13.13-.12.12c-.13,0-.13.13-.25.13a4.76,4.76,0,0,1-2.26.5h-1c-.25,0,.26.13-.12,0h-.25s-.25-.13-.25,0-.13-.13-.25-.13-.25-.25-.13-.12l-.12-.13a.47.47,0,0,0-.26-.12c-.13,0-.37-.38-.62-.5a2.68,2.68,0,0,0-1.76-.25,1.37,1.37,0,0,0-.88,1.5,1.21,1.21,0,0,0,1.44.9l.07,0h-.25c.12,0,.12.12.25.12-.13-.12,0,0,.12.13l.25.25a9.91,9.91,0,0,0,1.51.88,7.76,7.76,0,0,0,3.39.12,4.44,4.44,0,0,0,3-1.38,3.47,3.47,0,0,0,1-3.26,1.3,1.3,0,0,0-1.5-.88c-.51,0-.88.63-.76,1.26Z" transform="translate(9.77 21.24)" fill="#00afbc"/><path d="M414.31,829.51c3.89,1,7.65,0,11.16-1.38s6.65-2.63,9.92-4.14c6.39-2.89,12.54-6.65,17.06-12,1-1.26-.76-3-1.76-1.76-4.14,5-9.78,8.41-15.56,11.17-2.88,1.38-5.89,2.63-8.9,3.76-3.52,1.38-7.4,2.88-11.17,1.88a1.31,1.31,0,0,0-.75,2.51Z" transform="translate(9.77 21.24)" fill="#00afbc"/><path d="M452.82,810.82c-.12-1.38-.12-2.89-.25-4.27V805.3c0,.12.13-.13,0,0s-.12,0,0,0h.13a1.51,1.51,0,0,1,.75-.13l1.88-.37a2.83,2.83,0,0,0,.5-.13c.26,0,.38.25.51.38,1,1,2,2,3.13,3a1.26,1.26,0,0,0,1.76,0,1.24,1.24,0,0,0,0-1.76,24.35,24.35,0,0,1-1.76-1.76c-.5-.5-1.13-1.12-1.75-1.63a2.85,2.85,0,0,0-2.64-.62c-.75.12-1.63.37-2.38.5a3.26,3.26,0,0,0-1.88.88,2.9,2.9,0,0,0-.76,2.25c.13,1.64.25,3.39.25,5a1.28,1.28,0,0,0,1.26,1.26c.75-.13,1.38-.76,1.25-1.38Z" transform="translate(9.77 21.24)" fill="#00afbc"/><path d="M458.84,805.42a43,43,0,0,1,5-7.65l.76-.75a.44.44,0,0,1,.25-.13c.12,0,.12-.12.25-.12h.12s.38-.13.25-.13h.38c-.13,0,.25.13.13,0s.12,0,.12.13h0v.37c0-.12,0,.25-.12.25,0,.25,0,.25-.13.38a16.57,16.57,0,0,1-1.25,1.88,24.75,24.75,0,0,1-3.39,3.77,1.24,1.24,0,0,0,1.75,1.75,30.48,30.48,0,0,0,3.77-4.26c1-1.38,2.38-3.14,1.63-4.9a3.34,3.34,0,0,0-4.77-1.25,5.76,5.76,0,0,0-1.75,1.76,27.59,27.59,0,0,0-1.76,2.38,48.25,48.25,0,0,0-3.26,5.39,1.28,1.28,0,0,0,.46,1.74l0,0a1.37,1.37,0,0,0,1.5-.63Z" transform="translate(9.77 21.24)" fill="#00afbc"/><path d="M464,804.8a5.63,5.63,0,0,1,.88-.88l.12-.13h0c.13,0,.13-.12.25-.12s.38-.25.5-.38a.91.91,0,0,1,.51-.25c.12,0,.12-.13.25-.13s.25-.12.12,0c.38-.12.76-.25,1.26-.37-.5-.38-1-.76-1.63-1.26v1.93h0c-.13.38-.13.76-.25,1s0,.12-.13.25-.13.25,0,.12l-.13.13c0,.13-.12.13-.12.25s-.13.25-.25.38l-.13.12h0c-.12.13-.25.25-.25.38l-.12.12h0c-.13.13-.25.13-.38.26l-.38.25c.13,0,.13-.13.13,0h-.13c-.12,0-.12,0-.25.12s-.25.13-.5.13a1.23,1.23,0,0,0,.63,2.38,5.34,5.34,0,0,0,3.76-2.76,8.61,8.61,0,0,0,1-5,1.31,1.31,0,0,0-1.32-1.29,1.17,1.17,0,0,0-.32,0,9.83,9.83,0,0,0-4.76,2.88,1.22,1.22,0,0,0,0,1.72l0,0a1.08,1.08,0,0,0,1.5.25l.13-.12Z" transform="translate(9.77 21.24)" fill="#00afbc"/><path d="M465.12,808.56c.5-.25.88-.38,1.38-.63a2.52,2.52,0,0,1,.62-.25c.13-.12.13,0-.12,0h0c-.13,0-.25-.12-.38-.25a1.06,1.06,0,0,1-.25-.63v.13h0v.28c0,.25-.12.38-.12.63s0,.12-.13.25-.25.37,0,0a7.18,7.18,0,0,0-.5,1c0,.13-.13.13-.13.25s.13-.25,0,0l-.37.38-.38.37h0c-.12,0-.12.13-.25.13.25-.13.25-.13.13,0h-.13c-.25.13.38,0,0,0h.13c-.13,0-.13,0,.12.13-.12-.13,0,0,.13.12s.12.25.12.13a1.29,1.29,0,1,0-2.26,1.25h0a2.07,2.07,0,0,0,2.85.61l.15-.11a7.06,7.06,0,0,0,1.89-2,5.81,5.81,0,0,0,1-2.39c0-.12.13-.37.13-.5a3.57,3.57,0,0,0,0-1.13,1.73,1.73,0,0,0-1.64-1.25,4.83,4.83,0,0,0-1.75.62l-1.51.76a1.89,1.89,0,0,0-.62.75,1.44,1.44,0,0,0,.12,1,1.56,1.56,0,0,0,1.76.38Z" transform="translate(9.77 21.24)" fill="#00afbc"/><path d="M455.93,808.21c.63,1.38,1.38,2.76,2.88,3.26a2.86,2.86,0,0,0,3.62-1.81.19.19,0,0,0,0-.07,1.23,1.23,0,1,0-2.36-.67s0,0,0,.05-.13.25,0-.13l-.13.13c.13-.26.13-.13,0-.13-.25.25.25-.13.13,0l-.13.13c-.25.12.25-.13.13,0a.44.44,0,0,1-.38.12h.13a.49.49,0,0,1-.38-.12c-.25-.13.25.12.13,0s-.13-.13-.25-.13-.25-.13,0,0a.38.38,0,0,0-.25-.13c-.13-.12-.26-.25-.26-.37.13.12.13.25.13.12v-.12c0-.13-.13-.13-.13-.25s-.12-.25-.25-.38a5.42,5.42,0,0,1-.37-.88,1.77,1.77,0,0,0-.76-.62,1.4,1.4,0,0,0-1,.12,1.37,1.37,0,0,0-.63.75A2.7,2.7,0,0,0,455.93,808.21Z" transform="translate(9.77 21.24)" fill="#00afbc"/><path d="M460.35,813.45h-1.42c-.5,0-1,.13-1.51.13h-2.59a2.86,2.86,0,0,0-1,.12,1.87,1.87,0,0,0-.63.76,1.2,1.2,0,0,0,.8,1.48l.08,0a20.78,20.78,0,0,0,6.77-.12,1.24,1.24,0,0,0,.88-1.51,1.16,1.16,0,0,0-1.38-.88Z" transform="translate(9.77 21.24)" fill="#00afbc"/><path d="M453.07,813.7c-4.64,4.27-9.4,8.41-14.92,11.42-5.78,3.14-11.92,5.9-17.94,8.78-1.51.75-.13,2.89,1.25,2.13,6.15-3,12.42-5.77,18.44-9.15,5.52-3.14,10.29-7.28,14.93-11.55,1.26-.87-.5-2.76-1.76-1.63Z" transform="translate(9.77 21.24)" fill="#00afbc"/><path d="M422.71,835.28a1.26,1.26,0,1,0-1.14-1.14A1.27,1.27,0,0,0,422.71,835.28Z" transform="translate(9.77 21.24)" fill="#00afbc"/><path d="M505.61,783.07a82.71,82.71,0,0,0-7.16-20.32,75.84,75.84,0,0,0-5.89-9.79c-1.76-2.38-3.26-5.27-6-6.4-7.28-3-16.19-4-24-4.64-16.31-1.5-32.75-.5-49.06-.62-21.83-.26-43.66-2.76-65.48-2.76-3.27,0-6.4,0-9.66.12-14.56.63-31.62,2.76-43.91,11.17-5.27,3.63-8.66,13.17-11,18.94a91.19,91.19,0,0,0-5.92,22.44c-3.51,27,4.27,54.69,19.45,77.28a89.07,89.07,0,0,0,9.66,12.16c4.64,4.65,11.16,11.42,17.69,13,9.91,2.64,21.57,2.39,31.86,3.51,17.31,1.89,34.75,3.77,52.19,3.14,19.07-.75,37.89-4.39,56.45-8.66,5.4-1.25,10.92-2.63,15.18-6,6-4.89,13.3-13.17,16.94-19.94,4.26-8.16,6.4-17.32,7.9-26.48C508,820.58,509.49,801.39,505.61,783.07Z" transform="translate(9.77 21.24)" fill="#c7f8ff" opacity="0.4" style="isolation:isolate"/></g><rect x="390.7" y="887.43" width="493" height="348.9" rx="14.35"/><rect x="421.39" y="909.26" width="430.74" height="304.84" fill="#fff"/><g id="power_tv_on-2" data-name="power tv on-2"><path d="M471.5,957.81c-4.16,6.57-4.38,14.67-4.16,22.55.44,13.8,2.41,27.37,4.16,41,3.94,27.59,7.66,55.4,11.6,83,.44,3.06.88,6.35,3.29,8.32,1.75,1.75,4.38,2.19,6.79,2.41,16.86,2.62,33.94,2.84,51,3.28,62.4,1.32,124.81,2.85,187.22,4.16,12.26.22,25.61.22,35.25-7.44,12.26-9.64,13.58-27.37,13.79-43.14.66-37.23,1.54-74.23,2.19-111.46a23.81,23.81,0,0,0-.65-6.78c-1.1-3.07-3.73-5.26-6.35-6.79-8.76-5-19.49-4.82-29.56-4.6l-228,7.88c-9.2.22-18.18.66-27.37-.22C483.1,949.49,476.32,950.14,471.5,957.81Z" transform="translate(9.77 21.24)" fill="#c7f8ff"/><path d="M655.43,993.94c-4.6-2-10.29-2.63-14.89-.66-4.38,2-5.47,7.66-3.06,11.6,2.19,4,7.22,7,11.82,6.57a11.58,11.58,0,0,0,9.86-7.88,9.59,9.59,0,0,0-.66-8.1,7.62,7.62,0,0,0-6.57-3.94c-2.85,0-2.85,4.38,0,4.38a5.36,5.36,0,0,1,1.53.43,3.63,3.63,0,0,1,1.32,1.32,6.9,6.9,0,0,1,.43,4.16,6.78,6.78,0,0,1-5.69,5c-2.63.43-5.91-1.32-7.66-3.51a4.25,4.25,0,0,1-1.1-3.5,2.66,2.66,0,0,1,1.53-2.63c1.54-.88,3.51-.88,5.26-.88a12.61,12.61,0,0,1,5.69,1.32,2.42,2.42,0,0,0,3.07-.88,2.14,2.14,0,0,0-.88-2.84Z" transform="translate(9.77 21.24)" fill="#00afbc"/><path d="M631.13,984.08a8.44,8.44,0,0,0-9-3.5,8.2,8.2,0,0,0-5.91,7.44,9.67,9.67,0,0,0,1.31,5.48,14.5,14.5,0,0,0,2.63,3.72,7.58,7.58,0,0,0,9.41.22c3.29-2.41,4.38-6.57,4.16-10.51a2.19,2.19,0,0,0-4.37-.3v2.93a1.23,1.23,0,0,1-.22.87c0,.22-.22.66-.22.88s0,.22-.22.44h0c-.22.22-.22.43-.44.87,0,.22-.22.22-.22.44.22-.22,0,0,0,.22l-.44.44-.22.22h0c-.21.22-.43.22-.65.43-.44.22-.22,0,0,0-.22,0-.22.22-.44.22h-.44c-.22.22.22,0,0,0h-1.31c-.22,0-.22,0-.44-.22.44.22-.22,0-.22-.21a.22.22,0,0,1-.22-.22s-.44-.22-.22-.22l-.22-.22-.22-.22-.21-.22s-.22-.44-.22-.22c.22.22,0,0,0-.22-.22-.22-.22-.44-.44-.44-.22-.21-.22-.43-.44-.65,0-.22-.22-.22-.22-.44h0c-.22-.66-.44-1.31-.65-2v-1.32a.84.84,0,0,1,.21-.65c0-.22,0-.22.22-.44,0-.22-.22.22,0-.22.22-.22.22-.44.44-.66l.22-.21s.66-.44.22-.22c.22-.22.44-.44.66-.44a.21.21,0,0,0,.21-.21h0c-.43.22.22,0,.22,0h.44c.44-.22-.22,0,.22,0h.88c.22,0,.43,0,.43.22.22,0,.22,0,.44.22,0,0,.44.22.22,0,.22.22.44.22.88.44h0c.22,0,.22.21.44.43l.21.22c.22.44-.21-.22.22.22a2.72,2.72,0,0,0,3.07.88,3,3,0,0,0,.44-3.29Z" transform="translate(9.77 21.24)" fill="#00afbc"/><path d="M645.58,999a2.4,2.4,0,0,0-1.75,0,3.55,3.55,0,0,0-1.54.88l-.21.22c-.22.22-.44.44-.44.65a4.32,4.32,0,0,0-.44,1.76,3.41,3.41,0,0,0,1.75,2.84,4.16,4.16,0,0,0,2.85.44,3.52,3.52,0,0,0,1.53-.88l.22-.21c.22-.22.22-.44.44-.44.22-.22.22-.44.44-.88v-.87a1.26,1.26,0,0,0-.22-.88c-.22-.22-.22-.44-.66-.66-.22-.22-.44-.22-.66-.43h-.65a2.09,2.09,0,0,0-1.1.21l-.44.44c-.22.22-.43.66-.65.88h0a.8.8,0,0,1,.22-.44.22.22,0,0,1-.22.22l.43-.44-.21.22.43-.44-.22.22a.8.8,0,0,0,.45-.17c-.22,0-.22,0-.44.22h.44a.74.74,0,0,1,.44.22.22.22,0,0,1-.22-.22l.44.44-.22-.22.44.44a.22.22,0,0,0-.22-.22.8.8,0,0,0,.22.44v.44a.75.75,0,0,1-.22.43c0-.22.22-.22.22-.43l-.44.43a.22.22,0,0,1,.22-.22l-.44.44.22-.22a.77.77,0,0,0-.44.22h.44a1.37,1.37,0,0,0,.88-.22c.21-.22.43-.22.65-.65.22-.22.22-.44.44-.66v-.66a2,2,0,0,0-.22-1.09l-.44-.44c-.43-.22-.65-.44-1.09-.66Z" transform="translate(9.77 21.24)" fill="#00afbc"/><path d="M624.56,988h-1.32a1.68,1.68,0,0,0-.87.22c-.22,0-.44.22-.66.22a.22.22,0,0,0-.22.22c-.22.22-.65.44-.87.66a2.8,2.8,0,0,0-.88,1.31,1.69,1.69,0,0,0-.22,1.1v1.09c.22.22.22.66.44.88s.22.44.44.65.44.44.65.44c.22.22.44.22.66.44h1.1a1.33,1.33,0,0,0,.87-.22c.22-.22.44-.22.66-.66.22-.21.22-.43.44-.65a2.42,2.42,0,0,0-.22-1.75l-.44-.44c-.22-.22-.66-.44-.88-.66H623a.69.69,0,0,1,.43.22.22.22,0,0,1-.22-.22l.44.44-.22-.22.44.44c0-.22-.22-.22-.22-.44a.8.8,0,0,0,.22.44V992a.75.75,0,0,1-.22.43.22.22,0,0,1,.25-.19h0l-.44.44.22-.22-.44.44a.77.77,0,0,1,.44-.22.77.77,0,0,0-.44.22h.66a1.37,1.37,0,0,0,.88-.22c.22-.22.43-.22.65-.65.22-.22.22-.44.44-.66a2.42,2.42,0,0,0-.22-1.75l-.44-.44c.22-.88-.21-1.1-.65-1.1Z" transform="translate(9.77 21.24)" fill="#00afbc"/><path d="M651.93,991.75l4.6-.66c.87-.22,1.53-.22,2.41-.44a10,10,0,0,0,1.09-.22.8.8,0,0,0,.66-.22h-.22c-.22,0-.44-.22-.66-.43-.22-.44-.44-.66-.22-.22h0v.87c0,.88.22,1.54.22,2.41a10.09,10.09,0,0,0,1.75,4.16,2.26,2.26,0,0,0,4-2.19c-.22-.44-.44-.65-.66-1.09,0-.22-.22-.44-.22-.66.22.22,0,0,0-.22a2.06,2.06,0,0,1-.22-1.09.8.8,0,0,0-.22-.66c-.22-.66,0,.44,0-.22v-2a2.82,2.82,0,0,0-2-2.85c-1.09-.43-2.19,0-3.28,0-.88.22-1.76.22-2.63.44-1.75.22-3.51.66-5.48.88a2.26,2.26,0,0,0,1.1,4.38Z" transform="translate(9.77 21.24)" fill="#00afbc"/><path d="M659.81,986.49h-.22c-.22,0-.43.22-.65.22h-.44c-.22.22-.44.22-.44.44l-.22.22c-.22.22-.44.44-.44.65-.22.22-.22.44-.22.88a1.37,1.37,0,0,0,.22.88c0,.21.22.43.44.65l.44.44a2.08,2.08,0,0,0,1.09.22H660c.44,0,.66-.22.88-.66l.22-.22-.44.44c.22,0,.22-.22.44-.22a.77.77,0,0,0-.44.22h.44c.21,0,.43-.22.65-.44l.66-.65c.22-.22.22-.44.22-.88v-.87a.74.74,0,0,0-.22-.44,1.68,1.68,0,0,0-.88-.88.75.75,0,0,1-.43-.22A2.73,2.73,0,0,0,659.81,986.49Z" transform="translate(9.77 21.24)" fill="#00afbc"/><path d="M625.65,979.05a16.5,16.5,0,0,1,3.29-.22h1.31c.22,0,.66.22.88.22h.43s.44.22.22,0h0c.22,0,.22.22.44.22.22.21.44.21.66.43h0l.22.22.44.44c.21.22-.22-.44,0,0l.21.22a.22.22,0,0,0,.22.22c.22.44,0-.22,0,0s.22.44.22.66v.21a2.36,2.36,0,0,0,2.19,2.19,2.19,2.19,0,0,0,2.19-2.19h0a7.53,7.53,0,0,0-4.16-6.35c-2.63-1.31-5.47-1.09-8.32-.87-1.09.22-2.19.87-2.19,2.19a1.71,1.71,0,0,0,.85,2.26,1.74,1.74,0,0,0,.9.15Z" transform="translate(9.77 21.24)" fill="#00afbc"/><path d="M625.87,977.73a65.7,65.7,0,0,0,9.2-.44l-2.14-2.19a23.29,23.29,0,0,0,1.31,5.26c.44,1.09,2,1.31,3.07.88a2.42,2.42,0,0,0,.87-3.07s-.21-.66,0-.22c0-.22,0-.22-.21-.44a1.34,1.34,0,0,1-.22-.87c0-.22-.22-.66-.22-.88h0v-.66c0-1.09-.88-2.4-2.19-2.18a65.69,65.69,0,0,1-9.2.43,2.36,2.36,0,0,0-2.19,2.19,1.89,1.89,0,0,0,1.56,2.17,2.2,2.2,0,0,0,.44,0Z" transform="translate(9.77 21.24)" fill="#00afbc"/><path d="M636.16,977.08h0c-.22-3.07-4.6-3.07-4.38-.22v.22c.22,2.84,4.82,2.84,4.38,0h0c-.22-3.07-4.6-3.07-4.38-.22v.22C632,979.92,636.6,979.92,636.16,977.08Z" transform="translate(9.77 21.24)" fill="#00afbc"/><path d="M661.56,992h.22a1.37,1.37,0,0,0,.88-.22c.22,0,.44-.22.66-.44s.43-.44.43-.66c.22-.22.22-.44.22-.87v-.66c0-.44-.22-.66-.65-.88l-.44-.43a2,2,0,0,0-1.1-.22h-.22a1.3,1.3,0,0,0-.87.22c-.22,0-.44.21-.66.43s-.44.44-.44.66c-.22.22-.22.44-.22.88v.65c0,.44.22.66.66.88l.44.44a10.52,10.52,0,0,0,1.09.22Z" transform="translate(9.77 21.24)" fill="#00afbc"/><path d="M675.14,1004.21a284,284,0,0,1,43.14-2c-.66-1.1-1.32-2.19-2-3.29-3.73,5.7-10.3,9.64-16,13.36q-9.19,5.91-19,11.17c-2.41,1.31-.22,5,2.19,3.72a189.79,189.79,0,0,0,20.37-12c5.91-4,12.26-7.89,16.2-14a2.18,2.18,0,0,0-.77-3,2.13,2.13,0,0,0-1.23-.3,284,284,0,0,0-43.14,2c-2.41.22-2.41,4.6.22,4.38Z" transform="translate(9.77 21.24)" fill="#00afbc"/><path d="M704,1004.45c-9.63,1.53-17.51,8.32-27.37,9-2.84.22-2.84,4.6,0,4.38,10.29-.65,18.4-7.66,28.47-9.19a2.25,2.25,0,0,0,1.53-2.63,2.08,2.08,0,0,0-2.49-1.57l-.14,0Z" transform="translate(9.77 21.24)" fill="#00afbc"/><path d="M685.21,999.21c-2-2.63-3.72-5.47-6.13-7.88a47.14,47.14,0,0,0-7.22-5.91c-5-3.29-11.83-6.57-18.18-4.82-2.63.87-1.53,5,1.1,4.16,5.25-1.53,10.94,1.75,15.1,4.6a31.83,31.83,0,0,1,5.92,5,83.84,83.84,0,0,1,5.47,7,2.72,2.72,0,0,0,3.07.88c.87-.66,1.53-2.19.87-3.07Z" transform="translate(9.77 21.24)" fill="#00afbc"/><path d="M668.13,983.21c.44-8.32-5.25-15.11-6.57-23.21a2.17,2.17,0,0,0-2.62-1.54c-2.19.88-3.07,2.41-4.16,4.38a56.28,56.28,0,0,1-3.73,6.13,81.59,81.59,0,0,1-8.32,11.17c-1.75,2.19,1.32,5.26,3.07,3.07a128.65,128.65,0,0,0,8.32-10.73,47.58,47.58,0,0,0,3.5-5.7c.44-.87,1.1-1.75,1.54-2.84.21-.44.65-1.54,1.09-1.75-.88-.44-1.75-1.1-2.63-1.54,1.32,7.45,6.79,14.24,6.35,21.9C663.53,986.05,667.91,986.05,668.13,983.21Z" transform="translate(9.77 21.24)" fill="#00afbc"/><path d="M631.56,999.63l-17.07-8.54c-2.41-1.31-5-2.63-7.45-4.16a31.83,31.83,0,0,1-5.69-6.35c-1.75-2.19-5.48,0-3.73,2.19a43,43,0,0,0,5.7,6.79,47.45,47.45,0,0,0,7.88,4.81c5.91,3.07,12,6.14,18.18,9.2,2.62,1.1,4.81-2.63,2.18-3.94Z" transform="translate(9.77 21.24)" fill="#00afbc"/><path d="M596.31,979.27a32.41,32.41,0,0,1-1.75,6.56,28.64,28.64,0,0,0,4.16,1.1,6.52,6.52,0,0,1,.44-2v-.22c-.22.22-.22.44,0,.22,0-.22.22-.22.22-.44a1.63,1.63,0,0,0,.43-.88c-1.31-.43-2.62-.65-4.16-1.09v-.44c0,.44-.22.88-.22,1.32,0,.21-.21.43-.21.65s.21-.44,0-.22c0,.22,0,.22-.22.44-.22.44-.44.66-.66,1.1v.22c0,.21,0,0,.22-.22l-.22.22c-.22.21-.22.43-.44.43,1.1.88,2.19,1.76,3.51,2.63.21-.44.65-.87.87-1.31l.22-.22h0c.22-.22.44-.44.44-.66a10.82,10.82,0,0,1,2.19-2.19,33.88,33.88,0,0,1-3.72-2.19,39.28,39.28,0,0,0-1.76,4.6c-.22.22,0,.88,0,1.1a2.25,2.25,0,0,0,.88,1.09,2.4,2.4,0,0,0,2.41.22,19.12,19.12,0,0,0,4.38-3.94c-1.32-.66-2.63-1.1-3.94-1.75,0,.21-.22.65-.22.87s.22-.44,0-.22v.22c0,.22-.22.22-.22.44l.22-.22-.22.22a.22.22,0,0,1-.22.22.22.22,0,0,0-.22.22c-.22.22.44-.22.22,0-.22,0-.22.22-.44.22a2.25,2.25,0,0,0,2.19,3.94,6,6,0,0,0,3.29-4.6,2.23,2.23,0,0,0-1.32-2.63,3.19,3.19,0,0,0-1.53-.22,2.08,2.08,0,0,0-1.31,1.1.22.22,0,0,1-.22.22h0c0,.22-.22.22-.44.43s-.44.66-.88.88l-.44.44c-.21,0-.43.22,0,0a.21.21,0,0,0-.21.21h0c-.22.22-.66.44-.88.65a30.7,30.7,0,0,0,3.28,2.41,38.22,38.22,0,0,0,1.76-4.6,2,2,0,0,0-.22-1.53,2.1,2.1,0,0,0-.88-1.09,2,2,0,0,0-2.63.43,26,26,0,0,0-4.38,5.26,2.15,2.15,0,0,0,.66,2.85,2.06,2.06,0,0,0,2.85-.22,8.37,8.37,0,0,0,2-2.85,11.8,11.8,0,0,0,1.09-3.72,3.07,3.07,0,0,0-.43-1.32,2,2,0,0,0-3.51.22,10.77,10.77,0,0,0-1.75,4.6,5,5,0,0,0,.22,1.75,3.18,3.18,0,0,0,1.31,1.1,2.25,2.25,0,0,0,2.63-1.53,35.57,35.57,0,0,0,1.75-6.57,4.71,4.71,0,0,0-.22-1.75,3.18,3.18,0,0,0-1.31-1.1,2.42,2.42,0,0,0-1.75.22c0-.22-.44.22-.66.88Z" transform="translate(9.77 21.24)" fill="#00afbc"/><path d="M594.56,986.71c-.44,6.35,2.41,12.26,5.25,17.74a65.61,65.61,0,0,0,10.51,14A86.9,86.9,0,0,0,623.46,1029c4.82,3.29,10.08,6.57,13.36,11.61,1.53,2.41,5.26.22,3.72-2.19-5.91-9.2-16.64-13.36-24.52-20.59a61.33,61.33,0,0,1-10.73-12.92c-3.29-5.25-6.57-11.6-6.35-18,.22-3.07-4.16-3.07-4.38-.22Z" transform="translate(9.77 21.24)" fill="#00afbc"/><path d="M622.15,1028.1c-.88,3.06,2.63,4.59,4.6,6.35a43.92,43.92,0,0,1,5.47,5.69,39.28,39.28,0,0,1,6.35,14.23c.44,2.85,4.82,1.53,4.16-1.09a39.12,39.12,0,0,0-5.69-14,31.46,31.46,0,0,0-4.82-5.91,32.16,32.16,0,0,0-2.84-2.63c-.66-.43-1.1-.87-1.76-1.31-.22-.22-.43-.22-.65-.44-.66-.44-.22-.44-.44.22.44-2.63-3.72-3.72-4.38-1.09Z" transform="translate(9.77 21.24)" fill="#00afbc"/><path d="M622.15,1029c-1.1,3.29-5.26,4.82-7.88,6.13-3.73,2-7.45,3.51-11.17,5.26-1.75.65-1.32,3.72.44,3.94a16.34,16.34,0,0,1,3.5,1.09c.66.22,1.31.66,2,.88a8.93,8.93,0,0,1,1.53.88v-.88s-1.09,1.09-1.31,1.09a24.11,24.11,0,0,0-2.41,2,9.89,9.89,0,0,0-3.5,5.47c-.22,1.09.22,2.63,1.53,2.63a5.32,5.32,0,0,0,2.63,0c.66,0,1.53-.44,2-.22.87.22.44-.22.44.44a4.62,4.62,0,0,1-.88,2.19,25.61,25.61,0,0,1-5,6.78c-2,2,1.1,5,3.07,3.07,3.07-3.07,6.13-6.79,7.23-11.17.43-2,0-3.94-1.76-5-2.19-1.32-4.16,0-6.35-.22.44.87,1.1,1.75,1.54,2.62.87-3.94,9.63-6.56,6.79-11.16a11.13,11.13,0,0,0-4.6-3.29,18.06,18.06,0,0,0-4.82-1.53,22.74,22.74,0,0,1,.44,3.94c4.38-2,8.76-3.94,13.14-6.13,3.5-1.75,6.78-3.94,8.1-7.88.44-2.41-3.72-3.51-4.6-.88Z" transform="translate(9.77 21.24)" fill="#00afbc"/><path d="M605.73,1068.61c-4.16,8.32-3.07,16.64.43,25,3.29,7.88,8.33,15.76,7,24.52-.44,2.85,3.72,3.94,4.16,1.1,1.32-8.76-2.19-16.43-5.69-24.09-3.72-7.88-6.35-16-2.19-24.31,1.31-2.4-2.41-4.59-3.72-2.18Z" transform="translate(9.77 21.24)" fill="#00afbc"/><path d="M687.4,1020a108.33,108.33,0,0,1-7.22,11.83,49.81,49.81,0,0,1-4.6,5.25c-1.75,1.54-3.72,2.85-5,4.6a7.6,7.6,0,0,0-.44,9.64,38.15,38.15,0,0,0,3.73,4.59,2.82,2.82,0,0,0,4,.36,2.77,2.77,0,0,0,.85-1.23c.88-2.63-3.28-3.94-4.16-1.1v.22l1.54-1.53c1.09.44,1.31.44.87,0l-.44-.44c-.22-.44-.65-.65-.87-1.09-.44-.66-1.1-1.1-1.53-1.75-.66-.88-1.32-1.76-1.1-2.85a4,4,0,0,1,1.75-2.85c1.32-1.31,2.85-2.41,4.16-3.72,5.26-5,8.76-11.39,12.26-17.74,1.32-2.41-2.4-4.59-3.72-2.19Z" transform="translate(9.77 21.24)" fill="#00afbc"/><path d="M668.13,1085a9.29,9.29,0,0,1-2.41-.22,2.41,2.41,0,0,0-2.19,1.53,36.15,36.15,0,0,1-7.66,16.64,2.33,2.33,0,0,0,0,3.07,2.13,2.13,0,0,0,3,.06l.06-.06a40.65,40.65,0,0,0,8.75-18.61,19.39,19.39,0,0,1-2.18,1.53,8.77,8.77,0,0,1,2.4.22,2.36,2.36,0,0,0,2.19-2.19c.22-.88-.87-2-2-2Z" transform="translate(9.77 21.24)" fill="#00afbc"/><path d="M656.53,1102.11a62.68,62.68,0,0,0-4.16,8.76,13.83,13.83,0,0,0,.44,9.85c.43,1.09,2,1.31,3.06.88a2.42,2.42,0,0,0,.88-3.07c-2.19-4.82,1.31-9.85,3.5-14.23a2.41,2.41,0,0,0-.88-3.07A2.26,2.26,0,0,0,656.53,1102.11Z" transform="translate(9.77 21.24)" fill="#00afbc"/><path d="M663.75,1096c8.32-5,17.3-7.45,26.72-9.42,7.66-1.53,15.11-3.06,22.77-.22,14,5,21,19.71,19.71,33.94-.22,2.85,4.16,2.85,4.38,0,1.31-12.48-3.29-25-13.14-32.84a34.08,34.08,0,0,0-15.55-6.79c-7-1.1-14.23.66-21,2.19-9,2-18,4.6-25.84,9.41-2.62,1.54-.44,5.26,2,3.73Z" transform="translate(9.77 21.24)" fill="#00afbc"/><path d="M609.45,1036.64a85,85,0,0,1-43.14-10.3c-2.41-1.31-4.6,2.41-2.19,3.73a91.3,91.3,0,0,0,45.33,10.73c2.85.21,2.85-4.16,0-4.16Z" transform="translate(9.77 21.24)" fill="#00afbc"/><path d="M605.07,1051.74a166.61,166.61,0,0,1-20.8-7.44c-3.29-1.53-6.79-3.07-10.08-4.6a34.69,34.69,0,0,1-3.94-2c-1.31-.66-2.19-2.19-3.72-2.41a2,2,0,0,0-2.41,1.1,2.77,2.77,0,0,0,0,2.62,2.33,2.33,0,0,0,2,1.1h.22c2.85-.22,2.85-4.82,0-4.38h-.22c.66.44,1.32.66,2,1.09a.21.21,0,0,0-.21-.21h0v2.19a.22.22,0,0,1,.22-.22,24.73,24.73,0,0,0-2.41,1.09c-.21-.22,0-.22.44.22.22.22.66.44.88.66l2,1.31c1.31.66,2.63,1.31,4.16,2l10.51,4.6a147.57,147.57,0,0,0,20.8,7.44c2.19.88,3.51-3.28.66-4.16Z" transform="translate(9.77 21.24)" fill="#00afbc"/><path d="M566.31,1025.91c-.87-2.85-2.19-6.14-5-7.45-3.29-1.31-6.14.44-8.76,2.41a16,16,0,0,0-5.7,7.44,12.26,12.26,0,0,0-.43,4.82,4,4,0,0,0,3.5,2.85,8,8,0,0,0,8.32-3.72,2.25,2.25,0,1,0-3.94-2.19c0,.22-.22.22-.22.43.22-.21,0-.21,0,0l-.66.66c.22-.22-.44.22-.44.22-.21,0-.21.22-.43.22h0c-.22,0-.66.22-.88.22h-.88s-.87-.22-.43-.22h0c.22.44.22.66.22.22h0v-.44a4,4,0,0,1,.21-1.53,8.63,8.63,0,0,1,1.76-3.07,33.62,33.62,0,0,1,2.84-2.63,7.45,7.45,0,0,1,2.85-1.53,1.6,1.6,0,0,1,1.09.22c.22.22.44.22.44.44l.44.44c.22.22.22.22,0,.22a10.66,10.66,0,0,1,1.53,3.72,2.4,2.4,0,0,0,2.63,1.53c1.53-1.09,2.19-2.19,2-3.28Z" transform="translate(9.77 21.24)" fill="#00afbc"/><path d="M551.42,1020c-10.29-2.84-20.58-7.88-31.53-7.88-2.41,0-3.94,1.53-3.5,3.94a8.76,8.76,0,0,0,2.41,4.38,21.63,21.63,0,0,0,9.85,5.26c3.72,1.09,7.88,1.75,11.82.87,2.63-.65,1.54-5-1.09-4.16-3.29.88-7,0-10.07-1.09a33.16,33.16,0,0,1-4.82-2.19,7.1,7.1,0,0,1-2-1.53c-.44-.44-.66-1.1-1.1-1.54a.8.8,0,0,1-.22-.44c-.22-.65-.43-.21-1.09.88,0,.22,1.53,0,1.75,0a16.24,16.24,0,0,1,4.6.66,52,52,0,0,1,7.88,2c5.48,1.53,11,3.72,16.42,5,2.19.66,3.29-3.5.66-4.16Z" transform="translate(9.77 21.24)" fill="#00afbc"/><path d="M544.85,1032a41.8,41.8,0,0,0-5.25,0,6.05,6.05,0,0,0-4.38,2.84c-.88,1.76-.88,4.16.65,5.48a4.88,4.88,0,0,0,3.51,1.09h2.85a9.73,9.73,0,0,0,3.5-1.09,5.11,5.11,0,0,0,2.19-3.07,2.15,2.15,0,1,0-4.16-1.09h0l-.22.44.22-.22-.22.22-.22.21c-.22.22,0,0,.22,0a3.16,3.16,0,0,1-.88.44s.44-.22.22-.22h-.22a.78.78,0,0,0-.65.22h-3.08c-.22,0,.44.22,0,0h0c-.22-.22.22.44,0,.22-.22-.44.22.44,0,.22v-.44c0-.22-.22.66,0,.22v-.66c-.22.44-.22.44,0,.22,0-.22.22-.22.22-.43h0s.44-.44,0-.22.22,0,.22-.22h.22s-.44.22-.22,0c.22,0,.22,0,.44-.22h2.84a7.32,7.32,0,0,1,2.19.22A2.36,2.36,0,0,0,547,1034a2,2,0,0,0-2-2h-.2Z" transform="translate(9.77 21.24)" fill="#00afbc"/><path d="M561.28,1036.21h0v.65c-.22.66,0-.21,0,.22,0,.22-.22.22-.22.44l-.22.22-.22.22c-.22,0-.22.22-.44.22a8,8,0,0,1-3.94.87h-1.75c-.44,0,.44.22-.22,0h-.44s-.44-.21-.44,0c.22,0-.22-.21-.44-.21,0,0-.43-.44-.21-.22l-.22-.22c-.22,0-.22-.22-.44-.22-.44-.22-.66-.66-1.1-.88a4.83,4.83,0,0,0-3.06-.44,2.39,2.39,0,0,0-1.53,2.63,2.06,2.06,0,0,0,2.45,1.57l.17,0h-.43c.21,0,.21.22.43.22l.22.22.44.44a16.09,16.09,0,0,0,2.63,1.53,13.41,13.41,0,0,0,5.91.22,7.88,7.88,0,0,0,5.26-2.41,6.07,6.07,0,0,0,1.75-5.69,2.26,2.26,0,0,0-2.63-1.53c-.88,0-1.53,1.09-1.31,2.19Z" transform="translate(9.77 21.24)" fill="#00afbc"/><path d="M665.07,1058.31c6.79,1.76,13.35,0,19.49-2.41,5.91-2.18,11.6-4.59,17.29-7.22,11.17-5,21.9-11.61,29.78-21,1.76-2.19-1.31-5.26-3.06-3.07-7.23,8.76-17.08,14.67-27.15,19.49-5,2.41-10.3,4.6-15.55,6.57-6.13,2.41-12.92,5-19.49,3.28-2.85-.65-3.94,3.51-1.31,4.38Z" transform="translate(9.77 21.24)" fill="#00afbc"/><path d="M732.29,1025.69c-.22-2.41-.22-5-.44-7.45v-2.19c0,.22.22-.22,0,0s-.22,0,0,0h.22a2.73,2.73,0,0,1,1.32-.22l3.28-.65a5.15,5.15,0,0,0,.88-.22c.43,0,.65.44.87.65,1.75,1.76,3.51,3.51,5.48,5.26a2.17,2.17,0,1,0,3.22-2.92l-.16-.15q-1.61-1.45-3.06-3.06a36,36,0,0,0-3.07-2.85,5,5,0,0,0-4.6-1.09c-1.31.22-2.84.65-4.16.87a5.67,5.67,0,0,0-3.28,1.54,5.09,5.09,0,0,0-1.32,3.94c.22,2.84.44,5.91.44,8.76a2.21,2.21,0,0,0,2.19,2.19c1.32-.22,2.41-1.32,2.19-2.41Z" transform="translate(9.77 21.24)" fill="#00afbc"/><path d="M742.8,1016.27a74,74,0,0,1,8.76-13.36l1.31-1.31a.77.77,0,0,1,.44-.22c.22,0,.22-.22.44-.22.44-.22-.22,0,.22,0,0,0,.66-.22.44-.22h.65c-.21,0,.44.22.22,0-.22,0,.22,0,.22.22.22.22,0-.22,0,0h0v.66c0-.22,0,.44-.22.44,0,.44,0,.44-.22.65a26.86,26.86,0,0,1-2.19,3.29,41.86,41.86,0,0,1-5.91,6.57,2.17,2.17,0,0,0,3.07,3.06,52.77,52.77,0,0,0,6.57-7.44c1.75-2.41,4.16-5.48,2.84-8.54-1.31-3.29-5.47-3.94-8.32-2.19a10.15,10.15,0,0,0-3.06,3.06c-1.1,1.32-2.19,2.85-3.07,4.16a84.16,84.16,0,0,0-5.69,9.42,2.22,2.22,0,0,0,.81,3l.06,0a2.42,2.42,0,0,0,2.63-1.1Z" transform="translate(9.77 21.24)" fill="#00afbc"/><path d="M751.78,1015.21a10.61,10.61,0,0,1,1.53-1.54l.22-.22h0c.22,0,.22-.21.44-.21.22-.22.66-.44.88-.66a1.61,1.61,0,0,1,.87-.44c.22,0,.22-.22.44-.22s.44-.22.22,0c.65-.22,1.31-.44,2.19-.66-.88-.65-1.75-1.31-2.85-2.18v3.28h0c-.22.66-.22,1.31-.44,1.75,0,.22,0,.22-.22.44,0,0-.21.44,0,.22l-.21.22c0,.22-.22.22-.22.44-.22.21-.22.43-.44.65l-.22.22h0c-.22.22-.44.44-.44.66l-.22.22h0c-.22.22-.44.22-.65.44l-.66.43c.22,0,.22-.22.22,0H752c-.22,0-.22,0-.44.22-.22,0-.44.22-.88.22a2.15,2.15,0,1,0,1.1,4.16h0a9.31,9.31,0,0,0,6.57-4.82,15,15,0,0,0,1.75-8.75,2.28,2.28,0,0,0-2.29-2.26,2.1,2.1,0,0,0-.56.07,17.06,17.06,0,0,0-8.32,5,2.14,2.14,0,0,0-.06,3l.06.06a1.88,1.88,0,0,0,2.63.41l.22-.19Z" transform="translate(9.77 21.24)" fill="#00afbc"/><path d="M753.75,1021.75c.88-.44,1.53-.66,2.41-1.1a3.67,3.67,0,0,1,1.09-.44c.22-.22.22,0-.22,0h0c-.21,0-.43-.22-.65-.44a1.71,1.71,0,0,1-.44-1.09v.22h0v.44c0,.43-.22.65-.22,1.09,0,.22,0,.22-.22.44,0,.22-.44.66,0,0a13.58,13.58,0,0,0-.87,1.75c0,.22-.22.22-.22.44h0l-.66.66-.66.65h0c-.22,0-.22.22-.43.22.43-.22.43-.22.21,0h-.21c-.44.22.65,0,0,0h.21c-.21,0-.21,0,.22.22l.22.22c.22.44.22.44.22.22a2.25,2.25,0,1,0-3.94,2.19c1.09,2,3.5,2,5.26.87a12.71,12.71,0,0,0,3.28-3.5,9.83,9.83,0,0,0,1.75-4.16c0-.22.22-.66.22-.88a5.6,5.6,0,0,0,0-2,3,3,0,0,0-2.85-2.19,8.38,8.38,0,0,0-3.06,1.1l-2.63,1.31a3.19,3.19,0,0,0-1.09,1.32,2.53,2.53,0,0,0,.21,1.75,2.76,2.76,0,0,0,3.07.66Z" transform="translate(9.77 21.24)" fill="#00afbc"/><path d="M737.77,1021.09c1.09,2.41,2.4,4.82,5,5.69,2.63.66,5.69-.44,6.35-3.28a2.15,2.15,0,0,0-4.16-1.1c0,.22-.22.44,0-.22l-.22.22c.22-.44.22-.22,0-.22-.44.44.44-.22.22,0l-.22.22c-.44.22.44-.22.22,0-.22,0-.44.22-.66.22h.22a.78.78,0,0,1-.65-.22c-.44-.22.43.22.22,0-.22,0-.22-.22-.44-.22-.22-.22-.44-.22,0,0a.74.74,0,0,0-.44-.22c-.22-.21-.44-.43-.44-.65.22.22.22.44.22.22v-.22c0-.22-.22-.22-.22-.44-.22-.22-.22-.44-.44-.66-.22-.44-.43-1.09-.65-1.53a3.05,3.05,0,0,0-1.32-1.09,2.47,2.47,0,0,0-1.75.21,2.27,2.27,0,0,0-1.09,1.32,5,5,0,0,0,.22,2Z" transform="translate(9.77 21.24)" fill="#00afbc"/><path d="M745.43,1030.29H743c-.88,0-1.75.21-2.63.21h-4.6a4.74,4.74,0,0,0-1.75.22A3.26,3.26,0,0,0,733,1032a2.07,2.07,0,0,0,1.38,2.58l.15,0a36.13,36.13,0,0,0,11.83-.21,2.18,2.18,0,0,0,1.53-2.63,2,2,0,0,0-2.37-1.54Z" transform="translate(9.77 21.24)" fill="#00afbc"/><path d="M732.73,1030.72c-8.1,7.45-16.42,14.67-26.06,19.93-10.07,5.47-20.8,10.29-31.31,15.33-2.63,1.31-.22,5,2.19,3.72,10.73-5.26,21.68-10.07,32.19-16,9.63-5.48,18-12.71,26-20.15,2.19-1.53-.87-4.82-3.06-2.85Z" transform="translate(9.77 21.24)" fill="#00afbc"/><path d="M679.74,1068.39c2.84,0,2.84-4.38,0-4.38S676.89,1068.39,679.74,1068.39Z" transform="translate(9.77 21.24)" fill="#00afbc"/><path d="M824.42,977.26a145.3,145.3,0,0,0-12.49-35.47,133.89,133.89,0,0,0-10.29-17.08c-3.07-4.17-5.7-9.2-10.51-11.17-12.7-5.26-28.25-7-41.83-8.1-28.46-2.63-57.15-.88-85.62-1.1-38.1-.44-76.2-4.82-114.3-4.82-5.69,0-11.16,0-16.86.22-25.4,1.1-55.18,4.82-76.64,19.49-9.19,6.35-15.11,23-19.27,33.07a159.53,159.53,0,0,0-10.29,39.19c-6.13,47.08,7.45,95.47,33.94,134.89a157.57,157.57,0,0,0,16.86,21.24c8.1,8.1,19.49,19.92,30.88,22.77,17.3,4.6,37.66,4.16,55.62,6.13,30.21,3.29,60.65,6.57,91.09,5.48,33.28-1.32,66.13-7.67,98.53-15.11,9.42-2.19,19-4.6,26.5-10.51,10.51-8.54,23.21-23,29.56-34.82,7.45-14.23,11.17-30.22,13.8-46.2C828.58,1042.73,831.21,1009.21,824.42,977.26Z" transform="translate(9.77 21.24)" fill="#c7f8ff" opacity="0.4" style="isolation:isolate"/></g><path d="M624.43,697.71a128.5,128.5,0,0,1,128.5,128.5h0" transform="translate(9.77 21.24)" fill="none" stroke="#000" stroke-miterlimit="10" stroke-width="3"/><polygon points="762.2 866.95 774.32 845.95 750.08 845.95 762.2 866.95"/></svg>