<svg id="Layer_1" data-name="Layer 1" xmlns="http://www.w3.org/2000/svg" viewBox="0 0 794 1393"><rect width="794" height="1393" fill="#a3cacc"/><rect x="70.4" y="426.5" width="348.9" height="493" rx="14.56"/><rect x="92.27" y="457.37" width="304.84" height="430.74" fill="#fff"/><g id="power_tv_on"><path d="M138.48,509.72c-2.39,3.76-2.51,8.4-2.39,12.92.26,7.9,1.38,15.68,2.39,23.46,2.26,15.81,4.39,31.74,6.65,47.55.25,1.75.5,3.63,1.88,4.76a6.06,6.06,0,0,0,3.89,1.38c9.66,1.51,19.44,1.63,29.23,1.88,35.75.76,71.51,1.64,107.26,2.39,7,.12,14.68.12,20.2-4.27,7-5.52,7.78-15.68,7.9-24.71.38-21.33.88-42.53,1.26-63.86a13.57,13.57,0,0,0-.38-3.89,7.88,7.88,0,0,0-3.64-3.89c-5-2.88-11.16-2.76-16.93-2.63l-130.6,4.52a132.31,132.31,0,0,1-15.68-.13C145.13,505,141.24,505.33,138.48,509.72Z" transform="translate(10.5 13.5)" fill="#c7f8ff"/><path d="M243.86,530.42a11.19,11.19,0,0,0-8.53-.38,4.65,4.65,0,0,0-1.76,6.65,7.53,7.53,0,0,0,6.78,3.76,6.62,6.62,0,0,0,5.64-4.51,5.51,5.51,0,0,0-.37-4.64,4.4,4.4,0,0,0-3.77-2.26,1.26,1.26,0,0,0,0,2.51,3.08,3.08,0,0,1,.88.25,2,2,0,0,1,.75.75,3.73,3.73,0,0,1-3,5.27,5.21,5.21,0,0,1-4.39-2,2.46,2.46,0,0,1-.63-2,1.52,1.52,0,0,1,.88-1.5,6.15,6.15,0,0,1,3-.5,7.32,7.32,0,0,1,3.26.75,1.39,1.39,0,0,0,1.76-.5,1.23,1.23,0,0,0-.5-1.63Z" transform="translate(10.5 13.5)" fill="#00afbc"/><path d="M229.93,524.77a4.84,4.84,0,0,0-5.14-2A4.73,4.73,0,0,0,221.4,527a5.55,5.55,0,0,0,.76,3.14,8.08,8.08,0,0,0,1.5,2.13,4.35,4.35,0,0,0,5.4.12,6.81,6.81,0,0,0,2.38-6,1.26,1.26,0,0,0-2.51,0v1.51a.74.74,0,0,1-.13.5c0,.13-.12.38-.12.5s0,.13-.13.25h0c-.12.13-.12.25-.25.5s-.12.13-.12.25c.12-.12,0,0,0,.13l-.25.25-.13.13h0c-.12.12-.25.12-.38.25s-.12,0,0,0c-.12,0-.12.12-.25.12h-.25c-.12.13.13,0,0,0h-.75c-.13,0-.13,0-.25-.12.25.12-.13,0-.13-.13a.12.12,0,0,1-.12-.12s-.25-.13-.13-.13l-.12-.12-.13-.13-.12-.13s-.13-.25-.13-.12,0,0,0-.13-.12-.25-.25-.25-.13-.25-.25-.37-.13-.13-.13-.25h0c-.12-.38-.25-.76-.37-1.13v-.76a.46.46,0,0,1,.12-.37c0-.13,0-.13.13-.25s-.13.12,0-.13.12-.25.25-.38l.12-.12s.38-.25.13-.13c.13-.12.25-.25.38-.25a.12.12,0,0,0,.12-.12c-.25.12.13,0,.13,0h.25c.25-.13-.13,0,.12,0h.51c.12,0,.25,0,.25.12s.12,0,.25.13.25.12.12,0c.13.12.25.12.5.25s-.12-.13,0,0,.13.12.26.25l.12.13c.13.25-.12-.13.13.12a1.55,1.55,0,0,0,1.75.5,1.7,1.7,0,0,0,.25-1.88Z" transform="translate(10.5 13.5)" fill="#00afbc"/><path d="M238.21,533.3a1.42,1.42,0,0,0-1,0,2.05,2.05,0,0,0-.88.5l-.12.13c-.13.13-.25.25-.25.38a2.26,2.26,0,0,0-.26,1,2,2,0,0,0,1,1.63,2.36,2.36,0,0,0,1.63.25,2,2,0,0,0,.88-.5l.12-.13c.13-.12.13-.25.25-.25s.13-.25.25-.5v-.5a.76.76,0,0,0-.12-.5c-.13-.13-.13-.25-.38-.38s-.25-.12-.37-.25h-.38a1.11,1.11,0,0,0-.63.13l-.25.25c-.12.12-.25.37-.37.5h0a.42.42,0,0,1,.12-.25.12.12,0,0,1-.12.12l.25-.25-.13.13.25-.25-.12.12a.46.46,0,0,0,.25-.12c-.13,0-.13,0-.25.12h.25a.45.45,0,0,1,.25.13.13.13,0,0,1-.13-.13l.25.25-.12-.12.25.25a.13.13,0,0,0-.13-.13.41.41,0,0,0,.13.25v.26a.45.45,0,0,1-.13.25c0-.13.13-.13.13-.25l-.25.25a.12.12,0,0,1,.12-.13l-.25.25.13-.12a.42.42,0,0,0-.25.12h.25a.79.79,0,0,0,.5-.12c.13-.13.25-.13.38-.38s.12-.25.25-.38v-.37a1.11,1.11,0,0,0-.13-.63l-.25-.25c-.25-.13-.38-.25-.63-.38Z" transform="translate(10.5 13.5)" fill="#00afbc"/><path d="M226.17,527h-.75a.91.91,0,0,0-.5.13c-.13,0-.26.12-.38.12a.13.13,0,0,0-.13.13c-.12.12-.37.25-.5.37a1.64,1.64,0,0,0-.5.76c-.13.12-.13.37-.13.62v.63c.13.13.13.38.26.5s.12.25.25.38.25.25.37.25.25.12.38.25h.63a.74.74,0,0,0,.5-.13c.12-.12.25-.12.37-.37s.13-.25.26-.38a1.41,1.41,0,0,0-.13-1l-.25-.25c-.13-.13-.38-.25-.5-.38h-.13a.41.41,0,0,1,.25.13c-.12,0-.12-.13-.12-.13l.25.25-.13-.12.25.25c0-.13-.12-.13-.12-.25a.46.46,0,0,0,.12.25v.25a.46.46,0,0,1-.12.25s0-.13.12-.13l-.25.25.13-.12-.25.25a.41.41,0,0,1,.25-.13.41.41,0,0,0-.25.13h.37a.76.76,0,0,0,.51-.13c.12-.12.25-.12.37-.37s.13-.25.25-.38a1.4,1.4,0,0,0-.12-1l-.25-.25c.12-.5-.13-.63-.38-.63Z" transform="translate(10.5 13.5)" fill="#00afbc"/><path d="M242.73,529.16a2.07,2.07,0,0,1,.88.13h.25a.49.49,0,0,1,.38.12,2.39,2.39,0,0,1,.87.25c.13,0,.25.13.38.13s.25.13.13,0,0,0,.12,0,.25.13.38.25a.12.12,0,0,1,.12.13s.13,0,.13.12,0,0-.13-.12c.13.12.25.25.38.25l.12.12h0c.13.13.13.25.26.38s.12.12.12.25,0-.13,0,0a2.25,2.25,0,0,1,.25.88,1.24,1.24,0,0,0,2.39-.63,5,5,0,0,0-2.64-3.64,12.51,12.51,0,0,0-4.26-1A1.35,1.35,0,0,0,241.6,528c-.12.63.38,1.13,1.13,1.13Z" transform="translate(10.5 13.5)" fill="#00afbc"/><path d="M241.85,529.16l2.64-.37c.5-.13.87-.13,1.38-.25a4.91,4.91,0,0,0,.62-.13.46.46,0,0,0,.38-.13h-.13c-.12,0-.25-.12-.37-.25s-.25-.37-.13-.12h0v.5c0,.5.13.88.13,1.38a5.62,5.62,0,0,0,1,2.38,1.39,1.39,0,0,0,1.76.5,1.38,1.38,0,0,0,.5-1.75c-.13-.25-.25-.38-.38-.63s-.12-.25-.12-.37c.12.12,0,0,0-.13a1.11,1.11,0,0,1-.13-.63.46.46,0,0,0-.12-.37c-.13-.38,0,.25,0-.13v-1.13a1.62,1.62,0,0,0-1.13-1.63,4.76,4.76,0,0,0-1.88,0c-.51.13-1,.13-1.51.25-1,.13-2,.38-3.14.5a1.25,1.25,0,0,0-.87,1.51,1.22,1.22,0,0,0,1.5,1Z" transform="translate(10.5 13.5)" fill="#00afbc"/><path d="M246.37,526.15h-.13c-.12,0-.25.13-.37.13h-.25c-.13.12-.26.12-.26.25l-.12.12c-.13.13-.25.25-.25.38s-.13.25-.13.5a.72.72,0,0,0,.13.5c0,.13.12.25.25.38l.25.25a1.11,1.11,0,0,0,.63.13h.37c.25,0,.38-.13.51-.38l.12-.13-.25.26c.13,0,.13-.13.25-.13a.45.45,0,0,0-.25.13h.25c.13,0,.25-.13.38-.26l.37-.37c.13-.13.13-.25.13-.5v-.51a.45.45,0,0,0-.13-.25,1,1,0,0,0-.5-.5.46.46,0,0,1-.25-.12,1.64,1.64,0,0,0-.75.12Z" transform="translate(10.5 13.5)" fill="#00afbc"/><path d="M226.8,521.89a9.1,9.1,0,0,1,1.88-.13h.75c.13,0,.38.13.5.13h.25s.26.12.13,0h0c.13,0,.13.12.25.12s.25.13.38.25-.13-.12,0,0l.12.13.25.25c.13.12-.12-.25,0,0l.13.12s0,.13.12.13c.13.25,0-.13,0,0s.13.25.13.38v.12a1.35,1.35,0,0,0,1.25,1.26,1.27,1.27,0,0,0,1.26-1.26,4.33,4.33,0,0,0-2.38-3.64,8.9,8.9,0,0,0-4.77-.5c-.63.13-1.26.5-1.26,1.26a1,1,0,0,0,1,1.38Z" transform="translate(10.5 13.5)" fill="#00afbc"/><path d="M226.92,521.13a37.13,37.13,0,0,0,5.27-.25l-1.25-1.25a12.76,12.76,0,0,0,.75,3,1.35,1.35,0,0,0,1.76.5,1.4,1.4,0,0,0,.5-1.76s-.13-.37,0-.12c0-.13,0-.13-.13-.25a.79.79,0,0,1-.12-.5c0-.13-.13-.38-.13-.51h0v-.37c0-.63-.5-1.38-1.25-1.26a37.27,37.27,0,0,1-5.27.25,1.35,1.35,0,0,0-1.26,1.26,1.09,1.09,0,0,0,1.13,1.25Z" transform="translate(10.5 13.5)" fill="#00afbc"/><path d="M232.82,520.76h0c-.13-1.76-2.64-1.76-2.51-.13v.13c.13,1.63,2.76,1.63,2.51,0h0c-.13-1.76-2.64-1.76-2.51-.13v.13c.13,1.63,2.76,1.63,2.51,0Z" transform="translate(10.5 13.5)" fill="#00afbc"/><path d="M247.37,529.29h.13a.74.74,0,0,0,.5-.13c.12,0,.25-.12.38-.25s.25-.25.25-.37.12-.26.12-.51v-.37c0-.25-.12-.38-.37-.5l-.26-.26a1.15,1.15,0,0,0-.62-.12h-.13a.79.79,0,0,0-.5.12c-.13,0-.25.13-.38.26s-.25.25-.25.37-.12.25-.12.5v.38c0,.25.12.38.37.5l.25.25a5.59,5.59,0,0,0,.63.13Z" transform="translate(10.5 13.5)" fill="#00afbc"/><path d="M255.15,536.31a162.79,162.79,0,0,1,24.71-1.13l-1.12-1.88c-2.14,3.26-5.9,5.52-9.16,7.65-3.52,2.26-7.15,4.4-10.92,6.4-1.38.76-.12,2.89,1.26,2.14a111.55,111.55,0,0,0,11.66-6.9c3.39-2.26,7-4.52,9.29-8a1.25,1.25,0,0,0-1.13-1.88A162.39,162.39,0,0,0,255,533.8c-1.38.13-1.38,2.64.13,2.51Z" transform="translate(10.5 13.5)" fill="#00afbc"/><path d="M271.71,536.44c-5.52.88-10,4.77-15.68,5.14-1.63.13-1.63,2.64,0,2.51,5.89-.38,10.54-4.39,16.31-5.27a1.3,1.3,0,0,0,.88-1.5,1.19,1.19,0,0,0-1.51-.88Z" transform="translate(10.5 13.5)" fill="#00afbc"/><path d="M260.92,533.43a39.43,39.43,0,0,0-3.51-4.52,28.32,28.32,0,0,0-4.14-3.39c-2.89-1.88-6.78-3.76-10.41-2.76-1.51.51-.88,2.89.62,2.39,3-.88,6.28,1,8.66,2.63a19.19,19.19,0,0,1,3.39,2.89,47.31,47.31,0,0,1,3.13,4,1.55,1.55,0,0,0,1.76.5c.5-.37.88-1.25.5-1.75Z" transform="translate(10.5 13.5)" fill="#00afbc"/><path d="M251.14,524.27c.25-4.77-3-8.66-3.77-13.3a1.24,1.24,0,0,0-1.5-.88,4.7,4.7,0,0,0-2.39,2.51,31.64,31.64,0,0,1-2.13,3.52,46.76,46.76,0,0,1-4.77,6.39c-1,1.26.76,3,1.76,1.76a72.89,72.89,0,0,0,4.77-6.15,27.3,27.3,0,0,0,2-3.26,18.49,18.49,0,0,0,.88-1.63c.13-.25.38-.88.63-1-.5-.25-1-.63-1.51-.88.76,4.26,3.89,8.15,3.64,12.54a1.22,1.22,0,1,0,2.39.38Z" transform="translate(10.5 13.5)" fill="#00afbc"/><path d="M230.18,533.68l-9.78-4.89c-1.38-.76-2.89-1.51-4.27-2.39a18.49,18.49,0,0,1-3.26-3.64c-1-1.25-3.13,0-2.13,1.26a24.45,24.45,0,0,0,3.26,3.89,27.27,27.27,0,0,0,4.52,2.76c3.38,1.75,6.9,3.51,10.41,5.27,1.51.62,2.76-1.51,1.25-2.26Z" transform="translate(10.5 13.5)" fill="#00afbc"/><path d="M210,522a18.5,18.5,0,0,1-1,3.77,16.17,16.17,0,0,0,2.39.62,3.6,3.6,0,0,1,.25-1.13v-.12c-.13.12-.13.25,0,.12s.12-.12.12-.25a.88.88,0,0,0,.25-.5c-.75-.25-1.5-.38-2.38-.63v-.25c0,.25-.13.5-.13.76s-.12.25-.12.37.12-.25,0-.12,0,.12-.13.25-.25.37-.37.62v.13c0,.13,0,0,.12-.13l-.12.13c-.13.13-.13.25-.25.25.62.5,1.25,1,2,1.51.13-.25.38-.51.51-.76l.12-.12h0c.13-.13.25-.25.25-.38a5.75,5.75,0,0,1,1.26-1.25,19.89,19.89,0,0,1-2.14-1.26,23.69,23.69,0,0,0-1,2.64c-.13.12,0,.5,0,.62a1.22,1.22,0,0,0,.5.63,1.38,1.38,0,0,0,1.38.13A10.64,10.64,0,0,0,214,525.4c-.75-.38-1.5-.63-2.26-1,0,.12-.12.37-.12.5s.12-.25,0-.13v.13c0,.12-.13.12-.13.25l.13-.13-.13.13a.12.12,0,0,1-.12.12.13.13,0,0,0-.13.13c-.12.12.25-.13.13,0s-.13.12-.25.12a1.29,1.29,0,1,0,1.25,2.26,3.42,3.42,0,0,0,1.88-2.63,1.27,1.27,0,0,0-.75-1.51,1.94,1.94,0,0,0-.88-.12,1.2,1.2,0,0,0-.75.62.13.13,0,0,1-.13.13h0c0,.13-.12.13-.25.25a1.69,1.69,0,0,1-.5.5l-.25.25c-.13,0-.25.13,0,0a.13.13,0,0,0-.13.13c-.12.12-.37.25-.5.38a20,20,0,0,0,1.88,1.38,22,22,0,0,0,1-2.64,1.11,1.11,0,0,0-.13-.88,1.19,1.19,0,0,0-.5-.62,1.15,1.15,0,0,0-1.51.25,14.3,14.3,0,0,0-2.5,3,1.22,1.22,0,0,0,.37,1.63,1.18,1.18,0,0,0,1.63-.13,4.74,4.74,0,0,0,1.13-1.63,6.9,6.9,0,0,0,.63-2.13,1.85,1.85,0,0,0-.25-.75,1.33,1.33,0,0,0-.63-.51,1.27,1.27,0,0,0-1.38.63,6,6,0,0,0-1,2.64,2.89,2.89,0,0,0,.12,1,1.88,1.88,0,0,0,.76.63,1.29,1.29,0,0,0,1.5-.88,21.15,21.15,0,0,0,1-3.76,2.92,2.92,0,0,0-.12-1,1.92,1.92,0,0,0-.75-.63,1.44,1.44,0,0,0-1,.13c0-.13-.25.13-.37.5Z" transform="translate(10.5 13.5)" fill="#00afbc"/><path d="M209,526.28c-.25,3.64,1.38,7,3,10.16a37.44,37.44,0,0,0,6,8,49.38,49.38,0,0,0,7.52,6c2.76,1.88,5.77,3.76,7.66,6.65.87,1.38,3,.12,2.13-1.26-3.39-5.27-9.54-7.65-14.05-11.79a35,35,0,0,1-6.15-7.4c-1.88-3-3.76-6.65-3.64-10.29a1.26,1.26,0,1,0-2.51-.12Z" transform="translate(10.5 13.5)" fill="#00afbc"/><path d="M224.79,550c-.5,1.75,1.51,2.63,2.63,3.64a25.32,25.32,0,0,1,3.14,3.26A22.68,22.68,0,0,1,234.2,565c.25,1.63,2.76.88,2.38-.63a22.44,22.44,0,0,0-3.26-8,17.86,17.86,0,0,0-2.76-3.39,18.62,18.62,0,0,0-1.63-1.51c-.38-.25-.63-.5-1-.75-.13-.13-.25-.13-.38-.25-.38-.25-.13-.25-.25.12.25-1.5-2.13-2.13-2.51-.62Z" transform="translate(10.5 13.5)" fill="#00afbc"/><path d="M224.79,550.49c-.63,1.88-3,2.76-4.52,3.51-2.13,1.13-4.26,2-6.39,3a1.23,1.23,0,0,0,.25,2.26,9.57,9.57,0,0,1,2,.63c.38.12.76.37,1.13.5a5.29,5.29,0,0,1,.88.5v-.5s-.63.63-.75.63a11.77,11.77,0,0,0-1.38,1.13,5.62,5.62,0,0,0-2,3.13c-.12.63.13,1.51.88,1.51a3.17,3.17,0,0,0,1.5,0c.38,0,.88-.25,1.13-.13.51.13.25-.12.25.25a2.67,2.67,0,0,1-.5,1.26,15,15,0,0,1-2.88,3.89,1.24,1.24,0,0,0,1.75,1.75,14.42,14.42,0,0,0,4.14-6.39,2.57,2.57,0,0,0-1-2.89c-1.25-.75-2.38,0-3.64-.13.25.51.63,1,.88,1.51.5-2.26,5.52-3.76,3.89-6.4a6.44,6.44,0,0,0-2.64-1.88,10,10,0,0,0-2.76-.88,13.38,13.38,0,0,1,.26,2.26c2.5-1.13,5-2.26,7.52-3.51,2-1,3.89-2.26,4.64-4.52.26-1.38-2.13-2-2.63-.5Z" transform="translate(10.5 13.5)" fill="#00afbc"/><path d="M215.38,573.2c-2.38,4.76-1.76,9.53.25,14.3,1.88,4.51,4.77,9,4,14-.25,1.63,2.13,2.26,2.38.63.75-5-1.25-9.41-3.26-13.8s-3.64-9.16-1.26-13.93c.76-1.38-1.38-2.63-2.13-1.25Z" transform="translate(10.5 13.5)" fill="#00afbc"/><path d="M262.18,545.35a62.68,62.68,0,0,1-4.14,6.77,29.62,29.62,0,0,1-2.64,3,19.26,19.26,0,0,0-2.88,2.64,4.36,4.36,0,0,0-.26,5.52,21.74,21.74,0,0,0,2.14,2.63,1.62,1.62,0,0,0,2.76-.5,1.24,1.24,0,1,0-2.39-.63v.13l.88-.88c.63.25.75.25.5,0l-.25-.25c-.12-.25-.37-.38-.5-.63s-.63-.63-.88-1a2.09,2.09,0,0,1-.62-1.63,2.31,2.31,0,0,1,1-1.64c.75-.75,1.63-1.38,2.38-2.13,3-2.88,5-6.52,7-10.16.75-1.38-1.38-2.63-2.13-1.25Z" transform="translate(10.5 13.5)" fill="#00afbc"/><path d="M251.14,582.61a4.94,4.94,0,0,1-1.38-.13,1.37,1.37,0,0,0-1.26.88,20.79,20.79,0,0,1-4.39,9.53,1.34,1.34,0,0,0,0,1.76,1.22,1.22,0,0,0,1.76,0,23.29,23.29,0,0,0,5-10.66,10.4,10.4,0,0,1-1.25.87A5,5,0,0,1,251,585a1.35,1.35,0,0,0,1.25-1.26c.13-.5-.5-1.12-1.12-1.12Z" transform="translate(10.5 13.5)" fill="#00afbc"/><path d="M244.49,592.39a36.64,36.64,0,0,0-2.39,5,8,8,0,0,0,.25,5.64,1.35,1.35,0,0,0,1.76.51,1.39,1.39,0,0,0,.5-1.76c-1.25-2.76.75-5.65,2-8.15a1.4,1.4,0,0,0-.5-1.76,1.3,1.3,0,0,0-1.63.5Z" transform="translate(10.5 13.5)" fill="#00afbc"/><path d="M248.63,588.88c4.76-2.89,9.91-4.27,15.3-5.4,4.39-.87,8.66-1.75,13.05-.12,8,2.88,12,11.29,11.29,19.44-.13,1.63,2.38,1.63,2.51,0A21.06,21.06,0,0,0,283.25,584a19.52,19.52,0,0,0-8.91-3.89c-4-.63-8.15.37-12,1.25-5.14,1.13-10.29,2.64-14.8,5.4a1.21,1.21,0,1,0,1.13,2.13Z" transform="translate(10.5 13.5)" fill="#00afbc"/><path d="M217.51,554.88A48.63,48.63,0,0,1,192.8,549c-1.38-.75-2.64,1.38-1.26,2.14a52.26,52.26,0,0,0,26,6.14c1.63.13,1.63-2.38,0-2.38Z" transform="translate(10.5 13.5)" fill="#00afbc"/><path d="M215,563.54a96.24,96.24,0,0,1-11.91-4.27c-1.89-.88-3.89-1.76-5.77-2.63a19.05,19.05,0,0,1-2.26-1.13c-.76-.38-1.26-1.26-2.14-1.38a1.12,1.12,0,0,0-1.38.62,1.61,1.61,0,0,0,0,1.51,1.33,1.33,0,0,0,1.13.63h.13c1.63-.13,1.63-2.76,0-2.51h-.13c.38.25.76.37,1.13.63,0,0,0-.13-.12-.13v1.25a.12.12,0,0,1,.12-.12c-.5.25-1,.38-1.38.63-.12-.13,0-.13.25.12s.38.25.51.38l1.12.75c.76.38,1.51.75,2.39,1.13l6,2.63a82.8,82.8,0,0,0,11.92,4.27c1.25.5,2-1.88.37-2.38Z" transform="translate(10.5 13.5)" fill="#00afbc"/><path d="M192.8,548.73c-.5-1.63-1.26-3.51-2.89-4.26-1.88-.76-3.51.25-5,1.38a9.14,9.14,0,0,0-3.27,4.26,7,7,0,0,0-.25,2.76,2.25,2.25,0,0,0,2,1.63,4.56,4.56,0,0,0,4.77-2.13,1.29,1.29,0,1,0-2.26-1.25c0,.12-.13.12-.13.25.13-.13,0-.13,0,0l-.37.37c.12-.12-.25.13-.25.13s-.13.12-.25.12h0c-.13,0-.38.13-.51.13h-.5s-.5-.13-.25-.13h0c.13.26.13.38.13.13h0v-.25a2.23,2.23,0,0,1,.12-.88,5,5,0,0,1,1-1.76,17.21,17.21,0,0,1,1.63-1.5,4.12,4.12,0,0,1,1.63-.88.9.9,0,0,1,.62.13c.13.12.26.12.26.25l.25.25c.12.12.12.12,0,.12a6.39,6.39,0,0,1,.87,2.14,1.37,1.37,0,0,0,1.51.87c.88-.62,1.25-1.25,1.13-1.88Z" transform="translate(10.5 13.5)" fill="#00afbc"/><path d="M184.27,545.35c-5.9-1.64-11.79-4.52-18.07-4.52a1.82,1.82,0,0,0-2,2.26,5,5,0,0,0,1.38,2.51,12.35,12.35,0,0,0,5.64,3,13.89,13.89,0,0,0,6.78.5c1.5-.38.87-2.89-.63-2.38a10.09,10.09,0,0,1-5.77-.63,17.84,17.84,0,0,1-2.76-1.26,3.92,3.92,0,0,1-1.13-.87c-.25-.26-.38-.63-.63-.88a.46.46,0,0,1-.12-.25c-.13-.38-.25-.13-.63.5,0,.12.88,0,1,0a9.61,9.61,0,0,1,2.64.37,31,31,0,0,1,4.51,1.13c3.14.88,6.28,2.14,9.41,2.89,1.26.38,1.88-2,.38-2.38Z" transform="translate(10.5 13.5)" fill="#00afbc"/><path d="M180.51,552.25a23.41,23.41,0,0,0-3,0,3.43,3.43,0,0,0-2.5,1.63,2.61,2.61,0,0,0,.37,3.13,2.78,2.78,0,0,0,2,.63H179a5.44,5.44,0,0,0,2-.63,2.89,2.89,0,0,0,1.25-1.75,1.23,1.23,0,1,0-2.38-.63v0l-.13.25.13-.13-.13.13-.12.13c-.13.12,0,0,.12,0a1.76,1.76,0,0,1-.5.25s.25-.13.13-.13h-.13a.46.46,0,0,0-.38.13h-1.75c-.13,0,.25.12,0,0h0c-.13-.13.12.25,0,.12s.12.25,0,.13v-.25c0-.13-.13.37,0,.12V555c-.13.25-.13.25,0,.12s.12-.12.12-.25h0s.25-.25,0-.13.13,0,.13-.12h.12s-.25.12-.12,0,.12,0,.25-.13h1.63a4.16,4.16,0,0,1,1.26.13,1.35,1.35,0,0,0,1.25-1.26,1.15,1.15,0,0,0-1.25-1.12Z" transform="translate(10.5 13.5)" fill="#00afbc"/><path d="M189.91,554.63h0V555c-.12.37,0-.13,0,.12s-.12.13-.12.25l-.13.13-.12.12c-.13,0-.13.13-.25.13a4.68,4.68,0,0,1-2.26.5h-1c-.25,0,.26.13-.12,0h-.25s-.25-.13-.25,0-.13-.13-.25-.13-.25-.25-.13-.12-.12-.13-.12-.13-.13-.12-.26-.12-.37-.38-.62-.5a2.74,2.74,0,0,0-1.76-.25,1.36,1.36,0,0,0-.88,1.5,1.2,1.2,0,0,0,1.51.88h-.25c.12,0,.12.12.25.12-.13-.12,0,0,.12.13l.25.25a9.5,9.5,0,0,0,1.51.88,7.62,7.62,0,0,0,3.39.12,4.46,4.46,0,0,0,3-1.38,3.47,3.47,0,0,0,1-3.26,1.3,1.3,0,0,0-1.5-.88c-.51,0-.88.63-.76,1.26Z" transform="translate(10.5 13.5)" fill="#00afbc"/><path d="M249.38,567.3c3.89,1,7.65,0,11.16-1.38s6.65-2.63,9.92-4.14c6.39-2.89,12.54-6.65,17.06-12,1-1.26-.76-3-1.76-1.76-4.14,5-9.78,8.41-15.56,11.17-2.88,1.38-5.89,2.63-8.9,3.76-3.52,1.38-7.4,2.88-11.17,1.88a1.31,1.31,0,0,0-.75,2.51Z" transform="translate(10.5 13.5)" fill="#00afbc"/><path d="M287.89,548.61c-.12-1.38-.12-2.89-.25-4.27v-1.25c0,.12.13-.13,0,0s-.12,0,0,0h.13a1.53,1.53,0,0,1,.75-.13l1.88-.37a2.64,2.64,0,0,0,.5-.13c.26,0,.38.25.51.38,1,1,2,2,3.13,3a1.24,1.24,0,0,0,1.76-1.76,22.46,22.46,0,0,1-1.76-1.76c-.5-.5-1.13-1.12-1.75-1.63a2.88,2.88,0,0,0-2.64-.62c-.75.12-1.63.37-2.38.5a3.21,3.21,0,0,0-1.88.88,2.9,2.9,0,0,0-.76,2.25c.13,1.64.25,3.39.25,5a1.27,1.27,0,0,0,1.26,1.26c.75-.13,1.38-.76,1.25-1.38Z" transform="translate(10.5 13.5)" fill="#00afbc"/><path d="M293.91,543.21a42.69,42.69,0,0,1,5-7.65l.76-.75a.41.41,0,0,1,.25-.13c.12,0,.12-.12.25-.12s-.13,0,.12,0c0,0,.38-.13.25-.13h.38c-.13,0,.25.13.13,0s.12,0,.12.13,0-.13,0,0h0v.37c0-.12,0,.25-.12.25,0,.25,0,.25-.13.38a17,17,0,0,1-1.25,1.88,24.86,24.86,0,0,1-3.39,3.77,1.24,1.24,0,0,0,1.75,1.75,30.63,30.63,0,0,0,3.77-4.26c1-1.38,2.38-3.14,1.63-4.9s-3.14-2.25-4.77-1.25a5.76,5.76,0,0,0-1.75,1.76,28,28,0,0,0-1.76,2.38,48,48,0,0,0-3.26,5.39,1.27,1.27,0,0,0,.5,1.76,1.37,1.37,0,0,0,1.5-.63Z" transform="translate(10.5 13.5)" fill="#00afbc"/><path d="M299.06,542.59a5.22,5.22,0,0,1,.88-.88l.12-.13h0c.13,0,.13-.12.25-.12s.38-.25.5-.38a.94.94,0,0,1,.51-.25c.12,0,.12-.13.25-.13s.25-.12.12,0c.38-.12.76-.25,1.26-.37-.5-.38-1-.76-1.63-1.26V541h0c-.13.38-.13.76-.25,1s0,.12-.13.25-.13.25,0,.12l-.13.13c0,.13-.12.13-.12.25s-.13.25-.25.38l-.13.12h0c-.12.13-.25.25-.25.38l-.12.12h0c-.13.13-.25.13-.38.26l-.38.25c.13,0,.13-.13.13,0h-.13c-.12,0-.12,0-.25.12s-.25.13-.5.13a1.23,1.23,0,1,0,.63,2.38,5.33,5.33,0,0,0,3.76-2.76,8.66,8.66,0,0,0,1-5,1.31,1.31,0,0,0-1.64-1.25,9.76,9.76,0,0,0-4.76,2.88,1.22,1.22,0,0,0,0,1.76,1.07,1.07,0,0,0,1.63.13Z" transform="translate(10.5 13.5)" fill="#00afbc"/><path d="M300.19,546.35c.5-.25.88-.38,1.38-.63a2.31,2.31,0,0,1,.62-.25c.13-.12.13,0-.12,0h0c-.13,0-.25-.12-.38-.25a1,1,0,0,1-.25-.63v.13h0V545c0,.25-.12.38-.12.63s0,.12-.13.25-.25.37,0,0a6.59,6.59,0,0,0-.5,1c0,.13-.13.13-.13.25s.13-.25,0,0l-.37.38-.38.37h0c-.12,0-.12.13-.25.13.25-.13.25-.13.13,0h-.13c-.25.13.38,0,0,0h.13c-.13,0-.13,0,.12.13-.12-.13,0,0,.13.12s.12.25.12.13a1.29,1.29,0,1,0-2.26,1.25,2.06,2.06,0,0,0,3,.5,7.21,7.21,0,0,0,1.89-2,5.84,5.84,0,0,0,1-2.39c0-.12.13-.37.13-.5a3.57,3.57,0,0,0,0-1.13,1.74,1.74,0,0,0-1.64-1.25,5,5,0,0,0-1.75.62l-1.51.76a1.76,1.76,0,0,0-.62.75,1.41,1.41,0,0,0,.12,1,1.56,1.56,0,0,0,1.76.38Z" transform="translate(10.5 13.5)" fill="#00afbc"/><path d="M291,546c.63,1.38,1.38,2.76,2.88,3.26a2.86,2.86,0,0,0,3.64-1.88,1.23,1.23,0,1,0-2.38-.62c0,.12-.13.25,0-.13l-.13.13c.13-.26.13-.13,0-.13-.25.25.25-.13.13,0l-.13.13c-.25.12.25-.13.13,0s-.25.12-.38.12h.13a.48.48,0,0,1-.38-.12c-.25-.13.25.12.13,0s-.13-.13-.25-.13-.25-.13,0,0a.45.45,0,0,0-.25-.13c-.13-.12-.26-.25-.26-.37.13.12.13.25.13.12v-.12c0-.13-.13-.13-.13-.25s-.12-.25-.25-.38-.25-.63-.37-.88a1.79,1.79,0,0,0-.76-.62,1.41,1.41,0,0,0-1,.12,1.34,1.34,0,0,0-.63.75A2.68,2.68,0,0,0,291,546Z" transform="translate(10.5 13.5)" fill="#00afbc"/><path d="M295.42,551.24H294c-.5,0-1,.13-1.51.13H289.9a2.83,2.83,0,0,0-1,.12,1.88,1.88,0,0,0-.63.76,1.19,1.19,0,0,0,.88,1.5,20.52,20.52,0,0,0,6.77-.12,1.25,1.25,0,0,0,.88-1.51,1.16,1.16,0,0,0-1.38-.88Z" transform="translate(10.5 13.5)" fill="#00afbc"/><path d="M288.14,551.49c-4.64,4.27-9.4,8.41-14.92,11.42-5.78,3.14-11.92,5.9-17.94,8.78-1.51.75-.13,2.89,1.25,2.13,6.15-3,12.42-5.77,18.44-9.15,5.52-3.14,10.29-7.28,14.93-11.55,1.26-.87-.5-2.76-1.76-1.63Z" transform="translate(10.5 13.5)" fill="#00afbc"/><path d="M257.78,573.07a1.26,1.26,0,0,0,0-2.51,1.26,1.26,0,0,0,0,2.51Z" transform="translate(10.5 13.5)" fill="#00afbc"/><path d="M340.68,520.86a83.27,83.27,0,0,0-7.16-20.32,77,77,0,0,0-5.89-9.79c-1.76-2.38-3.26-5.27-6-6.4-7.28-3-16.19-4-24-4.64-16.31-1.5-32.75-.5-49.06-.62-21.83-.26-43.66-2.76-65.48-2.76-3.27,0-6.4,0-9.66.12-14.56.63-31.62,2.76-43.91,11.17-5.27,3.63-8.66,13.17-11,18.94A90.79,90.79,0,0,0,112.6,529c-3.51,27,4.27,54.69,19.45,77.28a88.89,88.89,0,0,0,9.66,12.16c4.64,4.65,11.16,11.42,17.69,13,9.91,2.64,21.57,2.39,31.86,3.51,17.31,1.89,34.75,3.77,52.19,3.14,19.07-.75,37.89-4.39,56.45-8.66,5.4-1.25,10.92-2.63,15.18-6,6-4.89,13.3-13.17,16.94-19.94,4.26-8.16,6.4-17.32,7.9-26.48C343.06,558.37,344.56,539.18,340.68,520.86Z" transform="translate(10.5 13.5)" fill="#c7f8ff" opacity="0.4"/></g><rect x="226.5" y="617.48" width="493" height="348.9" rx="14.35"/><rect x="257.19" y="639.31" width="430.74" height="304.84" fill="#fff"/><g id="power_tv_on-2" data-name="power_tv_on"><path d="M306.57,695.6c-4.16,6.57-4.38,14.67-4.16,22.55.44,13.8,2.41,27.37,4.16,41,3.94,27.59,7.66,55.4,11.6,83,.44,3.06.88,6.35,3.29,8.32,1.75,1.75,4.38,2.19,6.79,2.41,16.86,2.62,33.94,2.84,51,3.28,62.4,1.32,124.81,2.85,187.22,4.16,12.26.22,25.61.22,35.25-7.44,12.26-9.64,13.58-27.37,13.79-43.14.66-37.23,1.54-74.23,2.19-111.46a24,24,0,0,0-.65-6.78c-1.1-3.07-3.73-5.26-6.35-6.79-8.76-5-19.49-4.82-29.56-4.6l-227.95,7.88c-9.2.22-18.18.66-27.37-.22C318.17,687.28,311.39,687.93,306.57,695.6Z" transform="translate(10.5 13.5)" fill="#c7f8ff"/><path d="M490.5,731.73c-4.6-2-10.29-2.63-14.89-.66-4.38,2-5.47,7.66-3.06,11.6,2.19,4,7.22,7,11.82,6.57a11.57,11.57,0,0,0,9.86-7.88,9.59,9.59,0,0,0-.66-8.1,7.65,7.65,0,0,0-6.57-3.94c-2.85,0-2.85,4.38,0,4.38a5.73,5.73,0,0,1,1.53.43,3.74,3.74,0,0,1,1.32,1.32,6.9,6.9,0,0,1,.43,4.16,6.8,6.8,0,0,1-5.69,5c-2.63.43-5.91-1.32-7.66-3.51a4.23,4.23,0,0,1-1.1-3.5,2.66,2.66,0,0,1,1.53-2.63c1.54-.88,3.51-.88,5.26-.88a12.71,12.71,0,0,1,5.69,1.32,2.42,2.42,0,0,0,3.07-.88,2.14,2.14,0,0,0-.88-2.84Z" transform="translate(10.5 13.5)" fill="#00afbc"/><path d="M466.2,721.87a8.45,8.45,0,0,0-9-3.5,8.21,8.21,0,0,0-5.91,7.44,9.65,9.65,0,0,0,1.31,5.48,14.32,14.32,0,0,0,2.63,3.72,7.57,7.57,0,0,0,9.41.22c3.29-2.41,4.38-6.57,4.16-10.51a2.19,2.19,0,1,0-4.37,0v2.63a1.3,1.3,0,0,1-.22.87c0,.22-.22.66-.22.88s0,.22-.22.44h0c-.22.22-.22.43-.44.87,0,.22-.22.22-.22.44.22-.22,0,0,0,.22l-.44.44-.22.22h0c-.21.22-.43.22-.65.43-.44.22-.22,0,0,0-.22,0-.22.22-.44.22h-.44c-.22.22.22,0,0,0h-1.31c-.22,0-.22,0-.44-.22.44.22-.22,0-.22-.21a.22.22,0,0,1-.22-.22s-.44-.22-.22-.22l-.22-.22-.22-.22-.21-.22s-.22-.44-.22-.22c.22.22,0,0,0-.22-.22-.22-.22-.44-.44-.44-.22-.21-.22-.43-.44-.65,0-.22-.22-.22-.22-.44h0c-.22-.66-.44-1.31-.65-2v-1.32a.82.82,0,0,1,.21-.65c0-.22,0-.22.22-.44,0-.22-.22.22,0-.22.22-.22.22-.44.44-.66l.22-.21s.66-.44.22-.22c.22-.22.44-.44.66-.44a.21.21,0,0,0,.21-.22c-.43.22.22,0,.22,0h.44c.44-.22-.22,0,.22,0h.88c.22,0,.43,0,.43.22.22,0,.22,0,.44.22,0,0,.44.22.22,0,.22.22.44.22.88.44h0c.22,0,.22.21.44.43l.21.22c.22.44-.21-.22.22.22a2.72,2.72,0,0,0,3.07.88,3,3,0,0,0,.44-3.29Z" transform="translate(10.5 13.5)" fill="#00afbc"/><path d="M480.65,736.76a2.38,2.38,0,0,0-1.75,0,3.55,3.55,0,0,0-1.54.88l-.21.22c-.22.22-.44.44-.44.65a4.14,4.14,0,0,0-.44,1.76,3.41,3.41,0,0,0,1.75,2.84,4.17,4.17,0,0,0,2.85.44,3.57,3.57,0,0,0,1.53-.88l.22-.21c.22-.22.22-.44.44-.44.22-.22.22-.44.44-.88v-.87a1.32,1.32,0,0,0-.22-.88c-.22-.22-.22-.44-.66-.66-.22-.22-.44-.22-.66-.43h-.65a2.06,2.06,0,0,0-1.1.21l-.44.44c-.22.22-.43.66-.65.88h0a.77.77,0,0,1,.22-.44.22.22,0,0,1-.22.22l.43-.44-.21.22.43-.44-.22.22A.77.77,0,0,0,480,739c-.22,0-.22,0-.44.22H480a.77.77,0,0,1,.44.22.22.22,0,0,1-.22-.22l.44.44-.22-.22.44.44a.22.22,0,0,0-.22-.22.77.77,0,0,0,.22.44v.44a.77.77,0,0,1-.22.43c0-.22.22-.22.22-.43l-.44.43a.22.22,0,0,1,.22-.22l-.44.44.22-.22a.77.77,0,0,0-.44.22h.44a1.32,1.32,0,0,0,.88-.22c.21-.22.43-.22.65-.65.22-.22.22-.44.44-.66V739a2,2,0,0,0-.22-1.09l-.44-.44c-.43-.22-.65-.44-1.09-.66Z" transform="translate(10.5 13.5)" fill="#00afbc"/><path d="M459.63,725.81h-1.32a1.65,1.65,0,0,0-.87.22c-.22,0-.44.22-.66.22a.22.22,0,0,0-.22.22c-.22.22-.65.44-.87.66a2.77,2.77,0,0,0-.88,1.31,1.65,1.65,0,0,0-.22,1.1v1.09c.22.22.22.66.44.88s.22.44.44.65.44.44.65.44c.22.22.44.22.66.44h1.1a1.3,1.3,0,0,0,.87-.22c.22-.22.44-.22.66-.66.22-.21.22-.43.44-.65a2.45,2.45,0,0,0-.22-1.75l-.44-.44c-.22-.22-.66-.44-.88-.66h-.21a.77.77,0,0,1,.43.22.22.22,0,0,1-.22-.22l.44.44-.22-.22.44.44c0-.22-.22-.22-.22-.44a.77.77,0,0,0,.22.44v.44a.77.77,0,0,1-.22.43A.22.22,0,0,1,459,730l-.44.44.22-.22-.44.44a.77.77,0,0,1,.44-.22.77.77,0,0,0-.44.22H459a1.32,1.32,0,0,0,.88-.22c.22-.22.43-.22.65-.65.22-.22.22-.44.44-.66a2.45,2.45,0,0,0-.22-1.75l-.44-.44c.22-.88-.21-1.1-.65-1.1Z" transform="translate(10.5 13.5)" fill="#00afbc"/><path d="M488.53,729.54a3.67,3.67,0,0,1,1.53.22h.44a.83.83,0,0,1,.66.21,4,4,0,0,1,1.53.44c.22,0,.44.22.66.22,0,0,.44.22.22,0-.44-.22,0,0,.22,0s.44.22.65.44a912233963417.25,912233963417.25,0,0,1,.44.44c.22,0,0,0-.22-.22.22.22.44.44.66.44l.22.22c.44.43-.22-.22,0,0s.22.43.44.65c0,.22.22.22.22.44.21.44,0-.22,0,0a4.2,4.2,0,0,1,.43,1.53,2.15,2.15,0,1,0,4.16-1.09,8.66,8.66,0,0,0-4.59-6.35,21.69,21.69,0,0,0-7.45-1.75,2.36,2.36,0,0,0-2.19,2.19c-.22,1.09.66,2,2,2Z" transform="translate(10.5 13.5)" fill="#00afbc"/><path d="M487,729.54l4.6-.66c.87-.22,1.53-.22,2.41-.44a9.74,9.74,0,0,0,1.09-.22.81.81,0,0,0,.66-.22h-.22c-.22,0-.44-.22-.66-.43-.22-.44-.44-.66-.22-.22h0v.87c0,.88.22,1.54.22,2.41a10,10,0,0,0,1.75,4.16,2.26,2.26,0,0,0,3.95-2.19c-.22-.44-.44-.65-.66-1.09,0-.22-.22-.44-.22-.66.22.22,0,0,0-.22a2,2,0,0,1-.22-1.09.81.81,0,0,0-.22-.66c-.22-.66,0,.44,0-.22v-2a2.84,2.84,0,0,0-2-2.85c-1.09-.43-2.19,0-3.28,0-.88.22-1.76.22-2.63.44-1.75.22-3.51.66-5.48.88a2.26,2.26,0,0,0,1.1,4.38Z" transform="translate(10.5 13.5)" fill="#00afbc"/><path d="M494.88,724.28h-.22c-.22,0-.43.22-.65.22h-.44c-.22.22-.44.22-.44.44l-.22.22c-.22.22-.44.44-.44.65-.22.22-.22.44-.22.88a1.32,1.32,0,0,0,.22.88c0,.21.22.43.44.65l.44.44a2,2,0,0,0,1.09.22h.66c.44,0,.66-.22.88-.66l.22-.22-.44.44c.22,0,.22-.22.44-.22a.77.77,0,0,0-.44.22h.44c.21,0,.43-.22.65-.44l.66-.65c.22-.22.22-.44.22-.88v-.87a.77.77,0,0,0-.22-.44,1.72,1.72,0,0,0-.88-.88.73.73,0,0,1-.43-.22,2.79,2.79,0,0,0-1.32.22Z" transform="translate(10.5 13.5)" fill="#00afbc"/><path d="M460.72,716.84a16.55,16.55,0,0,1,3.29-.22h1.31c.22,0,.66.22.88.22h.43s.44.22.22,0h0c.22,0,.22.22.44.22.22.21.44.21.66.43h0l.22.22.44.44c.21.22-.22-.44,0,0l.21.22a.22.22,0,0,0,.22.22c.22.44,0-.22,0,0s.22.44.22.66v.21a2.36,2.36,0,0,0,2.19,2.19,2.19,2.19,0,0,0,2.19-2.19,7.55,7.55,0,0,0-4.16-6.35c-2.63-1.31-5.47-1.09-8.32-.87-1.09.22-2.19.87-2.19,2.19a1.71,1.71,0,0,0,1.75,2.41Z" transform="translate(10.5 13.5)" fill="#00afbc"/><path d="M460.94,715.52a64.42,64.42,0,0,0,9.2-.44L468,712.89a23.41,23.41,0,0,0,1.31,5.26c.44,1.09,2,1.31,3.07.88a2.43,2.43,0,0,0,.87-3.07s-.21-.66,0-.22c0-.22,0-.22-.21-.44a1.3,1.3,0,0,1-.22-.87c0-.22-.22-.66-.22-.88h0v-.66c0-1.09-.88-2.4-2.19-2.18a65.91,65.91,0,0,1-9.2.43,2.36,2.36,0,0,0-2.19,2.19,1.89,1.89,0,0,0,2,2.19Z" transform="translate(10.5 13.5)" fill="#00afbc"/><path d="M471.23,714.87h0c-.22-3.07-4.6-3.07-4.38-.22v.22c.22,2.84,4.82,2.84,4.38,0h0c-.22-3.07-4.6-3.07-4.38-.22v.22c.22,2.84,4.82,2.84,4.38,0Z" transform="translate(10.5 13.5)" fill="#00afbc"/><path d="M496.63,729.76h.22a1.32,1.32,0,0,0,.88-.22c.22,0,.44-.22.66-.44s.43-.44.43-.66c.22-.22.22-.44.22-.87v-.66c0-.44-.22-.66-.65-.88l-.44-.43a2,2,0,0,0-1.1-.22h-.22a1.3,1.3,0,0,0-.87.22c-.22,0-.44.21-.66.43s-.44.44-.44.66c-.22.22-.22.44-.22.88v.65c0,.44.22.66.66.88l.44.44a9.74,9.74,0,0,0,1.09.22Z" transform="translate(10.5 13.5)" fill="#00afbc"/><path d="M510.21,742a283.27,283.27,0,0,1,43.14-2c-.66-1.1-1.32-2.19-2-3.29-3.73,5.7-10.3,9.64-16,13.36q-9.2,5.91-19,11.17c-2.41,1.31-.22,5,2.19,3.72a190.34,190.34,0,0,0,20.37-12c5.91-4,12.26-7.89,16.2-14a2.18,2.18,0,0,0-2-3.28,284.56,284.56,0,0,0-43.14,2c-2.41.22-2.41,4.6.22,4.38Z" transform="translate(10.5 13.5)" fill="#00afbc"/><path d="M539.11,742.24c-9.63,1.53-17.51,8.32-27.37,9-2.84.22-2.84,4.6,0,4.38,10.29-.65,18.4-7.66,28.47-9.19a2.26,2.26,0,0,0,1.53-2.63,2.08,2.08,0,0,0-2.63-1.53Z" transform="translate(10.5 13.5)" fill="#00afbc"/><path d="M520.28,737c-2-2.63-3.72-5.47-6.13-7.88a47.46,47.46,0,0,0-7.22-5.91c-5-3.29-11.83-6.57-18.18-4.82-2.63.87-1.53,5,1.1,4.16,5.25-1.53,10.94,1.75,15.1,4.6a32.55,32.55,0,0,1,5.92,5,85.4,85.4,0,0,1,5.47,7,2.71,2.71,0,0,0,3.07.88c.87-.66,1.53-2.19.87-3.07Z" transform="translate(10.5 13.5)" fill="#00afbc"/><path d="M503.2,721c.44-8.32-5.25-15.11-6.57-23.21a2.17,2.17,0,0,0-2.62-1.54c-2.19.88-3.07,2.41-4.16,4.38a56.83,56.83,0,0,1-3.73,6.13,81.17,81.17,0,0,1-8.32,11.17c-1.75,2.19,1.32,5.26,3.07,3.07a131.25,131.25,0,0,0,8.32-10.73,49.34,49.34,0,0,0,3.5-5.7c.44-.87,1.1-1.75,1.54-2.84.21-.44.65-1.54,1.09-1.75-.88-.44-1.75-1.1-2.63-1.54,1.32,7.45,6.79,14.24,6.35,21.9-.44,3.5,3.94,3.5,4.16.66Z" transform="translate(10.5 13.5)" fill="#00afbc"/><path d="M466.63,737.42l-17.07-8.54c-2.41-1.31-5-2.63-7.45-4.16a31.68,31.68,0,0,1-5.69-6.35c-1.75-2.19-5.48,0-3.73,2.19a42.9,42.9,0,0,0,5.7,6.79,47.08,47.08,0,0,0,7.88,4.81c5.91,3.07,12,6.14,18.18,9.2,2.62,1.1,4.81-2.63,2.18-3.94Z" transform="translate(10.5 13.5)" fill="#00afbc"/><path d="M431.38,717.06a32.8,32.8,0,0,1-1.75,6.56,29.06,29.06,0,0,0,4.16,1.1,6.36,6.36,0,0,1,.44-2v-.22c-.22.22-.22.44,0,.22,0-.22.22-.22.22-.44a1.65,1.65,0,0,0,.43-.88c-1.31-.43-2.62-.65-4.16-1.09v-.44c0,.44-.22.88-.22,1.32,0,.21-.21.43-.21.65s.21-.44,0-.22c0,.22,0,.22-.22.44-.22.44-.44.66-.66,1.1v.22c0,.21,0,0,.22-.22l-.22.22c-.22.21-.22.43-.44.43,1.1.88,2.19,1.76,3.51,2.63.21-.44.65-.87.87-1.31l.22-.22h0c.22-.22.44-.44.44-.66a10.57,10.57,0,0,1,2.19-2.19,31.94,31.94,0,0,1-3.72-2.19,39.39,39.39,0,0,0-1.76,4.6c-.22.22,0,.88,0,1.1a2.21,2.21,0,0,0,.88,1.09,2.39,2.39,0,0,0,2.41.22,19.17,19.17,0,0,0,4.38-3.94c-1.32-.66-2.63-1.1-3.94-1.75,0,.21-.22.65-.22.87s.22-.44,0-.22v.22c0,.22-.22.22-.22.44l.22-.22-.22.22a.22.22,0,0,1-.22.22.22.22,0,0,0-.22.22c-.22.22.44-.22.22,0-.22,0-.22.22-.44.22a2.25,2.25,0,0,0,2.19,3.94,6,6,0,0,0,3.29-4.6,2.24,2.24,0,0,0-1.32-2.63,3.22,3.22,0,0,0-1.53-.22,2.1,2.1,0,0,0-1.31,1.1.22.22,0,0,1-.22.22h0c0,.22-.22.22-.44.43s-.44.66-.88.88l-.44.44c-.21,0-.43.22,0,0a.21.21,0,0,0-.21.22c-.22.22-.66.44-.88.65a29.81,29.81,0,0,0,3.28,2.41,38.71,38.71,0,0,0,1.76-4.6,2,2,0,0,0-.22-1.53,2.17,2.17,0,0,0-.88-1.09,2,2,0,0,0-2.63.43,25.9,25.9,0,0,0-4.38,5.26,2.15,2.15,0,0,0,.66,2.85,2.06,2.06,0,0,0,2.85-.22,8.44,8.44,0,0,0,2-2.85,11.93,11.93,0,0,0,1.09-3.72,3.25,3.25,0,0,0-.43-1.32,2.23,2.23,0,0,0-1.1-.87,2.21,2.21,0,0,0-2.41,1.09,10.75,10.75,0,0,0-1.75,4.6,4.76,4.76,0,0,0,.22,1.75,3.2,3.2,0,0,0,1.31,1.1,2.25,2.25,0,0,0,2.63-1.53,36.32,36.32,0,0,0,1.75-6.57,4.76,4.76,0,0,0-.22-1.75,3.2,3.2,0,0,0-1.31-1.1,2.45,2.45,0,0,0-1.75.22c0-.22-.44.22-.66.88Z" transform="translate(10.5 13.5)" fill="#00afbc"/><path d="M429.63,724.5c-.44,6.35,2.41,12.26,5.25,17.74a65.42,65.42,0,0,0,10.51,14,86.53,86.53,0,0,0,13.14,10.51c4.82,3.29,10.08,6.57,13.36,11.61,1.53,2.41,5.26.22,3.72-2.19-5.91-9.2-16.64-13.36-24.52-20.59a61,61,0,0,1-10.73-12.92c-3.29-5.25-6.57-11.6-6.35-17.95.22-3.07-4.16-3.07-4.38-.22Z" transform="translate(10.5 13.5)" fill="#00afbc"/><path d="M457.22,765.89c-.88,3.06,2.63,4.59,4.6,6.35a44.29,44.29,0,0,1,5.47,5.69,39.43,39.43,0,0,1,6.35,14.23c.44,2.85,4.82,1.53,4.16-1.09a39.27,39.27,0,0,0-5.69-14,31.43,31.43,0,0,0-4.82-5.91,35.12,35.12,0,0,0-2.84-2.63c-.66-.43-1.1-.87-1.76-1.31-.22-.22-.43-.22-.65-.44-.66-.44-.22-.44-.44.22.44-2.63-3.72-3.72-4.38-1.09Z" transform="translate(10.5 13.5)" fill="#00afbc"/><path d="M457.22,766.76c-1.1,3.29-5.26,4.82-7.88,6.13-3.73,2-7.45,3.51-11.17,5.26-1.75.65-1.32,3.72.44,3.94a16.88,16.88,0,0,1,3.5,1.09c.66.22,1.31.66,2,.88a9.43,9.43,0,0,1,1.53.88v-.88s-1.09,1.09-1.31,1.09a23.21,23.21,0,0,0-2.41,2,9.9,9.9,0,0,0-3.5,5.47c-.22,1.09.22,2.63,1.53,2.63a5.32,5.32,0,0,0,2.63,0c.66,0,1.53-.44,2-.22.87.22.44-.22.44.44a4.65,4.65,0,0,1-.88,2.19,25.88,25.88,0,0,1-5,6.78c-2,2,1.1,5,3.07,3.07,3.07-3.07,6.13-6.79,7.23-11.17.43-2,0-3.94-1.76-5-2.19-1.32-4.16,0-6.35-.22.44.87,1.1,1.75,1.54,2.62.87-3.94,9.63-6.56,6.79-11.16a11.21,11.21,0,0,0-4.6-3.29,18.09,18.09,0,0,0-4.82-1.53,24,24,0,0,1,.44,3.94c4.38-2,8.76-3.94,13.14-6.13,3.5-1.75,6.78-3.94,8.1-7.88.44-2.41-3.72-3.51-4.6-.88Z" transform="translate(10.5 13.5)" fill="#00afbc"/><path d="M440.8,806.4c-4.16,8.32-3.07,16.64.43,25,3.29,7.88,8.33,15.76,7,24.52-.44,2.85,3.72,3.94,4.16,1.1,1.32-8.76-2.19-16.43-5.69-24.09-3.72-7.88-6.35-16-2.19-24.31,1.31-2.4-2.41-4.59-3.72-2.18Z" transform="translate(10.5 13.5)" fill="#00afbc"/><path d="M522.47,757.78a107.48,107.48,0,0,1-7.22,11.83,50.23,50.23,0,0,1-4.6,5.25c-1.75,1.54-3.72,2.85-5,4.6a7.6,7.6,0,0,0-.44,9.64,37.73,37.73,0,0,0,3.73,4.59,2.81,2.81,0,0,0,4.81-.87c.88-2.63-3.28-3.94-4.16-1.1v.22l1.54-1.53c1.09.44,1.31.44.87,0l-.44-.44c-.22-.44-.65-.65-.87-1.09-.44-.66-1.1-1.1-1.53-1.75-.66-.88-1.32-1.76-1.1-2.85a4,4,0,0,1,1.75-2.85c1.32-1.31,2.85-2.41,4.16-3.72,5.26-5,8.76-11.39,12.26-17.74,1.32-2.41-2.4-4.59-3.72-2.19Z" transform="translate(10.5 13.5)" fill="#00afbc"/><path d="M503.2,822.82a9,9,0,0,1-2.41-.22,2.4,2.4,0,0,0-2.19,1.53,36.2,36.2,0,0,1-7.66,16.64,2.33,2.33,0,0,0,0,3.07,2.13,2.13,0,0,0,3.07,0,40.72,40.72,0,0,0,8.75-18.61,20,20,0,0,1-2.18,1.53,8.88,8.88,0,0,1,2.4.22,2.36,2.36,0,0,0,2.19-2.19c.22-.88-.87-2-2-2Z" transform="translate(10.5 13.5)" fill="#00afbc"/><path d="M491.6,839.9a62.15,62.15,0,0,0-4.16,8.76,13.81,13.81,0,0,0,.44,9.85c.43,1.09,2,1.31,3.06.88a2.43,2.43,0,0,0,.88-3.07c-2.19-4.82,1.31-9.85,3.5-14.23a2.42,2.42,0,0,0-.88-3.07,2.26,2.26,0,0,0-2.84.88Z" transform="translate(10.5 13.5)" fill="#00afbc"/><path d="M498.82,833.77c8.32-5,17.3-7.45,26.72-9.42,7.66-1.53,15.11-3.06,22.77-.22,14,5,21,19.71,19.71,33.94-.22,2.85,4.16,2.85,4.38,0,1.31-12.48-3.29-25-13.14-32.84a34.1,34.1,0,0,0-15.55-6.79c-7-1.1-14.23.66-21,2.19-9,2-18,4.6-25.84,9.41-2.62,1.54-.44,5.26,2,3.73Z" transform="translate(10.5 13.5)" fill="#00afbc"/><path d="M444.52,774.43a84.93,84.93,0,0,1-43.14-10.3c-2.41-1.31-4.6,2.41-2.19,3.73a91.24,91.24,0,0,0,45.33,10.73c2.85.21,2.85-4.16,0-4.16Z" transform="translate(10.5 13.5)" fill="#00afbc"/><path d="M440.14,789.53a166.71,166.71,0,0,1-20.8-7.44c-3.29-1.53-6.79-3.07-10.08-4.6a33.66,33.66,0,0,1-3.94-2c-1.31-.66-2.19-2.19-3.72-2.41a2,2,0,0,0-2.41,1.1,2.77,2.77,0,0,0,0,2.62,2.31,2.31,0,0,0,2,1.1h.22c2.85-.22,2.85-4.82,0-4.38h-.22c.66.44,1.32.66,2,1.09a.21.21,0,0,0-.22-.21v2.19a.22.22,0,0,1,.22-.22,24.33,24.33,0,0,0-2.41,1.09c-.21-.22,0-.22.44.22.22.22.66.44.88.66l2,1.31c1.31.66,2.63,1.31,4.16,2l10.51,4.6a147.22,147.22,0,0,0,20.8,7.44c2.19.88,3.51-3.28.66-4.16Z" transform="translate(10.5 13.5)" fill="#00afbc"/><path d="M401.38,763.7c-.87-2.85-2.19-6.14-5-7.45-3.29-1.31-6.14.44-8.76,2.41a16,16,0,0,0-5.7,7.44,12.19,12.19,0,0,0-.43,4.82,4,4,0,0,0,3.5,2.85,8,8,0,0,0,8.32-3.72,2.25,2.25,0,1,0-3.94-2.19c0,.22-.22.22-.22.43.22-.21,0-.21,0,0l-.66.66c.22-.22-.44.22-.44.22-.21,0-.21.22-.43.22h0c-.22,0-.66.22-.88.22h-.88s-.87-.22-.43-.22h0c.22.44.22.66.22.22h0v-.44a3.84,3.84,0,0,1,.21-1.53,8.59,8.59,0,0,1,1.76-3.07,32.42,32.42,0,0,1,2.84-2.63,7.43,7.43,0,0,1,2.85-1.53,1.6,1.6,0,0,1,1.09.22c.22.22.44.22.44.44l.44.44c.22.22.22.22,0,.22a10.8,10.8,0,0,1,1.53,3.72,2.39,2.39,0,0,0,2.63,1.53c1.53-1.09,2.19-2.19,2-3.28Z" transform="translate(10.5 13.5)" fill="#00afbc"/><path d="M386.49,757.78c-10.29-2.84-20.58-7.88-31.53-7.88-2.41,0-3.94,1.53-3.5,3.94a8.66,8.66,0,0,0,2.41,4.38,21.59,21.59,0,0,0,9.85,5.26c3.72,1.09,7.88,1.75,11.82.87,2.63-.65,1.54-5-1.09-4.16-3.29.88-7,0-10.07-1.09a32.67,32.67,0,0,1-4.82-2.19,7,7,0,0,1-2-1.53c-.44-.44-.66-1.1-1.1-1.54a.77.77,0,0,1-.22-.44c-.22-.65-.43-.21-1.09.88,0,.22,1.53,0,1.75,0a16.61,16.61,0,0,1,4.6.66,51.59,51.59,0,0,1,7.88,2c5.48,1.53,10.95,3.72,16.42,5,2.19.66,3.29-3.5.66-4.16Z" transform="translate(10.5 13.5)" fill="#00afbc"/><path d="M379.92,769.83a41.8,41.8,0,0,0-5.25,0,6.05,6.05,0,0,0-4.38,2.84c-.88,1.76-.88,4.16.65,5.48a4.86,4.86,0,0,0,3.51,1.09h2.85a9.56,9.56,0,0,0,3.5-1.09,5.1,5.1,0,0,0,2.19-3.07,2.15,2.15,0,1,0-4.16-1.09v0l-.22.44.22-.22-.22.22-.22.21c-.22.22,0,0,.22,0a3.23,3.23,0,0,1-.88.44s.44-.22.22-.22h-.22a.79.79,0,0,0-.65.22H374c-.22,0,.44.22,0,0h0c-.22-.22.22.44,0,.22-.22-.44.22.44,0,.22v-.44c0-.22-.22.66,0,.22v-.66c-.22.44-.22.44,0,.22,0-.22.22-.22.22-.43h0s.44-.44,0-.22.22,0,.22-.22h.22s-.44.22-.22,0c.22,0,.22,0,.44-.22h2.84a7.38,7.38,0,0,1,2.19.22,2.36,2.36,0,0,0,2.19-2.19,2,2,0,0,0-2.19-2Z" transform="translate(10.5 13.5)" fill="#00afbc"/><path d="M396.35,774h0v.65c-.22.66,0-.21,0,.22,0,.22-.22.22-.22.44l-.22.22-.22.22c-.22,0-.22.22-.44.22a8,8,0,0,1-3.94.87h-1.75c-.44,0,.44.22-.22,0h-.44s-.44-.21-.44,0c.22,0-.22-.21-.44-.21,0,0-.43-.44-.21-.22s-.22-.22-.22-.22c-.22,0-.22-.22-.44-.22-.44-.22-.66-.66-1.1-.88a4.84,4.84,0,0,0-3.06-.44,2.38,2.38,0,0,0-1.53,2.63,2.06,2.06,0,0,0,2.62,1.53h-.43c.21,0,.21.22.43.22l.22.22.44.44a15.55,15.55,0,0,0,2.63,1.53,13.42,13.42,0,0,0,5.91.22,7.86,7.86,0,0,0,5.26-2.41,6.1,6.1,0,0,0,1.75-5.69,2.26,2.26,0,0,0-2.63-1.53c-.88,0-1.53,1.09-1.31,2.19Z" transform="translate(10.5 13.5)" fill="#00afbc"/><path d="M500.14,796.1c6.79,1.76,13.35,0,19.49-2.41,5.91-2.18,11.6-4.59,17.29-7.22,11.17-5,21.9-11.61,29.78-21,1.76-2.19-1.31-5.26-3.06-3.07-7.23,8.76-17.08,14.67-27.15,19.49-5,2.41-10.3,4.6-15.55,6.57-6.13,2.41-12.92,5-19.49,3.28-2.85-.65-3.94,3.51-1.31,4.38Z" transform="translate(10.5 13.5)" fill="#00afbc"/><path d="M567.36,763.48c-.22-2.41-.22-5-.44-7.45v-2.19c0,.22.22-.22,0,0s-.22,0,0,0h.22a2.79,2.79,0,0,1,1.32-.22l3.28-.65a5,5,0,0,0,.88-.22c.43,0,.65.44.87.65,1.75,1.76,3.51,3.51,5.48,5.26a2.17,2.17,0,1,0,3.06-3.07,40.13,40.13,0,0,1-3.06-3.06,39.07,39.07,0,0,0-3.07-2.85,5,5,0,0,0-4.6-1.09c-1.31.22-2.84.65-4.16.87a5.72,5.72,0,0,0-3.28,1.54,5.07,5.07,0,0,0-1.32,3.94c.22,2.84.44,5.91.44,8.76a2.2,2.2,0,0,0,2.19,2.19c1.32-.22,2.41-1.32,2.19-2.41Z" transform="translate(10.5 13.5)" fill="#00afbc"/><path d="M577.87,754.06a74,74,0,0,1,8.76-13.36l1.31-1.31a.77.77,0,0,1,.44-.22c.22,0,.22-.22.44-.22.44-.22-.22,0,.22,0,0,0,.66-.22.44-.22h.65c-.21,0,.44.22.22,0-.22,0,.22,0,.22.22.22.22,0-.22,0,0h0v.66c0-.22,0,.44-.22.44,0,.44,0,.44-.22.65a27.21,27.21,0,0,1-2.19,3.29,42,42,0,0,1-5.91,6.57,2.17,2.17,0,0,0,3.07,3.06,53,53,0,0,0,6.57-7.44c1.75-2.41,4.16-5.48,2.84-8.54-1.31-3.29-5.47-3.94-8.32-2.19a10.15,10.15,0,0,0-3.06,3.06c-1.1,1.32-2.19,2.85-3.07,4.16a83.29,83.29,0,0,0-5.69,9.42,2.22,2.22,0,0,0,.87,3.07,2.42,2.42,0,0,0,2.63-1.1Z" transform="translate(10.5 13.5)" fill="#00afbc"/><path d="M586.85,753a10.54,10.54,0,0,1,1.53-1.54l.22-.22h0c.22,0,.22-.21.44-.21.22-.22.66-.44.88-.66a1.61,1.61,0,0,1,.87-.44c.22,0,.22-.22.44-.22s.44-.22.22,0c.65-.22,1.31-.44,2.19-.66-.88-.65-1.75-1.31-2.85-2.18v3.28h0c-.22.66-.22,1.31-.44,1.75,0,.22,0,.22-.22.44,0,0-.21.44,0,.22s-.21.22-.21.22c0,.22-.22.22-.22.44-.22.21-.22.43-.44.65l-.22.22h0c-.22.22-.44.44-.44.66l-.22.22h0c-.22.22-.44.22-.65.44l-.66.43c.22,0,.22-.22.22,0h-.22c-.22,0-.22,0-.44.22-.22,0-.44.22-.88.22a2.15,2.15,0,1,0,1.1,4.16,9.34,9.34,0,0,0,6.57-4.82,15.06,15.06,0,0,0,1.75-8.75,2.28,2.28,0,0,0-2.85-2.19,17.09,17.09,0,0,0-8.32,5,2.13,2.13,0,0,0,0,3.07,1.88,1.88,0,0,0,2.85.22Z" transform="translate(10.5 13.5)" fill="#00afbc"/><path d="M588.82,759.54c.88-.44,1.53-.66,2.41-1.1a3.68,3.68,0,0,1,1.09-.44c.22-.22.22,0-.22,0h0c-.21,0-.43-.22-.65-.44a1.63,1.63,0,0,1-.44-1.09v.22h0v.44c0,.43-.22.65-.22,1.09,0,.22,0,.22-.22.44,0,.22-.44.66,0,0a12.71,12.71,0,0,0-.87,1.75c0,.22-.22.22-.22.44h0l-.66.66-.66.65h0c-.22,0-.22.22-.43.22.43-.22.43-.22.21,0h-.21c-.44.22.65,0,0,0h.21c-.21,0-.21,0,.22.22l.22.22c.22.44.22.44.22.22a2.25,2.25,0,1,0-3.94,2.19c1.09,2,3.5,2,5.26.87a12.59,12.59,0,0,0,3.28-3.5,9.92,9.92,0,0,0,1.75-4.16c0-.22.22-.66.22-.88a5.92,5.92,0,0,0,0-2,3,3,0,0,0-2.85-2.19c-1.09,0-2,.66-3.06,1.1l-2.63,1.31a3.14,3.14,0,0,0-1.09,1.32,2.51,2.51,0,0,0,.21,1.75,2.75,2.75,0,0,0,3.07.66Z" transform="translate(10.5 13.5)" fill="#00afbc"/><path d="M572.84,758.88c1.09,2.41,2.4,4.82,5,5.69,2.63.66,5.69-.44,6.35-3.28a2.15,2.15,0,0,0-4.16-1.1c0,.22-.22.44,0-.22l-.22.22c.22-.44.22-.22,0-.22-.44.44.44-.22.22,0l-.22.22c-.44.22.44-.22.22,0-.22,0-.44.22-.66.22h.22a.79.79,0,0,1-.65-.22c-.44-.22.43.22.22,0-.22,0-.22-.22-.44-.22-.22-.22-.44-.22,0,0a.77.77,0,0,0-.44-.22c-.22-.21-.44-.43-.44-.65.22.22.22.44.22.22v-.22c0-.22-.22-.22-.22-.44-.22-.22-.22-.44-.44-.66-.22-.44-.43-1.09-.65-1.53a3.14,3.14,0,0,0-1.32-1.09,2.5,2.5,0,0,0-1.75.21,2.24,2.24,0,0,0-1.09,1.32,4.86,4.86,0,0,0,.22,2Z" transform="translate(10.5 13.5)" fill="#00afbc"/><path d="M580.5,768.08h-2.41c-.88,0-1.75.21-2.63.21h-4.6a4.82,4.82,0,0,0-1.75.22,3.21,3.21,0,0,0-1.09,1.32,2.07,2.07,0,0,0,1.53,2.62,35.88,35.88,0,0,0,11.83-.21,2.18,2.18,0,0,0,1.53-2.63,2,2,0,0,0-2.41-1.53Z" transform="translate(10.5 13.5)" fill="#00afbc"/><path d="M567.8,768.51c-8.1,7.45-16.42,14.67-26.06,19.93-10.07,5.47-20.8,10.29-31.31,15.33-2.63,1.31-.22,5,2.19,3.72,10.73-5.26,21.68-10.07,32.19-16,9.63-5.48,18-12.71,26.05-20.15,2.19-1.53-.87-4.82-3.06-2.85Z" transform="translate(10.5 13.5)" fill="#00afbc"/><path d="M514.81,806.18c2.84,0,2.84-4.38,0-4.38s-2.85,4.38,0,4.38Z" transform="translate(10.5 13.5)" fill="#00afbc"/><path d="M659.49,715.05A145.55,145.55,0,0,0,647,679.58a135.78,135.78,0,0,0-10.29-17.08c-3.07-4.17-5.7-9.2-10.51-11.17-12.7-5.26-28.25-7-41.83-8.1-28.46-2.63-57.15-.88-85.62-1.1-38.1-.44-76.2-4.82-114.3-4.82-5.69,0-11.16,0-16.86.22-25.4,1.1-55.18,4.82-76.64,19.49-9.19,6.35-15.11,23-19.27,33.07a159.3,159.3,0,0,0-10.29,39.19c-6.13,47.08,7.45,95.47,33.94,134.89a156.73,156.73,0,0,0,16.86,21.24c8.1,8.1,19.49,19.92,30.88,22.77,17.3,4.6,37.66,4.16,55.62,6.13,30.21,3.29,60.65,6.57,91.09,5.48,33.28-1.32,66.13-7.67,98.53-15.11,9.42-2.19,19-4.6,26.5-10.51,10.51-8.54,23.21-23,29.56-34.82,7.45-14.23,11.17-30.22,13.8-46.2C663.65,780.52,666.28,747,659.49,715.05Z" transform="translate(10.5 13.5)" fill="#c7f8ff" opacity="0.4"/></g><path d="M459.5,435.5A128.5,128.5,0,0,1,588,564" transform="translate(10.5 13.5)" fill="none" stroke="#000" stroke-miterlimit="10" stroke-width="3"/><polygon points="598 597 610.12 576 585.88 576 598 597"/></svg>