<svg id="Layer_1" data-name="Layer 1" xmlns="http://www.w3.org/2000/svg" viewBox="0 0 290 290"><path d="M78.79,252.78c1.14-12.3,2.28-24.66,1.56-37a38.79,38.79,0,0,1,.07-9.14c.54-3,2-6,4.68-7.55.69-.41,1.54-.83,1.66-1.63s-.82-1.66-1.68-2.09a45.59,45.59,0,0,0-9.47-3.55,1.85,1.85,0,0,0-2.68,1.6c-4.82,15.76-3.85,32.76-.88,49a22,22,0,0,1,.55,6.7c-.33,2.44-4,7.92-.88,9.25S78.55,255.32,78.79,252.78Z" fill="#fff"/><path d="M143.45,218.83c.12-1.29.35-2.77,1.46-3.44A4.3,4.3,0,0,1,147,215l8.34-.3c1.12,0,2.41-.18,3-1.11.74-1.11,0-2.6-.77-3.65-4.88-6.25-13.63-7.89-21.56-8-1.31,0-2.77,0-3.66,1a4.8,4.8,0,0,0-.93,2.11c-2.86,11.33-4.48,23.54-.47,34.52a25.69,25.69,0,0,0,5.85,9.52c2.85,2.83,4.82,4.13,5.1-.54C142.49,238.59,142.55,228.71,143.45,218.83Z" fill="#fff"/><path d="M179.43,105.33c2.18-2.88,3.42-3,4.52-3.87,4.21-3.34,11.29-9,13.33-14,.55-1.31-.39-6.79-.9-8.11-.88-2.28-4.3-2.57-6.74-2.56-11.71.08-28.81,5.55-39.88,1.74C137.78,74.43,127.6,64.81,115,64c-1.5,4,2.35,7.89,5.78,10.47l22.52,17c3.37,2.54,7.09,7,4.6,10.38L135.51,91.64a4.44,4.44,0,0,0-2.95-1.37,4.38,4.38,0,0,0-2.2,1l-13,9.59a3.22,3.22,0,0,0-1.4,1.64c-.25,1,.45,1.93.9,2.85a6.15,6.15,0,0,1-2.38,7.75c2.29.47,3.37,3.32,2.91,5.62s-2,4.23-3.15,6.25c-3.82,6.53-4.39,14.39-4.87,21.93-.17,2.66-.32,5.42.67,7.89,2,5,7.95,7.22,10.7,11.83,2.09,3.51,2.67,8.64,6.55,9.9,3.17,1,7.25-1.24,9.69,1,2.19,2,.87,5.59.9,8.58.05,4,2.94,7.55,6.25,9.89s7.14,3.86,10.45,6.19c1.5,1.05,3.52,2.29,5,1.18,1.73-1.32.4-4-.63-5.91-3.93-7.28-1.34-16.35,2.54-23.66s9-14.21,10.41-22.37c.57-3.43.66-7.42,3.38-9.6,1.32-1.06,3.16-1.55,4.08-3,1.55-2.39-.42-5.39-1.67-8-2.54-5.25-.69-8.87.3-14C178.72,112.91,176.82,108.78,179.43,105.33Z" fill="#fff"/><path d="M229,54.92c1.54,0,3.7.62,3.38,2.13-2.59,3.19-6,5.56-9.42,7.86q-7.22,4.86-14.58,9.51c-3.7,2.34-7.63,4.71-12,4.94-14,.73-9.95-16.2-2-21.5C203,52.17,219.34,55.1,229,54.92Z" fill="#fbb786"/><path d="M123.07,76.5c9.8,7.61,21.77,12.77,34.17,13.14a48.81,48.81,0,0,0,16.14-2.23c7.59-2.39,14.83-6.91,18.8-13.8,5-8.7,3.91-20.27-1.93-28.43S174.37,32.31,164.34,32s-20,3.63-27.8,9.88c-2.69,2.15-5.28,4.62-8.57,5.62-8.51,2.59-25.36-15.07-27.12-.66C99.58,57.29,115.76,70.82,123.07,76.5Z" fill="#f47c4b"/><path d="M177.3,28.07c-.78-3.93-1.12-7.87-3.63-11.25-1.68-2.27-4.49-4.29-4.12-7.09-1.73,0-2.79,1.85-3.53,3.42L156.8,32.86c3.62,1.49,7.72-.55,11.62-.19A19,19,0,0,1,174,34.38a71.24,71.24,0,0,1,9,4.7c3.15,1.89,6.18.65,2-1.54-1.55-.81-3.32-1.15-4.86-2a3.09,3.09,0,0,1-.83-.6,3.94,3.94,0,0,1-.8-1.83l-.83-3.32C177.54,29.22,177.42,28.64,177.3,28.07Z" fill="#6e4219"/><path d="M196.16,71.87a2.25,2.25,0,0,0-.48,1.07,1.68,1.68,0,0,0,1.54,1.63,4.83,4.83,0,0,0,2.4-.47,129.4,129.4,0,0,0,22.21-11.26c.83-.52,1.76-1.31,1.57-2.27C216.08,62.87,200.77,65.46,196.16,71.87Z" fill="#6e4219"/><path d="M153,63.42c8.94,1.39,19.37-10.78,9.07-16.71-2.14-1.23-4.75-1.32-7.22-1.21a17.36,17.36,0,0,0-5.77,1C140.63,50,145.38,62.24,153,63.42Z" fill="#fff"/><path d="M162.58,120.65c-1.18-3.34-2.22-9.1.18-12.17,4.5-5.75,11.37,2.29,15.39,5.15a28,28,0,0,0,6.92,4c6.91,2.39,14.31-.54,20.05-4.33,6.12-4,12.76-5.8,19.23-9.24,7.73-4.13,14.9-9.36,23.08-12.51,1,2.71.08,5.88-1.72,8.16a25.21,25.21,0,0,1-6.79,5.41L216.29,119.2c-9,5.63-18.28,11.35-28.67,13.66-2.29.52-5.37,2.28-4.17,4.3.39.67,1.19,1,1.59,1.7.91,1.5-.67,3.35-2.31,4s-3.58.81-4.74,2.12c-2.18,2.48.2,6.59-1.18,9.59-1,2.19-3.77,3.22-4.61,5.48-.5,1.34-.2,2.84-.26,4.27-.22,4.9-4.49,8.45-7.43,12.37a25.72,25.72,0,0,0-4.16,21.75c-3.89,1.07-8.18-1.19-10.28-4.64s-2.3-7.77-1.48-11.72c1.83-8.69,8-15.66,13.21-22.87s9.65-16.12,7.31-24.68C167.76,129.57,164.3,125.47,162.58,120.65Z" fill="#f47c4b"/><path d="M109.58,148.16c2.33,2.58,6.51,3,10.09,4.2a5.61,5.61,0,0,1,2.42,1.25,5,5,0,0,1,1,1.79,17.55,17.55,0,0,1,1,7.6c-.2,2-.74,4.1-.11,6,.87,2.68,3.84,4.21,6.65,4.3,4.08.13,8.5-1.6,12.41-2.52a3.41,3.41,0,0,1,2.14,0,2.51,2.51,0,0,1,1.13,1.29c.92,2,.43,4.4-.46,6.42s-2.18,3.87-2.92,6c-2.09,5.94,1.95,9.89,2.58,15.46-5.18-1.64-11.59-3-15.44.81a13.59,13.59,0,0,0-2.67,4.43,66.12,66.12,0,0,0-5.15,27.63c0,1.56,0,3.45-1.41,4.19a3.36,3.36,0,0,1-2.32.14c-5.28-1.2-8.42-7-8.62-12.4s1.8-10.63,3.32-15.82a94.15,94.15,0,0,0,3.36-17.68,30.18,30.18,0,0,0-.51-10.77c-1.42-5.13-5-9.32-7.53-14-4.58-8.58-7-24,.18-31.91-1.26,1.4-1,10-.32,11.67A6.41,6.41,0,0,0,109.58,148.16Z" fill="#f47c4b"/><path d="M110.53,105.08a21.42,21.42,0,0,1-3.94-2.52c-.59-.53-.43-2.15-2-3.39-3.33-2.56-10.31-2.1-14.22-1.91-2.34.11-26.3,3.64-26.4,2.61.55,5.53,4.73,3.65,8.33,4,5.89.62,10.91,4.29,16.27,6.66,4.5,2,9.07,4,13.94,4.58a7.74,7.74,0,0,0,3-.08c1.78-.49,3.07-2,4.24-3.41a8.81,8.81,0,0,0,2-3.21A3,3,0,0,0,110.53,105.08Z" fill="#f47c4b"/><path d="M89.53,96.77A52.51,52.51,0,0,1,59.34,86.26,7.76,7.76,0,0,1,57.09,84a20,20,0,0,1-1-2.65c-1.66-4.33-7.75-6.2-11.55-3.54a5.18,5.18,0,0,1-1.53.9,3.88,3.88,0,0,1-1.82-.08q-10.62-2.16-21.4-3.38a8.23,8.23,0,0,0-4.19.26c-1.3.57-2.3,2.08-1.79,3.4s2.1,1.76,3.47,2l8.42,1.66-4,1.44c0,4.18,4.73,7.62,8.72,6.37-1,2-4.33,1.9-5.32,3.93-.81,1.67.7,3.72,2.5,4.2s3.69-.1,5.47-.63,3.75-1,5.48-.3A18,18,0,0,1,42,100,9,9,0,0,0,54.4,97.16c3-.93,5.72,1.75,8.68,2.66,2.22.69,4.6.37,6.89.05l17.29-2.45a19.59,19.59,0,0,0-7.78-1.49" fill="#6d6e71"/><path d="M252.64,77.13c.08-2.35-.14-5.15,1.74-6.55a5.67,5.67,0,0,1,3.34-.85,25.23,25.23,0,0,1,7.82,1,38,38,0,0,1,9.6-12,5.51,5.51,0,0,1,3-1.5c1.13-.07,2.39.8,2.3,1.94a3,3,0,0,1-.8,1.55l-4.5,5.74c.73,1,2.34.35,3.33-.42s2.52-1.56,3.36-.62a2.17,2.17,0,0,1,.43,1A9.55,9.55,0,0,1,280,75c-.2.22-.43.48-.35.77s.7.41,1.14.44c1.64.13,2.49,2.27,1.9,3.81a7.1,7.1,0,0,1-3.5,3.33,10.64,10.64,0,0,0-3.91,2.94c-1,1.5-1.32,3.71-3,4.45a5,5,0,0,1-2.44.19c-4.27-.37-8.77-.37-12.57,1.6-1.85,1-3.44,2.36-5.24,3.42a8,8,0,0,1-6,1.26c-6.82-1.84-.9-6.15,1.16-8.24A17.8,17.8,0,0,0,252.64,77.13Z" fill="#6d6e71"/><path d="M167.85,174a66.71,66.71,0,0,1,5.84-8.43c9.51-11.47,31.42-15.33,45.32-14.27,16.31,1.26,32.78,11.35,37.35,27,1.3,4.45,1.61,9.11,2.61,13.63,1.22,5.52,3.45,10.81,4.11,16.42.46,3.88.15,7.8.42,11.69A39,39,0,0,0,275,245c2.43,2.38,5.45,5.61,3.89,8.64a7.25,7.25,0,0,1-2.2,2.28c-6.2,4.78-14.35,9.77-21.28,6.15a18.23,18.23,0,0,1-5.42-4.9,77,77,0,0,1-10.32-16.51c-.89-1.93-1.83-4-3.69-5.07a8.21,8.21,0,0,0-4.31-.72c-10,.36-19.08,5.31-28.55,8.43a79.3,79.3,0,0,1-23.37,3.93c-4.89.08-10.91-1.14-12.31-5.83-1.21-4.07,1.93-8,3.57-11.92a14.29,14.29,0,0,0,.66-9.74,30.66,30.66,0,0,0-3-5.84,53.55,53.55,0,0,1-6.65-19.2,21,21,0,0,1-.16-6.18c1.72-11.23,11.93-21.7,21.11-27.75,5.53-3.64,12.25-5.8,18.81-4.9" fill="#f47c4b"/><path d="M173.77,217.25a42.17,42.17,0,0,0,22.65-5.56c6.35-3.66,11.69-9,18.22-12.28s15.23-4.2,20.65.74c6.05,5.51,5.16,15.36,2,22.89a26.33,26.33,0,0,1-5,8.07,30.09,30.09,0,0,1-5.37,4.22c-17.24,11.23-39.92,16.43-58.61,7.81a4.15,4.15,0,0,1-1.86-1.37c-1.27-2,1.28-4.18,2.78-6.05a7.86,7.86,0,0,0,1.3-7.23c-.61-1.86-1.9-3.42-2.69-5.21s-.94-4.14.49-5.48c1-1,2.56-1.1,4-1.2l17.5-1.17" fill="#e36e45"/><path d="M128.36,209.62a7,7,0,0,0-.61,3.15,51.55,51.55,0,0,0,1.44,13.5c.5,2,1.84,4.52,3.9,4.13a4,4,0,0,0,2-1.31c2.81-2.92,5.18-6.84,9.14-7.67l.65,15.22a6.87,6.87,0,0,0,.75,3.42,5.52,5.52,0,0,0,2.4,1.88c13.35,6.4,32.47-10.31,23.53-23.83-3.67-5.55-11.08-8.21-17.18-9.87C148.86,206.74,131.93,203,128.36,209.62Z" fill="#f47c4b"/><path d="M150.24,236.42c-.07,3,1.27,6.56,4.2,6.79a10.46,10.46,0,0,1-5.36.7c-1.42-.19-3-.85-3.42-2.21a4.67,4.67,0,0,1,.19-2.66c1.47-5.5,1.93-15,5-19.58C153.4,224.66,150.36,231,150.24,236.42Z" fill="#e36e45"/><path d="M121,100.64c5.45,4.68,12,8.15,16.39,13.86,1.9,2.48,4.21,5.72,7.24,5,1.89-4.38,1.32-9.53-.66-13.87-2.1-4.61-7.78-13-13.06-14.41C126.8,90.1,116.4,96.69,121,100.64Z" fill="#c2c4c6"/><path d="M143.23,268.05a2.69,2.69,0,0,1,.44,1.26,2.48,2.48,0,0,1-.63,1.43,11.73,11.73,0,0,1-8.56,4.49c-2.47.13-5.47-.32-6.94,1.66-1.35,1.81-.25,4.59,1.67,5.78s4.31,1.2,6.57,1.11a118,118,0,0,0,13.66-1.31c1.3-.21,2.87-.68,3.14-2a3.41,3.41,0,0,0-.18-1.58l-1.89-6.66a22,22,0,0,0-1.57-4.33c-.9-1.67-2.22-3.08-3.06-4.76-2.2-4.37-1-10.11-4-14-1.84-2.33-4.81-3.39-7.39-4.86s-5.1-3.94-4.81-6.9c-2.15-2.32-1.25,10.34.42,12.85C134.17,256.5,139.57,261.43,143.23,268.05Z" fill="#6d6e71"/><path d="M49.87,272.5c-2.56,1.36-5.55,1.55-8.43,1.67a7.62,7.62,0,0,0-3.64.76,2.57,2.57,0,0,0-1.17,3.2,3.69,3.69,0,0,0,1.27,1.18c1.74,1.17,3.73,2.38,5.77,1.94,1-.22,2-.86,3-1,2.45-.37,4.64,1.93,7.11,1.79a6.93,6.93,0,0,0,3.8-1.9,49.58,49.58,0,0,0,14.88-20.66c3.14-8.25,0-12.06-1.93-19.73a74.69,74.69,0,0,1-8.2,14.86C58.56,260.14,56.1,269.2,49.87,272.5Z" fill="#6d6e71"/><path d="M74.86,192.32a4.74,4.74,0,0,0-3.45.43,3.71,3.71,0,0,0-1.24,2c-1.37,4.7,1.72,9.46,2.37,14.32s-1.14,10.37,1.36,14.67c1.55,2.67,4.59,4.5,5.27,7.51.38,1.7-.08,3.51.29,5.21s2.31,3.32,3.76,2.35l1.14-19.36c2.82-.83,5.22,2,7.08,4.27a33.22,33.22,0,0,0,18.12,11.21,2.88,2.88,0,0,0,2.51-.23,2.54,2.54,0,0,0,.75-1.63c.51-3.28-1-6.41-.95-9.67.08-3.1,1.81-6,1.86-9,.06-4.43-1.2-6.26-4.57-9C100.07,197.87,86.28,193.94,74.86,192.32Z" fill="#f47c4b"/><path d="M166.74,11c-1.77-.31-3.1,1.53-4,3.1-1.3,2.29-11.95,14.81-6.22,15.91C161.62,31,165.82,14.3,166.74,11Z" fill="#fbb786"/><path d="M179.87,128.36l3.53,7.74,1.71,3.76.41.89c.29.66.39.45,0,.7a9.65,9.65,0,0,1-2.11.83l-4,1.54a3.34,3.34,0,0,0-2.07,1.53c-.48,1.07,0,2,.6,2.93.76,1.21,1.54,2.41,2.33,3.61L181.8,150a6.09,6.09,0,0,0-7.69,5.65,1.27,1.27,0,0,0,2.54,0,3.53,3.53,0,0,1,4.48-3.2,1.28,1.28,0,0,0,1.43-1.86c-.74-1.13-1.47-2.27-2.19-3.41-.13-.2-.58-.66-.56-.9,0,.2-.14.21.14.06a22.09,22.09,0,0,1,2.09-.82l4-1.54c1-.4,2.07-.8,2.32-2s-.47-2.23-.91-3.21L185.69,135l-3.63-8c-.68-1.49-2.87-.2-2.19,1.28Z" fill="#231f20"/><path d="M28.48,81.44a21.55,21.55,0,0,0-7.64.18,4.43,4.43,0,0,0-3.51,4.6c.25,4.81,5.53,6.33,9.58,5.85,2.35-.28,4.54-1.23,5.5-3.53A1.27,1.27,0,1,0,30,87.86a2.5,2.5,0,0,1-1.11,1.07,6,6,0,0,1-2,.6,10.18,10.18,0,0,1-4.5-.38,3.44,3.44,0,0,1-2.5-2.76s0-.15,0-.31,0-.39,0-.4L20,85.3A1.19,1.19,0,0,1,20.1,85a1.32,1.32,0,0,1,.43-.49,2.94,2.94,0,0,1,1.07-.43A20.38,20.38,0,0,1,28.48,84a1.27,1.27,0,0,0,1.27-1.27,1.3,1.3,0,0,0-1.27-1.27Z" fill="#231f20"/><path d="M129.47,33.37c-1.52-1.52-3-1.22-5-.33s-4,4.41-4.78,6.45c-.58,1.55-.74,3.5.35,4.72s2.9,1.17,4.39,1.74c2.09.79,4.09,2.89,6.18,2,1.26-.5,3.61-.86,3.63-2.26s1.73-4.6,1.23-5.9c-.59-1.52-2.34-4.29-2.93-5.81-.23-.6-3.94-1.2-4.11-.58" fill="#fff"/><path d="M163.71,46.61c-4.89-2.09-11.22-3-16.23-.73-4.61,2-5.54,7.82-3.25,11.95s7.87,7.47,12.73,7.1a12.24,12.24,0,0,0,10.33-8.21,10.58,10.58,0,0,0-.53-8.5,7.9,7.9,0,0,0-6.62-4.07,1.27,1.27,0,0,0,0,2.54c4.42.11,5.91,5.11,4.9,8.72a9.77,9.77,0,0,1-7.51,6.91c-3.79.64-8.16-1.72-10.41-4.7-2-2.69-2.44-7.25.88-9.17,2-1.16,4.67-1.31,6.93-1.26a20.19,20.19,0,0,1,7.5,1.61c1.49.64,2.78-1.55,1.28-2.19Z" fill="#231f20"/><path d="M134.68,34.6a8.22,8.22,0,0,0-15.16,3.91,12.77,12.77,0,0,0,4.19,10,7.62,7.62,0,0,0,9.52.09c3.49-2.58,4.5-7,4.27-11.19-.09-1.62-2.63-1.63-2.54,0,.16,2.78-.17,6-2.1,8.12-1.62,1.81-4.35,2.92-6.63,1.65s-3.58-4.13-4-6.6a6,6,0,0,1,3-6.65,5.74,5.74,0,0,1,7.27,2c.9,1.36,3.11.09,2.2-1.28Z" fill="#231f20"/><path d="M152.42,52.81a2.5,2.5,0,0,0-1.41,0,2.89,2.89,0,0,0-1.22.65,2.94,2.94,0,0,0-1,2.22,2.53,2.53,0,0,0,1.3,2.19,3.14,3.14,0,0,0,2.27.26,2.71,2.71,0,0,0,1.93-1.81,1.28,1.28,0,0,0-.88-1.56,1.3,1.3,0,0,0-1.57.89.49.49,0,0,1,0,.11l.13-.3a1.56,1.56,0,0,1-.16.28l.19-.26a1.18,1.18,0,0,1-.25.25l.26-.2a1.35,1.35,0,0,1-.33.19l.3-.13a2.11,2.11,0,0,1-.49.14l.34,0a2,2,0,0,1-.49,0l.34,0a1.69,1.69,0,0,1-.44-.12l.31.13a1.35,1.35,0,0,1-.33-.19l.26.2a1.25,1.25,0,0,1-.23-.23l.2.26a1.28,1.28,0,0,1-.16-.27l.13.3a1,1,0,0,1-.08-.3l0,.34a2.28,2.28,0,0,1,0-.37l0,.34a1.25,1.25,0,0,1,.11-.39l-.13.3a1.9,1.9,0,0,1,.23-.39l-.2.26a1.88,1.88,0,0,1,.34-.35l-.26.19a2.5,2.5,0,0,1,.39-.23l-.3.13a1.6,1.6,0,0,1,.39-.11l-.34.05a1.93,1.93,0,0,1,.34,0l-.34-.05.27.07a1.29,1.29,0,0,0,1-.12,1.34,1.34,0,0,0,.58-.76,1.24,1.24,0,0,0-.13-1,1.41,1.41,0,0,0-.76-.59Z" fill="#231f20"/><path d="M127.78,39.71a2.51,2.51,0,0,0-.85-.16,2.82,2.82,0,0,0-.86.11,2.93,2.93,0,0,0-1.43.88,2.69,2.69,0,0,0-.71,1.85,2.85,2.85,0,0,0,.54,1.65,3.35,3.35,0,0,0,.88.84,2.32,2.32,0,0,0,.91.36,1,1,0,0,0,.5,0,1,1,0,0,0,.48-.15,1.34,1.34,0,0,0,.58-.76,1.29,1.29,0,0,0-.13-1,1.17,1.17,0,0,0-.76-.58,1.4,1.4,0,0,1-.35-.1l.3.13a1.79,1.79,0,0,1-.38-.22l.26.19a1.92,1.92,0,0,1-.29-.28l.2.25a1.79,1.79,0,0,1-.25-.42l.13.3a1.62,1.62,0,0,1-.12-.43l0,.34a1.09,1.09,0,0,1,0-.36l0,.33a1.27,1.27,0,0,1,.11-.38l-.13.3a1.61,1.61,0,0,1,.2-.33l-.2.26a1.72,1.72,0,0,1,.27-.27l-.25.19a2,2,0,0,1,.4-.23l-.3.12a1.66,1.66,0,0,1,.45-.12l-.34,0a1.48,1.48,0,0,1,.42,0l-.33,0a1.2,1.2,0,0,1,.37.1,1.25,1.25,0,0,0,1-.13,1.27,1.27,0,0,0,.58-.76,1.29,1.29,0,0,0-.12-1l-.2-.25a1.28,1.28,0,0,0-.56-.33Z" fill="#231f20"/><path d="M162,41.65A18.26,18.26,0,0,1,168.68,43a6.87,6.87,0,0,1,3.81,5.33,1.28,1.28,0,0,0,1.56.89,1.3,1.3,0,0,0,.89-1.57,9.22,9.22,0,0,0-4.82-6.77,21,21,0,0,0-8.1-1.79,1.28,1.28,0,0,0-1.27,1.27A1.29,1.29,0,0,0,162,41.65Z" fill="#231f20"/><path d="M160.08,41.63l5.53-.9,2.77-.45a18.14,18.14,0,0,0,2.57-.44.36.36,0,0,0-.11-.14c-.11-.16-.13-.14-.05.06s0,.21,0,.31c0,.38,0,.75,0,1.12a13,13,0,0,0,2.24,7.1c.91,1.35,3.11.08,2.19-1.28a10.79,10.79,0,0,1-1.85-5c-.14-1.55.45-3.88-1.46-4.57a6.07,6.07,0,0,0-2.93.15l-3.19.52-6.36,1a1.28,1.28,0,0,0-.89,1.56,1.31,1.31,0,0,0,1.57.89Z" fill="#231f20"/><path d="M170,37.94a2.49,2.49,0,0,0-.35.08l-.45.19-.16.08a3.45,3.45,0,0,0-.53.39,2.23,2.23,0,0,0-.27.26,1,1,0,0,0-.26.41,1,1,0,0,0-.11.49,1,1,0,0,0,.11.49,1,1,0,0,0,.26.41l.26.2a1.3,1.3,0,0,0,.64.17l.34,0a1.31,1.31,0,0,0,.56-.32,1.64,1.64,0,0,1,.3-.29l-.26.19a2,2,0,0,1,.45-.25l-.31.12a1.83,1.83,0,0,1,.46-.12,1.45,1.45,0,0,0,.76-.59,1,1,0,0,0,.15-.47.94.94,0,0,0,0-.5l-.13-.31a1.24,1.24,0,0,0-.46-.45l-.3-.13a1.31,1.31,0,0,0-.68,0Z" fill="#231f20"/><path d="M129.2,26.73c2.47-.28,5.21-.66,7.58.31A4.76,4.76,0,0,1,140,31.22a1.27,1.27,0,0,0,2.54,0A7.13,7.13,0,0,0,138.32,25c-2.85-1.38-6.07-1.11-9.12-.77a1.31,1.31,0,0,0-1.27,1.27,1.28,1.28,0,0,0,1.27,1.27Z" fill="#231f20"/><path d="M129.47,25a77.58,77.58,0,0,0,10.88-.51l-1.27-1.27a15.23,15.23,0,0,0,1.39,5.47,1.29,1.29,0,0,0,1.74.46,1.3,1.3,0,0,0,.46-1.74,11.7,11.7,0,0,1-1-4.19c0-.62-.55-1.36-1.27-1.27a79.12,79.12,0,0,1-10.88.51,1.27,1.27,0,0,0,0,2.54Z" fill="#231f20"/><path d="M140.5,25.61l0-.24c-.14-1.61-2.68-1.63-2.54,0l0,.24c.14,1.62,2.68,1.63,2.54,0l0-.24c-.14-1.61-2.68-1.63-2.54,0l0,.24c.14,1.62,2.68,1.63,2.54,0Z" fill="#231f20"/><path d="M171.64,41.76l.39,0a1.38,1.38,0,0,0,.89-.37.92.92,0,0,0,.27-.41,1,1,0,0,0,.11-.49l-.05-.34a1.28,1.28,0,0,0-.33-.56l-.25-.2a1.3,1.3,0,0,0-.64-.17l-.39,0a1,1,0,0,0-.48.11.93.93,0,0,0-.41.26,1,1,0,0,0-.27.41,1,1,0,0,0-.11.49l0,.34a1.23,1.23,0,0,0,.33.56l.25.2a1.33,1.33,0,0,0,.64.17Z" fill="#231f20"/><path d="M187.79,56.28a331.68,331.68,0,0,1,50.8-2.23l-1.1-1.91a33.71,33.71,0,0,1-8.43,8.5c-3.46,2.62-7,5.09-10.67,7.48a241.28,241.28,0,0,1-22.65,13.2c-1.46.74-.17,2.94,1.28,2.19A238.5,238.5,0,0,0,220.45,69.8c3.64-2.42,7.24-4.91,10.7-7.58a35.31,35.31,0,0,0,8.53-8.8,1.28,1.28,0,0,0-1.09-1.91,331.68,331.68,0,0,0-50.8,2.23c-1.6.2-1.62,2.74,0,2.54Z" fill="#231f20"/><path d="M222.16,59.13C210.78,61,201.25,69,189.64,69.83c-1.62.11-1.63,2.66,0,2.54,11.9-.81,21.56-8.93,33.19-10.79,1.61-.26.93-2.71-.67-2.45Z" fill="#231f20"/><path d="M198.38,52.38a102.61,102.61,0,0,0-6.74-8.67,47.19,47.19,0,0,0-8.11-6.88C177.79,33,169.91,29,162.86,31.19c-1.55.49-.89,2.94.68,2.45,3.53-1.13,7.18-.3,10.54,1a42.74,42.74,0,0,1,8.5,4.58,44.68,44.68,0,0,1,7.27,6.25,100,100,0,0,1,6.34,8.16c1,1.29,3.18,0,2.19-1.28Z" fill="#231f20"/><path d="M178.05,32.92c.53-9.68-6.24-17.63-7.72-26.92a1.27,1.27,0,0,0-1.57-.88c-2.3.9-3.26,3-4.36,5-1.3,2.44-2.7,4.84-4.18,7.17a107.84,107.84,0,0,1-10,13.36c-1.07,1.23.72,3,1.8,1.8a113.56,113.56,0,0,0,9.45-12.37c1.4-2.12,2.72-4.3,4-6.51.65-1.15,1.25-2.32,1.88-3.48a4.94,4.94,0,0,1,2.15-2.54l-1.56-.89c1.44,9,8.14,16.86,7.63,26.24-.09,1.63,2.45,1.63,2.54,0Z" fill="#231f20"/><path d="M135.75,53.4q-10.18-4.95-20.22-10.2a64.6,64.6,0,0,1-9-5.15,34.59,34.59,0,0,1-6.88-7.65c-1-1.3-3.16,0-2.19,1.29a40.47,40.47,0,0,0,6.67,7.69,52.9,52.9,0,0,0,9.22,5.56q10.45,5.49,21.08,10.65c1.46.71,2.75-1.48,1.28-2.19Z" fill="#231f20"/><path d="M96,28.52a40.38,40.38,0,0,1-2,7.86l2.45.67a10.64,10.64,0,0,1,1.66-4.46L95.72,32a8.92,8.92,0,0,1-.79,2.63A8.38,8.38,0,0,1,93.21,37l2,1.54A26.62,26.62,0,0,1,99.78,33L97.65,31.8,95.5,37.32A1.24,1.24,0,0,0,96,38.65a1.27,1.27,0,0,0,1.41.1A15,15,0,0,0,102,34.57l-2.32-1a4.37,4.37,0,0,1-.78,1.94s-.12.17,0,.07l-.18.21a4.54,4.54,0,0,1-.38.38l-.2.18c-.32.27.08,0-.12.09a5.58,5.58,0,0,1-.52.32A1.27,1.27,0,0,0,98.7,39a6.82,6.82,0,0,0,3.39-4.71,1.27,1.27,0,0,0-2.32-1,12.16,12.16,0,0,1-3.68,3.27L98,38l2.15-5.52A1.27,1.27,0,0,0,99.52,31a1.3,1.3,0,0,0-1.54.19,29.12,29.12,0,0,0-5,6,1.27,1.27,0,0,0,2,1.54A11.23,11.23,0,0,0,98.27,32a1.27,1.27,0,0,0-.94-1.22,1.3,1.3,0,0,0-1.43.58A12.68,12.68,0,0,0,94,36.38a1.27,1.27,0,1,0,2.45.67,40,40,0,0,0,2-7.86,1.31,1.31,0,0,0-.89-1.56,1.27,1.27,0,0,0-1.56.89Z" fill="#231f20"/><path d="M94.07,36.93c-.49,5.91,1.84,11.61,4.41,16.82a76.53,76.53,0,0,0,8.64,13.63,74.34,74.34,0,0,0,11,11.31c4,3.36,8.49,6.15,12.83,9.11,4.8,3.28,9.48,6.91,12.65,11.87.88,1.38,3.08.1,2.19-1.28-5.52-8.65-14.91-13.27-22.93-19.19a73.59,73.59,0,0,1-20.74-23.85c-3-5.57-6.09-11.91-5.56-18.42.13-1.63-2.41-1.62-2.54,0Z" fill="#231f20"/><path d="M126.32,86.14a3.22,3.22,0,0,0,1.43,3.49c1.19,1,2.48,1.83,3.65,2.84a42,42,0,0,1,6.5,7,43,43,0,0,1,7.51,17.19c.31,1.6,2.76.93,2.45-.67A44.66,44.66,0,0,0,141,99.48a45.67,45.67,0,0,0-5.65-6.83,40.94,40.94,0,0,0-3.34-3c-.55-.45-3.46-2.13-3.23-2.86.5-1.56-2-2.23-2.45-.68Z" fill="#231f20"/><path d="M126.41,87.13c-1.2,4-5.84,6-9.26,7.7q-6.84,3.53-13.93,6.53a1.28,1.28,0,0,0,.3,2.32,19,19,0,0,1,9,4.13c.14.12.07.2.1.1a8.66,8.66,0,0,1-.9,1c-1,.94-2,1.76-3.1,2.63-2.06,1.71-4,3.69-4.5,6.43a1.28,1.28,0,0,0,.88,1.56c1.93.37,3.66-.49,5.55-.31.77.08,1.57.33,1.56,1.23a9,9,0,0,1-.9,2.92,27.06,27.06,0,0,1-6.67,9.25c-1.2,1.12.6,2.92,1.79,1.79a28.42,28.42,0,0,0,7.89-11.89c.66-2.09.55-4.31-1.65-5.35s-4.54.36-6.89-.09l.89,1.57c.55-3.12,3.44-4.92,5.69-6.83,1.58-1.33,3.84-3.08,2.4-5.32-1.11-1.73-3.4-2.7-5.21-3.48a23.66,23.66,0,0,0-5.23-1.75l.3,2.32q7.74-3.28,15.2-7.18c3.75-2,7.86-4.22,9.16-8.56a1.27,1.27,0,0,0-2.45-.68Z" fill="#231f20"/><path d="M107,134.29c-2.15,4.12-2.44,9-3.09,13.53a22.85,22.85,0,0,0-.06,7.65,21.8,21.8,0,0,0,2.28,6.08c2.26,4.3,5.11,8.22,7,12.71a35.37,35.37,0,0,1,3.08,14.14,24.8,24.8,0,0,1-4.57,14.45c-1,1.33,1.24,2.6,2.2,1.29,5.46-7.51,6-17.43,3.36-26.11A56.38,56.38,0,0,0,111,164.8c-2.5-4.06-5-8.15-4.9-13.09a76.37,76.37,0,0,1,1.08-8.49,22.55,22.55,0,0,1,2-7.65c.75-1.45-1.44-2.74-2.2-1.28Z" fill="#231f20"/><path d="M203.25,76.9C199.32,84,195.32,91.2,189.53,97c-2.58,2.55-6.18,4.52-7.74,7.93-1.23,2.69-.49,5.43,1.07,7.81a38.4,38.4,0,0,0,3.64,4.51,3.25,3.25,0,0,0,2.25,1.38,1.6,1.6,0,0,0,1.71-1.25c.32-1.6-2.13-2.28-2.45-.68.92-.24,1.11-.55.57-.94l-.56-.61c-.35-.39-.69-.79-1-1.19a25.5,25.5,0,0,1-1.76-2.24,7.24,7.24,0,0,1-1.56-4c0-3.68,4.6-6,6.92-8.23,6.33-6,10.66-13.73,14.85-21.28.8-1.44-1.4-2.72-2.19-1.29Z" fill="#231f20"/><path d="M179.43,154.31l-2.86-.14a1.29,1.29,0,0,0-1.23.94,44.13,44.13,0,0,1-9.25,20.16c-1,1.25.76,3.06,1.8,1.8a46.69,46.69,0,0,0,9.9-21.29l-1.22.94,2.86.13c1.63.08,1.63-2.46,0-2.54Z" fill="#231f20"/><path d="M167,173.79l-2.52,5A28.66,28.66,0,0,0,161.5,186a13.17,13.17,0,0,0,.83,7.23c.73,2,1.87,4.9.19,6.79-1.09,1.21.7,3,1.79,1.79a7,7,0,0,0,1.42-6.09c-.45-2.62-2-5-1.94-7.68s1.45-5.23,2.64-7.61c.91-1.79,1.81-3.59,2.72-5.39.73-1.46-1.46-2.75-2.2-1.29Z" fill="#231f20"/><path d="M173.7,164.83c12.17-5.49,24.7-11.17,38.13-12.52a51.26,51.26,0,0,1,18.63,1.28,50.46,50.46,0,0,1,16,7.77,22.19,22.19,0,0,1,6.2,6c1.49,2.49,1.73,5.45,2.07,8.26.82,6.89,1.9,13.75,2.81,20.62s1.82,14,2.72,21c.82,6.33,1.33,12.82,2.89,19,1.48,5.87,4.32,11.6,9.68,14.79,4.55,2.7,10.58,3.46,15.06.21,1.31-.95.05-3.15-1.28-2.19-4.09,3-9.42,1.92-13.37-.77-4.74-3.22-6.86-8.94-8-14.32-1.35-6.31-1.91-12.82-2.74-19.21q-1.36-10.62-2.76-21.24c-.9-6.77-1.85-13.53-2.74-20.3a17.41,17.41,0,0,0-2.45-7.66,25.86,25.86,0,0,0-6-5.84,51.23,51.23,0,0,0-34-10.23c-14.9.87-28.68,7-42.09,13.09-1.49.67-.2,2.86,1.28,2.19Z" fill="#231f20"/><path d="M165.18,242.36a3.39,3.39,0,0,0,.2,1.92,1.36,1.36,0,0,0,1.13.64c.31,0,.57-.24.85-.25-.34,0,.1.11.17.16.45.34.93.67,1.39,1a24.11,24.11,0,0,0,3.38,2,32.77,32.77,0,0,0,14.19,3c11,0,21.1-4.7,30.56-9.79,2.45-1.31,4.86-2.68,7.31-4s5.07-2.57,7.77-1.8c5.36,1.53,6.41,8.29,7.59,12.84,2.37,9.09,8.57,17.72,18.53,18.79,12.55,1.36,22.19-8.32,29.45-17.2,1-1.26-.76-3.07-1.8-1.8-6.3,7.72-14.07,16.14-24.76,16.56-10,.4-16.46-7.69-18.85-16.58-1.27-4.7-2.1-9.94-6.08-13.22a8.93,8.93,0,0,0-6.16-2.14,17.23,17.23,0,0,0-7.16,2.46c-9.34,5-18.62,10.67-29.19,12.65a35.4,35.4,0,0,1-15.86-.45,25,25,0,0,1-7.15-3.2,9.34,9.34,0,0,0-2.87-1.71,2.57,2.57,0,0,0-1.17,0,2.19,2.19,0,0,0-.33.12c-.53.22.18-.06.49,0l.76.58c.19.29,0,.55.12.12a4.71,4.71,0,0,0,0-.75c.07-1.63-2.48-1.63-2.54,0Z" fill="#231f20"/><path d="M110.2,97.24A104.2,104.2,0,0,1,58.59,85.05c-1.44-.77-2.73,1.42-1.28,2.19A106.81,106.81,0,0,0,110.2,99.78a1.27,1.27,0,0,0,0-2.54Z" fill="#231f20"/><path d="M104.73,115a176.66,176.66,0,0,1-22.42-8c-3.71-1.58-7.39-3.22-11.06-4.89-3.27-1.48-7-2.74-9.81-5.09-.67-.56-1.25-1.38-2.15-1.54a1.63,1.63,0,0,0-1.83.88c-.56,1.3.85,2.91,2.16,2s.09-3.1-1.28-2.19l-.13.08H59.5l.15,1.34-.9.37c.21,0,.87.8,1,1s.6.48.91.71a20.5,20.5,0,0,0,2.5,1.51c1.71.89,3.49,1.65,5.24,2.45,3.89,1.77,7.78,3.52,11.7,5.2a183.05,183.05,0,0,0,23.91,8.58,1.27,1.27,0,0,0,.67-2.45Z" fill="#231f20"/><path d="M57.92,83.43c-.93-3.16-2.16-6.6-5.42-8s-6.49.78-9.06,2.74a16.75,16.75,0,0,0-6.08,7.87A9.15,9.15,0,0,0,37,91a3.91,3.91,0,0,0,3.33,2.56,8.17,8.17,0,0,0,8.39-3.74c.86-1.39-1.33-2.67-2.19-1.28-1.24,2-4.4,3.49-6.66,2.23-1-.57-.39-2.84-.13-3.74a11.51,11.51,0,0,1,2.42-4.24,20.78,20.78,0,0,1,3.71-3.23c1.2-.83,2.57-1.89,4.07-2,3.47-.36,4.8,4.06,5.55,6.6a1.27,1.27,0,0,0,2.45-.67Z" fill="#231f20"/><path d="M41.32,77.38C29.54,74.16,18.17,69,5.83,68.29c-1.13-.06-2.54-.3-3.46.52a3,3,0,0,0-.66,3A9.51,9.51,0,0,0,4.6,76.13a26.66,26.66,0,0,0,10.82,5.65c4,1.17,8.71,2,12.85.83a1.27,1.27,0,0,0-.68-2.45c-3.07.83-6.47.37-9.52-.32a29.08,29.08,0,0,1-10-4.17,11.77,11.77,0,0,1-3.19-3.06c-.17-.26-1.08-1.61-.77-1.92l1.49.13c.76,0,1.51.09,2.26.16A79.56,79.56,0,0,1,23.38,74.4c5.76,1.78,11.44,3.84,17.27,5.43a1.27,1.27,0,0,0,.67-2.45Z" fill="#231f20"/><path d="M34,91.77c-3.34-.18-8.37-.93-10.18,2.77-.77,1.58-.84,3.7.58,5a5,5,0,0,0,3.12,1,18.41,18.41,0,0,0,3.32,0c2.39-.27,4.81-1.54,5.48-4a1.27,1.27,0,0,0-2.45-.67,2,2,0,0,1-.38.79c.09-.12-.15.18-.19.21s-.13.13-.19.19-.23.2-.12.11A4.07,4.07,0,0,1,31,98a11.56,11.56,0,0,1-2.63.08,5.79,5.79,0,0,1-2.17-.34c-.05,0-.19-.14,0,0L26,97.55s-.13-.18,0,0L26,97.44s-.12-.23-.05-.08,0,0,0-.09-.07-.52-.06-.24c0-.14,0-.29,0-.43s0-.21,0-.06,0-.06,0-.1L26,96l.06-.16c-.09.24,0-.09.06-.12a3.14,3.14,0,0,1,.24-.39s.12-.16,0-.06l.08-.09a1.21,1.21,0,0,0,.16-.16s.21-.17.09-.08,0,0,.06,0l.35-.21.24-.12s-.13,0,0,0l.52-.17a4.21,4.21,0,0,1,.48-.12l.27-.06s.4,0,.23,0a30.66,30.66,0,0,1,5.16.12,1.27,1.27,0,0,0,0-2.54Z" fill="#231f20"/><path d="M112.79,207.54c-3.51-6.17-11-9.08-17.11-11.95a224.11,224.11,0,0,0-22.52-9.11,1.28,1.28,0,0,0-1.43.58c-2.16,3.73-2.58,8.05-2.94,12.26-.4,4.76-.53,9.53-.8,14.3-.27,4.58-1,9.11-.39,13.7.52,4.15,1.65,8.22,2,12.39.33,4.34-.5,9-3.61,12.18-1.14,1.18.65,3,1.79,1.8,6-6.23,4.43-15,3-22.65A36.08,36.08,0,0,1,70.23,218c.41-4.91.53-9.84.83-14.77s.33-10.46,2.86-14.84l-1.43.58A217.92,217.92,0,0,1,94,197.58c3.23,1.51,6.48,3,9.57,4.81a18,18,0,0,1,7.06,6.43,1.27,1.27,0,0,0,2.19-1.28Z" fill="#231f20"/><path d="M127,235.93a45.4,45.4,0,0,1-19.57-2.05A48,48,0,0,1,91.54,224a101,101,0,0,1-8.39-8.67A1.28,1.28,0,0,0,81,216.56c3.84,12.05-.71,24.66-1.27,36.85-.08,1.64,2.47,1.64,2.54,0,.57-12.46,5.11-25.19,1.18-37.52l-2.12,1.23c8.91,10.23,19.62,19.25,33.49,21.17a51.81,51.81,0,0,0,12.13.18c1.61-.15,1.63-2.69,0-2.54Z" fill="#231f20"/><path d="M66.19,252.45l-8.32,11.73-4,5.67a6.68,6.68,0,0,1-2.09,2.35,5.59,5.59,0,0,1-2.81.24c-3.78-.29-7.94-.19-11.18,2.08a4.68,4.68,0,0,0-2.22,4,3.46,3.46,0,0,0,2.61,3.3c1.59.35,2.27-2.1.67-2.45a1,1,0,0,1-.72-1.27c.12-.81.94-1.37,1.59-1.74a13,13,0,0,1,5-1.46c3.18-.3,7,1.2,9.52-1.37a32.87,32.87,0,0,0,3.23-4.37l3.73-5.26,7.17-10.12c1-1.34-1.25-2.61-2.19-1.28Z" fill="#231f20"/><path d="M82.85,255.05a25.47,25.47,0,0,0-14.4,9.51,40.47,40.47,0,0,0-4.74,7.58c-.53,1.11-2.73,8.24-4.73,6.44-1.21-1.09-3,.7-1.79,1.8a3.64,3.64,0,0,0,3.86.68,5.72,5.72,0,0,0,3-3.32,60.48,60.48,0,0,1,4.41-8.91c3.53-5.42,8.58-9.95,15-11.33,1.59-.34.92-2.79-.68-2.45Z" fill="#231f20"/><path d="M168.82,212.42c-10.95-8.54-24.49-17.62-39.07-13.18a1.27,1.27,0,0,0,.68,2.45c13.61-4.15,26.37,4.56,36.6,12.53,1.27,1,3.08-.79,1.79-1.8Z" fill="#231f20"/><path d="M130.83,198a65.12,65.12,0,0,0,1.53,58.38c2.61,4.79,5.93,9.6,10.95,12.1l-.46-1.74a12.27,12.27,0,0,1-7.28,6.66c-1.54.52-.88,3,.67,2.45a14.79,14.79,0,0,0,8.81-7.83,1.3,1.3,0,0,0-.46-1.74c-4.29-2.13-7.12-6.07-9.45-10.13a59.57,59.57,0,0,1-5.5-13.07,63.15,63.15,0,0,1-1.52-28.37A60.22,60.22,0,0,1,133,199.25c.7-1.47-1.49-2.76-2.2-1.28Z" fill="#231f20"/><path d="M144.93,220.22q-1.16,12.28-1.39,24.63c-.08,4-.14,8,0,11.93.13,3.2.59,6.52,2.58,9.14,1,1.29,3.18,0,2.19-1.28-2-2.62-2.2-5.87-2.26-9-.07-3.91-.05-7.83,0-11.74q.24-11.85,1.37-23.64c.15-1.63-2.39-1.62-2.54,0Z" fill="#231f20"/><path d="M136.28,272.53c-3.41-.64-7.91-.45-10.48,2.24a5.06,5.06,0,0,0-1.43,4.12,4.22,4.22,0,0,0,2.68,3.61,1.28,1.28,0,0,0,1.56-.89,1.3,1.3,0,0,0-.89-1.56c.24.09-.11-.08-.16-.1a.71.71,0,0,1-.14-.1c.11.08.11.08,0,0s-.26-.28-.1-.08a1.75,1.75,0,0,1-.18-.29,2.21,2.21,0,0,1-.27-1,3,3,0,0,1,0-.42c0-.27-.06.14,0-.14l.09-.35c0-.05.13-.34,0-.14a3.1,3.1,0,0,1,1-1.25c-.08.07.21-.15.21-.15l.37-.23c.22-.12.55-.29.68-.34a9,9,0,0,1,1.78-.5,12.43,12.43,0,0,1,4.55,0,1.27,1.27,0,0,0,.68-2.45Z" fill="#231f20"/><path d="M141.26,274.42c-2.37.54-4.77,1.86-5.67,4.25-.77,2-.11,4.75,1.93,5.77a1.31,1.31,0,0,0,1.74-.46,1.29,1.29,0,0,0-.46-1.74l-.25-.13c-.12-.08-.18-.16,0,0l-.2-.19c-.1-.11-.15-.19,0,0a4.57,4.57,0,0,1-.29-.47c-.13-.25.06.2,0,0a2.76,2.76,0,0,1-.08-.27c0-.09,0-.18-.07-.28-.06-.28,0,.23,0,0a3.74,3.74,0,0,1,0-.58c0-.15,0-.26,0-.05l.06-.28a2.29,2.29,0,0,1,.08-.28l.06-.18c-.06.14-.07.16,0,.08s.18-.37.3-.55l.1-.14q-.1.14,0,0l.23-.25a5.56,5.56,0,0,1,.5-.47c.07,0,.06,0,0,0a.71.71,0,0,1,.14-.1l.28-.2c.2-.12.4-.23.61-.33a2.3,2.3,0,0,1,.32-.15c.08,0,.07,0,0,0l.17-.06a9.43,9.43,0,0,1,1.4-.42,1.28,1.28,0,0,0,.88-1.56,1.29,1.29,0,0,0-1.56-.89Z" fill="#231f20"/><path d="M150.16,275.37a4.65,4.65,0,0,0-6.29,2.56,3.7,3.7,0,0,0,.43,3.41,4.64,4.64,0,0,0,2.78,1.83,4,4,0,0,0,3.74-1,1.27,1.27,0,1,0-1.8-1.8l-.21.19c.3-.29.11-.08,0,0l-.24.12c.32-.18.24-.09.13-.06l-.18.06-.26.06c-.09,0-.22,0,.18,0h-.13a3.62,3.62,0,0,1-.57,0c.46,0,.14,0,0,0l-.27-.06-.26-.09c-.18-.06.16.06.15.06a1.13,1.13,0,0,1-.2-.09,3.78,3.78,0,0,1-.43-.26c-.25-.18.23.19,0,0l-.23-.23c-.09-.09-.24-.35,0,0l-.15-.23s-.11-.24-.12-.24l.06.16-.06-.18-.06-.24c0-.23,0,.35,0,.12,0-.05,0-.09,0-.13s0-.2,0-.3-.07.33,0,.1a1.36,1.36,0,0,0,0-.17c0-.1.06-.19.09-.29s-.06.15-.06.14.06-.12.08-.16a1.74,1.74,0,0,1,.15-.26l.07-.09c.12-.19-.2.22-.06.06a5.81,5.81,0,0,1,.43-.43c.25-.21-.24.16,0,0a3.28,3.28,0,0,1,.31-.2l.11-.05s.3-.14.07,0,0,0,0,0l.18-.06.35-.09.12,0c-.4.11-.17,0,0,0h.48c.23,0-.33-.07-.1,0l.35.08.11.05-.13-.06.11.05a1.27,1.27,0,1,0,1.28-2.19Z" fill="#231f20"/><path d="M149.07,267.85l.11.15c0,.09.11.18.15.27s.1.19.14.28c-.07-.16,0,.05,0,.11a8.66,8.66,0,0,1,.33,1.31c.15.86.22,1.75.45,2.6.48,1.7,1.62,3.54,3.51,3.85a1.32,1.32,0,0,0,1.57-.89,1.28,1.28,0,0,0-.89-1.56,3.07,3.07,0,0,1-.52-.14c.24.09,0,0,0,0l-.22-.14c.14.1.05,0,0,0l-.19-.19s-.2-.25-.11-.12-.07-.12-.09-.15a4.67,4.67,0,0,1-.27-.49s-.13-.31-.08-.17-.06-.17-.06-.17a8.48,8.48,0,0,1-.29-1.1c-.15-.83-.22-1.68-.42-2.51a6.39,6.39,0,0,0-1.29-2.67,1.29,1.29,0,0,0-1.8,0,1.31,1.31,0,0,0,0,1.8Z" fill="#231f20"/><path d="M130,283.41a8.36,8.36,0,0,0,8.36.46,1.27,1.27,0,1,0-1.28-2.2l-.4.19c.27-.12-.16.05-.2.07a6.24,6.24,0,0,1-.85.22c-.06,0-.52.08-.2,0l-.44,0a6.32,6.32,0,0,1-.87,0l-.44,0c.32,0-.15,0-.2-.05a6.24,6.24,0,0,1-.85-.22l-.41-.16c.28.12-.14-.07-.19-.1a7,7,0,0,1-.75-.44,1.27,1.27,0,0,0-1.74.45,1.3,1.3,0,0,0,.46,1.74Z" fill="#231f20"/><path d="M137.94,284.78a9.59,9.59,0,0,0,7.79-2,1.28,1.28,0,0,0,0-1.8,1.3,1.3,0,0,0-1.79,0h0l-.17.12-.35.24c-.24.15-.49.28-.74.41l-.18.08-.29.12c-.27.09-.54.18-.81.25a8.09,8.09,0,0,1-.83.16c.31-.05,0,0-.08,0l-.43,0c-.28,0-.56,0-.84,0l-.42,0c.33,0-.12,0-.19,0a1.3,1.3,0,0,0-1.56.89,1.28,1.28,0,0,0,.89,1.56Z" fill="#231f20"/><path d="M151.72,282.15l.95-.58a1.2,1.2,0,0,0,.61-1.26,1,1,0,0,0-.15-.48l-.2-.25a1.23,1.23,0,0,0-.56-.33l-.34-.05a1.21,1.21,0,0,0-.64.18l-.95.58a1,1,0,0,0-.36.33,1,1,0,0,0-.23.43,1,1,0,0,0,0,.51,1,1,0,0,0,.15.47l.2.26a1.37,1.37,0,0,0,.56.32l.34.05a1.21,1.21,0,0,0,.64-.18Z" fill="#231f20"/><path d="M158.93,247.42a23.37,23.37,0,0,0,15.16-25.77c-.29-1.6-2.74-.92-2.45.68,1.7,9.44-4.32,19.57-13.39,22.64-1.54.53-.88,3,.68,2.45Z" fill="#231f20"/><path d="M47.88,275.65a5.17,5.17,0,0,0-5.17,3.17,4,4,0,0,0,2.35,5,3.4,3.4,0,0,0,3.31-.25,1.41,1.41,0,0,0,.58-.76,1.24,1.24,0,0,0-.13-1,1.28,1.28,0,0,0-1.73-.46l-.2.13-.11.06c-.09.07.16-.06.16-.06a1.72,1.72,0,0,0-.21.07l-.12,0c-.13,0-.18,0,.12,0h-.44l.18,0-.12,0-.25-.07-.09,0c-.19-.05.11.05.12.06a1.86,1.86,0,0,0-.2-.1l-.2-.12-.12-.07c-.14-.09.08.05.1.08-.1-.12-.24-.21-.34-.32s-.2-.31,0,0c0-.07-.1-.14-.15-.22s-.07-.13-.11-.2c-.13-.23.07.23,0,0l-.07-.21c0-.07-.07-.36,0-.13s0,0,0-.09,0-.16,0-.25-.06.28,0,.12a.36.36,0,0,0,0-.11c0-.09.05-.18.08-.28a.69.69,0,0,1,0-.13c0-.14.07,0,0,.1a1.14,1.14,0,0,0,.1-.19l.15-.25a.47.47,0,0,0,.06-.09c.08-.13-.18.22,0,.06a4.21,4.21,0,0,1,.36-.37c.05,0,.27-.22.1-.09s.1-.06.15-.09.38-.2.57-.31c0,0-.26.1-.13.06l.17-.06.29-.09.3-.06c.21-.05-.09,0-.11,0h.15a3,3,0,0,1,.67,0,1.29,1.29,0,0,0,1.27-1.28,1.31,1.31,0,0,0-1.27-1.27Z" fill="#231f20"/><path d="M54.12,275.58a4.5,4.5,0,0,0-1.46,1.72,5.42,5.42,0,0,0-.5,2.24,4.88,4.88,0,0,0,2,3.95,1.27,1.27,0,0,0,1.74-.45,1.31,1.31,0,0,0-.45-1.74c.33.25,0,0-.09-.1l-.12-.12c-.09-.09-.13-.23,0,0-.12-.21-.26-.41-.37-.62s.1.28,0,.08l-.06-.2a2.14,2.14,0,0,1-.09-.34,1.55,1.55,0,0,1,0-.21c0-.21,0,.26,0,.1s0-.26,0-.39,0-.23,0-.35.09-.27,0,.06a1.22,1.22,0,0,0,0-.17,7.15,7.15,0,0,1,.21-.7c-.09.33-.06.15,0,.05l.08-.16a2.82,2.82,0,0,0,.21-.31c0,.07-.19.22,0,.06l.12-.12c.08-.09.43-.38.11-.13A1.38,1.38,0,0,0,56,277a1.25,1.25,0,0,0-.13-1,1.27,1.27,0,0,0-1.73-.45Z" fill="#231f20"/><path d="M54.64,95.12a3.47,3.47,0,0,1-1.88,3.61A11.39,11.39,0,0,1,47.53,100a6.81,6.81,0,0,1-4.62-1.08c-1.31-1-2.64-2.54-4.5-1.87-1.52.55-.86,3,.68,2.45.7-.25,1.44.73,1.95,1.16a7.64,7.64,0,0,0,2.59,1.46,13.92,13.92,0,0,0,6.16.18,9.74,9.74,0,0,0,5.66-2.44,5.76,5.76,0,0,0,1.64-5.4c-.38-1.59-2.83-.92-2.45.68Z" fill="#231f20"/><path d="M176.23,120.05c6,1.62,12.15.6,17.94-1.29,5.6-1.82,11.05-4.23,16.48-6.53,10.17-4.3,20.27-9,29.25-15.54a73.53,73.53,0,0,0,13.57-12.5c1-1.25-.75-3.06-1.8-1.8-6.8,8.19-15.51,14.39-24.82,19.42A241.32,241.32,0,0,1,197,115.08c-6.38,2.4-13.3,4.36-20.07,2.52a1.27,1.27,0,0,0-.68,2.45Z" fill="#231f20"/><path d="M253.91,82.92l-.51-8.78c-.05-.9-.46-2.57.2-3.33s1.9-.8,2.74-1l3.93-.82a3.43,3.43,0,0,1,1.93,0,4.58,4.58,0,0,1,1.37,1.08c2.13,2,4.23,4.09,6.35,6.13,1.18,1.14,3-.66,1.8-1.8L268,70.82c-1.16-1.12-2.28-2.35-3.53-3.36a5,5,0,0,0-4.22-1c-1.65.28-3.3.67-4.94,1a6.93,6.93,0,0,0-3.38,1.42,4.38,4.38,0,0,0-1.17,3.65c.16,3.47.4,6.93.6,10.39.1,1.62,2.64,1.64,2.54,0Z" fill="#231f20"/><path d="M266.37,71.19a91.11,91.11,0,0,1,10.54-16A7.83,7.83,0,0,1,280,52.64a2.86,2.86,0,0,1,3,.49c.85,1,.34,2.49-.17,3.5a24.86,24.86,0,0,1-2.51,3.76,65.11,65.11,0,0,1-7.23,8.07c-1.18,1.13.62,2.92,1.8,1.79a68.5,68.5,0,0,0,7.52-8.44c1.85-2.45,4.58-5.85,3.23-9.13-1.27-3.12-5.23-3.39-7.81-1.81a13.78,13.78,0,0,0-3.44,3.33q-1.83,2.31-3.54,4.72a102.76,102.76,0,0,0-6.73,11c-.76,1.45,1.43,2.73,2.19,1.29Z" fill="#231f20"/><path d="M277.21,69.49a16.42,16.42,0,0,1,8.2-4.89l-1.61-1.23a14.24,14.24,0,0,1-1.41,8.18,7.85,7.85,0,0,1-5.56,4,1.27,1.27,0,0,0,.68,2.45,10.24,10.24,0,0,0,7-5,16.41,16.41,0,0,0,1.87-9.64,1.29,1.29,0,0,0-1.61-1.22,18.8,18.8,0,0,0-9.33,5.54c-1.1,1.21.7,3,1.8,1.8Z" fill="#231f20"/><path d="M279.81,77l2.74-1.26,1.37-.63c.2-.09.23-.11.1,0l.24-.09.25-.06c-.13,0-.12,0,0,0s.16,0,0,0a.52.52,0,0,1-.19-.12.47.47,0,0,1-.13-.25,1.84,1.84,0,0,1,0,.33,7.42,7.42,0,0,1-.14.85,12.39,12.39,0,0,1-.65,2.13,11.55,11.55,0,0,1-2.48,3.72c-.28.28-.58.55-.89.81l-.05,0-.21.14a3.68,3.68,0,0,1-.44.23c.19-.08-.25.06-.29.08s-.16,0,0,0h-.23c-.15,0-.15,0,0,0-.14,0-.14,0,0,0-.12-.07-.12-.07,0,0s.08.12,0,0c-.85-1.39-3.05-.12-2.19,1.28,1,1.58,2.95,1.41,4.36.57a11.59,11.59,0,0,0,3.44-3.53,14.22,14.22,0,0,0,2-4.49,6.22,6.22,0,0,0,.27-2.8,2.12,2.12,0,0,0-2.16-1.57,7.59,7.59,0,0,0-2.94,1l-3.08,1.42A1.27,1.27,0,0,0,279.81,77Z" fill="#231f20"/><path d="M262.76,76.94c1.1,2.42,2.53,5.2,5.28,6,2.33.68,5.34-.3,6-2.85a1.27,1.27,0,0,0-2.45-.67l-.09.29c.1-.29,0,0-.07.1-.11.24,0,0,0,.06l-.21.21c-.2.23.12,0-.08.08l-.26.16-.27.13c.2-.09,0,0-.08,0a6,6,0,0,1-.61.14c.31,0,0,0-.08,0h-.32l-.33,0c-.29,0,.18,0-.08,0s-.44-.11-.66-.19-.07,0,.06,0a.61.61,0,0,1-.14-.07l-.32-.18-.25-.17c.05.05,0,0-.08-.06l-.2-.18a5.47,5.47,0,0,1-.93-1.06,19.49,19.49,0,0,1-1.6-3,1.28,1.28,0,0,0-1.74-.46,1.31,1.31,0,0,0-.46,1.74Z" fill="#231f20"/><path d="M270.85,89.71a37.32,37.32,0,0,1-11.84.17,1.32,1.32,0,0,0-1.56.89,1.28,1.28,0,0,0,.89,1.56,41.11,41.11,0,0,0,13.19-.17,1.27,1.27,0,0,0,.88-1.56,1.3,1.3,0,0,0-1.56-.89Z" fill="#231f20"/><path d="M256.61,89.82c-7.5,6.83-15,13.7-23.54,19.25-8.75,5.7-18.36,10-27.72,14.54l-16.63,8.09c-1.47.72-.18,2.91,1.29,2.2,9.9-4.82,19.84-9.57,29.7-14.48A150.58,150.58,0,0,0,233.18,112a119.23,119.23,0,0,0,12.11-8.86c4.51-3.69,8.81-7.61,13.11-11.53,1.21-1.1-.59-2.89-1.79-1.8Z" fill="#231f20"/><path d="M193.09,132.11a1.27,1.27,0,0,0,0-2.54,1.27,1.27,0,0,0,0,2.54Z" fill="#231f20"/></svg>