<?xml version="1.0" encoding="utf-8"?>
<!-- Generator: Adobe Illustrator 23.1.0, SVG Export Plug-In . SVG Version: 6.00 Build 0)  -->
<svg version="1.1" id="Layer_1" xmlns="http://www.w3.org/2000/svg" xmlns:xlink="http://www.w3.org/1999/xlink" x="0px" y="0px"
	 viewBox="0 0 841.9 595.3" style="enable-background:new 0 0 841.9 595.3;" xml:space="preserve">
<style type="text/css">
	.st0{fill:#E3EAEC;}
	.st1{fill:#A6B4B5;}
	.st2{fill:#978F92;}
	.st3{fill:#78B22B;}
	.st4{opacity:0.35;fill:#FFF4A1;enable-background:new    ;}
	.st5{fill:none;stroke:#000000;stroke-width:2;stroke-miterlimit:10;}
	.st6{fill:#FFFFFF;}
	.st7{fill:#F9BC8A;}
	.st8{fill:#EF7743;}
	.st9{fill:#6F481E;}
	.st10{fill:#706F6F;}
	.st11{fill:#E16A3E;}
	.st12{fill:#CCCCCC;}
	.st13{fill:#FCFCFD;}
	.st14{fill:none;stroke:#FFFFFF;stroke-width:0.8303;stroke-miterlimit:10;}
	.st15{clip-path:url(#SVGID_2_);}
	.st16{clip-path:url(#SVGID_4_);fill:#92D2E0;}
	.st17{clip-path:url(#SVGID_6_);fill:none;stroke:#FFFFFF;stroke-width:2.4359;stroke-miterlimit:10;}
	.st18{clip-path:url(#SVGID_8_);}
	.st19{clip-path:url(#SVGID_10_);}
	.st20{clip-path:url(#SVGID_12_);fill:#FBBB21;}
	.st21{clip-path:url(#SVGID_14_);fill:none;stroke:#FFFFFF;stroke-width:2.1646;stroke-miterlimit:10;}
	.st22{clip-path:url(#SVGID_16_);}
	.st23{clip-path:url(#SVGID_18_);}
	.st24{clip-path:url(#SVGID_20_);}
	.st25{clip-path:url(#SVGID_22_);fill:#76B82A;}
	.st26{clip-path:url(#SVGID_24_);fill:none;stroke:#FFFFFF;stroke-width:2.6397;stroke-miterlimit:10;}
	.st27{clip-path:url(#SVGID_26_);}
	.st28{clip-path:url(#SVGID_28_);}
	.st29{clip-path:url(#SVGID_30_);fill:#FFF042;}
	.st30{clip-path:url(#SVGID_32_);fill:none;stroke:#FFFFFF;stroke-width:2.4328;stroke-miterlimit:10;}
	.st31{clip-path:url(#SVGID_34_);}
	.st32{clip-path:url(#SVGID_36_);}
	.st33{clip-path:url(#SVGID_38_);fill:#76B82A;}
	.st34{clip-path:url(#SVGID_40_);fill:none;stroke:#FFFFFF;stroke-width:5;stroke-miterlimit:10.0001;}
	.st35{clip-path:url(#SVGID_42_);}
	.st36{clip-path:url(#SVGID_44_);fill:none;stroke:#000000;stroke-miterlimit:10;}
	.st37{clip-path:url(#SVGID_46_);fill:#76B82A;}
</style>
<g id="background_1_">
	<g>
		<rect x="-0.3" y="0" class="st0" width="841.9" height="595.3"/>
		<path class="st1" d="M792.2,89.7c-7.1-19.4-101.4-7.2-81-19c20.5-11.8,21.2-18.5-36.2-21s-500.3-16-491.4,0s38.7,17.7,21.8,22.7
			S56.6,70.9,75.9,89.7s68.5,23.9,46.9,33.2S55.2,138,80.1,172.5s103.9,37.3,83.2,55.7s-93.3,42.5-56,64.7
			c37.3,22.2,112.7,38.7,85.9,49.2c-26.9,10.5-45.8,21.2-40.9,26s100.1,20.4,70.1,31.1s45.8,35.1,64.2,38.4
			c18.4,3.4-93.7,14.6-58.3,22.6s88.7,6.4,69.7,11.3c-19,4.8-4.3,7.4,2.1,11.6s55.7,4.2,41.4,9.3c-14.3,5-37.9,14.3-37.9,14.3
			s68.1-10.1,84.1-18.5c16.1-8.4-55.9-28.8-14.6-27.9s224.4-1.6,156.3-20.1c-68.2-18.5,3.1-22.7,36-28.6s-46.7-19.4-13-23.6
			s105.7,7.4,68.9-6s-62.8-28.2-6.1-29.7c56.7-1.4,162.4,15.9,131.8-13.8c-30.6-29.7,67.4-22.1,39.8-40.6s-97.3-16.1-52.9-23.6
			s118,0.9,75.1-12.6c-42.9-13.5-99.6-22.3-45.2-32.6c54.4-10.3-26.8-36.4-6.1-42.3s112.6-26.1,49-43.8S797.8,105,792.2,89.7z"/>
	</g>
</g>
<g id="lamp">
	<g>
		<path class="st2" d="M662.7,449c-3.2-5.1-5-10.1-4.7-16.8c0.2-6.6-0.6-1.3-0.1-55.4s-3.1-101.1-2.3-122.6s2.5-43.8-2.8-44.4
			c-5.3-0.6-7.2-0.4-8,3.9c-0.9,5-1,46.6,0,111.5s1.2,99-0.9,112.8c-2.3,14.8-14,21.7-9.7,21.7c11,0,8.3,0,17.6,0
			c2.9,0-0.4,0.2,11.5-0.2C666.3,459.4,664.5,451.8,662.7,449z"/>
		<path class="st3" d="M624.6,207.8c-10.7-3.3,0.4-56.8,8.6-61.6c8.2-4.7,26.2-5.6,35.1-1.6c4.4,2,20.9,65.1,16,65.3
			c-11.7,0.4-25.4-1.7-36.1-0.2C637.4,211.2,631,209.7,624.6,207.8z"/>
	</g>
</g>
<g id="light_x5F_on">
	<path class="st4" d="M684,130.8c-13.9-9.8-31.2-15.4-46-9.8c-33.7,12.8-27.6,23.6-32.2,40.4c-4.6,16.9-14.4,45.1-6.9,53.4
		c9.2,10.2,35.3,17.2,51.4,16.4c16.1-0.8,39-1.6,49.7-10.8s-0.8-42.9-5.4-55.1C690.2,153,691.4,136,684,130.8z"/>
</g>
<g id="outline">
	<line class="st5" x1="44.5" y1="459.7" x2="782.9" y2="459.7"/>
	<path class="st5" d="M644.7,209.7c0,74.9,0,151.6,0,226.5c-4,7.8-8.1,15.7-12.1,23.5c11.9,0,23.8,0,35.8,0
		c-3.7-7.5-6.7-16-10.3-23.5c0-75.8-0.6-150.7-0.6-226.5C652.8,209.7,649.3,209.7,644.7,209.7z"/>
	<polygon class="st5" points="683,209.7 617.9,209.7 632.5,144.6 668.3,144.6 	"/>
	<line class="st5" x1="626.3" y1="198.9" x2="680.5" y2="198.9"/>
	<line class="st5" x1="638.7" y1="155.8" x2="630.3" y2="194.1"/>
	<line class="st5" x1="650.4" y1="156.3" x2="650.4" y2="195.3"/>
	<line class="st5" x1="662.2" y1="155.8" x2="670.5" y2="194.1"/>
	<line class="st5" x1="622.8" y1="215.5" x2="614.4" y2="253.8"/>
	<line class="st5" x1="636.9" y1="216.5" x2="631.8" y2="255.2"/>
	<line class="st5" x1="666.4" y1="216.4" x2="671.1" y2="255.3"/>
	<line class="st5" x1="678.1" y1="215.8" x2="686.5" y2="254.1"/>
	<line class="st5" x1="665.3" y1="140.8" x2="670" y2="119.3"/>
	<line class="st5" x1="653.4" y1="140.6" x2="656.3" y2="118.5"/>
	<line class="st5" x1="646.3" y1="140.4" x2="643.7" y2="118.5"/>
	<line class="st5" x1="634.6" y1="140.9" x2="629.9" y2="119.3"/>
</g>
<g id="snif">
	<path class="st6" d="M234,452.5c-1.1-12.3-2.3-24.7-1.6-37c0.2-3,0.5-6.1-0.1-9.1c-0.5-3-2-6-4.7-7.6c-0.7-0.4-1.5-0.8-1.7-1.6
		c-0.2-0.9,0.8-1.7,1.7-2.1c3-1.5,6.2-2.7,9.5-3.5c0.5-0.1,1.1-0.3,1.6,0c0.6,0.3,0.8,1,1,1.6c4.8,15.8,3.8,32.8,0.9,49
		c-0.4,2.2-0.8,4.5-0.6,6.7c0.3,2.4,4,7.9,0.9,9.2C238,459.3,234.2,455,234,452.5"/>
	<path class="st6" d="M169.3,418.5c-0.1-1.3-0.4-2.8-1.5-3.4c-0.6-0.4-1.3-0.4-2.1-0.4c-2.8-0.1-5.6-0.2-8.3-0.3
		c-1.1,0-2.4-0.2-3-1.1c-0.7-1.1,0-2.6,0.8-3.6c4.9-6.3,13.6-7.9,21.6-8c1.3,0,2.8,0,3.7,1c0.5,0.6,0.7,1.4,0.9,2.1
		c2.9,11.3,4.5,23.5,0.5,34.5c-1.3,3.5-3.2,6.9-5.8,9.5c-2.9,2.8-4.8,4.1-5.1-0.5C170.3,438.3,170.2,428.4,169.3,418.5"/>
	<path class="st6" d="M133.4,305c-2.2-2.9-3.4-3-4.5-3.9c-4.2-3.3-11.3-9-13.3-14c-0.5-1.3,0.4-6.8,0.9-8.1c0.9-2.3,4.3-2.6,6.7-2.6
		c11.7,0.1,28.8,5.5,39.9,1.7c12-4.1,22.2-13.7,34.8-14.6c1.5,4-2.4,7.9-5.8,10.5c-7.5,5.7-15,11.3-22.5,17c-3.4,2.5-7.1,7-4.6,10.4
		c4.1-3.4,8.2-6.8,12.4-10.1c0.9-0.7,1.8-1.5,2.9-1.4c0.8,0.1,1.5,0.6,2.2,1.1c4.3,3.2,8.7,6.4,13,9.6c0.6,0.4,1.2,0.9,1.4,1.6
		c0.2,1-0.5,1.9-0.9,2.8c-1.3,2.7-0.2,6.3,2.4,7.8c-2.3,0.5-3.4,3.3-2.9,5.6c0.5,2.3,2,4.2,3.2,6.2c3.8,6.5,4.4,14.4,4.9,21.9
		c0.2,2.7,0.3,5.4-0.7,7.9c-2,5-8,7.2-10.7,11.8c-2.1,3.5-2.7,8.6-6.6,9.9c-3.2,1-7.3-1.2-9.7,1c-2.2,2-0.9,5.6-0.9,8.6
		c0,4.1-2.9,7.6-6.3,9.9c-3.3,2.3-7.1,3.9-10.5,6.2c-1.5,1.1-3.5,2.3-5,1.2c-1.7-1.3-0.4-4,0.6-5.9c3.9-7.3,1.3-16.4-2.5-23.7
		c-3.9-7.3-9-14.2-10.4-22.4c-0.6-3.4-0.7-7.4-3.4-9.6c-1.3-1.1-3.2-1.6-4.1-3c-1.6-2.4,0.4-5.4,1.7-8c2.5-5.3,0.7-8.9-0.3-14
		C134.1,312.6,136,308.5,133.4,305"/>
	<path class="st1" d="M249.6,479.5c-9.8,0.1-19.7,0.1-29.1-2.4c-3.1-0.8-6.2-1.9-9.5-2c-2.8,0-5.5,0.7-8.1,1.3
		c-19.6,4.4-36-0.5-55.1-1.4c-18.4-0.9-36,7.7-54.5,5.4c-6.2-0.8-12.4-2.9-18.7-2.4c-9,0.8-16.5,6.8-25.3,8
		c-8.1,1.1-13.8-3.7-22.3-1.4c5.6,4.9,14.6,5.1,21.7,5.3c31.2,0.7,62.4-0.4,93.5-3.3c8-0.7,16.1-1.6,24.2-0.7
		c4.7,0.5,9.4,1.6,14.1,1.6c21,0,41.2-6.7,62.5-5c7.5,0.6,14.8,2.3,22.2,3.4c5.1,0.8,12.1,3,17.1,2c2.3-0.5,4.4-1.7,6.6-2.4
		c3.7-1.3,7.8-1.4,11.8-1.5c15.7,0,31.4-0.7,47.1-1c14.5-0.3,30.9,1.3,45.1-1.3c-6.4-5.5-18.8-3-26.6-3c-13,0.1-25.9,0.1-38.9,0.2
		C301.5,479.2,275.6,479.4,249.6,479.5"/>
	<path class="st7" d="M83.8,254.6c-1.5,0-3.7,0.6-3.4,2.1c2.6,3.2,6,5.6,9.4,7.9c4.8,3.2,9.7,6.4,14.6,9.5c3.7,2.3,7.6,4.7,12,4.9
		c14,0.7,10-16.2,2-21.5C109.8,251.9,93.5,254.8,83.8,254.6"/>
	<path class="st8" d="M189.7,276.2c-9.8,7.6-21.8,12.8-34.2,13.1c-5.5,0.2-10.9-0.6-16.1-2.2c-7.6-2.4-14.8-6.9-18.8-13.8
		c-5-8.7-3.9-20.3,1.9-28.4c5.8-8.2,15.9-12.9,25.9-13.1c10-0.3,19.9,3.6,27.8,9.9c2.7,2.1,5.3,4.6,8.6,5.6
		c8.5,2.6,25.4-15.1,27.1-0.7C213.2,257,197,270.5,189.7,276.2"/>
	<path class="st9" d="M135.5,227.8c0.8-3.9,1.1-7.9,3.6-11.2c1.7-2.3,4.5-4.3,4.1-7.1c1.7,0,2.8,1.8,3.5,3.4
		c3.1,6.6,6.2,13.1,9.2,19.7c-3.6,1.5-7.7-0.5-11.6-0.2c-1.9,0.2-3.8,0.9-5.6,1.7c-3.1,1.3-6.1,2.9-9,4.7c-3.2,1.9-6.2,0.7-2-1.5
		c1.5-0.8,3.3-1.2,4.9-2c0.3-0.2,0.6-0.4,0.8-0.6c0.5-0.5,0.6-1.2,0.8-1.8c0.3-1.1,0.6-2.2,0.8-3.3
		C135.3,228.9,135.4,228.3,135.5,227.8"/>
	<path class="st9" d="M116.6,271.6c0.2,0.3,0.5,0.7,0.5,1.1c0.1,0.8-0.7,1.5-1.5,1.6s-1.6-0.2-2.4-0.5c-7.7-3-15.2-6.8-22.2-11.3
		c-0.8-0.5-1.8-1.3-1.6-2.3C96.7,262.6,112,265.2,116.6,271.6"/>
	<path class="st6" d="M159.8,263.1c-8.9,1.4-19.4-10.8-9.1-16.7c2.1-1.2,4.7-1.3,7.2-1.2c2,0.1,4,0.3,5.8,1
		C172.2,249.7,167.4,261.9,159.8,263.1"/>
	<path class="st8" d="M150.2,320.4c1.2-3.3,2.2-9.1-0.2-12.2c-4.5-5.7-11.4,2.3-15.4,5.2c-2.2,1.5-4.4,3.1-6.9,4
		c-6.9,2.4-14.3-0.5-20.1-4.3c-6.1-4-12.8-5.8-19.2-9.2c-7.7-4.1-14.9-9.4-23.1-12.5c-1.1,2.7-0.1,5.9,1.7,8.2
		c1.8,2.3,4.3,3.9,6.8,5.4c7.5,4.7,15.1,9.4,22.6,14.1c9,5.6,18.3,11.3,28.7,13.7c2.3,0.5,5.4,2.3,4.2,4.3c-0.4,0.7-1.2,1-1.6,1.7
		c-0.9,1.5,0.7,3.4,2.3,4c1.6,0.6,3.6,0.8,4.7,2.1c2.2,2.5-0.2,6.6,1.2,9.6c1,2.2,3.8,3.2,4.6,5.5c0.5,1.3,0.2,2.8,0.3,4.3
		c0.2,4.9,4.5,8.4,7.4,12.4c4.6,6.1,6.2,14.4,4.2,21.7c3.9,1.1,8.2-1.2,10.3-4.6s2.3-7.8,1.5-11.7c-1.8-8.7-8-15.7-13.2-22.9
		s-9.6-16.1-7.3-24.7C145,329.3,148.5,325.2,150.2,320.4"/>
	<path class="st8" d="M203.2,347.9c-2.3,2.6-6.5,3-10.1,4.2c-0.9,0.3-1.8,0.6-2.4,1.3c-0.5,0.5-0.8,1.1-1,1.8c-0.9,2.4-1.2,5-1,7.6
		c0.2,2,0.7,4.1,0.1,6c-0.9,2.7-3.8,4.2-6.7,4.3c-4.1,0.1-8.5-1.6-12.4-2.5c-0.7-0.2-1.5-0.3-2.1,0c-0.5,0.2-0.9,0.8-1.1,1.3
		c-0.9,2-0.4,4.4,0.5,6.4s2.2,3.9,2.9,6c2.1,5.9-1.9,9.9-2.6,15.5c5.2-1.6,11.6-3,15.4,0.8c1.2,1.2,2,2.8,2.7,4.4
		c3.7,8.7,5.4,18.2,5.2,27.6c0,1.6,0,3.5,1.4,4.2c0.7,0.4,1.6,0.3,2.3,0.1c5.3-1.2,8.4-7,8.6-12.4s-1.8-10.6-3.3-15.8
		c-1.7-5.8-2.8-11.7-3.4-17.7c-0.3-3.6-0.4-7.3,0.5-10.8c1.4-5.1,5-9.3,7.5-14c4.6-8.6,7-24-0.2-31.9c1.3,1.4,1,10,0.3,11.7
		C204.1,346.7,203.7,347.3,203.2,347.9"/>
	<path class="st8" d="M202.3,304.8c1.8-1.1,2.6-1.4,3.9-2.5c0.6-0.5,0.4-2.1,2-3.4c3.3-2.6,10.3-2.1,14.2-1.9
		c2.3,0.1,26.3,3.6,26.4,2.6c-0.5,5.5-4.7,3.6-8.3,4c-5.9,0.6-10.9,4.3-16.3,6.7c-4.5,2-9.1,4-13.9,4.6c-1,0.1-2,0.2-3-0.1
		c-1.8-0.5-3.1-2-4.2-3.4c-0.8-1-1.6-2-1.9-3.2C200.9,306.9,201.2,305.4,202.3,304.8"/>
	<path class="st10" d="M223.3,296.5c10.8-0.3,21.5-4,30.2-10.5c0.9-0.6,1.7-1.3,2.2-2.3c0.5-0.8,0.6-1.8,1-2.6
		c1.7-4.3,7.7-6.2,11.6-3.5c0.5,0.3,1,0.8,1.5,0.9c0.6,0.2,1.2,0,1.8-0.1c7.1-1.4,14.2-2.6,21.4-3.4c1.4-0.2,2.9-0.3,4.2,0.3
		c1.3,0.6,2.3,2.1,1.8,3.4s-2.1,1.8-3.5,2c-2.8,0.6-5.6,1.1-8.4,1.7c1.3,0.5,2.7,1,4,1.4c0,4.2-4.7,7.6-8.7,6.4c1,2,4.3,1.9,5.3,3.9
		c0.8,1.7-0.7,3.7-2.5,4.2s-3.7-0.1-5.5-0.6s-3.7-1-5.5-0.3c-1.3,0.5-2.2,1.6-3.4,2.4c-3.9,2.8-10.1,1.4-12.5-2.8
		c-3-0.9-5.7,1.7-8.7,2.7c-2.2,0.7-4.6,0.4-6.9,0c-5.8-0.8-11.5-1.6-17.3-2.4c2.5-1,5.1-1.5,7.8-1.5"/>
	<path class="st10" d="M60.2,276.8c-0.1-2.3,0.1-5.1-1.7-6.5c-0.9-0.7-2.2-0.8-3.3-0.9c-2.6-0.1-5.3,0.3-7.8,1
		c-2.3-4.6-5.6-8.7-9.6-12c-0.9-0.7-1.9-1.4-3-1.5s-2.4,0.8-2.3,1.9c0,0.6,0.4,1.1,0.8,1.6c1.5,1.9,3,3.8,4.5,5.7
		c-0.7,1-2.3,0.4-3.3-0.4s-2.5-1.6-3.4-0.6c-0.2,0.3-0.4,0.6-0.4,1c-0.7,3,0.2,6.3,2.3,8.6c0.2,0.2,0.4,0.5,0.4,0.8
		c-0.1,0.4-0.7,0.4-1.1,0.4c-1.6,0.1-2.5,2.3-1.9,3.8s2.1,2.5,3.5,3.3s3,1.6,3.9,2.9c1,1.5,1.3,3.7,3,4.5c0.8,0.3,1.6,0.3,2.4,0.2
		c4.3-0.4,8.8-0.4,12.6,1.6c1.9,1,3.4,2.4,5.2,3.4c1.8,1.1,4,1.8,6,1.3c6.8-1.8,0.9-6.1-1.2-8.2C62.4,285.5,60.3,281.4,60.2,276.8"
		/>
	<path class="st8" d="M144.9,373.7c-1.9-3.2-4-6.2-5.8-8.4c-9.5-11.5-31.4-15.3-45.3-14.3c-16.3,1.3-32.8,11.3-37.4,27
		c-1.3,4.4-1.6,9.1-2.6,13.6c-1.2,5.5-3.5,10.8-4.1,16.4c-0.5,3.9-0.1,7.8-0.4,11.7c-0.7,9.3-4.8,18.3-11.5,24.9
		c-2.4,2.4-5.5,5.6-3.9,8.6c0.5,0.9,1.4,1.6,2.2,2.3c6.2,4.8,14.3,9.8,21.3,6.1c2.2-1.1,3.9-3,5.4-4.9c4.1-5,7.6-10.6,10.3-16.5
		c0.9-1.9,1.8-4,3.7-5.1c1.3-0.7,2.8-0.8,4.3-0.7c10,0.4,19.1,5.3,28.6,8.4c7.5,2.5,15.4,3.8,23.4,3.9c4.9,0.1,10.9-1.1,12.3-5.8
		c1.2-4.1-1.9-8-3.6-11.9c-1.3-3.1-1.7-6.6-0.7-9.7c0.7-2.1,1.9-3.9,3-5.8c3.4-5.9,5.7-12.5,6.7-19.2c0.3-2,0.5-4.1,0.2-6.2
		c-1.7-11.2-11.9-21.7-21.1-27.7c-5.5-3.6-12.3-5.8-18.8-4.9"/>
	<path class="st11" d="M139,417c-7.9,0.3-15.8-1.6-22.6-5.6c-6.4-3.7-11.7-9-18.2-12.3c-6.5-3.3-15.2-4.2-20.7,0.7
		c-6,5.5-5.2,15.4-2,22.9c1.2,2.9,2.8,5.8,5,8.1c1.6,1.6,3.5,3,5.4,4.2c17.2,11.2,39.9,16.4,58.6,7.8c0.7-0.3,1.4-0.7,1.9-1.4
		c1.3-2-1.3-4.2-2.8-6.1c-1.6-2-2.1-4.8-1.3-7.2c0.6-1.9,1.9-3.4,2.7-5.2c0.8-1.8,0.9-4.1-0.5-5.5c-1-1-2.6-1.1-4-1.2
		c-5.8-0.4-11.7-0.8-17.5-1.2"/>
	<path class="st8" d="M184.4,409.3c0.5,0.9,0.6,2.1,0.6,3.1c0.1,4.5-0.4,9.1-1.4,13.5c-0.5,2-1.8,4.5-3.9,4.1
		c-0.8-0.2-1.4-0.7-2-1.3c-2.8-2.9-5.2-6.8-9.1-7.7c-0.2,5.1-0.4,10.1-0.6,15.2c0,1.2-0.1,2.4-0.8,3.4c-0.6,0.9-1.5,1.4-2.4,1.9
		c-13.3,6.4-32.5-10.3-23.5-23.8c3.7-5.6,11.1-8.2,17.2-9.9C163.9,406.4,180.9,402.7,184.4,409.3"/>
	<path class="st11" d="M162.6,436.1c0.1,2.9-1.3,6.6-4.2,6.8c1.7,0.7,3.6,0.9,5.4,0.7c1.4-0.2,3-0.8,3.4-2.2c0.3-0.9,0-1.8-0.2-2.7
		c-1.5-5.5-1.9-15-5-19.6C159.4,424.4,162.4,430.7,162.6,436.1"/>
	<path class="st12" d="M191.8,300.3c-5.4,4.7-12,8.2-16.4,13.9c-1.9,2.5-4.2,5.7-7.2,5c-1.9-4.4-1.3-9.5,0.7-13.9
		c2.1-4.6,7.8-13,13.1-14.4C186,289.8,196.4,296.4,191.8,300.3"/>
	<path class="st10" d="M169.6,467.8c-0.2,0.4-0.4,0.8-0.4,1.3s0.3,1,0.6,1.4c2,2.6,5.2,4.3,8.6,4.5c2.5,0.1,5.5-0.3,6.9,1.7
		c1.3,1.8,0.2,4.6-1.7,5.8c-1.9,1.2-4.3,1.2-6.6,1.1c-4.6-0.2-9.1-0.6-13.7-1.3c-1.3-0.2-2.9-0.7-3.1-2c-0.1-0.5,0-1.1,0.2-1.6
		c0.6-2.2,1.3-4.4,1.9-6.7c0.4-1.5,0.8-3,1.6-4.3c0.9-1.7,2.2-3.1,3.1-4.8c2.2-4.4,1-10.1,4-13.9c1.8-2.3,4.8-3.4,7.4-4.9
		c2.6-1.5,5.1-3.9,4.8-6.9c2.2-2.3,1.3,10.3-0.4,12.8C178.6,456.2,173.2,461.1,169.6,467.8"/>
	<path class="st10" d="M262.9,472.2c2.6,1.4,5.5,1.5,8.4,1.7c1.3,0.1,2.6,0.1,3.6,0.8c1.1,0.6,1.8,2.1,1.2,3.2
		c-0.3,0.5-0.8,0.9-1.3,1.2c-1.7,1.2-3.7,2.4-5.8,1.9c-1-0.2-2-0.9-3-1c-2.4-0.4-4.6,1.9-7.1,1.8c-1.4-0.1-2.7-1-3.8-1.9
		c-6.6-5.4-11.8-12.6-14.9-20.7c-3.1-8.3,0-12.1,1.9-19.7c2.2,5.5,4.9,10,8.2,14.9C254.2,459.8,256.7,468.9,262.9,472.2"/>
	<path class="st8" d="M237.9,392c1.2-0.2,2.5-0.3,3.4,0.4c0.6,0.5,1,1.2,1.2,2c1.4,4.7-1.7,9.5-2.4,14.3c-0.7,4.9,1.1,10.4-1.4,14.7
		c-1.5,2.7-4.6,4.5-5.3,7.5c-0.4,1.7,0.1,3.5-0.3,5.2c-0.4,1.7-2.3,3.3-3.8,2.3c-0.4-6.5-0.8-12.9-1.1-19.4c-2.8-0.8-5.2,2-7.1,4.3
		c-4.6,5.6-11.1,9.6-18.1,11.2c-0.8,0.2-1.8,0.3-2.5-0.2c-0.5-0.4-0.7-1-0.8-1.6c-0.5-3.3,1-6.4,1-9.7c-0.1-3.1-1.8-6-1.9-9
		c-0.1-4.4,1.2-6.3,4.6-9C212.7,397.6,226.5,393.6,237.9,392"/>
	<path class="st7" d="M146.1,210.7c1.8-0.3,3.1,1.5,4,3.1c1.3,2.3,12,14.8,6.2,15.9C151.2,230.7,147,214,146.1,210.7"/>
	<path d="M132.9,328.1c-1.2,2.6-2.4,5.2-3.5,7.7c-0.6,1.3-1.1,2.5-1.7,3.8c-0.1,0.3-0.3,0.6-0.4,0.9c-0.3,0.7-0.4,0.4,0,0.7
		c0.5,0.4,1.5,0.6,2.1,0.8c1.3,0.5,2.6,1,4,1.5c0.8,0.3,1.7,0.7,2.1,1.5c0.5,1.1,0,2-0.6,2.9c-0.8,1.2-1.5,2.4-2.3,3.6
		c-0.5-0.6-1-1.2-1.4-1.9c3.7-1.1,7.6,1.8,7.7,5.6c0,1.6-2.5,1.6-2.5,0c0-2.2-2.4-3.8-4.5-3.2c-1,0.3-2-0.9-1.4-1.9
		c0.7-1.1,1.5-2.3,2.2-3.4c0.1-0.2,0.6-0.7,0.6-0.9c0,0.2,0.1,0.2-0.1,0.1c-0.7-0.3-1.4-0.5-2.1-0.8c-1.3-0.5-2.6-1-4-1.5
		c-1-0.4-2.1-0.8-2.3-2c-0.2-1.1,0.5-2.2,0.9-3.2c0.6-1.3,1.1-2.5,1.7-3.8c1.2-2.7,2.4-5.3,3.6-8
		C131.4,325.3,133.6,326.6,132.9,328.1"/>
	<path d="M284.3,281.1c2.5-0.3,5.2-0.4,7.6,0.2c2.2,0.5,3.6,2.3,3.5,4.6c-0.3,4.8-5.5,6.3-9.6,5.8c-2.4-0.3-4.5-1.2-5.5-3.5
		c-0.3-0.6,0.3-1.4,0.9-1.6c0.7-0.2,1.3,0.3,1.6,0.9c0.2,0.4,0.6,0.8,1.1,1.1c0.5,0.3,1.3,0.5,2,0.6c1.4,0.2,3.1,0.1,4.5-0.4
		s2.3-1.4,2.5-2.8c0-0.1,0-0.1,0-0.3c0-0.1,0-0.4,0-0.4s-0.1-0.3-0.1-0.4c-0.1-0.2-0.1-0.2-0.1-0.3c-0.1-0.2-0.2-0.3-0.4-0.5
		c-0.3-0.2-0.7-0.3-1.1-0.4c-2.2-0.5-4.7-0.3-6.9-0.1c-0.7,0.1-1.3-0.6-1.3-1.3C283,281.7,283.6,281.2,284.3,281.1"/>
	<path class="st6" d="M183.3,233.1c1.5-1.5,3-1.2,4.9-0.3s4,4.4,4.8,6.5c0.6,1.6,0.7,3.5-0.4,4.7c-1.1,1.2-2.9,1.2-4.4,1.7
		c-2.1,0.8-4.1,2.9-6.2,2.1c-1.3-0.5-3.6-0.9-3.6-2.3c0-1.4-1.7-4.6-1.2-5.9c0.6-1.5,2.3-4.3,2.9-5.8c0.2-0.6,3.9-1.2,4.1-0.6"/>
	<path d="M149.1,246.3c4.9-2.1,11.2-3,16.2-0.7c4.6,2.1,5.5,7.8,3.2,12s-7.9,7.5-12.7,7.1c-4.7-0.4-8.8-3.8-10.3-8.2
		c-1-2.7-0.9-5.9,0.5-8.5c1.3-2.4,3.9-4,6.6-4.1c1.6,0,1.6,2.5,0,2.5c-4.4,0.1-5.9,5.1-4.9,8.7c1,3.4,4,6.3,7.5,6.9
		c3.8,0.6,8.2-1.7,10.4-4.7c2-2.7,2.4-7.3-0.9-9.2c-2-1.2-4.7-1.3-6.9-1.3c-2.6,0.1-5.1,0.6-7.5,1.6
		C148.9,249.1,147.6,247,149.1,246.3"/>
	<path d="M178.1,234.3c1.9-2.9,5.6-4.5,9-3.6s5.9,4,6.1,7.5c0.3,3.5-1.5,7.7-4.2,10c-2.8,2.3-6.6,2.2-9.5,0.1
		c-3.5-2.6-4.5-7.1-4.3-11.2c0.1-1.6,2.6-1.6,2.5,0c-0.2,2.8,0.2,5.9,2.1,8.1c1.6,1.8,4.3,2.9,6.6,1.7c2.3-1.3,3.6-4.1,4-6.6
		c0.5-2.7-0.6-5.3-3-6.6c-2.5-1.3-5.7-0.3-7.3,2C179.4,236.9,177.2,235.7,178.1,234.3"/>
	<path d="M160.4,252.5c0.4-0.2,1-0.2,1.4,0c0.5,0.1,0.9,0.4,1.2,0.7c0.6,0.5,1.1,1.4,1.1,2.2c0,0.9-0.5,1.8-1.3,2.2
		c-0.7,0.4-1.5,0.5-2.3,0.3c-0.9-0.2-1.6-0.9-1.9-1.8c-0.2-0.6,0.2-1.4,0.9-1.6c0.7-0.2,1.3,0.2,1.6,0.9v0.1l-0.1-0.3
		c0,0.1,0.1,0.2,0.2,0.3c-0.1-0.1-0.1-0.2-0.2-0.3c0.1,0.1,0.2,0.2,0.2,0.2c-0.1-0.1-0.2-0.1-0.3-0.2c0.1,0.1,0.2,0.1,0.3,0.2
		c-0.1,0-0.2-0.1-0.3-0.1c0.2,0.1,0.3,0.1,0.5,0.1c-0.1,0-0.2,0-0.3,0c0.2,0,0.3,0,0.5,0c-0.1,0-0.2,0-0.3,0c0.1,0,0.3-0.1,0.4-0.1
		c-0.1,0-0.2,0.1-0.3,0.1c0.1-0.1,0.2-0.1,0.3-0.2c-0.1,0.1-0.2,0.1-0.3,0.2c0.1-0.1,0.2-0.1,0.2-0.2c-0.1,0.1-0.1,0.2-0.2,0.3
		c0.1-0.1,0.1-0.2,0.2-0.3c0,0.1-0.1,0.2-0.1,0.3c0-0.1,0.1-0.2,0.1-0.3c0,0.1,0,0.2,0,0.3c0-0.1,0-0.2,0-0.4c0,0.1,0,0.2,0,0.3
		c0-0.1-0.1-0.3-0.1-0.4c0,0.1,0.1,0.2,0.1,0.3c-0.1-0.1-0.1-0.3-0.2-0.4c0.1,0.1,0.1,0.2,0.2,0.3c-0.1-0.1-0.2-0.2-0.3-0.3
		c0.1,0.1,0.2,0.1,0.3,0.2c-0.1-0.1-0.2-0.2-0.4-0.2c0.1,0,0.2,0.1,0.3,0.1c-0.1-0.1-0.3-0.1-0.4-0.1c0.1,0,0.2,0,0.3,0
		c-0.1,0-0.2,0-0.3,0c0.1,0,0.2,0,0.3,0c-0.1,0-0.2,0-0.3,0.1c-0.3,0.1-0.7,0-1-0.1c-0.3-0.2-0.5-0.5-0.6-0.8s-0.1-0.7,0.1-1
		C159.8,252.8,160,252.6,160.4,252.5"/>
	<path d="M185,239.4c0.3-0.1,0.6-0.1,0.8-0.2c0.3,0,0.6,0,0.9,0.1c0.5,0.1,1.1,0.5,1.4,0.9c0.4,0.5,0.7,1.2,0.7,1.8
		s-0.2,1.2-0.5,1.7c-0.3,0.3-0.5,0.6-0.9,0.8c-0.3,0.2-0.6,0.3-0.9,0.4c-0.2,0.1-0.3,0.1-0.5,0c-0.2,0-0.3-0.1-0.5-0.2
		c-0.3-0.2-0.5-0.5-0.6-0.8s-0.1-0.7,0.1-1c0.2-0.3,0.4-0.5,0.8-0.6c0.1,0,0.2,0,0.4-0.1c-0.1,0-0.2,0.1-0.3,0.1
		c0.1-0.1,0.3-0.1,0.4-0.2c-0.1,0.1-0.2,0.1-0.3,0.2c0.1-0.1,0.2-0.2,0.3-0.3c-0.1,0.1-0.1,0.2-0.2,0.3c0.1-0.1,0.2-0.3,0.2-0.4
		c0,0.1-0.1,0.2-0.1,0.3c0.1-0.1,0.1-0.3,0.1-0.4c0,0.1,0,0.2,0,0.3c0-0.1,0-0.2,0-0.4c0,0.1,0,0.2,0,0.3c0-0.1-0.1-0.3-0.1-0.4
		c0,0.1,0.1,0.2,0.1,0.3c-0.1-0.1-0.1-0.2-0.2-0.3c0.1,0.1,0.1,0.2,0.2,0.3c-0.1-0.1-0.2-0.2-0.3-0.3c0.1,0.1,0.2,0.1,0.3,0.2
		c-0.1-0.1-0.3-0.2-0.4-0.2c0.1,0,0.2,0.1,0.3,0.1c-0.1-0.1-0.3-0.1-0.4-0.1c0.1,0,0.2,0,0.3,0c-0.1,0-0.3,0-0.4,0
		c0.1,0,0.2,0,0.3,0c-0.1,0-0.3,0.1-0.4,0.1c-0.3,0.1-0.7,0-1-0.1c-0.3-0.2-0.5-0.5-0.6-0.8s-0.1-0.7,0.1-1c0.1-0.1,0.1-0.2,0.2-0.3
		C184.6,239.6,184.8,239.5,185,239.4"/>
	<path d="M150.8,241.4c-2.2,0.2-4.6,0.4-6.7,1.4c-2.2,1.1-3.4,3-3.8,5.3c-0.1,0.7-1,1.1-1.6,0.9c-0.7-0.2-1-0.9-0.9-1.6
		c0.5-2.9,2.2-5.4,4.8-6.8c2.5-1.3,5.3-1.6,8.1-1.8c0.7-0.1,1.3,0.6,1.3,1.3C152,240.8,151.5,241.3,150.8,241.4"/>
	<path d="M152.7,241.3c-1.8-0.3-3.7-0.6-5.5-0.9c-0.9-0.1-1.8-0.3-2.8-0.5c-0.3,0-2.6-0.3-2.6-0.4c0-0.1,0.1-0.1,0.1-0.1
		c0.1-0.2,0.1-0.1,0.1,0.1c0,0.1,0,0.2,0,0.3c0,0.4,0,0.7,0,1.1c0,0.8-0.1,1.7-0.3,2.5c-0.3,1.6-1,3.2-2,4.6
		c-0.9,1.3-3.1,0.1-2.2-1.3c1-1.5,1.7-3.2,1.8-5c0.1-1.5-0.5-3.9,1.5-4.6c0.9-0.3,2,0,2.9,0.1c1.1,0.2,2.1,0.3,3.2,0.5
		c2.1,0.3,4.2,0.7,6.4,1c0.7,0.1,1.1,1,0.9,1.6C154.1,241.2,153.4,241.4,152.7,241.3"/>
	<path d="M142.8,237.6c0.1,0,0.2,0,0.4,0.1s0.3,0.1,0.5,0.2c0.1,0,0.1,0.1,0.2,0.1c0.2,0.1,0.4,0.3,0.5,0.4c0.1,0.1,0.2,0.2,0.3,0.3
		s0.2,0.3,0.3,0.4c0.1,0.2,0.1,0.3,0.1,0.5s0,0.3-0.1,0.5c0,0.2-0.1,0.3-0.3,0.4c-0.1,0.1-0.2,0.1-0.3,0.2c-0.2,0.1-0.4,0.2-0.6,0.2
		c-0.1,0-0.2,0-0.3,0c-0.2-0.1-0.4-0.2-0.6-0.3c-0.1-0.1-0.2-0.2-0.3-0.3c0.1,0.1,0.2,0.1,0.3,0.2c-0.1-0.1-0.3-0.2-0.4-0.3
		c0.1,0,0.2,0.1,0.3,0.1c-0.1-0.1-0.3-0.1-0.5-0.1s-0.3-0.1-0.4-0.2c-0.1-0.1-0.2-0.2-0.3-0.4c-0.1-0.1-0.1-0.3-0.1-0.5s0-0.3,0-0.5
		c0-0.1,0.1-0.2,0.1-0.3c0.1-0.2,0.3-0.3,0.5-0.5c0.1,0,0.2-0.1,0.3-0.1C142.3,237.6,142.5,237.6,142.8,237.6"/>
	<path d="M183.6,226.4c-2.5-0.3-5.2-0.7-7.6,0.3c-1.7,0.7-3.3,2.3-3.2,4.2c0,1.6-2.5,1.6-2.5,0c0-2.7,1.9-5.1,4.2-6.3
		c2.9-1.4,6.1-1.1,9.1-0.8c0.7,0.1,1.3,0.5,1.3,1.3C184.9,225.8,184.3,226.5,183.6,226.4"/>
	<path d="M183.3,224.7c-3.6,0.1-7.3-0.1-10.9-0.5c0.4-0.4,0.8-0.8,1.3-1.3c-0.1,1.9-0.6,3.7-1.4,5.5c-0.3,0.6-1.2,0.8-1.7,0.5
		c-0.6-0.4-0.7-1.1-0.5-1.7c0.6-1.3,1-2.7,1-4.2c0-0.6,0.6-1.4,1.3-1.3c3.6,0.4,7.2,0.6,10.9,0.5C185,222.1,185,224.6,183.3,224.7"
		/>
	<path d="M172.3,225.3c0-0.1,0-0.2,0-0.2c0.1-1.6,2.7-1.6,2.5,0c0,0.1,0,0.2,0,0.2C174.7,226.9,172.2,226.9,172.3,225.3
		c0-0.1,0-0.2,0-0.2c0.1-1.6,2.7-1.6,2.5,0c0,0.1,0,0.2,0,0.2C174.7,226.9,172.2,226.9,172.3,225.3"/>
	<path d="M141.2,241.5c-0.1,0-0.3,0-0.4,0c-0.2,0-0.3,0-0.5-0.1s-0.3-0.1-0.4-0.3c-0.1-0.1-0.2-0.3-0.3-0.4
		c-0.1-0.2-0.1-0.3-0.1-0.5c0-0.1,0-0.2,0-0.3c0.1-0.2,0.2-0.4,0.3-0.6c0.1-0.1,0.2-0.1,0.3-0.2c0.2-0.1,0.4-0.2,0.6-0.2
		c0.1,0,0.3,0,0.4,0c0.2,0,0.3,0,0.5,0.1s0.3,0.1,0.4,0.3c0.1,0.1,0.2,0.3,0.3,0.4c0.1,0.2,0.1,0.3,0.1,0.5c0,0.1,0,0.2,0,0.3
		c-0.1,0.2-0.2,0.4-0.3,0.6c-0.1,0.1-0.2,0.1-0.3,0.2C141.6,241.4,141.4,241.5,141.2,241.5"/>
	<path d="M125,256c-16.8-2-33.8-2.8-50.8-2.2c0.4-0.6,0.7-1.3,1.1-1.9c2.2,3.4,5.2,6.1,8.4,8.5c3.5,2.6,7,5.1,10.7,7.5
		c7.3,4.8,14.9,9.2,22.7,13.2c1.5,0.7,0.2,2.9-1.3,2.2c-8.1-4.1-15.9-8.7-23.4-13.7c-3.6-2.4-7.2-4.9-10.7-7.6
		c-3.3-2.5-6.3-5.3-8.5-8.8c-0.5-0.8,0.2-1.9,1.1-1.9c17-0.6,33.9,0.2,50.8,2.2C126.6,253.6,126.6,256.2,125,256"/>
	<path d="M90.6,258.8c11.4,1.8,20.9,9.9,32.5,10.7c1.6,0.1,1.6,2.7,0,2.5c-11.9-0.8-21.6-8.9-33.2-10.8
		C88.4,261,89,258.6,90.6,258.8"/>
	<path d="M114.4,252.1c2.2-2.9,4.2-6,6.7-8.7c2.4-2.6,5.2-4.9,8.1-6.9c5.7-3.9,13.6-7.9,20.7-5.6c1.6,0.5,0.9,2.9-0.7,2.4
		c-3.5-1.1-7.2-0.3-10.5,1c-3,1.2-5.8,2.8-8.5,4.6c-2.6,1.8-5.1,3.9-7.3,6.3c-2.4,2.5-4.3,5.4-6.3,8.2
		C115.6,254.6,113.4,253.4,114.4,252.1"/>
	<path d="M134.7,232.6c-0.5-9.7,6.2-17.6,7.7-26.9c0.1-0.6,1-1.1,1.6-0.9c2.3,0.9,3.3,3,4.4,5c1.3,2.4,2.7,4.8,4.2,7.2
		c3,4.7,6.3,9.2,10,13.4c1.1,1.2-0.7,3-1.8,1.8c-3.4-3.9-6.6-8-9.5-12.4c-1.4-2.1-2.7-4.3-4-6.5c-0.6-1.1-1.3-2.3-1.9-3.5
		c-0.5-1-1.1-2.1-2.2-2.5c0.5-0.3,1-0.6,1.6-0.9c-1.4,9-8.1,16.9-7.6,26.2C137.4,234.3,134.8,234.3,134.7,232.6"/>
	<path d="M177,253.1c6.8-3.3,13.5-6.7,20.2-10.2c3-1.6,6.2-3.1,9-5.2c2.8-2.1,4.8-4.9,6.9-7.6c1-1.3,3.2,0,2.2,1.3
		c-2,2.7-4,5.5-6.7,7.7c-2.8,2.3-6,3.9-9.2,5.6c-7,3.7-14,7.2-21.1,10.6C176.9,256,175.6,253.8,177,253.1"/>
	<path d="M216.8,228.2c0.4,2.7,1.1,5.3,2,7.9c-0.8,0.2-1.6,0.5-2.4,0.7c-0.2-1.6-0.8-3.1-1.7-4.5c0.8-0.2,1.6-0.4,2.4-0.6
		c0.1,0.8,0.4,1.9,0.8,2.6c0.5,1,1,1.7,1.7,2.4c-0.7,0.5-1.3,1-2,1.5c-1.3-2-2.8-3.8-4.6-5.5l2.1-1.2c0.7,1.8,1.4,3.7,2.2,5.5
		c0.2,0.5-0.1,1.1-0.5,1.3c-0.4,0.3-1,0.4-1.4,0.1c-1.8-1.1-3.4-2.5-4.6-4.2c0.8-0.3,1.5-0.7,2.3-1c0.1,0.8,0.3,1.3,0.8,1.9
		c0,0,0.1,0.2,0,0.1c0.1,0.1,0.1,0.1,0.2,0.2c0.1,0.1,0.2,0.3,0.4,0.4c0.1,0.1,0.1,0.1,0.2,0.2c0.3,0.3-0.1,0,0.1,0.1
		c0.2,0.1,0.3,0.2,0.5,0.3c0.6,0.3,0.8,1.2,0.5,1.7c-0.4,0.6-1.1,0.8-1.7,0.5c-1.7-1-3-2.7-3.4-4.7c-0.2-1.4,1.5-2.2,2.3-1
		c1,1.3,2.3,2.4,3.7,3.3c-0.6,0.5-1.2,1-1.9,1.4c-0.7-1.8-1.4-3.7-2.1-5.5c-0.2-0.5,0.1-1.2,0.6-1.4c0.5-0.3,1.1-0.2,1.5,0.2
		c1.9,1.8,3.6,3.8,5,6c0.8,1.2-1,2.5-2,1.5c-1.9-1.8-3-4.2-3.3-6.8c-0.1-0.5,0.4-1.1,0.9-1.2c0.6-0.2,1.1,0.1,1.4,0.6
		c1,1.5,1.7,3.3,1.9,5.1c0.1,0.7-0.2,1.4-0.9,1.6c-0.7,0.2-1.3-0.2-1.6-0.9c-0.9-2.5-1.6-5.2-2-7.9c-0.1-0.7,0.2-1.4,0.9-1.6
		C215.8,227.2,216.7,227.5,216.8,228.2"/>
	<path d="M218.7,236.6c0.5,5.9-1.8,11.6-4.4,16.8c-2.4,4.8-5.3,9.4-8.6,13.6c-3.3,4.1-7,7.9-11,11.3c-4.1,3.4-8.5,6.1-12.8,9.1
		c-4.8,3.3-9.5,6.9-12.7,11.9c-0.9,1.4-3.1,0.1-2.2-1.3c5.5-8.7,14.9-13.3,22.9-19.2c8.5-6.3,15.6-14.5,20.7-23.8
		c3-5.6,6.1-11.9,5.6-18.4C216.1,235,218.6,235,218.7,236.6"/>
	<path d="M186.5,285.8c0.5,1.4-0.4,2.6-1.4,3.5c-1.2,1-2.5,1.8-3.7,2.8c-2.4,2.1-4.6,4.4-6.5,7c-3.7,5.1-6.3,11-7.5,17.2
		c-0.3,1.6-2.8,0.9-2.4-0.7c1.1-5.9,3.5-11.6,6.9-16.5c1.7-2.4,3.5-4.7,5.7-6.8c1.1-1,2.2-2,3.3-3c0.6-0.4,3.5-2.1,3.2-2.9
		C183.5,285,186,284.3,186.5,285.8"/>
	<path d="M186.4,286.8c1.2,4,5.8,5.9,9.3,7.7c4.6,2.3,9.2,4.5,13.9,6.5c1,0.4,0.7,2.2-0.3,2.3c-3.2,0.5-6.6,2.1-9,4.1
		c-0.1,0.1-0.1,0.2-0.1,0.1c0,0.1,0.6,0.7,0.9,1c1,0.9,2.1,1.8,3.1,2.6c2.1,1.7,4,3.7,4.5,6.4c0.1,0.6-0.2,1.4-0.9,1.6
		c-1.9,0.4-3.7-0.5-5.5-0.3c-0.8,0.1-1.6,0.3-1.6,1.2c0,0.9,0.5,2.1,0.9,2.9c1.5,3.6,3.9,6.6,6.7,9.2c1.2,1.1-0.6,2.9-1.8,1.8
		c-3.5-3.3-6.4-7.3-7.9-11.9c-0.7-2.1-0.6-4.3,1.6-5.4c2.3-1.1,4.5,0.4,6.9-0.1c-0.3,0.5-0.6,1-0.9,1.6c-0.6-3.1-3.4-4.9-5.7-6.8
		c-1.6-1.3-3.8-3.1-2.4-5.3c1.1-1.7,3.4-2.7,5.2-3.5c1.7-0.7,3.4-1.5,5.2-1.8c-0.1,0.8-0.2,1.5-0.3,2.3c-5.2-2.2-10.2-4.6-15.2-7.2
		c-3.8-2-7.9-4.2-9.2-8.6C183.5,285.9,185.9,285.3,186.4,286.8"/>
	<path d="M205.8,334c2.2,4.1,2.4,9,3.1,13.5c0.4,2.6,0.5,5.1,0.1,7.7c-0.4,2.1-1.3,4.2-2.3,6.1c-2.3,4.3-5.1,8.2-7,12.7
		s-3.1,9.3-3.1,14.1c0,5.2,1.5,10.3,4.6,14.5c1,1.3-1.2,2.6-2.2,1.3c-5.5-7.5-6-17.4-3.4-26.1c1.4-4.7,3.7-9.1,6.2-13.2
		s5-8.1,4.9-13.1c-0.1-2.9-0.7-5.7-1.1-8.5c-0.4-2.7-0.8-5.3-2-7.7C202.9,333.8,205,332.5,205.8,334"/>
	<path d="M109.5,276.6c3.9,7.1,7.9,14.3,13.7,20.1c2.6,2.6,6.2,4.5,7.7,7.9c1.2,2.7,0.5,5.4-1.1,7.8c-1.1,1.6-2.4,3.1-3.6,4.5
		c-0.6,0.7-1.3,1.3-2.2,1.4c-0.8,0-1.5-0.4-1.7-1.3c-0.3-1.6,2.1-2.3,2.5-0.7c-0.9-0.2-1.1-0.6-0.6-0.9c0.2-0.2,0.4-0.4,0.6-0.6
		c0.3-0.4,0.7-0.8,1-1.2c0.6-0.7,1.2-1.5,1.8-2.2c0.8-1.2,1.6-2.5,1.6-4c0-3.7-4.6-6-6.9-8.2c-6.3-6-10.7-13.7-14.9-21.3
		C106.6,276.5,108.8,275.2,109.5,276.6"/>
	<path d="M133.4,354c1,0,1.9-0.1,2.9-0.1c0.5,0,1.1,0.4,1.2,0.9c1.3,7.4,4.5,14.4,9.3,20.2c1,1.3-0.8,3.1-1.8,1.8
		c-5-6.1-8.5-13.5-9.9-21.3c0.4,0.3,0.8,0.6,1.2,0.9c-1,0-1.9,0.1-2.9,0.1C131.7,356.6,131.7,354.1,133.4,354"/>
	<path d="M145.8,373.5c0.8,1.7,1.7,3.4,2.5,5c1.2,2.3,2.4,4.7,2.9,7.2s0,4.8-0.8,7.2c-0.7,2-1.9,4.9-0.2,6.8c1.1,1.2-0.7,3-1.8,1.8
		c-1.5-1.7-1.8-3.9-1.4-6.1c0.5-2.6,2-5,1.9-7.7s-1.4-5.2-2.6-7.6c-0.9-1.8-1.8-3.6-2.7-5.4C142.9,373.3,145.1,372,145.8,373.5"/>
	<path d="M139.1,364.5c-12.2-5.5-24.7-11.2-38.1-12.5c-6.2-0.6-12.6-0.4-18.6,1.3c-5.7,1.5-11.2,4.3-16,7.8
		c-2.3,1.6-4.8,3.6-6.2,6.1c-1.5,2.5-1.7,5.4-2.1,8.3c-0.8,6.9-1.9,13.7-2.8,20.6c-0.9,7-1.8,14-2.7,21c-0.8,6.3-1.3,12.8-2.9,19
		c-1.5,5.9-4.3,11.6-9.7,14.8c-4.5,2.7-10.6,3.5-15.1,0.2c-1.3-1,0-3.2,1.3-2.2c4.1,3,9.4,1.9,13.4-0.8c4.7-3.2,6.9-8.9,8-14.3
		c1.4-6.3,1.9-12.8,2.7-19.2c0.9-7.1,1.8-14.2,2.8-21.2c0.9-6.8,1.8-13.5,2.7-20.3c0.4-2.7,0.9-5.4,2.5-7.7c1.6-2.3,3.8-4.2,6-5.8
		c9.8-7.4,21.8-10.9,34-10.2c14.9,0.9,28.7,7,42.1,13.1C141.9,363,140.6,365.2,139.1,364.5"/>
	<path d="M147.6,442.1c0,0.6,0.1,1.4-0.2,1.9c-0.2,0.4-0.7,0.6-1.1,0.6c-0.3,0-0.6-0.2-0.8-0.2c0.3,0-0.1,0.1-0.2,0.2
		c-0.5,0.3-0.9,0.7-1.4,1c-1.1,0.7-2.2,1.4-3.4,2c-4.4,2.1-9.3,3-14.2,3c-11,0-21.1-4.7-30.6-9.8c-2.4-1.3-4.9-2.7-7.3-4
		c-2.3-1.2-5.1-2.6-7.8-1.8c-5.4,1.5-6.4,8.3-7.6,12.8c-2.4,9.1-8.6,17.7-18.5,18.8c-12.5,1.4-22.2-8.3-29.4-17.2
		c-1-1.3,0.8-3.1,1.8-1.8c6.3,7.7,14.1,16.1,24.8,16.6c10,0.4,16.5-7.7,18.8-16.6c1.3-4.7,2.1-9.9,6.1-13.2c1.7-1.4,3.9-2.3,6.2-2.1
		c2.6,0.1,4.9,1.3,7.2,2.5c9.3,5,18.6,10.7,29.2,12.7c5.2,1,10.7,1,15.9-0.4c2.5-0.7,4.9-1.8,7.2-3.2c0.9-0.6,1.8-1.5,2.9-1.7
		c0.4-0.1,0.8-0.1,1.2,0c0.1,0,0.2,0.1,0.3,0.1c0.5,0.2-0.2-0.1-0.5,0c-0.3,0.2-0.5,0.4-0.8,0.6c-0.2,0.3,0,0.5-0.1,0.1
		c-0.1-0.2,0-0.6,0-0.7C145,440.4,147.6,440.4,147.6,442.1"/>
	<path d="M202.6,296.9c17.9,0.4,35.8-3.7,51.6-12.2c1.4-0.8,2.7,1.4,1.3,2.2c-16.2,8.7-34.5,13-52.9,12.5
		C201,299.4,201,296.9,202.6,296.9"/>
	<path d="M208.1,314.7c7.7-2.1,15.1-4.9,22.4-8c3.7-1.6,7.4-3.2,11.1-4.9c3.3-1.5,7-2.7,9.8-5.1c0.7-0.6,1.2-1.4,2.1-1.5
		c0.7-0.1,1.5,0.2,1.8,0.9c0.6,1.3-0.8,2.9-2.2,2s-0.1-3.1,1.3-2.2l0.1,0.1h-1.3c0,0.4-0.1,0.9-0.2,1.3c0.3,0.1,0.6,0.2,0.9,0.4
		c-0.2,0-0.9,0.8-1,0.9c-0.3,0.2-0.6,0.5-0.9,0.7c-0.8,0.6-1.6,1.1-2.5,1.5c-1.7,0.9-3.5,1.6-5.2,2.4c-3.9,1.8-7.8,3.5-11.7,5.2
		c-7.8,3.3-15.7,6.4-23.9,8.6C207.2,317.6,206.5,315.1,208.1,314.7"/>
	<path d="M254.9,283.1c0.9-3.2,2.2-6.6,5.4-8c3.3-1.4,6.5,0.8,9.1,2.7c2.7,2,5,4.6,6.1,7.9c0.5,1.5,0.8,3.4,0.4,4.9
		s-1.9,2.3-3.3,2.6c-3.3,0.6-6.7-0.9-8.4-3.7c-0.9-1.4,1.3-2.7,2.2-1.3c1.2,2,4.4,3.5,6.7,2.2c1-0.6,0.4-2.8,0.1-3.7
		c-0.5-1.6-1.3-3-2.4-4.2s-2.4-2.3-3.7-3.2c-1.2-0.8-2.6-1.9-4.1-2.1c-3.5-0.4-4.8,4.1-5.6,6.6C256.9,285.4,254.4,284.7,254.9,283.1
		"/>
	<path d="M271.5,277.1c11.8-3.2,23.2-8.4,35.5-9.1c1.1-0.1,2.5-0.3,3.5,0.5c0.8,0.7,0.9,2,0.7,3c-0.4,1.7-1.7,3.2-2.9,4.3
		c-3,2.8-6.9,4.5-10.8,5.6c-4,1.2-8.7,2-12.8,0.8c-1.6-0.4-0.9-2.9,0.7-2.5c3.1,0.8,6.5,0.4,9.5-0.3c3.5-0.8,7-2.1,10-4.2
		c1.2-0.8,2.4-1.8,3.2-3.1c0.2-0.3,1.1-1.6,0.8-1.9c0,0-1.4,0.1-1.5,0.1c-0.8,0-1.5,0.1-2.3,0.2c-5.3,0.5-10.5,1.9-15.5,3.4
		c-5.8,1.8-11.4,3.8-17.3,5.4C270.6,280,269.9,277.5,271.5,277.1"/>
	<path d="M278.8,291.5c3.3-0.2,8.4-0.9,10.2,2.8c0.8,1.6,0.8,3.7-0.6,5c-0.9,0.8-2,1-3.1,1c-1.1,0.1-2.2,0.1-3.3,0
		c-2.4-0.3-4.8-1.5-5.5-4c-0.4-1.6,2-2.3,2.5-0.7c0.1,0.4,0.1,0.4,0.4,0.8c-0.1-0.1,0.2,0.2,0.2,0.2c0.1,0.1,0.1,0.1,0.2,0.2
		c0,0,0.2,0.2,0.1,0.1c0.6,0.5,1.2,0.7,2,0.8c0.9,0.2,1.8,0.1,2.6,0.1c0.8,0,1.5,0,2.2-0.3c0,0,0.2-0.1,0,0c0.1,0,0.1-0.1,0.2-0.1
		c0,0,0.1-0.2,0,0l0.1-0.1c0,0,0.1-0.2,0.1-0.1c-0.1,0.1,0-0.1,0-0.1c0-0.1,0.1-0.5,0.1-0.2c0-0.1,0-0.3,0-0.4c0,0,0-0.2,0-0.1
		c0,0.2,0-0.1,0-0.1c0-0.1-0.1-0.3-0.1-0.4s0-0.1-0.1-0.2c0.1,0.2,0-0.1-0.1-0.1c-0.1-0.1-0.2-0.3-0.2-0.4c0,0-0.1-0.2,0-0.1
		s-0.1-0.1-0.1-0.1c-0.1-0.1-0.1-0.1-0.2-0.2c0,0-0.2-0.2-0.1-0.1s0,0-0.1,0c-0.1-0.1-0.2-0.1-0.4-0.2c-0.1,0-0.2-0.1-0.2-0.1
		s0.1,0,0,0c-0.2-0.1-0.3-0.1-0.5-0.2c-0.2,0-0.3-0.1-0.5-0.1c-0.1,0-0.2,0-0.3-0.1c0,0-0.4-0.1-0.2,0c-1.7-0.2-3.4,0-5.2,0.1
		c-0.7,0-1.3-0.6-1.3-1.3C277.5,292,278.1,291.5,278.8,291.5"/>
	<path d="M200,407.2c3.5-6.2,11-9.1,17.1-11.9c7.3-3.4,14.9-6.5,22.5-9.1c0.5-0.2,1.2,0.1,1.4,0.6c2.2,3.7,2.6,8,2.9,12.3
		c0.4,4.8,0.5,9.5,0.8,14.3c0.3,4.6,1,9.1,0.4,13.7c-0.5,4.2-1.6,8.2-2,12.4c-0.3,4.3,0.5,9,3.6,12.2c1.1,1.2-0.7,3-1.8,1.8
		c-6-6.2-4.4-15-3-22.7c0.4-2.1,0.7-4.1,0.8-6.2c0.1-2.3-0.1-4.6-0.3-6.9c-0.4-4.9-0.5-9.8-0.8-14.8c-0.3-4.9-0.3-10.5-2.9-14.8
		c0.5,0.2,1,0.4,1.4,0.6c-7.3,2.5-14.5,5.4-21.5,8.7c-3.2,1.5-6.5,3-9.6,4.8c-2.8,1.6-5.4,3.6-7.1,6.4
		C201.4,409.9,199.2,408.7,200,407.2"/>
	<path d="M185.8,435.6c6.6,0.6,13.3,0.2,19.6-2.1c5.9-2.1,11.2-5.7,15.9-9.9c3-2.7,5.8-5.6,8.4-8.7c0.8-1,2.5,0.1,2.1,1.2
		c-3.8,12.1,0.7,24.7,1.3,36.9c0.1,1.6-2.5,1.6-2.5,0c-0.6-12.5-5.1-25.2-1.2-37.5c0.7,0.4,1.4,0.8,2.1,1.2
		c-8.9,10.2-19.6,19.2-33.5,21.2c-4,0.6-8.1,0.6-12.1,0.2C184.2,438,184.2,435.5,185.8,435.6"/>
	<path d="M246.6,452.1c2.8,3.9,5.5,7.8,8.3,11.7l4,5.7c0.6,0.8,1.2,1.9,2.1,2.3c0.8,0.4,1.9,0.3,2.8,0.2c3.8-0.3,7.9-0.2,11.2,2.1
		c1.3,0.9,2.3,2.3,2.2,3.9c-0.1,1.5-1.1,3-2.6,3.3c-1.6,0.3-2.3-2.1-0.7-2.4c0.6-0.1,0.8-0.7,0.7-1.3c-0.1-0.8-0.9-1.4-1.6-1.7
		c-1.5-0.8-3.3-1.3-5-1.5c-3.2-0.3-6.9,1.2-9.5-1.4c-1.3-1.3-2.2-2.9-3.2-4.4c-1.2-1.8-2.5-3.5-3.7-5.3c-2.4-3.4-4.8-6.7-7.2-10.1
		C243.5,452.1,245.7,450.8,246.6,452.1"/>
	<path d="M229.9,454.8c5.8,1.2,10.8,4.9,14.4,9.5c1.9,2.3,3.4,4.9,4.7,7.6c0.5,1.1,2.7,8.2,4.7,6.4c1.2-1.1,3,0.7,1.8,1.8
		c-1.1,1-2.5,1.2-3.9,0.7c-1.5-0.6-2.4-1.9-3-3.3c-1.3-3.1-2.6-6.1-4.4-8.9c-3.5-5.4-8.6-10-15-11.3
		C227.7,456.9,228.3,454.4,229.9,454.8"/>
	<path d="M144,412.1c11-8.5,24.5-17.6,39.1-13.2c1.6,0.5,0.9,2.9-0.7,2.5c-13.6-4.1-26.4,4.6-36.6,12.5
		C144.5,414.9,142.7,413.1,144,412.1"/>
	<path d="M182,397.7c8.7,18.3,8.2,40.6-1.5,58.4c-2.6,4.8-5.9,9.6-11,12.1c0.2-0.6,0.3-1.2,0.5-1.7c1.4,3.1,4,5.6,7.3,6.7
		c1.5,0.5,0.9,3-0.7,2.5c-3.9-1.3-7.1-4.1-8.8-7.8c-0.3-0.6-0.2-1.4,0.5-1.7c4.3-2.1,7.1-6.1,9.4-10.1c2.4-4.1,4.2-8.5,5.5-13.1
		c2.6-9.2,3.2-19,1.5-28.4c-0.9-5.3-2.6-10.5-4.9-15.4C179.1,397.5,181.3,396.2,182,397.7"/>
	<path d="M167.9,419.9c0.8,8.2,1.2,16.4,1.4,24.6c0.1,4,0.1,8,0,11.9c-0.1,3.2-0.6,6.5-2.6,9.1c-1,1.3-3.2,0-2.2-1.3
		c2-2.6,2.2-5.9,2.3-9c0.1-3.9,0-7.8,0-11.7c-0.2-7.9-0.6-15.8-1.4-23.6C165.2,418.3,167.7,418.3,167.9,419.9"/>
	<path d="M176.5,472.2c3.4-0.6,7.9-0.5,10.5,2.2c1.1,1.1,1.6,2.6,1.4,4.1c-0.2,1.7-1.1,3-2.7,3.6c-0.6,0.2-1.4-0.3-1.6-0.9
		c-0.2-0.7,0.2-1.3,0.9-1.6c-0.2,0.1,0.1-0.1,0.2-0.1l0.1-0.1c-0.1,0.1-0.1,0.1,0,0c0,0,0.3-0.3,0.1-0.1c0.1-0.1,0.1-0.2,0.2-0.3
		c0.2-0.3,0.3-0.7,0.3-1c0-0.1,0-0.3,0-0.4c0-0.3,0.1,0.1,0-0.1c0-0.1-0.1-0.2-0.1-0.3c0-0.1-0.1-0.3,0-0.1c-0.2-0.5-0.5-0.9-1-1.2
		c0.1,0.1-0.2-0.1-0.2-0.1c-0.1-0.1-0.2-0.2-0.4-0.2c-0.2-0.1-0.5-0.3-0.7-0.3c-0.6-0.2-1.2-0.4-1.8-0.5c-1.5-0.3-3.1-0.3-4.6,0
		c-0.7,0.1-1.4-0.2-1.6-0.9C175.5,473.2,175.8,472.4,176.5,472.2"/>
	<path d="M171.5,474.1c2.4,0.5,4.8,1.9,5.7,4.2c0.8,2,0.1,4.8-1.9,5.8c-0.6,0.3-1.4,0.2-1.7-0.5c-0.3-0.6-0.2-1.4,0.5-1.7
		c0.1,0,0.2-0.1,0.2-0.1c0.1-0.1,0.2-0.2,0,0c0.1-0.1,0.1-0.1,0.2-0.2c0.1-0.1,0.2-0.2,0,0c0.1-0.2,0.2-0.3,0.3-0.5s-0.1,0.2,0,0
		c0-0.1,0.1-0.2,0.1-0.3c0-0.1,0-0.2,0.1-0.3c0.1-0.3,0,0.2,0,0s0-0.4,0-0.6s0-0.3,0,0c0-0.1,0-0.2-0.1-0.3c0-0.1,0-0.2-0.1-0.3
		c0-0.1,0-0.1-0.1-0.2c0.1,0.1,0.1,0.2,0,0.1c-0.1-0.2-0.2-0.4-0.3-0.5l-0.1-0.1c0.1,0.1,0.1,0.1,0,0s-0.1-0.2-0.2-0.3
		c-0.2-0.2-0.3-0.3-0.5-0.5c-0.1-0.1-0.1,0,0,0l-0.1-0.1c-0.1-0.1-0.2-0.1-0.3-0.2c-0.2-0.1-0.4-0.2-0.6-0.3
		c-0.1-0.1-0.2-0.1-0.3-0.1s-0.1,0,0,0c-0.1,0-0.1,0-0.2-0.1c-0.5-0.2-0.9-0.3-1.4-0.4c-0.6-0.1-1.1-0.9-0.9-1.6
		C170.2,474.3,170.8,474,171.5,474.1"/>
	<path d="M162.6,475.1c2.4-1.2,5.3,0.1,6.3,2.6c0.4,1.1,0.3,2.5-0.4,3.4s-1.7,1.6-2.8,1.8c-1.3,0.3-2.8,0-3.7-1
		c-0.5-0.5-0.5-1.3,0-1.8s1.3-0.5,1.8,0c0.1,0.1,0.1,0.1,0.2,0.2c-0.3-0.3-0.1-0.1,0,0c0.1,0,0.2,0.1,0.2,0.1
		c-0.3-0.2-0.2-0.1-0.1-0.1c0.1,0,0.1,0,0.2,0.1c0.1,0,0.2,0,0.3,0.1c0.1,0,0.2,0-0.2,0h0.1c0.2,0,0.4,0,0.6,0c-0.5,0-0.1,0,0,0
		s0.2,0,0.3-0.1c0.1,0,0.2-0.1,0.3-0.1c0.2-0.1-0.2,0.1-0.1,0.1l0.2-0.1c0.1-0.1,0.3-0.2,0.4-0.3c0.3-0.2-0.2,0.2,0,0
		c0.1-0.1,0.2-0.1,0.2-0.2c0.1-0.1,0.2-0.4,0,0c0-0.1,0.1-0.1,0.2-0.2l0.1-0.2c0,0-0.1,0.3-0.1,0.2c0-0.1,0-0.1,0.1-0.2
		c0-0.1,0-0.2,0.1-0.2c0.1-0.2,0,0.3,0,0.1v-0.1c0-0.1,0-0.2,0-0.3c0-0.2,0.1,0.3,0,0.1c0-0.1,0-0.1,0-0.2s-0.1-0.2-0.1-0.3
		c-0.1-0.2,0.1,0.1,0.1,0.1s-0.1-0.1-0.1-0.2s-0.1-0.2-0.2-0.3c0,0,0-0.1-0.1-0.1c-0.1-0.2,0.2,0.2,0.1,0.1
		c-0.1-0.2-0.3-0.3-0.4-0.4c-0.3-0.2,0.2,0.2,0,0c-0.1-0.1-0.2-0.1-0.3-0.2c0,0-0.1,0-0.1-0.1c0,0-0.3-0.1-0.1,0s0,0,0,0
		c-0.1,0-0.1,0-0.2-0.1c-0.1,0-0.2-0.1-0.4-0.1h-0.1c0.4,0.1,0.2,0,0,0c-0.1,0-0.2,0-0.3,0s-0.1,0-0.2,0c-0.2,0,0.3-0.1,0.1,0
		c-0.1,0-0.2,0.1-0.4,0.1H164c0.2-0.1,0.3-0.1,0.1-0.1c0,0-0.1,0-0.1,0.1c-0.6,0.3-1.4,0.2-1.7-0.5
		C161.9,476.2,162,475.4,162.6,475.1"/>
	<path d="M163.7,467.5c0.1-0.2-0.1,0.1-0.1,0.2c-0.1,0.1-0.1,0.2-0.2,0.3c0,0.1-0.1,0.2-0.1,0.3c0.1-0.2,0,0,0,0.1
		c-0.1,0.4-0.2,0.9-0.3,1.3c-0.2,0.9-0.2,1.7-0.5,2.6c-0.5,1.7-1.6,3.5-3.5,3.8c-0.7,0.1-1.4-0.2-1.6-0.9c-0.1-0.6,0.2-1.5,0.9-1.6
		c0.2,0,0.4-0.1,0.5-0.1c-0.2,0.1,0,0,0,0c0.1,0,0.1-0.1,0.2-0.1c-0.1,0.1-0.1,0,0,0c0.1-0.1,0.1-0.1,0.2-0.2c0,0,0.2-0.3,0.1-0.1
		c-0.1,0.1,0.1-0.1,0.1-0.1c0.1-0.2,0.2-0.3,0.3-0.5c0,0,0.1-0.3,0.1-0.2c-0.1,0.1,0.1-0.2,0.1-0.2c0.1-0.4,0.2-0.7,0.3-1.1
		c0.2-0.8,0.2-1.7,0.4-2.5c0.2-1,0.6-1.9,1.3-2.7c0.4-0.5,1.3-0.5,1.8,0C164.2,466.3,164.2,467,163.7,467.5"/>
	<path d="M182.8,483.1c-2.5,1.7-5.7,1.8-8.4,0.5c-0.6-0.3-0.8-1.2-0.5-1.7c0.4-0.6,1.1-0.8,1.7-0.5c0.1,0.1,0.3,0.1,0.4,0.2
		c-0.3-0.1,0.2,0.1,0.2,0.1c0.3,0.1,0.6,0.2,0.8,0.2c0.1,0,0.5,0.1,0.2,0c0.1,0,0.3,0,0.4,0c0.3,0,0.6,0,0.9,0c0.1,0,0.3,0,0.4,0
		c-0.3,0,0.1,0,0.2,0c0.3-0.1,0.6-0.1,0.8-0.2c0.1,0,0.3-0.1,0.4-0.2c-0.3,0.1,0.1-0.1,0.2-0.1c0.3-0.1,0.5-0.3,0.8-0.4
		c0.6-0.4,1.4-0.1,1.7,0.5C183.6,482,183.4,482.7,182.8,483.1"/>
	<path d="M174.9,484.5c-2.8,0.5-5.6-0.2-7.8-2c-0.5-0.4-0.5-1.4,0-1.8c0.6-0.5,1.2-0.4,1.8,0c0.1,0.1,0.1,0.1,0,0
		c0.1,0,0.1,0.1,0.2,0.1c0.1,0.1,0.2,0.2,0.4,0.2c0.2,0.1,0.5,0.3,0.7,0.4c0.1,0,0.5,0.2,0.2,0.1c0.1,0,0.2,0.1,0.3,0.1
		c0.3,0.1,0.5,0.2,0.8,0.2c0.3,0.1,0.6,0.1,0.8,0.2c-0.3-0.1,0,0,0.1,0s0.3,0,0.4,0c0.3,0,0.6,0,0.8,0c0.1,0,0.3,0,0.4,0
		c-0.3,0,0.1,0,0.2,0c0.7-0.1,1.4,0.2,1.6,0.9C175.9,483.5,175.6,484.4,174.9,484.5"/>
	<path d="M161.1,481.9c-0.3-0.2-0.6-0.4-1-0.6c-0.1-0.1-0.3-0.2-0.4-0.3c-0.1-0.1-0.2-0.3-0.2-0.4c-0.1-0.2-0.1-0.3,0-0.5
		c0-0.2,0.1-0.3,0.2-0.5c0.1-0.1,0.1-0.2,0.2-0.3c0.2-0.2,0.3-0.3,0.6-0.3c0.1,0,0.2,0,0.3,0c0.2,0,0.4,0.1,0.6,0.2
		c0.3,0.2,0.6,0.4,1,0.6c0.1,0.1,0.3,0.2,0.4,0.3c0.1,0.1,0.2,0.3,0.2,0.4c0.1,0.2,0.1,0.3,0,0.5c0,0.2-0.1,0.3-0.2,0.5
		c-0.1,0.1-0.1,0.2-0.2,0.3c-0.2,0.2-0.3,0.3-0.6,0.3c-0.1,0-0.2,0-0.3,0C161.5,482,161.3,482,161.1,481.9"/>
	<path d="M153.9,447.1c-10.5-3.5-17.1-14.9-15.2-25.8c0.3-1.6,2.7-0.9,2.5,0.7c-1.7,9.4,4.3,19.6,13.4,22.6
		C156.1,445.2,155.4,447.7,153.9,447.1"/>
	<path d="M264.9,475.4c2.2-0.2,4.4,1.2,5.2,3.2c0.8,2-0.4,4.2-2.4,5c-1.1,0.4-2.4,0.4-3.3-0.3c-0.3-0.2-0.5-0.4-0.6-0.8
		c-0.1-0.3,0-0.7,0.1-1c0.3-0.5,1.2-0.9,1.7-0.5c0.1,0,0.1,0.1,0.2,0.1c0,0,0.1,0,0.1,0.1c0.1,0.1-0.2-0.1-0.2-0.1
		c0.1,0,0.1,0.1,0.2,0.1h0.1c0.1,0,0.2,0-0.1,0c0.1,0,0.3,0,0.4,0c0,0-0.3,0.1-0.2,0h0.1c0.1,0,0.2,0,0.2-0.1h0.1
		c0.2-0.1-0.1,0-0.1,0.1c0.1,0,0.1-0.1,0.2-0.1s0.1-0.1,0.2-0.1c0,0,0.1,0,0.1-0.1c0.1-0.1-0.1,0.1-0.1,0.1c0.1-0.1,0.2-0.2,0.3-0.3
		c0.1-0.1,0.2-0.3,0,0c0-0.1,0.1-0.1,0.2-0.2c0-0.1,0.1-0.1,0.1-0.2c0.1-0.2-0.1,0.2,0,0c0-0.1,0-0.1,0.1-0.2c0-0.1,0.1-0.4,0-0.1
		c0,0.2,0,0,0-0.1s0-0.2,0-0.2c0-0.2,0.1,0.3,0,0.1v-0.1c0-0.1,0-0.2-0.1-0.3v-0.1c0-0.1-0.1,0,0,0.1c0,0-0.1-0.1-0.1-0.2
		s-0.1-0.2-0.2-0.2c0,0,0-0.1-0.1-0.1c-0.1-0.1,0.2,0.2,0,0.1c-0.1-0.1-0.2-0.3-0.4-0.4c0,0-0.3-0.2-0.1-0.1
		c0.2,0.1-0.1-0.1-0.1-0.1c-0.2-0.1-0.4-0.2-0.6-0.3c0,0,0.3,0.1,0.1,0.1c-0.1,0-0.1,0-0.2-0.1c-0.1,0-0.2-0.1-0.3-0.1
		c-0.1,0-0.2,0-0.3-0.1c-0.2,0,0.1,0,0.1,0h-0.1c-0.2,0-0.4,0-0.7,0c-0.7,0.1-1.3-0.6-1.3-1.3C263.7,475.9,264.2,475.4,264.9,475.4"
		/>
	<path d="M258.7,475.3c0.6,0.5,1.1,1,1.5,1.7c0.3,0.7,0.5,1.5,0.5,2.2c0,1.6-0.7,3-2,4c-0.5,0.4-1.4,0.1-1.7-0.5
		c-0.4-0.7-0.1-1.3,0.5-1.7c-0.3,0.2,0,0,0.1-0.1l0.1-0.1c0.1-0.1,0.1-0.2,0,0c0.1-0.2,0.3-0.4,0.4-0.6c0.1-0.1-0.1,0.3,0,0.1
		c0-0.1,0-0.1,0.1-0.2c0-0.1,0.1-0.2,0.1-0.3c0-0.1,0-0.1,0-0.2c0-0.2,0,0.3,0,0.1c0-0.1,0-0.3,0-0.4s0-0.2,0-0.4
		c0-0.1-0.1-0.3,0,0.1c0-0.1,0-0.1,0-0.2c0-0.2-0.1-0.5-0.2-0.7c0.1,0.3,0.1,0.1,0,0.1c0-0.1-0.1-0.1-0.1-0.2
		c-0.1-0.1-0.2-0.2-0.2-0.3c0,0.1,0.2,0.2,0,0.1l-0.1-0.1c-0.1-0.1-0.4-0.4-0.1-0.1c-0.3-0.2-0.5-0.4-0.6-0.8c-0.1-0.3,0-0.7,0.1-1
		C257.3,475.2,258.1,474.8,258.7,475.3"/>
	<path d="M258.2,294.8c-0.4,1.5,0.7,2.9,1.9,3.6c1.5,0.9,3.5,1.2,5.2,1.2c1.6,0.1,3.3,0,4.6-1.1c1.3-1,2.6-2.5,4.5-1.9
		c1.5,0.5,0.9,3-0.7,2.4c-0.7-0.3-1.4,0.7-2,1.2c-0.8,0.7-1.6,1.1-2.6,1.5c-2,0.6-4.1,0.5-6.2,0.2c-2-0.3-4.2-0.9-5.7-2.4
		c-1.4-1.4-2.1-3.4-1.6-5.4C256.1,292.6,258.5,293.2,258.2,294.8"/>
	<path d="M136.6,319.8c-6,1.6-12.1,0.6-17.9-1.3c-5.6-1.8-11.1-4.2-16.5-6.5c-10.2-4.3-20.3-9-29.3-15.5c-5-3.6-9.6-7.8-13.6-12.5
		c-1-1.2,0.8-3.1,1.8-1.8c6.8,8.2,15.5,14.4,24.8,19.4c9.6,5.2,19.7,9.4,29.9,13.3c6.4,2.4,13.3,4.4,20.1,2.5
		C137.5,316.9,138.1,319.3,136.6,319.8"/>
	<path d="M58.9,282.6c0.2-2.9,0.3-5.9,0.5-8.8c0.1-0.9,0.5-2.6-0.2-3.3c-0.6-0.7-1.9-0.8-2.7-1c-1.3-0.3-2.6-0.6-3.9-0.8
		c-0.6-0.1-1.3-0.3-1.9,0c-0.5,0.2-1,0.7-1.4,1.1c-2.1,2-4.2,4.1-6.4,6.1c-1.2,1.1-3-0.7-1.8-1.8c1.2-1.2,2.5-2.4,3.7-3.6
		c1.2-1.1,2.3-2.3,3.5-3.4c1.3-1,2.6-1.3,4.2-1c1.7,0.3,3.3,0.7,4.9,1c1.2,0.3,2.4,0.6,3.4,1.4c1,1,1.2,2.3,1.2,3.7
		c-0.2,3.5-0.4,6.9-0.6,10.4C61.3,284.2,58.8,284.3,58.9,282.6"/>
	<path d="M46.4,270.9c-3-5.6-6.4-11.1-10.5-16c-0.9-1-1.8-2.1-3.1-2.5c-1-0.3-2.3-0.3-3,0.5c-0.9,1-0.3,2.5,0.2,3.5
		c0.7,1.3,1.6,2.6,2.5,3.8c2.2,2.9,4.6,5.6,7.2,8.1c1.2,1.1-0.6,2.9-1.8,1.8c-2.7-2.6-5.2-5.4-7.5-8.4c-1.9-2.5-4.6-5.9-3.2-9.1
		c1.3-3.1,5.2-3.4,7.8-1.8c1.4,0.8,2.4,2.1,3.4,3.3c1.2,1.5,2.4,3.1,3.5,4.7c2.5,3.5,4.7,7.2,6.7,11
		C49.4,271.1,47.2,272.3,46.4,270.9"/>
	<path d="M35.6,269.2c-2.2-2.4-5-4.1-8.2-4.9c0.5-0.4,1.1-0.8,1.6-1.2c-0.2,2.8,0,5.7,1.4,8.2c1.2,2.1,3.2,3.6,5.6,4
		c0.7,0.1,1.1,1,0.9,1.6c-0.2,0.7-0.9,1-1.6,0.9c-2.9-0.5-5.5-2.5-7-5c-1.7-2.9-2.1-6.4-1.9-9.6c0.1-0.8,0.8-1.4,1.6-1.2
		c3.6,0.9,6.8,2.8,9.3,5.5C38.5,268.6,36.7,270.4,35.6,269.2"/>
	<path d="M33,276.7c-0.9-0.4-1.8-0.8-2.7-1.3c-0.5-0.2-0.9-0.4-1.4-0.6c-0.2-0.1-0.2-0.1-0.1,0c-0.1,0-0.2-0.1-0.2-0.1
		c-0.1,0-0.2,0-0.3-0.1c0.1,0,0.1,0,0,0c-0.2,0-0.2,0,0,0c0.1,0,0.1-0.1,0.2-0.1c0.1-0.1,0.1-0.2,0.1-0.2c0,0.1,0,0.2,0,0.3
		c0,0.2,0.1,0.5,0.1,0.9c0.1,0.7,0.4,1.5,0.6,2.1c0.6,1.4,1.4,2.7,2.5,3.7c0.3,0.3,0.6,0.6,0.9,0.8c0.1,0.1,0.2,0.1,0.1,0
		c0.1,0,0.1,0.1,0.2,0.1c0.1,0.1,0.3,0.2,0.4,0.2c-0.2-0.1,0.2,0.1,0.3,0.1c0.2,0,0.2,0,0,0c0.1,0,0.2,0,0.2,0c0.2,0,0.1,0,0,0
		c0.1,0,0.1,0,0,0c0.1-0.1,0.1-0.1,0,0s-0.1,0.1,0,0c0.9-1.4,3.1-0.1,2.2,1.3c-1,1.6-2.9,1.4-4.4,0.6c-1.4-0.8-2.6-2.2-3.4-3.5
		c-0.9-1.4-1.6-2.9-2-4.5c-0.2-0.9-0.5-1.9-0.3-2.8c0.3-1,1.1-1.6,2.2-1.6s2,0.6,2.9,1l3.1,1.4c0.6,0.3,0.8,1.2,0.5,1.7
		C34.3,276.9,33.6,277,33,276.7"/>
	<path d="M50,276.6c-1.1,2.4-2.5,5.2-5.3,6c-2.3,0.7-5.3-0.3-6-2.8c-0.2-0.7,0.2-1.4,0.9-1.6s1.4,0.2,1.6,0.9c0,0.1,0.1,0.2,0.1,0.3
		c-0.1-0.3,0,0,0.1,0.1c0.1,0.2,0,0,0,0.1c0.1,0.1,0.1,0.1,0.2,0.2c0.2,0.2-0.1,0,0.1,0.1c0.1,0.1,0.2,0.1,0.3,0.2
		c0.1,0,0.2,0.1,0.3,0.1c-0.2-0.1,0,0,0.1,0c0.2,0.1,0.4,0.1,0.6,0.1c-0.3,0,0,0,0.1,0s0.2,0,0.3,0s0.2,0,0.3,0c0.3,0-0.2,0.1,0.1,0
		c0.2-0.1,0.4-0.1,0.7-0.2c0.1,0,0.1,0-0.1,0c0,0,0.1,0,0.1-0.1c0.1-0.1,0.2-0.1,0.3-0.2c0.1,0,0.3-0.2,0.3-0.2c-0.1,0,0,0,0.1-0.1
		s0.1-0.1,0.2-0.2c0.4-0.4,0.7-0.7,0.9-1.1c0.6-0.9,1.1-2,1.6-3c0.3-0.6,1.2-0.8,1.7-0.5C50.2,275.3,50.3,276,50,276.6"/>
	<path d="M41.9,289.4c3.9,0.7,7.9,0.7,11.8,0.2c0.7-0.1,1.4,0.2,1.6,0.9c0.2,0.6-0.2,1.5-0.9,1.6c-4.4,0.6-8.8,0.6-13.2-0.2
		c-0.7-0.1-1.1-0.9-0.9-1.6C40.6,289.6,41.3,289.3,41.9,289.4"/>
	<path d="M56.2,289.5c7.5,6.8,15,13.7,23.5,19.2c8.7,5.7,18.4,10,27.7,14.5c5.5,2.7,11.1,5.4,16.6,8.1c1.5,0.7,0.2,2.9-1.3,2.2
		c-9.9-4.8-19.8-9.6-29.7-14.5c-4.6-2.3-9.1-4.7-13.5-7.4c-4.2-2.7-8.2-5.7-12.1-8.9c-4.5-3.7-8.8-7.6-13.1-11.5
		C53.2,290.2,55,288.4,56.2,289.5"/>
	<path d="M119.7,331.8c-1.6,0-1.6-2.5,0-2.5C121.3,329.3,121.3,331.8,119.7,331.8"/>
	<g>
		<path class="st13" d="M332.8,61.6c0,0.3,0.4,0.1,0.5,0.3c0-0.3,0.8-0.7,0.1-0.6c0.8-0.3,6.8-3.4,7.3-2.4c2.9-0.3,4.7,0.9,6.7,1.7
			c0.5,0.3,1.2,0,1.7,0.3c0.3,0.1,0.5,0.6,0.8,0.7c0.3,0.3,0.7-0.1,1,0c0.7,0.3,0.9,0.8,1.4,1c0.8,0.4,1.8,0.5,2.5,1.1v0.8
			c1.2,0.8-2.6,4.3-2.1,5.3c-0.7-0.3-0.4,0.5-1.1,0.3c0,0.6-0.1,0.9-0.2,1c-0.9-0.1-1.4,0-1.7,0.4c-3.1-0.9-4.3,0.4-7,0.7
			c-0.5,1.4-2.2,1.5-2.2,3.2c-2.4,0.8-2.6,3.4-2.7,6.1c2.9,1.1,7.8,1.7,10.9,3c1.1,0.4,2,1.4,2.9,1.7c0.3,0.3,0.7-0.1,1,0.2
			c0.3,0.3,0.5,0.6,0.8,0.9s0.6-0.1,0.9,0.2c0.4,0.3,0.6,0.9,1.1,1.3c0.3,0.1,0.6,0,0.7,0.1s-0.1,0.4,0,0.5c0.7,0.6,1.7,0.8,2.2,1.4
			c0.5,0.7,0.4,1.6,1.3,2c0.1,0.3,0,0.4-0.1,0.7c0.8,0.3,0.4,1.4,1.1,1.3c0.1,0.6-0.7,2,0,2.9c-0.7,1.3-0.6,3.2-1.1,4.6
			c-0.5,1-1,2.3-2.2,2.6c-0.1,0.2-0.2,0.4-0.2,0.8c-1.6,0.4-2.1,2.2-4,2.5c-1.2,0.6-1.5,2-3.5,1.9c-1.6,1.4-5.5,0.9-7.1,2.2
			c-0.8,0.1-2-0.3-2,0.4c-1.2,0-2.5-0.1-2.9,0.6c-0.7,0.1-0.6-0.6-1,0c-0.5,0.3-0.1-0.5-0.6-0.3c-1.9,0.8-4.6,0.3-6.1-0.2
			c-0.3,0-0.1-0.3-0.2-0.6c-1.5,0.7-2.2-1.4-3.8-0.7c-0.3-0.3,0-0.2,0-0.6c-0.5,1.1-1.4-1.1-1.7-0.2c-0.1-0.4-1.2-0.5-0.7-0.9
			c-0.3,0.1-1-0.2-1,0.2c-1.5-2-4.1-3.1-5.2-5.5c-0.5,0.1-0.5-0.3-0.9-0.2c-0.7-0.3-0.1,0.8-0.8,0.5c-0.1-0.9-1-1.4-0.3-2.2
			c-0.3-0.3-0.5-0.4-0.9-0.4c0-1.5,2.3-2.6,1.2-3.9c1.9-0.3,2.5-2,4-2.6v0.4c0.7,0.1,0.6-0.4,0.9-0.5c0.1,0.6,1,0.6,1.7,0.7
			c-0.1,0.3,0.5,0.6,0,0.7c0.7-0.1,1.2,0.8,2,1c0.4,0.1,0.2-0.2,0.5-0.4c-0.1-0.6-0.7-0.9-0.8-1.4c-0.1-0.3,1,0.4,1.3-0.2
			c1.1,1.3,2.9,1.7,4.5,2.3c0,1.5,1.9,1.4,2.2,2.7c2.3,0.3,3.1-0.9,5.2-0.9c0.9-0.3,1.1-0.9,1.9-1.4c1.3-0.7,3.5-0.4,3.8-2.1
			c-0.5-0.6-0.2-1.6-0.3-2.6c-1.3-1.7-3.2-2.9-5.2-4c-1.5,0.1-2.4-0.7-3.5-1c-1.5-0.4-3.3-0.7-4.6-1.3c-0.5-0.3-0.8-0.9-1.3-1.1
			c-0.3-0.3-0.7,0.1-1-0.2c-1.1-0.4-1.5-1.3-2.2-1.9c-0.8-0.6-2.5-2.4-2.9-3.4c0-0.3,0.4-0.2,0.4-0.3c0-0.6-0.6-0.9-0.9-1.4
			c-0.3-0.9-0.7-3.9,0-5.2c0.1-0.1,0.5-0.1,0.5-0.2c0.3-0.9-0.1-2,0.6-3.2c0.3,0.1,0.3-0.1,0.6-0.2c0.8-3.3,3.8-5.1,5.7-7.6
			c0.7-0.3,1.5-0.3,1.5-0.9c1.3-0.1,1.8-0.7,2.9-0.9C333.6,60.7,332.7,61.3,332.8,61.6z M320,98.1c0.8-0.1,0.4,0.9,1.2,0.9
			c0.3-0.6-0.2-1,0.1-1.8c-0.3-0.3-0.8-0.2-1.3-0.2L320,98.1L320,98.1z"/>
		<path class="st13" d="M415,81.2c-0.1,3-1,6.2-0.3,8.5c0,4.1-0.5,11.6-0.8,16.5c-0.1,1.6,0.1,3.3-0.6,4.1c-0.3,0.6-1.2,0.4-1.1,1.4
			c-0.8-0.1-0.5,0.8-0.9,0.1c-1.2,0.7-2.9,0.8-4.4,1c-1.3,0.9-0.3,1.4-2.2,0.9c-2.3,0.6-5.9-0.4-8.8-1v-0.6c-0.7,0.1-0.3,0.3-1,0
			c-0.1-0.3,0.2-0.3,0.5-0.3c-3-4.6-6.3-15.8-8.2-21.1c-1.3-6.2-3.4-13.2-6.3-17.7c-1,0.6,0,2.3-1.4,2.6c0,2.5-0.5,6.3,0.6,7.8
			c-0.8,2.8,0.5,5.5-0.3,8.9c1.1,3.2-0.8,11.5-0.3,15.2c-0.7-0.1-0.1,0.7-0.9,0.4c0.3,0.3,0.5,0.5,0.5,0.6c0.3,1.4-0.5,2-0.8,3.2
			c-0.8,0.4-1.7,0.8-2,1.7c-2.9,0.4-4.5,1.1-6.9,1.7c-0.1,0-0.2-0.2-0.2-0.4c-2.2,0-3.2-0.7-4.7,0.2c-0.3-0.3-0.6-0.9-1.5-0.6
			c-0.3-1.1,0.4-1.8-0.7-2.6c0.7,0.1,0.5-0.5,1.2-0.3c0.3-5.5-0.2-16.5-1-22.3c-0.1-0.6,0.1-0.4,0-0.9c-0.5-2.9,0.6-6.3-0.2-9
			c-0.3-0.6,0.6,0,0.5-0.4c0.3-0.6-0.3-0.4-0.3-0.9c0.9-0.5,0.2-3.4,0.2-4.4c0.3-0.1,0.5-0.2,0.7-0.2c0.7-3.8,2.4-8,6-9.8
			c0.3-0.9,1.4-0.9,2.7-1.9c0.8-0.6,1.5-1.2,2.2-1.4c3.3-1.3,7.4-0.9,11.8-0.9c-0.8,0.9,0.6-0.2,0.6,0.9c1.3-0.1,2.1,0.2,2.4,0.9
			c0.2-0.3,0.6-0.3,1.1-0.3c0.3,0.1,0.5,0.2,0.7,0.3c0.7,0,0,0.3-0.3,0.2c0.1,0.4,0.5,0.5,0.8,0.2c0.9,0.3,1.3,0.7,2.2,0.9
			c1.3,2.6,2.9,7.2,4.8,9.4c-0.3,1.8,1.4,2,1.4,3.8c0.1,0.1,0.2,0.3,0.3,0.3c0-0.3,0.1-0.7,0.1-1c1.4-1.2,0.7-9.8,1.2-11.4
			c0.7-1.6,2.4-2.2,3.3-3.5c0.7-0.3,1.5-0.2,2.6-0.5c0.3-0.1,0.6-0.5,0.9-0.6c0.4-0.3,1,0,1.3-0.1c0,0,0-0.1,0.1-0.2
			c0-0.1,0-0.2,0.1-0.3c0.2,0,1,1.2,0.7,0.1c0.7,0.3,1.6,0.5,2.5,0.8c0.7,0.8,1.9,2.3,1.9,2.6c-0.1,0.3,0,1.9,0.1,3.5
			c0.1,0.9,0.1,2,0.1,3.2l0.2-0.1c-0.3,2.3-0.7,6.8-0.2,7.8C415,77.9,414.6,79.8,415,81.2z"/>
		<path class="st13" d="M430,79.9c1.5,0.2,2.4,0.7,2.7,1.4c0.2,0.2,0.4,0.2,0.5,0c2.4,2.8,3.5,6.6,3.8,10.9c-0.3-0.1,0,1.4,0.3,1.7
			c0,1.7-0.3,3.6,0.2,4.9c-1.3,3.1,0.6,10.7-1,13.8c-1.3-0.3-1.7,0.5-2.8,0.1c0,0.9,0.3,0.3-0.1,1.1c-0.8-0.8-3-0.7-3.5-1.7
			c-0.4,0.3-1,0.3-0.9,0.9c-1.3,0.6-2.7,0-4.2-0.6c-1.2-0.6-1.9-0.5-2-1.4c-0.5,0.1-1.1-0.3-1.4,0.3c-0.5-0.3-0.7-0.7-1.5-0.6
			c0.4-0.9-0.4-0.9-0.9-1.3c0.3-0.3-0.2-1,0.5-0.8c0.3-0.3-0.2-0.3-0.5-0.5c0.3-4.2,2.1-12.8,1.8-17.5c0-0.2-0.1-0.3-0.3-0.3
			c0.8-2.2-0.2-5.5,0.9-8c-1.3-1.1,0.4-2.6-0.1-3.6c0.8-0.1,0.8,0.2,1.6-0.1c0.4-0.6-0.4-0.3-0.4-0.9
			C425.6,78.6,428.5,78.5,430,79.9z M427.8,60.8c0.4-0.1,0.5-0.3,0.8-0.4c3.2-0.3,5.5,0.9,7.2,2.4c-0.5,2.2,2.3,3.3,1.2,4.9
			c1.6,2.1-1.7,3.8-1.4,5.8c-0.5-0.1-1.2,0.3-1.5-0.2c-0.7,0.1-0.8,0.6-1.1,0.9c-2.7,0.1-4.6,0-6.5-0.9c-1.2-0.4-2.2-0.9-3.7-1.2
			c-1.5-2-2.3-4.2-2.3-7.2c0.3-0.4-0.6,0-0.3-0.6c1.1-0.8,0.1-2.3,0-2.7c0-0.3,0.3-0.1,0.6-0.1c0.1-0.5,0.2-0.9,0.4-1.2
			c1.7,0,2.6-0.9,4.5-0.5C426,60.5,427.5,60,427.8,60.8z"/>
		<path class="st13" d="M477.6,59.9c0.7,0.6,0.9,1.4,2,1.7c0.1,0.3-0.2,1.1,0.5,0.9c-0.1,0.6,0,0.5,0,1.1c0.7,0.3,0-0.7,0.7-0.6
			c-0.3,0.6,0.4,0.4,0.8,0.5c0.3,1,1.2,1.4,1.9,2.2c0.1,0.8-0.2,1.1-0.2,1.8c-1.1,0.4-1.8,0.9-2.5,1.7c-4.3,0.7-8.2-0.6-11.2,1
			c-2.3,0-4,1.1-5.6,1.4c-1.1,0.9-2.8,1-3.9,1.7c0.7,1.3,0.2,3.3,0.9,4.6c-0.1,1.3-0.3,4.3,0,6.6c3.8-1.3,9.6-1.6,12.1-4.3
			c1.3,0,2.2-0.3,2.7-0.7c0.8,0.3,1.7,0.3,2,0.9c1.5-0.1,1.6,0.2,2.7,0.8c-0.3,0.3-0.5,0.5-0.4,1.1c1.1-0.7,1.6-0.3,2.7,0
			c0.3,1.1-1.3,0.7-1,1.6c0.5-0.3,1.2-0.3,1.5-0.9c0.3,1.3,1.7,1.1,2.4,1.4c0.4,0.3-0.3,0.5-1,0.4c0.1,0.9,0.7,0.4,1.5,0.7
			c0,0.3-0.2,0.8,0.1,1c0.6-0.2,1.2-0.2,1.7,0c0,0.3,0.4,0.9-0.3,0.7c0,0.4,1.1,0,0.8,0.6c-0.7,0.1-1.4,0.1-1.1,1
			c-1.2,0.1-1.8,0.5-2.9,0.9c-0.4,0.1-0.2-0.3-0.5-0.3c-0.4,0-0.4,0.3-0.7,0.4c-2.4-0.3-3.5,1.6-6.4,1.2c-0.7,0.8-2.3,0.9-3.2,0.9
			c-1.5,1.3-4.9,0.9-7.2,1.5c-0.3,0.3-0.2,0.5-0.3,0.8c-2.3-0.1-3.6,0.4-5.5,0.7c0.7,1-0.4,2,0.3,2.6c0,0.3-0.6,0.3-0.3,0.9
			c0.8,1.3,0.2,2.9,0.5,4.9c-0.3,0-0.5,0.1-0.5,0.2c-0.1,0.4,0,0.6,0.5,0.5c0,0.6-0.5,0.6-0.5,1c0.4,0.3,0.6,0.2,0.6,0.2
			s-0.2,0-0.6,0.6c1.3,2,0.7,1.6,1.5,3.7c-1.3,1.3,0.8,2.8-0.3,4.3c-1.2-0.1-2.8-0.1-2.4-1.4c-1.1-0.3-0.5,0.8-0.8,1.4h-1
			c0,0.6,0.4,0.4,0.7,0.8c-0.9,0.3,0.1,0.5-0.4,1.1c-0.4-0.4-0.9-0.8-1.7-1c0.7-0.6-0.5-0.5-0.5-1.1c-1.1,0.8-0.5,1.4-0.8,2.4
			c-0.4-0.3-0.9-0.5-1.3-0.8c-0.3-0.6,0.5-0.3,0.6-0.5c-0.7-0.3-0.9-0.1-1.6,0.2c0.5-0.7,0.7-1.1,0.8-2.4c-0.5-0.3-1.1,0.1-1.9-0.2
			c-0.3,0.4-0.7,2.3,0.4,2.3c-0.7,0.3-1.9,0.3-2.2-0.4c-0.7-0.1-0.5,0.3-0.8,0.5c-1.9,0.1-2.4-1.1-3.7-1.4c-0.1-0.4,0.9-0.9-0.2-0.9
			c0.5-0.9-0.4-1.4-0.7-2.2c-0.3-1.4,0.1-3.4,0-5.1c0-2.4,1.1,1.2,0.3-1c0.3-0.8-0.4-3.1,0.5-4.2c-0.1-0.3-0.4-0.4-0.7-0.5
			c0.3-1.4-0.2-2.6,0.5-3.5c0-0.3-0.3-0.1-0.3,0c-0.5-9.1,0.3-16.3,0.8-24.6c-0.5-0.3-0.9-0.7-1.2-1.3c0.7-1.1-1.1-2.5-2-3.2
			c0.1-0.3,0.7-0.2,0.4-0.6c-0.4-0.3-0.9-0.3-1.2-0.9c0.3-0.3,0.2,0,0.7,0c-0.7-0.3,0.2-1,0.1-1.7c0.8,0,0.8-0.5,1.2-0.8
			c0.7-0.3,0.3,0.4,0.8,0.3c0.7-0.3-0.4-0.3-0.3-0.8c1.4-1.2,6.2-0.8,7.6,0.2c3.3-0.3,5.6-2,9.1-2.7c0.8-0.3,1.8,0.2,2.5-0.4
			c2.7,0.3,4.1-0.8,6.2-1.1c1.4-1.4,3-0.1,4.2,0.4c1.3,0.6,3,0.7,3.3,1.4c0.8-0.6-0.2,0.1-0.1,0.5C477.2,60.4,477.2,59.9,477.6,59.9
			z M481.6,83c-0.3-0.3,0.5-0.5,0-0.5c0,0.2-0.2,0.2-0.5,0C481.1,82.9,481.3,83.1,481.6,83z"/>
		<path class="st13" d="M504.3,61.6c0,0.3,0.4,0.1,0.5,0.3c0-0.3,0.8-0.7,0.1-0.6c0.8-0.3,6.8-3.4,7.3-2.4c2.9-0.3,4.7,0.9,6.7,1.7
			c0.5,0.3,1.2,0,1.7,0.3c0.3,0.1,0.5,0.6,0.8,0.7c0.3,0.3,0.7-0.1,1,0c0.7,0.3,0.9,0.8,1.4,1c0.8,0.4,1.8,0.5,2.5,1.1v0.8
			c1.2,0.8-2.6,4.3-2.1,5.3c-0.7-0.3-0.4,0.5-1.1,0.3c0,0.6-0.1,0.9-0.2,1c-0.9-0.1-1.4,0-1.7,0.4c-3.1-0.9-4.3,0.4-7,0.7
			c-0.5,1.4-2.2,1.5-2.2,3.2c-2.4,0.8-2.6,3.4-2.7,6.1c2.9,1.1,7.8,1.7,10.9,3c1.1,0.4,2,1.4,2.9,1.7c0.3,0.3,0.7-0.1,1,0.2
			c0.3,0.3,0.5,0.6,0.8,0.9s0.6-0.1,0.9,0.2c0.4,0.3,0.6,0.9,1.1,1.3c0.3,0.1,0.6,0,0.7,0.1c0.1,0.1-0.1,0.4,0,0.5
			c0.7,0.6,1.7,0.8,2.2,1.4c0.5,0.7,0.4,1.6,1.3,2c0.1,0.3,0,0.4-0.1,0.7c0.8,0.3,0.4,1.4,1.1,1.3c0.1,0.6-0.7,2,0,2.9
			c-0.7,1.3-0.6,3.2-1.1,4.6c-0.5,1-1,2.3-2.2,2.6c-0.1,0.2-0.2,0.4-0.2,0.8c-1.6,0.4-2.1,2.2-4,2.5c-1.2,0.6-1.5,2-3.5,1.9
			c-1.6,1.4-5.5,0.9-7.1,2.2c-0.8,0.1-2-0.3-2,0.4c-1.2,0-2.5-0.1-2.9,0.6c-0.7,0.1-0.6-0.6-1,0c-0.5,0.3-0.1-0.5-0.6-0.3
			c-1.9,0.8-4.6,0.3-6.1-0.2c-0.3,0-0.1-0.3-0.2-0.6c-1.5,0.7-2.2-1.4-3.8-0.7c-0.3-0.3,0-0.2,0-0.6c-0.5,1.1-1.4-1.1-1.7-0.2
			c-0.1-0.4-1.2-0.5-0.7-0.9c-0.3,0.1-1-0.2-1,0.2c-1.5-2-4.1-3.1-5.2-5.5c-0.5,0.1-0.5-0.3-0.9-0.2c-0.7-0.3-0.1,0.8-0.8,0.5
			c-0.1-0.9-1-1.4-0.3-2.2c-0.3-0.3-0.5-0.4-0.9-0.4c0-1.5,2.3-2.6,1.2-3.9c1.9-0.3,2.5-2,4-2.6v0.4c0.7,0.1,0.6-0.4,0.9-0.5
			c0.1,0.6,1,0.6,1.7,0.7c-0.1,0.3,0.5,0.6,0,0.7c0.7-0.1,1.2,0.8,2,1c0.4,0.1,0.2-0.2,0.5-0.4c-0.1-0.6-0.7-0.9-0.8-1.4
			c-0.1-0.3,1,0.4,1.3-0.2c1.1,1.3,2.9,1.7,4.5,2.3c0,1.5,1.9,1.4,2.2,2.7c2.3,0.3,3.1-0.9,5.2-0.9c0.9-0.3,1.1-0.9,1.9-1.4
			c1.3-0.7,3.5-0.4,3.8-2.1c-0.5-0.6-0.2-1.6-0.3-2.6c-1.3-1.7-3.2-2.9-5.2-4c-1.5,0.1-2.4-0.7-3.5-1c-1.5-0.4-3.3-0.7-4.6-1.3
			c-0.5-0.3-0.8-0.9-1.3-1.1c-0.3-0.3-0.7,0.1-1-0.2c-1.1-0.4-1.5-1.3-2.2-1.9c-0.8-0.6-2.5-2.4-2.9-3.4c0-0.3,0.4-0.2,0.4-0.3
			c0-0.6-0.6-0.9-0.9-1.4c-0.3-0.9-0.7-3.9,0-5.2c0.1-0.1,0.5-0.1,0.5-0.2c0.3-0.9-0.1-2,0.6-3.2c0.3,0.1,0.3-0.1,0.6-0.2
			c0.8-3.3,3.8-5.1,5.7-7.6c0.7-0.3,1.5-0.3,1.5-0.9c1.3-0.1,1.8-0.7,2.9-0.9C505.1,60.7,504.2,61.3,504.3,61.6z M491.5,98.1
			c0.8-0.1,0.4,0.9,1.2,0.9c0.3-0.6-0.2-1,0.1-1.8c-0.3-0.3-0.8-0.2-1.3-0.2L491.5,98.1L491.5,98.1z"/>
	</g>
	<g>
		<path class="st13" d="M349.7,135.6c0,0.2,0.3,0.1,0.4,0.2c0-0.2,0.6-0.5,0.1-0.4c0.6-0.2,4.8-2.4,5.1-1.7c2-0.2,3.3,0.7,4.7,1.2
			c0.4,0.2,0.8,0,1.2,0.2c0.2,0.1,0.4,0.4,0.6,0.5c0.2,0.2,0.5-0.1,0.7,0c0.5,0.2,0.6,0.5,1,0.7c0.6,0.3,1.3,0.4,1.8,0.8v0.5
			c0.8,0.5-1.8,3-1.5,3.7c-0.5-0.2-0.3,0.4-0.8,0.2c0,0.4-0.1,0.7-0.1,0.7c-0.6-0.1-1,0-1.2,0.3c-2.2-0.7-3,0.3-4.9,0.5
			c-0.4,1-1.5,1.1-1.5,2.2c-1.7,0.5-1.8,2.4-1.9,4.2c2,0.8,5.5,1.2,7.6,2.1c0.8,0.3,1.4,1,2,1.2c0.2,0.2,0.5-0.1,0.7,0.1
			c0.2,0.2,0.4,0.4,0.6,0.6c0.2,0.2,0.4-0.1,0.6,0.1c0.3,0.2,0.4,0.7,0.8,0.9c0.2,0.1,0.4,0,0.5,0.1s-0.1,0.3,0,0.4
			c0.5,0.4,1.2,0.5,1.5,1c0.4,0.5,0.3,1.1,0.9,1.4c0.1,0.2,0,0.3-0.1,0.5c0.6,0.2,0.3,1,0.8,0.9c0.1,0.4-0.5,1.4,0,2
			c-0.5,0.9-0.4,2.2-0.8,3.2c-0.4,0.7-0.7,1.6-1.5,1.9c-0.1,0.1-0.1,0.3-0.1,0.5c-1.1,0.3-1.5,1.6-2.8,1.7c-0.8,0.4-1.1,1.4-2.5,1.3
			c-1.1,1-3.9,0.6-5,1.6c-0.6,0.1-1.4-0.2-1.4,0.3c-0.8,0-1.8-0.1-2,0.4c-0.5,0.1-0.4-0.4-0.7,0c-0.4,0.2-0.1-0.4-0.4-0.2
			c-1.3,0.5-3.2,0.2-4.3-0.1c-0.2,0-0.1-0.2-0.1-0.4c-1,0.5-1.5-1-2.7-0.5c-0.2-0.2,0-0.1,0-0.4c-0.4,0.8-1-0.8-1.2-0.1
			c-0.1-0.3-0.8-0.4-0.5-0.7c-0.2,0.1-0.7-0.1-0.7,0.1c-1-1.4-2.9-2.1-3.6-3.8c-0.4,0.1-0.4-0.2-0.6-0.1c-0.5-0.2-0.1,0.5-0.6,0.4
			c-0.1-0.7-0.7-1-0.2-1.6c-0.2-0.2-0.4-0.3-0.6-0.3c0-1.1,1.6-1.8,0.8-2.7c1.3-0.2,1.8-1.4,2.8-1.8v0.3c0.5,0.1,0.4-0.3,0.6-0.4
			c0.1,0.4,0.7,0.4,1.2,0.5c-0.1,0.2,0.4,0.4,0,0.5c0.5-0.1,0.8,0.5,1.4,0.7c0.3,0.1,0.1-0.1,0.4-0.3c-0.1-0.4-0.5-0.6-0.6-1
			c-0.1-0.2,0.7,0.3,0.9-0.1c0.8,0.9,2,1.2,3.1,1.6c0,1.1,1.3,1,1.5,1.9c1.6,0.2,2.2-0.7,3.6-0.7c0.6-0.2,0.8-0.7,1.3-1
			c0.9-0.5,2.5-0.3,2.7-1.5c-0.4-0.4-0.1-1.1-0.2-1.8c-0.9-1.2-2.2-2-3.6-2.8c-1.1,0.1-1.7-0.5-2.5-0.7c-1.1-0.3-2.3-0.5-3.2-0.9
			c-0.3-0.2-0.6-0.6-0.9-0.8c-0.2-0.2-0.5,0.1-0.7-0.1c-0.8-0.3-1.1-0.9-1.5-1.3c-0.6-0.4-1.8-1.7-2-2.4c0-0.2,0.3-0.1,0.3-0.2
			c0-0.4-0.4-0.6-0.6-1c-0.2-0.7-0.5-2.7,0-3.6c0.1-0.1,0.4-0.1,0.4-0.1c0.2-0.7-0.1-1.4,0.4-2.3c0.2,0.1,0.2-0.1,0.4-0.1
			c0.6-2.3,2.7-3.6,4-5.3c0.5-0.2,1-0.2,1-0.7c0.9-0.1,1.3-0.5,2-0.7C350.2,135,349.6,135.4,349.7,135.6z M340.7,161.1
			c0.6-0.1,0.3,0.7,0.8,0.6c0.2-0.4-0.1-0.7,0.1-1.3c-0.2-0.2-0.6-0.1-0.9-0.1V161.1z"/>
		<path class="st13" d="M402.4,134.4c0,0.9,1.4,1,1.6,1.8c0.1,0.4-0.4,0.3-0.3,0.6c0.4,0.4,0.7,1.3-0.1,1.3
			c-0.1,0.4,0.6,0.4,0.4,0.9c-2-0.5-5-1-7.2-0.2c-1-0.2-1.3,0.3-2.1,0.6c-2.5,0.3-4.6,0.2-6.2,1.1c0.8,2.4,0.5,3.8,1.2,6.3
			c-0.5,0.5,0.4,1.2,0,1.9c0.5,0.1,0.2,0.6,0.8,0.5c-0.3,0.2-0.6,0.8-0.1,1c-0.2,0.2-0.2,0.6-0.6,0.7c0.3,1.1,0.9,2.9,0.4,3.5
			c0.5,0.7,0,2,0.8,3.1c0.1,0.3-0.2,0.4-0.3,0.5c0.7,1.4,0.6,4.5,0.3,6.1c0.6,0.4,0.2,1.9,0.3,3.2c0,1,0.2,1.9-0.3,2.4
			c0.3,0.7-0.1,1-0.1,1.9c-0.6-0.2-0.4,0.4-0.7,0.5c-0.5-0.1-0.9-0.2-1.5-0.1c0,0.5-0.6,0.4-0.7,0.8c-0.8,0.1-1-0.2-1.4-0.5
			c-0.2-0.4,0.4-0.2,0.3-0.5c-0.4-0.5-1.6,0.9-1.8,0.3c-0.5-0.2,0,0.4-0.3,0.4c-0.4-0.1-0.7-0.2-0.9-0.4c-0.8,0.3-2.6,0.1-2.7-0.8
			c-0.6,0.2-0.6-0.3-1.1-0.3c-0.9-1.6-0.4-5.5-0.4-7c0.6-3.2,0.4-6.5,0-9.5c-0.3-2.4,0.3-6.2-0.3-8.8c-0.1-0.4-0.5-0.8,0-1.2
			c-0.4-0.7-0.1-1.8-0.2-2.8c-0.2-0.2-0.4-0.1-0.4-0.4c-0.2,0.3-0.4,0.4-0.6,0.4c-0.5,0-0.7-0.6-1-0.1c-0.4,0.1-0.3-0.3-0.6-0.3
			c-1.9,0.4-3.4-0.2-5-0.4c-0.2-0.3-0.3-0.4-0.4-0.8c-0.4-0.1-0.6-0.2-1-0.2c0.1-0.2-0.2-0.2-0.1-0.5c-0.4,0.2-0.4-0.1-0.7-0.1
			c0-0.4-0.8-0.8-0.4-1.3c-0.3-0.7-1.3-0.8-1.3-1.7c-0.3-0.2-0.3,0.1-0.7-0.1c0.4-0.9-0.4-1.3,0-2.3c0.4,0.1,0.2,0.5,0.6,0.1
			c0.2-0.5-0.8,0.1-0.6-0.4c0.6-0.3,1.4-0.5,2.3-0.5c0.6,0.3,1.3,0.7,2.4,0.5c0.6,0.5,1.8,0.4,2.4,0.9h2.1c0.2,0.1,0.1-0.2,0.4-0.2
			c5.8-0.7,10.9-1.8,16.6-2.5c1.1-0.5,2.4-1,3.7-0.6c0.5,0.2,0.8,0.9,1.8,0.7c0.2,0.4,0.8,0.5,1.4,0.6c0.6,1,2,1.4,2.8,2.3
			C402.5,134.6,402.6,134.4,402.4,134.4z"/>
		<path class="st13" d="M417,132.9c0.8-0.5,3.2-0.7,4.3-0.2c0.2-0.4,1-0.2,1.6-0.2c-0.1,0.3,0.4,0.2,0.3,0.5
			c0.8-0.3,2.3,0.1,2.8,0.8c0.8-0.2,1.1-0.1,1.8,0c0.2-0.1,0.1-0.2,0.1-0.4c0.3,0.2,1-0.2,1.3,0.3c0.5-0.5,1.3-0.2,1.5,0.3
			c0.4,0.1,1-0.1,1,0.1c0.1,0,0.1-0.1,0.1-0.3c2,0.2,2.5,1.6,4,2c-0.1,0.4,0.1,0.6,0.5,0.7c-0.2,0.8,0.3,1.1,0.3,1.6
			c0.8-0.1,1,0.2,1.5,0.2c-0.6,0.4,0.1,1.3-0.3,1.4c1.1,0.7,0.6,2.7,1.4,3.5c-0.3,0.2-0.5,1.4,0,1.6c-0.6,0.8,0.3,1.6,0.5,2.5
			c0.1,0.2-0.1,0.2,0,0.5c0.5,1.1-0.2,2.6-0.2,3.2c0,0.2,0.1,0.1,0.4,0.1c-0.3,1.4-0.1,3.7-1,5.1c0,0.3,0.6,0,0.3,0.4
			c-0.7,0.7-0.3,2.3-1.5,2.8c0.2,0.4-0.1,0.9-0.4,1.1c0,0.3-0.1,0.5,0.1,0.7c-1.3,2.2-1.4,4-3.1,5.9c-0.3,0.1-0.5,0.2-0.8,0.2v0.5
			c-1.4,0.9-2.7,1.8-4.3,2.5c-1.4,0-1.8,0.9-3.4,0.7c-0.1,0.4-1,0.2-1.3,0.6c-0.2,0-0.6,0.1-0.4-0.2c-0.1,0-0.1,0.1-0.1,0.3
			c-3.2,0.3-7.7,0.6-10.5-0.5c-1.1-0.7-1.8-1.3-3.1-1.7c-0.5-1-2.2-1.2-2.2-2.6c-0.6-0.2-0.5-0.8-1.1-1c-0.7-1.8-2.5-2.9-2.5-5.3
			c-0.7-0.9-0.5-2.5-1.1-3.5c-0.1-2.3-0.5-4.4-0.5-6.7c0.7-1,0-2.7,0.8-3.5c-0.1-0.5,0.3-2.5,0.8-3.2c0.1-2.4,1.1-3.5,2-5.6
			c0.2-0.4-0.4-0.2-0.2-0.5c0.6,0.1,0.1-0.3,0.3-0.7h0.8c-0.1-0.2-0.3-0.1-0.3-0.3c-0.4-0.2,0,0.4-0.5,0.2c-0.2-0.5,0.4-0.1,0.6-0.3
			c1.5-0.7,2.7-1.7,4.1-2.4c1.3-0.2,2.2-0.2,3-0.9c0.3-0.1,0.1,0.2,0.3,0.2c0.4-0.5,1.3-0.1,1.8-0.7
			C417.2,132.8,417,132.8,417,132.9z M411.8,138.1h-0.3c0.2,0.5-0.4,0.4-0.4,0.7C411.7,138.9,411.8,138.6,411.8,138.1z M421.2,137.5
			c-0.2,0.4-0.6,0.7-1.1,1v0.8c-0.6,0.5-1,1.3-1.8,1.7c0,0.8-0.4,1.2-1.2,1.4c-0.2,0.4,0.4,0.1,0.2,0.4c-0.8,0.9-0.2,2.2-1,3.3
			c0.5,0.7,0,1.9-0.5,2.4c0.6,0.5-0.1,1.7-0.4,2.3v1.7c0.7,1.4-0.1,3,0.6,3.9c-0.9,1.4,0.6,2.3-0.3,3.8c0.8,0.2,0.8,1,0.5,1.7
			c0.9,0.2,0.9,1,0.8,1.9c0.3,0,0.5,0.1,0.6,0.2c0,0.2-0.4,0.1-0.2,0.4c1.4,0.7,1.7,2,3.3,2.5c3.9-2.2,5-7.5,5.9-12.1
			c0.6-3.2,0.5-6.5,0.3-9.6c-0.5-0.7-0.2-1.3-0.4-2.2c-2.1-1.6-3.8-2.7-4-6c-0.4,0-0.5,0.1-0.4,0.3
			C421.7,137.4,421.7,137.6,421.2,137.5z"/>
		<path class="st13" d="M472.2,171.1c0,0.7,0.7,1,0.7,1.7c-0.8-0.7-2-0.7-2,0l-0.7-0.6v-0.5c-0.8,0.5-1.4,1.1-2,0.5
			c-0.7-0.4,0.6,0,0-0.5l-0.7,0.5c-0.8-1.1-1.9-2.3-3.4-3.4c-1.3,0-2-1.7-3.4-2.3l-0.7-0.6c0-0.1,0-0.2-0.1-0.3
			c-0.1-0.2-0.3-0.3-0.5-0.3c-0.8-1.1-2.1-1.1-2.7-2.3H456c0.1,0.4,0.2,0.7,0.3,1c0.1,0.5,0.1,0.9-0.3,0.9c0.8,2.3,0.7,4.6,0.7,6.9
			c0-0.7-0.8,0,0,0c-0.8,0-0.7,0-0.7,0.5c-0.4,0-0.6,0.1-0.6,0.3c-0.1,0.1-0.1,0.2-0.1,0.3c-0.8,0-0.7-0.6-1.3-0.6h0.6
			c-0.6-0.5-1.3-0.4-2-1.1c0.6,0.7,0,0.6,0,1.1c0,0.1,0,0.2-0.1,0.3c-0.1,0.2-0.3,0.3-0.6,0.3c0.3-0.2,0.4-0.4,0.3-0.5
			s-0.1-0.1-0.3-0.1l-0.6,0.6c-0.4,0-0.6,0.1-0.6,0.3c-0.1,0.1-0.1,0.2-0.1,0.3c-0.8-1.7-2-0.6-3.4-0.6c0.8-0.7-1.3-0.5-1.3-1.1
			c0-0.2-0.1-0.4-0.3-0.5c-0.1-0.1-0.3-0.1-0.4-0.1c0-4-0.7-9.3-0.7-12.8v-0.6c0.8-3.5,0-7.4,0-11c0.8-2.9,1.4-5.8,0-8.2
			c0-0.2,0.1-0.4,0.4-0.4c0.1-0.1,0.2-0.1,0.3-0.1v-1.2c0.8,0,2-0.7,2.7,0c1.3,0,3.4-1.1,5.4-2.3h2.7c2,0,3.4-0.5,5.5,0
			c1.4,0.7,2.6-0.1,3.4,0.6h0.8c1.3,0.7,3.2,0.6,4.7,2.3c0-0.7,0.7,0,1.3,0c0,1.1,1.5,1.1,1.5,2.3c1.3,0,1.2,1.7,2.7,2.3
			c-0.8,0.7,0,1.7,0.8,2.3c-0.8,1.7-2.2,3.5-2.2,5.3h-0.6v0.6h-0.7c0.8,1.1-0.7,1.1-0.7,2.3h-0.8c-0.6,0.5-0.6,1.7-2,1.7
			c-1.3,0.7-1.3,1.7-2,2.9h-2c0,1.1,2,1.2,2,2.3c1.3,0.7,1.3,1.7,2.7,1.7c0.8,1.7,2.7,2.9,3.4,4c2,0.7,2.7,1.8,4,2.3
			c0,0.6,1.4,0,1.4,1.2h-0.7c0.6,0.7,0,1.1,0,1.7c-0.8,0-1.4-0.7-2,0c-0.1-0.1-0.3-0.2-0.5-0.2c-0.4-0.1-0.7,0-1,0.2
			c0.8,0,0.1,0.5-0.7,1.2C473.6,171.7,473.6,171.1,472.2,171.1z M451.7,171.7c0-0.1,0-0.2-0.1-0.3c-0.1-0.2-0.3-0.3-0.5-0.3
			c0.6,0.7,0-0.1,0,0.6H451.7z M455.9,152c0.8-0.7,2.7-0.7,2.7-1.7c1.3-0.7,2-1.8,2.7-2.9c0.8-1.2,1.9-2.3,2.7-3.5
			c0-1.7-2-2.9-2.7-4h-0.8c-1.3-1.3-4.8-0.7-6.1,0c0,2.9,0.7,5.2,0.7,7.5c0,1.7-0.8,3.4,0,5.3c0-0.1,0-0.2,0.1-0.3
			C455.3,152.2,455.5,152,455.9,152c0,0.1,0,0.2,0.1,0.2c0.1,0.1,0.3,0.1,0.6-0.2H455.9z M464.6,168.5c-0.1-0.2-0.4-0.3-0.6-0.3
			c0,0.3,0.1,0.5,0.4,0.5c0.1,0.1,0.2,0.1,0.3,0.1C464.7,168.8,464.7,168.6,464.6,168.5z M465.7,169.8c0.1,0.1,0.2,0.1,0.3,0.1
			c0-0.5,0-0.5-0.6-0.5C465.5,169.6,465.5,169.8,465.7,169.8z M466,157.2l0.7-0.6H466V157.2z M471.3,172c0.1-0.1,0.1-0.2,0.1-0.2
			c-0.1,0-0.2,0-0.3,0.1c-0.2,0.1-0.3,0.2-0.3,0.4C471.1,172.2,471.3,172.2,471.3,172z M477.6,168.2c0,0.7,0.7,0.7,0.7,0H477.6z"/>
		<path class="st13" d="M482,158.2c-2.2-1.3-2.4-3.8-2-6.6c0.2-1.1,0.6-3.6,0.9-4.8c0.8-3.1,1.3-6.6,2.7-8.8c1.3,0.2,1.5-0.8,2.4-1
			c0.1-0.1,0.2-0.3,0.2-0.5c0.8-0.4,1.8-0.6,2.8-1c0.5-0.2,0.7-0.5,1.1-0.6c0.6-0.2,1.4,0.1,2.2-0.1c0.5-0.2,0.8-0.4,1.5-0.5
			c0.2-0.1,1.6-0.7,1.9-0.4c0.8-0.4,2.1-0.1,2.6-0.7c0.3,0.2,1,0.5,1-0.2c0.2,0.2,0.6,0.3,1,0.3v0.2c2.5,1.1,4.1,2.6,6,4
			c0.3-0.1,0.3,0.2,0.6,0.1c-0.1,0.5,0.3,0.7,0.5,1c0.1,1-0.6,1.4-1.1,1.9c-0.1,0.1,0,0.2,0.2,0.2c-0.2,0.2-0.5,0.2-0.8,0.4v0.5
			c-1.5,1-4.3,1.1-5.8,2.1c-1.5-0.1-2.7,0.2-3.3,1c-1.1-0.1-1.4,0.5-2.2,0.5c-0.2,0.2-0.1,0.3-0.4,0.5c-1-0.2-1.3,0.7-2,1
			c0,0.2,0.5,0.1,0.3,0.5c-0.3,0.9-0.6,3.6-0.6,4.8c-0.2,0-0.1,0.4-0.4,0.2v0.8c3.6-0.7,6-2.3,10-2.6c0.8-0.8,2.5-0.1,3.4,0.1v0.4
			c1.3,0.2,1.8,1,3,1.3c-0.2,0.7,0.8,0.5,1,0.9c-0.4,0.3-0.1,0.3-0.4,0.7c0,0.2,0.4,0.1,0.4,0.4c0.1-0.2,0.5-0.2,0.8-0.2
			c0.1,0.2,0.2,0.4,0.3,0.7c0.2,0.3-0.2,0.1-0.4,0.3c0.1,0.2,0.3,0.3,0.7,0.4c0.1,0.4,0.3,0.7,0.1,1.1c-7.1-0.2-11.5,3.5-17.4,3.9
			c-0.3,0.1-0.3,1.9-0.7,1.9c0.6,0.8-0.4,1.4,0,2.3c0.6,0.4,2.1,0.2,2.7-0.1c3.3-0.2,6.9-0.3,9.5-1.3c0.5,0.2,0.8,0,1.1,0.2
			c0.1-0.2,0.3-0.2,0.5-0.4c0.5,0.1,0.7,0.2,0.8,0.4c0.2-0.1,0.1-0.2,0.3-0.2c0.5,0.5,0.8,0.5,1.4,0.7c0.2-0.1-0.1-0.1,0.1-0.4
			c0.2,0.1,0.1,0.2,0.3,0.2c0.2,0.3-0.4,0.1-0.2,0.4c0.2,0.2,0.7-0.1,0.5,0.5c0.8-0.2,1.4-0.1,2,0.4c-0.2,0.2-0.1-0.3-0.4-0.1
			c0.2,0.7,0.2,0.4,0.3,0.8c0.3,0.1,0.1-0.4,0.6-0.2c-0.1,0.1,0,0.2,0.2,0.2c0.1,0.2-0.6-0.1-0.4,0.3c0.6-0.1,0.6,0.5,1.4,0.4
			c0,0.4,0.3,1-0.3,1.2c0.1,0.2,0.5,0.2,0.7,0.4c-0.2,0.2-0.8,0.2-0.7,0.7c-0.1,0.2,0.1,0.3,0.4,0.2c-0.6,0.4-0.2,0.5,0.1,0.8
			c-0.5,0-0.9,0.2-1.2,0.5c-1.2,0-2.3,0.1-3.1,0.5c-3.6,0.1-6.6,1-9.9,1c0,0.1,0.1,0.2,0.2,0.2c-0.9,0.2-2.5-0.1-3.3,0.7
			c-0.1,0-0.2-0.1-0.2-0.2c-0.6,0.9-2.1,0.4-2.9,0.6c-0.2,0,0,0.2-0.2,0.2c-0.3,0.1-0.1-0.2-0.3-0.2c0.1,0-1.1,0.2-1,0.2
			c-0.8-0.1-1.9-0.2-2.5-0.6c-0.9,0.1-1.5-0.2-2-0.7c-0.4-0.1-0.4,0.2-0.6,0c-1.9-0.9-3.9-1.8-5-3.4
			C480.2,165.5,481.5,160.4,482,158.2z"/>
	</g>
	<g>
		<path class="st13" d="M287.7,225c-3.2-1.8-3.4-5.4-2.9-9.4c0.3-1.5,0.8-5.2,1.3-6.8c1.1-4.4,1.8-9.4,3.9-12.5
			c1.9,0.3,2.1-1.1,3.4-1.4c0.2-0.2,0.3-0.4,0.3-0.8c1.2-0.6,2.5-0.9,4-1.4c0.7-0.3,1-0.8,1.5-0.9c0.9-0.3,2,0.1,3.1-0.2
			c0.7-0.3,1.2-0.5,2.1-0.8c0.3-0.1,2.3-0.9,2.7-0.5c1.1-0.6,3-0.2,3.7-0.9c0.5,0.3,1.4,0.7,1.4-0.3c0.3,0.3,0.8,0.4,1.5,0.4v0.3
			c3.5,1.6,5.9,3.7,8.6,5.7c0.4-0.1,0.4,0.3,0.9,0.2c-0.1,0.8,0.4,1,0.7,1.4c0.1,1.4-0.8,2-1.6,2.7c-0.1,0.2,0,0.3,0.3,0.3
			c-0.3,0.3-0.7,0.3-1.1,0.5v0.7c-2.2,1.4-6.2,1.5-8.3,3.1c-2.2-0.1-3.8,0.3-4.7,1.4c-1.5-0.1-2,0.7-3.2,0.8
			c-0.3,0.3-0.2,0.4-0.5,0.7c-1.5-0.3-1.8,0.9-2.9,1.4c0,0.3,0.7,0.2,0.4,0.8c-0.5,1.3-0.8,5.2-0.8,6.8c-0.3,0-0.1,0.5-0.6,0.3v1.2
			c5.1-0.9,8.6-3.2,14.3-3.7c1.1-1.2,3.6-0.2,4.9,0.1v0.6c1.9,0.3,2.6,1.4,4.3,1.8c-0.3,1,1.1,0.7,1.4,1.3c-0.5,0.4-0.2,0.4-0.5,1
			c0,0.3,0.6,0.2,0.5,0.5c0.1-0.3,0.7-0.3,1.2-0.3c0.1,0.3,0.3,0.6,0.4,0.9c0.3,0.4-0.3,0.2-0.6,0.4c0.1,0.3,0.4,0.4,1,0.5
			c0.1,0.6,0.4,0.9,0.1,1.5c-10.1-0.3-16.4,4.9-24.9,5.6c-0.4,0.2-0.4,2.6-1,2.6c0.8,1.2-0.6,2,0,3.2c0.9,0.6,3,0.3,3.9-0.1
			c4.7-0.3,9.9-0.4,13.6-1.9c0.7,0.3,1.2,0,1.5,0.3c0.1-0.3,0.4-0.3,0.7-0.6c0.7,0.1,1,0.3,1.1,0.6c0.3-0.1,0.2-0.3,0.5-0.3
			c0.7,0.7,1.1,0.7,2,0.9c0.3-0.1-0.2-0.2,0.1-0.5c0.3,0.1,0.2,0.3,0.5,0.3c0.3,0.4-0.6,0.1-0.3,0.5c0.3,0.3,1-0.1,0.7,0.7
			c1.1-0.3,2-0.2,2.8,0.5c-0.3,0.3-0.1-0.4-0.6-0.2c0.3,0.9,0.3,0.6,0.4,1.2c0.5,0.1,0.1-0.5,0.8-0.3c-0.1,0.2,0,0.3,0.3,0.3
			c0.1,0.3-0.8-0.2-0.5,0.4c0.9-0.1,0.9,0.8,2,0.5c0,0.6,0.4,1.4-0.4,1.7c0.1,0.3,0.7,0.3,1,0.5c-0.3,0.3-1.1,0.3-1,1
			c-0.1,0.3,0.1,0.4,0.6,0.3c-0.8,0.6-0.3,0.8,0.1,1.2c-0.7,0-1.3,0.3-1.7,0.7c-1.7,0-3.3,0.2-4.4,0.8c-5.2,0.1-9.4,1.4-14.2,1.4
			c0,0.2,0.1,0.3,0.3,0.3c-1.3,0.3-3.6-0.2-4.7,0.9c-0.2,0-0.3-0.1-0.3-0.3c-0.9,1.3-3,0.6-4.1,0.9c-0.3,0,0,0.3-0.3,0.3
			c-0.4,0.1-0.1-0.3-0.4-0.3c0.1,0-1.6,0.3-1.5,0.3c-1.2-0.1-2.7-0.3-3.6-0.9c-1.3,0.1-2.2-0.3-2.8-0.9c-0.5-0.1-0.5,0.3-0.8,0
			c-2.7-1.3-5.5-2.6-7.1-4.9C285.1,235.3,286.9,228.1,287.7,225z"/>
		<path class="st13" d="M386.8,212.2c-0.1,3-1,6.2-0.3,8.5c0,4.1-0.5,11.6-0.8,16.5c-0.1,1.6,0.1,3.3-0.6,4.1
			c-0.3,0.6-1.2,0.4-1.1,1.4c-0.8-0.1-0.5,0.8-0.9,0.1c-1.2,0.7-2.9,0.8-4.4,1c-1.3,0.9-0.3,1.4-2.2,0.9c-2.3,0.6-5.9-0.4-8.8-1
			v-0.6c-0.7,0.1-0.3,0.3-1,0c-0.1-0.3,0.2-0.3,0.5-0.3c-3-4.6-6.3-15.8-8.2-21.1c-1.3-6.2-3.4-13.2-6.3-17.7c-1,0.6,0,2.3-1.4,2.6
			c0,2.5-0.5,6.3,0.6,7.8c-0.8,2.8,0.5,5.5-0.3,8.9c1.1,3.2-0.8,11.5-0.3,15.2c-0.7-0.1-0.1,0.7-0.9,0.4c0.3,0.3,0.5,0.5,0.5,0.6
			c0.3,1.4-0.5,2-0.8,3.2c-0.8,0.4-1.7,0.8-2,1.7c-2.9,0.4-4.5,1.1-6.9,1.7c-0.1,0-0.2-0.2-0.2-0.4c-2.2,0-3.2-0.7-4.7,0.2
			c-0.3-0.3-0.6-0.9-1.5-0.6c-0.3-1.1,0.4-1.8-0.7-2.6c0.7,0.1,0.5-0.5,1.2-0.3c0.3-5.5-0.2-16.5-1-22.3c-0.1-0.6,0.1-0.4,0-0.9
			c-0.5-2.9,0.6-6.3-0.2-9c-0.3-0.6,0.6,0,0.5-0.4c0.3-0.6-0.3-0.4-0.3-0.9c0.9-0.5,0.2-3.4,0.2-4.4c0.3-0.1,0.5-0.2,0.7-0.2
			c0.7-3.8,2.4-8,6-9.8c0.3-0.9,1.4-0.9,2.7-1.9c0.8-0.6,1.5-1.2,2.2-1.4c3.3-1.3,7.4-0.9,11.8-0.9c-0.8,0.9,0.6-0.2,0.6,0.9
			c1.3-0.1,2.1,0.2,2.4,0.9c0.2-0.3,0.6-0.3,1.1-0.3c0.3,0.1,0.5,0.2,0.7,0.3c0.7,0,0,0.3-0.3,0.2c0.1,0.4,0.5,0.5,0.8,0.2
			c0.9,0.3,1.3,0.7,2.2,0.9c1.3,2.6,2.9,7.2,4.8,9.4c-0.3,1.8,1.4,2,1.4,3.8c0.1,0.1,0.2,0.3,0.3,0.3c0-0.3,0.1-0.7,0.1-1
			c1.4-1.2,0.7-9.8,1.2-11.4c0.7-1.6,2.4-2.2,3.3-3.5c0.7-0.3,1.5-0.2,2.6-0.5c0.3-0.1,0.6-0.5,0.9-0.6c0.4-0.3,1,0,1.3-0.1
			c0,0,0-0.1,0.1-0.2c0-0.1,0-0.2,0.1-0.3c0.2,0,1,1.2,0.7,0.1c0.7,0.3,1.6,0.5,2.5,0.8c0.7,0.8,1.9,2.3,1.9,2.6
			c-0.1,0.3,0,1.9,0.1,3.5c0.1,0.9,0.1,2,0.1,3.2l0.2-0.1c-0.3,2.3-0.7,6.8-0.2,7.8C386.8,209,386.4,210.9,386.8,212.2z"/>
		<path class="st13" d="M394.1,225c-3.2-1.8-3.4-5.4-2.9-9.4c0.3-1.5,0.8-5.2,1.3-6.8c1.1-4.4,1.8-9.4,3.9-12.5
			c1.9,0.3,2.1-1.1,3.4-1.4c0.2-0.2,0.3-0.4,0.3-0.8c1.2-0.6,2.5-0.9,4-1.4c0.7-0.3,1-0.8,1.5-0.9c0.9-0.3,2,0.1,3.1-0.2
			c0.7-0.3,1.2-0.5,2.1-0.8c0.3-0.1,2.3-0.9,2.7-0.5c1.1-0.6,3-0.2,3.7-0.9c0.5,0.3,1.4,0.7,1.4-0.3c0.3,0.3,0.8,0.4,1.5,0.4v0.3
			c3.5,1.6,5.9,3.7,8.6,5.7c0.4-0.1,0.4,0.3,0.9,0.2c-0.1,0.8,0.4,1,0.7,1.4c0.1,1.4-0.8,2-1.6,2.7c-0.1,0.2,0,0.3,0.3,0.3
			c-0.3,0.3-0.7,0.3-1.1,0.5v0.7c-2.2,1.4-6.2,1.5-8.3,3.1c-2.2-0.1-3.8,0.3-4.7,1.4c-1.5-0.1-2,0.7-3.2,0.8
			c-0.3,0.3-0.2,0.4-0.5,0.7c-1.5-0.3-1.8,0.9-2.9,1.4c0,0.3,0.7,0.2,0.4,0.8c-0.5,1.3-0.8,5.2-0.8,6.8c-0.3,0-0.1,0.5-0.6,0.3v1.2
			c5.1-0.9,8.6-3.2,14.3-3.7c1.1-1.2,3.6-0.2,4.9,0.1v0.6c1.9,0.3,2.6,1.4,4.3,1.8c-0.3,1,1.1,0.7,1.4,1.3c-0.5,0.4-0.2,0.4-0.5,1
			c0,0.3,0.6,0.2,0.5,0.5c0.1-0.3,0.7-0.3,1.2-0.3c0.1,0.3,0.3,0.6,0.4,0.9c0.3,0.4-0.3,0.2-0.6,0.4c0.1,0.3,0.4,0.4,1,0.5
			c0.1,0.6,0.4,0.9,0.1,1.5c-10.1-0.3-16.4,4.9-24.9,5.6c-0.4,0.2-0.4,2.6-1,2.6c0.8,1.2-0.6,2,0,3.2c0.9,0.6,3,0.3,3.9-0.1
			c4.7-0.3,9.9-0.4,13.6-1.9c0.7,0.3,1.2,0,1.5,0.3c0.1-0.3,0.4-0.3,0.7-0.6c0.7,0.1,1,0.3,1.1,0.6c0.3-0.1,0.2-0.3,0.5-0.3
			c0.7,0.7,1.1,0.7,2,0.9c0.3-0.1-0.2-0.2,0.1-0.5c0.3,0.1,0.2,0.3,0.5,0.3c0.3,0.4-0.6,0.1-0.3,0.5c0.3,0.3,1-0.1,0.7,0.7
			c1.1-0.3,2-0.2,2.8,0.5c-0.3,0.3-0.1-0.4-0.6-0.2c0.3,0.9,0.3,0.6,0.4,1.2c0.5,0.1,0.1-0.5,0.8-0.3c-0.1,0.2,0,0.3,0.3,0.3
			c0.1,0.3-0.8-0.2-0.5,0.4c0.9-0.1,0.9,0.8,2,0.5c0,0.6,0.4,1.4-0.4,1.7c0.1,0.3,0.7,0.3,1,0.5c-0.3,0.3-1.1,0.3-1,1
			c-0.1,0.3,0.1,0.4,0.6,0.3c-0.8,0.6-0.3,0.8,0.1,1.2c-0.7,0-1.3,0.3-1.7,0.7c-1.7,0-3.3,0.2-4.4,0.8c-5.2,0.1-9.4,1.4-14.2,1.4
			c0,0.2,0.1,0.3,0.3,0.3c-1.3,0.3-3.6-0.2-4.7,0.9c-0.2,0-0.3-0.1-0.3-0.3c-0.9,1.3-3,0.6-4.1,0.9c-0.3,0,0,0.3-0.3,0.3
			c-0.4,0.1-0.1-0.3-0.4-0.3c0.1,0-1.6,0.3-1.5,0.3c-1.2-0.1-2.7-0.3-3.6-0.9c-1.3,0.1-2.2-0.3-2.8-0.9c-0.5-0.1-0.5,0.3-0.8,0
			c-2.7-1.3-5.5-2.6-7.1-4.9C391.5,235.3,393.3,228.1,394.1,225z"/>
		<path class="st13" d="M480.1,243.4c0,0.9,1,1.4,1,2.4c-1.1-0.9-2.9-0.9-2.9,0l-1-0.9v-0.7c-1.1,0.7-2,1.6-2.9,0.7
			c-1-0.6,0.8,0,0-0.7l-1,0.7c-1.1-1.6-2.7-3.2-4.9-4.9c-1.9,0-2.8-2.4-4.9-3.3l-1-0.9c0-0.1,0-0.3-0.1-0.4
			c-0.2-0.3-0.4-0.4-0.7-0.4c-1.1-1.6-3-1.6-3.9-3.3h-1c0.2,0.5,0.3,0.9,0.4,1.4c0.1,0.7,0.1,1.3-0.4,1.3c1.1,3.3,1,6.6,1,9.9
			c0-0.9-1.1,0,0,0c-1.1,0-1,0-1,0.7c-0.5,0-0.8,0.2-0.9,0.4s-0.1,0.3-0.1,0.4c-1.1,0-1-0.9-1.9-0.9h0.9c-0.9-0.7-1.8-0.6-2.9-1.5
			c0.9,0.9,0,0.9,0,1.5c0,0.2,0,0.3-0.1,0.4c-0.1,0.3-0.4,0.4-0.9,0.4c0.4-0.3,0.5-0.6,0.4-0.8c-0.1-0.1-0.2-0.1-0.4-0.1l-0.8,0.9
			c-0.5,0-0.8,0.2-0.9,0.4s-0.1,0.3-0.1,0.4c-1.1-2.4-2.9-0.9-4.9-0.9c1.1-0.9-1.9-0.8-1.9-1.5c0-0.3-0.2-0.6-0.5-0.8
			c-0.2-0.1-0.4-0.1-0.5-0.1c0-5.7-1-13.3-1-18.2v-0.9c1.1-5,0-10.6,0-15.7c1.1-4.2,2-8.4,0-11.7c0-0.3,0.2-0.5,0.5-0.6
			c0.1-0.1,0.3-0.1,0.5-0.1v-1.7c1.1,0,2.8-0.9,3.9,0c1.9,0,4.9-1.6,7.7-3.3h3.9c2.9,0,4.9-0.8,7.8,0c2,0.9,3.7-0.1,4.8,0.9h1.1
			c1.9,0.9,4.6,0.9,6.7,3.3c0-0.9,1,0,1.8,0c0,1.6,2.1,1.5,2.1,3.3c1.9,0,1.7,2.4,3.8,3.2c-1.1,0.9,0,2.4,1.1,3.3
			c-1.1,2.5-3.1,5-3.1,7.5h-0.8v0.9h-1c1.1,1.6-1,1.5-1,3.3H479c-0.8,0.7-0.8,2.4-2.8,2.4c-1.9,0.9-1.8,2.5-2.9,4.2h-2.8
			c0,1.5,2.8,1.7,2.8,3.3c1.9,0.9,1.9,2.5,3.9,2.5c1.1,2.4,3.8,4.1,4.9,5.7c2.8,0.9,3.8,2.6,5.7,3.3c0,0.9,2,0,2,1.7h-1
			c0.9,0.9,0,1.5,0,2.5c-1.1,0-2-0.9-2.8,0c-0.2-0.2-0.4-0.3-0.7-0.3c-0.5-0.1-1,0-1.4,0.3c1.1,0,0.1,0.8-1,1.7
			C482.1,244.3,482.1,243.4,480.1,243.4z M450.9,244.3c0-0.1,0-0.3-0.1-0.4c-0.2-0.3-0.4-0.4-0.7-0.4c0.8,0.9,0-0.1,0,0.9h0.8V244.3
			z M456.8,216.2c1.1-0.9,3.9-0.9,3.9-2.5c1.9-0.9,2.8-2.6,3.9-4.2c1.1-1.7,2.7-3.3,3.8-5c0-2.5-2.8-4.2-3.8-5.7h-1.1
			c-1.8-1.8-6.8-0.9-8.7,0c0,4.2,1,7.4,1,10.7c0,2.5-1.1,4.9,0,7.5c0-0.1,0-0.3,0.1-0.4C456,216.3,456.3,216.2,456.8,216.2
			c0,0.2,0,0.3,0.1,0.3c0.1,0.2,0.4,0.1,0.9-0.3H456.8z M469.3,239.7c-0.2-0.3-0.5-0.4-0.9-0.4c0,0.4,0.2,0.7,0.5,0.8
			c0.1,0.1,0.3,0.1,0.5,0.1C469.4,240,469.4,239.9,469.3,239.7z M470.9,241.6c0.1,0.1,0.3,0.1,0.4,0.1c0-0.7,0-0.7-0.8-0.7
			C470.5,241.2,470.6,241.5,470.9,241.6z M471.3,223.6l1-0.9h-1V223.6z M478.9,244.6c0.1-0.1,0.1-0.3,0.1-0.3c-0.1,0-0.3,0-0.4,0.1
			c-0.3,0.1-0.4,0.3-0.4,0.6C478.5,245,478.8,244.9,478.9,244.6z M487.8,239.3c0,0.9,1,0.9,1,0H487.8z"/>
		<path class="st13" d="M533.6,245.1c-0.8-0.1-0.8,0.5-1.5,0.5c0,0.1,0.1,0.1,0.3,0.1c0.1,0.3-0.5,0.1-0.8,0.2
			c-1,1.5-4.7,1.8-5.6,2.3c-1.2-0.6-2.8,0.1-4.3-0.9c-0.1,0-0.2,0.1-0.2,0.3c-2-0.4-3.2-1.8-5.7-1.7c-0.1-0.3-0.8,0-0.5-0.6
			c-0.3,0.1,0,0.3-0.3,0.3c-0.4-0.3-1-0.2-1.1-0.8h-1.3c-2.1-1-5.2-1.4-7.2-3c-0.4-0.1-0.4,0.3-0.8,0.2c-1-1.3-4-1.1-4.3-3.1
			c-0.7-0.3-0.5,0.3-1,0.3c0.3-0.4-0.2-0.3-0.1-0.8c-0.8,0.3-0.9-0.6-1.7-0.6c-0.4-0.1,0.2,0.7-0.5,0.4c-0.3-1.1-1.2-1.2-1.7-2.3
			c-0.3,0.1-0.6,0-0.5,0.6c-0.5-1.1,0.5-2.6-1.4-3.1c0.2-0.9-0.2-1.2-1.1-1.1c0.6-0.8-1-1.7,0-2.4c-0.5-0.6-0.5-0.7-0.5-1.6
			c-0.3-0.3-0.7-0.3-1-0.6c-0.5-4.8-1.3-8.5-0.2-12.9c-0.5-1,0-3.2,0.5-4c0.8-5.5,2.7-7.7,5.6-11.5c0.7,0.3,0.5-0.3,1-0.3
			c0.8-1.8,2.9-2.4,3.7-4.2c1.9-0.3,2.2-1.6,3.8-2c0.1-0.1,0.2-0.3,0.2-0.5c1.7-0.3,2.1-0.6,2.9-1.4c2-0.6,3.8-1,5.9-1.6
			c3.9-0.3,7.1,0,10,0.6c4.8,0.9,8,3.5,12,5.3c0,2.6,3.3,2.4,3.3,5.2c-0.5,0-0.7,0.3-1,0.5c0.9,0.3,1,0.9,1.7,1.2
			c-0.7,0.6-0.3,1.1,0,1.8c-1.6-0.4-3.5,0.6-5-0.1c-2.1-0.9-5.8-1.5-8.1-2.5c-0.9-0.3-2.6-0.5-3.7,0.8c-3.8,0.4-4.6,2.9-7.7,3.8
			c-0.3,1.1-1.2,1.4-1.9,2c0.1,1.4-1.2,1.7-1.5,2.8c-0.3,0.6,0.6,0.2,0.3,0.8c-2.1,2.2,0.4,2.6-1.2,4.9c0.8,2.2-0.1,4.4,0.4,6.7
			c-0.1,0.3-0.5,0.5-0.5,0.9c1.5,1.5-0.2,3.7,1.6,4.8c-0.1,1.3-0.6,2.4,0.7,3c-0.3,1.3,0.1,2.4,1,2.8c0.3,0.6-0.6,0.2-0.3,0.6
			c2.3,0.6,4.7-0.3,7-0.9c0.3,0,0.1-0.3,0.2-0.4c0.4-0.3,1.3-0.5,1.7-0.9c2.1-2,6.5-5.1,5.7-8.5c-0.3-1-0.7-2.2-1.2-3.3
			c-2.3-0.4-3.8,0.9-6.4,0c-0.1,0.6-0.9,0.7-1.8,0.6c-0.5-2.3-3.9-2.4-5.4-3.9c0.3-0.3,0.6-0.2,0.7-0.4c-0.3-0.3-0.2-0.5-0.9-0.5
			c0.3-0.3,1-0.1,1.4-0.2c0.3-0.6,0.8-0.2,1.3-0.4c0.9-0.3,1.6-0.9,2.5-1.3c3.6-1.4,8.2-0.8,12.1,0c0.5,1.1,2.9,0.7,3.4,1.9
			c2.3,0.3,3,2,4.7,2.8v0.7c2.2,1.4,1.1,4.3,2.2,6.7c-0.5-0.1,0.3,0.8,0,1.4c-0.3,0-0.5,0-0.5,0.1c-0.3,0.6,0.2,0.5,0.5,0.8
			c-0.8,0.7,0.1,2.3-0.8,2.7c0.8,2.2-2,4-2.6,6.1c-0.4,0-0.5,0.3-1,0.2c0.5,1.6-2.7,1.9-1.3,2.8c-0.3,0.3-0.6,0.2-0.3,0.8
			c-0.8-0.3-2,1.1-1.7,1.8c0.5,0.1,0.5-0.4,0.8-0.5C534.9,243.9,533.6,244.3,533.6,245.1z"/>
		<path class="st13" d="M556.4,211c1.5,0.2,2.4,0.7,2.7,1.4c0.2,0.2,0.4,0.2,0.5,0c2.4,2.8,3.5,6.6,3.8,10.9c-0.3-0.1,0,1.4,0.3,1.7
			c0,1.7-0.3,3.6,0.2,4.9c-1.3,3.1,0.6,10.7-1,13.8c-1.3-0.3-1.7,0.5-2.8,0.1c0,0.9,0.3,0.3-0.1,1.1c-0.8-0.8-3-0.7-3.5-1.7
			c-0.4,0.3-1,0.3-0.9,0.9c-1.3,0.6-2.7,0-4.2-0.6c-1.2-0.6-1.9-0.5-2-1.4c-0.5,0.1-1.1-0.3-1.4,0.3c-0.5-0.3-0.7-0.7-1.5-0.6
			c0.4-0.9-0.4-0.9-0.9-1.3c0.3-0.3-0.2-1,0.5-0.8c0.3-0.3-0.2-0.3-0.5-0.5c0.3-4.2,2.1-12.8,1.8-17.5c0-0.2-0.1-0.3-0.3-0.3
			c0.8-2.2-0.2-5.5,0.9-8c-1.3-1.1,0.4-2.6-0.1-3.6c0.8-0.1,0.8,0.2,1.6-0.1c0.4-0.6-0.4-0.3-0.4-0.9
			C552,209.7,554.9,209.6,556.4,211z M554.2,191.9c0.4-0.1,0.5-0.3,0.8-0.4c3.2-0.3,5.5,0.9,7.2,2.4c-0.5,2.2,2.3,3.3,1.2,4.9
			c1.6,2.1-1.7,3.8-1.4,5.8c-0.5-0.1-1.2,0.3-1.5-0.2c-0.7,0.1-0.8,0.6-1.1,0.9c-2.7,0.1-4.6,0-6.5-0.9c-1.2-0.4-2.2-0.9-3.7-1.2
			c-1.5-2-2.3-4.2-2.3-7.2c0.3-0.4-0.6,0-0.3-0.6c1.1-0.8,0.1-2.3,0-2.7c0-0.3,0.3-0.1,0.6-0.1c0.1-0.5,0.2-0.9,0.4-1.2
			c1.7,0,2.6-0.9,4.5-0.5C552.4,191.5,553.9,191,554.2,191.9z"/>
	</g>
	<g>
		<path class="st13" d="M381.4,266.1c-0.1,0.7,0.2,0.8,0.7,0.8c0,1,0.5,3.7-0.1,4.5c1.1,1.6,0.5,3.3,1.4,4.7c-0.4,1.8,0.6,4.5,0,6.2
			c0.4,1-1.1,2.5-0.6,3.6c-0.2,0.1-0.4,0.1-0.4,0.1c0.6,0.8-0.3,1.9,0.3,2.8c-0.4,2,0.4,4.3-0.7,6.2c-0.1,0.2,0.2,0.1,0.2,0.3
			c-0.2,0.4-0.4,0.7-0.2,1.2c-0.9,0.2-0.3,1.3-0.6,2c-0.8,0.5-1.5,1-1.4,2.1c-0.6,0.2-0.7,0.8-0.9,1.3c-0.8,0.3-1.5,0.6-1.7,1.5
			c-0.5,0.2-1.3-0.1-1.1,0.6c-2,0.7-5,0.2-6.9,0.4v0.7c-1.1-0.7-3.3-1.3-4.2-1.1c-0.2-0.5-1.4-0.1-1.9-0.5c-0.5-0.2-0.3,0.2-0.5,0.2
			c-0.5-0.4-1.3-0.2-2.1-0.2c-0.5-0.3-0.6-0.9-1.5-0.9c-0.1-0.2-0.1-0.5-0.2-0.7c-1.4,0.1-1.7-1-1.5-1.9c0-0.2-0.3-0.1-0.4-0.2
			c-0.2-1,0-2.3-0.6-3c-0.2-1.2,0.4-2,0.6-3.2c1.1-0.9,2-1.6,3.1-2.4c0.7,1,2.8,0.8,4.1,1.2c0.4,0,0.3-0.5,0.8-0.3
			c0.1,0.6,1.6,0.2,1.6,1c0.3,0.1,0.1-0.2,0.4-0.2c0.6,0.5,1.5,0.8,1.7,1.7c1.9-0.9,2.1-2.9,2.3-5.1c0.9-1.1,0-2.9,0.7-4.1
			c-0.8-0.4,0.6-1.3-0.2-1.6c0.8-1.8-0.4-4.8,0.6-6.4c-0.2-3.3,0.3-6.6,0-10.1c-0.4,0,0-0.7-0.6-0.5c0-0.4-0.1-0.5-0.2-1
			c0.3-0.1,1,0.2,0.9-0.2C375.4,265.8,379.5,264.8,381.4,266.1z M361.8,303.2c0-0.2-0.7-0.2-0.7,0c0.1,0,0.1,0.1,0.1,0.3
			C361.5,303.4,361.8,303.4,361.8,303.2z"/>
		<path class="st13" d="M387.8,282.4c0-0.2,0.2-0.2,0.3-0.4c-0.3-0.2,0.1-0.4-0.2-0.8c0.4-0.2,0.1,0.4,0.4,0.2
			c0.2,0,0.1-0.3,0.1-0.5c-0.6,0.3-0.2-0.1,0.1-0.2c-0.2-0.1-0.4-0.4-0.3-0.7h0.3c0.2-2.3,1.5-4.4,2.2-6.7c0.9,0,0.3-1.3,1.3-1.3
			c1.5-3,4.6-4.6,7.6-6.3c0.8-0.1,1.6,0,2.1-0.3c0.2,0.5,1.7-0.1,1.9,0.5c0.8-0.1,1.3-0.2,1.8,0.4c0.2-0.1,0.1-0.2,0.3-0.2
			c-0.1,0.3,0.6,0,0.4,0.4c0.8,0.1,1.5,0,1.5-0.2c0.5,0.2,1,0.3,1.5,0.3c0.5,1,1.3,1.7,2.3,2.1c0.1,0.4,0.3,0.8,0.7,1
			c-0.1,0.5,0.2,0.8,0.8,0.9c0,0.7,1.4,0.8,0.8,1.3c0.8,1.1,1,3.2,1.7,4.3c0.1,0.2-0.2,0.1-0.2,0.2c0.7,0.6,0.5,2.4,1.3,3.2
			c0,0.1-0.1,0.2-0.2,0.2c0.5,1.1,0.8,2.1,1.1,3.8c-0.2-0.1-0.3-0.1-0.4-0.1c0.5,0.4,0.8,1,0.8,1.9c1.3,1.3,0.1,3.5,1.3,4.9
			c-0.4,0.5,0.4,2.1-0.2,2.6c0.6,0.5,0.4,1.6,0.9,2.3c-0.6,1.1,0.8,2.3,0.6,3.3c-0.2,0-0.2-0.1-0.4-0.1c0.6,0.7,0,1.7-0.6,2.1
			c-0.5,0.2,0.1-0.5-0.4-0.3c-0.4,0.3,0.4,0.2,0.2,0.7c-0.2-0.2-0.5-0.4-0.8-0.3c-0.1-0.2,0.1-0.2,0.1-0.4c-0.1-0.2-0.4-0.1-0.6-0.1
			c-0.2,0.4,0.3,0.2,0.2,0.5c-0.9,0.3-0.2,0.5-1.3,0.7c-0.2-0.2-0.1-0.5-0.4-0.5c-0.4,0.4-0.4,0.2-0.8,0c-0.1,0.2-0.2,0.5-0.3,0.8
			c0.2,0,0.5-0.4,0.7-0.1c0,0.4-0.8,0-0.8,0.3c-0.6-0.1-0.8-0.4-1.4-0.6c0.4-0.3,0.4-0.9-0.2-1.1c-0.4,0.3-0.4,0.2-1,0.3
			c0.2,0.4,0.8,0.3,1.1,0.7c0,0.2-1.1,0.5-0.3,0.7c-0.3,0.2-0.6,0.1-1,0.3c-0.1-0.3,0.4-0.1,0.2-0.5c-0.3,0.2-0.6,0.2-0.9,0
			c-0.1,0.1-0.1,0.1-0.1,0.3c-1.1,0.3-1.9-1-2.5-0.7c-0.2,0-0.1-0.2-0.1-0.4c-1.3-0.7-1.2-3.2-1.7-3.9c0.2-0.2,0.2-0.4,0-0.7
			c0.1,0.1,0.2-0.1,0.2-0.2c-0.6-2.8-0.7-5-1.1-7.6c-1.9,0.5-3.2,1.4-5.3,1.8c-0.8,0.2-1.9,0.8-2.8,0.8c-1.1,1,0.1,3.1-0.8,4.4
			c0.6,0.4,0.2,0.7,0,1.1c-0.3,1.5-0.4,3-1.4,3.9c0.1,0.2,0.2,0.1,0.2,0.3c-0.4-0.2-0.1,0.4-0.6,0.2c0.2,1.1-1.3,1.1-1.5,2
			c-0.2-0.5-0.5,0.2-0.5-0.2c-0.3,0.2-0.9,0.1-1,0.5c-0.9-0.5-1.8,0.3-2.5-0.2c-0.4,0.5-0.8-0.1-1.1,0.2c0-0.7-1.8,0.2-2-0.6
			c0,0.5-0.3-0.2-0.5,0.3c-0.2-0.1-0.1-0.6,0.2-0.6c0-0.2-0.6,0.1-0.6-0.2c0.2-0.4,0.5-0.5,1-0.7c-0.2-2.2,0.5-3.8,0-5.7
			c0-0.1-0.1-1,0-1.4c0-0.2-0.2-0.1-0.2-0.2c0-0.2,0.2-0.4,0.2-0.5c-0.1-0.7-0.6-1.4,0-2c-0.3-0.4-0.5-1.2,0-1.5
			c-0.5-0.4,0.1-1-0.2-1.7c0.6-0.4-0.1-1.3,0.5-1.6c-0.5-0.1,0.4-0.6-0.2-0.6c0.4-0.2,0.1-0.2,0-0.5h0.4c0-0.7,0.1-1.1,0.1-2
			c-0.2-0.3-0.1-0.4,0.1-0.1C388,283,388,282.7,387.8,282.4z M399.4,278.4c-0.1,1.7-0.5,2.7-1.3,4.3c0.4,0.1,0.1,0.7,0.4,0.8
			c2-0.7,3.9-1.6,6.2-2c0-0.2,0.4-0.2,0.4-0.4c-1.1-2.6-1.3-5.5-2.5-8.1c-0.4,0.7-1.3,0.9-1.1,1.9
			C400.6,275.8,400.6,277.7,399.4,278.4z"/>
		<path class="st13" d="M453,303.4c-0.6-0.1-0.6,0.4-1.1,0.4c0,0.1,0.1,0.1,0.2,0.1c0.1,0.2-0.4,0.1-0.6,0.1
			c-0.7,1.1-3.3,1.3-3.9,1.6c-0.8-0.4-2,0.1-3-0.6c-0.1,0-0.1,0.1-0.1,0.2c-1.4-0.3-2.2-1.3-4-1.2c-0.1-0.2-0.6,0-0.3-0.4
			c-0.2,0.1,0,0.2-0.2,0.2c-0.3-0.2-0.7-0.1-0.8-0.5h-0.9c-1.5-0.7-3.6-1-5-2.1c-0.3-0.1-0.3,0.2-0.6,0.1c-0.7-0.9-2.8-0.8-3-2.1
			c-0.5-0.2-0.4,0.2-0.7,0.2c0.2-0.3-0.1-0.2-0.1-0.5c-0.6,0.2-0.6-0.4-1.2-0.4c-0.3-0.1,0.1,0.5-0.4,0.3c-0.2-0.8-0.8-0.8-1.2-1.6
			c-0.2,0.1-0.4,0-0.3,0.4c-0.3-0.8,0.3-1.9-1-2.1c0.1-0.6-0.1-0.8-0.8-0.8c0.4-0.5-0.7-1.2,0-1.7c-0.4-0.4-0.4-0.5-0.4-1.1
			c-0.2-0.2-0.5-0.2-0.7-0.4c-0.4-3.3-0.9-6-0.1-9c-0.4-0.7,0-2.3,0.4-2.8c0.6-3.9,1.9-5.4,3.9-8.1c0.5,0.2,0.4-0.2,0.7-0.2
			c0.6-1.3,2-1.7,2.6-2.9c1.3-0.2,1.5-1.1,2.7-1.4c0.1-0.1,0.1-0.2,0.1-0.4c1.2-0.2,1.5-0.4,2-1c1.4-0.4,2.7-0.7,4.1-1.1
			c2.7-0.2,5,0,7,0.4c3.4,0.7,5.6,2.4,8.4,3.7c0,1.9,2.3,1.7,2.3,3.6c-0.3,0-0.5,0.2-0.7,0.4c0.6,0.2,0.7,0.7,1.2,0.8
			c-0.5,0.4-0.2,0.8,0,1.3c-1.1-0.3-2.5,0.4-3.5-0.1c-1.5-0.7-4.1-1.1-5.7-1.7c-0.6-0.2-1.8-0.4-2.6,0.5c-2.7,0.3-3.2,2-5.4,2.7
			c-0.2,0.8-0.8,1-1.3,1.4c0.1,1-0.8,1.2-1.1,2c-0.2,0.4,0.4,0.1,0.2,0.5c-1.5,1.6,0.3,1.8-0.8,3.4c0.6,1.6-0.1,3.1,0.3,4.7
			c-0.1,0.2-0.4,0.4-0.4,0.6c1.1,1.1-0.1,2.6,1.1,3.3c-0.1,0.9-0.4,1.7,0.5,2.1c-0.2,0.9,0.1,1.7,0.7,2c0.2,0.4-0.4,0.1-0.2,0.4
			c1.6,0.4,3.3-0.2,4.9-0.7c0.2,0,0.1-0.2,0.1-0.3c0.3-0.2,0.9-0.4,1.2-0.7c1.5-1.4,4.6-3.6,4-6c-0.2-0.7-0.5-1.6-0.8-2.3
			c-1.6-0.3-2.7,0.7-4.5,0c-0.1,0.4-0.6,0.5-1.3,0.4c-0.4-1.6-2.7-1.7-3.8-2.7c0.2-0.2,0.4-0.1,0.5-0.3c-0.2-0.2-0.1-0.4-0.6-0.4
			c0.2-0.2,0.7-0.1,1-0.1c0.2-0.4,0.6-0.1,0.9-0.3c0.6-0.2,1.1-0.7,1.8-0.9c2.5-1,5.7-0.5,8.5,0c0.4,0.8,2,0.5,2.4,1.3
			c1.6,0.2,2.1,1.4,3.3,2v0.5c1.5,1,0.8,3,1.5,4.7c-0.3-0.1,0.2,0.5,0,1c-0.2,0-0.3,0-0.3,0.1c-0.2,0.4,0.1,0.4,0.3,0.5
			c-0.6,0.5,0.1,1.6-0.6,1.9c0.6,1.6-1.4,2.8-1.8,4.3c-0.3,0-0.4,0.2-0.7,0.1c0.3,1.1-1.9,1.3-0.9,2c-0.2,0.2-0.4,0.1-0.2,0.5
			c-0.6-0.2-1.4,0.8-1.2,1.3c0.4,0.1,0.4-0.3,0.6-0.4C453.9,302.6,453,302.9,453,303.4z"/>
		<path class="st13" d="M493.5,265.5c0,0.9,1.4,1,1.6,1.8c0.1,0.4-0.4,0.3-0.3,0.6c0.3,0.4,0.7,1.3-0.1,1.3
			c-0.1,0.4,0.6,0.4,0.3,0.9c-2-0.5-5-1-7.2-0.2c-1-0.2-1.3,0.3-2.1,0.6c-2.5,0.3-4.6,0.2-6.2,1.1c0.8,2.4,0.5,3.8,1.2,6.3
			c-0.5,0.5,0.4,1.2,0,1.9c0.5,0.1,0.2,0.6,0.8,0.5c-0.3,0.2-0.6,0.8-0.1,1c-0.2,0.2-0.2,0.6-0.6,0.7c0.3,1.1,0.9,2.9,0.4,3.5
			c0.5,0.7,0,2,0.8,3.1c0.1,0.3-0.2,0.4-0.3,0.5c0.7,1.4,0.6,4.5,0.3,6.1c0.6,0.4,0.2,1.9,0.3,3.2c0,1,0.2,1.9-0.3,2.4
			c0.3,0.7-0.1,1-0.1,1.9c-0.6-0.2-0.4,0.4-0.7,0.5c-0.5-0.1-0.9-0.2-1.5-0.1c0,0.5-0.6,0.4-0.7,0.8c-0.8,0.1-1.1-0.2-1.4-0.5
			c-0.2-0.4,0.3-0.2,0.3-0.5c-0.4-0.5-1.6,0.9-1.8,0.3c-0.5-0.2,0,0.4-0.3,0.4c-0.4-0.1-0.7-0.2-0.9-0.4c-0.8,0.3-2.6,0.1-2.7-0.8
			c-0.6,0.2-0.6-0.3-1-0.3c-0.9-1.6-0.4-5.5-0.4-7c0.6-3.2,0.4-6.5,0-9.5c-0.3-2.4,0.3-6.2-0.3-8.8c-0.1-0.4-0.5-0.8,0-1.2
			c-0.3-0.7-0.1-1.8-0.2-2.8c-0.2-0.2-0.4-0.1-0.4-0.4c-0.2,0.3-0.4,0.4-0.6,0.4c-0.5,0-0.7-0.6-1-0.1c-0.4,0.1-0.3-0.3-0.6-0.3
			c-1.9,0.4-3.4-0.2-5-0.4c-0.2-0.3-0.3-0.4-0.4-0.8c-0.3-0.1-0.6-0.2-1-0.2c0.1-0.2-0.2-0.2-0.1-0.5c-0.4,0.2-0.4-0.1-0.7-0.1
			c0-0.4-0.8-0.8-0.4-1.3c-0.3-0.7-1.3-0.8-1.3-1.7c-0.3-0.2-0.3,0.1-0.7-0.1c0.4-0.9-0.4-1.3,0-2.3c0.4,0.1,0.2,0.5,0.6,0.1
			c0.2-0.5-0.8,0.1-0.6-0.4c0.6-0.3,1.4-0.5,2.3-0.5c0.6,0.3,1.3,0.7,2.4,0.5c0.6,0.5,1.8,0.4,2.4,0.9h2.1c0.2,0.1,0.1-0.2,0.4-0.2
			c5.8-0.7,10.9-1.8,16.6-2.5c1.1-0.5,2.4-1,3.7-0.6c0.5,0.2,0.8,0.9,1.8,0.7c0.2,0.4,0.8,0.5,1.4,0.6c0.6,1,2,1.4,2.8,2.3
			C493.6,265.8,493.7,265.5,493.5,265.5z"/>
	</g>
	<g>
		<path class="st14" d="M287.1,344.2c6.7-2.4,12.3-7.8,15-14.4c0.4,5.9-2.6,11.8-7.5,15c5.5-1.7,10.2-5.7,12.7-10.9
			c-2.9,6.6-5.4,13.3-7.6,20.1c1.3-3.3,2.6-6.7,3.9-10c4.9,0.8,9.7-4.4,8.5-9.2c-1,0-2,0-2.9,0c2.2-1.2,5.2,1.4,4.5,3.8
			c3,1.3,4.6-5.1,7.8-4.7c-1.7,0.8-3.1,2-4.3,3.4c-0.9,1.2-1.7,2.6-1.5,4.1s1.8,2.8,3.2,2.3c0.9-0.3,1.5-1.3,2-2.2
			c1.1-2,2.1-4.1,3-6.3c-0.3,1.9-0.5,3.8-0.8,5.7c-0.1,0.7-0.1,1.6,0.5,2c0.7,0.4,1.4-0.2,2-0.7c2.3-2.2,4.3-4.6,6.1-7.3
			c0.7-1,1.1-2.8-0.1-3.1c-0.5-0.1-1,0.1-1.4,0.4c-1.5,1.1-2.3,3.2-1.9,5c3.9-1,7.7-2.6,11.2-4.7c-3,2.6-5.2,6.1-6.3,10
			c5.6,0.1,11.2-2.6,14.5-7.2"/>
		<path class="st14" d="M358.1,339.2c3.5-0.2,6.9-1.7,9.5-4c0.6-0.6,1.3-1.2,1.4-2.1c0.1-0.8-0.5-1.8-1.3-1.8
			c-0.4,0-0.8,0.3-1.1,0.6c-1.6,1.4-2.8,3.3-3.4,5.4c-0.5,1.6-0.4,3.8,1.2,4.6c0.9,0.4,2,0.2,2.9-0.2c4.1-1.8,5.9-6.4,7.4-10.5
			c-1.3,2.9-2.7,5.9-4,8.8c2-3.9,5.1-8.4,9.5-8.1c-0.7,3-1.4,6-2.1,8.9c4.5-1,8.3-4.7,9.4-9.1c-1.7,1.1-3.4,2.4-4.2,4.2
			s-0.4,4.3,1.3,5.4c2.8,1.7,6-1.3,7.9-3.9c0.8-1.2,1.7-2.4,1.6-3.9c-0.1-1.4-1.7-2.8-2.9-2.1c-1.5,0.9-0.4,3.4,1.3,3.7
			c1.7,0.3,3.2-0.9,4.6-2c1.3-1.1,2.8-2.3,4.5-2.2c-2.7,2.9-4.6,6.7-5.2,10.7c6.5,0.6,9.8-10.2,16.3-9.5c-2.2,0.5-4.6,1.2-6.1,2.8
			c-1.6,1.7-1.8,4.8,0.2,6c3.1-1.5,5.6-4.2,6.8-7.3c-2.7,4.3-2.9,9.7-4.7,14.5s-6.8,9.2-11.6,7.4c-0.4-0.2-0.9-0.4-1.2-0.8
			c-0.8-1.2,0.5-2.6,1.6-3.4c4.7-3,10.2-4.3,15-7s9.2-7.5,8.7-13c-0.7,2.8-1.3,5.7-2,8.5c-0.1,0.6-0.3,1.3,0,1.9
			c0.5,0.9,1.9,0.8,2.9,0.6c3.7-1,7.2-3.2,9.7-6.1"/>
		<path class="st14" d="M420.9,324.4c-0.6,0.3-1.2,0.7-1.8,1c0.4,0.7,1.1,1.2,1.9,1.1s1.4-1,1-1.6c-0.4-0.7-1.7-0.4-1.6,0.4"/>
		<path class="st14" d="M439.3,336.8c0.9-2,1.8-4,3.2-5.6c1.5-1.6,3.6-2.8,5.7-2.6c-1.6,4.7-3.2,9.3-4.9,13.9
			c1.9-3.8,4.4-7.3,7.3-10.4c0.8-0.8,2-1.7,3-1.1s0.8,2.1,0.5,3.2c-0.5,1.8-1,3.6-1.5,5.4c2-3.5,5.1-6.3,8.8-8c1.9,3-2,6.6-1.6,10.1
			c0.1,0.5,0.3,1.1,0.8,1.3c0.6,0.3,1.2,0,1.8-0.3c4.2-2.4,7.5-6.5,9.1-11.1c-2.3,1.4-4,3.8-4.5,6.5c-0.1,0.7-0.2,1.5,0.1,2.2
			c0.9,2.1,4.3,1.8,5.9,0.1c1.6-1.7,2.2-4.1,3.5-6s4.2-3.3,5.9-1.8c-3.8-0.5-7.7,2.3-8.4,6c-0.3,1.4,0,3,1.1,3.8
			c1,0.7,2.5,0.4,3.5-0.4c1-0.7,1.6-1.9,2.2-3c2.8-5.1,5.4-10.5,7.6-15.9c-2.5,6.2-4.5,12.6-6.1,19.1c-0.1,0.5-0.2,1,0.1,1.3
			c0.5,0.7,1.6,0.3,2.4-0.1c2.8-1.7,5.5-3.6,8.1-5.6"/>
		<path class="st14" d="M501.9,342.9c8.2-5.1,14.4-13.6,16.7-23c2.3,4,2.7,9,0.9,13.2c-1.7,4.2-5.5,7.6-9.9,8.8
			c3.1-0.5,6.2-1.1,9.3-1.6c0.8-0.1,1.5-0.3,2.1-0.8s0.9-1.2,1.2-1.9c1.1-2.9,1.8-5.9,2.2-8.9c-0.5,3.5-1.2,7-2.2,10.4
			c0.7-2.2,1.4-4.5,2.8-6.3c1.4-1.8,3.7-3.2,5.9-2.9c-0.5,3.2-1,6.4-1.5,9.6c3.9-1.3,6.8-5.1,7-9.2c-0.7,2.4-1.4,4.8-2,7.3
			c-0.2,0.8-0.3,1.9,0.4,2.3c0.8,0.5,1.9-0.3,2.4-1.1c4.2-5.9,5.2-13.6,9.5-19.3c1.2-1.5,3.7-2.8,4.7-1.2c0.6,0.9,0,2.1-0.5,3.1
			c-2.1,3.6-4.6,7-7.5,10.1c3-2.4,5.5-5.5,7.2-9c0.2-0.5,0.5-1.1,0.4-1.6c-0.2-1.2-1.9-1.7-3-1.2s-1.8,1.7-2.4,2.8
			c-5.4,10-10,20.4-13.9,31c4.2-1.9,7.8-5.2,10.1-9.2c0.8-1.4,1.5-3,1.2-4.6c-0.2-1.6-1.7-3.1-3.3-2.9c5.7-0.4,11.2-2.9,15.2-6.8"/>
		<path class="st14" d="M536.2,320.8c-0.4,0-0.7,0.1-1,0.2c-1.3,0.6-0.5,3,0.9,2.9s2-2.3,0.9-3.2c-1.1-0.9-3,0.1-3.2,1.5"/>
	</g>
</g>
<g id="icons">
	<g>
		<g>
			<g>
				<defs>
					
						<rect id="SVGID_1_" x="693.3" y="181.3" transform="matrix(0.2173 -0.9761 0.9761 0.2173 354.4167 921.4432)" width="116.9" height="116.9"/>
				</defs>
				<clipPath id="SVGID_2_">
					<use xlink:href="#SVGID_1_"  style="overflow:visible;"/>
				</clipPath>
				<g class="st15">
					<g>
						<defs>
							
								<rect id="SVGID_3_" x="693.3" y="181.3" transform="matrix(0.2173 -0.9761 0.9761 0.2173 354.4167 921.4431)" width="116.9" height="116.9"/>
						</defs>
						<clipPath id="SVGID_4_">
							<use xlink:href="#SVGID_3_"  style="overflow:visible;"/>
						</clipPath>
						<path class="st16" d="M789.6,247.3c-4.6,20.8-25.2,33.9-46,29.2s-33.9-25.2-29.2-46s25.2-33.9,46-29.2
							S794.2,226.5,789.6,247.3"/>
					</g>
					<g>
						<defs>
							
								<rect id="SVGID_5_" x="693.3" y="181.3" transform="matrix(0.2173 -0.9761 0.9761 0.2173 354.4167 921.4431)" width="116.9" height="116.9"/>
						</defs>
						<clipPath id="SVGID_6_">
							<use xlink:href="#SVGID_5_"  style="overflow:visible;"/>
						</clipPath>
						<path class="st17" d="M789.6,247.3c-4.6,20.8-25.2,33.9-46,29.2s-33.9-25.2-29.2-46s25.2-33.9,46-29.2
							S794.2,226.5,789.6,247.3z"/>
					</g>
					<g>
						<defs>
							
								<rect id="SVGID_7_" x="693.3" y="181.3" transform="matrix(0.2173 -0.9761 0.9761 0.2173 354.4167 921.4431)" width="116.9" height="116.9"/>
						</defs>
						<clipPath id="SVGID_8_">
							<use xlink:href="#SVGID_7_"  style="overflow:visible;"/>
						</clipPath>
						<path class="st18" d="M748.2,257.1c-6.6-1.5-12.2-7.8-10.2-16.9c0.3-1.3,1.6-2.1,2.9-1.8c1.3,0.3,2.1,1.6,1.8,2.9
							c-1.4,6.3,2.4,10.2,6.5,11.2c1.3,0.3,2.1,1.6,1.8,2.9C750.8,256.6,749.5,257.4,748.2,257.1 M758.6,215.9c-0.7-1-2-1.3-3.1-0.7
							c-5.4,3.3-21.1,13.6-23.6,24.7c-3,13.4,5.6,20.8,14.7,22.8c9.1,2,20-1,23-14.5C772,237.2,762.2,221.2,758.6,215.9"/>
					</g>
				</g>
			</g>
		</g>
	</g>
	<g>
		<g>
			<g>
				<defs>
					
						<rect id="SVGID_9_" x="104.4" y="51.1" transform="matrix(0.9361 -0.3518 0.3518 0.9361 -26.8863 62.5087)" width="108.3" height="108.3"/>
				</defs>
				<clipPath id="SVGID_10_">
					<use xlink:href="#SVGID_9_"  style="overflow:visible;"/>
				</clipPath>
				<g class="st19">
					<g>
						<defs>
							
								<rect id="SVGID_11_" x="104.4" y="51.1" transform="matrix(0.9361 -0.3518 0.3518 0.9361 -26.8863 62.5087)" width="108.3" height="108.3"/>
						</defs>
						<clipPath id="SVGID_12_">
							<use xlink:href="#SVGID_11_"  style="overflow:visible;"/>
						</clipPath>
						<path class="st20" d="M125.3,116.2c-6.9-18.5,2.4-39.1,20.9-46s39.1,2.4,46,20.9c6.9,18.5-2.4,39.1-20.9,46
							C152.8,144.1,132.2,134.7,125.3,116.2"/>
					</g>
					<g>
						<defs>
							
								<rect id="SVGID_13_" x="104.4" y="51.1" transform="matrix(0.9361 -0.3518 0.3518 0.9361 -26.8863 62.5087)" width="108.3" height="108.3"/>
						</defs>
						<clipPath id="SVGID_14_">
							<use xlink:href="#SVGID_13_"  style="overflow:visible;"/>
						</clipPath>
						<path class="st21" d="M125.3,116.2c-6.9-18.5,2.4-39.1,20.9-46s39.1,2.4,46,20.9c6.9,18.5-2.4,39.1-20.9,46
							C152.8,144.1,132.2,134.7,125.3,116.2z"/>
					</g>
					<g>
						<defs>
							
								<rect id="SVGID_15_" x="104.4" y="51.1" transform="matrix(0.9361 -0.3518 0.3518 0.9361 -26.8863 62.5087)" width="108.3" height="108.3"/>
						</defs>
						<clipPath id="SVGID_16_">
							<use xlink:href="#SVGID_15_"  style="overflow:visible;"/>
						</clipPath>
						<polygon class="st22" points="150.5,81.9 157.3,99.9 170,95.1 167.1,126 160.3,108 147.7,112.8 						"/>
					</g>
					<g>
						<defs>
							
								<rect id="SVGID_17_" x="104.4" y="51.1" transform="matrix(0.9361 -0.3518 0.3518 0.9361 -26.8863 62.5087)" width="108.3" height="108.3"/>
						</defs>
						<clipPath id="SVGID_18_">
							<use xlink:href="#SVGID_17_"  style="overflow:visible;"/>
						</clipPath>
						<path class="st23" d="M147.7,83l2.2,5.7l3.6,9.5l1,2.7c0.6,1.6,2.4,2.4,3.9,1.8l7-2.6l5.7-2.1c-1.4-1.1-2.7-2.2-4.1-3.4
							c-0.1,1.4-0.3,2.9-0.4,4.3c-0.3,3.2-0.6,6.5-0.9,9.7c-0.3,3.4-0.6,6.9-1,10.3c-0.2,2.1-0.4,4.2-0.6,6.2c0,0.1,0,0.2,0,0.4
							c2-0.2,3.9-0.4,5.9-0.6l-2.2-5.7l-3.6-9.5l-1-2.7c-0.6-1.6-2.4-2.4-3.9-1.8l-7,2.6l-5.7,2.1c1.4,1.1,2.7,2.2,4.1,3.4
							c0.1-1.4,0.3-2.8,0.4-4.3c0.3-3.2,0.6-6.4,0.9-9.7c0.3-3.4,0.6-6.9,1-10.3c0.2-2.1,0.4-4.2,0.6-6.3c0-0.1,0-0.3,0-0.4
							c0.1-0.8,0-1.6-0.5-2.3c-0.5-0.6-1.2-1.1-2-1.2s-1.6,0.1-2.3,0.5c-0.6,0.4-1.1,1.2-1.2,2c-0.1,1.4-0.3,2.8-0.4,4.3
							c-0.3,3.2-0.6,6.4-0.9,9.7c-0.3,3.4-0.6,6.9-1,10.3c-0.2,2.1-0.4,4.2-0.6,6.3c0,0.1,0,0.3,0,0.4c-0.1,0.5,0,1.1,0.2,1.6
							s0.5,0.9,0.9,1.3c0.8,0.7,2,0.9,3,0.5l7-2.6l5.7-2.1c-1.3-0.6-2.6-1.2-3.9-1.8l2.2,5.7l3.6,9.5l1,2.7c0.5,1.3,1.8,2.1,3.1,2
							c0.6-0.1,1.1-0.2,1.5-0.6c0.6-0.4,1.1-1.2,1.2-2c0.1-1.4,0.3-2.9,0.4-4.3c0.3-3.2,0.6-6.5,0.9-9.7c0.3-3.4,0.6-6.9,1-10.3
							c0.2-2.1,0.4-4.2,0.6-6.2c0-0.1,0-0.2,0-0.4c0.1-0.5,0-1.1-0.2-1.6s-0.5-0.9-0.9-1.3c-0.8-0.7-2-0.9-3-0.5l-7,2.6l-5.7,2.1
							c1.3,0.6,2.6,1.2,3.9,1.8l-2.2-5.8l-3.6-9.5l-1-2.7c-0.6-1.6-2.4-2.4-3.9-1.8C147.9,79.6,147.1,81.4,147.7,83"/>
					</g>
				</g>
			</g>
		</g>
	</g>
	<g>
		<g>
			<g>
				<defs>
					
						<rect id="SVGID_19_" x="588.9" y="443.6" transform="matrix(0.1163 -0.9932 0.9932 0.1163 71.5719 1093.6393)" width="122.9" height="126"/>
				</defs>
				<clipPath id="SVGID_20_">
					<use xlink:href="#SVGID_19_"  style="overflow:visible;"/>
				</clipPath>
				<g class="st24">
					<g>
						<defs>
							
								<rect id="SVGID_21_" x="588.9" y="443.6" transform="matrix(0.1163 -0.9932 0.9932 0.1163 71.5718 1093.6393)" width="122.9" height="126"/>
						</defs>
						<clipPath id="SVGID_22_">
							<use xlink:href="#SVGID_21_"  style="overflow:visible;"/>
						</clipPath>
						<path class="st25" d="M691.8,510.6c-2.6,22.2-23.2,38.1-46,35.4s-39.2-22.9-36.6-45.1c2.6-22.2,23.2-38.1,46-35.4
							S694.4,488.3,691.8,510.6"/>
					</g>
					<g>
						<defs>
							
								<rect id="SVGID_23_" x="588.9" y="443.6" transform="matrix(0.1163 -0.9932 0.9932 0.1163 71.5718 1093.6393)" width="122.9" height="126"/>
						</defs>
						<clipPath id="SVGID_24_">
							<use xlink:href="#SVGID_23_"  style="overflow:visible;"/>
						</clipPath>
						<path class="st26" d="M691.8,510.6c-2.6,22.2-23.2,38.1-46,35.4s-39.2-22.9-36.6-45.1c2.6-22.2,23.2-38.1,46-35.4
							S694.4,488.3,691.8,510.6z"/>
					</g>
					<g>
						<defs>
							
								<rect id="SVGID_25_" x="588.9" y="443.6" transform="matrix(0.1163 -0.9932 0.9932 0.1163 71.5718 1093.6393)" width="122.9" height="126"/>
						</defs>
						<clipPath id="SVGID_26_">
							<use xlink:href="#SVGID_25_"  style="overflow:visible;"/>
						</clipPath>
						<path class="st27" d="M643.7,531.3c-0.2,1.6,1,3.1,2.7,3.3s3.2-1,3.4-2.6L643.7,531.3z M638.9,526.2c-0.2,1.7,1.1,3.1,2.7,3.3
							l10.6,1.2c1.6,0.2,3.2-0.9,3.4-2.6L638.9,526.2z M639.2,523.3l16.7,2l0.3-3l-16.7-2L639.2,523.3z M649.4,482.3
							c0,0.7-0.5,1.4-1.2,1.5c-3.9,0.9-7,3.8-8.2,7.6c-0.2,0.7-1.1,1.2-1.9,1c-0.8-0.2-1.2-1.1-1-1.9c1.5-4.8,5.4-8.4,10.3-9.6
							C648.4,480.7,649.3,481.5,649.4,482.3 M653.1,476.9c-9.2-1.1-19,4.9-20.2,14.8c-1.5,12.8,8,16.7,7,25.7l16.7,2
							c1.1-9,11.2-10.5,12.7-23.4C670.5,486,662.4,478,653.1,476.9"/>
					</g>
				</g>
			</g>
		</g>
	</g>
	<g>
		<g>
			<g>
				<defs>
					
						<rect id="SVGID_27_" x="62.6" y="456.5" transform="matrix(0.9758 -0.2188 0.2188 0.9758 -109.7151 38.9421)" width="116.7" height="116.7"/>
				</defs>
				<clipPath id="SVGID_28_">
					<use xlink:href="#SVGID_27_"  style="overflow:visible;"/>
				</clipPath>
				<g class="st28">
					<g>
						<defs>
							
								<rect id="SVGID_29_" x="62.6" y="456.5" transform="matrix(0.9758 -0.2188 0.2188 0.9758 -109.7151 38.9421)" width="116.7" height="116.7"/>
						</defs>
						<clipPath id="SVGID_30_">
							<use xlink:href="#SVGID_29_"  style="overflow:visible;"/>
						</clipPath>
						<path class="st29" d="M158.3,505.6c4.7,20.8-8.4,41.4-29.2,46c-20.8,4.7-41.4-8.4-46-29.2c-4.7-20.8,8.4-41.4,29.2-46
							S153.7,484.9,158.3,505.6"/>
					</g>
					<g>
						<defs>
							
								<rect id="SVGID_31_" x="62.6" y="456.5" transform="matrix(0.9758 -0.2188 0.2188 0.9758 -109.7151 38.9421)" width="116.7" height="116.7"/>
						</defs>
						<clipPath id="SVGID_32_">
							<use xlink:href="#SVGID_31_"  style="overflow:visible;"/>
						</clipPath>
						<path class="st30" d="M158.3,505.6c4.7,20.8-8.4,41.4-29.2,46c-20.8,4.7-41.4-8.4-46-29.2c-4.7-20.8,8.4-41.4,29.2-46
							S153.7,484.9,158.3,505.6z"/>
					</g>
					<g>
						<defs>
							
								<rect id="SVGID_33_" x="62.6" y="456.5" transform="matrix(0.9758 -0.2188 0.2188 0.9758 -109.7151 38.9421)" width="116.7" height="116.7"/>
						</defs>
						<clipPath id="SVGID_34_">
							<use xlink:href="#SVGID_33_"  style="overflow:visible;"/>
						</clipPath>
						<path class="st31" d="M135.5,517.3c-2.1,8.1-10.4,12.9-18.5,10.7c-8.1-2.1-12.9-10.4-10.7-18.5c2.1-8.1,10.4-12.9,18.5-10.7
							C132.8,500.9,137.6,509.2,135.5,517.3 M115.8,532.5c-10.5-2.8-16.8-13.6-14-24.2s13.6-16.8,24.2-14s16.8,13.6,14,24.2
							C137.2,529,126.3,535.3,115.8,532.5 M148.1,520.6c0.4-1.3-4.2-3.5-4-4.8c0.1-1.4,5-2.6,5-3.9c-0.1-1.4-5.1-2-5.4-3.4
							c-0.3-1.3,4-4,3.5-5.3s-5.5-0.4-6.1-1.5c-0.7-1.2,2.6-5,1.7-6.1c-0.8-1-5.3,1.3-6.3,0.4s0.9-5.6-0.3-6.3
							c-1.1-0.7-4.6,2.9-5.9,2.4c-1.2-0.5-0.9-5.6-2.2-5.9c-1.3-0.4-3.5,4.2-4.8,4c-1.4-0.1-2.6-5-3.9-5c-1.4,0.1-2,5.1-3.4,5.4
							c-1.3,0.3-4-4-5.3-3.5s-0.4,5.5-1.5,6.1c-1.2,0.7-5-2.6-6.1-1.7c-1,0.8,1.3,5.3,0.4,6.3s-5.6-0.9-6.3,0.3
							c-0.7,1.1,2.9,4.6,2.4,5.9c-0.5,1.2-5.6,0.9-5.9,2.2c-0.4,1.3,4.2,3.5,4,4.8c-0.1,1.4-5,2.6-5,3.9c0.1,1.4,5.1,2,5.4,3.4
							c0.3,1.3-4,4-3.5,5.3s5.5,0.4,6.1,1.5c0.7,1.2-2.6,5-1.7,6.1c0.8,1,5.3-1.3,6.3-0.4c1,0.9-0.9,5.6,0.3,6.3
							c1.1,0.7,4.6-2.9,5.9-2.4c1.2,0.5,0.9,5.6,2.2,5.9c1.3,0.4,3.5-4.2,4.8-4c1.4,0.1,2.6,5,3.9,5c1.4-0.1,2-5.1,3.4-5.4
							c1.3-0.3,4,4,5.3,3.5c1.3-0.5,0.4-5.5,1.5-6.1c1.2-0.7,5,2.6,6.1,1.7c1-0.8-1.3-5.3-0.4-6.3c0.9-1,5.6,0.9,6.3-0.3
							c0.7-1.1-2.9-4.6-2.4-5.9C142.7,521.6,147.7,521.9,148.1,520.6"/>
					</g>
				</g>
			</g>
		</g>
	</g>
</g>
<g id="play_button">
	<g>
		<g>
			<g>
				<defs>
					<rect id="SVGID_35_" x="303.2" y="333.1" width="257.1" height="228.2"/>
				</defs>
				<clipPath id="SVGID_36_">
					<use xlink:href="#SVGID_35_"  style="display:none;overflow:visible;"/>
				</clipPath>
				<g class="st32">
					<g>
						<defs>
							<rect id="SVGID_37_" x="303.2" y="333.1" width="257.1" height="228.2"/>
						</defs>
						<clipPath id="SVGID_38_">
							<use xlink:href="#SVGID_37_"  style="overflow:visible;"/>
						</clipPath>
						<path class="st33" d="M488.3,433.4c0,36.4-29.5,66-66,66c-36.4,0-66-29.5-66-66c0-36.4,29.5-66,66-66S488.3,397,488.3,433.4"
							/>
					</g>
					<g>
						<defs>
							
								<rect id="SVGID_39_" x="303.3" y="333.1" transform="matrix(1 -3.703589e-03 3.703589e-03 1 -1.6532 1.6023)" width="257.1" height="228.2"/>
						</defs>
						<clipPath id="SVGID_40_">
							<use xlink:href="#SVGID_39_"  style="overflow:visible;"/>
						</clipPath>
						<ellipse class="st34" cx="422.3" cy="433.4" rx="66" ry="66"/>
					</g>
					<g>
						<defs>
							<rect id="SVGID_41_" x="303.2" y="333.1" width="257.1" height="228.2"/>
						</defs>
						<clipPath id="SVGID_42_">
							<use xlink:href="#SVGID_41_"  style="overflow:visible;"/>
						</clipPath>
						<path class="st35" d="M457.8,438.2l-46.2,28.2c-3.8,2.3-8.6-0.4-8.6-4.8v-56.4c0-4.4,4.8-7.1,8.6-4.8l46.2,28.2
							C461.5,430.8,461.5,436,457.8,438.2"/>
					</g>
					<g>
						<defs>
							<rect id="SVGID_43_" x="303.2" y="333.1" width="257.1" height="228.2"/>
						</defs>
						<clipPath id="SVGID_44_">
							<use xlink:href="#SVGID_43_"  style="overflow:visible;"/>
						</clipPath>
						<path class="st36" d="M457.8,438.2l-46.2,28.2c-3.8,2.3-8.6-0.4-8.6-4.8v-56.4c0-4.4,4.8-7.1,8.6-4.8l46.2,28.2
							C461.5,430.8,461.5,436,457.8,438.2z"/>
					</g>
					<g>
						<defs>
							<rect id="SVGID_45_" x="303.2" y="333.1" width="257.1" height="228.2"/>
						</defs>
						<clipPath id="SVGID_46_">
							<use xlink:href="#SVGID_45_"  style="overflow:visible;"/>
						</clipPath>
						<path class="st37" d="M433.2,440.9c-7.1,4.3-14.3,8.4-21.7,12.2c-2.9,1.5-0.3,5.8,2.5,4.3c7.4-3.8,14.6-7.9,21.7-12.2
							C438.4,443.6,435.9,439.3,433.2,440.9"/>
					</g>
				</g>
			</g>
		</g>
	</g>
</g>
</svg>
