<svg xmlns="http://www.w3.org/2000/svg" viewBox="0 0 141.73 141.73"><defs><style>.cls-1{fill:#92d2e0;}.cls-2{fill:none;stroke:#fff;stroke-miterlimit:10;stroke-width:3.39px;}.cls-3{fill:#0b1213;}</style></defs><g id="ikon"><path class="cls-1" d="M123.23,69.71A52.37,52.37,0,1,1,70.87,17.35a52.37,52.37,0,0,1,52.36,52.36"/><path class="cls-2" d="M123.23,69.71A52.37,52.37,0,1,1,70.87,17.35,52.37,52.37,0,0,1,123.23,69.71Z"/><path class="cls-3" d="M71.29,95c-9.17,0-18.48-6.72-18.48-19.46a3.29,3.29,0,0,1,6.58,0c0,8.82,6.16,12.88,11.9,12.88a3.29,3.29,0,0,1,0,6.58M73,37.32a3.13,3.13,0,0,0-4.27,0c-6.23,5.94-24,24.21-24,39.67,0,18.68,13.57,26,26.17,26S97,95.67,97,77C97,61.53,79.19,43.26,73,37.32"/></g></svg>