<?xml version="1.0" encoding="utf-8"?>
<!-- Generator: Adobe Illustrator 23.1.0, SVG Export Plug-In . SVG Version: 6.00 Build 0)  -->
<svg version="1.1" id="win_effect" class="shrink" xmlns="http://www.w3.org/2000/svg" xmlns:xlink="http://www.w3.org/1999/xlink" x="0px"
	 y="0px" viewBox="0 0 1362.3 1364.4" enable-background="new 0 0 1362.3 1364.4" xml:space="preserve">
<g id="effect" class="rotate">
	<linearGradient id="SVGID_1_" gradientUnits="userSpaceOnUse" x1="679.8724" y1="1348.3561" x2="679.8724" y2="737.2929">
		<stop  offset="7.689312e-07" style="stop-color:#FCF1C4;stop-opacity:0.2"/>
		<stop  offset="0.1639" style="stop-color:#F8E69C;stop-opacity:0.3311"/>
		<stop  offset="0.5367" style="stop-color:#F0D235"/>
	</linearGradient>
	<path fill="url(#SVGID_1_)" d="M679.9,737.3c-16.6,202.4-41.9,401.5-58.5,603.9c16.6,4.2,39,7.3,58.5,7.1c20.3-0.2,43.4-4,58.5-7.2
		C716,1139.9,702.2,938.6,679.9,737.3z"/>
	
		<linearGradient id="SVGID_2_" gradientUnits="userSpaceOnUse" x1="502.994" y1="2234.1096" x2="502.994" y2="1623.0465" gradientTransform="matrix(0.9441 -0.3297 0.3297 0.9441 -312.9097 -629.1205)">
		<stop  offset="7.689312e-07" style="stop-color:#FCF1C4;stop-opacity:0.2"/>
		<stop  offset="0.1639" style="stop-color:#F8E69C;stop-opacity:0.3311"/>
		<stop  offset="0.5367" style="stop-color:#F0D235"/>
	</linearGradient>
	<path fill="url(#SVGID_2_)" d="M697.1,737.3c51,196.6,92.9,392.8,143.9,589.4c17.1-1.5,39.2-5.9,57.6-12.6
		c19.1-6.9,39.7-18.1,52.8-26.1C864,1105.4,784.6,919.9,697.1,737.3z"/>
	
		<linearGradient id="SVGID_3_" gradientUnits="userSpaceOnUse" x1="-5314.6553" y1="202.1436" x2="-5314.6553" y2="-408.9196" gradientTransform="matrix(-0.9441 -0.3297 -0.3297 0.9441 -4487.3457 -629.1205)">
		<stop  offset="7.689312e-07" style="stop-color:#FCF1C4;stop-opacity:0.2"/>
		<stop  offset="0.1639" style="stop-color:#F8E69C;stop-opacity:0.3311"/>
		<stop  offset="0.5367" style="stop-color:#F0D235"/>
	</linearGradient>
	<path fill="url(#SVGID_3_)" d="M664.9,737.3c-51,196.6-92.9,392.8-143.9,589.4c-17.1-1.5-39.2-5.9-57.6-12.6
		c-19.1-6.9-39.7-18.1-52.8-26.1C498.1,1105.4,577.4,919.9,664.9,737.3z"/>
	
		<linearGradient id="SVGID_4_" gradientUnits="userSpaceOnUse" x1="-5361.0234" y1="1366.3732" x2="-5361.0234" y2="755.3099" gradientTransform="matrix(-1 0 0 -1 -4677.7021 1382.6307)">
		<stop  offset="7.689312e-07" style="stop-color:#FCF1C4;stop-opacity:0.2"/>
		<stop  offset="0.1639" style="stop-color:#F8E69C;stop-opacity:0.3311"/>
		<stop  offset="0.5367" style="stop-color:#F0D235"/>
	</linearGradient>
	<path fill="url(#SVGID_4_)" d="M683.3,627.3c16.6-202.4,41.9-401.5,58.5-603.9c-16.6-4.2-39-7.3-58.5-7.1
		c-20.3,0.2-43.4,4-58.5,7.2C647.2,224.8,661,426,683.3,627.3z"/>
	
		<linearGradient id="SVGID_5_" gradientUnits="userSpaceOnUse" x1="-5205.9829" y1="259.1848" x2="-5205.9829" y2="-351.8784" gradientTransform="matrix(-0.9441 0.3297 -0.3297 -0.9441 -4364.7925 2011.7513)">
		<stop  offset="7.689312e-07" style="stop-color:#FCF1C4;stop-opacity:0.2"/>
		<stop  offset="0.1639" style="stop-color:#F8E69C;stop-opacity:0.3311"/>
		<stop  offset="0.5367" style="stop-color:#F0D235"/>
	</linearGradient>
	<path fill="url(#SVGID_5_)" d="M666.1,627.3c-51-196.6-92.9-392.8-143.9-589.4c-17.1,1.5-39.2,5.9-57.6,12.6
		c-19.1,6.9-39.7,18.1-52.8,26.1C499.2,259.2,578.6,444.7,666.1,627.3z"/>
	
		<linearGradient id="SVGID_6_" gradientUnits="userSpaceOnUse" x1="382.4394" y1="2211.0872" x2="382.4394" y2="1600.0239" gradientTransform="matrix(0.9441 0.3297 0.3297 -0.9441 -190.3565 2011.7513)">
		<stop  offset="7.689312e-07" style="stop-color:#FCF1C4;stop-opacity:0.2"/>
		<stop  offset="0.1639" style="stop-color:#F8E69C;stop-opacity:0.3311"/>
		<stop  offset="0.5367" style="stop-color:#F0D235"/>
	</linearGradient>
	<path fill="url(#SVGID_6_)" d="M698.3,627.3c51-196.6,92.9-392.8,143.9-589.4c17.1,1.5,39.2,5.9,57.6,12.6
		c19.1,6.9,39.7,18.1,52.8,26.1C865.1,259.2,785.8,444.7,698.3,627.3z"/>
	
		<linearGradient id="SVGID_7_" gradientUnits="userSpaceOnUse" x1="-1791.5698" y1="-1577.7343" x2="-1791.5698" y2="-2188.7974" gradientTransform="matrix(-1.346898e-10 1 -1 -1.346898e-10 -1563.9688 2472.7273)">
		<stop  offset="7.689312e-07" style="stop-color:#FCF1C4;stop-opacity:0.2"/>
		<stop  offset="0.1639" style="stop-color:#F8E69C;stop-opacity:0.3311"/>
		<stop  offset="0.5367" style="stop-color:#F0D235"/>
	</linearGradient>
	<path fill="url(#SVGID_7_)" d="M624.8,681.2c-202.4-16.6-401.5-41.9-603.9-58.5c-4.2,16.6-7.3,39-7.1,58.5
		c0.2,20.3,4,43.4,7.2,58.5C222.3,717.3,423.5,703.5,624.8,681.2z"/>
	
		<linearGradient id="SVGID_8_" gradientUnits="userSpaceOnUse" x1="-865.37" y1="-1343.2653" x2="-865.37" y2="-1954.3285" gradientTransform="matrix(0.3297 0.9441 -0.9441 0.3297 -934.8482 2159.8174)">
		<stop  offset="7.689312e-07" style="stop-color:#FCF1C4;stop-opacity:0.2"/>
		<stop  offset="0.1639" style="stop-color:#F8E69C;stop-opacity:0.3311"/>
		<stop  offset="0.5367" style="stop-color:#F0D235"/>
	</linearGradient>
	<path fill="url(#SVGID_8_)" d="M624.8,698.4c-196.6,51-392.8,92.9-589.4,143.9c1.5,17.1,5.9,39.2,12.6,57.6
		C54.8,919,66,939.6,74,952.8C256.7,865.3,442.2,785.9,624.8,698.4z"/>
	
		<linearGradient id="SVGID_9_" gradientUnits="userSpaceOnUse" x1="-2016.5844" y1="-1745.3569" x2="-2016.5844" y2="-2356.4202" gradientTransform="matrix(0.3297 -0.9441 -0.9441 -0.3297 -934.8482 -2014.6184)">
		<stop  offset="7.689312e-07" style="stop-color:#FCF1C4;stop-opacity:0.2"/>
		<stop  offset="0.1639" style="stop-color:#F8E69C;stop-opacity:0.3311"/>
		<stop  offset="0.5367" style="stop-color:#F0D235"/>
	</linearGradient>
	<path fill="url(#SVGID_9_)" d="M624.8,666.2c-196.6-51-392.8-92.9-589.4-143.9c1.5-17.1,5.9-39.2,12.6-57.6
		C54.8,445.6,66,425,74,411.9C256.7,499.3,442.2,578.7,624.8,666.2z"/>
	
		<linearGradient id="SVGID_10_" gradientUnits="userSpaceOnUse" x1="-1791.5698" y1="4460.627" x2="-1791.5698" y2="3849.5637" gradientTransform="matrix(8.979319e-11 1 1 -8.979319e-11 -3113.5557 2472.7273)">
		<stop  offset="7.689312e-07" style="stop-color:#FCF1C4;stop-opacity:0.2"/>
		<stop  offset="0.1639" style="stop-color:#F8E69C;stop-opacity:0.3311"/>
		<stop  offset="0.5367" style="stop-color:#F0D235"/>
	</linearGradient>
	<path fill="url(#SVGID_10_)" d="M736,681.2c202.4-16.6,401.5-41.9,603.9-58.5c4.2,16.6,7.3,39,7.1,58.5c-0.2,20.3-4,43.4-7.2,58.5
		C1138.6,717.3,937.3,703.5,736,681.2z"/>
	
		<linearGradient id="SVGID_11_" gradientUnits="userSpaceOnUse" x1="-2856.4685" y1="4357.3779" x2="-2856.4685" y2="3746.3145" gradientTransform="matrix(-0.3297 0.9441 0.9441 0.3297 -3742.6763 2159.8174)">
		<stop  offset="7.689312e-07" style="stop-color:#FCF1C4;stop-opacity:0.2"/>
		<stop  offset="0.1639" style="stop-color:#F8E69C;stop-opacity:0.3311"/>
		<stop  offset="0.5367" style="stop-color:#F0D235"/>
	</linearGradient>
	<path fill="url(#SVGID_11_)" d="M736,698.4c196.6,51,392.8,92.9,589.4,143.9c-1.5,17.1-5.9,39.2-12.6,57.6
		c-6.9,19.1-18.1,39.7-26.1,52.8C1104.1,865.3,918.7,785.9,736,698.4z"/>
	
		<linearGradient id="SVGID_12_" gradientUnits="userSpaceOnUse" x1="-4007.6829" y1="3955.2861" x2="-4007.6829" y2="3344.2229" gradientTransform="matrix(-0.3297 -0.9441 0.9441 -0.3297 -3742.6763 -2014.6184)">
		<stop  offset="7.689312e-07" style="stop-color:#FCF1C4;stop-opacity:0.2"/>
		<stop  offset="0.1639" style="stop-color:#F8E69C;stop-opacity:0.3311"/>
		<stop  offset="0.5367" style="stop-color:#F0D235"/>
	</linearGradient>
	<path fill="url(#SVGID_12_)" d="M736,666.2c196.6-51,392.8-92.9,589.4-143.9c-1.5-17.1-5.9-39.2-12.6-57.6
		c-6.9-19.1-18.1-39.7-26.1-52.8C1104.1,499.3,918.7,578.7,736,666.2z"/>
	
		<linearGradient id="SVGID_13_" gradientUnits="userSpaceOnUse" x1="-4510.5635" y1="-827.5566" x2="-4510.5635" y2="-1438.6199" gradientTransform="matrix(-0.8041 0.5944 -0.5944 -0.8041 -3835.5198 2162.2578)">
		<stop  offset="7.689312e-07" style="stop-color:#FCF1C4;stop-opacity:0.2"/>
		<stop  offset="0.1639" style="stop-color:#F8E69C;stop-opacity:0.3311"/>
		<stop  offset="0.5367" style="stop-color:#F0D235"/>
	</linearGradient>
	<path fill="url(#SVGID_13_)" d="M646.8,637.8c-107-172.7-205-347.7-312-520.4c-15.9,6.5-35.7,17.3-51.3,29
		c-16.2,12.2-32.6,29-42.8,40.6C378.4,335.6,509.1,489.3,646.8,637.8z"/>
	
		<linearGradient id="SVGID_14_" gradientUnits="userSpaceOnUse" x1="-3782.324" y1="-1388.5166" x2="-3782.324" y2="-1999.5798" gradientTransform="matrix(-0.6088 0.7933 -0.7933 -0.6088 -3253.7417 2438.571)">
		<stop  offset="7.689312e-07" style="stop-color:#FCF1C4;stop-opacity:0.2"/>
		<stop  offset="0.1639" style="stop-color:#F8E69C;stop-opacity:0.3311"/>
		<stop  offset="0.5367" style="stop-color:#F0D235"/>
	</linearGradient>
	<path fill="url(#SVGID_14_)" d="M635.2,655.2c-150.5-136.4-293-277.6-443.5-414.1c-13.5,10.6-29.5,26.5-41.3,42.1
		c-12.2,16.2-23.3,36.9-29.9,50.8C293.8,438.8,461.9,550.4,635.2,655.2z"/>
	
		<linearGradient id="SVGID_15_" gradientUnits="userSpaceOnUse" x1="343.2209" y1="2768.8347" x2="343.2209" y2="2157.7715" gradientTransform="matrix(0.8041 0.5944 0.5944 -0.8041 -842.1824 2162.2578)">
		<stop  offset="7.689312e-07" style="stop-color:#FCF1C4;stop-opacity:0.2"/>
		<stop  offset="0.1639" style="stop-color:#F8E69C;stop-opacity:0.3311"/>
		<stop  offset="0.5367" style="stop-color:#F0D235"/>
	</linearGradient>
	<path fill="url(#SVGID_15_)" d="M716.5,631.1c107-172.7,205-347.7,312-520.4c15.9,6.5,35.7,17.3,51.3,29
		c16.2,12.2,32.6,29,42.8,40.6C984.8,328.9,854.1,482.6,716.5,631.1z"/>
	
		<linearGradient id="SVGID_16_" gradientUnits="userSpaceOnUse" x1="-110.0389" y1="3408.1047" x2="-110.0389" y2="2797.0415" gradientTransform="matrix(0.6088 0.7933 0.7933 -0.6088 -1423.9603 2438.571)">
		<stop  offset="7.689312e-07" style="stop-color:#FCF1C4;stop-opacity:0.2"/>
		<stop  offset="0.1639" style="stop-color:#F8E69C;stop-opacity:0.3311"/>
		<stop  offset="0.5367" style="stop-color:#F0D235"/>
	</linearGradient>
	<path fill="url(#SVGID_16_)" d="M728.1,648.5c150.5-136.4,293-277.6,443.5-414.1c13.5,10.6,29.5,26.5,41.3,42.1
		c12.2,16.2,23.3,36.9,29.9,50.8C1069.4,432.1,901.4,543.7,728.1,648.5z"/>
	
		<linearGradient id="SVGID_17_" gradientUnits="userSpaceOnUse" x1="-5006.9761" y1="-153.7571" x2="-5006.9761" y2="-764.8203" gradientTransform="matrix(-0.8041 -0.5944 -0.5944 0.8041 -3835.5198 -1629.1515)">
		<stop  offset="7.689312e-07" style="stop-color:#FCF1C4;stop-opacity:0.2"/>
		<stop  offset="0.1639" style="stop-color:#F8E69C;stop-opacity:0.3311"/>
		<stop  offset="0.5367" style="stop-color:#F0D235"/>
	</linearGradient>
	<path fill="url(#SVGID_17_)" d="M645.4,732.2c-107,172.7-205,347.7-312,520.4c-15.9-6.5-35.7-17.3-51.3-29
		c-16.2-12.2-32.6-29-42.8-40.6C377.1,1034.4,507.8,880.8,645.4,732.2z"/>
	
		<linearGradient id="SVGID_18_" gradientUnits="userSpaceOnUse" x1="-4445.4619" y1="-877.9491" x2="-4445.4619" y2="-1489.0123" gradientTransform="matrix(-0.6088 -0.7933 -0.7933 0.6088 -3253.7417 -1905.4646)">
		<stop  offset="7.689312e-07" style="stop-color:#FCF1C4;stop-opacity:0.2"/>
		<stop  offset="0.1639" style="stop-color:#F8E69C;stop-opacity:0.3311"/>
		<stop  offset="0.5367" style="stop-color:#F0D235"/>
	</linearGradient>
	<path fill="url(#SVGID_18_)" d="M633.8,714.8c-150.5,136.4-293,277.6-443.5,414.1c-13.5-10.6-29.5-26.5-41.3-42.1
		c-12.2-16.2-23.3-36.9-29.9-50.8C292.5,931.2,460.5,819.6,633.8,714.8z"/>
	
		<linearGradient id="SVGID_19_" gradientUnits="userSpaceOnUse" x1="-149.6994" y1="3438.9978" x2="-149.6994" y2="2827.9346" gradientTransform="matrix(0.8041 -0.5944 0.5944 0.8041 -842.1824 -1629.1515)">
		<stop  offset="7.689312e-07" style="stop-color:#FCF1C4;stop-opacity:0.2"/>
		<stop  offset="0.1639" style="stop-color:#F8E69C;stop-opacity:0.3311"/>
		<stop  offset="0.5367" style="stop-color:#F0D235"/>
	</linearGradient>
	<path fill="url(#SVGID_19_)" d="M718.5,733.9c107,172.7,205,347.7,312,520.4c15.9-6.5,35.7-17.3,51.3-29
		c16.2-12.2,32.6-29,42.8-40.6C986.8,1036.1,856.1,882.4,718.5,733.9z"/>
	
		<linearGradient id="SVGID_20_" gradientUnits="userSpaceOnUse" x1="-768.8166" y1="3916.1414" x2="-768.8166" y2="3305.0781" gradientTransform="matrix(0.6088 -0.7933 0.7933 0.6088 -1423.9603 -1905.4646)">
		<stop  offset="7.689312e-07" style="stop-color:#FCF1C4;stop-opacity:0.2"/>
		<stop  offset="0.1639" style="stop-color:#F8E69C;stop-opacity:0.3311"/>
		<stop  offset="0.5367" style="stop-color:#F0D235"/>
	</linearGradient>
	<path fill="url(#SVGID_20_)" d="M730.1,716.5c150.5,136.4,293,277.6,443.5,414.1c13.5-10.6,29.5-26.5,41.3-42.1
		c12.2-16.2,23.3-36.9,29.9-50.8C1071.4,932.9,903.4,821.3,730.1,716.5z"/>
</g>
<g id="medal">
	<path fill="#9B1D21" d="M814,335.9c85.7,20.8,145.7,65.7,137.7,73c-8,7.3-33,44.1-48.9,97.2c-15.9,53-32.2,131.3-41.7,116
		c-9.5-15.3-36.5-70.2-81.2-90.8c-44.7-20.6-45.3-6.1-44.7-20.6c0.6-14.5,31.4-83.6,48.5-118.7S800.4,332.6,814,335.9z"/>
	<path fill="#CE2E36" d="M883.3,361.3c-19.5-6.4-49-19.2-65.7-16.8c-11,1.6-84.7,172.6-74,174.3c15.3,2.4,46.8,21.4,51.9,32.9
		c3.5,7.8,13.7-21.2,32.5-62.6s37.2-78.7,45.7-98.8S890.6,363.7,883.3,361.3z"/>
	<g>
		<g>
			<path fill="#BC262A" d="M745.8,510.4c6.4-12.5,12-25.3,17.6-38.2c5.4-12.6,11.1-25,17.2-37.3c4.1-8.2,7.7-16.7,11.3-25.2
				c4-9.4,7.5-18.8,10.9-28.4c1.1-3,2.2-6.1,3.4-9.1c0.3-0.7,0.6-1.4,0.8-2.1c0.1-0.3,0.3-0.7,0.4-1c0.3-0.7-0.1,0.3,0.2-0.5
				c0.7-1.5,1.3-3,2-4.5c3-6.3,6.6-12.2,10.6-17.8c-1.4,0.6-2.8,1.1-4.2,1.7c17.4,4.9,34.5,10.4,51.5,16.7
				c16.7,6.2,33.1,13.1,49.2,20.7c9.2,4.3,18.3,8.9,27.3,13.6c-0.4-1.7-0.9-3.4-1.3-5.1c-11.2,26.6-26.3,51.4-38.3,77.6
				c-3,6.5-5.8,13.1-8.3,19.8c-2.6,7.1-4.8,14.3-7.2,21.4c-4.9,14.7-10.2,29.3-15.9,43.7c-6.3,16-13.1,31.8-20.3,47.4
				c-0.8,1.8-0.5,4,1.3,5.1c1.6,0.9,4.2,0.5,5.1-1.3c13.1-28.3,24.8-57.3,34.9-86.8c2.4-7.2,4.7-14.4,7.1-21.5
				c2.3-6.7,4.9-13.2,7.7-19.5c5.7-12.9,12.3-25.3,18.8-37.8c7.6-14.6,15.2-29.2,21.6-44.3c0.8-1.8,0.6-4-1.3-5.1
				c-16-8.5-32.4-16.3-49-23.4c-16.8-7.2-33.9-13.7-51.3-19.4c-9.7-3.2-19.5-6.2-29.4-8.9c-1.7-0.5-3.2,0.4-4.2,1.7
				c-7.1,9.9-12.3,20.8-16.5,32.2c-3.6,9.6-6.9,19.3-10.8,28.8c-0.2,0.5-0.4,1-0.6,1.5c0,0.1-0.5,1.1-0.1,0.3
				c-0.1,0.2-0.2,0.4-0.3,0.6c-0.5,1.3-1.1,2.5-1.6,3.8c-1,2.4-2,4.7-3.1,7c-1.8,4.1-3.7,8.3-5.6,12.4c-2.6,5.4-5.4,10.7-7.9,16.1
				c-2.9,6.2-5.7,12.6-8.4,18.9c-6.2,14.3-12.3,28.7-19.4,42.6c-0.9,1.8-0.5,4,1.3,5.1C742.4,512.7,744.9,512.2,745.8,510.4
				L745.8,510.4z"/>
		</g>
	</g>
	<path fill="#9B1D21" d="M552.7,332.9c-85.7,20.8-145.7,65.7-137.7,73c8,7.3,33,44.1,48.9,97.2c15.9,53,32.2,131.3,41.7,116
		c9.5-15.3,36.5-70.2,81.2-90.8c44.7-20.6,45.3-6.1,44.7-20.6c-0.6-14.5-31.4-83.6-48.5-118.7S566.3,329.6,552.7,332.9z"/>
	<path fill="#CE2E36" d="M483.3,358.3c19.5-6.4,49-19.2,65.7-16.8c11,1.6,84.7,172.6,74,174.3c-15.3,2.4-46.8,21.4-51.9,32.9
		c-3.5,7.8-13.7-21.2-32.5-62.6s-37.2-78.7-45.7-98.8C484.6,367.3,476,360.7,483.3,358.3z"/>
	<g>
		<g>
			<path fill="#BC262A" d="M627.3,503.7c-6.4-12.5-12-25.3-17.6-38.2c-5.4-12.6-11.1-25-17.2-37.3c-4.1-8.2-7.7-16.7-11.3-25.2
				c-0.1-0.2-0.2-0.4-0.3-0.6c0.3,0.7-0.1-0.3-0.1-0.3c-0.2-0.5-0.4-1-0.6-1.5c-0.5-1.1-1-2.3-1.4-3.4c-0.7-1.8-1.5-3.6-2.2-5.4
				c-2.1-5.3-3.9-10.7-5.8-16.1c-2.2-6.2-4.5-12.3-7.4-18.2c-3-6.3-6.6-12.2-10.6-17.8c-1-1.4-2.5-2.2-4.2-1.7
				c-17.5,4.9-34.7,10.5-51.7,16.8c-17.1,6.4-34,13.5-50.5,21.2c-9.3,4.4-18.4,8.9-27.5,13.7c-1.9,1-2.1,3.3-1.3,5.1
				c11.2,26.6,26.3,51.4,38.3,77.6c2.9,6.3,5.5,12.4,7.9,18.9c2.6,7.1,4.8,14.4,7.2,21.5c4.9,14.7,10.2,29.3,15.9,43.7
				c6.4,16.3,13.3,32.4,20.7,48.2c0.8,1.8,3.5,2.3,5.1,1.3c1.9-1.1,2.2-3.3,1.3-5.1c-13-28-24.5-56.7-34.4-85.9
				c-2.4-7.1-4.6-14.3-7.1-21.5c-2.4-6.9-5.2-13.7-8.1-20.4c-5.7-12.9-12.3-25.3-18.8-37.8c-7.6-14.6-15.2-29.2-21.6-44.3
				c-0.4,1.7-0.9,3.4-1.3,5.1c15.9-8.4,32.2-16.2,48.8-23.3c16.4-7,33-13.2,49.9-18.8c9.6-3.2,19.4-6.1,29.1-8.9
				c-1.4-0.6-2.8-1.1-4.2-1.7c3.7,5.1,7,10.5,9.8,16.1c0.6,1.3,1.2,2.5,1.8,3.8c0.3,0.6,0.5,1.1,0.8,1.7c0.2,0.3,0.3,0.7,0.4,1
				c-0.2-0.6,0.2,0.4,0.2,0.5c1.1,2.6,2.1,5.3,3.1,8c3.5,9.6,6.9,19.2,10.8,28.6c3.8,9,7.6,18.1,11.9,26.9
				c2.6,5.4,5.4,10.7,7.9,16.1c2.9,6.2,5.7,12.6,8.4,18.9c6.2,14.3,12.3,28.7,19.4,42.6c0.9,1.8,3.4,2.3,5.1,1.3
				C627.7,507.7,628.2,505.5,627.3,503.7L627.3,503.7z"/>
		</g>
	</g>
	<path fill="#F0D235" stroke="#BA792A" stroke-width="2.9712" stroke-miterlimit="10" d="M872.5,687c0,42.9-31.6,94.6-55.9,126.1
		c-34.2,44.6-70.8,61.1-131.3,61.1c-74.9,0-134.6-42-164.5-105.6c-11.4-24.1-22.7-53.2-22.7-81.6c0-51.5,20.8-98.1,54.4-131.9
		c33.9-34.1,80.9-55.3,132.8-55.3c54.1,0,97.2,26.2,131.3,63C847.7,596.2,872.5,637.8,872.5,687z"/>
	<g>
		<defs>
			<rect id="SVGID_21_" x="492.6" y="511.4" width="379.5" height="360.2"/>
		</defs>
		<clipPath id="SVGID_22_">
			<use xlink:href="#SVGID_21_"  overflow="visible"/>
		</clipPath>
		<path clip-path="url(#SVGID_22_)" fill="#E6B821" d="M828.2,690.4c0,80.3-65.1,145.4-145.4,145.4s-145.4-65.1-145.4-145.4
			s65.1-145.4,145.4-145.4S828.2,610.1,828.2,690.4"/>
		
			<ellipse transform="matrix(1.285326e-03 -1 1 1.285326e-03 -8.478 1372.3572)" clip-path="url(#SVGID_22_)" fill="none" stroke="#BA792A" stroke-width="4.0944" stroke-miterlimit="10" cx="682.8" cy="690.4" rx="145.4" ry="145.4"/>
		<path clip-path="url(#SVGID_22_)" fill="#F0D235" d="M618.9,779.9c0.6,2.3-1.1,4.3-3.3,6.3c-0.9,0.7-2.9,2.5-3.9,3.2
			c-2.7,1.9-5.4,4.3-7.9,5.2c-0.8-0.9-1.5-0.3-2.3-0.6c-0.2,0-0.3,0.1-0.5,0.3c-0.8-0.2-1.6-0.6-2.6-0.9c-0.4-0.2-0.8,0-1.1-0.2
			c-0.5-0.2-0.9-0.9-1.5-1.2c-0.5-0.2-0.8-0.2-1.3-0.5c-0.2-0.1-1.5-0.5-1.5-0.9c-0.8-0.1-1.5-1.2-2.2-1c-0.1-0.3-0.3-1-0.8-0.4
			c0-0.3-0.2-0.6-0.5-0.9l0.2-0.2c-0.8-2.3-0.9-4.5-1.2-6.7c-0.2-0.1-0.1-0.3-0.3-0.5c0.4-0.4,0.3-0.7,0.4-1.1
			c0.7-0.8,1.4-0.8,2.1-0.8c0.1,0,0.1-0.1,0-0.3c0.3-0.1,0.4,0.2,0.8,0.2l0.3-0.4c1.7,0.2,3.6,1.8,5.3,1.8c1,1,1.9,1.4,2.9,1.2
			c0.7,0.7,1.3,0.5,1.9,0.9c0.3,0,0.3-0.2,0.6-0.2c0.6,0.8,1.3,0.2,2.1,0.4c0.2-0.2-0.2-0.4,0.2-0.6c0.9-0.5,2.9-2.5,3.7-3.4
			c0.1,0.1,0.3-0.2,0.4,0.1l0.6-0.6c-2.8-1.6-5.6-1.8-8.4-4c-1.1,0.2-1.7-1.4-2.2-2.1l0.3-0.3c-0.8-0.9-0.5-1.8-1.1-2.8
			c0.6-0.4-0.2-0.8,0-1.3c0.4,0,0.3-0.1,0.7-0.3c0.2-0.2-0.2-0.3,0-0.5c-0.2,0.1-0.5-0.2-0.7-0.4c0.1-0.2,0.2-0.5,0.3-0.7
			c0.1-0.4,0.2,0,0.5,0c0.1-0.2,0-0.4-0.2-0.7c0.2-0.4,0.3-0.7,0.7-0.9c4.5,4.4,10,4.2,14.3,7.3c0.3,0.1,1.5-1.3,1.8-1
			c0.2-1,1.3-0.9,1.6-1.8c-0.1-0.7-1.3-1.4-1.8-1.6c-2.3-1.8-4.8-3.9-7.2-4.7c-0.2-0.5-0.6-0.5-0.6-0.8c-0.2,0.1-0.4,0-0.6,0
			c-0.3-0.3-0.3-0.6-0.2-0.8c-0.2-0.1-0.2,0.1-0.4-0.1c0-0.7-0.2-0.8-0.5-1.3c-0.2-0.1,0,0.2-0.3,0.2c-0.1-0.2,0-0.2-0.1-0.3
			c0.1-0.4,0.3,0.2,0.4-0.2c0-0.3-0.5-0.4,0-0.7c-0.7-0.3-1-0.7-1-1.4c0.3-0.1-0.2,0.3,0.2,0.3c0.3-0.6,0.2-0.4,0.4-0.8
			c-0.2-0.3-0.3,0.2-0.5-0.2c0.1-0.1,0.1-0.1,0-0.3c0.1-0.2,0.3,0.4,0.4,0c-0.5-0.3,0-0.8-0.7-1.1c0.3-0.3,0.5-1,1-0.8
			c0.1-0.2-0.2-0.4-0.2-0.7c0.3-0.1,0.6,0.3,1-0.1c0.2-0.1,0.2-0.3-0.1-0.4c0.7,0,0.5-0.3,0.5-0.7c0.3,0.3,0.7,0.4,1.1,0.3
			c0.8,0.7,1.6,1.3,2.4,1.4c2.4,2.1,5,3.2,7.3,5.1c0.1-0.1,0.1-0.2,0-0.3c0.7,0.4,1.6,1.6,2.6,1.5c0.1,0.1,0.1,0.2,0,0.3
			c1-0.3,1.7,0.9,2.3,1.3c0.1,0.1,0.2-0.2,0.3-0.1c0.2,0.1-0.1,0.2,0.1,0.3c0,0,0.9,0.5,0.8,0.5c0.5,0.5,1.1,1.3,1.2,2
			c0.6,0.5,0.9,1.1,0.8,1.7c0.2,0.3,0.4,0.1,0.4,0.3c0.6,1.8,1.3,3.7,0.9,5.6C625.2,775.4,620.8,778.5,618.9,779.9"/>
		<path clip-path="url(#SVGID_22_)" fill="#F0D235" d="M571,732c2-1,4.3-1.6,5.6-2.7c2.6-1.4,7.6-3.7,10.9-5.2
			c1.1-0.5,2.1-1.2,2.8-1.1c0.5,0,0.6,0.5,1.2,0.1c0.2,0.5,0.6,0,0.3,0.5c0.8,0.4,1.3,1.3,1.9,2.1c1,0.4,1-0.3,1.2,0.9
			c1.1,1.1,1.4,3.4,1.9,5.2l-0.4,0.2c0.3,0.4,0.3,0.1,0.3,0.6c-0.1,0.1-0.2,0-0.3-0.2c-2.1,3.2-8.4,8.8-11.2,11.7
			c-3.6,2.8-7.6,6.4-9.6,9.5c0.7,0.4,1.5-0.8,2.1-0.1c1.6-0.8,4.2-1.9,4.9-3c2.1-0.5,3.4-2.1,5.8-2.9c1.8-1.7,7.7-3.5,9.9-5
			c0.1,0.4,0.5-0.2,0.5,0.4c0.1-0.3,0.2-0.5,0.2-0.5c0.8-0.6,1.5-0.4,2.3-0.6c0.5,0.3,1,0.7,1.7,0.5c1.1,1.5,2,2.1,3.1,3.2
			c0,0.1-0.1,0.2-0.2,0.3c0.6,1.2,0.5,2,1.5,2.5c-0.1,0.3-0.4,0.6,0,1c-0.6,0.5-1.3,0.4-1.5,1.3c-0.1-0.4-0.5-0.1-0.5-0.6
			c-3.7,1.7-10.6,5.7-14.1,8.1c-0.4,0.3-0.3,0.1-0.6,0.3c-1.7,1.3-4.3,1.8-5.8,3.2c-0.3,0.4-0.2-0.3-0.4-0.1c-0.5,0-0.2,0.3-0.5,0.5
			c-0.6-0.3-2.3,1.1-2.9,1.4c-0.1-0.1-0.3-0.2-0.3-0.3c-2.7,0.9-5.9,1.4-8.1,0c-0.7,0.2-1-0.5-2-0.8c-0.6-0.2-1.2-0.4-1.6-0.7
			c-1.8-1.4-2.8-3.8-4-6.2c0.8,0.1-0.3-0.3,0.4-0.6c-0.4-0.7-0.5-1.2-0.1-1.6c-0.2,0-0.4-0.2-0.5-0.5c0-0.2,0-0.3,0-0.5
			c-0.2-0.4,0.2-0.1,0.2,0.1c0.2-0.2,0.2-0.5-0.1-0.5c-0.1-0.6,0.1-0.9,0-1.5c1.3-1.6,3.8-4,4.7-5.8c1.2-0.4,0.9-1.5,2.1-2.1
			c0-0.1,0.1-0.2,0.1-0.3c-0.2,0.1-0.5,0.2-0.7,0.3c-1.2-0.4-6.5,3-7.7,3.2c-1.3,0.2-2.1-0.6-3.2-0.6c-0.4-0.3-0.5-0.8-1.1-1.3
			c-0.1-0.1-0.5-0.2-0.6-0.3c-0.3-0.1-0.3-0.6-0.4-0.7c0,0-0.1,0-0.1,0c-0.1,0-0.1,0.1-0.2,0c-0.1-0.1,0.5-1-0.1-0.4
			c0-0.5-0.1-1.1-0.2-1.6c0.3-0.6,0.9-1.8,1.1-1.9c0.2,0,1.2-0.6,2.2-1.2c0.6-0.4,1.3-0.8,2-1.1l-0.1-0.1c1.6-0.6,4.6-1.9,5.1-2.6
			C568.9,733.1,570.2,732.6,571,732"/>
		<path clip-path="url(#SVGID_22_)" fill="#F0D235" d="M577.1,718.4c-1,2.1-3.6,2.6-6.6,2.7c-1.1,0-3.8,0-5-0.2
			c-3.3-0.3-6.9-0.2-9.4-1.2c0-1.2-1-1.2-1.3-2c-0.1-0.1-0.3-0.1-0.6-0.1c-0.5-0.7-0.8-1.5-1.4-2.3c-0.2-0.4-0.6-0.5-0.7-0.8
			c-0.3-0.5-0.1-1.2-0.4-1.9c-0.2-0.4-0.5-0.7-0.7-1.2c-0.1-0.2-0.9-1.3-0.6-1.6c-0.5-0.6-0.4-1.8-1-2.2c0.1-0.3,0.4-0.9-0.3-0.8
			c0.2-0.2,0.2-0.5,0.2-1l0.2,0c0.9-2.3,2.2-4,3.4-5.9c-0.1-0.2,0.2-0.3,0.1-0.6c0.6,0,0.7-0.3,1-0.6c1-0.2,1.5,0.3,2.1,0.7
			c0.1,0,0.2,0,0.2-0.2c0.3,0.2,0.2,0.4,0.5,0.6l0.5-0.1c1.2,1.2,1.6,3.7,2.9,4.8c0.1,1.4,0.6,2.3,1.4,2.8c0.1,0.9,0.7,1.2,0.8,1.9
			c0.2,0.2,0.3,0.1,0.5,0.2c-0.1,1,0.8,1,1.3,1.7c0.2,0,0.1-0.4,0.5-0.3c1,0.2,3.8,0,5-0.2c0,0.2,0.4,0,0.2,0.3l0.9-0.1
			c-1.1-3.1-3-5-3.8-8.5c-1-0.6-0.4-2.2-0.3-3l0.4-0.1c0-1.2,0.8-1.7,0.9-2.8c0.8,0.1,0.4-0.7,0.8-1c0.4,0.3,0.3,0.1,0.8,0.2
			c0.2,0,0.1-0.4,0.3-0.4c-0.2,0-0.2-0.4-0.3-0.7c0.2-0.1,0.4-0.2,0.6-0.3c0.3-0.2,0.1,0.2,0.4,0.3c0.2-0.1,0.3-0.3,0.3-0.7
			c0.4-0.1,0.6-0.3,1.1-0.2c0.6,6.3,4.9,9.7,6.1,14.9c0.2,0.2,1.9,0,2,0.4c0.8-0.6,1.5,0.2,2.3-0.3c0.4-0.6-0.1-1.9-0.4-2.4
			c-0.6-2.9-1.1-6.1-2.5-8.2c0.2-0.5-0.1-0.7,0.1-0.9c-0.2,0-0.3-0.2-0.5-0.4c0-0.4,0.2-0.7,0.3-0.7c-0.1-0.2-0.2-0.1-0.2-0.3
			c0.4-0.5,0.4-0.7,0.5-1.3c-0.1-0.2-0.1,0.1-0.4,0c0-0.2,0.2-0.1,0.1-0.3c0.3-0.2,0.1,0.4,0.4,0.1c0.2-0.2-0.1-0.6,0.4-0.5
			c-0.3-0.6-0.3-1.2,0.1-1.8c0.3,0.2-0.3,0.1-0.1,0.4c0.7-0.3,0.4-0.2,0.8-0.4c0-0.3-0.4,0-0.2-0.5c0.1,0,0.2,0,0.2-0.2
			c0.2-0.1-0.1,0.5,0.4,0.3c-0.1-0.5,0.5-0.6,0.2-1.3c0.4-0.1,1-0.4,1.3,0.1c0.2-0.1,0.1-0.5,0.3-0.7c0.3,0.2,0.3,0.7,0.8,0.5
			c0.3,0,0.3-0.1,0.2-0.4c0.5,0.4,0.6,0.1,0.9-0.2c0.1,0.4,0.3,0.8,0.6,1c0.1,1.1,0.4,2,0.9,2.6c0.5,3.2,1.8,5.7,2.2,8.6
			c0.1,0,0.2-0.1,0.2-0.2c0.3,0.8,0.2,2.2,1.1,2.8c0,0.1,0,0.2-0.2,0.2c1,0.4,0.7,1.8,1,2.5c0,0.2,0.2,0,0.3,0.2
			c0.1,0.2-0.2,0.1-0.2,0.3c0-0.1,0.3,1,0.3,0.9c0,0.8,0,1.7-0.3,2.3c0.2,0.8,0,1.4-0.5,1.8c0,0.3,0.2,0.3,0.1,0.5
			c-0.7,1.8-1.4,3.6-2.9,4.8C584.8,719,579.4,718.6,577.1,718.4"/>
		<path clip-path="url(#SVGID_22_)" fill="#F0D235" d="M592,663.5c0.7,0.1,1.2-0.4,1.8-0.3c-0.8,0.5-1,1.6-0.4,1.8l-0.7,0.5
			l-0.5-0.1c0.4,0.8,0.9,1.5,0.1,1.9c-0.6,0.5,0.1-0.5-0.5-0.1l0.4,0.7c-1.3,0.4-2.7,1.2-4.1,2.3c-0.2,1.2-2.1,1.4-3,2.5l-0.7,0.5
			c-0.1,0-0.2,0-0.3,0c-0.2,0.1-0.4,0.2-0.4,0.4c-1.3,0.4-1.5,1.6-2.9,1.9l-0.1,0.6c0.4,0,0.7,0,1,0c0.5,0,0.9,0.1,0.9,0.4
			c2.5-0.2,4.8,0.4,7.2,0.8c-0.7-0.1-0.1,0.7,0,0c-0.1,0.7-0.1,0.6,0.4,0.7c-0.1,0.3,0,0.5,0.2,0.6c0.1,0.1,0.2,0.1,0.3,0.1
			c-0.1,0.7-0.7,0.5-0.8,1l0.1-0.5c-0.6,0.5-0.7,1-1.5,1.5c0.8-0.4,0.6,0.1,1.1,0.2c0.1,0,0.2,0.1,0.3,0.1c0.2,0.1,0.3,0.3,0.2,0.6
			c-0.2-0.3-0.4-0.4-0.5-0.4c-0.1,0-0.1,0.1-0.1,0.2l0.5,0.6c-0.1,0.3,0,0.5,0.2,0.6c0.1,0.1,0.2,0.1,0.3,0.1
			c-1.8,0.3-1,1.6-1.2,2.9c-0.5-0.8-0.8,1-1.3,0.9c-0.2-0.1-0.5,0-0.6,0.2c-0.1,0.1-0.1,0.2-0.1,0.3c-4.1-0.8-9.6-1.3-13.2-2.1
			l-0.6-0.1c-3.5-1.4-7.6-1.5-11.2-2.3c-2.9-1.3-5.7-2.4-8.4-1.7c-0.2,0-0.3-0.2-0.4-0.4c0-0.1,0-0.2,0-0.3l-1.2-0.3
			c0.1-0.7-0.3-1.8,0.5-2.4c0.2-1.2-0.5-3.2-1.4-5.2l0.5-2.4c0.4-1.8,0.1-3.1,1-4.8c0.9-1.1,0.4-2.3,1.2-2.8l0.1-0.7
			c0.9-1,1.2-2.7,3.2-3.6c-0.7-0.1,0.1-0.6,0.2-1.1c1.2,0.2,1.4-1.1,2.6-0.8c0.2-1.2,1.9-0.7,2.8-1.8c0.5,0.8,1.7,0.3,2.5-0.2
			c1.6,1,3.2,2.6,5,3l-0.1,0.5l0.6,0.1l-0.1,0.6c1.3-0.4,1,0.8,2.3,1.1l-0.1,0.7c0.4,0.6,1.6,0.8,1.4,2.1c0.4,1.3,1.5,1.5,2.6,2.4
			l-0.3,1.7c1.1,0.2,1.6-1.5,2.7-1.2c0.9-1,2-0.8,2.3-2c1.8-0.3,3.4-1.7,4.7-2.2c1-1.6,2.3-1.9,3.1-3c0.6,0.1,0.3-1.2,1.5-1
			l-0.1,0.6c0.8-0.4,1.1,0.2,1.8,0.4c-0.1,0.7-0.9,1.1-0.3,1.7c-0.1,0.1-0.2,0.2-0.3,0.4c-0.1,0.3-0.1,0.6,0.1,0.9
			c0.1-0.7,0.6,0.1,1.1,0.9C592.9,662.4,592.3,662.2,592,663.5 M569.6,673.7c-0.5-0.8-0.2-2.5-1.3-2.7c-0.4-1.3-1.5-2.1-2.5-3
			c-1.1-0.9-2-2.1-3.1-3.1c-1.8-0.4-3.3,1.1-4.6,1.5l-0.1,0.7c-1.5,0.8-1.5,4-1.1,5.3c3,0.6,5.4,0.5,7.8,1c1.8,0.4,3.3,1.4,5.4,1.1
			c-0.1,0-0.2,0-0.3-0.1C569.6,674.2,569.5,674,569.6,673.7c0.1,0,0.2,0,0.3,0c0.1,0,0.1-0.2-0.1-0.6L569.6,673.7z M576.7,665.9
			l-0.5-0.7l-0.1,0.6L576.7,665.9z M588,669.5c-0.2,0.1-0.4,0.2-0.4,0.5c0.3,0.1,0.5,0,0.6-0.2c0.1,0,0.1-0.2,0.1-0.3
			C588.3,669.5,588.1,669.5,588,669.5 M589,681.4c-0.1,0-0.2,0-0.3,0c-0.2,0.1-0.4,0.2-0.4,0.4c0.8-0.4-0.1,0,0.6,0.1L589,681.4z
			 M589.5,668.8c0.1,0,0.1-0.2,0.1-0.2c-0.5-0.1-0.5-0.1-0.6,0.4C589.2,669,589.4,669,589.5,668.8 M590,658.1
			c0.7,0.1,0.8-0.5,0.1-0.6L590,658.1z M592.7,664.4c0-0.1-0.2-0.1-0.2-0.1c0,0.1,0,0.2,0,0.3c0,0.2,0.2,0.3,0.4,0.3
			C592.9,664.7,592.9,664.5,592.7,664.4"/>
		<path clip-path="url(#SVGID_22_)" fill="#F0D235" d="M608.6,634.7c-0.3,0.4,0.1,0.6-0.2,1c0.1,0,0.1,0,0.2-0.1
			c0.2,0.1-0.1,0.3-0.2,0.5c0.6,1.1-0.4,3.2-0.4,3.9c-0.8,0.4-0.9,1.5-1.9,2c0,0.1,0,0.1,0.1,0.2c-0.9,0.9-2.2,1-2.9,2.4
			c-0.2,0-0.3,0.4-0.5,0c0,0.2,0.2,0.1,0.1,0.3c-0.3,0.1-0.4,0.5-0.8,0.3l-0.4,0.7c-1.3,0.7-2.5,2.2-4.2,2.7c-0.2,0.2,0,0.3-0.2,0.5
			c-1.1,0-2,1.7-3.3,1.1c-0.4,0.3,0,0.4-0.2,0.6c-0.2-0.3-0.3,0-0.5-0.2c0,0.6-0.7,0.2-0.9,0.7c-0.2,0.2,0.5,0.2,0.1,0.4
			c-0.8-0.3-1.1,0.2-2,0c0,0.2-0.2,0.3,0.2,0.5c-0.9-0.2-1.5-1.3-2.4-0.4c-0.5-0.4-0.8-0.3-1,0.2c-0.3-0.6-1.4-0.1-1.5-0.9
			c-0.5,0-0.6,0-1.2-0.4c-0.3,0.1-0.4,0.2-0.7,0.3c-3.1-1.6-5.7-2.6-8.1-4.8c-0.8-0.1-2-1.2-2.3-1.8c-3.2-2.5-3.9-4.4-5.4-7.4
			c0.4-0.3,0-0.4,0.2-0.6c-0.9-1.1-0.5-2.5-1.4-3.6c0.5-1.1-0.3-1.8,0-2.8c0-0.1-0.1-0.2-0.3-0.3c0.4-1,0.3-1.3,0.1-2.1
			c0.3-1.3,0.6-2.4,0.9-3.8c1.1-2.2,2.3-3.8,3.6-5.1c2.1-2.2,4.8-2.9,7.2-4.4c1.6,1,2.6-0.8,4.3,0.2c-0.2,0.3-0.1,0.5,0,0.7
			c0.5-0.4,0.9-0.2,1.3-0.4c0.1,0.6,0.6,0.6,1.1,0.7c-0.8,0.7-0.8,2.1-1.7,2.6c-1.3,0.8-2.8,2.5-4.2,3.4c-0.5,0.4-1.2,1.2-0.7,2.3
			c-1,2.2,0.3,3.6-0.1,5.6c0.6,0.6,0.5,1.2,0.7,1.8c0.9,0.5,0.7,1.3,1.3,1.9c0.3,0.4,0.3-0.3,0.6,0.1c0.7,2,1.7,0.8,2.6,2.5
			c1.6,0.4,2.7,1.7,4.3,2.4c0.2,0.2,0.2,0.5,0.4,0.6c1.4-0.2,2.2,1.5,3.5,1c0.8,0.5,1.3,1.2,2.1,0.8c0.7,0.6,1.5,0.9,2.1,0.5
			c0.5,0.1-0.1,0.4,0.3,0.4c1.1-1,1.3-2.6,1.7-4.1c0.1-0.2-0.2-0.2-0.2-0.3c-0.1-0.3,0.1-0.9,0-1.3c-0.6-1.9-1.1-5.4-3.5-6.3
			c-0.7-0.2-1.6-0.5-2.5-0.6c-1,1.1-0.7,2.4-2.1,3.4c0.3,0.3,0.1,0.7-0.2,1.2c-1.6-0.6-2.8,1.2-4.2,1.4c-0.1-0.3,0.1-0.4,0-0.5
			c-0.3,0.1-0.4-0.1-0.6,0.3c-0.1-0.3,0.3-0.6,0.3-0.8c-0.3-0.4,0.2-0.5,0.2-0.9c0.1-0.6-0.1-1.2,0-1.8c0.3-2.4,2.2-4.7,3.9-6.4
			c0.9,0.2,1.4-1.3,2.3-1.1c1-1.1,2.3-0.8,3.3-1.4l0.4,0.3c1.6-0.6,3,1,4.9,1.4c-0.2,0.2,0.6,0.1,0.9,0.6c-0.1,0.2-0.2,0.3-0.1,0.3
			c0.3,0.4,0.4,0.1,0.6,0c0.2,0.7,1.5,0.8,1.4,1.5c1.6,0.4,1.8,2.6,3,3.7c-0.1,0.2,0,0.4-0.2,0.6c1.2,0.4,0.3,2.2,1.3,1.8
			c0.1,0.3-0.1,0.4,0.4,0.5c-0.4,0.3,0,1.5,0.6,1.6c0.2-0.2-0.1-0.4-0.1-0.6C608.3,633.5,608.1,634.4,608.6,634.7"/>
		<path clip-path="url(#SVGID_22_)" fill="#F0D235" d="M591.5,596.9c0.1-0.2,0.1-0.4,0.2-0.6c1.3-1.5,3-1.9,4.5-1.8
			c0.9,1.4,2.7,0.8,3,2.1c1.8,0.5,1.2,2.8,2.3,3.7c-0.3,0.2-0.4,0.6-0.8,0.5c-0.3,0.3-0.1,0.7-0.1,0.9c-1.2,1.2-2.1,2-3.4,2.3
			c-0.8,0.3-1.5,0.4-2.3,0.9c-1.7-0.5-3.1-1.2-4.6-2.8c-0.1-0.4-0.3,0.3-0.4-0.2c0.1-0.9-1.1-1.3-1.4-1.5c-0.1-0.1,0.1-0.2,0.2-0.3
			c-0.2-0.3-0.4-0.6-0.4-0.8c0.8-0.7,0.8-1.6,1.8-2.2C590.5,597.5,590.9,596.6,591.5,596.9 M602,606.2c0.8-0.5,1.4-0.7,2-0.4
			c0.2,0,0.3-0.1,0.2-0.2c2.5,0.5,4.9,2,7.2,4.2c-0.2,0.1,0.7,0.8,1,0.8c0.9,0.9,1.7,2,2.6,2.5c0.9,2.2,5.6,5.4,6.5,7.8
			c-0.7,0.4-0.5,1-1.2,1.2c0.5,0.5,0.3,0.1,0.5,0.6c-0.7-0.1-1.7,0.9-2.4,0.6c-0.1,0.3-0.3,0.6,0.1,0.9c-0.3,0.9-1.2,1.2-2.2,1.5
			c-0.8,0.2-1.1,0.5-1.6,0.1c-0.2,0.3-0.7,0.3-0.5,0.8c-0.4,0.1-0.7-0.1-1,0.3c-0.3-0.7-0.7-0.3-1.1-0.3c0-0.3-0.6-0.5-0.2-0.6
			c0-0.3-0.2-0.1-0.5-0.1c-2-2.4-5.5-7.7-7.9-10.1c-0.1-0.1-0.2-0.1-0.3,0c-0.7-1.5-2.9-2.9-3.6-4.7c-1.1,0-1.1-1.5-1.8-1.9
			c0.3-0.4,0.4-0.3,0.7-0.7c-0.1-0.5-0.3,0-0.6-0.3C599.4,607.4,600.7,606.1,602,606.2"/>
		<path clip-path="url(#SVGID_22_)" fill="#F0D235" d="M664.6,578.5c0-0.2,0.2-0.2,0.2-0.4c-0.3-0.2,0.1-0.4-0.2-0.9
			c0.3-0.2,0.1,0.4,0.4,0.2c0.2,0,0.1-0.3,0.1-0.5c-0.6,0.3-0.2-0.1,0.1-0.2c-0.2-0.1-0.3-0.4-0.3-0.7l0.2,0c0.1-2.4,1.2-4.6,1.7-7
			c0.8,0,0.3-1.4,1.1-1.4c1.2-3.2,3.9-4.9,6.5-6.8c0.7-0.1,1.4,0,1.9-0.4c0.2,0.5,1.5-0.2,1.7,0.5c0.7-0.1,1.1-0.2,1.6,0.3
			c0.2-0.1,0.1-0.3,0.2-0.2c-0.1,0.3,0.5,0,0.3,0.4c0.7,0,1.3,0,1.4-0.2c0.4,0.2,0.9,0.3,1.3,0.3c0.5,1,1.2,1.7,2.1,2.2
			c0.1,0.4,0.3,0.8,0.7,1c0,0.6,0.2,0.9,0.7,0.9c0,0.7,1.3,0.8,0.8,1.3c0.7,1.2,1,3.3,1.6,4.4c0.1,0.2-0.2,0.1-0.2,0.3
			c0.6,0.6,0.5,2.5,1.2,3.3c0,0.1-0.1,0.2-0.2,0.2c0.5,1.2,0.8,2.2,1,3.9c-0.2-0.1-0.3-0.1-0.3-0.1c0.4,0.4,0.7,1,0.7,2
			c1.2,1.3,0.2,3.6,1.3,5.1c-0.4,0.6,0.4,2.2-0.1,2.7c0.5,0.5,0.8,4,1.3,4.6c-0.5,1.1,0.8,2.3,0.6,3.5c-0.2,0-0.2-0.1-0.4-0.1
			c0.6,0.7,0.1,1.8-0.4,2.3c-0.4,0.2,0-0.5-0.4-0.3c-0.3,0.3,0.3,0.2,0.2,0.7c-0.2-0.2-0.4-0.4-0.8-0.3c-0.1-0.2,0.1-0.3,0.1-0.4
			c-0.1-0.2-0.4-0.1-0.6-0.1c-0.2,0.4,0.3,0.2,0.2,0.5c-0.8,0.3-0.2,0.6-1.1,0.8c-0.2-0.2-0.1-0.5-0.3-0.6c-0.3,0.4-0.3,0.2-0.7,0
			c-0.1,0.3-0.2,0.6-0.2,0.8c0.2,0,0.4-0.4,0.6-0.1c0,0.4-0.7,0-0.7,0.3c-0.6,0-0.8-0.4-1.3-0.6c0.3-0.3,0.3-0.9-0.2-1.1
			c-0.3,0.3-0.4,0.3-0.9,0.3c0.2,0.4,0.8,0.3,1,0.7c0,0.2-1,0.6-0.2,0.7c-0.2,0.2-0.6,0.1-0.9,0.3c-0.1-0.3,0.4-0.1,0.2-0.5
			c-0.3,0.3-0.6,0.3-0.8,0c-0.1,0.1-0.1,0.1-0.1,0.3c-1,0.3-1.7-1-2.2-0.7c-0.2,0-0.1-0.2-0.1-0.4c-1.2-0.7-1.2-3.3-1.6-4.1
			c0.2-0.2,0.2-0.4,0-0.7c0.1,0.1,0.2-0.1,0.2-0.3c-0.6-3-1.1-7.4-1.5-10.2c-1.7,0.6-2.8,1.5-4.6,2c-0.7,0.3-1.7,0.9-2.5,0.9
			c-1,1,0.2,3.2-0.6,4.6c0.6,0.4,0.2,0.7,0,1.2c-0.2,1.6-0.3,3.9-1.2,5c0.1,0.2,0.2,0.1,0.2,0.3c-0.3-0.2-0.1,0.4-0.5,0.2
			c0.2,1.1-1.1,1.2-1.3,2.1c-0.2-0.5-0.4,0.2-0.4-0.2c-0.2,0.2-0.8,0.1-0.9,0.5c-0.8-0.5-1.6,0.4-2.2-0.1c-0.3,0.5-0.8-0.1-1,0.2
			c0-0.7-1.6,0.2-1.8-0.6c0,0.6-0.3-0.2-0.4,0.3c-0.2-0.1-0.1-0.6,0.2-0.6c0-0.2-0.5,0.1-0.5-0.2c0.2-0.4,0.4-0.5,0.9-0.7
			c-0.3-2.3,0.3-4.8-0.1-6.8c0-0.1-0.1-1.1,0-1.5c0-0.2-0.2-0.1-0.2-0.2c0-0.2,0.2-0.4,0.2-0.6c-0.1-0.7-0.6-1.5-0.1-2.1
			c-0.3-0.4-0.5-1.2,0-1.6c-0.5-0.4,0.1-1.1-0.2-1.7c0.5-0.5-0.1-1.3,0.4-1.6c-0.4-0.1,0.3-0.6-0.2-0.6c0.3-0.2,0.1-0.2,0-0.5l0.3,0
			c0-0.7,0.1-1.2,0-2.1c-0.2-0.3-0.1-0.4,0.1-0.1C664.9,579.1,664.8,578.7,664.6,578.5 M674.9,573.9c0,1.7-0.4,2.8-1,4.5
			c0.3,0.1,0.1,0.7,0.3,0.9c1.8-0.7,3.4-1.7,5.5-2.3c0-0.3,0.3-0.2,0.3-0.4c-1.1-2.7-1.3-5.7-2.4-8.3c-0.3,0.7-1.2,1-0.9,2
			C675.9,571.2,675.9,573.2,674.9,573.9"/>
		<path clip-path="url(#SVGID_22_)" fill="#F0D235" d="M721.8,608.4c-0.5-0.2-0.6,0.2-1,0.1c0,0.1,0,0.1,0.2,0.1c0,0.3-0.3,0-0.5,0
			c-1,0.9-3.2,0.3-3.8,0.5c-0.6-0.7-1.7-0.5-2.3-1.5c-0.1,0-0.1,0-0.2,0.1c-1.1-0.7-1.5-1.9-3-2.3c0-0.2-0.5-0.2-0.2-0.5
			c-0.2,0-0.1,0.2-0.3,0.2c-0.2-0.3-0.5-0.3-0.5-0.8l-0.8-0.3c-1-1.1-2.7-2-3.5-3.5c-0.2-0.1-0.3,0.1-0.5,0c-0.3-1.1-2.1-1.6-1.8-3
			c-0.4-0.3-0.4,0.1-0.6,0c0.3-0.2,0-0.3,0.1-0.6c-0.6,0.1-0.4-0.6-0.9-0.8c-0.2-0.1,0,0.5-0.4,0.2c0.1-0.8-0.4-1.1-0.5-1.9
			c-0.2,0-0.4-0.1-0.4,0.3c0-0.9,0.9-1.7-0.1-2.4c0.3-0.5,0.2-0.9-0.4-1c0.5-0.4-0.2-1.4,0.6-1.7c-0.2-0.5-0.1-0.6,0.1-1.2
			c-0.1-0.2-0.3-0.4-0.5-0.6c0.8-3.4,1.2-6.2,2.9-9c-0.1-0.8,0.8-2.2,1.2-2.7c1.8-3.7,3.4-4.8,6-6.8c0.4,0.3,0.4-0.1,0.6,0
			c0.9-1.1,2.3-1.1,3.2-2.2c1.2,0.2,1.7-0.7,2.7-0.6c0.1,0,0.2-0.1,0.2-0.3c1.1,0.2,1.4,0,2-0.4c1.3,0,2.5,0.1,3.9,0.1
			c2.4,0.6,4.2,1.4,5.8,2.4c2.6,1.6,3.9,4,5.8,6.1c-0.6,1.8,1.4,2.3,0.7,4.3c-0.3-0.1-0.5,0-0.7,0.2c0.5,0.4,0.4,0.8,0.7,1.2
			c-0.6,0.3-0.4,0.7-0.4,1.2c-0.8-0.6-2.2-0.3-2.9-1.1c-1-1.1-3.1-2.2-4.2-3.3c-0.5-0.4-1.4-0.9-2.4-0.2c-2.3-0.5-3.4,1.1-5.4,1.1
			c-0.4,0.7-1,0.7-1.6,1c-0.3,1-1.1,0.9-1.5,1.6c-0.3,0.4,0.3,0.2,0,0.6c-1.8,1.1-0.4,1.9-1.9,3.1c-0.1,1.7-1.1,3.1-1.4,4.7
			c-0.1,0.2-0.4,0.3-0.5,0.5c0.5,1.4-1,2.5-0.2,3.6c-0.4,0.9-0.9,1.5-0.3,2.2c-0.5,0.8-0.5,1.7-0.1,2.1c0,0.5-0.4,0-0.3,0.4
			c1.2,0.9,2.9,0.7,4.4,0.8c0.2,0.1,0.1-0.2,0.2-0.3c0.3-0.2,0.9-0.1,1.2-0.3c1.7-1,5-2.2,5.4-4.8c0.1-0.8,0.1-1.7,0.1-2.5
			c-1.3-0.8-2.5-0.1-3.8-1.3c-0.2,0.4-0.7,0.3-1.2,0.1c0.2-1.7-1.7-2.4-2.3-3.8c0.2-0.1,0.4,0,0.5-0.2c-0.1-0.2,0-0.4-0.4-0.5
			c0.3-0.2,0.6,0.1,0.9,0.2c0.3-0.4,0.5,0,0.9,0c0.6-0.1,1.2-0.3,1.8-0.4c2.4-0.2,5,1.1,7.1,2.4c0,0.9,1.6,1.1,1.6,2
			c1.3,0.7,1.3,2,2.1,2.9l-0.2,0.5c1,1.4-0.4,3.2-0.3,5c-0.3-0.2,0,0.6-0.3,1c-0.2-0.1-0.3-0.1-0.3,0c-0.3,0.4,0,0.4,0.1,0.6
			c-0.6,0.3-0.5,1.6-1.1,1.7c0,1.7-2.1,2.4-3,3.7c-0.2-0.1-0.4,0.1-0.6-0.1c-0.1,1.2-2,0.8-1.4,1.7c-0.2,0.1-0.4,0-0.4,0.5
			c-0.4-0.3-1.4,0.4-1.4,0.9c0.3,0.2,0.4-0.2,0.6-0.2C722.9,607.8,722,607.9,721.8,608.4"/>
		<path clip-path="url(#SVGID_22_)" fill="#F0D235" d="M740.2,601.9c-0.7-2.3,0.9-4.4,3-6.4c0.9-0.7,2.8-2.6,3.8-3.3
			c2.6-2.1,5.2-4.6,7.7-5.5c0.8,0.9,1.5,0.2,2.3,0.5c0.2,0,0.3-0.1,0.5-0.3c0.9,0.1,1.6,0.5,2.6,0.8c0.5,0.1,0.8,0,1.1,0.1
			c0.6,0.2,0.9,0.8,1.6,1.1c0.5,0.1,0.8,0.2,1.4,0.4c0.2,0.1,1.5,0.4,1.5,0.8c0.8,0.1,1.5,1.1,2.2,0.9c0.1,0.3,0.4,0.9,0.8,0.4
			c0,0.3,0.2,0.6,0.5,0.8l-0.2,0.2c0.9,2.3,1.1,4.4,1.5,6.6c0.2,0.1,0.1,0.3,0.4,0.5c-0.4,0.4-0.3,0.7-0.3,1.1
			c-0.6,0.9-1.3,0.8-2,0.9c-0.1,0.1-0.1,0.1,0,0.3c-0.3,0.1-0.5-0.1-0.8-0.1l-0.3,0.4c-1.7-0.1-3.7-1.6-5.4-1.6c-1-0.9-2-1.3-2.9-1
			c-0.7-0.6-1.3-0.4-1.9-0.8c-0.3,0-0.3,0.2-0.6,0.2c-0.6-0.7-1.3-0.2-2.1-0.3c-0.2,0.2,0.3,0.4-0.2,0.6c-0.8,0.5-2.8,2.6-3.6,3.5
			c-0.1-0.1-0.3,0.2-0.4-0.1l-0.6,0.7c2.9,1.5,5.6,1.6,8.6,3.6c1.1-0.2,1.8,1.3,2.3,2l-0.3,0.3c0.8,0.9,0.6,1.8,1.2,2.7
			c-0.6,0.5,0.2,0.8,0.1,1.3c-0.4,0-0.3,0.2-0.7,0.4c-0.2,0.2,0.2,0.3,0,0.5c0.2-0.1,0.5,0.1,0.7,0.3c-0.1,0.2-0.1,0.5-0.2,0.7
			c-0.1,0.4-0.2,0-0.5,0c-0.1,0.2,0,0.4,0.2,0.7c-0.2,0.4-0.2,0.7-0.7,0.9c-4.7-4.1-10.2-3.7-14.6-6.7c-0.3-0.1-1.4,1.3-1.7,1.1
			c-0.2,1-1.2,0.9-1.5,1.8c0.2,0.7,1.3,1.3,1.9,1.5c2.4,1.7,5,3.7,7.4,4.3c0.2,0.5,0.6,0.5,0.6,0.7c0.2-0.1,0.4,0,0.6-0.1
			c0.3,0.3,0.3,0.6,0.3,0.8c0.2,0.1,0.2-0.1,0.4,0.1c0,0.7,0.2,0.8,0.5,1.3c0.2,0.1,0-0.2,0.3-0.2c0.1,0.2,0,0.2,0.1,0.3
			c-0.1,0.4-0.3-0.2-0.4,0.2c0,0.3,0.5,0.3,0,0.7c0.7,0.2,1,0.7,1.1,1.4c-0.3,0.1,0.2-0.3-0.2-0.3c-0.3,0.6-0.1,0.5-0.4,0.8
			c0.2,0.2,0.3-0.3,0.5,0.2c-0.1,0.1-0.1,0.1,0,0.3c-0.1,0.2-0.3-0.4-0.4,0c0.5,0.3,0.1,0.8,0.7,1.1c-0.3,0.3-0.5,1-1,0.8
			c-0.1,0.2,0.2,0.4,0.2,0.7c-0.3,0.1-0.6-0.3-1,0.2c-0.2,0.2-0.1,0.3,0.1,0.4c-0.7,0-0.5,0.3-0.5,0.7c-0.3-0.3-0.7-0.4-1.1-0.3
			c-0.8-0.7-1.7-1.2-2.5-1.3c-2.5-2-5.2-2.9-7.5-4.8c-0.1,0.1-0.1,0.2,0,0.3c-0.7-0.4-1.7-1.5-2.7-1.3c-0.1-0.1-0.1-0.2,0-0.3
			c-1,0.4-1.7-0.9-2.4-1.1c-0.1-0.1-0.2,0.2-0.3,0.1c-0.2-0.1,0.1-0.2-0.1-0.3c0.1,0-0.9-0.5-0.8-0.5c-0.5-0.5-1.2-1.2-1.3-1.9
			c-0.7-0.5-0.9-1-0.9-1.6c-0.2-0.2-0.4-0.1-0.4-0.3c-0.7-1.8-1.5-3.6-1.2-5.6C734.1,606.7,738.3,603.3,740.2,601.9"/>
		<path clip-path="url(#SVGID_22_)" fill="#F0D235" d="M790.3,647.6c-1.9,1.1-4.2,1.8-5.5,3c-2.6,1.5-7.5,4-10.7,5.7
			c-1.1,0.5-2.1,1.3-2.8,1.2c-0.5,0.1-0.6-0.5-1.2-0.1c-0.2-0.5-0.6,0-0.3-0.5c-0.8-0.4-1.4-1.3-2-2c-1-0.4-1,0.3-1.3-0.8
			c-1.1-1-1.6-3.3-2.1-5.1l0.4-0.2c-0.3-0.3-0.3-0.1-0.3-0.5c0.1-0.2,0.2,0,0.3,0.2c2-3.3,7.9-9.2,10.7-12.2c3.5-3,7.3-6.7,9.2-10
			c-0.7-0.3-1.5,0.9-2.1,0.2c-1.6,0.9-4.1,2.1-4.8,3.2c-2,0.6-3.3,2.3-5.7,3.1c-1.7,1.8-7.5,3.8-9.7,5.5c-0.2-0.4-0.5,0.2-0.6-0.3
			c-0.1,0.3-0.2,0.5-0.2,0.5c-0.8,0.7-1.4,0.5-2.2,0.7c-0.5-0.3-1-0.6-1.7-0.4c-1.2-1.4-2.1-2-3.3-3.1c0-0.1,0-0.2,0.2-0.3
			c-0.7-1.2-0.6-2-1.6-2.5c0.1-0.3,0.4-0.6-0.1-1c0.6-0.6,1.3-0.4,1.4-1.3c0.2,0.4,0.5,0.1,0.5,0.5c3.6-1.9,10.3-6.2,13.7-8.8
			c0.3-0.3,0.3-0.1,0.5-0.3c1.7-1.3,4.2-2,5.6-3.5c0.3-0.4,0.2,0.3,0.4,0.1c0.5-0.1,0.2-0.3,0.4-0.5c0.6,0.3,2.2-1.2,2.9-1.5
			c0.1,0.1,0.3,0.2,0.3,0.3c2.6-1,5.8-1.7,8.1-0.4c0.7-0.2,1,0.4,2,0.8c0.6,0.2,1.2,0.4,1.6,0.6c1.8,1.3,2.9,3.6,4.3,6
			c-0.8-0.1,0.3,0.3-0.3,0.6c0.5,0.7,0.6,1.2,0.2,1.6c0.2,0,0.4,0.2,0.5,0.5c0,0.2,0.1,0.3,0.1,0.5c0.2,0.4-0.2,0.1-0.2-0.1
			c-0.2,0.2-0.2,0.5,0.1,0.5c0.1,0.6,0,1,0.1,1.5c-1.3,1.7-3.6,4.2-4.4,6.1c-1.2,0.5-0.8,1.5-2,2.2c0,0.1-0.1,0.2-0.1,0.3
			c0.2-0.1,0.5-0.2,0.7-0.3c1.2,0.3,6.4-3.3,7.6-3.6c1.2-0.2,2.2,0.5,3.2,0.5c0.4,0.3,0.6,0.7,1.1,1.2c0.1,0.1,0.5,0.1,0.7,0.3
			c0.3,0.1,0.3,0.5,0.5,0.7c0,0,0.1,0,0.1,0c0.1,0,0.1-0.1,0.2,0c0.1,0.1-0.4,1,0.2,0.4c0,0.5,0.2,1.1,0.3,1.6c-0.3,0.7-0.9,1.9-1,2
			c-0.2,0-1.2,0.7-2.2,1.3c-0.6,0.4-1.3,0.8-2,1.2l0.1,0.1c-1.5,0.7-4.5,2.2-5,2.8C792.3,646.4,791,646.8,790.3,647.6"/>
		<path clip-path="url(#SVGID_22_)" fill="#F0D235" d="M814.2,685.4c-0.9,0.2-0.8,1.4-1.6,1.7c-0.4,0.1-0.4-0.3-0.7-0.1
			c-0.4,0.4-1.2,0.8-1.4,0.1c-0.4,0-0.3,0.6-0.9,0.5c0.3-1.9,0.3-4.5-0.9-6.4c0-1-0.5-1.1-0.9-1.7c-0.7-2.1-0.9-4-2-5.3
			c-2.3,1.1-3.8,1.1-6.3,2.1c-0.6-0.3-1.2,0.5-1.9,0.3c0,0.4-0.6,0.3-0.4,0.8c-0.2-0.2-0.9-0.4-1.1,0.1c-0.3-0.1-0.6-0.1-0.8-0.4
			c-1.1,0.4-2.8,1.3-3.6,0.9c-0.6,0.5-2,0.3-3.1,1.2c-0.3,0.1-0.4-0.1-0.6-0.2c-1.3,0.8-4.5,1.3-6.2,1.3c-0.3,0.6-1.9,0.5-3.3,0.8
			c-1,0.2-1.9,0.5-2.5,0.2c-0.6,0.4-1,0.1-1.9,0.3c0.2-0.6-0.5-0.2-0.6-0.5c0-0.4,0.1-0.8-0.1-1.3c-0.5,0.1-0.5-0.5-1-0.5
			c-0.2-0.7,0.1-1,0.4-1.3c0.4-0.3,0.2,0.3,0.5,0.2c0.5-0.5-1.2-1.3-0.6-1.5c0.1-0.5-0.4,0.1-0.5-0.2c0-0.4,0.1-0.6,0.3-0.9
			c-0.4-0.6-0.4-2.3,0.5-2.5c-0.3-0.5,0.2-0.5,0.2-1c1.5-1.1,5.6-1.3,7.1-1.5c3.4,0,6.8-0.8,9.8-1.6c2.5-0.7,6.4-0.8,9.1-1.8
			c0.4-0.1,0.7-0.6,1.2-0.2c0.7-0.4,1.8-0.4,2.9-0.7c0.2-0.2,0.1-0.4,0.4-0.4c-0.3-0.1-0.5-0.3-0.5-0.5c-0.1-0.4,0.5-0.7,0-0.9
			c-0.1-0.3,0.3-0.3,0.2-0.6c-0.7-1.6-0.3-3-0.4-4.5c0.3-0.2,0.4-0.3,0.8-0.5c0-0.3,0.1-0.5,0-1c0.3,0,0.2-0.2,0.5-0.2
			c-0.2-0.3,0-0.4,0-0.6c0.4-0.1,0.7-0.9,1.3-0.5c0.6-0.4,0.6-1.2,1.6-1.4c0.1-0.3-0.2-0.3,0-0.6c1,0.2,1.3-0.6,2.4-0.4
			c0,0.3-0.5,0.3,0,0.5c0.6,0.1-0.2-0.7,0.3-0.6c0.4,0.5,0.7,1.1,0.8,1.9c-0.2,0.6-0.5,1.3-0.1,2.2c-0.5,0.6-0.2,1.6-0.6,2.2
			l0.3,1.8c0,0.2,0.2,0.1,0.2,0.3c1.5,5,3.4,9.3,5,14.1c0.7,0.9,1.4,1.9,1.2,3.2c-0.1,0.5-0.8,0.8-0.5,1.7c-0.4,0.3-0.4,0.8-0.4,1.3
			c-1,0.7-1.1,2-1.9,2.8C814,685.5,814.3,685.6,814.2,685.4"/>
		<path clip-path="url(#SVGID_22_)" fill="#F0D235" d="M626,629.2l1.3,28.7l-13.1,28.6l6,7.1l-8.7,18.8l9.1,6.6l1.7,15
			c0,0,6.6,16.9,7.4,17.7c0.8,0.7,20.6,13.9,20.6,13.9l27.2-1.9l9.2-4l10.7-3.3l7.4-2.7c0,0-4-9-2.8-8.7c1.2,0.2,12.7,0,12.7,0
			s4.8-19.2,5.5-19.1c0.7,0.1,28.2,1.5,28.2,1.5l7.7-14.6l-19.6-14.8c0,0-7.6-19-7.7-19.6c-0.1-0.6,0-27,0-27s4.6-25.9,4.4-26
			c2.9-8.9,8-24.8,8.7-27.4c1-3.6-5.5-8.4-5.5-8.4l-32.7,20.6c0,0-15.6,11.9-17,13.2c-1.5,1.2-23.9,2.2-23.9,2.2l-9.5-12
			c-3.8-6-10.2-16.1-10.2-16.1l-13.3-14.6c0,0-5.3,11.7-5.7,12.4C624.1,595.8,625.3,618.2,626,629.2L626,629.2z"/>
		<path clip-path="url(#SVGID_22_)" fill="#E6B821" d="M719.7,679.3c-0.9-10.2-2-20.5-6.2-29.8c-4.2-9.3-12.2-17.5-22.2-19.3
			c-2.5-0.5-5-0.5-7.5-0.6c-12.6-0.2-34.5-0.7-40.2,14c-1.4,3.6-1.3,7.6-1.2,11.5c0.1,3.5-1.3,6.5-1.4,10.1
			c-0.1,3.9,0.8,7.8,2.7,11.2c3.7,6.6,10.6,10.7,16.2,15.9c4.4,4.1,7.3,8.1,12.7,11.2c5.6,3.3,11.6,5.7,17.8,7.6
			c8,2.4,16.2,4,24.4,5.1c10.5,1.5,29.1,5.8,18.9-11.3c-3.6-6-6.2-12.1-8.7-18.5c-1.1-2.6-2.1-5.3-3.2-8c-2-4.9-3.9-9.8-6.1-14.6
			c-7.3-15.4-19.3-30.6-36.2-33.4c-5-0.8-10.1-0.5-15,0.3c-0.5,0.1-1,0.2-1.5,0.3"/>
		<path clip-path="url(#SVGID_22_)" fill="#E6B821" d="M651.2,726.6c3.2,1.7,6.9,1.9,10.5,2.1c4.2,0.2,8.4,0.5,12.6,0.7
			c3.3,0.2,6.8,0.4,9.7,2.2c5.1,3.2,6.2,10.6,3.5,16c-2.7,5.4-8.2,8.8-14,10.5c-9.8,3-20.8,1.8-29.7-3.2c-8.9-5-15.6-13.8-18.1-23.7
			c-0.7-2.7-1.1-5.7-0.2-8.4c0.6-2,1.9-3.9,2.3-5.9c0.4-2.1-0.3-4.7-2.4-5.2c-1.4-0.4-2.9,0.4-4.3,0c-3.4-0.8-2.8-5.7-1.5-8.9
			l5.4-13c0.4-1,0.9-2.1,0.7-3.2c-0.1-1-0.7-1.9-0.9-2.9c-0.5-3,3.2-5.8,5.9-5.9c3.8-0.2,3.7,1.7,5.9,4.8
			C645.9,695.4,636.1,718.6,651.2,726.6"/>
		<path clip-path="url(#SVGID_22_)" fill="#F4E678" d="M720.2,650.7c1.8-2.8,2.1-7.3,2.8-10.4c1.2-4.9,2.3-9.8,3.5-14.7
			c0.9-4,1.9-8,2.3-12c0.3-3.1,0.2-6.3-0.2-9.4c-3.7,4.1-6.1,9.1-8.9,13.9c-3.6,6.1-8.6,11.2-12,17.3c-0.7,1.2-1.4,2.5-1.5,4
			c-0.2,2.7,1.7,5.1,3.8,6.8c2.1,1.7,4.6,3,6.2,5.1c0.3,0.4,0.6,0.8,1,1c0.8,0.4,1.7,0,2.3-0.6C719.8,651.3,720,651,720.2,650.7"/>
		<path clip-path="url(#SVGID_22_)" fill="#E6B821" d="M702.6,644.7c0,0,0.1,0,0.1,0c1.8,0.3,3.8,0.2,5.1-1.1c1-0.9,1.4-2.2,1.8-3.5
			c1.1-3.3,2.5-6.5,4.2-9.5c4.9-8.9,12-16.5,16.1-25.8c0.4-0.9,0.7-2,0-2.7c-0.8-0.7-2-0.2-2.9,0.4c-3.7,2.4-7,5.4-10.8,7.7
			c-4.1,2.4-8.3,4.8-12.2,7.3c-4.7,3-8.5,7.6-13.7,9.6c-5.4,2.1-11.4,1.1-17.1,1.5c-3,0.2-6,0.8-8.9,1.8c-1.1,0.4-2.5,1.2-2.4,2.4
			c3.1,0.5,6.2-0.5,9.3-1.1c3.9-0.8,7.9-0.9,11.9-0.5c1.3,0.2,2.6,0.4,3.8,1c1,0.5,1.9,1.4,2.8,2.2
			C694.1,638.2,696.5,643.6,702.6,644.7"/>
		<path clip-path="url(#SVGID_22_)" fill="#F4E678" d="M633.3,598.3c-2.4,1.5-2.9,4.7-3.1,7.5c-0.9,15.5,4.5,30.8,4,46.4
			c-0.1,3.3-0.5,6.7,0,10c0.5,3.3,2,6.6,4.8,8.5c2.6-0.9,3.1-4.3,3.2-7.1c0.2-6.9,0.6-14.7,5.1-20.5c3.3-4.3,10.5-6.7,9.2-13.2
			c-1.2-5.9-6.7-13.3-10-18.5C645.3,609.5,636.2,596.4,633.3,598.3"/>
		<path clip-path="url(#SVGID_22_)" fill="#E6B821" d="M646,622.9c3.9,6.6,9.5,12.7,16.9,14.5c0.3-1.6-0.8-3.2-1.7-4.5l-5.8-8.1
			c-2-2.8-4-5.6-6.5-7.9c-1.1-1.1-2.4-2.1-3.4-3.3c-3-3.6-3.6-8.6-6.4-12.4c-1.1-1.6-5.1-4.8-7-2.3c-1.3,1.7,2.1,3.1,3.2,4.4
			C640,608.8,642.3,616.7,646,622.9"/>
		<path clip-path="url(#SVGID_22_)" fill="#F4E678" d="M690.6,715.9c0.5,0,1-0.1,1.5-0.2c5.2-0.8,10,0.2,14.9,1.9
			c1.6,0.5,3.3,1.4,3.9,2.9c3.7,10.8-24.5,2.3-27.6,1.3c-2.9-0.9-6.7-2.1-8.3-4.9C678.6,714.6,686.3,716.2,690.6,715.9"/>
		<path clip-path="url(#SVGID_22_)" fill="#BA792A" d="M632.4,721.6c-0.5-4.2-1.1-8.3-1.6-12.5c-0.1-0.7-0.6-1.1-1.3-1
			c-3.1,0.7-6.2,1.3-9.2,2c0.4,0.4,0.8,0.8,1.3,1.3c2.4-8.2,5.8-16.1,10-23.5c0.4-0.6,0-1.3-0.6-1.5c-2.5-1-5-1.4-7.7-1.1
			c0.1,0.7,0.2,1.3,0.3,2c1.3-0.5,1.8-2.1,2.3-3.2c1-2.1,1.7-4.3,2.5-6.5c2.2-6,5-11.9,6.6-18.1c0.3-1.3-1.6-1.8-2-0.5
			c-1.5,5.6-4,10.7-5.9,16.1c-0.7,1.9-1.3,3.7-2.1,5.6c-0.3,0.7-1.3,4.3-2.1,4.6c-1,0.4-1,2.1,0.3,2c2.5-0.2,4.8,0.1,7.2,1.1
			c-0.2-0.5-0.4-1-0.6-1.5c-4.3,7.6-7.7,15.6-10.2,24c-0.2,0.8,0.5,1.4,1.3,1.3c3.1-0.7,6.2-1.3,9.2-2c-0.4-0.3-0.9-0.7-1.3-1
			c0.5,4.2,1.1,8.3,1.6,12.5C630.5,722.9,632.6,722.9,632.4,721.6"/>
		<path clip-path="url(#SVGID_22_)" fill="#BA792A" d="M663.3,632c6.3-2.4,13.2-3.1,19.8-1.7c6.6,1.3,12.6,4.6,18.3,8.1
			c1.1,0.7,2.1-1.1,1-1.8c-6-3.8-12.4-7.2-19.5-8.5c-6.8-1.2-13.8-0.6-20.3,1.9C661.5,630.4,662.1,632.4,663.3,632"/>
		<path clip-path="url(#SVGID_22_)" fill="#BA792A" d="M689.1,629.7c13.9-9.2,27.9-18.3,41.8-27.5c-0.5-0.3-1-0.6-1.5-0.9
			c0.4,11.1-2.7,21.6-5.4,32.2c-2.7,10.4-4.2,20.8-2.5,31.5c0.2,1.3,2.2,0.7,2-0.5c-3.5-21.8,8.8-41.6,8-63.1c0-0.7-0.9-1.3-1.5-0.9
			c-13.9,9.2-27.9,18.3-41.8,27.5C687,628.7,688,630.5,689.1,629.7"/>
		<path clip-path="url(#SVGID_22_)" fill="#BA792A" d="M696.4,660.7c2.8,11.9,12.4,21.8,20.7,30.3c8.9,9.1,18.7,17.1,29.3,24.1
			c1.1,0.7,2.1-1,1-1.8c-10.2-6.7-19.6-14.5-28.2-23.2c-8.3-8.4-18.1-18.2-20.9-30C698,658.9,696.1,659.4,696.4,660.7"/>
		<path clip-path="url(#SVGID_22_)" fill="#F4E678" d="M682,678.5c1.4-2.9,0.3-6.1-1.3-8.6c-1.4-2.3-5.5-3.7-8.1-3.9
			c-4.4-0.2-8.6,3.2-9.3,7.6c-0.2,1.3,0.1,2.7,0.6,3.9c1.3,3.1,4.3,5.4,7.5,6c3.3,0.6,6.9-0.6,9.1-3
			C681.1,679.9,681.6,679.2,682,678.5"/>
		<path clip-path="url(#SVGID_22_)" fill="#BA792A" d="M682.9,679c1.8-4,0.1-9.4-3.5-11.8c-3.1-2.1-7.4-2.9-10.9-1.5
			c-3.7,1.5-6.7,5.4-6.3,9.5c0.5,4.3,4.1,7.9,8.2,9.1C675.1,685.5,680.6,683.4,682.9,679c0.6-1.2-1.2-2.2-1.8-1
			c-1.6,3.2-5.3,4.9-8.8,4.6c-3.3-0.3-6.3-2.6-7.5-5.7c-1.4-3.4,0.4-6.9,3.4-8.7c2.7-1.6,5.9-1.4,8.7-0.1c1.7,0.8,2.8,1.8,3.6,3.4
			c1,2,1.6,4.4,0.7,6.5C680.6,679.2,682.3,680.2,682.9,679"/>
		<path clip-path="url(#SVGID_22_)" fill="#BA792A" d="M676.3,673.4c-1.1,0.3-2,1.2-2.3,2.3c-0.4,1.1-0.1,2.3,0.6,3.2
			c0.3,0.4,0.9,0.3,1.2,0.2c2.8-1.4,3-5.9,0.4-7.6c-0.7-0.4-1.3,0-1.8,0.4c-0.4,0.3-0.8,0.7-1,1.1c-0.5,0.9-0.6,2,0,2.9
			c0.5,0.9,1.6,1.5,2.6,1.2c0.9-0.3,1.5-1.1,1.6-2.1c0-0.5-0.1-1-0.5-1.4c-0.3-0.4-0.8-0.5-1.3-0.3c-0.3,0.1-0.5,0.3-0.7,0.5
			c-0.8,0.8-1,2.1-0.4,3.1c0.3,0.5,0.9,0.7,1.4,0.4c0.5-0.3,0.7-0.9,0.4-1.4c0,0-0.1-0.1-0.1-0.1c0.1,0.1,0.1,0.2,0,0
			c0,0,0-0.1,0-0.1c0-0.1,0,0,0,0.1c0,0,0-0.4,0-0.2c0,0.2,0-0.1,0-0.1c0-0.2-0.1,0.1,0,0c0,0,0-0.1,0.1-0.1c-0.1,0.1-0.1,0.1,0,0
			c0,0,0,0,0-0.1c0.1-0.1,0.1-0.1,0,0c0-0.1,0.2-0.1,0.3-0.1h-1c-0.1-0.1-0.1-0.1-0.1-0.1c0.1,0.1,0,0-0.1-0.1c0,0.1,0.1,0.2,0,0
			c0,0,0,0.2,0,0c0-0.2,0,0,0,0c0,0.2,0.1-0.2,0,0c0,0-0.1,0.2-0.1,0.2c0-0.1,0.1-0.2,0,0c0,0-0.1,0.1-0.1,0.1c0-0.1,0.1-0.2,0,0
			c-0.1,0.2,0.2-0.1,0,0c-0.1,0.1,0.2-0.1,0.1,0c-0.2,0.1,0.1,0,0.1,0c-0.1,0-0.1,0-0.2,0c0,0,0.1,0,0.1,0c0,0-0.1,0-0.1,0
			c-0.1,0,0,0,0.1,0c-0.1,0-0.1-0.1-0.2-0.1c-0.1,0,0,0,0.1,0.1c0,0-0.1,0-0.1-0.1c0,0-0.1-0.1-0.1-0.1c0.2,0.2,0,0,0,0
			c0,0-0.1-0.2-0.1-0.1c0.1,0.1,0-0.1,0-0.1c0-0.2-0.1-0.1,0,0c0,0,0-0.2,0-0.2c0-0.2-0.1,0.2,0-0.1c0-0.1,0-0.1,0.1-0.2
			c0-0.1-0.1,0.1,0,0c0-0.1,0.1-0.1,0.1-0.2c0.1-0.2-0.1,0.1,0.1-0.1c0.1-0.1,0.1-0.1,0.2-0.2c0.1-0.1,0.1-0.1,0.2-0.2
			c0.2-0.2-0.2,0.1,0.1-0.1c0.1-0.1,0.3-0.2,0.5-0.3h-1c0.1,0,0.1,0.1,0.2,0.1c0.2,0.1-0.2-0.2,0,0c0.1,0.1,0.2,0.2,0.3,0.3
			c0.1,0.1-0.1-0.2,0,0c0,0.1,0.1,0.1,0.1,0.2c0,0.1,0.1,0.3,0.2,0.3c-0.1-0.1-0.1-0.2,0-0.1c0,0,0,0,0,0.1c0,0.1,0,0.1,0.1,0.2
			c0,0.1,0.1,0.3,0.1,0.4c0,0.2,0-0.1,0,0c0,0.1,0,0.2,0,0.2c0,0.1,0,0.3,0,0.4c0,0.1,0,0.1,0,0.2c0,0.2,0-0.2,0,0
			c0,0.1,0,0.3-0.1,0.4c0,0.1,0,0.1-0.1,0.2c0,0.1-0.1,0.2,0,0.1c0.1-0.1,0,0,0,0.1c0,0.1-0.1,0.1-0.1,0.2c0,0.1-0.2,0.2-0.2,0.3
			c0.1-0.1,0.1-0.1,0.1-0.1c0,0,0,0.1-0.1,0.1c0,0-0.1,0.1-0.1,0.1c0,0-0.1,0.1-0.1,0.1c-0.2,0.1,0.2-0.1,0,0
			c-0.1,0.1-0.3,0.2-0.4,0.2c0.4,0.1,0.8,0.1,1.2,0.2c0.2,0.2,0,0,0-0.1c0,0,0-0.1-0.1-0.1c0-0.1,0-0.1,0,0.1c0,0-0.1-0.2-0.1-0.3
			c-0.1-0.3,0,0.1,0-0.1c0,0,0-0.5,0-0.5c0,0.2,0,0.2,0,0.1c0,0,0-0.1,0-0.1c0-0.1,0-0.2,0.1-0.3c0,0,0-0.1,0-0.1
			c-0.1,0.1-0.1,0.2,0,0.1c0-0.1,0.1-0.2,0.1-0.2c0,0,0.1-0.2,0.1-0.2c-0.1,0.1-0.1,0.1,0,0c0,0,0.1-0.1,0.1-0.1
			c0,0,0.2-0.2,0.2-0.2c-0.1,0.1-0.1,0.1,0,0c0,0,0.1-0.1,0.1-0.1c0,0,0.1,0,0.1-0.1c0.1,0,0.1,0-0.1,0c0,0,0.2-0.1,0.3-0.1
			c0.5-0.1,0.9-0.7,0.7-1.3C677.4,673.6,676.9,673.3,676.3,673.4"/>
		<path clip-path="url(#SVGID_22_)" fill="#F4E678" d="M708.4,668.4c-1.7,3.8,0.9,8.9,4.9,9.9c2.5,0.6,5.2-0.3,6.8-2.2
			c1.6-1.9,1.9-4.9,0.6-7.1c-0.7-1.2-1.8-2.4-3.1-3c-1-0.5-2-0.7-3.1-0.9c-0.6-0.1-1.2-0.3-1.9-0.2
			C711.1,665.2,709,666.9,708.4,668.4"/>
		<path clip-path="url(#SVGID_22_)" fill="#BA792A" d="M707.4,668.2c-1.1,2.6-0.5,5.7,1.1,8c1.8,2.5,4.7,3.8,7.8,3.3
			c3.2-0.5,5.8-3.1,6.2-6.3c0.4-3.5-1.8-6.9-5-8.2c-1.9-0.7-4.2-1.4-6.1-0.6c-1.6,0.7-3.1,2-3.9,3.6c-0.2,0.5-0.1,1.1,0.4,1.4
			c0.4,0.3,1.2,0.1,1.4-0.4c0.5-1.1,1.5-2,2.6-2.6c1.3-0.7,2.6-0.2,3.9,0.1c2.6,0.7,4.8,3,4.8,5.8c-0.1,2.5-1.9,4.5-4.3,5.1
			c-2.2,0.5-4.4-0.3-5.8-2c-1.5-1.8-2-4.4-1.1-6.6c0.2-0.5-0.2-1.1-0.7-1.3C708,667.3,707.6,667.7,707.4,668.2"/>
		<path clip-path="url(#SVGID_22_)" fill="#BA792A" d="M742.8,718c-5.3,2.4-11.7,2.1-17.3,1.6c-6.6-0.6-13.1-1.9-19.5-3.5
			c-6.5-1.5-13-3.1-19.1-5.9c-7.2-3.3-13.9-7.8-19.9-12.9c-1-0.8-2.5,0.6-1.4,1.4c6.4,5.5,13.4,10.2,21.2,13.6
			c6.2,2.7,12.8,4.3,19.4,5.9c6.6,1.5,13.3,2.9,20.1,3.4c5.9,0.5,12.2,0.5,17.6-2C745,719.2,744,717.4,742.8,718"/>
		<path clip-path="url(#SVGID_22_)" fill="#BA792A" d="M661.4,697.6c1.8,3.9,3.1,8.1,5.3,11.8c1.9,3.2,4.8,6.9,8.6,7.9
			c2.1,0.5,4.3,0.3,6.4,0.3c2.5-0.1,4.9-0.2,7.4-0.4c5-0.4,9.5-0.6,14.4,0.6c1.3,0.3,1.8-1.7,0.5-2c-4-0.9-7.8-1.3-11.9-0.9
			c-4.6,0.4-9.3,0.9-13.9,0.8c-9.2-0.2-12.2-12.2-15.2-19C662.7,695.3,660.9,696.4,661.4,697.6"/>
		<path clip-path="url(#SVGID_22_)" fill="#BA792A" d="M637.7,663.8c-3.6-11.2-5.1-22.9-6-34.7c-0.4-5.7-0.7-11.4-0.9-17
			c-0.2-5.6-0.4-11.3,1.6-16.7c-0.6,0.2-1.1,0.3-1.7,0.5c8.4,7.3,14.5,16.4,20.4,25.8c4.7,7.6,10,16.5,19.4,18.6
			c1.3,0.3,1.8-1.7,0.5-2c-10-2.2-15.1-12.8-20.2-20.7c-5.3-8.4-11.1-16.5-18.7-23.1c-0.6-0.5-1.4-0.3-1.7,0.5
			c-1.9,5.1-1.9,10.4-1.7,15.8c0.2,6.2,0.5,12.3,1,18.5c0.8,11.9,2.4,23.8,6.1,35.2C636.1,665.6,638.1,665.1,637.7,663.8"/>
		<path clip-path="url(#SVGID_22_)" fill="#BA792A" d="M661.2,661.6c3.2-2.6,7.6-3.4,11.5-2c3.9,1.3,6.9,4.3,9.8,7
			c1,0.9,2.4-0.5,1.4-1.4c-3.3-3.2-6.9-6.5-11.4-7.8c-4.5-1.3-9.2-0.2-12.8,2.8C658.8,661,660.2,662.5,661.2,661.6"/>
		<path clip-path="url(#SVGID_22_)" fill="#BA792A" d="M684.8,665.9c-2.3-3.3-4.6-6.7-7.2-9.9c-2.3-2.9-5.1-5.4-8.2-7.5
			c-0.3-0.2-0.7-0.2-1,0c-5.3,2.9-11.1,6.4-11.8,13.1c-0.1,1.3,1.9,1.3,2,0c0.5-5.8,6.2-8.9,10.7-11.3h-1
			c6.4,4.2,10.3,10.5,14.7,16.6C683.8,668,685.5,667,684.8,665.9"/>
		<path clip-path="url(#SVGID_22_)" fill="#BA792A" d="M658.9,656.7c-0.7,1.6-1,3.4-0.9,5.2c0,0.4,0.2,0.8,0.6,0.9
			c0.4,0.1,0.9,0.1,1.1-0.2c0.8-0.9,1.4-2,1.6-3.2c0.1-0.5-0.1-1.1-0.7-1.3c-0.5-0.1-1.2,0.2-1.3,0.7c0,0.2-0.1,0.5-0.2,0.7
			c0,0.1-0.1,0.2-0.1,0.3c0,0-0.1,0.2,0,0.1c0.1-0.1,0,0.1,0,0.1c-0.1,0.2-0.2,0.4-0.3,0.6c-0.1,0.1-0.1,0.2-0.2,0.3
			c-0.1,0.1,0,0,0,0c0,0-0.1,0.1-0.1,0.2l1.7,0.7c0-0.4,0-0.8,0-1.2c0-0.2,0-0.3,0-0.5c0,0,0-0.4,0-0.2c0-0.1,0-0.2,0-0.3
			c0.1-0.4,0.1-0.7,0.2-1.1c0.1-0.2,0.1-0.4,0.2-0.6c0-0.1,0.1-0.2,0.1-0.2c0,0,0.2-0.4,0.1-0.2c0.1-0.3,0.2-0.5,0.1-0.8
			c-0.1-0.2-0.2-0.5-0.5-0.6C659.9,656.1,659.2,656.2,658.9,656.7"/>
		<path clip-path="url(#SVGID_22_)" fill="#BA792A" d="M662.7,652.6c-0.9,2.4-1.9,4.9-2.8,7.3c-0.4,1,1,1.7,1.7,1
			c1.1-1.2,1.9-2.7,2.4-4.3c0.4-1.3-1.6-1.8-2-0.5c-0.4,1.3-1,2.4-1.9,3.4c0.6,0.3,1.1,0.7,1.7,1c0.9-2.4,1.9-4.9,2.8-7.3
			c0.2-0.5-0.2-1.1-0.7-1.3C663.4,651.7,662.9,652.1,662.7,652.6"/>
		<path clip-path="url(#SVGID_22_)" d="M663.7,653.4c-0.4,1-0.8,2.1-1.2,3.1c-0.1,0.2,0,0.6,0.1,0.8c0.1,0.2,0.3,0.3,0.5,0.4
			c0.5,0.2,1,0,1.3-0.4c0.4-0.7,0.9-1.5,1.3-2.2c0.3-0.5,0.1-1.1-0.4-1.4c-0.5-0.3-1.1-0.1-1.4,0.4l-1.3,2.2
			c0.6,0.3,1.2,0.5,1.9,0.8c0.4-1,0.8-2.1,1.2-3.1c0.1-0.2,0-0.6-0.1-0.8c-0.1-0.2-0.4-0.4-0.6-0.5c-0.3-0.1-0.6,0-0.8,0.1
			C664,652.9,663.8,653.1,663.7,653.4"/>
		<path clip-path="url(#SVGID_22_)" fill="#BA792A" d="M664.8,652.4c-1.3,1.7-2.4,3.5-3.3,5.4c-0.2,0.5-0.2,1,0.3,1.3
			c0.4,0.3,1,0.3,1.3-0.1c0.5-0.5,1-1.1,1.5-1.6c0.4-0.4,0.4-1.1,0-1.4c-0.4-0.4-1.1-0.4-1.4,0c-0.5,0.5-1,1.1-1.5,1.6
			c0.5,0.4,1.1,0.8,1.6,1.2c0.4-0.9,0.9-1.8,1.4-2.6c0.3-0.4,0.5-0.8,0.8-1.3c0.1-0.2,0.3-0.4,0.4-0.6c0.1-0.1,0.1-0.2,0.2-0.3
			c0,0,0.1-0.1,0.1-0.1c-0.1,0.1-0.1,0.1,0,0c0.2-0.2,0.3-0.4,0.3-0.7c0-0.3-0.1-0.6-0.3-0.7C665.9,652.1,665.2,651.9,664.8,652.4"
			/>
		<path clip-path="url(#SVGID_22_)" d="M667.8,652.1c-1.1,1.1-2,2.3-2.6,3.7c-0.2,0.4-0.2,0.9,0.2,1.2c0.1,0.1,0.3,0.2,0.5,0.3
			c0.2,0.1,0.6,0,0.8-0.1c0.8-0.6,1.5-1.3,2-2.2c0.3-0.5,0.1-1.1-0.4-1.4c-0.5-0.3-1.1-0.1-1.4,0.4c-0.1,0.2-0.2,0.3-0.3,0.5
			c0,0-0.1,0.1-0.1,0.1c0,0,0.1-0.2,0.1-0.1c-0.1,0.1-0.1,0.2-0.2,0.2c-0.1,0.1-0.3,0.3-0.4,0.4c-0.1,0.1-0.1,0.1-0.2,0.2
			c0,0-0.1,0.1-0.1,0.1c0,0,0.1-0.1,0.1-0.1c0,0-0.1,0-0.1,0.1l1.4,1.4c0.3-0.6,0.7-1.2,1.1-1.8c0-0.1,0.1-0.1,0.1-0.2
			c0,0,0.1-0.1,0.1-0.1c0,0-0.1,0.2-0.1,0.1c0.1-0.1,0.2-0.3,0.3-0.4c0.2-0.3,0.5-0.5,0.7-0.8c0.4-0.4,0.4-1.1,0-1.4
			C668.8,651.8,668.2,651.7,667.8,652.1"/>
		<path clip-path="url(#SVGID_22_)" d="M669,652.1c-0.6,0.9-1.2,1.8-1.8,2.6c-0.1,0.1-0.1,0.4-0.1,0.5c0,0.2,0.1,0.4,0.2,0.6
			c0.2,0.3,0.7,0.5,1.1,0.4c0.4-0.1,0.8-0.3,1.1-0.6c0.3-0.3,0.5-0.7,0.7-1.1c0.1-0.2,0-0.6-0.1-0.8c-0.1-0.2-0.4-0.4-0.6-0.5
			c-0.3-0.1-0.6,0-0.8,0.1c-0.2,0.2-0.4,0.3-0.5,0.6c0,0,0,0,0,0.1c0-0.1,0.1-0.2,0.1-0.2c-0.1,0.1-0.1,0.3-0.2,0.4
			c0.1-0.1,0.1-0.1,0.2-0.2c-0.1,0.1-0.2,0.2-0.3,0.3c0.1-0.1,0.1-0.1,0.2-0.2c-0.1,0.1-0.2,0.2-0.4,0.2c0.1,0,0.2-0.1,0.2-0.1
			c0,0-0.1,0-0.1,0c0.4,0.5,0.8,1,1.2,1.5c0.6-0.9,1.2-1.8,1.8-2.6c0.1-0.2,0.2-0.5,0.1-0.8c-0.1-0.2-0.2-0.5-0.5-0.6
			C669.9,651.4,669.3,651.6,669,652.1"/>
		<path clip-path="url(#SVGID_22_)" fill="#BA792A" d="M669.6,652.1c-0.8,1.4-1.6,2.7-2.4,4.1c-0.3,0.4-0.1,1,0.3,1.3
			c0.4,0.3,1,0.3,1.3-0.1c0.4-0.4,0.7-0.7,1.1-1.1c0.2-0.2,0.4-0.3,0.6-0.5c0,0,0.1-0.1,0.1-0.1c0.1-0.1-0.2,0.1,0,0
			c0.1-0.1,0.2-0.2,0.4-0.3c0.2-0.2,0.4-0.3,0.5-0.6c0.1-0.2,0-0.6-0.1-0.8c-0.3-0.4-0.9-0.7-1.4-0.4c-0.9,0.7-1.8,1.4-2.6,2.3
			c0.5,0.4,1.1,0.8,1.6,1.2c0.8-1.4,1.6-2.7,2.4-4.1c0.3-0.5,0.1-1.1-0.4-1.4C670.5,651.4,669.8,651.6,669.6,652.1"/>
		<path clip-path="url(#SVGID_22_)" fill="#BA792A" d="M669.5,653.9c-0.3,0.9-0.5,1.9-0.8,2.8c-0.1,0.4,0.1,0.9,0.5,1.2
			c0.2,0.1,0.3,0.1,0.5,0.1c0.3,0,0.5-0.1,0.7-0.3l2.6-2c0.2-0.1,0.3-0.5,0.3-0.7c0-0.3-0.1-0.6-0.3-0.7c-0.2-0.2-0.5-0.3-0.7-0.3
			c-0.1,0-0.2,0-0.3,0c-0.2,0-0.3,0.1-0.5,0.3l-2.6,2c0.6,0.3,1.1,0.7,1.7,1c0.3-0.9,0.5-1.9,0.8-2.8c0.1-0.5-0.2-1.1-0.7-1.3
			C670.2,653.1,669.6,653.4,669.5,653.9"/>
		<path clip-path="url(#SVGID_22_)" fill="#BA792A" d="M672.3,654.8c-0.3,0.7-0.7,1.5-1,2.2c-0.2,0.5-0.2,1,0.3,1.3
			c0.4,0.3,1,0.3,1.3-0.1c0.6-0.6,1.2-1.1,1.8-1.7c-0.6-0.3-1.1-0.7-1.7-1c-0.1,0.2-0.1,0.4-0.2,0.6c0,0.1-0.1,0.2-0.1,0.3
			c0,0.1-0.1,0.1,0,0c0,0,0,0.1-0.1,0.1c-0.2,0.4-0.4,0.8-0.7,1.1c-0.5,0.7,0.2,1.5,0.9,1.5c0.7,0,1.3-0.5,1.8-0.9
			c0.1-0.1-0.2,0.1,0,0c0,0,0.1-0.1,0.1-0.1c0.1-0.1-0.2,0.1,0,0c-0.1,0-0.1,0-0.2,0c0.1,0,0.1,0,0,0c-0.1,0-0.2,0-0.2-0.1
			c-0.1-0.1-0.1-0.1-0.1,0c0.1,0.1,0,0,0-0.1c0,0.1,0,0.1,0,0c-0.1-0.1,0,0.1,0,0.1c0,0.1,0.1,0.2,0.1,0.2c0.6,1.5,1.8,2.7,3.4,3.1
			c0.5,0.1,1.1-0.2,1.3-0.7c0.1-0.5-0.2-1.1-0.7-1.3c-0.2,0-0.3-0.1-0.5-0.2c0.2,0.1,0,0-0.1,0c-0.1,0-0.2-0.1-0.2-0.1
			c-0.1,0-0.1-0.1-0.2-0.1c-0.1,0-0.2-0.2-0.1,0c-0.1-0.1-0.3-0.2-0.4-0.4c-0.1-0.1-0.1-0.1-0.2-0.2c-0.2-0.2,0.1,0.1,0-0.1
			c-0.1-0.1-0.2-0.3-0.3-0.4c0-0.1-0.1-0.2,0-0.1c0-0.1-0.1-0.2-0.1-0.2c-0.1-0.2-0.1-0.4-0.3-0.7c-0.5-0.8-1.5-1.1-2.3-0.6
			c-0.3,0.2-0.5,0.4-0.8,0.6c-0.2,0.2,0.1,0,0,0c-0.1,0-0.1,0.1-0.2,0.1c-0.2,0.1,0.1,0,0,0c-0.2,0.1,0.2,0,0,0
			c0.3,0.5,0.6,1,0.9,1.5c0.6-0.8,1-1.7,1.2-2.6c0.3-1-1-1.7-1.7-1c-0.6,0.6-1.2,1.1-1.8,1.7c0.5,0.4,1.1,0.8,1.6,1.2
			c0.3-0.7,0.7-1.5,1-2.2c0.2-0.5,0.2-1.1-0.4-1.4C673.2,654.2,672.5,654.3,672.3,654.8"/>
		<path clip-path="url(#SVGID_22_)" fill="#BA792A" d="M709.7,661.1c0.5-1.5,2-2.6,3.5-2.6c1.5,0,3,1.1,3.5,2.5
			c0.2,0.5,0.7,0.9,1.3,0.7c0.5-0.1,0.9-0.7,0.7-1.3c-0.8-2.3-3-4.1-5.5-4c-2.5,0-4.7,1.7-5.5,4.1c-0.2,0.5,0.2,1.1,0.7,1.3
			C709,661.9,709.5,661.6,709.7,661.1"/>
		<path clip-path="url(#SVGID_22_)" fill="#BA792A" d="M709.4,663.8c1.4-2.4,4.1-3.9,6.9-3.7c0.6,0,1-0.5,1-1c0-0.6-0.5-1-1-1
			c-3.5-0.2-6.9,1.7-8.6,4.7C707,663.9,708.7,664.9,709.4,663.8"/>
		<path clip-path="url(#SVGID_22_)" fill="#BA792A" d="M641.5,745.5c8.8,4,15.4,12.7,25.4,13.9c4.7,0.5,8-1.3,11.9-3.5
			c5.1-2.8,10.6-4.6,16.4-5.2c0.6-0.1,1.3-0.6,1-1.3c-1-2.5-1.5-5.1-1.5-7.8c-0.3,0.3-0.5,0.7-0.8,1c5.6-1.8,11.3-3.3,17.1-4.2
			c0.4-0.1,0.7-0.6,0.8-1c0.2-6.2,0.8-12.3,2.1-18.4c0.3-1.3-1.7-1.8-2-0.5c-1.3,6.3-2,12.6-2.2,19c0.3-0.3,0.5-0.7,0.8-1
			c-5.8,1-11.5,2.4-17.1,4.2c-0.4,0.1-0.8,0.5-0.8,1c0,2.9,0.5,5.6,1.6,8.4c0.3-0.4,0.7-0.9,1-1.3c-4.6,0.5-9,1.6-13.2,3.4
			c-4.4,1.9-8.3,5.5-13.3,5.4c-10.3-0.1-17.4-9.7-26.2-13.7C641.4,743.2,640.3,745,641.5,745.5"/>
		<path clip-path="url(#SVGID_22_)" fill="#BA792A" d="M722.1,613.2c-4.4,7.1-8.4,14.4-12.1,21.9c-1.3,2.7-3.8,6.4-2.1,9.4
			c1.2,2.1,4.7,2.6,5.3,4.9c0.4,1.3,2.3,0.7,2-0.5c-0.6-2.2-2.6-3-4.3-4.2c-1.8-1.3-1.7-2.9-0.9-4.8c0.8-1.9,1.7-3.7,2.6-5.6
			c3.4-6.9,7.1-13.6,11.2-20.1C724.6,613.1,722.8,612.1,722.1,613.2"/>
		<path clip-path="url(#SVGID_22_)" fill="#BA792A" d="M744.7,712.9c-1.2,1.2-2.1,2.6-2.7,4.2c-0.1,0.1,0,0.4,0,0.5
			c0.1,0.2,0.2,0.4,0.4,0.5c0.3,0.3,0.8,0.3,1.1,0.1c1-0.5,1.9-1.3,2.5-2.2c0.3-0.4,0.1-1.2-0.4-1.4c-0.5-0.3-1.1-0.1-1.4,0.4
			c0,0.1-0.1,0.1-0.1,0.1c-0.1,0.2,0.2-0.2,0,0c-0.1,0.1-0.1,0.2-0.2,0.2c-0.2,0.2-0.3,0.3-0.5,0.5c0,0-0.1,0.1-0.1,0.1
			c-0.2,0.1,0.2-0.1,0,0c-0.1,0.1-0.2,0.1-0.3,0.2c-0.2,0.1-0.4,0.2-0.6,0.3c0.5,0.4,1,0.8,1.5,1.2c0,0-0.1,0.2,0,0.1l0.1-0.1
			c0-0.1,0.1-0.2,0.1-0.2c0.1-0.2,0.2-0.3,0.2-0.5c0.2-0.3,0.4-0.6,0.6-0.9c0.1-0.2,0.2-0.3,0.3-0.4c0.1-0.1,0.1-0.1,0.2-0.2
			c0,0-0.1,0.2,0,0.1c0,0,0.1-0.1,0.1-0.1c0.2-0.3,0.5-0.6,0.7-0.8c0.4-0.4,0.4-1.1,0-1.4C745.7,712.5,745.1,712.5,744.7,712.9"/>
		<path clip-path="url(#SVGID_22_)" fill="#BA792A" d="M745.8,713.9c-0.5,0.8-1,1.5-1.5,2.3c-0.2,0.3-0.2,0.8,0.1,1.1
			c0.3,0.3,0.7,0.5,1.1,0.4c0.3-0.1,0.7-0.2,1-0.2c-0.4-0.3-0.9-0.7-1.3-1c0,0.4,0,0.7,0,1.1c0,0.5,0.5,1.1,1,1c0.5,0,1-0.5,1-1
			c0-0.4,0-0.7,0-1.1c0-0.7-0.6-1.1-1.3-1c-0.3,0.1-0.7,0.2-1,0.2c0.4,0.5,0.8,1,1.2,1.5c0.5-0.8,1-1.5,1.5-2.3
			c0.3-0.4,0.1-1.2-0.4-1.4C746.6,713.3,746.1,713.4,745.8,713.9"/>
		<path clip-path="url(#SVGID_22_)" fill="#BA792A" d="M743.5,713c1.4,1.9,3.3,3.4,5.6,4c0.5,0.2,1.1-0.2,1.3-0.7
			c0.1-0.6-0.2-1.1-0.7-1.3c-0.2-0.1-0.5-0.2-0.7-0.2c-0.1,0-0.1,0-0.2-0.1c0.1,0.1,0.1,0,0,0c-0.1,0-0.2-0.1-0.3-0.2
			c-0.5-0.2-0.9-0.5-1.3-0.8c0,0-0.1-0.1-0.1-0.1c-0.1-0.1-0.1-0.1,0,0c-0.1-0.1-0.2-0.2-0.3-0.2c-0.2-0.2-0.4-0.3-0.5-0.5
			c-0.2-0.2-0.3-0.4-0.5-0.5c-0.1-0.1-0.2-0.2-0.2-0.3c0,0.1,0.1,0.1,0,0c0-0.1-0.1-0.1-0.1-0.2c-0.3-0.4-0.9-0.7-1.4-0.4
			C743.5,711.8,743.2,712.5,743.5,713"/>
		<path clip-path="url(#SVGID_22_)" fill="#BA792A" d="M745.9,714.8c0.4,0.2,0.8,0.4,1.2,0.7l-0.2-0.2c0.4,0.3,0.8,0.7,1.1,1.1
			c-0.1-0.1-0.1-0.1-0.2-0.2c0.1,0.2,0.2,0.3,0.3,0.5c0.1,0.2,0.4,0.4,0.6,0.5c0.2,0.1,0.6,0,0.8-0.1c0.5-0.3,0.7-0.9,0.4-1.4
			c-0.7-1.1-1.8-2.1-3-2.7c-0.3-0.1-0.5-0.2-0.8-0.1c-0.2,0.1-0.5,0.2-0.6,0.5c-0.1,0.2-0.2,0.5-0.1,0.8
			C745.5,714.5,745.7,714.7,745.9,714.8"/>
		<path clip-path="url(#SVGID_22_)" fill="#E6B821" d="M641.8,647.4c0.5,1.7,1.3,3.8,3.1,4.1c0.4,0.1,0.7,0,1-0.2
			c0.2-0.2,0.4-0.5,0.5-0.7c1.9-3.9,0.7-8.5-0.7-12.6c-2.1-6.2-4.6-12.3-7.4-18.3c-0.5-1.1-1-1.9-2-2.5c-1.8,3.1,1.1,11.4,1.8,15
			C639.1,637.3,640.3,642.3,641.8,647.4"/>
		<path clip-path="url(#SVGID_22_)" fill="#BA792A" d="M644.6,650.7c0.2,1,0,1.7-0.7,0.6c-0.3-0.5-0.5-1.4-0.6-2
			c-0.4-1.6-0.8-3.1-1.2-4.7c-0.8-3-1.5-6.1-2.1-9.1c-1.3-6.2-2.4-12.5-3.3-18.8c-0.2-1.3-2.2-0.7-2,0.5c1.2,8.8,2.9,17.6,5,26.2
			c0.5,2.1,1.1,4.3,1.6,6.4c0.4,1.4,0.7,3,1.9,3.8c0.8,0.6,2,0.6,2.8-0.1c0.9-0.9,0.8-2.3,0.5-3.4
			C646.4,648.9,644.4,649.4,644.6,650.7"/>
		<path clip-path="url(#SVGID_22_)" fill="#BA792A" d="M716.2,671.3c-0.9,0.4-1.5,1.3-1.7,2.2c-0.1,0.4,0,0.7,0.3,1
			c0.2,0.2,0.7,0.4,1,0.3c0.2-0.1,0.4-0.1,0.6-0.3c0.3-0.2,0.4-0.3,0.6-0.6c0.2-0.3,0.3-0.6,0.4-0.9c0.1-0.4,0.1-0.8,0-1.2
			c-0.1-0.4-0.3-0.8-0.7-1c-0.1-0.1-0.1-0.1-0.2-0.2c-0.1-0.1-0.2-0.1-0.4-0.1c-0.2,0-0.5,0-0.7,0.1c-0.5,0.3-0.8,0.9-0.9,1.5
			c0,0.5,0.2,1.1,0.6,1.4c0.5,0.4,1.1,0.6,1.7,0.4c0.5-0.1,1-0.5,1.2-0.9c0.1-0.1,0.1-0.2,0.1-0.4c0-0.1,0-0.3,0-0.4
			c-0.1-0.2-0.2-0.5-0.5-0.6c-0.2-0.1-0.5-0.2-0.8-0.1c-0.2,0.1-0.5,0.2-0.6,0.5c0,0.1-0.1,0.1-0.1,0.2c0.1-0.1,0.1-0.1,0.2-0.2
			c0,0.1-0.1,0.1-0.1,0.1c0.1-0.1,0.1-0.1,0.2-0.2c-0.1,0-0.1,0.1-0.2,0.1c0.1,0,0.2-0.1,0.2-0.1c-0.1,0-0.2,0.1-0.2,0.1
			c0.1,0,0.2,0,0.3,0c-0.1,0-0.1,0-0.2,0l0.3,0c-0.1,0-0.1,0-0.2-0.1c0.1,0,0.2,0.1,0.2,0.1c-0.1,0-0.1-0.1-0.2-0.1
			c0.1,0.1,0.1,0.1,0.2,0.2c0,0-0.1-0.1-0.1-0.1l0.2,0.2c0-0.1-0.1-0.1-0.1-0.2c0,0.1,0.1,0.2,0.1,0.2c0-0.1,0-0.1-0.1-0.2
			c0,0.1,0,0.2,0,0.3c0-0.1,0-0.2,0-0.2c0,0.1,0,0.2,0,0.3c0-0.1,0-0.2,0.1-0.2c0,0.1-0.1,0.2-0.1,0.2c0-0.1,0.1-0.1,0.1-0.2
			l-0.2,0.2c0,0,0.1-0.1,0.1-0.1c-0.1,0.1-0.1,0.1-0.2,0.2c0,0,0,0,0.1,0c-0.4-0.1-0.8-0.1-1.2-0.2c0.1,0.1,0.1,0.1,0.2,0.2
			c-0.1-0.1-0.1-0.1-0.2-0.2c0.1,0.1,0.1,0.2,0.2,0.3c0-0.1-0.1-0.2-0.1-0.2c0,0.1,0.1,0.2,0.1,0.3c0-0.1,0-0.2,0-0.3
			c0,0.1,0,0.3,0,0.4c0-0.1,0-0.2,0-0.3c0,0.1-0.1,0.3-0.1,0.4c0-0.1,0.1-0.2,0.1-0.2c-0.1,0.1-0.1,0.2-0.2,0.3
			c0.1-0.1,0.1-0.1,0.2-0.2c-0.1,0.1-0.1,0.2-0.2,0.2c0.1-0.1,0.1-0.1,0.2-0.2c-0.1,0.1-0.2,0.1-0.2,0.1l0.2-0.1c0,0-0.1,0-0.1,0
			c0.4,0.4,0.8,0.8,1.3,1.3c0-0.1,0.1-0.3,0.1-0.4c0,0.1-0.1,0.2-0.1,0.2c0.1-0.2,0.2-0.4,0.3-0.5c-0.1,0.1-0.1,0.1-0.2,0.2
			c0.1-0.2,0.3-0.3,0.4-0.4c-0.1,0.1-0.1,0.1-0.2,0.2c0.1-0.1,0.3-0.2,0.4-0.3c0.2-0.1,0.4-0.4,0.5-0.6c0.1-0.2,0-0.6-0.1-0.8
			c-0.1-0.2-0.4-0.4-0.6-0.5C716.7,671.1,716.4,671.2,716.2,671.3"/>
		<path clip-path="url(#SVGID_22_)" fill="#BA792A" d="M717.4,670.5c-0.1-0.2-0.2-0.3-0.3-0.4c-0.1-0.1-0.3-0.2-0.4-0.3
			c-0.2-0.1-0.3-0.2-0.5-0.2c-0.1,0-0.3,0-0.4-0.1c-0.1,0-0.1,0-0.2,0c-0.1,0-0.3,0-0.4,0.1c-0.1,0-0.3,0.1-0.4,0.1
			c0,0-0.1,0-0.1,0.1c-0.2,0.1-0.3,0.3-0.4,0.5c-0.1,0.2-0.2,0.5-0.2,0.7c0,0.3,0.1,0.5,0.2,0.7c0.1,0.2,0.3,0.4,0.6,0.5
			c0.2,0.1,0.4,0.2,0.6,0.2c0.1,0,0.3,0,0.4-0.1c0.1,0,0.2-0.1,0.3-0.2c0.1-0.1,0.2-0.2,0.3-0.3c0.1-0.1,0.1-0.2,0.1-0.4
			c0-0.1,0-0.3,0-0.4c-0.1-0.2-0.2-0.5-0.5-0.6l-0.2-0.1c-0.2,0-0.4,0-0.5,0c0,0-0.1,0-0.1,0c0.1,0,0.2,0,0.3,0c0,0,0,0-0.1,0
			c0.1,0,0.2,0,0.3,0c0,0-0.1,0-0.1,0c0.1,0,0.2,0.1,0.2,0.1c0,0-0.1,0-0.1-0.1c0.1,0.1,0.1,0.1,0.2,0.2c0,0-0.1-0.1-0.1-0.1
			c0.1,0.1,0.1,0.1,0.2,0.2c0,0-0.1-0.1-0.1-0.1c0,0.1,0.1,0.2,0.1,0.2c0,0,0-0.1,0-0.1c0,0.1,0,0.2,0,0.3c0,0,0-0.1,0-0.1
			c0,0.1,0,0.2,0,0.3c0,0,0-0.1,0-0.1c0,0.1-0.1,0.2-0.1,0.2c0,0,0,0,0-0.1c-0.1,0.1-0.1,0.1-0.2,0.2c0,0,0,0,0,0
			c-0.1,0.1-0.1,0.1-0.2,0.2c0,0,0.1-0.1,0.1-0.1c-0.1,0-0.2,0.1-0.2,0.1c0.1,0,0.1,0,0.2-0.1c-0.1,0-0.2,0-0.3,0c0.1,0,0.2,0,0.3,0
			c-0.1,0-0.2,0-0.3,0c0.1,0,0.2,0,0.3,0.1c-0.1,0-0.2-0.1-0.2-0.1c0.1,0,0.2,0.1,0.2,0.1c-0.1-0.1-0.1-0.1-0.2-0.2
			c0.1,0,0.1,0.1,0.2,0.2c-0.1-0.1-0.1-0.1-0.2-0.2c0,0,0.1,0.1,0.1,0.2c0.1,0.1,0.2,0.2,0.3,0.3c0.1,0.1,0.2,0.2,0.4,0.2
			c0.1,0,0.3,0,0.4,0c0.1,0,0.3,0,0.4-0.1c0.2-0.1,0.4-0.4,0.5-0.6c0-0.1,0-0.2,0-0.3C717.5,670.8,717.5,670.6,717.4,670.5"/>
		<path clip-path="url(#SVGID_22_)" fill="#BA792A" d="M715.1,673.6c0.2-0.1,0.5-0.2,0.7-0.2c-0.4-0.2-0.8-0.3-1.2-0.5l0,0
			c0-0.1-0.1-0.2-0.1-0.2c0,0,0,0,0,0c0-0.1,0-0.2,0-0.3v0c0-0.1,0-0.2,0-0.3c0,0,0,0,0,0c0-0.1,0.1-0.2,0.1-0.2c0,0,0,0,0,0
			c0.1-0.1,0.1-0.1,0.2-0.2c0,0,0,0,0,0c0.1-0.1,0.1-0.1,0.2-0.2c0,0,0,0-0.1,0c0.1,0,0.2-0.1,0.2-0.1c0,0-0.1,0-0.1,0
			c0.1,0,0.2,0,0.3,0c0,0,0,0-0.1,0c0.1,0,0.2,0,0.3,0c0,0,0,0-0.1,0c0.1,0,0.2,0.1,0.2,0.1c0,0,0,0,0,0c0.1,0.1,0.1,0.1,0.2,0.2
			c0,0,0,0,0,0l0.2,0.2c0,0,0,0,0-0.1c0,0.1,0.1,0.2,0.1,0.2c0,0,0-0.1,0-0.1c0,0.1,0,0.2,0,0.3c0-0.1,0-0.1,0-0.2
			c0,0.1,0,0.2,0,0.3c0-0.2,0.1-0.3,0.1-0.5c0-0.1,0-0.2,0-0.4c0-0.1,0-0.3,0-0.4c0,0,0-0.1,0-0.1c0-0.1-0.1-0.2-0.2-0.3
			c-0.1-0.1-0.2-0.2-0.3-0.3c-0.1-0.1-0.2-0.2-0.4-0.2c-0.1,0-0.3,0-0.4,0c-0.1,0-0.3,0-0.4,0.1c-0.2,0.1-0.4,0.4-0.5,0.6
			c0,0.1,0,0.2,0,0.3c0,0.2,0,0.4,0.1,0.5c0,0,0,0.1,0.1,0.1c0-0.1-0.1-0.2-0.1-0.2c0,0,0,0.1,0,0.1c0-0.1,0-0.2,0-0.3
			c0,0.1,0,0.1,0,0.2c0-0.1,0-0.2,0-0.3c0,0.1,0,0.2-0.1,0.3c0,0.2-0.1,0.3-0.1,0.5c0,0,0,0.1,0,0.1c0,0.1,0,0.3,0.1,0.4
			c0.1,0.3,0.3,0.6,0.6,0.8c0.4,0.2,0.9,0.2,1.3,0c0.1,0,0.2-0.1,0.2-0.2c0,0,0,0,0,0c0.1-0.1,0.2-0.3,0.3-0.5
			c0.1-0.3,0-0.6-0.1-0.9l-0.2-0.2c-0.1-0.1-0.2-0.2-0.3-0.2c-0.1,0-0.2-0.1-0.3-0.1c-0.1,0-0.3,0-0.4,0c-0.2,0.1-0.5,0.1-0.7,0.2
			c-0.3,0.1-0.5,0.2-0.6,0.5c-0.1,0.1-0.1,0.2-0.1,0.4c0,0.1,0,0.3,0,0.4c0.1,0.2,0.2,0.5,0.5,0.6
			C714.5,673.6,714.8,673.6,715.1,673.6"/>
		<path clip-path="url(#SVGID_22_)" fill="#BA792A" d="M715.8,671.9C715.8,671.9,715.8,672,715.8,671.9c0,0,0-0.1-0.1-0.1
			C715.7,671.8,715.8,671.9,715.8,671.9c-0.1-0.1-0.1-0.2-0.1-0.3c0,0,0,0.1,0,0.1c0-0.1,0-0.2,0-0.3c0,0,0,0.1,0,0.1
			c0-0.1,0-0.2,0-0.3c0,0,0,0.1,0,0.1c0-0.1,0.1-0.2,0.1-0.2c0,0,0,0,0,0c-0.1,0.1-0.1,0.2-0.1,0.4c0,0.1,0,0.3,0,0.4
			c0,0.1,0.1,0.2,0.2,0.3c0.1,0.1,0.2,0.2,0.3,0.3l0.2,0.1c0.2,0,0.4,0,0.5,0l0.2-0.1c0.2-0.1,0.3-0.2,0.4-0.4
			c0-0.1,0.1-0.2,0.1-0.3c0,0,0,0,0,0c0-0.1,0-0.2,0.1-0.4c0,0,0-0.1,0-0.1c0-0.1,0-0.2,0-0.4c0,0,0-0.1,0-0.1
			c0-0.1-0.1-0.2-0.1-0.3c0,0,0,0,0,0c-0.1-0.1-0.1-0.2-0.2-0.3c0,0,0,0-0.1-0.1c-0.1-0.1-0.2-0.2-0.3-0.2c-0.1-0.1-0.3-0.1-0.4-0.1
			c-0.1,0-0.3,0-0.4,0.1c-0.1,0-0.2,0.1-0.3,0.2c-0.1,0.1-0.1,0.1-0.2,0.2c-0.1,0.2-0.1,0.3-0.1,0.5c0,0.1,0,0.2,0,0.3
			C715.6,671.6,715.7,671.8,715.8,671.9"/>
		<path clip-path="url(#SVGID_22_)" fill="#BA792A" d="M742.2,713.9c-0.1,0.2-0.2,0.3-0.4,0.5c0.1-0.2-0.1,0.1-0.1,0.1
			c-0.1,0.1-0.1,0.1-0.2,0.2c-0.3,0.3-0.5,0.6-0.8,0.9c-0.6,0.6-1.2,1.1-1.8,1.7c-0.3,0.2-0.4,0.7-0.3,1c0.1,0.3,0.4,0.6,0.7,0.7
			c0.8,0.2,1.4-0.2,2-0.6c0.5-0.3,1-0.7,1.5-1l-1.2-1.6c-0.5,0.5-0.9,0.9-1.4,1.4c-0.3,0.3-0.4,0.9-0.2,1.2c0.3,0.4,0.7,0.6,1.2,0.5
			c0.3,0,0.5-0.1,0.8-0.1c-0.4-0.4-0.8-0.8-1.3-1.3c0,0.1-0.1,0.3-0.1,0.4c-0.2,0.6,0.4,1.3,1,1.3c0.6,0,1.2-0.2,1.5-0.7
			c0.2-0.3,0.3-0.5,0.3-0.9c0-0.3-0.2-0.6-0.5-0.7c-0.4-0.2-0.7-0.2-1.1-0.1c0,0-0.2,0-0.2,0.1c0-0.1,0.4,0.1,0.5,0.1
			c0.2,0.1,0.3,0.3,0.3,0.5c0,0,0,0.1,0,0.1c0-0.1,0-0.1,0,0c-0.1,0.1,0,0,0,0c0.1-0.1-0.1,0.1,0,0c0,0,0.1-0.1,0.1-0.1
			c0.2-0.2,0.4-0.4,0.6-0.6c0.7-0.8,1.5-1.6,2.2-2.4c0.3-0.3,0.4-0.9,0.2-1.2c-0.2-0.4-0.7-0.6-1.2-0.5c-0.4,0.1-0.9,0.3-1.3,0.4
			c-0.5,0.2-0.9,0.7-0.7,1.3c0.2,0.5,0.7,0.9,1.3,0.7c0.4-0.1,0.9-0.3,1.3-0.4c-0.3-0.6-0.7-1.1-1-1.7c-0.9,0.9-1.8,1.9-2.7,2.9
			c-0.5,0.6-1,1.3-0.8,2.1c0.1,0.5,0.5,0.8,1,1c0.2,0.1,0.5,0.1,0.8,0c0.1,0,0.1,0,0.2,0c0.3-0.1,0,0.1-0.4-0.1
			c-0.1-0.5-0.1-1.1-0.2-1.6c0,0-0.1,0.1-0.1,0.1c0,0,0.2-0.1,0,0c-0.1,0.1,0.2-0.1,0,0c-0.1,0,0.2,0,0,0c0.3,0.4,0.7,0.9,1,1.3
			c0-0.1,0.1-0.3,0.1-0.4c0.1-0.3,0-0.8-0.3-1c-0.3-0.3-0.6-0.3-1-0.3c-0.3,0-0.5,0.1-0.8,0.1c0.3,0.6,0.7,1.1,1,1.7
			c0.5-0.5,0.9-0.9,1.4-1.4c0.4-0.4,0.4-0.9,0.1-1.3c-0.3-0.4-0.9-0.5-1.3-0.3c-0.4,0.3-0.9,0.6-1.3,0.9c-0.2,0.1-0.4,0.3-0.6,0.4
			c-0.1,0.1-0.2,0.1-0.3,0.2c0.1,0,0.1-0.1,0,0c0.1,0,0.2,0,0.2,0c0.2,0.6,0.3,1.1,0.5,1.7c1.4-1.1,2.6-2.4,3.6-3.8
			c0.3-0.4,0.1-1.2-0.4-1.4C743,713.2,742.5,713.4,742.2,713.9"/>
		<path clip-path="url(#SVGID_22_)" fill="#BA792A" d="M743.4,719.9c2.3-0.5,4.4-1.6,6.2-3.1c0.4-0.3,0.4-1.1,0-1.4
			c-0.4-0.4-1-0.4-1.4,0c-0.1,0.1-0.1,0.1,0,0c-0.1,0-0.1,0.1-0.2,0.1c-0.1,0.1-0.2,0.2-0.3,0.2c-0.2,0.2-0.4,0.3-0.7,0.4
			c-0.4,0.3-0.9,0.5-1.4,0.7c-0.1,0.1-0.2,0.1-0.3,0.1c0,0-0.4,0.2-0.2,0.1c-0.2,0.1-0.5,0.2-0.7,0.3c-0.5,0.2-1,0.3-1.5,0.5
			c-0.5,0.1-0.9,0.7-0.7,1.3C742.3,719.7,742.8,720,743.4,719.9"/>
		<path clip-path="url(#SVGID_22_)" fill="#BA792A" d="M664.6,656.3c0-0.1,0.1-0.1,0.1-0.2c-0.9,0.7,0.3,2.3,1.2,1.6
			c1.1-0.8,2.1-1.8,2.7-3c0.4-0.9-0.5-1.9-1.4-1.4c-0.5,0.3-0.9,0.5-1.4,0.8c0.4,0.5,0.8,1.1,1.2,1.6c1.1-1.3,1.7-2.8,1.9-4.5
			c0.1-0.9-0.9-1.2-1.5-0.9c-1.7,0.7-3.4,1.5-4.7,2.9c-1,1-1.9,2.5-3.4,2.9c-0.6,0.2-0.9,1-0.6,1.5c0.7,1.2,2.2,1,3.2,0.3
			c1.4-1,2.6-2.1,4-3c1.1-0.8,2.4-1.3,3.7-0.6c1.2,0.6,1.9,1.8,3.3,2.2c0.7,0.2,1.5-0.5,1.3-1.3c-0.7-2.2-2.5-3.6-4.7-3.9
			c-0.4-0.1-0.9,0.4-1,0.8c-0.1,0.5,0.1,0.9,0.5,1.2c0.1,0.1,0.2,0.1,0.2,0.2c1.1,0.8,2.1-1,1-1.8c-0.1-0.1-0.2-0.1-0.2-0.2
			c-0.2,0.6-0.3,1.3-0.5,1.9c1.3,0.2,2.4,1.2,2.8,2.4l1.3-1.3c-1.1-0.3-1.8-1.5-2.8-2c-1.2-0.6-2.6-0.8-3.9-0.4
			c-1.3,0.5-2.4,1.4-3.6,2.3c-0.6,0.5-1.3,1-1.9,1.5c-0.2,0.2-0.5,0.4-0.7,0.5c-0.3,0.2-0.2,0,0,0.2c-0.2,0.5-0.4,1-0.6,1.5
			c1.7-0.4,2.8-1.7,3.9-2.9c1.3-1.4,2.9-2.2,4.7-3c-0.5-0.3-1-0.6-1.5-0.9c-0.1,1.1-0.5,2.2-1.3,3.1c-0.7,0.8,0.2,2.2,1.2,1.6
			c0.5-0.3,0.9-0.5,1.4-0.8c-0.5-0.5-0.9-0.9-1.4-1.4c-0.5,0.9-1.1,1.7-2,2.3c0.4,0.5,0.8,1.1,1.2,1.6c0.4-0.3,0.6-0.8,0.5-1.2
			c-0.1-0.5-0.4-1-1-1C665.1,655.3,664.5,655.7,664.6,656.3"/>
		<path clip-path="url(#SVGID_22_)" fill="#BA792A" d="M669.7,650.8c-0.2-0.1,0.1,0.1,0.1,0.2c0,0.1,0,0.2,0,0.2
			c-0.1,0.1-0.1,0.2,0,0c-0.5,0.1-1.1,0.1-1.6,0.2c1.5,1.8,3.1,3.6,4.6,5.3c1.3,1.5,2.7,2.9,4.6,3.5c1.3,0.4,1.8-1.6,0.5-2
			c-1.7-0.5-2.8-2-3.9-3.3c-1.5-1.7-2.9-3.4-4.4-5.1c-0.5-0.5-1.3-0.3-1.6,0.2c-0.5,0.7-0.2,1.9,0.6,2.3c0.5,0.2,1.1,0.1,1.4-0.4
			C670.3,651.8,670.2,651.1,669.7,650.8"/>
		<path clip-path="url(#SVGID_22_)" fill="#BA792A" d="M662.9,658.8l6.6-1.6c0.5-0.1,0.9-0.7,0.7-1.3c-0.2-0.5-0.7-0.9-1.3-0.7
			l-6.6,1.6c-0.5,0.1-0.9,0.7-0.7,1.3C661.9,658.6,662.4,658.9,662.9,658.8"/>
		<path clip-path="url(#SVGID_22_)" fill="#BA792A" d="M708.5,663.9c0.1-0.4,0.2-0.8,0.3-1.1c0,0.1-0.1,0.2-0.1,0.2
			c0.2-0.4,0.4-0.8,0.7-1.2l-0.2,0.2c0.2-0.3,0.5-0.6,0.8-0.8c0.2-0.2,0.3-0.5,0.3-0.7c0-0.3-0.1-0.6-0.3-0.7
			c-0.2-0.2-0.5-0.3-0.7-0.3c-0.3,0-0.5,0.1-0.7,0.3c-1.1,0.9-1.8,2.2-2.1,3.6c-0.1,0.3,0,0.5,0.1,0.8c0.1,0.2,0.4,0.4,0.6,0.5
			C707.7,664.8,708.4,664.5,708.5,663.9"/>
		<path clip-path="url(#SVGID_22_)" fill="#F0D235" d="M682,777.6c0,0.2,0.3,0.1,0.4,0.3c0-0.2,0.5-0.6,0.1-0.5
			c0.6-0.2,4.8-3.1,5.1-2.2c2.1-0.3,3.4,0.7,4.9,1.2c0.4,0.2,0.9,0,1.2,0.2c0.2,0.1,0.4,0.5,0.6,0.5c0.2,0.2,0.5-0.1,0.7,0
			c0.5,0.2,0.7,0.6,1,0.8c0.6,0.3,1.3,0.4,1.8,0.9l0,0.6c0.9,0.6-1.7,3.7-1.3,4.5c-0.5-0.2-0.3,0.4-0.8,0.2c0,0.5,0,0.8-0.1,0.9
			c-0.6,0-1,0-1.2,0.4c-2.3-0.7-3.1,0.5-5,0.8c-0.3,1.2-1.5,1.4-1.5,2.7c-1.7,0.7-1.7,2.9-1.7,5.2c2.1,0.8,5.6,1.2,7.9,2.2
			c0.8,0.3,1.5,1.1,2.1,1.3c0.2,0.2,0.5-0.1,0.7,0.1c0.2,0.2,0.4,0.5,0.6,0.7c0.2,0.2,0.4-0.1,0.7,0.1c0.3,0.2,0.5,0.8,0.8,1
			c0.2,0.1,0.4,0,0.5,0.1c0.1,0.1-0.1,0.4,0,0.4c0.5,0.5,1.2,0.6,1.6,1.1c0.4,0.6,0.3,1.3,1,1.7c0.1,0.2,0,0.4,0,0.6
			c0.6,0.2,0.3,1.1,0.8,1c0.1,0.5-0.4,1.7,0.1,2.4c-0.5,1.1-0.3,2.7-0.6,3.9c-0.3,0.9-0.6,2-1.5,2.3c-0.1,0.1-0.1,0.4-0.1,0.7
			c-1.1,0.4-1.4,1.9-2.8,2.2c-0.8,0.5-1,1.7-2.4,1.7c-1.1,1.2-3.9,0.9-5,2.1c-0.6,0.1-1.4-0.2-1.4,0.4c-0.9,0-1.8,0-2.1,0.6
			c-0.5,0.1-0.5-0.5-0.7,0c-0.3,0.2-0.1-0.4-0.4-0.2c-1.3,0.7-3.3,0.3-4.4,0c-0.2,0-0.1-0.3-0.2-0.5c-1.1,0.6-1.6-1.1-2.7-0.5
			c-0.2-0.2,0-0.1,0-0.5c-0.3,0.9-1-0.9-1.2-0.1c-0.1-0.4-0.9-0.4-0.5-0.8c-0.2,0.1-0.7-0.1-0.7,0.2c-1.1-1.7-3-2.5-3.9-4.4
			c-0.4,0.1-0.4-0.2-0.7-0.1c-0.5-0.2,0,0.6-0.6,0.5c-0.1-0.8-0.8-1.2-0.3-1.9c-0.2-0.2-0.4-0.3-0.7-0.3c-0.1-1.3,1.6-2.2,0.7-3.3
			c1.3-0.3,1.7-1.7,2.8-2.3l0,0.4c0.5,0.1,0.4-0.4,0.6-0.5c0.1,0.5,0.7,0.5,1.2,0.5c-0.1,0.2,0.4,0.5,0,0.6c0.5-0.1,0.9,0.6,1.5,0.8
			c0.3,0.1,0.1-0.2,0.3-0.4c-0.1-0.5-0.5-0.7-0.6-1.2c-0.1-0.2,0.7,0.3,0.9-0.2c0.8,1,2.1,1.3,3.3,1.8c0.1,1.3,1.4,1.2,1.7,2.2
			c1.7,0.1,2.2-0.9,3.7-0.9c0.6-0.2,0.8-0.8,1.3-1.2c0.9-0.6,2.5-0.5,2.6-1.9c-0.4-0.5-0.2-1.4-0.3-2.1c-1-1.4-2.4-2.3-3.9-3.2
			c-1.1,0.1-1.7-0.5-2.5-0.8c-1.1-0.3-2.4-0.5-3.3-0.9c-0.4-0.2-0.6-0.7-1-0.9c-0.2-0.2-0.5,0.1-0.7-0.1c-0.8-0.3-1.1-1-1.6-1.5
			c-0.6-0.5-1.9-1.9-2.2-2.8c0-0.2,0.3-0.2,0.3-0.2c0-0.5-0.5-0.7-0.7-1.2c-0.2-0.8-0.6-3.3-0.2-4.4c0.1-0.1,0.4-0.1,0.4-0.2
			c0.2-0.8-0.1-1.6,0.3-2.7c0.2,0.1,0.2-0.1,0.4-0.2c0.5-2.8,2.5-4.4,3.8-6.5c0.5-0.2,1.1-0.3,1-0.8c0.9-0.1,1.3-0.6,2-0.9
			C682.5,776.8,681.9,777.4,682,777.6 M674.1,808.6c0.6-0.1,0.3,0.8,0.9,0.7c0.2-0.5-0.2-0.9,0-1.5c-0.2-0.2-0.6-0.1-0.9-0.1
			L674.1,808.6z"/>
		<path clip-path="url(#SVGID_22_)" fill="#F0D235" d="M744,774.8c1.1,2.3,1.7,5,3,6.5c1.5,3.1,4.1,8.9,5.7,12.7
			c0.5,1.3,1.3,2.5,1.2,3.3c0,0.5-0.6,0.7-0.2,1.4c-0.5,0.2,0,0.7-0.5,0.4c-0.5,0.9-1.6,1.5-2.4,2.2c-0.5,1.1,0.3,1.1-1.1,1.4
			c-1.2,1.2-3.9,1.6-6,2.1l-0.2-0.4c-0.4,0.3-0.1,0.3-0.6,0.3c-0.2-0.2,0-0.3,0.2-0.4c-3.7-2.5-10-9.8-13.2-13.2
			c-3.2-4.3-7.2-8.8-10.7-11.3c-0.4,0.8,0.9,1.7,0.1,2.4c0.9,1.9,2.1,4.9,3.3,5.7c0.5,2.4,2.4,3.9,3.1,6.8c1.9,2.1,3.8,8.9,5.5,11.5
			c-0.5,0.2,0.2,0.5-0.4,0.6c0.3,0.1,0.5,0.2,0.5,0.3c0.7,0.9,0.5,1.7,0.7,2.6c-0.4,0.6-0.8,1.1-0.6,1.9c-1.7,1.3-2.5,2.3-3.8,3.5
			c-0.1,0-0.2-0.1-0.3-0.3c-1.4,0.7-2.3,0.5-2.9,1.6c-0.3-0.2-0.7-0.4-1.2,0c-0.6-0.7-0.4-1.5-1.4-1.7c0.5-0.2,0.1-0.5,0.7-0.6
			c-1.9-4.3-6.3-12.3-9-16.4c-0.3-0.4-0.1-0.4-0.3-0.6c-1.4-2-2-4.9-3.5-6.7c-0.4-0.4,0.4-0.2,0.2-0.5c0-0.5-0.4-0.2-0.5-0.5
			c0.4-0.7-1.2-2.6-1.5-3.4c0.2-0.2,0.3-0.3,0.4-0.4c-1-3.1-1.5-6.8,0.1-9.3c-0.2-0.8,0.5-1.2,1-2.3c0.3-0.7,0.5-1.4,0.9-1.8
			c1.6-2,4.4-3.1,7.2-4.4c-0.2,0.9,0.3-0.3,0.7,0.4c0.8-0.5,1.4-0.5,1.9-0.1c0-0.3,0.3-0.4,0.6-0.5c0.2,0,0.4,0,0.5,0
			c0.4-0.2,0.1,0.2-0.1,0.2c0.2,0.3,0.5,0.2,0.6-0.1c0.7-0.1,1.1,0.1,1.8,0c1.8,1.6,4.6,4.4,6.6,5.5c0.5,1.4,1.7,1.1,2.3,2.4
			c0.1,0,0.2,0.1,0.3,0.2c-0.1-0.3-0.2-0.5-0.3-0.8c0.4-1.3-3.2-7.6-3.5-9c-0.2-1.4,0.7-2.4,0.8-3.7c0.4-0.4,0.9-0.6,1.5-1.2
			c0.2-0.2,0.2-0.6,0.4-0.7c0.2-0.3,0.6-0.3,0.8-0.5c0,0,0-0.1,0-0.2c0-0.1-0.1-0.1,0-0.2c0.1-0.1,1.1,0.6,0.5-0.2
			c0.6,0,1.2-0.1,1.9-0.2c0.7,0.4,2.1,1.1,2.2,1.3c0,0.2,0.7,1.4,1.4,2.6c0.4,0.7,0.8,1.5,1.3,2.3l0.1-0.1c0.7,1.8,2.1,5.3,2.8,6
			C742.8,772.4,743.2,773.9,744,774.8"/>
		<path clip-path="url(#SVGID_22_)" fill="#F0D235" d="M742,751.5c0.2-0.3,0-0.5,0.1-0.7c1.4-1.8,3.3-2.3,5-2.3
			c1.1,1.6,3.2,0.8,3.6,2.3c2.1,0.4,1.5,3.1,2.8,4.1c-0.3,0.2-0.4,0.8-0.9,0.7c-0.3,0.4,0,0.8,0,1.1c-1.3,1.4-2.3,2.4-3.8,2.8
			c-0.9,0.4-1.7,0.6-2.6,1.2c-2-0.4-3.7-1.3-5.5-3c-0.1-0.4-0.3,0.3-0.5-0.2c0.1-1-1.3-1.4-1.6-1.6c-0.2-0.1,0.1-0.2,0.2-0.4
			c-0.3-0.4-0.5-0.7-0.5-0.9c0.8-0.9,0.8-1.8,1.9-2.6C740.9,752.2,741.4,751.2,742,751.5 M754.6,761.6c0.9-0.7,1.6-0.8,2.2-0.5
			c0.2,0,0.3-0.1,0.2-0.3c2.9,0.4,5.7,2,8.5,4.4c-0.2,0.1,0.9,0.8,1.2,0.8c1,1,2,2.3,3.1,2.8c1.2,2.5,6.7,5.9,7.8,8.6
			c-0.8,0.5-0.5,1.2-1.3,1.5c0.6,0.5,0.4,0,0.6,0.7c-0.9,0-1.9,1.1-2.8,0.8c0,0.4-0.3,0.7,0.1,1c-0.3,1-1.3,1.4-2.5,1.8
			c-1,0.3-1.3,0.7-1.9,0.2c-0.2,0.3-0.8,0.4-0.5,0.9c-0.4,0.1-0.8,0-1.1,0.4c-0.4-0.8-0.8-0.3-1.2-0.3c0-0.3-0.7-0.5-0.2-0.7
			c-0.1-0.4-0.3,0-0.6,0c-2.4-2.6-6.7-8.6-9.6-11.2c-0.1-0.1-0.2-0.1-0.3,0c-0.9-1.7-3.4-3.1-4.4-5.2c-1.3,0-1.3-1.7-2.2-2
			c0.4-0.5,0.5-0.3,0.7-0.9c-0.2-0.6-0.4,0.1-0.7-0.3C751.7,763.1,753.1,761.5,754.6,761.6"/>
		<path clip-path="url(#SVGID_22_)" fill="#F0D235" d="M761,721.1c0.7-0.2,1.4,0,1.9-0.6c0.3,0.1,0.8,0.5,0.8,0
			c0.4,0.3,0.4,0.2,0.8,0.4c0.4-0.4-0.5-0.3-0.2-0.7c0.4,0.4,0.5-0.1,0.6-0.3c0.9,0.2,1.5-0.2,2.3-0.4c0.6,0.2,0.8,0.5,1.3,0.8
			c0,0.9,0.1,1.5,0.5,2.2c-0.9,3-3.1,5-2.8,7.6c-0.7,1.5-0.5,3-0.8,4.1c0.3,1.1-0.1,2.2,0,3.1c1.2,0,2.6,1.1,3.7,1.2
			c0.9,0.5,3.1,1.8,4.9,2.5c0.3-2.9,1.9-6.8,0.7-9.4c0.4-0.8,0.5-1.5,0.4-2c0.5-0.4,0.7-1,1.4-0.9c0.4-1,0.6-1,1.4-1.4
			c0.2,0.3,0.2,0.5,0.7,0.7c-0.2-1,0.3-1.1,0.9-1.7c0.9,0.2,0.1,1.1,0.9,1.3c-0.1-0.5,0.1-0.9-0.2-1.3c1.1,0.3,1.4-0.7,1.8-1
			c0.3-0.2,0.3,0.4,0,0.8c0.7,0.3,0.5-0.3,1-0.7c0.3,0.1,0.5,0.4,0.8,0.3c0.1-0.4,0.3-0.8,0.5-1.1c0.2,0.1,0.8,0.1,0.4,0.5
			c0.3,0.2,0.4-0.7,0.7-0.3c-0.2,0.5-0.4,0.9,0.4,1.1c-0.3,0.8-0.2,1.3-0.3,2.2c-0.1,0.3-0.3,0-0.4,0.2c-0.1,0.3,0.1,0.4,0.1,0.6
			c-1,1.4,0.1,2.9-1.2,4.5c0.3,0.7-0.1,1.8-0.4,2.4c0.5,1.4-0.9,3.5-1.2,5.2c0.1,0.3,0.3,0.3,0.5,0.5c-0.8,1.4-0.8,2.5-1.3,3.8
			c1-0.1,1.3,1,2.1,0.8c0.3,0.1,0,0.5,0.5,0.5c1.2,0,2.2,1,3.8,1.5c-0.1,0.2-0.1,0.4,0,0.4c0.3,0.2,0.4,0.2,0.5-0.1
			c0.4,0.2,0.3,0.5,0.6,0.7c0.3-0.2,0.3-0.3,0.3-0.3s-0.1,0.1,0.3,0.6c2-0.1,1.4,0.2,3.2,0.4c0.5,1.3,2.4,0.6,3.1,1.8
			c-0.5,0.7-1,1.8-1.8,1c-0.5,0.6,0.4,0.6,0.8,1l-0.3,0.6c0.4,0.2,0.5-0.1,0.8-0.2c0,0.7,0.4,0.1,0.7,0.7c-0.5,0.1-0.9,0.3-1.3,0.7
			c-0.2-0.7-0.5,0.1-1-0.1c0.2,1,0.9,0.9,1.5,1.4c-0.3,0.2-0.7,0.4-1,0.5c-0.5,0,0-0.4-0.2-0.6c-0.4,0.4-0.4,0.5-0.4,1.1
			c-0.4-0.6-0.6-0.9-1.5-1.4c-0.4,0.2-0.3,0.7-0.7,1.2c0.2,0.4,1.5,1.3,1.9,0.6c0,0.5-0.4,1.3-1,1.2c-0.3,0.4,0,0.4,0.1,0.7
			c-0.5,1.2-1.6,1.1-2.2,1.9c-0.4-0.1-0.4-0.9-0.7-0.2c-0.5-0.7-1.2-0.3-1.9-0.4c-1.2-0.4-2.5-1.4-3.8-1.9c-1.8-0.9,1.3-0.3-0.7-0.6
			c-0.5-0.5-2.4-0.9-3-1.9c-0.2,0-0.4,0.1-0.6,0.3c-1-0.7-2-0.8-2.5-1.6c-0.2-0.1-0.2,0.2-0.1,0.2c-7-3.1-12.1-6.4-18.2-9.8
			c-0.4,0.2-0.8,0.3-1.3,0.3c-0.6-0.9-2.2-0.2-3.1,0.1c-0.2-0.2,0.1-0.5-0.3-0.5c-0.4,0.1-0.5,0.5-1,0.4c-0.1-0.3,0.1-0.1,0.2-0.4
			c-0.5,0.3-0.7-0.5-1.2-0.7c0.3-0.5-0.1-0.7-0.2-1.1c0-0.5,0.4,0,0.5-0.4c0-0.6-0.4,0.1-0.7-0.1c-0.4-1.3,1.4-4.3,2.6-4.8
			c0.8-2.2,0.3-4.4,0.9-6.9c0.1-0.6,0.7-1.1,0.5-1.8c1.1-1.6,0.7-2.9,1.2-4.4c-0.6-1.4,0.9-2,1.7-2.5c0.9-0.6,1.5-1.7,2.2-1.6
			c-0.2-0.7,0,0.2,0.4,0.3C761.2,721.5,760.8,721.3,761,721.1 M779.6,727.3c-0.3,0.1-0.2-0.5-0.4-0.2c0.1,0.1,0.1,0.2-0.2,0.3
			C779.4,727.5,779.6,727.5,779.6,727.3"/>
	</g>
	<g>
		<g>
			<path fill="#F3E578" d="M728.6,862.9c23.1-6.6,44.5-18.3,62.9-33.6c18.2-15.1,33.4-34,44-55.2c3.3-6.7,6.3-13.6,9.2-20.4
				c3.3-7.9,6.5-15.9,8.8-24.1c0.5-1.9-0.7-4-2.6-4.6c-2-0.5-4,0.7-4.6,2.6c-3.8,13.5-9.6,26.5-15.5,39.2
				c-4.9,10.4-10.9,20.3-17.9,29.5c-0.2,0.3-0.5,0.6-0.7,0.9c0.1-0.1,0.3-0.4-0.1,0.1c-0.5,0.6-0.9,1.2-1.4,1.8
				c-0.9,1.2-1.9,2.3-2.9,3.5c-1.9,2.2-3.8,4.4-5.7,6.5c-3.9,4.2-8.1,8.2-12.4,12c-8.5,7.5-17.5,13.9-27.7,19.7
				c-5.7,3.2-11.5,6.1-17.5,8.7c0.6-0.3-0.5,0.2-0.5,0.2c-0.3,0.1-0.7,0.3-1,0.4c-0.8,0.3-1.6,0.7-2.4,1c-1.5,0.6-3,1.2-4.6,1.7
				c-3.1,1.1-6.2,2.1-9.3,3c-1.9,0.6-3.1,2.6-2.6,4.6C724.6,862.2,726.7,863.4,728.6,862.9L728.6,862.9z"/>
		</g>
	</g>
	<g>
		<g>
			<path fill="#F3E578" d="M700,866.7c3.5,0.5,7.1,0,10.6-0.5c1.6-0.2,3.2-0.3,4.8-0.7c1.2-0.3,2.3-0.7,3.4-1.1
				c1.9-0.6,3.2-2.6,2.6-4.6c-0.6-1.9-2.6-3.2-4.6-2.6c-1.1,0.3-2.3,0.7-3.4,1.1c-0.3,0.1-0.6,0.2-0.9,0.2c-0.1,0-0.1,0-0.2,0
				c-0.4,0.1-0.2,0.1,0.5-0.1c-0.3-0.1-1,0.1-1.3,0.1c-0.4,0.1-0.9,0.1-1.3,0.2c-3.4,0.4-6.8,0.9-10.3,0.5c-1.9-0.3-3.8,1.9-3.7,3.7
				C696.4,865.3,697.9,866.5,700,866.7L700,866.7z"/>
		</g>
	</g>
	<g>
		<g>
			<path fill="#F3E578" d="M632.4,514.7c-23.1,6.6-44.5,18.3-62.9,33.6c-18.2,15.1-33.4,34-44,55.2c-3.3,6.7-6.3,13.6-9.2,20.4
				c-3.3,7.9-6.5,15.9-8.8,24.1c-0.5,1.9,0.7,4,2.6,4.6c2,0.5,4-0.7,4.6-2.6c3.8-13.5,9.6-26.5,15.5-39.2
				c4.9-10.4,10.9-20.3,17.9-29.5c0.2-0.3,0.5-0.6,0.7-0.9c-0.1,0.1-0.3,0.4,0.1-0.1c0.5-0.6,0.9-1.2,1.4-1.8
				c0.9-1.2,1.9-2.3,2.9-3.5c1.9-2.2,3.8-4.4,5.7-6.5c3.9-4.2,8.1-8.2,12.4-12c8.5-7.5,17.5-13.9,27.7-19.7
				c5.7-3.2,11.5-6.1,17.5-8.7c-0.6,0.3,0.5-0.2,0.5-0.2c0.3-0.1,0.7-0.3,1-0.4c0.8-0.3,1.6-0.7,2.4-1c1.5-0.6,3-1.2,4.6-1.7
				c3.1-1.1,6.2-2.1,9.3-3c1.9-0.6,3.1-2.6,2.6-4.6C636.5,515.4,634.4,514.1,632.4,514.7L632.4,514.7z"/>
		</g>
	</g>
	<g>
		<g>
			<path fill="#F3E578" d="M661.1,510.8c-3.5-0.5-7.1,0-10.6,0.5c-1.6,0.2-3.2,0.3-4.8,0.7c-1.2,0.3-2.3,0.7-3.4,1.1
				c-1.9,0.6-3.2,2.6-2.6,4.6c0.6,1.9,2.6,3.2,4.6,2.6c1.1-0.3,2.3-0.7,3.4-1.1c0.3-0.1,0.6-0.2,0.9-0.2c0.1,0,0.1,0,0.2,0
				c0.4-0.1,0.2-0.1-0.5,0.1c0.3,0.1,1-0.1,1.3-0.1c0.4-0.1,0.9-0.1,1.3-0.2c3.4-0.4,6.8-0.9,10.3-0.5c1.9,0.3,3.8-1.9,3.7-3.7
				C664.7,512.3,663.1,511.1,661.1,510.8L661.1,510.8z"/>
		</g>
	</g>
</g>
</svg>
