<?xml version="1.0" standalone="no"?>
<!DOCTYPE svg PUBLIC "-//W3C//DTD SVG 20010904//EN"
 "http://www.w3.org/TR/2001/REC-SVG-20010904/DTD/svg10.dtd">
<svg version="1.0" xmlns="http://www.w3.org/2000/svg"
 width="71.000000pt" height="71.000000pt" viewBox="0 0 71.000000 71.000000"
 preserveAspectRatio="xMidYMid meet">
<metadata>
Created by potrace 1.11, written by Peter Selinger 2001-2013
</metadata>
<g transform="translate(0.000000,71.000000) scale(0.100000,-0.100000)"
fill="#000000" stroke="none">
<path d="M144 658 c-4 -18 -7 -35 -7 -38 1 -3 4 -50 7 -104 5 -91 3 -104 -20
-154 -18 -40 -22 -58 -14 -67 8 -10 7 -23 -5 -50 -13 -34 -14 -39 0 -49 9 -6
18 -25 20 -41 9 -54 36 -100 72 -123 30 -19 46 -23 92 -19 77 7 152 34 149 55
-2 11 4 17 17 17 14 -1 23 10 31 35 11 35 11 35 66 33 51 -2 56 0 67 25 12 25
10 29 -27 62 -22 19 -45 50 -52 68 -17 45 -8 168 20 261 18 61 19 76 8 87 -11
11 -28 3 -103 -48 -108 -73 -159 -87 -193 -55 -13 12 -30 34 -37 48 -16 30
-66 89 -76 89 -4 0 -11 -15 -15 -32z"/>
</g>
</svg>
